<svg id="s56e8470058d25" class="face" xmlns="http://www.w3.org/2000/svg" xmlns:xlink="http://www.w3.org/1999/xlink" x="0px" y="0px" width="357px" height="358px" viewBox="0 0 357 358"><path fill="#b28969" d="M268.5,189.04c-1.41-1.92-2.86-2.74-4.22-2.91c-3.96-0.47-7.28,4.62-7.28,4.62c2.38-21.04,0-32.96,0-32.96c-16.83-65.56-65.84-69.37-76.8-69.39c-0.71,0.02-1.44,0.04-2.2,0.06c-54,1.42-71.5,44.58-71.5,44.58c-9,12.5-4,61.55-4,61.55c-21-12.95-1.5,45.45-1.5,45.45c5,13.5,8,1,8,1c2.88,12.67,6.63,23.41,10.9,32.53c0.85,44.99,1.74,68.73,1.44,83.43c23.33,0,116.79,0,123.83,0l1.52-85.32c6.58-17.33,7.31-32.14,7.31-32.14c2.5,3,6.5,1.5,6.5,1.5C272.75,234.79,268.5,189.04,268.5,189.04z M255.96,199.92C255.93,200.18,255.94,200.15,255.96,199.92L255.96,199.92z M256.22,197.67c0.03-0.3,0.07-0.64,0.11-1.01C256.29,197.01,256.25,197.35,256.22,197.67z M256.82,192.32c0.06-0.55,0.11-0.99,0.14-1.26C256.91,191.5,256.87,191.92,256.82,192.32z M265.33,190.26c-0.04-0.16-0.09-0.37-0.16-0.62c-0.13-0.5-0.31-1.2-0.54-2.1c0.22,0.86,0.4,1.58,0.54,2.1C265.24,189.9,265.29,190.1,265.33,190.26C265.47,190.79,265.48,190.83,265.33,190.26z"/><path fill="#ad8464" d="M125.25,227.25c4.5-6.5,6.97-8.84,12.65-10c4.87-0.99,13.28-2.45,17.35-5.75c9.63-7.79,13.17-20.35,5.59-28.43c-4.32-4.6-7.03-7.3-13.05-8.81c-4.83-1.22-11.04-2.16-15.05-6.1c-7.84-7.69-11.29-20.73-10.82-31.2c0.41-8.95,9.17-18.79,15.15-24.83c7.04-7.12,15.71-14.12,23.72-20.42c-40.38,8.84-54.04,42.51-54.04,42.51c-9,12.5-4,61.55-4,61.55c-21-12.95-1.5,45.45-1.5,45.45c5,13.5,8,1,8,1c2.89,12.7,6.64,23.46,10.93,32.59c-0.78,38.87,1.32,70.54,1.15,83.21c7.79,0.1,53.6-30.51,61.45-32.32C179.16,318.81,113.75,264.75,125.25,227.25z"/><g class="eyes eyes-19"><path fill="#ffffff" fill-opacity="0.7" d="M158.33,206.68c-0.61-0.47-1.13-1.22-1.76-1.66c-1.49-1.05-3.98-1.48-5.74-1.75c-0.15-0.02-0.3-0.03-0.45-0.05c0.42,0.62,0.72,1.32,0.86,2.14c0.27,1.59-1.1,2.92-2.16,3.89c-1.44,1.33-2.83,2.11-4.76,2.66c-2.15,0.61-4.04-0.15-5.58-1.77c-1.36-1.42-1.6-3.34-1.64-5.25c-0.78,0.46-1.5,0.99-2.07,1.52c-1.18,1.09-2.64,1.92-3.77,3.08h0.25c-0.05,0.72,5.78,4.06,7.27,4.31c2.17,0.37,5.32,0.66,7.4-0.21c1.85-0.78,5.19-1.08,6.75-2.35c2.23-1.82,3.93-2.11,6.26-3.84C158.95,207.16,158.61,206.9,158.33,206.68z"/><path fill="#3d270f" d="M144.31,211.91c1.93-0.55,3.32-1.33,4.76-2.66c1.06-0.97,2.43-2.3,2.16-3.89c-0.14-0.82-0.44-1.53-0.86-2.14c-3.08-0.39-6.49-0.09-9.54,0.28c-1.21,0.14-2.55,0.69-3.75,1.4c0.04,1.91,0.28,3.83,1.64,5.25C140.28,211.76,142.16,212.53,144.31,211.91z"/></g><g><path fill="#ffffff" fill-opacity="0.7" d="M229.09,209.31c-1.17-1.2-2.72-2.3-4.31-2.98c-0.32-0.14-0.65-0.25-0.98-0.35c0.22,1.73-0.23,3.54-1.48,4.75c-0.64,0.62-1.31,1.36-2.14,1.7c-0.88,0.36-1.57,0.48-2.43,0.97c-1.28,0.72-2.6,0.97-4.01,0.37c-1.6-0.69-2.74-2.23-3.67-3.69c-0.48-0.75-0.81-1.53-0.9-2.41c-0.08-0.8,0.18-1.57,0.33-2.34c-1.42,0.5-3.69,1.1-4.25,1.51c-0.5,0.37-0.93,0.86-1.42,1.25c-0.47,0.38-1.09,0.65-1.47,1.15c0.99,1.78,3.2,2.79,5.06,3.33c1.48,0.43,2.65,0.96,4.16,1.11c1.28,0.13,2.56,0.35,3.83,0.58c1.33,0.25,2.8,0.42,4.17,0.42c0.61,0,1.22,0,1.83,0c0.9,0,6.29-1.2,7.5-2.15c0.25-0.19,1.68-0.91,1.74-1.01C231.05,210.84,229.45,209.69,229.09,209.31z"/><path fill="#3d270f" d="M209.17,207.67c0.08,0.88,0.41,1.66,0.9,2.41c0.93,1.46,2.07,3,3.67,3.69c1.41,0.61,2.73,0.36,4.01-0.37c0.86-0.48,1.55-0.61,2.43-0.97c0.83-0.34,1.5-1.08,2.14-1.7c1.25-1.21,1.71-3.02,1.48-4.75c-2.03-0.63-4.25-0.7-6.29-1.13c-1.9-0.41-4.85-0.69-6.67-0.18l-0.25,0.17c-0.17,0.14-0.57,0.31-1.09,0.49C209.35,206.1,209.09,206.87,209.17,207.67z"/></g><g class="eyebrows eyebrows-21"><path fill="#2e1d16" fill-opacity="0.7" d="M171.5,189c-1.46-4.67-6.03-5.8-10.24-6.25c-4.7-0.5-9.13-1.75-13.8-2.43c-4.42-0.65-8.87-1.92-13.15-2.57c-4.45-0.68-8.37,1.52-12.17,3.75c-2.86,1.67-5.56,4.37-7.62,6.94c2.55,0.79,5.12,0.49,7.74,0.37c3.43-0.15,8.56-0.99,11.75-0.31c6.1,1.31,10.36,1.94,16,1.75C155,190.08,166.65,188.51,171.5,189"/><path fill="#2e1d16" fill-opacity="0.7" d="M229.25,177.5c-4.44,0.66-8.87,1.88-13.25,2.25c-2.83,0.24-5.67,1.15-8.5,1c-3.66-0.2-13.46,0.87-12.46,6.46c2.92,1.52,3.97,3.02,7.92,2.55c2.18-0.26,4.26-1.01,6.48-1.31c2.3-0.31,11.03,0.33,13.11,0.31c5-0.06,9.76-1.13,14.49,1.93c2.61,1.68,8.44,4.75,7.41-1.39c-3.09-1.37-4.66-4.22-7.01-6.49c-2.39-2.31-5.47-3.95-8.44-5.3"/></g><g class="chin chin-7"><path display="inline" fill="none" stroke="#ad8464" stroke-miterlimit="10" d="M146,311.67c2.08,1.12,4.01,5.38,5.67,7.35 c2.23,2.66,4.46,5.73,7.34,7.74c7,4.89,18.17,7.28,26.56,7.91c5.8,0.44,14.16-3.86,18.4-7.64c3.1-2.77,6.04-5.84,9.02-8.71 c2.25-2.17,5.93-4.62,6.35-7.98"/></g><g class="hair hair-1005"><path fill="#2e1d16" d="M257.1,158.8c-16.8-65.6-65.8-69.4-76.8-69.4c-0.7,0-1.4,0-2.2,0.1c-54,1.4-71.5,44.6-71.5,44.6c-9,12.5-4,61.5-4,61.5c0,0-0.1,0-0.1-0.1c0.3,0.7,0.6,1.4,0.9,2.2c3.5-10.9,8.4-21.4,12.6-32.1c1.6-4.1,0.7-9.7,0.8-14.1c0-1.9,8.1-6.4,9.8-7.7c6.2-4.7,16.5-7,24.1-9c10.2-2.6,17.5-2.7,28.1-2.3c9.6,0.4,18.5,1.9,27.9,3.5c2.6,0.5,6.9,0.4,9.6,1.7c0.7,0,1.4,0.2,2.2,0.6c7.6,4,15.7,6.6,19.3,15.1c1.2,2.9,1.8,5.9,2,8.9c0.3,0.6,0.5,1.2,0.8,1.8c0.4,0.9,0.6,1.9,0.7,2.9c1.2,1.5,2.3,3.1,3.2,5.1c3.5,8.4,5.6,16.9,10.9,24.4c0.7-1.7,1.3-3.3,1.9-4.9c-0.1,0.1-0.2,0.2-0.2,0.2C259.5,170.7,257.1,158.8,257.1,158.8z"/></g><g class="nose nose-14"><path fill="#a87f5f" d="M186.01,198.89c-0.17,1.53-0.26,3.95-0.49,5.46c-0.58,3.86,0.9,6.29,0.88,10.24 c-0.02,6.65,6.48,12.91,4.38,19.46c-5.2-0.71-6.56-12.33-6.95-16.23c-0.33-3.31-1.14-7.11-1.01-10.49 c0.11-2.91,1.43-6.24,2.54-9.75C185.35,197.6,186.24,196.78,186.01,198.89z"/><path fill="#805737" d="M167.01,243.31c-1.69-0.6-8.1-2.83-4.16-5.28c3.3-2.05,6.01,3.82,7.51,5.57c-1.23,0.46-2.28-0.2-3.4-0.53"/><path fill="#805737" d="M180.75,241.5c2.52-0.88,6.87-5.64,8.51-1.76c0.47,1.11,0.34,2.4-0.75,3.03c-1.45,0.83-5.62-0.48-7.47-0.06c-0.18-0.46,0.07-0.58,0.21-0.96"/><path fill="none" stroke="#a37a5a" stroke-miterlimit="10" d="M154.5,236.75c0.01,3.79,0.5,4.04,3.51,6.06c1.94,1.3,3.47,2.55,5.75,3.19c4.81,1.36,8.25,4.81,14,3.75c2.51-0.46,4.55-1.87,7-2.5c2.1-0.54,3.37-1.23,5.56-1.25c5.88-0.06,7.54-5.88,5.49-10.81c-0.9-2.16-2.54-3.59-4.05-5.44"/></g><g class="mouth mouth-15"><path fill="#9e7555" fill-opacity="1" d="M155.17,269.83c2.28,0.77,3.62,5.06,5.54,6.67c2.81,2.35,6.46,4.04,10.09,4.71c6.54,1.21,13.64-0.47,20.2,0.96c7.75,1.68,15.34-5.75,16.98-12.63c-2.1-0.07-4.06-0.37-6.13-0.87c-3.28-0.79-6.47-0.27-9.82-0.17c-2.67,0.08-5.21,0.97-7.89,1.17c-2.64,0.19-5.33,0.25-7.99,0.33c-1.85,0.06-3.47-0.67-5.16-0.99c-1.93-0.37-3.73,0-5.61,0.17c-2,0.18-4.03-0.1-6.02,0.16c-1.21,0.16-2.34,0.75-3.54,0.83"/><path fill="#a87f5f" d="M154.83,270c1.32-1.31,3.81-2.26,5.37-3.29c1.13-0.75,2.22-1.45,3.61-1.84c2.71-0.75,5.81-1.18,8.54-1.71c2.58-0.5,5.99-1.4,8.37,0.01c1.12,0.67,1.9,1.69,3.28,1.83c2.11,0.21,4.58-1.09,6.73-1.34c2.03-0.24,3.7,0.7,5.72,0.96c2.05,0.26,3.68,0.66,5.63,1.34c2.09,0.73,5.17,1.95,6.9,3.41c-1.88,3.29-6.43,3.83-10.01,3.8c-3.57-0.04-6.77-1.62-10.29-1.34c-2.32,0.19-4.22,1.15-6.54,1.17c-3.19,0.03-6.37-0.02-9.52-0.33c-3.2-0.32-6.42-0.68-9.91-0.67c-1.53,0-3.68-0.21-5.05-0.83c-1-0.46-1.51-1.04-2.67-1.17"/></g></svg>