<svg class="face" xmlns="http://www.w3.org/2000/svg" xmlns:xlink="http://www.w3.org/1999/xlink" x="0px" y="0px" width="357px" height="358px" viewBox="0 0 357 358"><path fill="#917357" d="M268.5,189.04c-1.41-1.92-2.86-2.74-4.22-2.91c-3.96-0.47-7.28,4.62-7.28,4.62c2.38-21.04,0-32.96,0-32.96c-16.83-65.56-65.84-69.37-76.8-69.39c-0.71,0.02-1.44,0.04-2.2,0.06c-54,1.42-71.5,44.58-71.5,44.58c-9,12.5-4,61.55-4,61.55c-21-12.95-1.5,45.45-1.5,45.45c5,13.5,8,1,8,1c2.88,12.67,6.63,23.41,10.9,32.53c0.85,44.99,1.74,68.73,1.44,83.43c23.33,0,116.79,0,123.83,0l1.52-85.32c6.58-17.33,7.31-32.14,7.31-32.14c2.5,3,6.5,1.5,6.5,1.5C272.75,234.79,268.5,189.04,268.5,189.04z M255.96,199.92C255.93,200.18,255.94,200.15,255.96,199.92L255.96,199.92z M256.22,197.67c0.03-0.3,0.07-0.64,0.11-1.01C256.29,197.01,256.25,197.35,256.22,197.67z M256.82,192.32c0.06-0.55,0.11-0.99,0.14-1.26C256.91,191.5,256.87,191.92,256.82,192.32z M265.33,190.26c-0.04-0.16-0.09-0.37-0.16-0.62c-0.13-0.5-0.31-1.2-0.54-2.1c0.22,0.86,0.4,1.58,0.54,2.1C265.24,189.9,265.29,190.1,265.33,190.26C265.47,190.79,265.48,190.83,265.33,190.26z"/><path fill="#8c6e52" d="M125.25,227.25c4.5-6.5,6.97-8.84,12.65-10c4.87-0.99,13.28-2.45,17.35-5.75c9.63-7.79,13.17-20.35,5.59-28.43c-4.32-4.6-7.03-7.3-13.05-8.81c-4.83-1.22-11.04-2.16-15.05-6.1c-7.84-7.69-11.29-20.73-10.82-31.2c0.41-8.95,9.17-18.79,15.15-24.83c7.04-7.12,15.71-14.12,23.72-20.42c-40.38,8.84-54.04,42.51-54.04,42.51c-9,12.5-4,61.55-4,61.55c-21-12.95-1.5,45.45-1.5,45.45c5,13.5,8,1,8,1c2.89,12.7,6.64,23.46,10.93,32.59c-0.78,38.87,1.32,70.54,1.15,83.21c7.79,0.1,53.6-30.51,61.45-32.32C179.16,318.81,113.75,264.75,125.25,227.25z"/><g class="eyes eyes-17"><path fill="#ffffff" fill-opacity="0.7" d="M157.243,198.587c-1.524-1.36-4.262-2.417-6.339-2.587c-0.832-0.068-1.68-0.071-2.529-0.057c0.356,0.245,0.694,0.548,1.028,0.931c0.869,0.995,2.476,2.215,2.722,3.528c0.486,2.597-2.42,5.352-4.6,6.229c-2.99,1.203-5.94,0.13-8.053-2.153c-2.213-2.393-2.299-4.442-1.274-7.112c-2.103,0.491-4.044,1.064-4.813,1.637c-1.419,1.057-2.36,2.351-3.754,3.358c0.351,0.998,4.133,3.899,4.935,4.507c1.587,1.202,3.986,2.07,5.926,2.387c3.356,0.549,6.377,0.334,9.231-1.509c2.503-1.617,4.958-3.615,7.036-5.741c0.242-0.248,1.564-1.545,1.596-1.656C158.552,199.651,157.81,199.093,157.243,198.587z"/><path fill="#4f2a1a" d="M139.472,204.479c2.112,2.283,5.063,3.355,8.053,2.153c2.18-0.876,5.085-3.632,4.6-6.229c-0.246-1.313-1.853-2.534-2.722-3.528c-0.334-0.383-0.672-0.686-1.028-0.931c-0.996,0.016-1.993,0.056-2.972,0.056c0,0-3.813,0.575-7.205,1.367C137.173,200.037,137.259,202.086,139.472,204.479z"/><path fill="#ffffff" fill-opacity="0.7" d="M224.75,197.75c-0.927-0.4-1.801-0.626-2.75-1c-0.203-0.08-0.401-0.148-0.597-0.209c0.012,0.45-0.072,0.934-0.156,1.555c-0.24,1.773-0.452,3.541-1.747,4.91c-2.318,2.45-6.213,3.793-9.507,2.619c-2.027-0.723-2.863-2.054-3.765-3.946c-0.666-1.397-1.591-3.14-1.116-4.733c0.106-0.357,0.292-0.674,0.502-0.979c-2.416,0.614-4.808,1.012-5.734,3.622c3.074,1.949,5.593,4.743,8.783,6.511c2.688,1.49,6.017,2.545,9.126,2.526c4.683-0.029,9.687-2.835,12.206-6.848C228.931,200.548,226.251,198.398,224.75,197.75z"/><path fill="#4f2a1a" d="M206.229,201.679c0.901,1.892,1.737,3.223,3.765,3.946c3.294,1.174,7.188-0.169,9.507-2.619c1.295-1.369,1.507-3.136,1.747-4.91c0.084-0.621,0.168-1.105,0.156-1.555c-1.315-0.407-2.495-0.412-3.996-0.553c-1.943-0.183-3.734-0.976-5.657-0.988c-1.307-0.009-2.126,0.348-3.375,0.125V195c-0.866,0.453-1.815,0.726-2.761,0.966c-0.21,0.305-0.396,0.622-0.502,0.979C204.638,198.539,205.563,200.281,206.229,201.679z"/></g><g class="eyebrows eyebrows-22"><path fill="#141615" fill-opacity="0.5" d="M123.3,197.5c0,0,17.1-12.1,40.4-5.6c0.3,0.1,0.6,0.2,0.9,0.2c23.8,7.1-21.5-11.2-28.5-10.9C136,181.2,123.3,192.3,123.3,197.5z"/><path fill="#141615" fill-opacity="0.5" d="M197.7,192.1c0,0,25-4.4,37.3,3.6c0,0-2-9-11.7-14.5C223.3,181.2,207.9,182.8,197.7,192.1z"/></g><g class="hair hair-2000"><path fill="#141615" d="M102.86,192.23c0.44-2.99,2.32-4.61,2.2-7.88c-0.1-2.7,0.11-5.71-0.16-8.43c-0.15-1.51-0.66-2.65-0.24-4.13c0.48-1.72,1.73-3.43,2.32-5.11c0.92-2.62,1.31-5.26,2.48-7.83c1.94-4.24,2.92-8.93,4.5-13.31c1.09-3.02,1.96-7.16,4.01-9.59c4.21-4.99,6.14-10.76,9.93-16c2.88-3.97,7.02-9.4,11.5-11.32c2.8-1.2,5.73-1.97,8.45-3.25c1.73-0.81,3.3-1.85,5.03-2.65c3.14-1.46,5.83-2.14,9.23-2.62c2.83-0.4,5.5-0.52,8.34-0.63c2.25-0.09,4.4,0.79,6.67,0.47c3.74-0.53,6.94-1.97,10.69-1.42c2.12,0.31,5.58,0.72,7.53,1.86c1.74,1.02,2.79,2.14,4.99,2.9c2.31,0.8,4.59,2.39,6.93,2.63c1.6,0.17,2.57-0.21,3.92,0.63c1.26,0.78,2.02,2.38,3.19,3.34c2.21,1.81,4.15,2.92,6.54,4.08c2.24,1.1,3.33,3.15,5.04,4.9c1.39,1.41,2.96,2.65,4.39,4.07c1.43,1.42,3.32,3.15,4,5.08c0.73,2.03,0.86,4.11,2.03,6.11c1.35,2.31,2.75,4.22,3.56,6.78c0.45,1.41,0.79,2.94,1.36,4.38c0.53,1.33,1.19,2.27,1.89,3.61c1.36,2.57,2.01,5.52,3.33,8.12c1.24,2.46,2.12,4.21,2.66,7.09c0.42,2.26,1.21,3.65,1.8,5.63c0.58,1.93-0.04,3.89,0.06,5.93c0.18,4.03,1.97,8.24,2.48,12.24c0.29,2.24,1.04,3.83,1.13,6.12c0.06,1.48,0.24,2.97,0.5,3.97c-0.16-2.16,0.48-5.34,1.35-7.18c1.06-2.25,4.17-2.78,4.86-4.35c0.9-2.04-2.25-4.84-2.66-6.89c-0.4-1.99,0.42-5.15,0.46-7.13c0.02-1.04,0.33-1.94,0.05-2.94c-0.32-1.17-1.18-1.79-1.42-3.04c-0.37-1.94,0.37-4.24,0.46-6.16c0.07-1.39-0.15-2.82,0-4.21c0.19-1.76,0.97-3.35,0.91-5.2c-0.08-2.29-1.38-4.12-2.76-5.86c-2.62-3.31-5.32-6.68-5.59-11.04c-0.26-4.15,0.35-10.36-1.64-13.98c-2.3-4.19-6.98-7.42-11.04-9.67c-2.48-1.38-1.84-3.2-3.27-5.4c-0.96-1.47-2.81-2.79-4.11-3.64c-3.22-2.1-8.3-1.61-10.67-4.36c-1.22-1.42-2.13-3.34-3.49-4.85c-2.6-2.89-7.05-5.66-10.63-6.89c-2.55-0.88-3.49-0.96-5.43-2.53c-1.61-1.3-3.48-1.15-5.4-2.01c-3.22-1.45-4.55-1.67-7.86,0c-0.95,0.48-1.17,1.08-2.3,1.09c-1.3,0.01-1.48-0.92-2.47-1.17c-2.34-0.59-4.98,0.15-6.96,0.76c-4.7,1.44-7.3,2.41-12.01,2.07c-2.31-0.17-4.4-0.28-6.74-0.28c-0.93,0-2.84-0.35-3.67,0.16c-1.02,0.63-1.14,2.34-1.92,3.12c-1.95,1.96-5.52,1.65-8.18,1.61c-3.5-0.06-5.7,0.25-7.99,2.71c-2.05,2.2-3.9,3.82-5.72,6.24c-1.83,2.44-3.76,2.52-6.13,4.29c-2.34,1.75-2.23,3.95-2.93,6.5c-0.71,2.54-3.2,4.03-5.34,5.46c-1.79,1.19-4.32,2.84-4.81,5.13c-0.57,2.71,1.53,5.25,0.17,7.82c-1.07,2.03-3.6,3.34-4.84,5.28c-1.64,2.54-0.86,5.12-2.71,7.61c-1.04,1.4-3.16,2.7-3.95,4.13c-1.39,2.49,0.44,4.57-1.3,7.11c-1,1.46-2.31,2.2-2.42,4.13c-0.07,1.31,0.63,3.35,0.63,4.87c0,1.02,0,2.04,0,3.05c0,2.8,0.19,4.5,1.42,6.85c1,1.93,1.32,2.89,1.29,5.06c-0.02,1.94-0.05,3.89,0.23,5.77c0.31,2.06,1.21,3.83,1.52,5.82c0.25,1.62-0.33,3.36,0.06,5c0.39,1.65,2.04,2.68,2.52,4.33c1.05-2.08,0.09-2.73,0.41-4.79"/><path fill="#141615" d="M244.17,276.96c-0.01,0.03-0.03,0.06-0.04,0.1c0.57,0.76,1.15,1.52,1.73,2.28c0-0.17,0-0.33,0-0.5C245.25,278.23,244.68,277.6,244.17,276.96z"/><path fill="#141615" d="M247.66,264.07c-0.24,1.11-0.3,2.24-0.24,3.37c0.16,0.03,0.32,0.08,0.48,0.15c0.21-0.61,0.42-1.22,0.62-1.83C248.2,265.19,247.91,264.62,247.66,264.07z"/><path fill="#141615" d="M272.23,311.74c-2.18-2.53-3.96-5.3-5.52-8.19c0.05-0.72,0-1.46-0.3-2.27c-0.58-1.57-1.79-2.51-2.27-4.23c-0.4-1.46-0.39-3.04-0.56-4.52c-0.27-2.38-0.89-4.67-1.46-6.96c0.77,1.14,1.52,2.29,2.21,3.49c1.45,2.54,5.31,16.39,9.92,12.44c2.04-1.75-2.76-9.62-4.22-11.98c-2.65-4.3-6.25-8.01-9.28-12.07c-0.3-2.82-0.64-5.65-1.82-8.27c-1.88-4.17-6.37-7.29-7.95-11.85c-0.24,0.97-0.51,1.97-0.79,2.99c-0.15,0.56-0.31,1.12-0.48,1.69c-0.36,1.23-0.75,2.49-1.17,3.76c1.87,3.4,4.62,7.05,5.17,7.94c1.53,2.49,3.36,4.9,5.19,7.36c0.2,1.78-0.09,3.54,0.4,5.28c0.04,0.13,0.08,0.25,0.11,0.37c-2.25-5.51-4.71-10.93-8.32-15.75c-1.42-1.9-2.33-2.97-3.17-3.38c-0.12,0.35-0.24,0.69-0.37,1.04c-0.52,1.45-1.08,2.92-1.68,4.4c-0.01,1.66-0.01,3.34,0,5.04c0,0.25,0,0.51,0,0.76c0.4,0.4,0.81,0.8,1.23,1.19c0.78,1.08,1.65,2.16,2.44,3.54c0.85,1.49,1.43,3,1.86,4.52c-0.05-0.11-0.08-0.22-0.13-0.32c-1.38-3.13-3.38-5.8-5.39-8.43c0.05,5.47,0.22,11.11,0.59,16.62c1.28,2.36,1.87,4.67,2.75,8.25c1.82,7.42,7.22,13.65,9.52,21.02c1.64,5.27,1.6,14.4,8.81,12.04c0.93-7.15-2.45-17.75-5.92-23.52c-2.02-3.35-4.05-5.89-5.5-9.73c-0.31-0.82-0.57-1.65-0.83-2.49c1.41-1.07,2.03-2.66,2.11-4.52c0.06,0.1,0.11,0.2,0.18,0.29c1.33,1.89,3.06,3.48,4.54,5.22c0.36,3.56,0.83,6.94,1.94,10.26c0.94,2.81,0.61,4.5,2.61,6.93c1.76,2.15,1.98,4.2,2.54,6.54c-0.01-0.77,0.04-1.58-0.08-2.46c-0.27-1.92-1.35-3.41-1.73-5.24c-0.51-2.49-1.49-5.92-1.63-8.71c2.01,5.57,4.01,11.92,7.32,10.99C278.86,319.21,274.6,314.49,272.23,311.74z"/><path fill="#141615" d="M113.5,256.06c-0.16-0.49-0.32-0.97-0.48-1.46c0.04-0.05,0.07-0.1,0.1-0.15c-0.07-0.07-0.14-0.14-0.21-0.21c-0.48-1.52-0.94-3.09-1.39-4.68c-0.55,0.27-1.16,0.74-1.85,1.41c-0.2-0.23-0.41-0.46-0.59-0.69h-1c-0.65,1.49-1.07,2.91-1.48,4.29c-2.96,3.92-6.17,9.22-7.13,13.79c-0.32,1.51-0.57,2.82-0.81,4c-2.6,6.97-6.47,14.33-7.1,21.84c-0.62,7.38,0.62,11.3-2.84,18.1c-3.08,6.06-4.73,11.47-4.04,18.35c1.54-5.34,6.07-8.85,7.83-13.99c0.06,3.58,0.89,7.15,0.58,10.65c-0.3,3.41-2.63,6-2.42,9.48c2.04-2.53,3.43-5.63,4.59-8.83c0.37,1.7,1.11,2.91,2.38,3.25c-0.42,3.84-0.15,7.6,3.42,9.2c1.19,0.53,2.12,0.72,2.85,0.65c0.64-0.06,1.13-0.32,1.49-0.73c1.18-1.35,1.05-4.31,0.55-7.24c1.41-3.27,3.04-7.72,4.8-13.88c0.09-4.29,0.14-8.58,0.32-12.92c0.34-8.04,0.56-20.55,6.9-26.12c0.29-0.25,0.17-1.48,0.19-1.83c0.32,0.18,0.62,0.39,0.91,0.62c0.32-2.04,0.63-4.15,0.95-6.33c-1.96-4.17-3.8-8.69-5.5-13.57C114.17,258.07,113.83,257.07,113.5,256.06z M99.59,293.75c-0.32,3.14-1.17,5.63-2.2,7.98c-0.07-0.21-0.13-0.42-0.2-0.63c-0.33-1.03-0.73-2.13-1.14-3.26c0.27-1.44,0.44-2.93,0.54-4.66c0.26-4.62,1.02-8.96,2.32-13.06c2.28-1.67,4.87-3.12,6.65-4.95c-0.06,0.82-0.15,1.61-0.24,2.37C102.75,282.49,100.14,288.43,99.59,293.75z M94.53,303.32c0.24,0.84,0.48,1.67,0.71,2.5c0.03,0.09,0.05,0.18,0.08,0.28c-0.66,1.4-1.31,2.88-1.88,4.51C93.6,308.19,93.71,305.92,94.53,303.32z M114.98,270.81c2.71,10.81-7.34,16.42-7.39,26.47c-0.03,5.61-1.59,11.29-3.01,17.02c-0.37-3.85-0.85-7.33-0.61-9.13c0.18-1.32,0.39-2.64,0.63-3.95c0.2-0.7,0.39-1.39,0.57-2.09c0.24-0.96,0.43-1.96,0.6-2.99c0.34-1.19,0.73-2.37,1.2-3.52c2.19-5.42,5.93-8.92,6.73-14.85c0.23-1.7,0.08-3.24-0.17-4.75C114.02,272.26,114.51,271.51,114.98,270.81z"/><path fill="#141615" d="M269.18,326.25c0.01,0.96,0.13,1.87,0.87,2.79C269.65,328.05,269.39,327.13,269.18,326.25z"/><path fill="#141615" d="M251.09,256.03h-0.5c0,0.01,0,0.02,0.01,0.02C250.76,256.05,250.92,256.06,251.09,256.03z"/></g><g class="facial-hair facial-hair-17"><path fill="#141615" fill-opacity="0.7" d="M246.7,267.4c-2.4,4.3-5.9,18.5-10.8,19.8c-1.1,1.2-1.2,3.7-2.3,5.1c-1.7,2.3-4.8,4.5-5.1,7.6c-0.2,3.2-3,4.8-5.6,6c-2.7,1.3-4.2,3.9-7.1,4.9c-2.1,0.7-4.2,0.5-6.1-0.6c-1.7,1.3-4.4,1.9-6.5,1.2c-3.3-1.1-4.3,0.7-7.5,1.6c-2.9,0.9-6.1,0.9-9,1.5c-1.5,0.3-5.5,0.3-6.3,0.3c-1.1-0.1-2.3,0.2-3.4,0c-0.4-0.6-0.8-1.2-1.2-1.8c-0.5-1.1-1.4-1.4-2.9-0.7c-2.3-0.9-4.7,0.3-6.9-1c-0.9-0.3-0.4,1.4-1.5,0.3c-2.2-2.1-3.9-4.4-6.9-5.2c-2.8-0.7-3.9-2.1-5.7-4.2c-2.6-1.4-5.8-1.6-8.2-3.2c-8-5.4-19.2-15.2-21.8-25.2c-5-10.2-8.8-20.6-12.7-31.4c4.4,14.9,8.8,30.5,16.3,44.2c1.6,3,3.3,5.2,5.8,7.4c5.8,5.2,12.1,10.5,18.7,14.6c3.3,2.1,10.8,8.4,14.9,7.8c4.6-0.7,9.3,4.2,13.5,5.2c8.2,1.9,18.4-1.6,26.3-3.4c7.5-1.6,14.8-3.9,20.1-9.6c16.4-17.5,28.5-43.8,29.3-68.2C251.9,248.9,250.9,259.9,246.7,267.4z"/></g><g class="nose nose-11"><path fill="#87694d" d="M186.01,198.89c-0.17,1.53-0.26,3.95-0.49,5.46c-0.58,3.86,0.9,6.29,0.88,10.24 c-0.02,6.65,6.48,12.91,4.38,19.46c-5.2-0.71-6.56-12.33-6.95-16.23c-0.33-3.31-1.14-7.11-1.01-10.49 c0.11-2.91,1.43-6.24,2.54-9.75C185.35,197.6,186.24,196.78,186.01,198.89z"/><path fill="#5f4125" d="M168.25,236.38c-1.48,0.41-5.26,4.48-3.75,5.85c1.41,1.29,2.76-0.81,3.88-1.39c1.75-0.9,3.65-0.71,5.48-1.35c0.53-2.2-4.6-5.68-5.73-2.99"/><path fill="#5f4125" d="M188.63,235c-1.05-0.39-1.6-1.1-2.78-0.5c-0.65,0.33-2,1.59-2.35,2.22c-1.14,2.1,3.47,3.29,4.9,4.06c1.06,0.57,5.07,1.1,4.35-1.17c-0.25-0.8-1.83-2.11-2.35-2.9c-0.52-0.77-0.86-1.18-1.65-1.59"/><path fill="none" stroke="#826448" stroke-miterlimit="10" d="M155.88,239.75c0.06,7.07,10.22,7.27,15.25,6c2.97-0.75,5.7,0.64,8.59,0.88c0.73,0.06,1.81,0.16,2.51-0.09c0.71-0.26,1.25-1.16,1.91-1.48c1.22-0.6,3.52-0.55,4.88-0.31c2.73,0.49,5.06,1.36,7.61-0.09c2.49-1.41,3.63-2.95,3.63-5.78"/></g><g class="mouth mouth-14"><path fill="#1E0E0F" d="M156.1,268.13c-1.36,0.44-2.56-0.01-3.79-0.4c-0.08,1.38,1.71,2.42,2.57,3.16c1.28,1.1,2.82,2.29,4.24,3.09c2.47,1.4,5.49,0.86,8.23,1.11c3.5,0.32,7.14,0.21,10.66,0.29c7.43,0.18,14.62-0.2,21.89-1.75c2.94-0.63,6.29,1.3,8.05-1.42c0.38-0.59,1.36-2.64,0.96-3.22c-0.61-0.9-3.37-0.41-4.33-0.41c-4.86,0-9.81,0.06-14.64-0.16c-5.07-0.23-10.13,0.33-15.16,0.31c-4.92-0.02-10.03-1.24-14.98-0.6c-1.18,0.15-3.95,1.17-4.92,0.15"/><path fill="#F2E8D3" d="M160.19,272.21c0.52-2.44,0.49-2.98,2.84-3.9c1.99-0.78,4.17,0.02,6.31-0.42c1.37-0.28,2.65-0.1,4.01-0.06c1.18,0.04,2.26-0.26,3.51-0.31c2.12-0.08,4.49,0.71,5.86,2.29c1.18-1.27,3.21-1.92,4.98-2.29c1.3-0.27,2-0.19,2.99,0.65c0.18,0.15,0.49,0.81,0.64,0.87c0.95,0.4,0.4-0.07,1.25-0.4c1.11-0.43,2.14-0.65,3.32-0.32c1.04,0.29,1.89,1.28,2.84,1.48c1.34,0.28,4.47-0.09,5.79-0.4c1.88,2.61-2.86,3.82-4.43,4.48c-2.48,1.05-4.66,3.95-7.41,4.4c-3.16,0.51-6.48,0.9-9.72,1.05c-1.58,0.07-3.04-0.1-4.5-0.46c-1.45-0.36-2.83-0.24-4.36-0.45c-1.35-0.18-2.17-0.88-3.55-1.21c-1.58-0.38-2.89-0.86-4.48-1.63c-0.98-0.47-2.19-1.34-3.31-1.68c-1.32-0.4-2.46-0.15-3.24-1.54c0.36-0.32,0.17-0.53,0.33-0.91"/><path fill="#87694d" d="M152.17,267.98c3.67-0.2,6.51-2.17,9.69-3.32c2.45-0.88,5.78-1.42,8.43-1.67c3.05-0.29,6.28,0.02,9.26,0.3c2.97,0.28,6.15-0.15,9.23-0.15c4.08,0,7.87-0.39,11.78,0.79c1.81,0.54,3.74,1.32,5.31,2.23c0.79,0.46,3.4,2.02,3.44,2.85c-1.47,0.47-2.99,0.08-4.51,0.33c-1.13,0.19-2.21,0.48-3.48,0.61c-1.67,0.17-3.43,0.42-5.14,0.3c-1.96-0.14-3.58-0.88-5.45-1.06c-2.82-0.27-5.3,0.7-7.86,1.21c-2.86,0.57-6.07-0.48-8.91-0.6c-3.94-0.18-7.86-0.45-11.76-0.45c-1.74,0-3.64,0.6-5.31,0.31c-1.52-0.27-2.84-1.13-4.39-1.09c-0.03-0.19-0.04-0.39-0.02-0.58"/><path fill="#a7696a" fill-opacity="0.9" d="M153.08,269.19c5.63,6.78,10.19,15.23,19.32,17.54c3.78,0.96,7.28,2.02,11.27,2.23c2.11,0.11,4.45-0.26,6.46-0.87c1.64-0.5,3.49-1.06,5.03-1.81c3.94-1.92,7.54-2.91,10.09-6.77c1.71-2.58,4.18-7.42,4.09-10.72c-1.21,2.48-6.04,3.72-8.59,4.22c-3.6,0.71-7.24,1.51-10.84,2.35c-2.67,0.62-5.64,1.33-8.4,1.05c-3.99-0.4-8.38-1.01-12.07-2.5c-3.53-1.42-7.47-1.11-11-2.13c-1.93-0.55-4.48-1.13-5.82-2.76"/></g></svg>