<svg id="s57da0c2d51561" class="face" xmlns="http://www.w3.org/2000/svg" xmlns:xlink="http://www.w3.org/1999/xlink" x="0px" y="0px" width="357px" height="358px" viewBox="0 0 357 358"><path fill="#763b29" d="M268.5,189.04c-1.41-1.92-2.86-2.74-4.22-2.91c-3.96-0.47-7.28,4.62-7.28,4.62c2.38-21.04,0-32.96,0-32.96c-16.83-65.56-65.84-69.37-76.8-69.39c-0.71,0.02-1.44,0.04-2.2,0.06c-54,1.42-71.5,44.58-71.5,44.58c-9,12.5-4,61.55-4,61.55c-21-12.95-1.5,45.45-1.5,45.45c5,13.5,8,1,8,1c2.88,12.67,6.63,23.41,10.9,32.53c0.85,44.99,1.74,68.73,1.44,83.43c23.33,0,116.79,0,123.83,0l1.52-85.32c6.58-17.33,7.31-32.14,7.31-32.14c2.5,3,6.5,1.5,6.5,1.5C272.75,234.79,268.5,189.04,268.5,189.04z M255.96,199.92C255.93,200.18,255.94,200.15,255.96,199.92L255.96,199.92z M256.22,197.67c0.03-0.3,0.07-0.64,0.11-1.01C256.29,197.01,256.25,197.35,256.22,197.67z M256.82,192.32c0.06-0.55,0.11-0.99,0.14-1.26C256.91,191.5,256.87,191.92,256.82,192.32z M265.33,190.26c-0.04-0.16-0.09-0.37-0.16-0.62c-0.13-0.5-0.31-1.2-0.54-2.1c0.22,0.86,0.4,1.58,0.54,2.1C265.24,189.9,265.29,190.1,265.33,190.26C265.47,190.79,265.48,190.83,265.33,190.26z"/><path fill="#713624" d="M125.25,227.25c4.5-6.5,6.97-8.84,12.65-10c4.87-0.99,13.28-2.45,17.35-5.75c9.63-7.79,13.17-20.35,5.59-28.43c-4.32-4.6-7.03-7.3-13.05-8.81c-4.83-1.22-11.04-2.16-15.05-6.1c-7.84-7.69-11.29-20.73-10.82-31.2c0.41-8.95,9.17-18.79,15.15-24.83c7.04-7.12,15.71-14.12,23.72-20.42c-40.38,8.84-54.04,42.51-54.04,42.51c-9,12.5-4,61.55-4,61.55c-21-12.95-1.5,45.45-1.5,45.45c5,13.5,8,1,8,1c2.89,12.7,6.64,23.46,10.93,32.59c-0.78,38.87,1.32,70.54,1.15,83.21c7.79,0.1,53.6-30.51,61.45-32.32C179.16,318.81,113.75,264.75,125.25,227.25z"/><g class="eyes eyes-24"><path fill="#FFFFFF" fill-opacity="0.7" d="M125.8,205.3c0,0,15.6-12.5,30.9-5.5c0,0,0.6,3.2-1.5,4C155.1,203.7,130.3,206.4,125.8,205.3z"/><path fill="#FFFFFF" fill-opacity="0.7" d="M202.4,203.1c0,0,1.4-7.7,18.8-5.5c0,0,11,1.9,15.6,6C236.8,203.7,209.8,206,202.4,203.1z"/><path fill="#1e2420" d="M224,204.4c0.4-0.9,0.6-1.9,0.6-2.9c0-1.2-0.3-2.3-0.9-3.3c-1.6-0.4-2.6-0.6-2.6-0.6c-4.5-0.6-7.9-0.5-10.5,0c-0.8,1.1-1.2,2.5-1.2,3.9c0,1,0.2,1.9,0.6,2.8C214.3,204.7,219.4,204.6,224,204.4z"/><path fill="#1e2420" d="M133.7,200.6c0,0.3-0.1,0.6-0.1,0.9c0,1.4,0.4,2.7,1.2,3.8c4.4-0.2,9.5-0.6,13.5-1c0.4-0.9,0.6-1.8,0.6-2.8c0-1.4-0.5-2.8-1.2-3.9C142.4,197.5,137.5,198.9,133.7,200.6z"/></g><g class="eyebrows eyebrows-18"><path fill="#141615" fill-opacity="0.6" d="M117.5,198.33c-0.11-1.82,2.26-4.52,3.18-6.01c1.64-2.65,3.3-5.76,5.62-7.81c2.25-1.99,5.25-2.95,7.58-4.81c1.69-1.35,3.6-2.37,5.63-3.2c4.88-2.01,9.97-3.43,15.26-2.33c2.85,0.59,5.78,1.4,8.63,1.97c1.52,0.3,3.27,1.29,4.62,2.2c1.13,0.77,2.63,2.2,2.33,3.7c-0.5,2.51-4.22,1.95-6.01,1.5c-4.62-1.15-8.87-2.51-13.65-1.73c-4.53,0.74-8.37,0.9-12.72,2.69c-4.02,1.66-7.9,3.91-11.4,6.51c-1.29,0.96-7.94,7.94-9.06,7.49"/><path fill="#141615" fill-opacity="0.6" d="M231.17,178.31c-6.83-1.26-13.94-4.96-20.55-4.44c-4.35,0.35-8.11-0.01-11.79,1.92c-2.81,1.47-4.68,3.82-1.5,5.77c1.48,0.91,2.55,0.84,4.2,1.12c3.01,0.52,5.96-0.72,9.15-0.59c4.14,0.17,9.17,1.81,13.13,2.82c2.76,0.71,5.5,1.73,8.32,2.35c1.8,0.39,3.04,0.82,4.56,1.79c1.35,0.86,2.53,1.7,3.66,2.65c0.8,0.67,2.28,2.48,3.54,2.03c1.65-0.59,0.38-2.37-0.23-3.11c-1.39-1.71-2.33-3.6-3.61-5.4c-2.55-3.58-5.09-3.74-8.37-6.38"/></g><g class="hair hair-2006"><path fill="#141615" d="M96,180.1c0-9.5,0-19.1,0-28.6c0-8.5,3.5-16.7,6.7-24.3c4.1-9.6,7.8-16.3,16.4-22.8c8-6.1,17.7-9.8,26.9-13.7c18.2-7.6,36.3-4.4,55.5-2.6c8.2,0.8,17.1,5.9,24.8,8.6c3.9,1.4,8,5.8,11.3,8.2c3.8,2.8,6.9,4.6,9.4,8.5c4.1,6.3,10.4,13.7,12.8,20.8c2,5.8,2,15.1,2,21.3c0,6.6,1.6,13.8,0.1,20.2c-1.7,7.4-3.8,13.8-6.7,20.8c-5.3-7.4-7.3-16-10.9-24.4c-1.9-4.5-5.4-7.3-8.5-11.2c-3.3-4-5.4-9.3-7.9-13.9c-1.9-3.3-7.8-6.3-10.8-8.7c-2.4-1.9-7.5-1.8-10.5-2.3c-9.5-1.7-18.3-3.2-27.9-3.5c-10.6-0.4-17.9-0.3-28.1,2.3c-7.6,1.9-17.9,4.3-24.1,9c-1.7,1.3-9.8,5.8-9.8,7.7c-0.1,4.4,0.8,10-0.8,14.1c-4.2,10.7-9.1,21.1-12.6,32.1C101,191.8,98.5,186,96,180.1z"/></g><g class="facial-hair facial-hair-4"><path fill="#141615" fill-opacity="0.3" d="M145.83,261.5c-4.4,4.02-5.19,10-4.67,15.84c0.3,3.37,0.67,6.76,0.67,10.21c0,4.48-0.53,8.28,0.33,12.66c0.38,1.92,0.67,3.66,0.67,5.67c0,2.43,0.36,3.94,1.2,6.13c1.33,3.47,1.29,7.43,3.01,10.8c0.86,1.68,2.24,3.15,3.66,4.37c1.65,1.42,3.1,1.76,4.96,2.7c2.27,1.14,3.41,2.14,6.18,2.44c2.08,0.22,4.03,0.57,6.09,1.07c1.57,0.38,3.25,0.93,4.98,1.09c2.09,0.2,3.99-0.3,6.1-0.3c2.11,0,3.99,0.34,6.04,0.49c2.06,0.15,3.37-0.78,5.29-1.32c3.66-1.04,7.55-1.77,11.13-3.04c2.86-1.01,6.4-2.56,8.87-4.43c5.61-4.25,7.32-11.06,8.52-17.7c1.37-7.52,1.73-15.35,1.3-23.04c-0.36-6.32,0.93-14.07-2.63-19.29c-3.13-4.6-9.07-9.59-14.73-10.34c-6.52-0.87-13.8-4.54-20.3-1.83c-0.98,0.41-2.29,3.98-1.42,5.67c0.5,0.96,3.32-0.57,4.25-0.5c1.87,0.15,3.61,0.34,5.48,0.5c2.71,0.23,4.71,1.67,7.34,2.16c1.71,0.32,2.9,0.95,4.42,1.71c1.69,0.85,3.18,1.07,4.54,2.3c2.08,1.88,5.17,3.84,6.09,6.66c0.57,1.76,0.13,3.73,0.62,5.55c0.71,2.67,1.84,4.6,1.34,7.43c-0.3,1.73-0.89,3.57-1.37,5.32c-0.61,2.17-0.25,4.42-0.66,6.66c-0.45,2.44-1.6,5.06-2.35,7.42c-0.64,2.02-0.55,3.65-1.45,5.61c-0.31,0.68-0.48,1.94-0.97,2.49c-0.55,0.61-2.43,1.35-3.19,1.68c-1.5,0.66-3.53,1.07-5.17,1.19c-2.89,0.2-5.63,0.98-8.51,0.82c-3.39-0.18-6.91-0.17-10.3-0.16c-2.64,0.01-4.96-0.35-7.44-0.82c-2.45-0.47-4.85-1.44-7.29-1.67c-1.98-0.19-3.7,0.03-5.62-0.5c-1.85-0.52-3.8-0.73-5.68-1c-3.57-0.52-6.05-2.46-6.33-6.28c-0.26-3.52-1.01-6.75-1.87-10.15c-1.1-4.33-0.66-8.72-1.3-13.04c-1.04-7.07,2.3-15.14,8.46-19.03c3.56-2.25,7.88-3.62,12.2-3.83c1.58-0.08,3.08-0.42,4.67-0.5c1.67-0.08,3.18,0.33,4.66,0c1.7-0.38,1.97-1,2.22-2.84c0.23-1.7-0.04-2.53-1.71-2.99c-3.87-1.08-7.55-0.61-11,0.67c-3.14,1.16-6.04,1.94-9.33,2.42c-3.03,0.44-6.94,1.4-9.33,3.78c-0.4,0.4-0.71,0.99-1,1.47"/></g><g class="nose nose-1"><path fill="#6c311f" d="M186.01,198.89c-0.17,1.53-0.26,3.95-0.49,5.46c-0.58,3.86,0.9,6.29,0.88,10.24 c-0.02,6.65,6.48,12.91,4.38,19.46c-5.2-0.71-6.56-12.33-6.95-16.23c-0.33-3.31-1.14-7.11-1.01-10.49 c0.11-2.91,1.43-6.24,2.54-9.75C185.35,197.6,186.24,196.78,186.01,198.89z"/><path fill="none" stroke="#672c1a" stroke-miterlimit="10" d="M168.87,209.42c1.28,4.35,3.91,6.45,2.31,10.98 c-0.86,2.45-2.47,5.01-3.98,7.33c-2.59,3.99-11.16,12.3-7.08,17.1c2.22,2.62,4.82,0.96,7.41,0.58c3.94-0.58,6.85,0.88,10.37,1.68 c5.68,1.29,10.55-1.54,16.31-0.43c3.23,0.62,9.41,2.38,8.66-3.58"/></g><g class="mouth mouth-4"><path fill="#DA7771" d="M157.67,276.38c1.49,3.44,4.03,3.59,7.14,4.87c2.15,0.89,4.35,1.38,6.39,2.5c2.68,1.47,5.37,3.07,8.43,3.75c1.94,0.44,5.11,0.85,6.82-0.11c1.46-0.82,3.01-1.7,4.45-2.63c2.56-1.66,4.47-4.48,6.89-6.29c2.75-2.05,6.88-2.2,8.16-5.97c1.85-5.44-8.06-2.5-10.13-4.02c-0.17-1.73-4.4-1.63-5.62-1.72c-2.26-0.17-4.53-0.65-6.8-0.64c-1.87,0.01-3.45,0.66-5.25,0.98c-3.47,0.62-7.12-0.04-10.53,0.92c-2.26,0.64-4.52,1.38-6.48,2.56c-1.46,0.89-5.88,1.61-6.45,3.44c-0.49,1.55,2.95,3.77,4.22,4.35"/><path fill="#F6F1D6" d="M153.67,271.63c-0.26,1.15,1.9,3.61,2.53,4.88c0.88,1.76,4.53,1.7,6.22,1.62c2.79-0.13,5.81-0.2,8.46,0.34c1.52,0.31,3.14,0.19,4.67,0.28c1.57,0.09,3.1,0.61,4.74,0.63c1.71,0.01,3.41,0.01,5.12,0c0.68-0.01,1.4,0.1,2.02-0.24c0.55-0.3,0.78-0.88,1.36-1.13c1.41-0.6,3.71-0.38,5.25-0.51c1.99-0.16,3.13,0.12,4.88-0.96c1.38-0.85,2.74-1.21,3.87-2.44c0.94-1.02,3.16-1.49,3.88-2.6c-3.06-1.57-7.86-2.79-10.9-4.35c-2.31-1.18-4.91-1.71-7.48-1.77c-4.71-0.11-10.18-0.37-14.68,1.09c-3.74,1.22-7.73,0.41-11.06,2.66c-1.88,1.28-3.91,2.47-5.76,3.74"/><path fill="#6c311f" d="M152.79,271.75c1.23-1.6,2.51-3.38,4.24-4.52c1.68-1.1,3.78-1.36,5.5-2.38c1.41-0.84,2.44-1.87,4.15-2.22c1.63-0.33,3.53-0.41,5.24-0.5c0.91-0.05,1.78-0.07,2.68-0.16c0.97-0.1,2.38-0.66,3.31-0.47c1.19,0.25,1.82,1.64,3,2.12c1.72,0.71,2.43-0.92,4.02-1.47c1.71-0.59,3.83-0.44,5.6-0.27c2.32,0.23,4.56-0.11,6.9,0.53c1.86,0.51,3.91,1.37,5.62,2.35c1.12,0.65,2.29,1.42,3.48,2.08c0.77,0.43,2.38,1.25,2.73,2.01c-1.69,1.52-3.92,3.55-6.33,3.4c-2.35-0.15-4.34-2.7-6.53-3.6c-2.56-1.05-5.73-0.78-8.5-0.78c-1.71,0-3.42-0.19-5,0.37c-1.37,0.48-2.48,0.74-4.02,0.88c-1.78,0.16-3.53,0.48-5.38,0.38c-1.51-0.08-2.77-0.68-4.23-0.75c-1.27-0.06-2.5-0.2-3.5,0.5c-0.9,0.63-1.78,1.65-2.63,2.38c-2.1,1.82-3.72,2.88-6.63,2.87c-1.33,0-2.32,0.08-3.37-0.78c-1.07-0.87-1.05-1.95,0.13-2.85"/><path fill="#622715" fill-opacity="1" d="M153.42,273.63c0.61,3.59,3.26,6.19,5.07,9.16c1.33,2.2,3.14,4.55,5.15,6.25c1.13,0.95,2.42,1.93,3.65,2.75c1.78,1.17,4.33,1.8,6.36,2.57c1.66,0.63,3.25,0.77,5.02,0.53c1.01-0.13,2.17-0.39,3.12-0.48c1.88-0.18,3.68,0.42,5.51,0.35c1.42-0.06,2.51-0.67,3.76-1.25c1.83-0.85,3.96-1.29,5.7-2.38c2.64-1.67,4.81-4.54,6.3-7.25c1.48-2.68,3.77-4.55,4.82-7.57c0.36-1.05,2.23-6.83,0.66-7.53c-0.27-0.12-2.98,2.84-3.6,3.38c-1.5,1.3-3.16,1.81-4.88,2.74c-2.93,1.6-4.67,4.2-6.87,6.6c-0.86,0.94-1.69,1.79-2.82,2.38c-1.26,0.65-2.62,0.58-3.99,0.9c-3.01,0.7-7.41,1.11-10.41,0.1c-1.03-0.35-1.96-0.87-2.99-1.28c-1.2-0.48-2.42-0.62-3.55-1.22c-1.81-0.96-3.52-2.25-5.51-2.88c-2.17-0.69-4.08-1.03-5.97-2.4c-1.19-0.86-2.69-2.29-3.4-3.58c-0.24-0.04-1.15-0.32-1.36-0.16c-0.58,0.43-0.14,1.15,0.38,1.39"/></g></svg>