<svg id="s5c3d00926a243" class="face" xmlns="http://www.w3.org/2000/svg" xmlns:xlink="http://www.w3.org/1999/xlink" x="0px" y="0px" width="357px" height="358px" viewBox="0 0 357 358"><path fill="#e3aea0" d="M268.5,189.04c-1.41-1.92-2.86-2.74-4.22-2.91c-3.96-0.47-7.28,4.62-7.28,4.62c2.38-21.04,0-32.96,0-32.96c-16.83-65.56-65.84-69.37-76.8-69.39c-0.71,0.02-1.44,0.04-2.2,0.06c-54,1.42-71.5,44.58-71.5,44.58c-9,12.5-4,61.55-4,61.55c-21-12.95-1.5,45.45-1.5,45.45c5,13.5,8,1,8,1c2.88,12.67,6.63,23.41,10.9,32.53c0.85,44.99,1.74,68.73,1.44,83.43c23.33,0,116.79,0,123.83,0l1.52-85.32c6.58-17.33,7.31-32.14,7.31-32.14c2.5,3,6.5,1.5,6.5,1.5C272.75,234.79,268.5,189.04,268.5,189.04z M255.96,199.92C255.93,200.18,255.94,200.15,255.96,199.92L255.96,199.92z M256.22,197.67c0.03-0.3,0.07-0.64,0.11-1.01C256.29,197.01,256.25,197.35,256.22,197.67z M256.82,192.32c0.06-0.55,0.11-0.99,0.14-1.26C256.91,191.5,256.87,191.92,256.82,192.32z M265.33,190.26c-0.04-0.16-0.09-0.37-0.16-0.62c-0.13-0.5-0.31-1.2-0.54-2.1c0.22,0.86,0.4,1.58,0.54,2.1C265.24,189.9,265.29,190.1,265.33,190.26C265.47,190.79,265.48,190.83,265.33,190.26z"/><path fill="#dea99b" d="M125.25,227.25c4.5-6.5,6.97-8.84,12.65-10c4.87-0.99,13.28-2.45,17.35-5.75c9.63-7.79,13.17-20.35,5.59-28.43c-4.32-4.6-7.03-7.3-13.05-8.81c-4.83-1.22-11.04-2.16-15.05-6.1c-7.84-7.69-11.29-20.73-10.82-31.2c0.41-8.95,9.17-18.79,15.15-24.83c7.04-7.12,15.71-14.12,23.72-20.42c-40.38,8.84-54.04,42.51-54.04,42.51c-9,12.5-4,61.55-4,61.55c-21-12.95-1.5,45.45-1.5,45.45c5,13.5,8,1,8,1c2.89,12.7,6.64,23.46,10.93,32.59c-0.78,38.87,1.32,70.54,1.15,83.21c7.79,0.1,53.6-30.51,61.45-32.32C179.16,318.81,113.75,264.75,125.25,227.25z"/><g class="eyes eyes-24"><path fill="#FFFFFF" fill-opacity="0.7" d="M125.8,205.3c0,0,15.6-12.5,30.9-5.5c0,0,0.6,3.2-1.5,4C155.1,203.7,130.3,206.4,125.8,205.3z"/><path fill="#FFFFFF" fill-opacity="0.7" d="M202.4,203.1c0,0,1.4-7.7,18.8-5.5c0,0,11,1.9,15.6,6C236.8,203.7,209.8,206,202.4,203.1z"/><path fill="#483224" d="M224,204.4c0.4-0.9,0.6-1.9,0.6-2.9c0-1.2-0.3-2.3-0.9-3.3c-1.6-0.4-2.6-0.6-2.6-0.6c-4.5-0.6-7.9-0.5-10.5,0c-0.8,1.1-1.2,2.5-1.2,3.9c0,1,0.2,1.9,0.6,2.8C214.3,204.7,219.4,204.6,224,204.4z"/><path fill="#483224" d="M133.7,200.6c0,0.3-0.1,0.6-0.1,0.9c0,1.4,0.4,2.7,1.2,3.8c4.4-0.2,9.5-0.6,13.5-1c0.4-0.9,0.6-1.8,0.6-2.8c0-1.4-0.5-2.8-1.2-3.9C142.4,197.5,137.5,198.9,133.7,200.6z"/></g><g class="eyebrows eyebrows-11"><path fill="#141615" fill-opacity="0.7" d="M110.5,195.67c0.83-3.17,4.41-7.04,6.63-9.37c1.53-1.6,3.78-2.51,5.37-4.13c1.43-1.47,2.82-2.57,4.47-3.79c5.14-3.83,11.26-2.4,17.14-3.54c4.69-0.91,10.05-0.3,14.18,1.93c3.42,1.85,5.55,2.89,5.68,6.88c-4.4,2.82-9.13,3.71-14.54,3.7c-2.54-0.01-4.64,0.38-6.96-0.45c-1.98-0.71-3.92-0.82-5.93-1.19c-2.14-0.4-4.47-1.46-6.67-1.2c-2.21,0.26-4.48,1.67-6.53,2.49c-3.84,1.54-6.55,4.22-10.13,6.35c-1.48,0.89-2.34,1.86-3.54,3"/><path fill="#141615" fill-opacity="0.7" d="M202,173c-4.71-0.38-9.26,3.05-12,6.5c-0.87,1.1-2.36,2.65-2.17,4.17c0.25,2.06,2.59,2.9,4.34,3c4.75,0.27,8.63-3.17,13.49-3.17c1.64,0,3.2,0.11,4.8,0.17c1.86,0.06,3.39-0.55,5.16-0.84c2.42-0.4,4.45-1.15,6.89-1.66c3.33-0.7,5.03,0.07,7.97,1.68c1.99,1.09,4.5,2.26,6.17,3.83c1.73,1.62,2.01,2.64,4.5,1.96c-0.09-1.35-2.05-3.33-2.85-4.47c-0.81-1.15-1.86-2.13-2.75-3.22c-2.31-2.82-4.34-5.22-7.88-6.47c-4.55-1.61-8.23-1.4-13.03-1.11c-3.87,0.23-8.11-1.4-11.96-0.72c-0.62,0.11-1.2,0.56-1.84,0.68"/></g><g class="hair hair-3011"><path fill="#141615" d="M260.42,171.76c-1.05-4.62-1.24-9.03-0.38-13.39c-0.16-0.32-0.29-0.67-0.37-1.04l-1.5-7.5c-0.18-0.9-0.14-1.8,0.08-2.63c-0.17-0.51-0.26-1.07-0.25-1.7c0.05-5.99-1-11.77-2.73-17.37c-0.59-0.37-1.13-0.9-1.58-1.61c-1.34-2.09-2.68-4.17-3.99-6.27c-22.51-29.1-61.14-36.51-96.09-33.03c-0.06,0.04-0.13,0.07-0.19,0.1c-1.8,1.03-9.82,4.1-11.67,4.92c-0.8,3.57-1.53,1.63-4.58,2.42c-2.12,0.54,3.63,0.84,1.33,0.83c-0.56,0.31-5.37,1.29-5.92,1.63c-9.41,5.79-19.35,10.5-25.68,18.58c-5.91,9.89-9.76,21.08-12.27,32.46c0.39,5.17,1.56,10.18,0.97,15.51c-0.32,2.96-1.72,5.29-2.43,8.09c-0.52,2.04,1.29,6.74,1.82,8.91c0.73,3,3.33,8.62,5.67,10.33c0.49,0.36,0.83,0.58,1.06,0.72c-0.5-0.13-1.3-0.04-1.39,1.61c-0.1,1.78,1.24,6.16,2.55,8.01c-0.41-4.11-0.7-8.24-0.55-12.41c0.29-8.07,1.73-17.99,9.01-22.32c0.15-1.53,0.36-3.05,0.7-4.56c1.56-6.97-0.36-13.37,3.95-19.39c3.72-5.2,16.29-7.73,19.16-12.91c1.05-0.4,3.89-2.92,4.82-3.59c4.71-3.38,10.42-5.27,16.22-5.2c1.15-0.31,2.3-0.59,3.47-0.8c0.52-0.09,1.03-0.1,1.53-0.07c2.06-0.88,12.6-1.74,14.63-1.94c11.07-1.08,13.39,6.52,24.5,7.33c4.64,0.34,14.29-2.64,18.42-1.5c3.94,1.08,17.63,12.3,21.26,14.68c5.46,3.58,6.47,13.26,7.5,17.63c0.75,3.18-0.79,5.72-2.46,8.25c0.09,0.13,0.18,0.27,0.27,0.42c4.54,7.91,8.54,16.46,9.88,25.57c0.34,2.33,0.57,4.65,0.7,6.97c1.23-2.82,2.17-5.72,3.44-8.49c1.14-2.49,1.1-4.11,1.74-6.75C261.87,179.02,261.13,174.87,260.42,171.76z"/><path fill="#282a29" d="M124,113.5c4.79-7.4,18.44-7.86,25.97-10.41c4.81-1.63,11.12-1.83,15.51-4.05c-5.39,2.44-13.47,2.83-17.41,7.77c8.41,0.54,18.21-2.68,25.93-3.31c2.62-0.21,4.48,1.28,7.37,2.02c-2.33-0.04-14.69-1.15-13.35,3.01c0.26,0.81,11.2,3.57,13.18,3.57c-10.72,2.47-21.12-0.52-31.28,5.76c-4.48,2.77-9.41,5.6-15.7,5.09c1.22-1.4,2.51-2.95,3.46-4.39c-3.42,0.14-6.09,1.92-9.71,1.35c1.03-0.53,2.49-1.46,3.81-1.85c-5.91,2.41-12.7,3.04-17.39,7.44c-3.87,3.63-6.11,8.67-9.06,13c0.93-10.7,16.11-20.27,22.67-27.5"/><path fill="#282a29" d="M226,103.5c-3.26-2.02-5.64-5.07-9.39-6.64c-5.01-2.09-7.5-0.16-12.6,0.15c-5.63,0.34-10.6-2.17-15.15-4.38c-4.31-2.09-8.95-1.44-13.71-2.13c5.62-0.28,16.17,5.69,20.75,9.47c2.1,1.73,3.1,4.5,5.56,5.69c2.53,1.23,6.92,0.31,9.62,0.34c5.15,0.06,6.47,1.08,10.07,4.42c-1.25-0.26-3.38-0.09-4.44-0.3c3.9,2.65,8.22,5.03,12.56,6.89c-1.93-0.83-4.25-0.95-5.78-1.92c9.44,0.35,25.81,14.84,26.93,24.41c-1.14-4.23-2.59-9.01-4.28-13.01c-1.29-3.07-2.92-7.64-4.65-10.46c1.41,0.44,2.91,1.45,3.96,2.64c-6.15-1.85-10.71-7.89-15.57-12.04c-2.7-2.3-7.47-4.07-8.89-7.14"/></g><g class="facial-hair facial-hair-1004"><path fill="#141615" fill-opacity="1" d="M251.75,221.01c0.38-4.3,1.38-8.99,0.32-13.32c-0.18-0.77-0.48-2-1.03-2.66c0.06,4.32-0.24,8.62-0.92,12.95c-0.03,0.2-0.09,0.39-0.13,0.59c-0.07,1.34-0.18,2.67-0.42,4.01c-0.06,0.31-0.15,0.61-0.28,0.88c0.08,3.43-0.21,6.93-1.38,10.07c-0.1,0.26-0.22,0.5-0.32,0.75c-0.07,0.52-0.17,1.04-0.33,1.55c-0.76,2.38-2.01,4.5-3.2,6.68c-0.1,0.18-0.21,0.33-0.32,0.49c-1.02,3.22-4.35,5.97-6.57,8.49c-1.87,2.12-3.72,4.06-5.49,6.26c-1.01,1.25-2.26,4.74-3.9,4.79c-1.25,4.39-6.21,5.96-7.74,9.96c-1.21,3.16-0.49,7.39-1.31,10.71c-0.58,2.38-0.84,4.83-1.24,7.33c-0.65,4.07-0.49,9.41-4.02,11.95c-6.22,4.49-13.88,0.59-20.98,0.75c-3.97,0.09-6.22,2.08-10.32,1.27c-2.85-0.56-5.69-1.74-8.69-2.02c-5.28-0.5-10.98,1.23-16.25,1.76c-3.25,0.32-7.18,0.75-10.36-0.04c-2.46-0.62-7.15-23.23-6.63-28.47c0.52-5.25-7.42-10.16-10.31-14.19c-3.03-4.23-5.58-8.25-9.14-12.07c-2.94-3.15-5.49-6.53-8.25-9.8c-3.72-4.4-5.56-9.14-5.56-14.94c0-2.75-1-4.47-1.43-6.88c-0.03,0.19-0.05,0.39-0.07,0.57c-0.5,5.08,0.97,10,0.51,15.05c-0.06,0.69-0.11,1.34-0.15,1.98c0.15,0.52,0.21,1.11,0.15,1.78c-0.56,6.65,1.35,13.12,1.5,19.75c0,0.04,0,0.08,0,0.13c0.29,0.86,0.57,1.72,0.75,2.62c0.44,2.17,0.08,4.51,0.3,6.73c0.22,2.25,1.2,4.42,1.64,6.57c0.84,4.11,0.83,9.09,2.56,12.94c1.92,4.26,4.77,8.22,6.74,12.52c2.22,4.84,6.08,8.65,9.76,12.62c3.16,3.41,6.1,7,10.04,9.42c4.71,2.9,9.19,6.48,13.95,9.2c9.7,5.54,20.76,9.32,31.97,8.23c10.38-1.01,19.77-8.68,28.8-13.67c8.27-4.57,14.73-10.69,20.8-18c2.54-3.06,5.17-7.4,6.87-11.14c1.57-3.45,1.75-7.5,3.07-11.17c1.41-3.94,2.75-8.2,4.26-11.99c1.32-3.32,1.16-7.91,1.69-11.5c1.29-8.8-1.43-18.34,0.61-26.89C252.36,229.21,251.36,225.42,251.75,221.01z"/><path fill="#141615" fill-opacity="1" d="M142.25,276c2.07-1.64,3.45-3.89,5.3-5.75c1.98-1.98,4.63-3.19,6.93-4.74c4.25-2.85,9.57-5.1,14.81-5.51c3.11-0.24,5.59,1.2,8.47,1.74c2.59,0.49,5.26-0.26,7.74-0.74c2.28-0.44,4.2-0.49,6.55-0.25c2.74,0.28,3.5,0.91,5.75,2.3c4.28,2.63,9.47,4.01,13.92,6.42c1.75,0.95,3.74,3.15,5.58,3.47c3.96,0.7,0.53-2.29-0.61-3.68c-2.82-3.44-5.88-7.25-9.48-9.99c-3.24-2.47-8.39-6.02-12.46-6.27c-4.69-0.28-9.96-0.4-14.65,0.05c-4.49,0.43-9.62-0.11-14.11,0.71c-4.29,0.78-8.68,3.34-11.98,5.94c-3.91,3.08-8.31,4.34-10.46,9.06c-0.84,1.85-2.11,5.03-1.76,7.21c0.28,0.07,0.45,0.19,0.71,0.29"/></g><g class="nose nose-4"><path fill="#d9a496" d="M186.01,198.89c-0.17,1.53-0.26,3.95-0.49,5.46c-0.58,3.86,0.9,6.29,0.88,10.24 c-0.02,6.65,6.48,12.91,4.38,19.46c-5.2-0.71-6.56-12.33-6.95-16.23c-0.33-3.31-1.14-7.11-1.01-10.49 c0.11-2.91,1.43-6.24,2.54-9.75C185.35,197.6,186.24,196.78,186.01,198.89z"/><path fill="#b17c6e" d="M171.75,240.75c-2.35-2.73-3.43-3.67-7.21-3.46c-0.48,1.84-3.28,4,0.46,5.23c1.09,0.36,2.6-0.19,3.75-0.02c1.39,0.2,2.14,0.97,3.71,0.73c0.05-1.04,0.05-2.13,0-3.17c-0.57-0.04-1.4-0.18-1.96-0.04"/><path fill="#b17c6e" d="M182.5,243c2.33-0.96,3.32-2.52,6.26-2.81c1.82-0.18,4.62,0.63,3.96,3.52c-2.78,1.42-7.23,0.74-9.46-0.96"/><path fill="none" stroke="#d49f91" stroke-miterlimit="10" d="M161.5,223.5c2.03,5.16-3.05,6.6-4.56,10.75c-1.43,3.93,1.93,8.02,5.26,10.07c1.73,1.07,3.5,0.51,5.29,1.24c2,0.82,3.77,2.3,5.76,3.19c1.87,0.84,4.05,1.76,6.26,1.26c2.54-0.57,4.2-2.21,6.99-1.82c4.49,0.63,7.81,0.77,11.18-2.74c2.46-2.56,4.78-7.35,3.07-10.7"/></g><g class="mouth mouth-19"><path fill="#cf9a8c" fill-opacity="1" d="M151.5,271c0.77,0.17,1.29,0.83,1.89,1.26c1.15,0.84,2.64,1.12,4.06,1.48c1.87,0.48,3.62,1.29,5.51,1.71c1.96,0.44,3.53,1.21,5.4,1.81c4.54,1.47,9.65,0.79,14.42,0.97c0.98,0.04,2.02,0.35,2.98,0.25c0.91-0.1,1.64-0.63,2.49-0.88c1-0.29,2.02-0.17,3.03-0.38c1.08-0.22,2.18-0.67,3.27-1.02c3.49-1.14,6.97-2.53,10.2-4.06c1.47-0.7,2.58-1.79,3.94-2.54c-3.5,0.88-7.71-0.12-11.31-0.12c-3.33,0-6.64-0.8-10.01-0.5c-1.62,0.15-2.39,0.86-3.87,1.48c-1.13,0.47-2.8,0.32-4.03,0.27c-4.11-0.18-8.24-1.13-12.34-0.75c-2.89,0.27-5.48,0.9-8.27,1.15c-1.29,0.12-2.56,0.32-3.88,0.19c-1.19-0.11-2.3-0.63-3.49-0.61c0.01,0.13,0.09,0.25,0.15,0.39"/><path fill="#d9a496" d="M151.63,270.75c1.2-1.41,2.12-2.21,3.97-2.88c1.28-0.46,2.48-0.92,3.61-1.66c0.86-0.56,1.38-1.06,2.46-1.35c3.68-0.96,7.58-2.58,11.48-2.62c0.73-0.01,4.14,0.89,5.46,0.75c1.6-0.17,3.17-0.25,4.81-0.25c3.34,0,6.84,0.59,10.1,1.23c3.11,0.6,10.94,4.84,12.49,5.02c0.77,0.09,1.71,0.04,2.24,0.6c-2.1,1.45-4.24,1.02-6.61,1.4c-1.77,0.29-3.42,0.2-5.19,0.12c-1.92-0.09-4.19-0.51-6.04-0.19c-1.35,0.23-2.72,0.89-4.05,1.26c-3.43,0.94-7.62,1.14-11.13,0.73c-3.42-0.4-6.62-2.15-10.13-1.78c-1.36,0.14-2.69,0.4-3.97,0.65c-1.98,0.39-3.9-0.22-5.85-0.41c-1.24-0.12-2.51-0.08-3.77-0.14c0.09-0.3,0.33-0.45,0.62-0.61"/></g></svg>