<svg id="s539e78450b968" class="face" xmlns="http://www.w3.org/2000/svg" xmlns:xlink="http://www.w3.org/1999/xlink" x="0px" y="0px" width="357px" height="358px" viewBox="0 0 357 358"><path fill="#8e5e48" d="M268.5,189.04c-1.41-1.92-2.86-2.74-4.22-2.91c-3.96-0.47-7.28,4.62-7.28,4.62c2.38-21.04,0-32.96,0-32.96c-16.83-65.56-65.84-69.37-76.8-69.39c-0.71,0.02-1.44,0.04-2.2,0.06c-54,1.42-71.5,44.58-71.5,44.58c-9,12.5-4,61.55-4,61.55c-21-12.95-1.5,45.45-1.5,45.45c5,13.5,8,1,8,1c2.88,12.67,6.63,23.41,10.9,32.53c0.85,44.99,1.74,68.73,1.44,83.43c23.33,0,116.79,0,123.83,0l1.52-85.32c6.58-17.33,7.31-32.14,7.31-32.14c2.5,3,6.5,1.5,6.5,1.5C272.75,234.79,268.5,189.04,268.5,189.04z M255.96,199.92C255.93,200.18,255.94,200.15,255.96,199.92L255.96,199.92z M256.22,197.67c0.03-0.3,0.07-0.64,0.11-1.01C256.29,197.01,256.25,197.35,256.22,197.67z M256.82,192.32c0.06-0.55,0.11-0.99,0.14-1.26C256.91,191.5,256.87,191.92,256.82,192.32z M265.33,190.26c-0.04-0.16-0.09-0.37-0.16-0.62c-0.13-0.5-0.31-1.2-0.54-2.1c0.22,0.86,0.4,1.58,0.54,2.1C265.24,189.9,265.29,190.1,265.33,190.26C265.47,190.79,265.48,190.83,265.33,190.26z"/><path fill="#895943" d="M125.25,227.25c4.5-6.5,6.97-8.84,12.65-10c4.87-0.99,13.28-2.45,17.35-5.75c9.63-7.79,13.17-20.35,5.59-28.43c-4.32-4.6-7.03-7.3-13.05-8.81c-4.83-1.22-11.04-2.16-15.05-6.1c-7.84-7.69-11.29-20.73-10.82-31.2c0.41-8.95,9.17-18.79,15.15-24.83c7.04-7.12,15.71-14.12,23.72-20.42c-40.38,8.84-54.04,42.51-54.04,42.51c-9,12.5-4,61.55-4,61.55c-21-12.95-1.5,45.45-1.5,45.45c5,13.5,8,1,8,1c2.89,12.7,6.64,23.46,10.93,32.59c-0.78,38.87,1.32,70.54,1.15,83.21c7.79,0.1,53.6-30.51,61.45-32.32C179.16,318.81,113.75,264.75,125.25,227.25z"/><g class="eyes eyes-12"><path fill="#ffffff" fill-opacity="0.7" d="M128.25,203.25c1.4-2.3,5.02-2.76,7.14-4.35c2-1.5,3.71-2.77,6.39-3.03c1.37-0.13,2.27,0.45,3.49,0.63c1.52,0.23,3.09-0.15,4.61,0.15c2.19,0.43,4.08,1.86,6,2.94c0.92,0.52,1.8,0.97,2.74,1.39c-1.43,2.32-4.53,3.14-6.99,3.64c-2.76,0.56-5.32,1.5-8.14,1.75c-2.74,0.25-4.9-0.87-7.49-1.01c-2.35-0.12-4.01-0.67-6.13-1.37c-0.6-0.2-1.21-0.53-1.74-0.88"/><path fill="#ffffff" fill-opacity="0.7" d="M201.67,202.28c0.42-0.78,1.39-1.43,2.29-1.66c0.67-0.17,1.32-0.37,1.94-0.64c0.73-0.32,1.32-0.81,2.05-1.14c1.33-0.59,2.43-1.56,3.73-2.19c1.09-0.53,2.49-0.74,3.71-0.91c0.83-0.12,1.63-0.16,2.45,0.02c0.73,0.16,1.46,0.1,2.19,0.23c1.26,0.24,2.31,0.46,3.27,1.24c0.78,0.64,1.73,1.04,2.57,1.56c0.61,0.38,1.04,0.91,1.57,1.37c0.41,0.35,0.86,0.62,1.34,0.87c0.39,0.2,0.57,0.39,0.88,0.67c0.54,0.48,1.27,0.8,1.66,1.4c0.13,0.2,0.19,0.43,0.35,0.6c-1.49,0.49-3.08,0.83-4.66,1.06c-0.69,0.1-1.37,0-2.06,0.13c-0.48,0.09-0.98,0.15-1.47,0.23c-2.36,0.4-4.83,0.43-7.23,0.43c-1.64,0-3.31-0.33-4.91-0.65c-1.07-0.22-2.16-0.3-3.23-0.5c-1.59-0.3-3.16-0.87-4.67-1.37c-0.69-0.23-1.21-0.43-1.72-0.88"/><path fill="#504040" d="M140,195.75c-2.6,2.35-5.65,5.65-2.56,8.77c2.56,2.58,5.85,2.5,8.58,0.22c2.08-1.74,5.06-5.31,1.8-7.56c-1.55-1.07-8.29-1.78-9.32-0.43"/><path fill="#504040" d="M214,196.25c-1.04,1.15-2.43,1.93-2.99,3.43c1.99,5.58,9.32,8.68,13.45,2.75c3.82-5.48-8.98-8.72-11.96-4.93"/></g><g class="eyebrows eyebrows-20"><path fill="#0e0e0c" fill-opacity="0.7" d="M120,193c2.964-3.944,4.346-8.004,7.818-11.7c4.633-4.93,12.946-4.678,19.194-5.3c3.71-0.369,7.282-0.226,10.949,0.682c2.651,0.656,9.891,1.969,10.744,4.818c1.394,4.653-8.978,4.32-11.4,4.25c-6.998-0.203-13.255-2.153-20.092,0.312c-3.685,1.328-6.448,1.632-9.695,3.638c-2.375,1.468-4.913,1.614-7.269,3.3"/><path fill="#0e0e0c" fill-opacity="0.7" d="M243.75,188.25c-1.425-0.445-3.628-3.865-5.098-4.994c-2.428-1.866-4.7-3.276-7.631-4.2c-5.42-1.709-10.988-3.056-16.717-3.056c-5.33,0-14.488-0.107-18.054,4.506c-4.131,5.345,4.082,5.994,7.75,5.994c3.552,0,7.34-1.307,10.749-1c3.77,0.34,6.914-0.049,10.5-0.25c3.549-0.199,8.461,0.801,11.75,1.987c2.738,0.987,4.834,3.308,7.968,3.219c-0.111-1.284-1.442-2.003-2.468-2.707"/></g><g class="chin chin-13"><path fill="none" stroke="#895943" stroke-miterlimit="10" d="M145.83,318.67c3.2,1.85,5.21,4.94,8.96,6.31 c5.46,1.98,10.93,2.58,16.71,2.85c4.85,0.22,9.91,0.28,14.72-0.63c3.98-0.75,8.5-0.83,12.13-2.54c2.95-1.38,6.4-2.27,9.14-4.16 c1.9-1.31,4-2.83,6-5.17"/></g><g class="hair hair-18"><path fill="#0e0e0c" fill-opacity="0.1" d="M257.1,158.8c-16.8-65.6-65.8-69.4-76.8-69.4c-0.7,0-1.4,0-2.2,0.1c-54,1.4-71.5,44.6-71.5,44.6c-8.1,11.2-4.9,51.7-4.1,60l2,0.9c0,0-3.9-41.7,16.3-52.7c0,0-4.3-17.9,6.4-26.9c0,0,14.6,6.2,31.8,8.2c17.2,2,24.9,2,27.9,0c0,0,24.5-2.3,30.9-5.1l16.3-1.2c0,0,8.6,7.8,11.2,30.4c0,0,17,12.1,8.8,47.2l3.2-3.8C259.5,170.5,257.1,158.8,257.1,158.8z"/></g><g class="nose nose-1"><path fill="#84543e" d="M186.01,198.89c-0.17,1.53-0.26,3.95-0.49,5.46c-0.58,3.86,0.9,6.29,0.88,10.24 c-0.02,6.65,6.48,12.91,4.38,19.46c-5.2-0.71-6.56-12.33-6.95-16.23c-0.33-3.31-1.14-7.11-1.01-10.49 c0.11-2.91,1.43-6.24,2.54-9.75C185.35,197.6,186.24,196.78,186.01,198.89z"/><path fill="none" stroke="#7f4f39" stroke-miterlimit="10" d="M168.87,209.42c1.28,4.35,3.91,6.45,2.31,10.98 c-0.86,2.45-2.47,5.01-3.98,7.33c-2.59,3.99-11.16,12.3-7.08,17.1c2.22,2.62,4.82,0.96,7.41,0.58c3.94-0.58,6.85,0.88,10.37,1.68 c5.68,1.29,10.55-1.54,16.31-0.43c3.23,0.62,9.41,2.38,8.66-3.58"/></g><g class="mouth mouth-17"><path fill="#F3D6B2" d="M160.53,269.64c-2.24-0.17-0.45,2.01,0.25,2.63c0.92,0.82,1.74,1.46,2.69,2.23c1.26,1.02,2.64,1.33,4.19,1.78c0.95,0.28,1.92,0.5,2.87,0.77c0.91,0.26,1.85,0.25,2.73,0.47c0.84,0.21,1.5,0.83,2.36,1.04c1.72,0.42,3.42,0.57,5.16,0.88c1.13,0.2,2.28,0,3.4,0.23c1.37,0.27,2.85,0.56,4.23,0.38c1.88-0.24,3.51-1.17,5.16-1.98c0.8-0.39,1.44-0.41,2.09-1.03c0.68-0.65,1.04-1.06,1.89-1.5c1.34-0.7,2.36-1.1,3.05-2.45c0.35-0.67,0.67-1.19,0.64-1.96c-0.06-1.65-2.53-2.56-3.78-3.39c-2.75-1.82-5.97-2.96-9.24-3.44c-2.5-0.36-4.51,0.05-6.85,0.6c-3.88,0.91-7.87,0.9-11.73,1.85c-1.34,0.33-2.76,0.24-4.04,0.73c-1.29,0.48-2.45,0.96-3.62,1.67c-0.54,0.33-0.96,0.59-1.61,0.56"/><path fill="#532316" d="M159.65,272.27c0.96-0.66,1.9-0.46,3.03-0.71c1.09-0.24,1.77-0.95,3.02-0.96c1.43-0.01,2.5,0.06,3.9-0.22c1.4-0.28,2.47,0.4,3.87-0.03c2.35-0.72,5.33-0.46,7.76-0.22c0.37,0.04,0.81,0.29,1.11,0.31c0.49,0.03,1.15-0.23,1.71-0.23c1.18,0,2.38-0.31,3.54-0.24c1.71,0.1,3.65-0.2,5.22,0.24c1.08,0.3,2.13,1.01,3.22,1.04c0.98,0.02,2.06,0.2,3.05,0.4c0.99,0.2,1.78,0.52,2.87,0.48c0.65-0.02,1.47-0.03,1.61-0.68c0.37-1.67-2.43-2.5-3.46-2.85c-2.06-0.71-4.05-1.49-6.18-1.98c-1.27-0.29-2.46-0.88-3.77-0.94c-1.15-0.05-2.34-0.05-3.49,0c-2.01,0.08-4.18,0.24-6.17,0.5c-1.89,0.24-3.77,0.18-5.68,0.32c-1.56,0.11-3.14,0.44-4.68,0.7c-1.55,0.26-3.14,0.36-4.68,0.64c-1.15,0.21-2.36,0.47-3.48,0.72c-1.62,0.36-4.6,2.54-2.23,3.83"/><path fill="#7a4a34" fill-opacity="1" d="M152.24,270.12c0.86,0.53,3.78,3.75,4.47,4.6c1.44,1.79,2.96,3.32,4.62,4.9c1.09,1.04,2.03,2.53,3.35,3.33c0.94,0.56,1.9,1.21,2.88,1.73c1.82,0.98,4,1.76,6.07,2.01c1.21,0.15,2.37,0.01,3.56,0.16c1.32,0.17,2.47,0.37,3.83,0.31c1.62-0.06,7.56-0.45,8.74-1.28c0.8-0.56,1.81-0.67,2.64-1.17c0.86-0.52,1.8-1.2,2.64-1.83c2.05-1.52,4.16-3.07,5.84-5.05c0.91-1.07,4.51-4.06,4.9-4.85c0.29-0.58,1.93-2.27,2.07-2.87c0.11-0.48-2.12-0.46-1.92-0.94c-0.82,0.17-1.57,1.09-2.4,1.48c-1.06,0.5-2.2,0.99-3.33,1.33c-1.53,0.46-2.88,1.28-4.17,2.19c-0.95,0.68-1.95,1.22-2.93,1.91c-0.96,0.68-5.32,2.25-6.51,2.37c-2.55,0.26-4.85-0.29-7.41-0.38c-2.64-0.09-4.69-0.94-7.23-1.66c-2.58-0.73-4.83-1.17-7.11-2.41c-0.88-0.48-1.62-1.12-2.55-1.53c-1.02-0.45-1.89-0.95-2.72-1.52c-1.4-0.95-3-1.1-4.71-1.18c-0.73-0.04-1.38-0.13-1.83,0.48"/><path fill="#84543e" d="M151.92,269.96c1.22,0.2,2.52-1.94,3.38-2.67c0.87-0.74,1.97-1.58,3.02-2.08c2.07-0.97,4.83-2.17,7.13-2.42c2.82-0.31,5.72-0.27,8.56-0.67c1.43-0.2,2.68-0.54,4.06,0.16c0.63,0.32,0.98,0.82,1.72,0.99c0.95,0.22,1.86-0.28,2.74-0.49c2.33-0.54,4.72-0.98,7.13-0.62c2.58,0.38,5.23,1.53,7.74,2.22c2.27,0.63,4.3,2.02,6.61,2.71c1.47,0.44,3.52,1.13,4.12,2.82c-1.38,1.75-6.15,2.13-8.27,1.8c-2.41-0.38-4.78-1.88-7.13-2.43c-2.69-0.63-5.95-0.32-8.8-0.28c-1.67,0.02-18.77,1.07-20.87,1.79c-1.27,0.44-3.7,0.52-5.77,0c-1.09-0.27-5.04,0.34-5.38-0.67"/></g></svg>