<svg id="s5a4017d14854d" class="face" xmlns="http://www.w3.org/2000/svg" xmlns:xlink="http://www.w3.org/1999/xlink" x="0px" y="0px" width="357px" height="358px" viewBox="0 0 357 358"><path fill="#a8623e" d="M268.5,189.04c-1.41-1.92-2.86-2.74-4.22-2.91c-3.96-0.47-7.28,4.62-7.28,4.62c2.38-21.04,0-32.96,0-32.96c-16.83-65.56-65.84-69.37-76.8-69.39c-0.71,0.02-1.44,0.04-2.2,0.06c-54,1.42-71.5,44.58-71.5,44.58c-9,12.5-4,61.55-4,61.55c-21-12.95-1.5,45.45-1.5,45.45c5,13.5,8,1,8,1c2.88,12.67,6.63,23.41,10.9,32.53c0.85,44.99,1.74,68.73,1.44,83.43c23.33,0,116.79,0,123.83,0l1.52-85.32c6.58-17.33,7.31-32.14,7.31-32.14c2.5,3,6.5,1.5,6.5,1.5C272.75,234.79,268.5,189.04,268.5,189.04z M255.96,199.92C255.93,200.18,255.94,200.15,255.96,199.92L255.96,199.92z M256.22,197.67c0.03-0.3,0.07-0.64,0.11-1.01C256.29,197.01,256.25,197.35,256.22,197.67z M256.82,192.32c0.06-0.55,0.11-0.99,0.14-1.26C256.91,191.5,256.87,191.92,256.82,192.32z M265.33,190.26c-0.04-0.16-0.09-0.37-0.16-0.62c-0.13-0.5-0.31-1.2-0.54-2.1c0.22,0.86,0.4,1.58,0.54,2.1C265.24,189.9,265.29,190.1,265.33,190.26C265.47,190.79,265.48,190.83,265.33,190.26z"/><path fill="#a35d39" d="M125.25,227.25c4.5-6.5,6.97-8.84,12.65-10c4.87-0.99,13.28-2.45,17.35-5.75c9.63-7.79,13.17-20.35,5.59-28.43c-4.32-4.6-7.03-7.3-13.05-8.81c-4.83-1.22-11.04-2.16-15.05-6.1c-7.84-7.69-11.29-20.73-10.82-31.2c0.41-8.95,9.17-18.79,15.15-24.83c7.04-7.12,15.71-14.12,23.72-20.42c-40.38,8.84-54.04,42.51-54.04,42.51c-9,12.5-4,61.55-4,61.55c-21-12.95-1.5,45.45-1.5,45.45c5,13.5,8,1,8,1c2.89,12.7,6.64,23.46,10.93,32.59c-0.78,38.87,1.32,70.54,1.15,83.21c7.79,0.1,53.6-30.51,61.45-32.32C179.16,318.81,113.75,264.75,125.25,227.25z"/><g class="eyes eyes-1"><path fill="#ffffff" fill-opacity="0.7" d="M136.83,206c1.16,0.13,2.07,1.14,3.17,1.5c1.18,0.39,2.58,0.58,3.83,0.83c2.38,0.47,4.47,0.84,7,0.84c2.32,0,4.64,0.43,7,0.17c1.97-0.22,3.83-1.21,5.81-1.53c-0.55-1.94-4.06-3.4-5.81-3.97c-2.45-0.8-4.72-1.05-7.33-1.18c-4.9-0.24-9.49,1.3-13.51,3.34"/><path fill="#ffffff" fill-opacity="0.7" d="M199.5,206.17c2.39,0.43,4.81,0.56,7.2,0.67c2.58,0.11,4.37,1.27,6.8,1.5c5.21,0.5,10.11-2.09,14.3-4.19c-0.01-0.04-0.01-0.4,0-0.45c-2.52-0.3-4.94-1.61-7.47-2.23c-2.53-0.62-5.56-0.34-8.18-0.46c-2.65-0.13-4.68,1.01-7,2c-2.06,0.88-4.03,1.76-5.67,3.33"/><path fill="#4f2a1a" d="M143.33,203c0,1.77-0.03,3.03,0.69,4.47c2.04,1.17,3.77,1.82,6.13,1.35c2.13-0.42,4.49-1.14,5.01-3.49c0.65-2.95-2.47-3.17-4.67-3.17c-1.71,0-6.04-0.74-6.83,0.83"/><path fill="#4f2a1a" d="M209.33,200.83c-2.13,1.3-1.37,4.16,0.17,5.67c1.49,1.47,5.41,1.55,7.46,0.79c1.93-0.71,4.85-3.47,3-5.92c-0.74-0.98-2.85-0.77-3.97-0.87c-1.36-0.12-2.57-0.68-3.99-0.5c-1.02,0.13-1.88,0.57-2.83,1"/></g><g class="eyebrows eyebrows-9"><path fill="#141615" fill-opacity="0.7" d="M121,190.33c2.1-2.45,1.46-6.36,3.33-8.87c1.62-2.17,4.04-4.61,6.17-6.3c5.86-4.67,13.71-6.07,20.82-7.5c2.09-0.42,3.74-0.84,5.78-0.32c2.58,0.66,6.17,1.86,8.42,3.29c0.8,0.51,1.22,1.2,1.65,2.08c0.38,0.77,1.4,2.47,1.51,3.29c0.48,3.47-5.55,2.24-7.51,1.97c-2.98-0.41-5.91-1.02-8.81-1.76c-2.14-0.55-3.97-0.75-6.03-0.04c-3.78,1.3-7.2,3.35-10.99,4.7c-2.77,0.98-5.65,2.1-8.01,3.94c-2.18,1.69-3.91,3.81-5.99,5.53"/><path fill="#141615" fill-opacity="0.7" d="M221.83,168.17c-4.25-0.04-7.79-0.41-11.94,0.63c-2.98,0.75-5.87,1.81-8.82,2.7c-2.38,0.72-8.51,4.15-5.71,6.99c3.23,3.28,9.79,1.09,13.68,0.68c4.05-0.43,8.02-1.09,11.96-1.67c1.48-0.21,2.87-0.5,4.38-0.2c1.08,0.21,2.23,0.55,3.3,0.87c1.28,0.38,2.79,0.43,3.99,0.82c2.24,0.74,4.18,3.57,6.13,4.84c0.85,0.55,2.99,2.01,3.58,0.54c0.35-0.87-1.84-3.64-2.5-4.51c-1.88-2.48-4.03-5.65-6.51-7.53c-1.92-1.45-4.18-1.66-6.36-2.33c-1.56-0.48-3.19-1.42-4.51-2.17"/></g><g class="chin chin-13"><path fill="none" stroke="#a35d39" stroke-miterlimit="10" d="M145.83,318.67c3.2,1.85,5.21,4.94,8.96,6.31 c5.46,1.98,10.93,2.58,16.71,2.85c4.85,0.22,9.91,0.28,14.72-0.63c3.98-0.75,8.5-0.83,12.13-2.54c2.95-1.38,6.4-2.27,9.14-4.16 c1.9-1.31,4-2.83,6-5.17"/></g><g class="hair hair-1003"><radialGradient id="hair_1_5a4017d1485f2" cx="178.6289" cy="185.25" r="86.6347" fx="172.762" fy="185.2177" gradientTransform="matrix(1 -4.913946e-003 3.512081e-003 0.7147 -0.6484 53.728)" gradientUnits="userSpaceOnUse"><stop offset="0" style="stop-color:#a8623e;stop-opacity:0"/><stop offset="0.2755" style="stop-color:#141615;stop-opacity:0.2755"/><stop offset="0.5365" style="stop-color:#141615;stop-opacity:0.5365"/><stop offset="0.7512" style="stop-color:#141615;stop-opacity:0.7512"/><stop offset="0.9118" style="stop-color:#141615;stop-opacity:0.9118"/><stop offset="1" style="stop-color:#141615"/></radialGradient><path fill="url(#hair_1_5a4017d1485f2)" d="M259.93,148.08c-1.48-4.6-3.76-8.81-4.77-13.56c-0.1-0.48-0.21-0.94-0.32-1.41c-1.13-1.78-2.09-3.65-2.8-5.62c-5.3-6.7-10.84-13.15-16.88-19.16c-1.35-0.74-2.55-1.66-3.72-2.63c-1.57-0.6-3.12-1.25-4.46-2.14c-2.67-1.76-4.84-4.45-7.7-5.86c-6.31-3.11-13.51-5.09-20.15-7.59c-4.9-1.1-9.81-1.84-14.83-2.16c-2.18,0.26-4.35,0.52-6.54,0.54c-3.08,0.03-6.15-0.06-9.2-0.06c-4.01,0.58-7.95,1.44-12.02,1.98c-1.6,0.21-3.24,0.34-4.86,0.58c-4.32,1.65-8.42,3.87-12.81,5.24c-3.64,1.83-7.3,3.64-10.96,5.44c-0.18,0.2-0.38,0.4-0.62,0.6c-5.12,4.17-9.27,7.92-13.28,13.24c-2.04,2.71-4.19,5.35-6.23,8.07c-1.7,3.33-3.18,6.72-3.9,10.3c-0.72,3.6-1.21,7.84-2.71,11.45c-0.03,0.16-0.05,0.32-0.09,0.48c-0.29,1.16-0.7,2.27-1.17,3.37c0.05,4.68-0.72,9.23-1.36,13.89c0.31,3.4,0.25,6.77-0.15,10.18c1.24,5.03,2.54,10.02,2.51,15.33c-0.02,4.21,1.62,8.18,3.61,12.04c0.29-2.32,0.72-4.58,1.38-6.69c1.61-5.15,3.16-11.5,6.33-15.89c1.47-2.04,3.76-3.89,4.39-6.31c0.73-2.83,0.47-6.69,0.86-9.54c0.8-5.9,0.51-10.99,2.46-16.66c0.88-2.56,0.5-4.84,1.91-7.25c1.38-2.36,3.65-4.68,5.57-6.62c5.28-5.33,12.18-3.4,19.2-4.11c5.16-0.52,11.46-0.02,16.89-0.58c5.89-0.6,10.52-0.56,16.5-0.25c6.24,0.32,11.91-1.08,18.09-0.75c3.08,0.16,6.43-0.64,9.31-0.02c2.94,0.64,11.6,0.56,14.35,1.52c2.19,0.77,3.78,1.59,5.03,2.65c5.25,2.67,10.53,7.38,12.41,12.91c2.59,7.65,0.07,15.63,3.91,23.07c3.68,7.13,9.51,13.02,10.24,21.36c0.28,3.19,0,6.3-0.58,9.36c0.45,0.11,0.89,0.27,1.29,0.48c0.53-1.95,1.08-3.47,1.6-4c0.33-0.33,0.64-0.66,0.94-0.99c0.58-5.43,3.07-10.51,3.24-16.02c0.2-6.65,0.24-13.3,0.43-19.94c0.08-2.79-0.05-5.55-0.34-8.28C259.93,148.09,259.93,148.08,259.93,148.08z"/></g><g class="nose nose-19"><path fill="#9e5834" d="M186.01,198.89c-0.17,1.53-0.26,3.95-0.49,5.46c-0.58,3.86,0.9,6.29,0.88,10.24 c-0.02,6.65,6.48,12.91,4.38,19.46c-5.2-0.71-6.56-12.33-6.95-16.23c-0.33-3.31-1.14-7.11-1.01-10.49 c0.11-2.91,1.43-6.24,2.54-9.75C185.35,197.6,186.24,196.78,186.01,198.89z"/><path fill="#99532f" d="M186.01,198.89c-0.17,1.53-0.26,3.95-0.49,5.46c-0.58,3.86,0.9,6.29,0.88,10.24c-0.02,6.65,6.48,12.91,4.38,19.46c-5.2-0.71-6.56-12.33-6.95-16.23c-0.33-3.31-1.14-7.11-1.01-10.49c0.11-2.91,1.43-6.24,2.54-9.75C185.35,197.6,186.24,196.78,186.01,198.89z"/><path fill="#76300c" d="M161,243.83c3.86,0,9,1.17,7.83,2.67c-1.81-1.34-2.52-1.08-4.8-0.63c-0.9,0.18-4.94,0.95-3.5-1.67c0.17-0.05,0.3-0.01,0.47-0.03"/><path fill="#76300c" d="M186.53,246.48c1.49-0.25,2.67-1.44,4.18-1.75c1.86-0.39,3.19,0.31,4.87,0.4c2.92,2.19-1.31,1.76-2.66,1.57c-1.92-0.26-3.83,0.11-5.82,0.2c-0.06-0.28-0.16-0.68-0.12-0.97"/><path fill="none" stroke="#543324" stroke-miterlimit="10" d="M154.17,243c-0.44,3.85,4.94,5.77,7.57,6.78c1.67,0.64,3.08,0.72,4.93,0.72c2.05,0,2.63,0.94,4.46,1.45c7.37,2.05,13.67-1.45,20.07-2.74c2.8-0.57,7.88-1.06,8.96-4.04c1.39-3.83-2.97-7.56-5.33-10"/></g><g class="mouth mouth-18"><path fill="#944e2a" fill-opacity="1" d="M150.583,273.08c1.07,0.018,1.815,2.137,2.813,2.597c1.146,0.528,2.438,1.08,3.581,1.729c2.122,1.205,3.841,1.71,6.302,1.45c2.836-0.3,5.597-0.552,8.378-1.059c2.344-0.427,4.561,0.065,6.929,0.267c4.757,0.404,9.565,0.329,14.273-0.381c1.8-0.272,3.257-0.942,5.057-1.085c2.166-0.173,4.103-0.857,5.845-2.153c1.892-1.407,2.503-3.22,4.558-4.245c-3.798-1.218-6.035-2.735-9.994-3.108c-2.107-0.198-4.114-1.126-6.19-1.289c-1.713-0.135-3.363,0.249-5.045,0.386c-8.57,0.697-17.878-0.676-26.158,2.105c-2.224,0.747-4.335,1.974-6.352,3.208c-1.308,0.8-2.629,0.131-3.515,1.417"/><path fill="#9e5834" d="M150.743,272.64c1.006-0.105,1.757-1.441,2.391-2.063c1.329-1.306,2.829-2.151,4.551-2.884c2.208-0.939,3.96-2.19,6.256-2.82c2.358-0.647,5.063-1.14,7.548-1.235c1.867-0.072,4.142,1.244,5.804,2.048c1.51,0.731,1.515,0.775,2.898-0.128c4.674-3.051,11.465-3.04,16.617-1.191c1.215,0.436,2.68,0.552,3.835,1.103c0.896,0.428,1.692,1.256,2.546,1.779c1.681,1.029,3.918,1.703,5.334,3.091c-1.88-0.243-4.24-0.82-6.16-0.345c-1.816,0.449-3.457,1.441-5.439,1.565c-1.555,0.097-7.411-0.343-8.91-0.573c-1.555-0.238-2.627,0.296-4.086,0.672c-1.474,0.379-3.086,0.234-4.582,0.381c-3.783,0.371-7.476-1.187-11.225-1.565c-1.304-0.132-2.83-0.086-4.068,0.153c-2.003,0.388-3.478,1.779-5.393,2.344c-2.522,0.745-5.306,0.305-7.796,0.147"/></g></svg>