<svg id="s5c3d008f8346b" class="face" xmlns="http://www.w3.org/2000/svg" xmlns:xlink="http://www.w3.org/1999/xlink" x="0px" y="0px" width="357px" height="358px" viewBox="0 0 357 358"><path fill="#914930" d="M268.5,189.04c-1.41-1.92-2.86-2.74-4.22-2.91c-3.96-0.47-7.28,4.62-7.28,4.62c2.38-21.04,0-32.96,0-32.96c-16.83-65.56-65.84-69.37-76.8-69.39c-0.71,0.02-1.44,0.04-2.2,0.06c-54,1.42-71.5,44.58-71.5,44.58c-9,12.5-4,61.55-4,61.55c-21-12.95-1.5,45.45-1.5,45.45c5,13.5,8,1,8,1c2.88,12.67,6.63,23.41,10.9,32.53c0.85,44.99,1.74,68.73,1.44,83.43c23.33,0,116.79,0,123.83,0l1.52-85.32c6.58-17.33,7.31-32.14,7.31-32.14c2.5,3,6.5,1.5,6.5,1.5C272.75,234.79,268.5,189.04,268.5,189.04z M255.96,199.92C255.93,200.18,255.94,200.15,255.96,199.92L255.96,199.92z M256.22,197.67c0.03-0.3,0.07-0.64,0.11-1.01C256.29,197.01,256.25,197.35,256.22,197.67z M256.82,192.32c0.06-0.55,0.11-0.99,0.14-1.26C256.91,191.5,256.87,191.92,256.82,192.32z M265.33,190.26c-0.04-0.16-0.09-0.37-0.16-0.62c-0.13-0.5-0.31-1.2-0.54-2.1c0.22,0.86,0.4,1.58,0.54,2.1C265.24,189.9,265.29,190.1,265.33,190.26C265.47,190.79,265.48,190.83,265.33,190.26z"/><path fill="#8c442b" d="M125.25,227.25c4.5-6.5,6.97-8.84,12.65-10c4.87-0.99,13.28-2.45,17.35-5.75c9.63-7.79,13.17-20.35,5.59-28.43c-4.32-4.6-7.03-7.3-13.05-8.81c-4.83-1.22-11.04-2.16-15.05-6.1c-7.84-7.69-11.29-20.73-10.82-31.2c0.41-8.95,9.17-18.79,15.15-24.83c7.04-7.12,15.71-14.12,23.72-20.42c-40.38,8.84-54.04,42.51-54.04,42.51c-9,12.5-4,61.55-4,61.55c-21-12.95-1.5,45.45-1.5,45.45c5,13.5,8,1,8,1c2.89,12.7,6.64,23.46,10.93,32.59c-0.78,38.87,1.32,70.54,1.15,83.21c7.79,0.1,53.6-30.51,61.45-32.32C179.16,318.81,113.75,264.75,125.25,227.25z"/><g class="eyes eyes-20"><path fill="#ffffff" fill-opacity="0.7"  d="M151.38,202.48c-1.86-0.55-3.57-0.68-5.43-0.89c0.87,1.15,1.39,2.57,1.39,4.12c0,3.8-3.1,6.88-6.92,6.88c-3.82,0-6.92-3.08-6.92-6.88c0-0.67,0.1-1.31,0.28-1.92c-0.39,0.2-0.77,0.42-1.14,0.72c-0.67,0.53-1.68,1.24-2.39,1.75c-0.78,0.56-1.36,0.98-1.83,1.83l0.25-0.25c-0.16,0.52-0.65,0.65-0.4,1.23c0.08,0.18,0.81,0.71,1,0.85c1.02,0.74,2.21,1.37,3.32,1.98c0.78,0.44,1.76,0.57,2.58,0.85c1.38,0.47,2.61,0.98,4.11,1c1.43,0.03,2.91-0.3,4.34-0.42c1.44-0.12,2.77-0.4,4.06-0.98c1.75-0.79,3.21-1.39,4.66-2.44c1.14-0.83,2.17-1.67,3.33-2.42c0.96-0.61,2.05-1.55,2.83-2.31C156.24,204.14,153.82,203.2,151.38,202.48z"/><path fill="#402a13" d="M140.42,212.58c3.82,0,6.92-3.08,6.92-6.88c0-1.55-0.52-2.97-1.39-4.12c-0.33-0.04-0.66-0.07-1-0.12c-1.31-0.17-2.57-0.3-3.88-0.14c-1.77,0.21-3.3,1.04-4.98,1.57c-0.82,0.26-1.58,0.51-2.31,0.88c-0.18,0.61-0.28,1.25-0.28,1.92C133.5,209.51,136.6,212.58,140.42,212.58z"/></g><g><path fill="#ffffff" fill-opacity="0.7"  d="M227,205.23c-1.46-1.13-3.14-2.19-4.87-2.79c0.24,0.67,0.37,1.39,0.37,2.14c0,3.54-2.87,6.42-6.42,6.42c-3.54,0-6.42-2.87-6.42-6.42c0-1.21,0.34-2.35,0.93-3.31c-1.25,0.15-2.5,0.35-3.6,0.9c-1.37,0.68-4.04,1.02-4.33,2.75h-0.08c-0.03,1.13,3.05,2.71,3.92,3.17c1.47,0.78,2.38,1.47,4,2.01c2.65,0.9,5.43,1.79,8.25,1.82c2.12,0.02,4.23,0.03,6.01-1.23c1.57-1.11,3.64-2.44,4.89-3.9C228.79,206.32,227.79,205.84,227,205.23z"/><path fill="#402a13" d="M216.08,211c3.54,0,6.42-2.87,6.42-6.42c0-0.75-0.14-1.47-0.37-2.14c-0.2-0.07-0.4-0.14-0.61-0.19c-1.49-0.41-2.59-1.08-4.1-1.25c-1.37-0.15-3.26-0.2-4.6,0c-0.72,0.11-1.47,0.18-2.22,0.27c-0.59,0.97-0.93,2.1-0.93,3.31C209.67,208.13,212.54,211,216.08,211z"/></g><g class="eyebrows eyebrows-21"><path fill="#0e0e0c" fill-opacity="0.6" d="M171.5,189c-1.46-4.67-6.03-5.8-10.24-6.25c-4.7-0.5-9.13-1.75-13.8-2.43c-4.42-0.65-8.87-1.92-13.15-2.57c-4.45-0.68-8.37,1.52-12.17,3.75c-2.86,1.67-5.56,4.37-7.62,6.94c2.55,0.79,5.12,0.49,7.74,0.37c3.43-0.15,8.56-0.99,11.75-0.31c6.1,1.31,10.36,1.94,16,1.75C155,190.08,166.65,188.51,171.5,189"/><path fill="#0e0e0c" fill-opacity="0.6" d="M229.25,177.5c-4.44,0.66-8.87,1.88-13.25,2.25c-2.83,0.24-5.67,1.15-8.5,1c-3.66-0.2-13.46,0.87-12.46,6.46c2.92,1.52,3.97,3.02,7.92,2.55c2.18-0.26,4.26-1.01,6.48-1.31c2.3-0.31,11.03,0.33,13.11,0.31c5-0.06,9.76-1.13,14.49,1.93c2.61,1.68,8.44,4.75,7.41-1.39c-3.09-1.37-4.66-4.22-7.01-6.49c-2.39-2.31-5.47-3.95-8.44-5.3"/></g><g class="hair hair-1002"><path fill="#0e0e0c" d="M259.93,148.08c-1.48-4.6-3.76-8.81-4.77-13.56c-0.85-4.01-1.78-7.77-3.92-11.31c-0.86-1.43-1.78-2.81-2.73-4.17c-1.61-1.43-3.15-2.92-4.6-4.6c-2.07-2.41-4.16-4.98-7-6.5c-1.84-0.64-3.12-1.15-4.14-1.73c-2.02-0.75-4.06-1.5-5.79-2.64c-2.67-1.76-4.84-4.45-7.7-5.86c-6.59-3.25-14.16-5.26-21.04-7.92c-3.27-1.27-6.63-2.53-10.2-2.23c-3.43,0.29-6.84,0.91-10.29,0.94c-7.55,0.08-15.09-0.61-22.25,1.25c-6.5,1.69-12.18,5.54-18.67,7.07c-7.55,1.78-13.69,5.79-19.2,10.69c-0.86,1.66-1.45,2.75-3.8,3.61c-1.34,1.34-2.65,2.72-3.94,4.11c-1.24,2.51-2.66,4.94-3.83,7.54c-0.77,1.71-1.55,3.4-2.34,5.1c0.02,1.43-0.13,2.85-0.65,4.21c-0.04,0.11-0.09,0.22-0.14,0.33c0.16,1.66,0.12,3.32-0.36,4.92c-0.52,1.73-1.25,3.35-2.04,4.94c0.14,0.63,0.16,1.32,0.04,2.06c-1.16,6.79-2.6,13.71-4.35,20.38c0.27,5.19,0.97,10.37,0.62,15.59c-0.27,4.12,1.15,8.06,1.58,12.03c2.12,2.92,3.22,6.2,3.69,9.71c0.13,0.97,0.26,1.91,0.4,2.84c0.5-0.81,1.1-1.58,1.8-2.3c0.27-3,0.74-5.94,1.59-8.64c1.61-5.15,3.16-11.5,6.33-15.89c1.47-2.04,3.76-3.89,4.39-6.31c0.73-2.83,0.47-6.69,0.86-9.54c0.8-5.9,0.51-10.99,2.46-16.66c0.88-2.56,0.5-4.84,1.91-7.25c1.38-2.36,3.65-4.68,5.57-6.62c5.28-5.33,12.18-3.4,19.2-4.11c5.16-0.52,11.46-0.02,16.89-0.58c5.89-0.6,10.52-0.56,16.5-0.25c6.24,0.32,11.91-1.08,18.09-0.75c3.08,0.16,6.43-0.64,9.31-0.02c2.94,0.64,11.6,0.56,14.35,1.52c5.55,1.94,7.28,4.19,9.25,10c2.7,7.96,0.74,15.6,2.25,20.5c1.33,4.33,9.83,15.79,12.29,19.5c1.39,2.11,2.44,5.78,3.23,10.02c0.11,0.21,0.22,0.41,0.3,0.64c1.19,3.26,3.22,5.99,3.75,9.5c0.13,0.88,0.05,1.69-0.18,2.42c0,0.11,0,0.22-0.01,0.33c0.15,0.38,0.28,0.76,0.42,1.14c0.82-3.76,1.75-7.35,2.62-8.23c0.33-0.33,0.64-0.66,0.94-0.99c0.58-5.43,3.07-10.51,3.24-16.02c0.2-6.65,0.24-13.3,0.43-19.94c0.08-2.79-0.05-5.55-0.34-8.28C259.93,148.09,259.93,148.08,259.93,148.08z"/></g><g class="facial-hair facial-hair-25"><path fill="#0e0e0c" fill-opacity="0.2" d="M144.3,266.4c5-5.8,14.9-12.2,22.6-14c2.3-0.5,5.2-0.9,7.4-0.3c2.1,0.6,3.2,2.2,5.6,1.9c1.9-0.2,3.2-2.2,4.9-2.9c1.6-0.7,5.9-1.2,7.7-0.9c1.1,2.5,4.7,4.3,6.9,5.6c2.6,1.6,6.1,3.8,9,5c3.3,1.3,4.2,1.9,6.4,4.5c1.2,1.5,4.9,4.2,3.8,6.3c-2.1,3.7-5.8-0.7-7.3-1.9c-2.1-1.6-4.5-2.6-6.9-3.6c-6-2.6-11.9-4.1-18.5-4.4c-4.4-0.2-8.7-1.4-13.1-0.9c-4,0.4-6.8,2.3-10.6,3.3c-4.3,1.1-7.7,1-11.2,3.7c-2.5,1.9-4.2,3.1-7.6,2.8c-0.5-2.8,0.6-3.5,2.4-4.9"/><path fill="#0e0e0c" d="M144.8,293.2c1.6,3.5-0.2,7,0,10.5c0.2,3.5,2.1,6.7,3.4,9.9c2.1,5.3,4.6,9,9.6,11.5c5.2,2.5,12.5,2.2,18.3,2.2c4.1,0,8-0.5,12.1-0.6c3.5-0.1,7.5,0.6,10.9-0.3c7.7-2.1,13.2-4.2,13.7-11.7c0.3-4,1.9-7.9,2.2-11.7c0.2-2.6,1.8-11.6-0.7-12.6c-0.7,2.4-4.1-0.1-6.3,1.4c-0.2,0.1-1.9,0.3-2.3,0.5c-1.9,0.7-3.4,2.3-5.3,2.7c-1.6,3.9-4.7,1-6.9,1.5c-1.2,0.3-2.2,2-3.3,2.5c-0.8,0.3-2.1,0.4-2.9,0.6c-3.8,1-5.5,2.2-8.9,0.6c-3.8-1.8-3.7-2-7.6,0.5c-6.1,3.9-7-0.5-13.9-1c-3-0.2-4.5-2.3-7-3.8c-1.8-1-2.5-2.6-4.9-3.1c-0.1,0.5-0.2,1.3,0,1.8"/></g><g class="nose nose-8"><path fill="#873f26" d="M186.01,198.89c-0.17,1.53-0.26,3.95-0.49,5.46c-0.58,3.86,0.9,6.29,0.88,10.24 c-0.02,6.65,6.48,12.91,4.38,19.46c-5.2-0.71-6.56-12.33-6.95-16.23c-0.33-3.31-1.14-7.11-1.01-10.49 c0.11-2.91,1.43-6.24,2.54-9.75C185.35,197.6,186.24,196.78,186.01,198.89z"/><path fill="#5f1700" d="M161.25,240.25c2.63-2.83,4.53-2.89,7.5-0.94c1.32,0.87,5.69,2.64,5.03,4.44c-1.12,3.04-7.16,0.55-8.78,0c-0.94-0.32-6.45-2.02-3.5-3.75"/><path fill="#5f1700" d="M188.25,239.25c2.48-1.05,3.94-2.43,6.69-1.44c1.84,0.66,5.71,2.67,4.3,4.49c-2.64,3.41-14.05,0.07-10.49-3.3"/><path fill="none" stroke="#823a21" stroke-miterlimit="10" d="M159.25,226.25c-2.79,0.32-6.4,3.88-8.2,6.05c-2.02,2.44-2.68,5.1-1.12,8.02c1.54,2.87,3.68,5.12,6.57,6.63c2.66,1.39,6.91,0.25,9,1.81"/><path fill="none" stroke="#823a21" stroke-miterlimit="10" d="M174.25,247.25c1.6-0.23,2.64,1.12,4.18,1.5c3.76,0.94,5.48-1.55,8.86-1.93c2.22-0.25,4.24,1.13,6.41,1.41c6.13,0.79,12.03-3.1,13.8-8.98c1.31-4.33-1.4-5.91-4.76-8.49c-2.09-1.61-4.13-2.11-6.49-3.19c-2.23-1.03-4.25-6.06-5.76-6.32"/></g><g class="mouth mouth-9"><path fill="#151111" d="M152.27,272.06c2.41,1.94,4.48,4.09,6.67,6.21c0.7,0.68,1.36,0.97,2.3,1.26c2.91,0.9,6.01,0.96,8.94,1.87c2.21,0.69,4.41,1.53,6.61,2.1c5.6,1.47,12.66,1.42,18.18-0.53c0.72-0.26,1.63-0.32,2.27-0.62c0.9-0.42,1.5-1.25,2.44-1.68c1.68-0.76,2.76-1.64,3.97-3c1.12-1.26,2.87-3.23,2.94-5.02c-2.91,0.45-6.06,1.07-8.96,0.46c-3.38-0.7-6.83-1.47-10.12-2.4c-2.71-0.76-5.58-0.68-8.34-1.29c-2.23-0.5-4.58-0.55-6.86-1.12c-4.81-1.19-9.79-1.94-14.36,0.07c-1.27,0.56-2.68,0.62-3.67,1.56c-0.52,0.5-0.92,1.25-1.34,1.87"/><path fill="#8E4531" d="M159.87,271.92c0,0.93-0.26,2.42,0.1,3.23c0.81,1.8,4.15,2.11,5.72,2.49c4.33,1.03,9.69,0.55,14.11,0.16c1.59-0.14,3.11-0.7,4.67-0.95c1.7-0.27,3.43-0.04,5.12-0.28c1.22-0.18,2.44-1.01,3.66-0.52c1.05,0.43,1.44,1.16,2.77,1.21c1.32,0.04,2.24-0.46,3.33-0.93c0.74-0.32,2.06-0.56,2.45-1.43c0.8-1.82-2.15-2.33-3.36-2.71c-1.94-0.61-3.71-1.32-5.6-2c-3.9-1.4-7.42-1.09-11.37-0.4c-4.88,0.85-9.06,1.26-14.02,0.42c-2.86-0.49-5.7-0.01-7.58,1.98"/><path fill="#F7F2E8" d="M159.87,274.86c0.01,1.4,0.09,2.12,1.44,2.84c0.43,0.23,0.99,0.14,1.37,0.36c0.52,0.29,0.76,0.92,1.32,1.21c0.93,0.48,2.15,0.24,3.18,0.56c1.35,0.43,1.9,0.17,3.24,0.23c0.84,0.04,2.21,0.34,3.07,0.54c0.96,0.22,1.77,0.78,2.7,1.04c2.21,0.6,4.07,0.91,6.14,0.6c1.26-0.19,2.58,0.14,3.84,0.1c1.05-0.03,1.72-0.46,2.67-0.8c0.9-0.32,1.76-0.28,2.67-0.51c0.93-0.24,1.27-0.9,2.14-1.24c0.84-0.32,1.88-0.11,2.78-0.43c0.67-0.25,1.3-0.55,1.99-0.79c1.2-0.42,3.25-1.53,3.62-2.73c-1.46-0.59-3.11-0.63-4.55,0.07c-1.14,0.55-0.54,0.55-1.7,0.13c-0.87-0.31-1.39-0.58-2.13,0.32c-0.78-0.74-1.93-1.97-3.08-1.89c-0.5,0.03-0.81,0.55-1.23,0.64c-0.89,0.19-0.87-0.18-1.85-0.55c-1.03-0.39-2.67-0.51-3.72-0.23c-0.63,0.17-0.78,0.43-1.3,0.7c-0.28,0.14-0.12,0.58-0.48,0.66c-0.4,0.09-1.36-0.56-1.76-0.72c-1.21-0.5-2.73-0.9-4.07-0.77c-1.15,0.11-1.78,1.29-2.67,1.2c-0.96-0.09-2.11-1.58-3.34-1.22c-0.51,0.15-0.68,0.84-1.2,0.95c-0.38,0.08-1.17-0.41-1.73-0.41c-0.99,0.01-1.49,0.58-2.3,0.9c-0.86,0.34-0.62,0.3-1.61,0.07c-0.97-0.23-2.9-0.05-3.57-0.7"/><path fill="#7d351c" fill-opacity="1" d="M152.94,274.73c1.54,2.02,2.45,4.46,4.14,6.41c1.51,1.75,3.25,3.27,4.57,5.2c1.25,1.82,2.15,2.55,3.7,4.14c2.1,2.16,4.84,2.95,7.74,3.34c1.34,0.18,3.03-0.14,4.4,0c1.91,0.19,3.52,0.77,5.34,0.27c2.4-0.66,3.96,0.58,6.4,0.27c1.15-0.15,2.39-0.28,3.47-0.67c1.22-0.43,1.97-1.25,3.03-1.88c1.24-0.74,2.43-1.22,3.58-2.13c2.08-1.67,3.96-3.28,5.3-5.56c0.58-1,0.74-2.22,1.27-3.23c0.6-1.15,1.2-1.78,1.53-3.05c0.4-1.53,1.01-3.82-0.39-5.09c-1.16,2.88-5.57,3.51-7.83,5.32c-1.53,1.22-3.58,1.44-5.38,1.98c-1.41,0.42-2.98,1.01-4.47,1.21c-3.25,0.44-6.76,0.16-9.98-0.11c-1.74-0.15-3.48-0.46-5.2-0.63c-1.99-0.2-4.37,0.29-6.28-0.19c-1.43-0.36-2.84-1.21-4.13-1.84c-1.86-0.9-3.86-1.53-5.76-2.41c-2.36-1.09-4.98-2.72-6.81-4.61c0.93,0.85,0.75,1.94,1.24,2.88c0.41,0.77,1.14,1.05,1.44,1.87"/><path fill="#873f26" d="M150,270.99c0.4-1.38,2.68-2.26,3.91-2.8c2.1-0.93,4.26-1.72,6.53-2.24c2.26-0.52,4.16-0.98,6.21-1.93c1.58-0.73,3.14-1.71,4.96-1.57c1.58,0.12,2.4,1.24,3.95,1.47c1.44,0.22,3.14,0.3,4.5-0.01c3.25-0.75,7.57-1.96,10.86-1.03c3.62,1.02,6.77,3.97,10.11,5.75c1.51,0.81,3.04,1.42,4.6,1.96c1.18,0.41,2.34,1.47,3.58,1.75c0.32,1.19,0.7,1.6-0.37,2.38c-0.97,0.71-2.5,0.94-3.6,1.33c-1.16,0.41-2.13,0.81-3.45,0.51c-1.28-0.29-3.19-0.48-4.54-0.93c-0.88-0.3-1.65-1.13-2.56-1.45c-1.18-0.41-2.5-0.11-3.74-0.29c-1.39-0.2-2.75-0.46-4.15-0.66c-0.88-0.13-2.21-0.52-3.13-0.22c-0.5,0.17-1.01,0.79-1.52,1.02c-1.07,0.48-2.63,0.89-3.77,1.19c-1.45,0.37-2.55-0.29-3.97-0.76c-2.91-0.96-6.58-1.51-9.74-1.21c-1.34,0.13-2.2,0.87-3.61,0.94c-1.69,0.08-3.42-0.38-5.07-0.71c-1.11-0.22-2.06-0.44-3.1-0.87c-1.05-0.43-1.61-1.05-2.51-1.63"/></g></svg>