<svg id="s57da0c2b8427a" class="face" xmlns="http://www.w3.org/2000/svg" xmlns:xlink="http://www.w3.org/1999/xlink" x="0px" y="0px" width="357px" height="358px" viewBox="0 0 357 358"><path fill="#a6775b" d="M268.5,189.04c-1.41-1.92-2.86-2.74-4.22-2.91c-3.96-0.47-7.28,4.62-7.28,4.62c2.38-21.04,0-32.96,0-32.96c-16.83-65.56-65.84-69.37-76.8-69.39c-0.71,0.02-1.44,0.04-2.2,0.06c-54,1.42-71.5,44.58-71.5,44.58c-9,12.5-4,61.55-4,61.55c-21-12.95-1.5,45.45-1.5,45.45c5,13.5,8,1,8,1c2.88,12.67,6.63,23.41,10.9,32.53c0.85,44.99,1.74,68.73,1.44,83.43c23.33,0,116.79,0,123.83,0l1.52-85.32c6.58-17.33,7.31-32.14,7.31-32.14c2.5,3,6.5,1.5,6.5,1.5C272.75,234.79,268.5,189.04,268.5,189.04z M255.96,199.92C255.93,200.18,255.94,200.15,255.96,199.92L255.96,199.92z M256.22,197.67c0.03-0.3,0.07-0.64,0.11-1.01C256.29,197.01,256.25,197.35,256.22,197.67z M256.82,192.32c0.06-0.55,0.11-0.99,0.14-1.26C256.91,191.5,256.87,191.92,256.82,192.32z M265.33,190.26c-0.04-0.16-0.09-0.37-0.16-0.62c-0.13-0.5-0.31-1.2-0.54-2.1c0.22,0.86,0.4,1.58,0.54,2.1C265.24,189.9,265.29,190.1,265.33,190.26C265.47,190.79,265.48,190.83,265.33,190.26z"/><path fill="#a17256" d="M125.25,227.25c4.5-6.5,6.97-8.84,12.65-10c4.87-0.99,13.28-2.45,17.35-5.75c9.63-7.79,13.17-20.35,5.59-28.43c-4.32-4.6-7.03-7.3-13.05-8.81c-4.83-1.22-11.04-2.16-15.05-6.1c-7.84-7.69-11.29-20.73-10.82-31.2c0.41-8.95,9.17-18.79,15.15-24.83c7.04-7.12,15.71-14.12,23.72-20.42c-40.38,8.84-54.04,42.51-54.04,42.51c-9,12.5-4,61.55-4,61.55c-21-12.95-1.5,45.45-1.5,45.45c5,13.5,8,1,8,1c2.89,12.7,6.64,23.46,10.93,32.59c-0.78,38.87,1.32,70.54,1.15,83.21c7.79,0.1,53.6-30.51,61.45-32.32C179.16,318.81,113.75,264.75,125.25,227.25z"/><g class="eyes eyes-18"><path fill="#ffffff" fill-opacity="0.7" d="M157.74,196.52c0.47,0.89,0.73,1.84,0.51,2.85c-0.37,1.68-1.55,3.16-3,4.07c-2.33,1.44-5.89,2.32-8.24,0.44c-1.26-1.01-1.84-2.82-2.63-4.2c-0.26-0.45-0.5-0.89-0.69-1.33c-0.06,0.04-0.13,0.07-0.18,0.11c-0.96,0.57-1.88,1.1-2.79,1.75c-1.31,0.93-2.24,1.61-3.29,2.96v-0.25c-1.17,0.54,1.15,1.36,1.54,1.5c1.16,0.4,2.2,1.03,3.35,1.48c2.83,1.09,6.12,0.63,9.12,0.52c2.54-0.09,5.73-0.33,7.61-2.29c0.8-0.83,1.15-1.28,1.88-2.17c0.9-1.11,1.52-2.2,2.18-3.47C162.1,197.69,159.35,196.76,157.74,196.52z"/><path fill="#1e2420" d="M147.01,203.88c2.35,1.88,5.91,1,8.24-0.44c1.46-0.9,2.63-2.39,3-4.07c0.22-1.01-0.04-1.96-0.51-2.85c-0.21-0.03-0.41-0.05-0.57-0.06c-2.77-0.1-2.88-0.22-5.67-0.25c-1.47-0.02-3.43,0.43-4.85,0.79c-1.01,0.26-2.05,0.82-2.96,1.35c0.19,0.44,0.43,0.88,0.69,1.33C145.17,201.06,145.75,202.87,147.01,203.88z"/><path fill="#ffffff" fill-opacity="0.7" d="M222.67,198.67c-0.6-0.29-1.14-0.56-1.67-0.82c0.08,0.65-0.01,1.34-0.15,2.05c-0.66,3.25-5.09,6.55-8.34,5.35c-2.32-0.86-4.15-3.63-5.48-5.65c-0.71-1.09-0.71-2.22-0.4-3.34c-0.4,0.18-0.8,0.41-1.22,0.74c-0.94,0.73-2.37,1.72-2.94,2.76c-0.67,1.22,2.4,4.26,3.21,4.92c2.23,1.82,5.61,1.97,8.3,2.81c3.05,0.95,6.21,0.25,9.28-0.25c1.63-0.27,2.9-0.91,4.38-1.56c0.65-0.28,1.92-1.23,2.59-1.08C229.64,202.23,223.54,199.1,222.67,198.67z"/><path fill="#1e2420" d="M207.03,199.59c1.33,2.02,3.16,4.79,5.48,5.65c3.24,1.21,7.68-2.1,8.34-5.35c0.14-0.71,0.23-1.4,0.15-2.05c-1.85-0.89-3.34-1.53-5.29-1.93c-2.87-0.59-5.05-0.57-6.04-0.25c-1.26,0.1-2.15,0.2-3.03,0.59C206.32,197.38,206.32,198.51,207.03,199.59z"/></g><g class="eyebrows eyebrows-6"><path fill="#2e1d16" fill-opacity="0.7" d="M119.33,195c0.74-3.9,2.84-7.79,6-10.18c1.94-1.47,4.57-2.44,6.57-3.65c2.44-1.48,4.96-1.74,7.4-0.16c4.14,2.67,8.63-0.43,12.74,1.1c2.92,1.09,6.48,3.07,8.12,5.88c0.84,1.43,0.37,3.01-1.6,3.02c-2.48,0.02-4.47-1.71-6.74-2.02c-4.44-0.61-9.01-0.13-13.47-0.5c-1.99-0.16-4.54-0.52-6.54-0.17c-1.63,0.28-2.55,1.52-3.95,2.38c-3.14,1.93-7.13,2.6-9.56,5.4c0.3-0.57,0.74-0.88,1.36-0.94"/><path fill="#2e1d16" fill-opacity="0.7" d="M200.83,188c0.67-2.73,4.53-5.59,6.93-6.83c3.15-1.63,7.54-1.51,11.04-1.34c3.83,0.19,6.89-1.51,10.83-0.29c2.02,0.62,3.93,0.96,6.21,0.96c2.66,0,2.83,0.67,4.53,2.33c1.18,1.15,2.95,2.21,3.77,3.67c0.84,1.48,1.6,3.19,2.36,4.67c0.5,0.98,0.38,1.78,0.61,2.79c-0.66-0.6-1.35-1.29-2.11-1.79c-1.99-1.32-3.83-0.68-6-1.17c-1.49-0.34-2.32-1.59-3.67-2.16c-3.62-1.54-7.45-2.03-11.34-2.17c-4.61-0.17-9.03-2.32-13.2,0.62c-1.62,1.14-2.29,1.18-4.13,1.54c-1.7,0.33-2.86,1.66-4.67,0.67c-1.08-0.59-1.82-1.98-0.83-3.17"/></g><g class="chin chin-14"><path fill="none" stroke="#a17256" stroke-miterlimit="10" d="M148.75,318c1.85,1.27,4.95,5.06,6.75,6.49c2.86,2.27,8.72,4.76,12.25,5.26c5.44,0.76,7.65,0.09,13.06,0.99c4.16,0.69,10.05-1.05,14.19-1.24c10.29-0.47,16.5-6.16,19.25-15.75"/></g><g class="hair hair-2"><linearGradient id="hair_1_57da0c2b8523f" gradientUnits="userSpaceOnUse" x1="179.6421" y1="200.001" x2="179.6421" y2="88.6089"><stop offset="0" style="stop-color:#a6775b;stop-opacity:0"/><stop offset="0.0796" style="stop-color:#9c6d51;stop-opacity:0.0905"/><stop offset="0.2438" style="stop-color:#97684c;stop-opacity:0.2771"/><stop offset="0.476" style="stop-color:#926347;stop-opacity:0.5411"/><stop offset="0.6158" style="stop-color:#2e1d16;stop-opacity:0.7"/><stop offset="1" style="stop-color:#2e1d16"/></linearGradient><path fill="url(#hair_1_57da0c2b8523f)" fill-opacity="0.5" d="M109.4,198.14c0.08,0.63,0.17,1.26,0.32,1.86l-0.67-2C109.18,198.04,109.3,198.08,109.4,198.14c-0.4-3.3-0.02-6.9-0.33-10.14c-0.37-3.89-0.85-8.32-0.35-12.27c0.45-3.51,2.21-6.46,3.66-9.4c1.53-3.1,3.57-3.45,5.65-5.84c4.72-5.42-0.34-17.2,2.02-24.17c2.7-7.96,9.64-9.39,16.12-12.99c7.27-4.04,23.58-6.38,32.16-6.29c9.53,0.1,15.27,0.03,24.74,1.28c4.79,0.63,9.58,1.02,14.32,1.68c4.67,0.65,9.11,2.63,13.69,3.99c3.31,0.99,8.3,1.69,11.26,3.41c2.94,1.7,4.6,6.57,5.72,9.61c0.95,2.58,2.27,5.3,2.76,7.98c0.5,2.75-0.54,5.38-0.1,8.02c0.83,5.06,6.68,9.99,8.59,15.08c3.55,9.47,1.02,20.53,3.82,30.21c1.45-1.38,2.64-2.9,3.62-4.55c0.01-0.11,0.02-0.21,0.04-0.32c0.04-0.32,0.07-0.63,0.1-0.91c0.06-0.55,0.11-0.99,0.14-1.26c0.02-0.15,0.03-0.25,0.03-0.29c0-0.01,0-0.01,0-0.02c2.38-21.04,0-32.96,0-32.96c-16.83-65.56-65.84-69.37-76.8-69.39c-0.71,0.02-1.44,0.04-2.2,0.06c-54,1.42-71.5,44.58-71.5,44.58c-9,12.5-4,61.55-4,61.55C101.44,194.11,111.12,199,109.4,198.14z"/></g><g class="nose nose-22"><path fill="#9c6d51" d="M186.01,198.89c-0.17,1.53-0.26,3.95-0.49,5.46c-0.58,3.86,0.9,6.29,0.88,10.24 c-0.02,6.65,6.48,12.91,4.38,19.46c-5.2-0.71-6.56-12.33-6.95-16.23c-0.33-3.31-1.14-7.11-1.01-10.49 c0.11-2.91,1.43-6.24,2.54-9.75C185.35,197.6,186.24,196.78,186.01,198.89z"/><path fill="none" stroke="#97684c" stroke-miterlimit="10" d="M195.333,236.667c1.84,0.719,2.839,3.799,2.332,5.999	c-0.615,2.667-2.788,3.464-5.266,4.001c-2.459,0.533-5.993-0.532-8.391,0.31c-2.935,1.03-4.122,3.785-7.619,4.041 c-2.651,0.194-4.005-0.401-5.966-1.758c-2.852-1.973-3.221-2.032-6.758-2.259c-6.306-0.405-7.227-4.598-4-9.333"/></g><g class="mouth mouth-8"><path fill="#060F10" d="M154.8,264.86c-0.22-0.05,0.18-0.66-0.04-0.64c-0.95,2.17,0.27,4.09,1.66,5.61c1.87,2.04,3.57,4.59,5.97,5.96c2.64,1.51,5.3,3.53,8.19,4.37c1.21,0.35,2.09,0.52,3.13,1.14c0.91,0.54,1.51,1.01,2.65,1.28c2.26,0.53,4.1-0.04,6.24-0.77c1.34-0.46,2.45-0.44,3.83-0.51c1.72-0.09,3.29-0.79,4.94-1.27c1.96-0.58,3.8-1.64,5.22-3.06c0.46-0.47,0.63-1.12,1.17-1.54c0.61-0.48,1.52-0.65,2.17-1.15c0.86-0.66,1.52-1.71,2.35-2.45c0.83-0.74,1.92-1.29,2.49-2.27c0.88-1.5-0.58-2-1.95-2.49c-2.03-0.72-4.45-1.69-6.56-1.98c-1.49-0.2-2.9-0.02-4.34-0.41c-2.67-0.72-5.6-0.35-8.42-0.48c-2.06-0.1-4.11-1.24-6.11-1.82c-3.44-1-5.92-0.15-8.7,1.66c-2.79,1.82-6.12,1.18-9.3,1.18c-1.49,0-3.39-0.32-4.63-1.02"/><path fill="#EFE2C9" d="M165.52,275.32c1.15-0.56,2.05-1.13,3.42-1.28c1.16-0.12,2.22,0.29,3.32,0.25c1.08-0.03,1.83-0.59,2.74-0.54c1.31,0.07,2.73,0.03,4.05-0.1c1.2-0.12,1.79,0.26,2.93,0.39c1.34,0.15,2.43-0.35,3.71-0.38c2.12-0.05,4.35,0.73,6.38,0.89c1.7,0.14,3.54-0.29,5.21-0.11c0.1,1.01-4.12,1.57-5.06,2.09c-2.19,1.2-3.21,1.96-5.63,2.22c-1.47,0.15-2.83,0.59-4.43,0.53c-1.55-0.07-3.09-0.13-4.65-0.13c-1.4,0-3.3,0.29-4.68,0c-1.12-0.24-2.46-1.02-3.5-1.51c-1.55-0.73-2.61-1.77-3.79-2.96"/><path fill="#EFE2C9" d="M161.31,267.67c0.02,1.05-0.46,1.9,0.02,2.94c0.35,0.77,1.14,1.39,1.73,2.03c1.32,1.43,4.16,0.77,6.13,0.77c1,0,1.93-0.12,2.74-0.04c1.32,0.13,2.74,0.67,4.18,0.42c1.02-0.18,2.04-0.81,3.2-0.52c1.24,0.31,1.61,0.72,2.93,0.52c2.12-0.32,4.3-0.33,6.38-0.13c1.47,0.14,3.39,0.4,4.72-0.01c0.45-0.14,0.83-0.42,1.28-0.51c0.61-0.12,1.22,0.1,1.79-0.12c1.33-0.51,3.85-2.58,2.9-4.21c-0.97-1.68-4.46-2.09-6.07-2.3c-2.26-0.3-4.41-1.11-6.68-1.4c-1.67-0.21-3.59,0.24-5.22-0.13c-0.55-0.13-0.82-0.52-1.27-0.77c-3.74-2.1-7.39-1.69-11.27-0.92c-1.64,0.32-3.31,1.49-4.84,2.29c-0.96,0.51-2.34,1.4-2.9,2.33"/><path fill="#926347" fill-opacity="1" d="M153.65,265.24c0.83,1.83,1.32,4.01,2.57,5.62c0.65,0.84,1.61,1.55,2.37,2.32c1.46,1.49,2.74,3.03,4.15,4.54c1.93,2.08,3.57,3.66,6.08,5.02c2.96,1.61,5.83,2.12,9.07,2.91c2.56,0.63,5.06,1.13,7.72,1.38c1.4,0.13,2-0.03,3.09-0.65c1.16-0.66,7.64-1.09,9.72-2.42c1.12-0.71,1.99-1.6,3.18-2.29c1.33-0.76,3.24-1.8,4.19-2.92c1.39-1.63,3.07-7.71,3.47-8.8c0.39-1.06-0.08-2.06,0.24-3.17c-1.53,1.51-4.38,2.69-6.37,3.66c-1.88,0.91-3.67,1.69-5.83,2.07c-1.86,0.33-2.63,0.52-3.97,1.63c-1.05,0.87-1.98,1.68-3.38,1.82c-2.07,0.2-4.24-0.02-6.32,0c-2.47,0.02-4.97,0.41-7.45,0.52c-2.48,0.1-4.58-0.49-6.85-1.28c-1.19-0.41-2.37-0.84-3.41-1.54c-1.2-0.81-1.6-1.07-3.1-1.43c-1.28-0.31-2.38-0.89-3.33-1.75c-1.16-1.03-2.51-1.79-3.66-2.82C154.98,266.91,154.4,266.03,153.65,265.24"/><path fill="#9c6d51" d="M153.15,263.84c3.02,0,5.29-1.68,8.29-1.91c3.31-0.26,6.64-0.3,9.97-0.13c1.98,0.1,3.98,0,5.96,0c1.84,0,3.38,0.6,5.11,0.77c2.92,0.3,6.09-0.01,9.03-0.01c2.11,0,4.22,0.15,6.27,0.53c1.73,0.33,3.74,0.44,5.46,0.9c1.09,0.29,2.86,0.37,3.83,1.02c1.26,0.85,1.47,1.45,3.07,1.65c0.03,1.03-1.77,1.25-2.54,1.61c-1.06,0.49-1.89,1.05-3.05,1.33c-2.19,0.54-4.9,0.57-7.14,0.1c-1.45-0.3-2.6-0.89-4.05-1.02c-1.32-0.11-2.54-0.33-3.85-0.38c-2.9-0.12-5.79,0.72-8.56,0.51c-2.94-0.23-5.81-1-8.78-1.41c-1.59-0.22-3.61-0.35-5.25-0.1c-1.29,0.2-2.41,0.74-3.79,0.62c-2.44-0.22-4.3-1.93-6.66-2.04c-1.09-0.05-2.24,0.77-3.02-0.02C152.98,265.41,151.8,263.54,153.15,263.84"/></g></svg>