<svg id="s56e84700d0f41" class="face" xmlns="http://www.w3.org/2000/svg" xmlns:xlink="http://www.w3.org/1999/xlink" x="0px" y="0px" width="357px" height="358px" viewBox="0 0 357 358"><path fill="#bc8f7a" d="M268.5,189.04c-1.41-1.92-2.86-2.74-4.22-2.91c-3.96-0.47-7.28,4.62-7.28,4.62c2.38-21.04,0-32.96,0-32.96c-16.83-65.56-65.84-69.37-76.8-69.39c-0.71,0.02-1.44,0.04-2.2,0.06c-54,1.42-71.5,44.58-71.5,44.58c-9,12.5-4,61.55-4,61.55c-21-12.95-1.5,45.45-1.5,45.45c5,13.5,8,1,8,1c2.88,12.67,6.63,23.41,10.9,32.53c0.85,44.99,1.74,68.73,1.44,83.43c23.33,0,116.79,0,123.83,0l1.52-85.32c6.58-17.33,7.31-32.14,7.31-32.14c2.5,3,6.5,1.5,6.5,1.5C272.75,234.79,268.5,189.04,268.5,189.04z M255.96,199.92C255.93,200.18,255.94,200.15,255.96,199.92L255.96,199.92z M256.22,197.67c0.03-0.3,0.07-0.64,0.11-1.01C256.29,197.01,256.25,197.35,256.22,197.67z M256.82,192.32c0.06-0.55,0.11-0.99,0.14-1.26C256.91,191.5,256.87,191.92,256.82,192.32z M265.33,190.26c-0.04-0.16-0.09-0.37-0.16-0.62c-0.13-0.5-0.31-1.2-0.54-2.1c0.22,0.86,0.4,1.58,0.54,2.1C265.24,189.9,265.29,190.1,265.33,190.26C265.47,190.79,265.48,190.83,265.33,190.26z"/><path fill="#b78a75" d="M125.25,227.25c4.5-6.5,6.97-8.84,12.65-10c4.87-0.99,13.28-2.45,17.35-5.75c9.63-7.79,13.17-20.35,5.59-28.43c-4.32-4.6-7.03-7.3-13.05-8.81c-4.83-1.22-11.04-2.16-15.05-6.1c-7.84-7.69-11.29-20.73-10.82-31.2c0.41-8.95,9.17-18.79,15.15-24.83c7.04-7.12,15.71-14.12,23.72-20.42c-40.38,8.84-54.04,42.51-54.04,42.51c-9,12.5-4,61.55-4,61.55c-21-12.95-1.5,45.45-1.5,45.45c5,13.5,8,1,8,1c2.89,12.7,6.64,23.46,10.93,32.59c-0.78,38.87,1.32,70.54,1.15,83.21c7.79,0.1,53.6-30.51,61.45-32.32C179.16,318.81,113.75,264.75,125.25,227.25z"/><g class="eyes eyes-7"><path fill="#ffffff" fill-opacity="0.7" d="M130.67,205.17c3.71-3.85,9.45-3.34,14.5-2.67c2.44,0.33,4.47,0.94,6.55,2.17c1.45,0.85,5.95,3.1,5.42,5.14c-1.8,0.92-3.6,0.77-5.65,1.04c-3.08,0.41-5.96,0.32-9.05-0.13c-2.29-0.33-4.49-1.03-6.58-1.97C133.94,207.87,132.58,205.97,130.67,205.17"/><path fill="#ffffff" fill-opacity="0.7" d="M197.83,208.5c0.56-1.71,5.14-3.87,6.88-4.3c2.4-0.6,4.91-1.54,7.35-1.91c2.71-0.4,4.1,0.74,6.42,1.21c3,0.6,5.13,2.71,7.97,3.53c-1.7,1.15-3.57,2.93-5.45,3.85c-2.36,1.16-5.89,1.12-8.5,1.12c-2.79,0-5.38-0.26-8.03-1c-1.52-0.43-2.72-1.5-4.18-1.97c-0.84-0.27-1.79-0.09-2.63-0.37"/><path fill="#402a13" d="M137.33,204.17c-0.38,1.41-0.76,2.12,0.33,3.54c0.88,1.15,1.97,1.89,3.33,2.3c2.35,0.72,5.19-0.15,6.71-2.14c0.62-0.81,1.21-2.43,0.79-3.54c-0.37-0.97-1.96-1.47-3.17-1.79c-1.23-0.32-2.88-0.37-4.17-0.21c-1.68,0.21-1.88,1.21-3.13,1.87c-0.17,0.09-0.18,0.07-0.37,0.13"/><path fill="#402a13" d="M207.17,203.83c-4.42,2.89,7.97,11.78,10.17,4.12c1.76-6.12-10.3-6.54-10.83-3.29"/></g><g class="eyebrows eyebrows-22"><path fill="#0e0e0c" fill-opacity="0.5" d="M123.3,197.5c0,0,17.1-12.1,40.4-5.6c0.3,0.1,0.6,0.2,0.9,0.2c23.8,7.1-21.5-11.2-28.5-10.9C136,181.2,123.3,192.3,123.3,197.5z"/><path fill="#0e0e0c" fill-opacity="0.5" d="M197.7,192.1c0,0,25-4.4,37.3,3.6c0,0-2-9-11.7-14.5C223.3,181.2,207.9,182.8,197.7,192.1z"/></g><g class="chin chin-8"><path fill="none" stroke="#b78a75" stroke-miterlimit="10" d="M147.66,312.5c2.25,2.69,5,4.72,7.44,7.05 c1.68,1.6,3.26,3.36,5.1,4.71c1.87,1.37,4.35,2.79,6.47,3.57c3.26,1.2,5.64,2.43,9.1,3.18c3.51,0.75,7.66,0.24,11.23,0.24 c4.15-0.01,6.93,0.12,10.8-2c3.13-1.71,6.24-3.52,9.03-5.75c5.68-4.53,10.22-10.58,15.24-16.25"/></g><g class="hair hair-7"><path fill="#0e0e0c" fill-opacity="0.1" d="M107.61,202v-1c-0.08-2.77-1.44-3.51-0.2-6.32c1.13-2.56,1.67-4.51,1.7-7.43c0.06-5.64-2.41-10.25-0.76-15.81c0.74-2.48,2.22-4.86,2.51-7.44c0.32-2.84,0.7-4.41,1.55-6.99c1.81-5.5,3.5-12.78,9.6-15.03c8.93-3.29,18.36-5.73,27.6-8.67c3.67-1.17,6.17-3.42,10.12-3.56c2.21-0.07,4.22,0.17,6.33-0.56c2.14-0.74,3.85-1.72,6.52-2.01c7.79-0.82,16.24,1.82,23.79,3.31c7.67,1.51,16.05,1.58,23.05,5.44c2.77,1.53,4.78,2.7,7.9,3.31c2.3,0.45,5.12,0.93,7.28,1.76c4.95,1.88,5.79,6.85,5.3,11.69c-0.28,2.79-0.78,5.38,0.75,7.87c1.32,2.15,3.13,3.66,4.44,5.76c1.65,2.67,2.47,4.78,2.51,7.95c0.03,2.55-0.95,5.03-0.46,7.54c0.18,0.91,0.85,1.65,0.97,2.69c0.09,0.84-0.38,2.23-0.28,3.26c0.18,1.86,0.29,4.03,0.49,6.02c0.43,4.22,0.98,8.18,0.81,12.44c1.33-1.15,4.15-1.72,5.03-3.47c0.46-0.91,0.03-2.08,0.18-3.07c0.23-1.52,0.52-1.64,1.32-2.89c0.22-0.35,0.49-0.7,0.78-1.05c0.07-0.63,0.15-1.28,0.22-1.92c0.05-0.44,0.1-0.9,0.16-1.4c0.04-0.32,0.07-0.63,0.1-0.91c0.06-0.55,0.11-0.99,0.14-1.26c0.02-0.15,0.03-0.25,0.03-0.29c0-0.01,0-0.01,0-0.02c2.38-21.04,0-32.96,0-32.96c-16.83-65.56-65.84-69.37-76.8-69.39c-0.71,0.02-1.44,0.04-2.2,0.06c-54,1.42-71.5,44.58-71.5,44.58c-9,12.5-4,61.55-4,61.55C102.06,193.46,104.53,200.13,107.61,202z"/></g><g class="nose nose-21"><path fill="#b28570" d="M186.01,198.89c-0.17,1.53-0.26,3.95-0.49,5.46c-0.58,3.86,0.9,6.29,0.88,10.24 c-0.02,6.65,6.48,12.91,4.38,19.46c-5.2-0.71-6.56-12.33-6.95-16.23c-0.33-3.31-1.14-7.11-1.01-10.49 c0.11-2.91,1.43-6.24,2.54-9.75C185.35,197.6,186.24,196.78,186.01,198.89z"/><path fill="#8a5d48" d="M162.63,247.25c1.69-1.11,2.96-2.59,5.26-2c0.68,0.18,3.84,1.33,3.47,2.47c-0.55,1.74-9.18,1.2-8.98-0.47"/><path fill="#8a5d48" d="M185,246.13c1.59-0.98,3.93-1.6,5.62-0.72c0.94,0.49,4.06,1.96,2.5,3.07c-1.33,0.95-3.51-0.57-4.65-0.94c-0.77-0.25-1.65-0.11-2.38-0.38c-0.73-0.27-1.56-1.18-0.47-1.66"/><path fill="none" stroke="#ad806b" stroke-miterlimit="10" d="M161.38,230.88c-3.2,3.47-6.95,7.96-5.75,13.12c0.39,1.67,1.64,3.93,3.34,4.66c1.49,0.65,3.62,0.29,5.26,0.61c1.4,0.27,2.54,0.6,4.04,0.72c1.48,0.12,3.37-0.2,4.85,0.13c0.94,0.21,1.67,1.01,2.56,1.41c1.44,0.64,4.01,1.29,5.58,1.22c1.49-0.07,2.46-0.78,3.69-1.47c2.93-1.64,6.72-0.89,9.95-0.78c2.39,0.08,5.64-0.44,7.22-2.26c2.62-2.99-0.16-7.34-1.59-10.34c-1.1-2.3-2.29-2.99-3.88-5.1c-2.03-2.68-4.55-8.49-5.03-11.56"/></g><g class="mouth mouth-2"><path fill="#a7696a" fill-opacity="0.9" d="M152.25,282.75c1.13,0.05,1.95,1.34,2.84,1.91c1.85,1.18,3.52,1.46,5.66,1.83c4.03,0.69,8.51,1.23,12.67,1.01c1.64-0.09,2.79-0.94,4.27-1.35c1.66-0.46,3.65-0.29,5.38-0.13c4.2,0.41,9.05,1.13,13.17-0.03c2.62-0.74,14.75-4.21,11.33-8.12c-1.14-1.3-3.73-2.23-5.37-2.85c-2.25-0.84-4.46-1.96-6.77-2.68c-4.31-1.34-9.55,0.3-13.96,0.69c-3.31,0.29-6.46-0.89-9.76-0.79c-3.57,0.11-7.14,1.69-10.39,2.9c-2.3,0.86-4.23,2.72-5.95,4.34c-1.56,1.47-2.27,1.76-2.3,3.75"/><path fill="#b28570" d="M153.38,277.63c2-2.12,4.63-3,6.77-4.8c1.1-0.93,1.46-1.76,2.36-2.83c1.36-1.61,3.52-3.83,5.37-4.86c1.02-0.57,2.4-0.67,3.58-1.13c1.74-0.68,2.06-0.07,3.81,0.72c1.35,0.6,3.45,1.53,4.99,1.13c1.96-0.51,3.64-1.58,5.45-2.35c1.83-0.78,2.57,0.43,4.25,1.07c1.93,0.73,3.52,1.68,5.33,2.59c1.76,0.89,3,1.34,4.35,2.74c0.96,1,1.96,1.79,3.01,2.69c1.01,0.87,1.96,1.93,2.99,2.75c0.76,0.61,1.68,0.98,2.35,1.65c0.94,0.94,1.15,1.48,0.06,2.16c-0.82,0.52-2.46,1.01-3.47,0.97c-5.66-0.23-9.88-5.59-15.44-5.87c-2.56-0.13-4.87,1.64-7.36,2.12c-1.42,0.27-2.69,0.59-4.16,0.14c-1.24-0.38-2.48-1.1-3.75-1.26c-1.58-0.19-2.89,0.45-4.34,1c-2.07,0.79-4.16,1.63-6.07,2.75c-1.89,1.1-3.47,2.66-5.43,3.63c-1.67,0.82-4.19,2.37-5.35,0.22c-0.51-0.95-0.87-2.09-0.31-3.07c0.5-0.87,1.46-1.86,2.06-2.65c0.87-1.16,2.31-2.31,3.72-2.75"/></g></svg>