<svg id="s56e847030ca01" class="face" xmlns="http://www.w3.org/2000/svg" xmlns:xlink="http://www.w3.org/1999/xlink" x="0px" y="0px" width="357px" height="358px" viewBox="0 0 357 358"><path fill="#d0a07c" d="M268.5,189.04c-1.41-1.92-2.86-2.74-4.22-2.91c-3.96-0.47-7.28,4.62-7.28,4.62c2.38-21.04,0-32.96,0-32.96c-16.83-65.56-65.84-69.37-76.8-69.39c-0.71,0.02-1.44,0.04-2.2,0.06c-54,1.42-71.5,44.58-71.5,44.58c-9,12.5-4,61.55-4,61.55c-21-12.95-1.5,45.45-1.5,45.45c5,13.5,8,1,8,1c2.88,12.67,6.63,23.41,10.9,32.53c0.85,44.99,1.74,68.73,1.44,83.43c23.33,0,116.79,0,123.83,0l1.52-85.32c6.58-17.33,7.31-32.14,7.31-32.14c2.5,3,6.5,1.5,6.5,1.5C272.75,234.79,268.5,189.04,268.5,189.04z M255.96,199.92C255.93,200.18,255.94,200.15,255.96,199.92L255.96,199.92z M256.22,197.67c0.03-0.3,0.07-0.64,0.11-1.01C256.29,197.01,256.25,197.35,256.22,197.67z M256.82,192.32c0.06-0.55,0.11-0.99,0.14-1.26C256.91,191.5,256.87,191.92,256.82,192.32z M265.33,190.26c-0.04-0.16-0.09-0.37-0.16-0.62c-0.13-0.5-0.31-1.2-0.54-2.1c0.22,0.86,0.4,1.58,0.54,2.1C265.24,189.9,265.29,190.1,265.33,190.26C265.47,190.79,265.48,190.83,265.33,190.26z"/><path fill="#cb9b77" d="M125.25,227.25c4.5-6.5,6.97-8.84,12.65-10c4.87-0.99,13.28-2.45,17.35-5.75c9.63-7.79,13.17-20.35,5.59-28.43c-4.32-4.6-7.03-7.3-13.05-8.81c-4.83-1.22-11.04-2.16-15.05-6.1c-7.84-7.69-11.29-20.73-10.82-31.2c0.41-8.95,9.17-18.79,15.15-24.83c7.04-7.12,15.71-14.12,23.72-20.42c-40.38,8.84-54.04,42.51-54.04,42.51c-9,12.5-4,61.55-4,61.55c-21-12.95-1.5,45.45-1.5,45.45c5,13.5,8,1,8,1c2.89,12.7,6.64,23.46,10.93,32.59c-0.78,38.87,1.32,70.54,1.15,83.21c7.79,0.1,53.6-30.51,61.45-32.32C179.16,318.81,113.75,264.75,125.25,227.25z"/><g class="eyes eyes-24"><path fill="#FFFFFF" fill-opacity="0.7" d="M125.8,205.3c0,0,15.6-12.5,30.9-5.5c0,0,0.6,3.2-1.5,4C155.1,203.7,130.3,206.4,125.8,205.3z"/><path fill="#FFFFFF" fill-opacity="0.7" d="M202.4,203.1c0,0,1.4-7.7,18.8-5.5c0,0,11,1.9,15.6,6C236.8,203.7,209.8,206,202.4,203.1z"/><path fill="#1e2420" d="M224,204.4c0.4-0.9,0.6-1.9,0.6-2.9c0-1.2-0.3-2.3-0.9-3.3c-1.6-0.4-2.6-0.6-2.6-0.6c-4.5-0.6-7.9-0.5-10.5,0c-0.8,1.1-1.2,2.5-1.2,3.9c0,1,0.2,1.9,0.6,2.8C214.3,204.7,219.4,204.6,224,204.4z"/><path fill="#1e2420" d="M133.7,200.6c0,0.3-0.1,0.6-0.1,0.9c0,1.4,0.4,2.7,1.2,3.8c4.4-0.2,9.5-0.6,13.5-1c0.4-0.9,0.6-1.8,0.6-2.8c0-1.4-0.5-2.8-1.2-3.9C142.4,197.5,137.5,198.9,133.7,200.6z"/></g><g class="eyebrows eyebrows-16"><path fill="#28130e" fill-opacity="0.5" d="M111.667,188c1.637-0.605,3.805-4.561,5.316-6c1.722-1.64,3.694-3.014,5.611-4.408c5.197-3.778,6.396-2.618,11.814-0.593c9.397,3.511,21.63-0.761,27.558,9.742c-1.543,1.757-3.715,0.743-5.5,0.267c-3.623-0.966-7.301-1.015-10.959-1.684c-5.357-0.98-12.666-4.374-17.838-2.323c-3.426,1.358-7.111,3.531-10.345,5.324c-0.801,0.444-3.724,2.559-4.657,2.364c-2.031-0.424-1.701-2.97,0.001-3.689"/><path fill="#28130e" fill-opacity="0.5" d="M194.333,182.667c2.025-4.569,13.703-4.777,18-5.75c6.178-1.398,11.472-3.237,17.96-2.859c1.196,1.418,3.134,3.662,4.672,4.958c1.966,1.658,4.91,2.375,6.116,4.936c1.02,2.164-0.504,3.179-3.49,2.738c-3.947-0.583-6.972-2.313-11.259-2.357c-7.314-0.076-14.113,1.661-21.35,2.017c-4.366,0.215-9.765,1.6-12.355-2.674c0.547-0.538,1.554-1.355,2.373-1.676"/></g><g class="chin chin-7"><path display="inline" fill="none" stroke="#cb9b77" stroke-miterlimit="10" d="M146,311.67c2.08,1.12,4.01,5.38,5.67,7.35 c2.23,2.66,4.46,5.73,7.34,7.74c7,4.89,18.17,7.28,26.56,7.91c5.8,0.44,14.16-3.86,18.4-7.64c3.1-2.77,6.04-5.84,9.02-8.71 c2.25-2.17,5.93-4.62,6.35-7.98"/></g><g class="hair hair-1003"><radialGradient id="hair_1_56e847030d99d" cx="178.6289" cy="185.25" r="86.6347" fx="172.762" fy="185.2177" gradientTransform="matrix(1 -4.913946e-003 3.512081e-003 0.7147 -0.6484 53.728)" gradientUnits="userSpaceOnUse"><stop offset="0" style="stop-color:#d0a07c;stop-opacity:0"/><stop offset="0.2755" style="stop-color:#28130e;stop-opacity:0.2755"/><stop offset="0.5365" style="stop-color:#28130e;stop-opacity:0.5365"/><stop offset="0.7512" style="stop-color:#28130e;stop-opacity:0.7512"/><stop offset="0.9118" style="stop-color:#28130e;stop-opacity:0.9118"/><stop offset="1" style="stop-color:#28130e"/></radialGradient><path fill="url(#hair_1_56e847030d99d)" d="M259.93,148.08c-1.48-4.6-3.76-8.81-4.77-13.56c-0.1-0.48-0.21-0.94-0.32-1.41c-1.13-1.78-2.09-3.65-2.8-5.62c-5.3-6.7-10.84-13.15-16.88-19.16c-1.35-0.74-2.55-1.66-3.72-2.63c-1.57-0.6-3.12-1.25-4.46-2.14c-2.67-1.76-4.84-4.45-7.7-5.86c-6.31-3.11-13.51-5.09-20.15-7.59c-4.9-1.1-9.81-1.84-14.83-2.16c-2.18,0.26-4.35,0.52-6.54,0.54c-3.08,0.03-6.15-0.06-9.2-0.06c-4.01,0.58-7.95,1.44-12.02,1.98c-1.6,0.21-3.24,0.34-4.86,0.58c-4.32,1.65-8.42,3.87-12.81,5.24c-3.64,1.83-7.3,3.64-10.96,5.44c-0.18,0.2-0.38,0.4-0.62,0.6c-5.12,4.17-9.27,7.92-13.28,13.24c-2.04,2.71-4.19,5.35-6.23,8.07c-1.7,3.33-3.18,6.72-3.9,10.3c-0.72,3.6-1.21,7.84-2.71,11.45c-0.03,0.16-0.05,0.32-0.09,0.48c-0.29,1.16-0.7,2.27-1.17,3.37c0.05,4.68-0.72,9.23-1.36,13.89c0.31,3.4,0.25,6.77-0.15,10.18c1.24,5.03,2.54,10.02,2.51,15.33c-0.02,4.21,1.62,8.18,3.61,12.04c0.29-2.32,0.72-4.58,1.38-6.69c1.61-5.15,3.16-11.5,6.33-15.89c1.47-2.04,3.76-3.89,4.39-6.31c0.73-2.83,0.47-6.69,0.86-9.54c0.8-5.9,0.51-10.99,2.46-16.66c0.88-2.56,0.5-4.84,1.91-7.25c1.38-2.36,3.65-4.68,5.57-6.62c5.28-5.33,12.18-3.4,19.2-4.11c5.16-0.52,11.46-0.02,16.89-0.58c5.89-0.6,10.52-0.56,16.5-0.25c6.24,0.32,11.91-1.08,18.09-0.75c3.08,0.16,6.43-0.64,9.31-0.02c2.94,0.64,11.6,0.56,14.35,1.52c2.19,0.77,3.78,1.59,5.03,2.65c5.25,2.67,10.53,7.38,12.41,12.91c2.59,7.65,0.07,15.63,3.91,23.07c3.68,7.13,9.51,13.02,10.24,21.36c0.28,3.19,0,6.3-0.58,9.36c0.45,0.11,0.89,0.27,1.29,0.48c0.53-1.95,1.08-3.47,1.6-4c0.33-0.33,0.64-0.66,0.94-0.99c0.58-5.43,3.07-10.51,3.24-16.02c0.2-6.65,0.24-13.3,0.43-19.94c0.08-2.79-0.05-5.55-0.34-8.28C259.93,148.09,259.93,148.08,259.93,148.08z"/></g><g class="nose nose-7"><path fill="#c69672" d="M186.01,198.89c-0.17,1.53-0.26,3.95-0.49,5.46c-0.58,3.86,0.9,6.29,0.88,10.24 c-0.02,6.65,6.48,12.91,4.38,19.46c-5.2-0.71-6.56-12.33-6.95-16.23c-0.33-3.31-1.14-7.11-1.01-10.49 c0.11-2.91,1.43-6.24,2.54-9.75C185.35,197.6,186.24,196.78,186.01,198.89z"/><path fill="none" stroke="#c1916d" stroke-miterlimit="10" d="M166.22,228.31c-3.29,0.65-5,4.65-5.51,7.49c-1.05,5.78,2.08,6.19,7.01,6.01"/><path fill="none" stroke="#c1916d" stroke-miterlimit="10" d="M196.72,231.31c0.42,2.48,3.38,6.42,2.54,8.39c-1.63,3.79-6.21,2.21-8.04,0.11"/><path fill="#9e6e4a" d="M167.22,241.31c1.49-1.02,7.76-1.08,6.96,1.96c-2.75,0.43-3.95-2.48-6.46-1.96"/><path fill="#9e6e4a" d="M187.97,241.56c-1.71-0.03-7.84-1.2-5.96,2.46c1.82,0.42,5.39-1.19,6.45-2.67c-0.33-0.06-0.65-0.03-0.99-0.04"/></g><g class="mouth mouth-21"><path fill="#EEEDEC" d="M156.98,274.06c-0.12,4,4.78,4.29,7.71,5.09c0.77,0.21,1.42,0.64,2.18,0.88c2.15,0.69,4.55,0.63,6.76,0.99c1.7,0.28,3.42,0.53,5.13,0.81c1.32,0.22,2.77,0.67,4.11,0.55c1.43-0.12,2.74-0.87,4.18-1.08c2.03-0.29,4.17-0.45,6.03-1.38c1.7-0.84,3.38-1.3,5.16-1.91c1.77-0.61,3.68-0.88,5.26-1.98c0.66-0.46,1.17-0.78,1.28-1.65c0.2-1.54-1.12-3.36-2.48-3.96c-1.43-0.63-3.31-0.58-4.84-0.79c-1.25-0.18-2.46-0.53-3.7-0.7c-1.11-0.15-2.25-0.03-3.37-0.16c-2.4-0.27-4.77-0.66-7.18-0.67c-2.63-0.01-5.04-0.13-7.62-0.62c-1.92-0.36-3.69-0.52-5.61-0.2c-1.04,0.17-1.99,0.38-2.98,0.78c-1.26,0.51-2.69,0.77-3.9,1.42c-1.35,0.72-3.09,1.41-4.25,2.34c-0.54,0.44-1.01,1.11-1.4,1.67c-0.53,0.77-0.28,1.15-0.46,1.83"/><path fill="#5F3836" d="M157.61,276.99c-0.02-0.7,0.88-1.23,1.25-1.74c0.38-0.54,0.56-1.09,1.04-1.53c0.76-0.69,1.29-0.57,2.24-0.69c0.51-0.06,0.36-0.07,0.85-0.29c0.44-0.19,0.74-0.28,1.2-0.36c0.99-0.19,2.08-0.27,3.1-0.22c0.93,0.04,1.62-0.12,2.53-0.24c1.24-0.16,2.12,0.43,3.26,0.48c0.76,0.03,1.45-0.2,2.2-0.26c0.98-0.07,2.1-0.26,3.09-0.06c1.18,0.24,2.11,0,3.38,0c0.79,0,1.51,0.17,2.22,0.23c0.76,0.06,1.9-0.22,2.65-0.39c1.1-0.25,1.88-0.07,3,0.23c1.83,0.48,4.58,0.44,6.41,0.35c0.62-0.03,1.2-0.37,1.85-0.26c0.35,0.06,0.58,0.29,0.88,0.38c0.8,0.24,1.7,0.04,2.44,0.51c0.61,0.39,1.27,0.94,1.84,1.4c1.1,0.9,1.57,1.03,2.9,0.15c0.59-0.39,0.94-0.8,1.26-1.41c0.37-0.71,0.59-1.1-0.23-1.51c-1.16-0.57-2.74-0.67-4.01-0.97c-2.69-0.64-5.53-0.16-8.21-0.88c-2.06-0.55-4.29-0.68-6.42-0.77c-1.47-0.07-2.95-0.08-4.43-0.08c-1.53,0-2.92-0.25-4.41-0.4c-2.26-0.22-4.44-0.15-6.69-0.16c-1.82-0.01-3.48,0.61-5.24,0.87c-1.84,0.27-3.67-0.41-5.51-0.14c-1.01,0.15-2.02,0.64-2.95,1.02c-1.84,0.75-3.71,1.51-5.55,2.2c-0.67,0.25-1.31,0.49-0.97,1.37c0.23,0.6,1.06,1.17,1.51,1.6c1.2,1.13,1.96,1.21,3.49,1.1c0.13,0.14,0.05,0.18,0.01,0.31"/><path fill="#a7696a" fill-opacity="0.9" d="M151.75,272.79c0.88,1.26,1.68,2.46,2.26,3.83c0.81,1.94,1.92,2.78,3.3,4.25c2.35,2.5,4.45,5.88,7.65,7.29c1.56,0.69,3.28,1.02,4.83,1.87c1.6,0.87,2.49,1.16,4.44,1.15c4.02-0.01,8.11-0.15,12.1,0.2c6.02,0.53,10.79-3.85,14.93-7.83c3.05-2.94,7.31-7.56,7.39-12.01c-2.96,1.68-5.08,3.03-8.38,3.92c-1.36,0.36-2.69,0.83-4.09,1.15c-1.45,0.33-3.21,0.33-4.67,0.9c-2.85,1.11-6.54,3.07-9.64,3.06c-3.28-0.01-6.78-1.08-9.83-2.09c-3.65-1.21-7.01-1.9-10.79-2.51c-2.52-0.41-7.31-1-9.19-2.85"/><path fill="#c69672" d="M152.7,273.66c7.69-1.9,20.94-3.27,27.11-3.25c7.63,0.02,10.08,0.39,17.76,1.11c1.71,0.16,7.57,1.15,9.2,0.95c4.54-0.55-1.14-2.53-2.7-3.45c-2.72-1.61-5.66-3.17-8.54-4.36c-3.09-1.27-7.63-2.32-9.2-2.33c-1.73-0.01-8.04-0.3-9.68-0.16c-3.12,0.27-3.18,0.24-6.25,0.24c-2.98,0-17.76,6.6-18.31,9.27C151.89,272.54,151.59,273.83,152.7,273.66"/></g></svg>