<svg id="s57da0c2a45ad0" class="face" xmlns="http://www.w3.org/2000/svg" xmlns:xlink="http://www.w3.org/1999/xlink" x="0px" y="0px" width="357px" height="358px" viewBox="0 0 357 358"><path fill="#bf7f5c" d="M268.5,189.04c-1.41-1.92-2.86-2.74-4.22-2.91c-3.96-0.47-7.28,4.62-7.28,4.62c2.38-21.04,0-32.96,0-32.96c-16.83-65.56-65.84-69.37-76.8-69.39c-0.71,0.02-1.44,0.04-2.2,0.06c-54,1.42-71.5,44.58-71.5,44.58c-9,12.5-4,61.55-4,61.55c-21-12.95-1.5,45.45-1.5,45.45c5,13.5,8,1,8,1c2.88,12.67,6.63,23.41,10.9,32.53c0.85,44.99,1.74,68.73,1.44,83.43c23.33,0,116.79,0,123.83,0l1.52-85.32c6.58-17.33,7.31-32.14,7.31-32.14c2.5,3,6.5,1.5,6.5,1.5C272.75,234.79,268.5,189.04,268.5,189.04z M255.96,199.92C255.93,200.18,255.94,200.15,255.96,199.92L255.96,199.92z M256.22,197.67c0.03-0.3,0.07-0.64,0.11-1.01C256.29,197.01,256.25,197.35,256.22,197.67z M256.82,192.32c0.06-0.55,0.11-0.99,0.14-1.26C256.91,191.5,256.87,191.92,256.82,192.32z M265.33,190.26c-0.04-0.16-0.09-0.37-0.16-0.62c-0.13-0.5-0.31-1.2-0.54-2.1c0.22,0.86,0.4,1.58,0.54,2.1C265.24,189.9,265.29,190.1,265.33,190.26C265.47,190.79,265.48,190.83,265.33,190.26z"/><path fill="#ba7a57" d="M125.25,227.25c4.5-6.5,6.97-8.84,12.65-10c4.87-0.99,13.28-2.45,17.35-5.75c9.63-7.79,13.17-20.35,5.59-28.43c-4.32-4.6-7.03-7.3-13.05-8.81c-4.83-1.22-11.04-2.16-15.05-6.1c-7.84-7.69-11.29-20.73-10.82-31.2c0.41-8.95,9.17-18.79,15.15-24.83c7.04-7.12,15.71-14.12,23.72-20.42c-40.38,8.84-54.04,42.51-54.04,42.51c-9,12.5-4,61.55-4,61.55c-21-12.95-1.5,45.45-1.5,45.45c5,13.5,8,1,8,1c2.89,12.7,6.64,23.46,10.93,32.59c-0.78,38.87,1.32,70.54,1.15,83.21c7.79,0.1,53.6-30.51,61.45-32.32C179.16,318.81,113.75,264.75,125.25,227.25z"/><g class="eyes eyes-1"><path fill="#ffffff" fill-opacity="0.7" d="M136.83,206c1.16,0.13,2.07,1.14,3.17,1.5c1.18,0.39,2.58,0.58,3.83,0.83c2.38,0.47,4.47,0.84,7,0.84c2.32,0,4.64,0.43,7,0.17c1.97-0.22,3.83-1.21,5.81-1.53c-0.55-1.94-4.06-3.4-5.81-3.97c-2.45-0.8-4.72-1.05-7.33-1.18c-4.9-0.24-9.49,1.3-13.51,3.34"/><path fill="#ffffff" fill-opacity="0.7" d="M199.5,206.17c2.39,0.43,4.81,0.56,7.2,0.67c2.58,0.11,4.37,1.27,6.8,1.5c5.21,0.5,10.11-2.09,14.3-4.19c-0.01-0.04-0.01-0.4,0-0.45c-2.52-0.3-4.94-1.61-7.47-2.23c-2.53-0.62-5.56-0.34-8.18-0.46c-2.65-0.13-4.68,1.01-7,2c-2.06,0.88-4.03,1.76-5.67,3.33"/><path fill="#504040" d="M143.33,203c0,1.77-0.03,3.03,0.69,4.47c2.04,1.17,3.77,1.82,6.13,1.35c2.13-0.42,4.49-1.14,5.01-3.49c0.65-2.95-2.47-3.17-4.67-3.17c-1.71,0-6.04-0.74-6.83,0.83"/><path fill="#504040" d="M209.33,200.83c-2.13,1.3-1.37,4.16,0.17,5.67c1.49,1.47,5.41,1.55,7.46,0.79c1.93-0.71,4.85-3.47,3-5.92c-0.74-0.98-2.85-0.77-3.97-0.87c-1.36-0.12-2.57-0.68-3.99-0.5c-1.02,0.13-1.88,0.57-2.83,1"/></g><g class="eyebrows eyebrows-20"><path fill="#281312" fill-opacity="0.4" d="M120,193c2.964-3.944,4.346-8.004,7.818-11.7c4.633-4.93,12.946-4.678,19.194-5.3c3.71-0.369,7.282-0.226,10.949,0.682c2.651,0.656,9.891,1.969,10.744,4.818c1.394,4.653-8.978,4.32-11.4,4.25c-6.998-0.203-13.255-2.153-20.092,0.312c-3.685,1.328-6.448,1.632-9.695,3.638c-2.375,1.468-4.913,1.614-7.269,3.3"/><path fill="#281312" fill-opacity="0.4" d="M243.75,188.25c-1.425-0.445-3.628-3.865-5.098-4.994c-2.428-1.866-4.7-3.276-7.631-4.2c-5.42-1.709-10.988-3.056-16.717-3.056c-5.33,0-14.488-0.107-18.054,4.506c-4.131,5.345,4.082,5.994,7.75,5.994c3.552,0,7.34-1.307,10.749-1c3.77,0.34,6.914-0.049,10.5-0.25c3.549-0.199,8.461,0.801,11.75,1.987c2.738,0.987,4.834,3.308,7.968,3.219c-0.111-1.284-1.442-2.003-2.468-2.707"/></g><g class="hair hair-1007"><path fill="#1E1E1E" d="M105.1,198.5c2.5-3,1.6-12.1,1.2-16.1c-0.6-7.1-1.6-13.9,2.5-20.1c2.9-4.3,7.1-10,8.1-15.2c1.3-7,0.4-13.3,4.2-19.6c2.9-4.9,9.2-10.1,14.4-12.2c5.5-2.3,11.9-0.9,17.7-2.2c5.2-1.3,9.9-2.4,15.4-2.5c8.5-0.1,17.4,0.8,25.9,1.8c8.2,1,18-0.6,24.4,5.3c2.3,2.1,4.6,3.7,7,5.6c2.6,1.9,5.9,4.5,7.4,7.2c1.7,3,0.9,6.5,1.2,9.9c0.3,3.1,1.6,4.9,3.3,7.5c2,3,2.6,6,3.8,9.4c2.3,6.5,6.6,10.7,6.2,18.2c-0.3,6-0.2,11.9,0.9,17.7c0.5,2.7,1.2,5.8,0.9,8.6c1-1.5,1.7-3.4,2.8-4.9c0.9-1.2,2.5-2.2,3.4-3.4c1.7-2.5,2.1-5.4,2.3-8.3c0.2-2.9-0.3-5.8,0-8.7c0.2-1.8,1.1-2.5,1.5-4.1c0.4-1.5-0.1-3.3,0-4.9c0.3-3.9,0.8-6.6-0.3-10.5c-1-3.4-1.6-7.6-2.6-11.2c-1.5-5.2-2.1-11.2-3.9-16.1c-1.4-3.8-4.1-8.1-6.2-11.7c-1.7-2.9-3.4-6.3-5.3-9c-2.3-3.2-5.9-5.5-8.6-8.5c-1.8-2-3.8-4.9-5.9-6.4c-2.6-1.9-6.1-2.6-9-3.9c-4.1-1.9-7.9-4-12.1-5.7c-3.1-1.2-6.8-3.6-9.9-4.4c-3.2-0.8-7.6,0-10.9,0c-4.3,0-8.3-0.2-12.7,0c-3.4,0.1-6.1,0.1-9.2,0.9c-3.6,1-6.2,1.9-9.5,3.4c-4.9,2.2-10.1,2.9-14.8,5.5c-3.7,2-7.5,3.1-11.1,5c-11,5.8-19.1,15.8-25.5,26.1c-3.9,6.4-2.5,12.7-5.8,19.8c-1.9,4.1-0.7,5.9-1.3,9.4c-0.6,3.3-3.4,4-1.9,8.3c2.4,6.6-1.9,16.8,1.6,22.7c1.4,2.3,3.2,4.1,4.6,6.6c1.4,2.5,2,5.3,3.4,7.9c0.7,1.3,0.6,2.4,1.9,3.2"/></g><g class="facial-hair facial-hair-1005"><path fill="#281312" fill-opacity="1" d="M255.9,219.7c-0.34,0.56-0.72,1.1-1.14,1.61c0.14,0.46,0.24,0.96,0.24,1.53c0,4.85-1.83,8.99-4.67,12.43c-2.46,8.23-7.38,16.94-14.36,21.22c-2.55,2.29-5.37,4.28-8.11,6.33c-0.08,0.06-0.16,0.09-0.23,0.14c-1.63,3.94-9.14,3.67-10.62,7.54c-1.21,3.16,2.56,9.4,1.74,12.72c-0.58,2.38-0.84,4.83-1.24,7.33c-0.65,4.07-10.15,7.04-17.25,7.2c-3.97,0.09-16.4-23.19-20.5-24c-2.85-0.56-6.5,22.28-9.5,22c-5.28-0.5-17.07-2.21-20.25-3c-2.46-0.62-6.27-15.26-5.75-20.5c0.52-5.25-11.42-6.66-14.31-10.69c-3.03-4.23-5.58-8.25-9.14-12.07c-2.94-3.15-5.49-6.53-8.25-9.8c-3.72-4.4-5.56-9.14-5.56-14.94c0-2.75-1-4.47-1.43-6.88c-0.03,0.19-0.05,0.39-0.07,0.57c-0.5,5.08,0.97,10,0.51,15.05c-0.06,0.69-0.11,1.34-0.15,1.98c0.15,0.52,0.21,1.11,0.15,1.78c-0.56,6.65,1.35,13.12,1.5,19.75c0,0.04,0,0.08,0,0.13c0.29,0.86,0.57,1.72,0.75,2.62c0.44,2.17,0.08,4.51,0.3,6.73c0.22,2.25,1.2,4.42,1.64,6.57c0.84,4.11,0.83,9.09,2.56,12.94c1.92,4.26,4.77,8.22,6.74,12.52c2.22,4.84,6.08,8.65,9.76,12.62c3.16,3.41,6.1,7,10.04,9.42c4.71,2.9,9.19,6.48,13.95,9.2c9.7,5.54,20.76,9.32,31.97,8.23c10.38-1.01,23.43-9.16,32.46-14.15c8.27-4.57,11.07-10.21,17.14-17.52c2.54-3.06,5.17-7.4,6.87-11.14c1.57-3.45,1.75-7.5,3.07-11.17c1.41-3.94,1.74-7.96,3.25-11.75c1.32-3.32,2.17-8.15,2.7-11.74c1.94-13.21,3.6-20.35,4.8-25.38C256.33,231.62,255.91,224.63,255.9,219.7z"/><path fill="#281312" fill-opacity="1" d="M135.68,289.67c2.47-2.88,4.12-6.84,6.33-10.11c2.36-3.48,5.53-5.61,8.27-8.33c5.07-5.01,11.42-8.97,17.68-9.69c3.71-0.42,6.67,2.11,10.11,3.06c3.09,0.86,6.28-0.46,9.24-1.3c2.72-0.77,5.01-0.86,7.82-0.44c3.27,0.49,8.18,1.54,10.87,3.98c5.11,4.62,7.3,7.12,12.61,11.35c2.09,1.67,4.46,5.54,6.66,6.1c4.73,1.23,0.63-4.03-0.73-6.47c-3.37-6.05-7.02-12.75-11.32-17.57c-3.87-4.34-10.01-10.58-14.87-11.02c-5.6-0.49-11.89-0.7-17.49,0.09c-5.36,0.76-11.48-0.19-16.84,1.25c-5.12,1.37-10.36,5.87-14.3,10.45c-4.67,5.41-9.92,7.63-12.49,15.93c-1,3.25-2.52,8.85-2.1,12.68c0.33,0.12,0.54,0.33,0.85,0.51"/></g><g class="nose nose-23"><path fill="#b57552" d="M186.01,198.89c-0.17,1.53-0.26,3.95-0.49,5.46c-0.58,3.86,0.9,6.29,0.88,10.24 c-0.02,6.65,6.48,12.91,4.38,19.46c-5.2-0.71-6.56-12.33-6.95-16.23c-0.33-3.31-1.14-7.11-1.01-10.49 c0.11-2.91,1.43-6.24,2.54-9.75C185.35,197.6,186.24,196.78,186.01,198.89z"/><path fill="#8d4d2a" d="M158.7,246.6c3.3-0.7,7.9-0.4,10.5,2c-2.2,0.6-3.3-0.2-5.4-0.8c-1.7-0.5-3.1-0.6-4.9-0.7c-0.1-0.2,0-0.3-0.1-0.4c0.1-0.1,0.3,0,0.5-0.1"/><path fill="#8d4d2a" d="M196,246.8c0.7-0.2,1.1-0.9,1.8-1.2c0.8-0.4,1.5-0.2,2.3-0.3c1.3-0.1,2.6-0.2,4-0.1c0.2,1.4-6.5,2.4-7.8,1.8"/><path fill="none" stroke="#b0704d" stroke-miterlimit="10" d="M154.7,232c-0.9,1-1.6,2.3-2.4,3.4c-0.8,1.1-2.1,2.4-2.6,3.6c-0.5,1.4,0.3,2.6,1,3.8c1.8,2.9,4.8,5.5,8.2,6.2c3.4,0.6,6.5,0.7,9.9,0.5c4.3-0.2,7.4,2.6,11.6,2.8c3.9,0.2,6.2-2.7,9.9-3c1.9-0.1,3.9,0.2,5.8,0c1.7-0.2,3.1-0.9,4.9-0.8c2.6,0.1,5.1,0.6,7.4-0.5c2.2-1.1,3.9-3.1,3.9-5.6c0-4.4-3.5-7-6.8-9.3c-1.3-0.9-2.3-1.7-3.5-2.7"/></g><g class="mouth mouth-26"><path fill="#F2E7DC" d="M151.5,267.5c1.875-2.375,3.625-2.438,6.375-2.75c1.875-0.188,4.063,0.063,5.938,0.25 c1.938,0.188,3.875,0.063,5.75,0.375c2,0.25,3.938,0.375,5.938,0.438c3.938,0.125,7.938,0.563,11.938,0 c1.75-0.25,3.438-0.25,5.25-0.375c1.5-0.063,3-0.5,4.563-0.438c1.813,0.063,4.063,0.438,5.75,1.063 c0.938,0.313,1.5,0.75,2.375,1.25c0.625,0.375,1.938,0.5,2.375,1c1.688,1.875-7.375,4.563-8,4.813 c-3.875,1.438-7.25,3.75-10.938,5.375c-2.5,1.063-5.438,1.688-8.125,1.875c-5.5,0.438-10.625-0.875-15.938-1.75 c-2.375-0.438-3.875-1.5-5.438-3.25c-0.75-0.813-1.563-1.813-2.375-2.438c-0.75-0.563-1.563-0.75-2.25-1.375 c-1.188-1-2.75-2.688-2.875-4.25"/><path fill="#a7696a" fill-opacity="0.9" d="M149,267.6c0.8,3.3,2.2,6.6,3.5,9.8c1.3,3.2,2.9,5.9,5.6,8.1c5.2,4.4,13.3,4.8,19.9,4.2 c3.4-0.3,6.9-0.8,10.3-1.5c4.7-1.1,8.2-4.7,11.7-7.9c2.4-2.3,5.2-4.4,7.2-7.1c0.8-1,1.2-2.2,1.7-3.4c0.4-1.1-0.4-0.9-0.2-2.1 c-1.4,0.2-1.3,0-2.7,0.4c-1.8,0.4-2.9,0.8-4.3,2c-1.5,1.2-3.1,1.8-4.7,2.8c-1.4,0.9-2.9,1.2-4.4,1.9c-1.4,0.8-2.5,1.9-4.2,1.9 c-1.5,0.1-2.9-0.4-4.4-0.4c-3.2-0.2-6.4,0.6-9.5,0.2c-2.8-0.4-6,0.1-8.5-1.1c-1.5-0.6-3-0.9-4.5-1.5c-1.6-0.7-4.3-2.9-5.5-3.9 c-2.1-1.7-4.4-3.5-7.2-2.4"/><path fill="#b57552" d="M152.6,264.3c6.8-1.1,12.9-3.1,19.9-2.7c1,0,1.9,0,2.9,0.3c1,0.3,2.4,1.8,2.9,1.8c2.2,0,4.6-1.5,6.8-2 c4.4-1.2,11.6-0.5,15.6,1.4c3.1,1.3,7.3,2.2,8.5,5.7c-5.1-0.3-7.7-2-12.8-2.1c-5.1-0.1-10.4-0.4-15,1c-3.6,0.9-3.9,0.9-7.3,0.1 c-2.4-0.5-5.1-0.6-7.3-0.9c-5.1-0.8-6.7,0.3-11.5-0.2c-1.5,0-5.4,1.5-6.6,0.8C150.3,267.1,151.2,264.5,152.6,264.3"/></g></svg>