<svg id="s55b1114504de5" class="face" xmlns="http://www.w3.org/2000/svg" xmlns:xlink="http://www.w3.org/1999/xlink" x="0px" y="0px" width="357px" height="358px" viewBox="0 0 357 358"><path fill="#d48a65" d="M268.5,189.04c-1.41-1.92-2.86-2.74-4.22-2.91c-3.96-0.47-7.28,4.62-7.28,4.62c2.38-21.04,0-32.96,0-32.96c-16.83-65.56-65.84-69.37-76.8-69.39c-0.71,0.02-1.44,0.04-2.2,0.06c-54,1.42-71.5,44.58-71.5,44.58c-9,12.5-4,61.55-4,61.55c-21-12.95-1.5,45.45-1.5,45.45c5,13.5,8,1,8,1c2.88,12.67,6.63,23.41,10.9,32.53c0.85,44.99,1.74,68.73,1.44,83.43c23.33,0,116.79,0,123.83,0l1.52-85.32c6.58-17.33,7.31-32.14,7.31-32.14c2.5,3,6.5,1.5,6.5,1.5C272.75,234.79,268.5,189.04,268.5,189.04z M255.96,199.92C255.93,200.18,255.94,200.15,255.96,199.92L255.96,199.92z M256.22,197.67c0.03-0.3,0.07-0.64,0.11-1.01C256.29,197.01,256.25,197.35,256.22,197.67z M256.82,192.32c0.06-0.55,0.11-0.99,0.14-1.26C256.91,191.5,256.87,191.92,256.82,192.32z M265.33,190.26c-0.04-0.16-0.09-0.37-0.16-0.62c-0.13-0.5-0.31-1.2-0.54-2.1c0.22,0.86,0.4,1.58,0.54,2.1C265.24,189.9,265.29,190.1,265.33,190.26C265.47,190.79,265.48,190.83,265.33,190.26z"/><path fill="#cf8560" d="M125.25,227.25c4.5-6.5,6.97-8.84,12.65-10c4.87-0.99,13.28-2.45,17.35-5.75c9.63-7.79,13.17-20.35,5.59-28.43c-4.32-4.6-7.03-7.3-13.05-8.81c-4.83-1.22-11.04-2.16-15.05-6.1c-7.84-7.69-11.29-20.73-10.82-31.2c0.41-8.95,9.17-18.79,15.15-24.83c7.04-7.12,15.71-14.12,23.72-20.42c-40.38,8.84-54.04,42.51-54.04,42.51c-9,12.5-4,61.55-4,61.55c-21-12.95-1.5,45.45-1.5,45.45c5,13.5,8,1,8,1c2.89,12.7,6.64,23.46,10.93,32.59c-0.78,38.87,1.32,70.54,1.15,83.21c7.79,0.1,53.6-30.51,61.45-32.32C179.16,318.81,113.75,264.75,125.25,227.25z"/><g class="eyes eyes-4"><path fill="#ffffff" fill-opacity="0.7" d="M124,205.83c2.64-0.81,5.24-3.03,7.68-4.38c3.14-1.73,6.83-2.29,10.41-2.63c2.53-0.23,3.64,0.09,6.08,0.45c1.82,0.27,6.05,1.44,7.12,3.18c-2.39,1.48-5.34,1.84-7.91,2.38c-2.49,0.52-4.62,1.37-7.12,2.06c-5.28,1.45-11.37,1.34-16.42-0.9"/><path fill="#ffffff" fill-opacity="0.7" d="M203.17,200.5c4.6-5.53,11.99-5.66,18.33-4c2.39,0.63,4.77,1.1,7.04,2.17c2.36,1.11,4.1,3.26,6.75,3.66c-1.69,0.26-3.22,1.19-4.95,1.34c-1.29,0.11-2.51-0.23-3.82-0.17c-2.98,0.14-5.7,0.71-8.63,0.16c-2.79-0.53-5.67-1.12-8.38-1.66C207.45,201.59,204.7,202.07,203.17,200.5"/><path fill="#304274" d="M134.51,201.43c-1.55,0.78,1.05,3.78,1.89,4.38c1.36,0.98,4.15,1.44,5.81,0.75c1.58-0.65,2.89-2.5,2.97-3.88c0.09-1.58-2-3.01-3.79-3.3c-2.82-0.46-5.05,0.62-6.87,2.14"/><path fill="#304274" d="M214.62,200.98c0.98,0.92,6.99,3.54,8.66,2.56c1.51-0.89,3.08-1.38,2.8-3.41c-0.25-1.84-1.93-3.13-3.59-3.37c-1.82-0.26-4.3-1.41-6.16-1.04C216.33,195.71,212.62,199.09,214.62,200.98z"/></g><g class="eyebrows eyebrows-10"><path fill="#28130e" fill-opacity="0.7" d="M122.75,179.13c0.82-1.08,1.81-2.19,2.88-3.01c1.17-0.91,2.58-1.21,3.75-2.08c1.09-0.81,1.81-1.62,3.13-2.13c1.62-0.62,3.07-1.27,4.59-1.93c2.31-1.01,5.9-2.16,8.41-1.1c1.34,0.56,1.12,1.56,2.87,1.63c1.57,0.07,2.37,0.29,3.76,0.91c2.64,1.16,5.21,1.67,7.86,2.75c1.77,0.72,2.8,2.33,3.86,3.87c1.12,1.62,2.2,3.15,3.38,4.63c0.9,1.14,3.32,5.08,0.28,4.21c-1.18-0.34-2.1-1.3-3.22-1.84c-1.48-0.72-2.64-1.44-4.04-2.29c-0.91-0.55-1.76-0.7-2.78-1.12c-1.07-0.44-2.11-0.99-3.24-1.1c-2.85-0.26-5.52-1.01-8.38-1.15c-3.15-0.16-6.94-1.66-9.98-0.52c-2.95,1.1-5.99,2.2-8.99,3.28c-0.73,0.26-3.36,1.08-4.1,0.59c-1.06-0.71,0.33-2.99,0.47-3.85"/><path fill="#28130e" fill-opacity="0.7" d="M186.75,185.5c2.17-3.57,4.13-6.74,7.63-9.12c2.01-1.36,4.42-2.09,6.76-2.89c1.39-0.48,3.23-1.83,4.62-1.99c1.6-0.19,3.08,0.57,4.75,0.25c1.66-0.32,3.31-0.79,5.05-1.03c1.36-0.19,2.74-0.56,4.11-0.22c1.57,0.38,2.98,1.24,4.58,1.66c2.46,0.66,3.29,1.17,5.14,2.97c1.33,1.29,2.93,2.14,4.22,3.5c1.19,1.25,2.54,2.5,2.53,4.37c-0.01,1.91-1.01,3.15-1.65,4.85c-1.45,0.3-3.1-1.62-4.2-2.39c-1.28-0.9-2.6-1.69-3.77-2.66c-1.28-1.06-3.29-2.13-4.92-2.53c-1.65-0.4-4.38-1.24-6.07-0.88c-3.61,0.77-7.39,0.93-11.09,1.61c-1.53,0.28-3.33,0.5-4.72,1.24c-0.84,0.45-1.42,0.94-2.34,1.25c-1.82,0.61-3.94,0.5-5.61,1.51c-1.15,0.69-1.74,1.56-3.14,1.75c-1.13,0.16-3-0.73-1.25-1.62"/></g><g class="hair hair-3016"><path fill="#28130e" d="M262,158.2c0-2-5.3-15.5-6.3-17s-9.7-25-14.5-30.5c-4.8-5.5-9.7-14.5-37.3-26s-39.2-3.5-41.1-2.5s-29.5,13.5-29.5,13.5l-16,16.2L107,124.7c0,0-10.6,15.6-10.3,26.7C97.1,166,101,191,101,191l2.4,4c0-1.8,0.3-3.6,0.9-5.3c-0.2-2-0.3-3.7,0-4.7c1-3,1-24.3,2-25.3s6.6-37,11.5-42c4.8-5,25.6-19,27.1-19.5c1.5-0.5,9.2,2,13.1,3c3.9,1,16.9,5.5,16.9,5.5c14.5,6.5,42.1-5.5,43.5-5c1.5,0.5,7.7,8.5,13.1,12s12.1,15,12.1,15c15.5,25.2,13.9,50.9,11.8,63.3c0.1,1,0.1,2,0.1,3c0.3,0.3,0.5,0.5,0.6,0.6c2-3.4,4.5-8.2,3.9-10C259,182.7,262,160.2,262,158.2z"/></g><g class="facial-hair facial-hair-16"><path fill="#28130e" fill-opacity="0.9" d="M108.5,231.2c0,0,13.7,58.7,69.2,80.5c0,0,6.8,1.5,11.1,0c0,0,57.6-12.3,66.1-81.3c0,0,2.2,81.8-66.1,93.2c0,0-8.6,0.4-13.5-0.6C154.3,318.5,110.7,284.2,108.5,231.2z"/></g><g class="nose nose-15"><path fill="#ca805b" d="M186.01,198.89c-0.17,1.53-0.26,3.95-0.49,5.46c-0.58,3.86,0.9,6.29,0.88,10.24 c-0.02,6.65,6.48,12.91,4.38,19.46c-5.2-0.71-6.56-12.33-6.95-16.23c-0.33-3.31-1.14-7.11-1.01-10.49 c0.11-2.91,1.43-6.24,2.54-9.75C185.35,197.6,186.24,196.78,186.01,198.89z"/><path fill="#a25833" d="M162.17,241.5c0.86-0.05,1.63-0.8,2.5-1c0.96-0.21,2.22-0.3,3.16-0.35c1.33-0.07,5.76-0.36,5.31,1.98c-2.57,1.64-8.25-0.13-11.25-0.14c0.44,0.08,0.45-0.19,0.78-0.33"/><path fill="#a25833" d="M195.83,242c-1.02,0-6.01-0.88-6.87,0.12c-1.02,1.17,2.31,1.33,3.06,1.43c1.56,0.2,3.13,0.04,4.65,0.41c1.35,0.33,2.43,0.58,3.96,0.53c0.4-3.37-5.52-3.03-7.31-2.32"/><path fill="none" stroke="#c57b56" stroke-miterlimit="10" d="M162.5,226.5c0.12,1.2-1.28,2.12-2.04,2.96c-0.77,0.85-1.35,1.73-1.79,2.87c-0.83,2.17-2.77,5.81-1.64,8.17c1.19,2.5,5.32,3.73,7.97,4c3.16,0.32,6.55-0.01,9.67-0.17c3.06-0.16,5.43,0.99,8.5,1c1.58,0,2.6-0.56,4-0.83c1.6-0.3,3.35-0.19,5-0.17c3.63,0.03,7.74,1.44,10.83-0.33c2.71-1.54,5.23-3.76,3.83-7.04c-0.87-2.04-2.67-4.92-4.67-6.13"/></g><g class="mouth mouth-23"><path fill="#E0DCDA" d="M196.66,277.52c2.04-1.92,4.63-2.73,7.37-3.56v-7.18h-47.51v6.65c0.48,0.08,0.95,0.25,1.38,0.54c0.97,0.67,2.01,1.25,2.98,1.92c0.7,0.48,1.37,1.02,2.04,1.54c-0.43-0.34-0.12-0.13,0.21,0.09H196.66z"/><path fill="#6A3433" d="M204.04,273.17c0.66-0.9,1.42-1.69,2.37-2.31c0.28-0.18,0.56-0.33,0.85-0.46c0,0,0,0,0-0.01c-4.08-0.64-8.16-1.54-12.14-2.51c-2.68-0.66-4.25,0.09-6.82,0.13c-2.15,0.04-4.16-0.66-6.29-0.81c-5.25-0.37-10.72-0.9-15.98-0.65c-2.52,0.12-4.9,0.36-7.35,0.89c-1.8,0.39-3.72,0.27-5.44,0.92c-0.04,0.02-0.08,0.03-0.13,0.04c0,0,0,0,0,0c-0.47,0.37-1.28,0.9-1.26,1.47c1.18,0.07,2.33,0.41,3.34,1.15c0.67,0.49,1.31,1.01,1.93,1.56c0.08,0.07,0.16,0.14,0.25,0.21c0.41-0.8,1.01-1.38,1.68-2.05c0.33-0.34,0.66-0.54,1.03-0.83c0.65-0.49,0.9-0.47,1.78-0.43c0.63,0.03,1.27,0.01,1.9,0.06c0.41,0.03,0.82,0.17,1.24,0.1c0.62-0.09,1.03-0.39,1.73-0.36c1.95,0.06,3.88,0.45,5.84,0.27c1.24-0.11,2.39-0.15,3.6,0.15c1.16,0.28,2.09-0.05,3.23-0.15c2.17-0.19,4.41-0.05,6.59-0.06c1.13,0,2.19,0.1,3.27,0.21c0.8,0.08,1.56,0.04,2.34-0.15c0.92-0.22,1.68-0.04,2.6,0.15c2.09,0.42,4.21,0.69,6.16,1.55c0.38,0.17,0.8,0.27,1.16,0.48c0.31,0.19,0.33,0.34,0.57,0.56c0.38,0.34,1.01,0.61,1.46,0.78C203.73,273.14,203.89,273.16,204.04,273.17z"/><path fill="#c07651" fill-opacity="1" d="M151.65,269.72c0.52,1.75,2.38,3.06,3.6,4.29c1.21,1.22,2.53,2.22,3.73,3.46c3.07,3.17,6.37,6.53,10.86,7.47c2.56,0.53,5.23,0.59,7.83,0.83c1.31,0.12,2.49,0.42,3.71,0.53c1.49,0.14,2.93-0.11,4.34-0.42c1.98-0.44,4.27-0.85,6.09-1.83c2.13-1.16,4.28-2.42,6.4-3.53c2.25-1.18,4.58-3.42,6.38-5.19c1.7-1.67,3.05-3.4,4.28-5.41c-1.81-0.27-3.38,1.54-4.63,2.53c-1.58,1.26-4.14,0.67-6,1.44c-1.78,0.74-3.41,1.43-5.2,2.08c-1.95,0.71-4.13,0.66-6.21,0.98c-4.39,0.68-8.65,0.12-12.97-0.27c-1.91-0.17-3.84-0.71-5.67-1.05c-1.16-0.22-2.22-0.65-3.41-0.76c-1.05-0.1-1.99-0.1-2.94-0.5c-1.06-0.44-2.38-0.7-3.33-1.25c-0.84-0.48-1.6-1.15-2.49-1.63c-1.43-0.77-2.95-1.44-4.36-1.98"/><path fill="#ca805b" d="M151.56,269.83c1.33-1.34,2.27-2.91,3.75-4.07c1.54-1.21,3.2-2.22,5.07-2.78c1.87-0.56,4.15-0.43,6.13-0.53c2.08-0.11,4.18-0.33,6.25-0.33c0.94,0,1.89,0.04,2.8,0.19c1.32,0.22,3.6,0.17,4.81,0.45c2.67,0.63,5.97-0.68,8.73-0.83c2.78-0.15,4.91,0.7,7.67,0.9c1.26,0.09,2.79,0.87,3.94,1.36c0.93,0.39,4.07,2.62,5.13,3.62c0.72,0.68,2.31,1.32,3.03,2.12c-2.28,0.95-5.88,0.08-8.14-0.24c-2.38-0.34-11.59-1.22-13.84-1.31c-2.35-0.09-4.67,0.3-6.96,0.29c-2.21-0.01-12.18-0.91-14.93-1.23c-2.4-0.28-3.59,0.33-5.99,0.24c-1.04-0.04-3.96,0.45-4.81,0.94c-0.69,0.39-1.54,0.81-2.18,1.32"/></g></svg>