<svg id="s539e7853cfd33" class="face" xmlns="http://www.w3.org/2000/svg" xmlns:xlink="http://www.w3.org/1999/xlink" x="0px" y="0px" width="357px" height="358px" viewBox="0 0 357 358"><path fill="#a45f3e" d="M268.5,189.04c-1.41-1.92-2.86-2.74-4.22-2.91c-3.96-0.47-7.28,4.62-7.28,4.62c2.38-21.04,0-32.96,0-32.96c-16.83-65.56-65.84-69.37-76.8-69.39c-0.71,0.02-1.44,0.04-2.2,0.06c-54,1.42-71.5,44.58-71.5,44.58c-9,12.5-4,61.55-4,61.55c-21-12.95-1.5,45.45-1.5,45.45c5,13.5,8,1,8,1c2.88,12.67,6.63,23.41,10.9,32.53c0.85,44.99,1.74,68.73,1.44,83.43c23.33,0,116.79,0,123.83,0l1.52-85.32c6.58-17.33,7.31-32.14,7.31-32.14c2.5,3,6.5,1.5,6.5,1.5C272.75,234.79,268.5,189.04,268.5,189.04z M255.96,199.92C255.93,200.18,255.94,200.15,255.96,199.92L255.96,199.92z M256.22,197.67c0.03-0.3,0.07-0.64,0.11-1.01C256.29,197.01,256.25,197.35,256.22,197.67z M256.82,192.32c0.06-0.55,0.11-0.99,0.14-1.26C256.91,191.5,256.87,191.92,256.82,192.32z M265.33,190.26c-0.04-0.16-0.09-0.37-0.16-0.62c-0.13-0.5-0.31-1.2-0.54-2.1c0.22,0.86,0.4,1.58,0.54,2.1C265.24,189.9,265.29,190.1,265.33,190.26C265.47,190.79,265.48,190.83,265.33,190.26z"/><path fill="#9f5a39" d="M125.25,227.25c4.5-6.5,6.97-8.84,12.65-10c4.87-0.99,13.28-2.45,17.35-5.75c9.63-7.79,13.17-20.35,5.59-28.43c-4.32-4.6-7.03-7.3-13.05-8.81c-4.83-1.22-11.04-2.16-15.05-6.1c-7.84-7.69-11.29-20.73-10.82-31.2c0.41-8.95,9.17-18.79,15.15-24.83c7.04-7.12,15.71-14.12,23.72-20.42c-40.38,8.84-54.04,42.51-54.04,42.51c-9,12.5-4,61.55-4,61.55c-21-12.95-1.5,45.45-1.5,45.45c5,13.5,8,1,8,1c2.89,12.7,6.64,23.46,10.93,32.59c-0.78,38.87,1.32,70.54,1.15,83.21c7.79,0.1,53.6-30.51,61.45-32.32C179.16,318.81,113.75,264.75,125.25,227.25z"/><g class="eyes eyes-22"><path fill="#ffffff" fill-opacity="0.7" d="M154.4,199.38c-0.35-0.22-1.24-0.49-2.31-0.74c1.16,1.56,1.17,4.28,0.66,6.12c-0.5,1.82-3.27,3.8-5.12,4.38c2.18,0.33,5.62-0.3,7.87-0.5c2.81-0.25,5.73-1.07,8.58-1.02C163.46,206.09,159.25,202.38,154.4,199.38z"/><path fill="#ffffff" fill-opacity="0.7" d="M138.63,204.16c-0.14-0.27-0.23-0.59-0.29-0.91c-0.57-1.07-0.48-2.23-0.01-3.3c0.01-0.11,0.01-0.22,0.02-0.33c-1.12,0.33-2.18,0.77-3.12,1.41c-1.11,0.75-3.23,1.5-3.73,2.73l0.13-0.13c1.19,0.51,2.19,1.5,3.15,2.24c1.52,1.17,4.27,1.85,6.1,2.11c0.77,0.11,1.47,0.22,2.15,0.34c-0.57-0.37-1.13-0.79-1.67-1.25C140.34,206.22,139.24,205.35,138.63,204.16z"/><path fill="#483224" d="M152.75,204.75c0.51-1.83,0.5-4.56-0.66-6.12c-2.05-0.49-4.78-0.94-5.84-0.89c-2.3,0.11-4.4,1.04-6.6,1.53c-0.38,0.09-0.76,0.18-1.13,0.29c-0.03,0.05-0.05,0.1-0.07,0.14l-0.01-0.12c-0.03,0.01-0.06,0.02-0.09,0.03c-0.01,0.11-0.01,0.22-0.02,0.33c-0.47,1.07-0.56,2.23,0.01,3.3c0.06,0.32,0.15,0.63,0.29,0.91c0.61,1.2,1.72,2.07,2.73,2.92c0.54,0.46,1.1,0.88,1.67,1.25c1.5,0.26,2.89,0.55,4.61,0.81C149.48,208.55,152.25,206.57,152.75,204.75z"/><path fill="#ffffff" fill-opacity="0.7" d="M226.5,204.53c-1.93-1.7-3.74-2.98-6.17-3.97c0.34,0.4,0.63,0.8,0.83,1.16c0.64,1.21,0.51,3.53,0.12,4.81c-0.53,1.75-1.52,3.81-3.4,4.57c-1.8,0.73-5.55,0.03-7.03-0.95c-1.53-1.01-3.02-2.34-3.84-3.96c-0.47-0.92-0.89-1.94-1-2.94c-0.14-1.33,0.44-2.36,0.59-3.57c-0.37,0.2-0.73,0.41-1.12,0.66c-1.2,0.75-2.76,1.11-3.97,1.91c-1.61,1.08-2.58,3.07-3.81,4.53c0.65,0.42,1.48,0.79,1.97,1.2c1.05,0.27,2.21,0.96,3.23,1.39c2.06,0.85,4.13,1.04,6.28,1.67c1.38,0.4,2.66,0.68,4.1,0.72c1.68,0.05,3.7-0.08,5.38-0.25c4.42-0.44,5.44-5.37,9.83-5.62C227.81,205.39,227.12,205.08,226.5,204.53z"/><path fill="#483224" d="M206,203.25c0.11,1.01,0.53,2.03,1,2.94c0.83,1.62,2.32,2.95,3.84,3.96c1.48,0.98,5.23,1.68,7.03,0.95c1.88-0.76,2.87-2.82,3.4-4.57c0.39-1.28,0.52-3.59-0.12-4.81c-0.19-0.36-0.48-0.76-0.83-1.16c-0.16-0.06-0.31-0.13-0.47-0.19c-2.21-0.84-4.77-0.91-7.11-1.25c-1.33-0.19-2.58-0.28-3.94-0.15c-0.62,0.06-1.13,0.21-1.61,0.41c-0.2,0.21-0.39,0.42-0.58,0.61v-0.34c-0.01,0.01-0.02,0.01-0.04,0.02C206.44,200.89,205.86,201.92,206,203.25z"/></g><g class="eyebrows eyebrows-6"><path fill="#0e0e0c" fill-opacity="0.6" d="M119.33,195c0.74-3.9,2.84-7.79,6-10.18c1.94-1.47,4.57-2.44,6.57-3.65c2.44-1.48,4.96-1.74,7.4-0.16c4.14,2.67,8.63-0.43,12.74,1.1c2.92,1.09,6.48,3.07,8.12,5.88c0.84,1.43,0.37,3.01-1.6,3.02c-2.48,0.02-4.47-1.71-6.74-2.02c-4.44-0.61-9.01-0.13-13.47-0.5c-1.99-0.16-4.54-0.52-6.54-0.17c-1.63,0.28-2.55,1.52-3.95,2.38c-3.14,1.93-7.13,2.6-9.56,5.4c0.3-0.57,0.74-0.88,1.36-0.94"/><path fill="#0e0e0c" fill-opacity="0.6" d="M200.83,188c0.67-2.73,4.53-5.59,6.93-6.83c3.15-1.63,7.54-1.51,11.04-1.34c3.83,0.19,6.89-1.51,10.83-0.29c2.02,0.62,3.93,0.96,6.21,0.96c2.66,0,2.83,0.67,4.53,2.33c1.18,1.15,2.95,2.21,3.77,3.67c0.84,1.48,1.6,3.19,2.36,4.67c0.5,0.98,0.38,1.78,0.61,2.79c-0.66-0.6-1.35-1.29-2.11-1.79c-1.99-1.32-3.83-0.68-6-1.17c-1.49-0.34-2.32-1.59-3.67-2.16c-3.62-1.54-7.45-2.03-11.34-2.17c-4.61-0.17-9.03-2.32-13.2,0.62c-1.62,1.14-2.29,1.18-4.13,1.54c-1.7,0.33-2.86,1.66-4.67,0.67c-1.08-0.59-1.82-1.98-0.83-3.17"/></g><g class="chin chin-2"><path display="inline" fill="none" stroke="#9f5a39" stroke-miterlimit="10" d="M141.33,306c2.85,2.31,3.41,3.39,6.14,5.75c3.06,2.64,8.02,6.85,11.86,8.01c7.8,2.35,13.18,6.99,21.78,7.24c7.86,0.23,16.24-4.27,22.96-7.98c7.54-4.17,14.8-10.01,20.59-16.02"/></g><g class="hair hair-19"><linearGradient id="hair_539e7853d0cd4" gradientUnits="userSpaceOnUse" x1="179.6572" y1="175.0048" x2="179.6572" y2="89.4009"><stop offset="0" style="stop-color:#0e0e0c;stop-opacity:0"/><stop offset="0" style="stop-color:#0e0e0c;stop-opacity:0"/><stop offset="0.05" style="stop-color:#0e0e0c;stop-opacity:0.05"/><stop offset="0.1297" style="stop-color:#0e0e0c;stop-opacity:0.1894"/><stop offset="0.1995" style="stop-color:#0e0e0c;stop-opacity:0.2912"/><stop offset="0.2731" style="stop-color:#0e0e0c;stop-opacity:0.3987"/><stop offset="0.3521" style="stop-color:#0e0e0c;stop-opacity:0.514"/><stop offset="0.4388" style="stop-color:#0e0e0c;stop-opacity:0.6405"/><stop offset="0.5391" style="stop-color:#0e0e0c;stop-opacity:0.787"/><stop offset="0.685" style="stop-color:#0e0e0c"/><stop offset="0.7087" style="stop-color:#0e0e0c"/><stop offset="0.8249" style="stop-color:#0e0e0c"/><stop offset="0.9259" style="stop-color:#0e0e0c"/><stop offset="1" style="stop-color:#0e0e0c"/></linearGradient><path fill="url(#hair_539e7853d0cd4)" fill-opacity="0.3" d="M180.3,89.4c-0.7,0-1.4,0-2.2,0.1c-54,1.4-71.5,44.6-71.5,44.6c-4.9,6.9-5.7,24.7-5.3,39.5l9.9,1.5c0,0,6.7-14.3,8.5-16.1c1.8-1.8,3.8-26.6,3.8-26.6s12-13.2,36.8-14.9c0,0,16.4-3.8,25.4-3.8c0,0,15.8,2.9,26.6,6.7c0,0,16.1,6.4,17,6.7c0.9,0.3,8.5,7,8.5,7l2,20.8l7,13.4l5,6.7l6.2-6.2c-0.3-6.5-1-10-1-10C240.3,93.2,191.3,89.4,180.3,89.4z"/></g><g class="nose nose-12"><path fill="#9a5534" d="M186.01,198.89c-0.17,1.53-0.26,3.95-0.49,5.46c-0.58,3.86,0.9,6.29,0.88,10.24 c-0.02,6.65,6.48,12.91,4.38,19.46c-5.2-0.71-6.56-12.33-6.95-16.23c-0.33-3.31-1.14-7.11-1.01-10.49 c0.11-2.91,1.43-6.24,2.54-9.75C185.35,197.6,186.24,196.78,186.01,198.89z"/><path fill="#722d0c" d="M163.83,238.66c1.56-0.34,3.59-1.78,5.34-1.34c1,0.26,3.42,2.71,3.64,3.81c-1.2,0.21-2.4-1.68-3.61-2.01c-1.45-0.39-3.3-0.07-4.85-0.16c-0.05-0.24,0.07-0.26,0.15-0.47"/><path fill="#722d0c" d="M200.33,241.83c-1.46-1.29-9.87-3.33-9.14,0.31c1.54,0.17,3.47-0.72,5.17-0.8c1-0.05,1.28-0.07,2.19,0.29c0.84,0.33,1.5,1.32,2.29,0.2"/><path fill="none" stroke="#95502f" stroke-miterlimit="10" d="M164.67,221.33c-3.17-0.23-7.46,3.32-8.63,6.17c-1.31,3.2,0.62,6.73,2.3,9.34c1.52,2.36,3.89,2.48,6.49,3.01c1.77,0.36,3.45,0.6,5.36,0.66c1.81,0.06,2.63,0.82,4.16,1.79c2.47,1.57,4.3,4.03,7.62,3.34c1.35-0.28,2.58-1.6,3.67-2.33c1.34-0.9,2.75-1.19,4.37-1.13c1.73,0.07,3.59,0.14,5.33,0.33c1.74,0.19,4.16,1.04,5.97,0.47c2.02-0.65,4.62-3.22,6.08-4.75c1.56-1.64,3.42-3.97,2.59-6.54c-0.36-1.11-1.9-2.74-2.62-3.67c-0.94-1.2-3.13-2.24-3.67-3.5"/></g><g class="mouth mouth-22"><path fill="#EDDDC1" d="M157.165,272.481c1.628,0.752,2.938,2.135,4.748,2.607c2.464,0.643,5.317,0.6,7.833,0.665c1.439,0.038,3.195,0.212,4.613,0.536c1.593,0.363,2.884,1.329,4.662,1.346c2.145,0.021,4.625-0.641,6.693-1.192c2.569-0.686,5.139-1.254,7.76-1.802c1.755-0.367,3.841-0.737,5.264-1.896c0.829-0.676,1.515-1.488,2.363-2.161c0.838-0.664,1.764-1.277,2.572-1.938c0.424-0.346,0.862-0.3,0.601-0.899c-0.309-0.705-2.846-1.422-3.47-1.662c-2.261-0.867-4.894-1.585-7.365-1.45c-2.089,0.115-4.337,0.532-6.454,0.095c-1.626-0.335-3.236-0.916-4.916-1.035c-1.367-0.097-2.769,0.155-4.14,0.241c-1.852,0.116-3.674,0.258-5.518,0.452c-3.11,0.326-6.313,0.597-9.413,1.12c-1.688,0.285-3.292,0.679-4.767,1.492c-0.746,0.411-1.438,0.937-2.291,1.228c-0.652,0.223-1.75,0.14-2.075,0.906c1.335,1.124,2.41,2.072,3.401,3.473"/><path fill="#29120F" d="M158.393,272.737c0.643-1.004,0.614-2.333,1.597-3.139c0.556-0.456,0.998-0.474,1.683-0.483c1.529-0.02,2.268,0.458,3.891,0.215c1.322-0.198,2.747-0.097,4.017-0.536c0.859-0.298,1.698-0.836,2.641-0.947c0.917-0.107,1.011,0.153,1.866,0.51c1.415,0.59,1.873-0.012,3.324-0.179c0.979-0.114,2.32,0.441,3.212,0.158c0.637-0.202,1.203-0.824,1.908-1.067c1.444-0.499,2.319,0.381,3.722-0.028c0.84-0.246,1.521-0.621,2.44-0.492c0.951,0.133,1.695,0.828,2.584,0.872c1.385,0.069,2.963-0.084,4.463,0.164c2.214,0.366,2.045,1.633,3.574,2.77c2.289,1.702,2.973-1.171,4.933-1.001c-0.213-1.41,0.309-1.667-1.225-2.282c-2.131-0.854-4.95-2.291-7.27-2.205c-2.097,0.078-4.055,0.798-6.136,0.877c-2.624,0.098-5.297,0.098-7.931,0.077c-2.938-0.023-5.888-0.12-8.815-0.181c-2.612-0.054-5.642-0.333-8.208,0.105c-2.342,0.399-5.497,0.691-7.625,1.78c-0.764,0.39-2.19,1.17-2.728,1.78c1.145,0.478,1.782,1.45,2.711,2.227c0.436,0.365,1.306,1.229,1.77,1.377c0.049-0.238-0.069-0.352-0.148-0.571"/><path fill="#a7696a" fill-opacity="0.9" d="M153.078,269.266c2.046,1.402,1.379,3.328,3.159,5.023c1.916,1.827,3.875,3.361,6.037,4.925c2.181,1.578,4.802,3.484,7.374,4.17c2.812,0.75,5.708,0.217,8.596,0.56c3.345,0.397,5.928-0.77,9.133-1.489c3.067-0.687,4.977-1.662,7.374-3.606c3.377-2.737,7.242-4.999,10.385-8.06c1.182-1.149,1.975-2.048,2.033-3.737c-0.844-0.135-1.812,0.193-2.477,0.631c-0.892,0.587-1.77,0.789-2.672,1.172c-2.579,1.096-5.149,2.125-7.938,2.855c-1.208,0.316-2.431,0.527-3.565,0.988c-1.189,0.484-2.193,0.973-3.494,1.257c-1.845,0.404-3.811,0.158-5.636,0.658c-1.67,0.458-2.931,1.281-4.71,1.287c-4.635,0.015-9.699-0.842-13.854-2.682c-1.938-0.859-4.195-1.848-5.993-2.97c-1.714-1.069-2.044-1.196-4.048-1.361"/><path fill="#9a5534" d="M152.427,268.962c0.971-0.226,1.872-1.575,2.788-2.079c1.712-0.941,3.563-1.5,5.431-2.091c3.773-1.191,7.492-1.932,11.453-2.125c2.79-0.137,5.647-0.617,8.449-0.516c1.736,0.063,3.405,0.646,5.158,0.709c1.364,0.05,2.768-0.184,4.132-0.097c2.972,0.189,5.74,0.825,8.551,1.559c1.369,0.357,2.773,0.656,4.163,0.946c1.121,0.234,2.346,0.057,3.376,0.581c3.146,1.604-0.842,2.25-2.474,2.369c-2.655,0.193-5.082-0.297-7.65-0.992c-4.949-1.337-10.081,0.018-15.021,0.117c-1.274,0.025-2.644,0.353-3.957,0.429c-1.314,0.077-2.608-0.1-3.924-0.079c-2.611,0.042-5.133,0.109-7.701,0.479c-1.028,0.148-1.976,0.48-3.038,0.547c-1.353,0.085-2.709-0.171-4.043-0.018c-0.768,0.088-5.663,1.589-5.335,0.187"/></g></svg>