<svg id="s539e7847b67a9" class="face" xmlns="http://www.w3.org/2000/svg" xmlns:xlink="http://www.w3.org/1999/xlink" x="0px" y="0px" width="357px" height="358px" viewBox="0 0 357 358"><path fill="#734a34" d="M268.5,189.04c-1.41-1.92-2.86-2.74-4.22-2.91c-3.96-0.47-7.28,4.62-7.28,4.62c2.38-21.04,0-32.96,0-32.96c-16.83-65.56-65.84-69.37-76.8-69.39c-0.71,0.02-1.44,0.04-2.2,0.06c-54,1.42-71.5,44.58-71.5,44.58c-9,12.5-4,61.55-4,61.55c-21-12.95-1.5,45.45-1.5,45.45c5,13.5,8,1,8,1c2.88,12.67,6.63,23.41,10.9,32.53c0.85,44.99,1.74,68.73,1.44,83.43c23.33,0,116.79,0,123.83,0l1.52-85.32c6.58-17.33,7.31-32.14,7.31-32.14c2.5,3,6.5,1.5,6.5,1.5C272.75,234.79,268.5,189.04,268.5,189.04z M255.96,199.92C255.93,200.18,255.94,200.15,255.96,199.92L255.96,199.92z M256.22,197.67c0.03-0.3,0.07-0.64,0.11-1.01C256.29,197.01,256.25,197.35,256.22,197.67z M256.82,192.32c0.06-0.55,0.11-0.99,0.14-1.26C256.91,191.5,256.87,191.92,256.82,192.32z M265.33,190.26c-0.04-0.16-0.09-0.37-0.16-0.62c-0.13-0.5-0.31-1.2-0.54-2.1c0.22,0.86,0.4,1.58,0.54,2.1C265.24,189.9,265.29,190.1,265.33,190.26C265.47,190.79,265.48,190.83,265.33,190.26z"/><path fill="#6e452f" d="M125.25,227.25c4.5-6.5,6.97-8.84,12.65-10c4.87-0.99,13.28-2.45,17.35-5.75c9.63-7.79,13.17-20.35,5.59-28.43c-4.32-4.6-7.03-7.3-13.05-8.81c-4.83-1.22-11.04-2.16-15.05-6.1c-7.84-7.69-11.29-20.73-10.82-31.2c0.41-8.95,9.17-18.79,15.15-24.83c7.04-7.12,15.71-14.12,23.72-20.42c-40.38,8.84-54.04,42.51-54.04,42.51c-9,12.5-4,61.55-4,61.55c-21-12.95-1.5,45.45-1.5,45.45c5,13.5,8,1,8,1c2.89,12.7,6.64,23.46,10.93,32.59c-0.78,38.87,1.32,70.54,1.15,83.21c7.79,0.1,53.6-30.51,61.45-32.32C179.16,318.81,113.75,264.75,125.25,227.25z"/><g class="eyes eyes-21"><path fill="#ffffff" fill-opacity="0.7" d="M154.675,192.763c0.515,0.944,0.79,2.031,0.731,3.18c-0.17,3.356-3.065,5.937-6.466,5.764c-3.402-0.172-6.021-3.032-5.851-6.389c0.033-0.656,0.173-1.28,0.398-1.862c-1.676,1.114-4.709,3.721-4.815,4.47l0.063,0.062c-0.05,0.954,1.15,1.029,1.882,1.289c0.907,0.322,1.773,0.785,2.644,1.259c0.822,0.448,4.069,0.996,4.934,1.148c0.806,0.142,3.872,0.212,4.572,0.094c1.264-0.212,2.549-0.602,3.796-0.837c1.189-0.224,2.33-0.613,3.417-1.161c0.866-0.437,2.215-1.071,2.796-1.878C161.553,196.941,156.537,193.614,154.675,192.763z"/><path fill="#483224" d="M148.94,201.707c3.401,0.172,6.296-2.408,6.466-5.764c0.059-1.148-0.216-2.235-0.731-3.18c-0.106-0.049-0.208-0.093-0.292-0.125c-1.3-0.486-2.623-0.854-4.541-0.718c-0.866,0.063-1.739,0.245-2.575,0.452c-0.974,0.241-2.079,0.236-3,0.629c-0.19,0.082-0.463,0.245-0.779,0.455c-0.225,0.582-0.365,1.206-0.398,1.862C142.919,198.674,145.538,201.534,148.94,201.707z"/><path fill="#ffffff" fill-opacity="0.7" d="M228.037,196.748c-0.722-0.708-1.382-1.047-2.185-1.658c-0.889-0.676-2.145-1.249-3.354-1.735c0.063,0.388,0.086,0.787,0.065,1.193c-0.165,3.241-3.018,5.73-6.374,5.56c-3.354-0.17-5.942-2.935-5.777-6.175c0.046-0.911,0.311-1.759,0.732-2.508c-0.716,0.215-1.425,0.487-2.114,0.7c-0.619,0.192-3.212,1.622-3.919,2.228c-0.889,0.762-1.452,1.607-2.093,2.527c0.56,0.019,0.841,0.271,1.292,0.595c0.753,0.542,3.212,1.283,3.694,1.519c0.8,0.392,2.466,0.982,3.325,1.119c3.313,0.529,5.842,1.562,9.284,0.896c1.335-0.258,2.626-0.453,3.918-0.919c0.585-0.211,3.181-0.713,3.818-0.93c0.506-0.171,1.079-0.506,1.621-0.717C229.415,197.875,228.634,197.334,228.037,196.748z"/><path fill="#483224" d="M216.189,200.107c3.356,0.17,6.209-2.319,6.374-5.56c0.021-0.407-0.003-0.806-0.065-1.193c-0.627-0.252-1.242-0.482-1.786-0.689c-1.222-0.463-2.409-0.83-3.631-1.086c-1.199-0.252-2.715-0.533-3.962-0.514c-0.659,0.011-1.32,0.161-1.975,0.358c-0.422,0.75-0.687,1.598-0.732,2.508C210.247,197.172,212.835,199.937,216.189,200.107z"/></g><g class="eyebrows eyebrows-9"><path fill="#141615" fill-opacity="0.6" d="M121,190.33c2.1-2.45,1.46-6.36,3.33-8.87c1.62-2.17,4.04-4.61,6.17-6.3c5.86-4.67,13.71-6.07,20.82-7.5c2.09-0.42,3.74-0.84,5.78-0.32c2.58,0.66,6.17,1.86,8.42,3.29c0.8,0.51,1.22,1.2,1.65,2.08c0.38,0.77,1.4,2.47,1.51,3.29c0.48,3.47-5.55,2.24-7.51,1.97c-2.98-0.41-5.91-1.02-8.81-1.76c-2.14-0.55-3.97-0.75-6.03-0.04c-3.78,1.3-7.2,3.35-10.99,4.7c-2.77,0.98-5.65,2.1-8.01,3.94c-2.18,1.69-3.91,3.81-5.99,5.53"/><path fill="#141615" fill-opacity="0.6" d="M221.83,168.17c-4.25-0.04-7.79-0.41-11.94,0.63c-2.98,0.75-5.87,1.81-8.82,2.7c-2.38,0.72-8.51,4.15-5.71,6.99c3.23,3.28,9.79,1.09,13.68,0.68c4.05-0.43,8.02-1.09,11.96-1.67c1.48-0.21,2.87-0.5,4.38-0.2c1.08,0.21,2.23,0.55,3.3,0.87c1.28,0.38,2.79,0.43,3.99,0.82c2.24,0.74,4.18,3.57,6.13,4.84c0.85,0.55,2.99,2.01,3.58,0.54c0.35-0.87-1.84-3.64-2.5-4.51c-1.88-2.48-4.03-5.65-6.51-7.53c-1.92-1.45-4.18-1.66-6.36-2.33c-1.56-0.48-3.19-1.42-4.51-2.17"/></g><g class="chin chin-12"><path fill="none" stroke="#6e452f" stroke-miterlimit="10" d="M147.5,308c2.12,3.96,6.16,7.63,10.06,10.2c5.31,3.51,9.54,4.8,15.94,5.05c5.59,0.22,11.48,1.14,17.08,0.51c4.62-0.52,9.36-3.3,12.93-6.06c1.94-1.49,3.41-3.58,5.03-5.43c1.64-1.87,3.77-3.4,4.71-5.52"/></g><g class="hair hair-10"><path fill="#141615" fill-opacity="1" d="M257.1,191.8c2.4-21,0-33,0-33c-16.8-65.6-65.8-69.4-76.8-69.4c-0.7,0-1.4,0-2.2,0.1 c-20.3,0.5-35.4,6.9-46.4,14.8c-7.4,6.1-14.8,14.1-22.2,24.2c-2,3.4-2.9,5.6-2.9,5.6c-9,12.5-4,61.5-4,61.5 c0.3,1.4,0.5,1.7,0.5,1.9c0,0,0.9,5.9,3,14.9c0,0,3.1-28.8,10.5-36.7c0,0,11.6-4.7,11.9-18.4c0,0-1.7-19.4,0.7-23.8c0,0,58.2-29.9,103.8,3.6c0,0,5.8,24.5,13.3,38.5c0,0,1.4,1.1,2.4,8.6c0,0,1.4,24.1,2.7,29.9l3.1-13L257.1,191.8z M256.9,193.3 c0.1-0.5,0.1-1,0.1-1.3C257,192.5,257,192.9,256.9,193.3z"/></g><g class="nose nose-16"><path fill="#69402a" d="M186.01,198.89c-0.17,1.53-0.26,3.95-0.49,5.46c-0.58,3.86,0.9,6.29,0.88,10.24 c-0.02,6.65,6.48,12.91,4.38,19.46c-5.2-0.71-6.56-12.33-6.95-16.23c-0.33-3.31-1.14-7.11-1.01-10.49 c0.11-2.91,1.43-6.24,2.54-9.75C185.35,197.6,186.24,196.78,186.01,198.89z"/><path fill="#411802" d="M175.336,245.765c-1.109-0.261-1.878-1.531-2.954-2.083c-1.35-0.692-2.585-1.095-4-0.748c-1.036,0.254-2.413,0.743-3.136,1.575c-0.883,1.015,0.082,1.748,1.34,2.167c1.821,0.607,3.883,0.022,5.684,0.126c0.575,0.034,2.594,0.708,2.916,0.592c1.028-0.368,0.385-1.593-0.324-1.831"/><path fill="#411802" d="M188,246.125c0.997,0.195,1.54-0.929,2.274-1.375c0.798-0.485,1.562-0.544,2.448-0.778c1.207-0.318,3.813-1.057,4.312,0.872c0.683,2.641-7.116,2.219-8.771,2.136c-0.073-0.301-0.024-0.601,0.112-0.855"/><path fill="none" stroke="#643b25" stroke-miterlimit="10" d="M195.5,233.375c1.334-0.088,3.025,2.333,3.844,3.278c1.017,1.175,1.686,2.355,2.126,3.774c0.819,2.645,0.538,5.88-1.748,7.67c-4.308,3.372-8.83,1.707-13.715,1.653c-1.755-0.02-2.239,0.348-3.622,1.285c-1.588,1.076-3.42,1.938-5.357,1.309c-0.758-0.247-1.411-0.894-2.065-1.347c-1.087-0.751-2.1-1.112-3.466-1.377c-1.9-0.369-3.917-0.249-5.847-0.245c-1.425,0.003-3.476,0.087-4.405-1.149c-0.768-1.022-2.494-2.351-0.744-5.226"/></g><g class="mouth mouth-8"><path fill="#060F10" d="M154.8,264.86c-0.22-0.05,0.18-0.66-0.04-0.64c-0.95,2.17,0.27,4.09,1.66,5.61c1.87,2.04,3.57,4.59,5.97,5.96c2.64,1.51,5.3,3.53,8.19,4.37c1.21,0.35,2.09,0.52,3.13,1.14c0.91,0.54,1.51,1.01,2.65,1.28c2.26,0.53,4.1-0.04,6.24-0.77c1.34-0.46,2.45-0.44,3.83-0.51c1.72-0.09,3.29-0.79,4.94-1.27c1.96-0.58,3.8-1.64,5.22-3.06c0.46-0.47,0.63-1.12,1.17-1.54c0.61-0.48,1.52-0.65,2.17-1.15c0.86-0.66,1.52-1.71,2.35-2.45c0.83-0.74,1.92-1.29,2.49-2.27c0.88-1.5-0.58-2-1.95-2.49c-2.03-0.72-4.45-1.69-6.56-1.98c-1.49-0.2-2.9-0.02-4.34-0.41c-2.67-0.72-5.6-0.35-8.42-0.48c-2.06-0.1-4.11-1.24-6.11-1.82c-3.44-1-5.92-0.15-8.7,1.66c-2.79,1.82-6.12,1.18-9.3,1.18c-1.49,0-3.39-0.32-4.63-1.02"/><path fill="#EFE2C9" d="M165.52,275.32c1.15-0.56,2.05-1.13,3.42-1.28c1.16-0.12,2.22,0.29,3.32,0.25c1.08-0.03,1.83-0.59,2.74-0.54c1.31,0.07,2.73,0.03,4.05-0.1c1.2-0.12,1.79,0.26,2.93,0.39c1.34,0.15,2.43-0.35,3.71-0.38c2.12-0.05,4.35,0.73,6.38,0.89c1.7,0.14,3.54-0.29,5.21-0.11c0.1,1.01-4.12,1.57-5.06,2.09c-2.19,1.2-3.21,1.96-5.63,2.22c-1.47,0.15-2.83,0.59-4.43,0.53c-1.55-0.07-3.09-0.13-4.65-0.13c-1.4,0-3.3,0.29-4.68,0c-1.12-0.24-2.46-1.02-3.5-1.51c-1.55-0.73-2.61-1.77-3.79-2.96"/><path fill="#EFE2C9" d="M161.31,267.67c0.02,1.05-0.46,1.9,0.02,2.94c0.35,0.77,1.14,1.39,1.73,2.03c1.32,1.43,4.16,0.77,6.13,0.77c1,0,1.93-0.12,2.74-0.04c1.32,0.13,2.74,0.67,4.18,0.42c1.02-0.18,2.04-0.81,3.2-0.52c1.24,0.31,1.61,0.72,2.93,0.52c2.12-0.32,4.3-0.33,6.38-0.13c1.47,0.14,3.39,0.4,4.72-0.01c0.45-0.14,0.83-0.42,1.28-0.51c0.61-0.12,1.22,0.1,1.79-0.12c1.33-0.51,3.85-2.58,2.9-4.21c-0.97-1.68-4.46-2.09-6.07-2.3c-2.26-0.3-4.41-1.11-6.68-1.4c-1.67-0.21-3.59,0.24-5.22-0.13c-0.55-0.13-0.82-0.52-1.27-0.77c-3.74-2.1-7.39-1.69-11.27-0.92c-1.64,0.32-3.31,1.49-4.84,2.29c-0.96,0.51-2.34,1.4-2.9,2.33"/><path fill="#5f3620" fill-opacity="1" d="M153.65,265.24c0.83,1.83,1.32,4.01,2.57,5.62c0.65,0.84,1.61,1.55,2.37,2.32c1.46,1.49,2.74,3.03,4.15,4.54c1.93,2.08,3.57,3.66,6.08,5.02c2.96,1.61,5.83,2.12,9.07,2.91c2.56,0.63,5.06,1.13,7.72,1.38c1.4,0.13,2-0.03,3.09-0.65c1.16-0.66,7.64-1.09,9.72-2.42c1.12-0.71,1.99-1.6,3.18-2.29c1.33-0.76,3.24-1.8,4.19-2.92c1.39-1.63,3.07-7.71,3.47-8.8c0.39-1.06-0.08-2.06,0.24-3.17c-1.53,1.51-4.38,2.69-6.37,3.66c-1.88,0.91-3.67,1.69-5.83,2.07c-1.86,0.33-2.63,0.52-3.97,1.63c-1.05,0.87-1.98,1.68-3.38,1.82c-2.07,0.2-4.24-0.02-6.32,0c-2.47,0.02-4.97,0.41-7.45,0.52c-2.48,0.1-4.58-0.49-6.85-1.28c-1.19-0.41-2.37-0.84-3.41-1.54c-1.2-0.81-1.6-1.07-3.1-1.43c-1.28-0.31-2.38-0.89-3.33-1.75c-1.16-1.03-2.51-1.79-3.66-2.82C154.98,266.91,154.4,266.03,153.65,265.24"/><path fill="#69402a" d="M153.15,263.84c3.02,0,5.29-1.68,8.29-1.91c3.31-0.26,6.64-0.3,9.97-0.13c1.98,0.1,3.98,0,5.96,0c1.84,0,3.38,0.6,5.11,0.77c2.92,0.3,6.09-0.01,9.03-0.01c2.11,0,4.22,0.15,6.27,0.53c1.73,0.33,3.74,0.44,5.46,0.9c1.09,0.29,2.86,0.37,3.83,1.02c1.26,0.85,1.47,1.45,3.07,1.65c0.03,1.03-1.77,1.25-2.54,1.61c-1.06,0.49-1.89,1.05-3.05,1.33c-2.19,0.54-4.9,0.57-7.14,0.1c-1.45-0.3-2.6-0.89-4.05-1.02c-1.32-0.11-2.54-0.33-3.85-0.38c-2.9-0.12-5.79,0.72-8.56,0.51c-2.94-0.23-5.81-1-8.78-1.41c-1.59-0.22-3.61-0.35-5.25-0.1c-1.29,0.2-2.41,0.74-3.79,0.62c-2.44-0.22-4.3-1.93-6.66-2.04c-1.09-0.05-2.24,0.77-3.02-0.02C152.98,265.41,151.8,263.54,153.15,263.84"/></g><g class="accessory headband"><path class="base" fill="#EFEFEF" d="M99.5,168.37c0,0,71.96-72.12,158.43,0c0,0,0.82-19.14-4.93-28.38c0,0-70.86-87.05-152-0.05C101,139.94,97.63,154.46,99.5,168.37z"/><path class="shadow" fill="#E5E5E5" d="M102.33,151c0.48-9.87,14.95-28.55,24.65-30.83c9.56-2.24,1.27,11.54-2.1,15.35c-5.04,5.68-9.11,9.62-13.15,16.1c8.01-5.61,15.01-12.98,25.15-15.39c3.43-4.72,16.56-0.56,21.46-1.21c4.29-0.57,7.89-2.31,12-3.33c9.88-2.47,23.38-1.84,33.3,0.62c9.63,2.38,21.39,4.88,29.35,10.72c9.03,6.62,16.35,13.65,25.29,19.83c-5.16-0.4-9.4-6.92-13.94-9.38c-4.58-2.48-9.16-4.19-14.01-6.95c-10.2-5.81-20.72-7.27-32.02-10.83c-23.33-7.36-45.24,2.95-67.3,10.02c-5.3,1.7-11.3,2.57-16.54,4.76c-4.59,1.92-8.9,6.4-14.05,6.44c0.37-2.87,2.96-5.13,2.56-7.9"/><path class="shadow" fill="#E5E5E5" d="M151,114.33c11.08,1.18,22.31-9.17,34-6.02c7.97,2.15,13.17,7.95,20.67,11.39c15.45,7.08,37.98,11.52,46.76,27.73c-8.69-3.99-14.49-12.55-23.28-15.76c-8.64-3.16-16.83-2.52-24.83-8.02c-8.28-5.69-13.54-9.79-23.84-10.65c-5.03-0.42-23.83,4.33-25.48,1.34"/></g></svg>