<svg id="s57da0c37c2786" class="face" xmlns="http://www.w3.org/2000/svg" xmlns:xlink="http://www.w3.org/1999/xlink" x="0px" y="0px" width="357px" height="358px" viewBox="0 0 357 358"><path fill="#482c21" d="M268.5,189.04c-1.41-1.92-2.86-2.74-4.22-2.91c-3.96-0.47-7.28,4.62-7.28,4.62c2.38-21.04,0-32.96,0-32.96c-16.83-65.56-65.84-69.37-76.8-69.39c-0.71,0.02-1.44,0.04-2.2,0.06c-54,1.42-71.5,44.58-71.5,44.58c-9,12.5-4,61.55-4,61.55c-21-12.95-1.5,45.45-1.5,45.45c5,13.5,8,1,8,1c2.88,12.67,6.63,23.41,10.9,32.53c0.85,44.99,1.74,68.73,1.44,83.43c23.33,0,116.79,0,123.83,0l1.52-85.32c6.58-17.33,7.31-32.14,7.31-32.14c2.5,3,6.5,1.5,6.5,1.5C272.75,234.79,268.5,189.04,268.5,189.04z M255.96,199.92C255.93,200.18,255.94,200.15,255.96,199.92L255.96,199.92z M256.22,197.67c0.03-0.3,0.07-0.64,0.11-1.01C256.29,197.01,256.25,197.35,256.22,197.67z M256.82,192.32c0.06-0.55,0.11-0.99,0.14-1.26C256.91,191.5,256.87,191.92,256.82,192.32z M265.33,190.26c-0.04-0.16-0.09-0.37-0.16-0.62c-0.13-0.5-0.31-1.2-0.54-2.1c0.22,0.86,0.4,1.58,0.54,2.1C265.24,189.9,265.29,190.1,265.33,190.26C265.47,190.79,265.48,190.83,265.33,190.26z"/><path fill="#43271c" d="M125.25,227.25c4.5-6.5,6.97-8.84,12.65-10c4.87-0.99,13.28-2.45,17.35-5.75c9.63-7.79,13.17-20.35,5.59-28.43c-4.32-4.6-7.03-7.3-13.05-8.81c-4.83-1.22-11.04-2.16-15.05-6.1c-7.84-7.69-11.29-20.73-10.82-31.2c0.41-8.95,9.17-18.79,15.15-24.83c7.04-7.12,15.71-14.12,23.72-20.42c-40.38,8.84-54.04,42.51-54.04,42.51c-9,12.5-4,61.55-4,61.55c-21-12.95-1.5,45.45-1.5,45.45c5,13.5,8,1,8,1c2.89,12.7,6.64,23.46,10.93,32.59c-0.78,38.87,1.32,70.54,1.15,83.21c7.79,0.1,53.6-30.51,61.45-32.32C179.16,318.81,113.75,264.75,125.25,227.25z"/><g class="eyes eyes-6"><path fill="#ffffff" fill-opacity="0.7" d="M203.17,207.16c2.26-1.32,3.9-3.13,6.37-4.13c2.36-0.96,4.83-1.67,7.3-2.04c2.99-0.45,5.92,0.27,8.49,1.5c1.11,0.53,2.12,1.41,3.34,1.79c1.15,0.35,2.85,1.35,4,1.64c1.99,2.42-5.1,2.57-6.34,3.06c-2.49,0.98-4.18,1.67-7,1.67c-1.37,0-2.96,0.34-4.16,0.35c-1.65,0-3.39-0.51-5.18-0.51c-2.64,0-5.74-0.24-6.66-3.17"/><path fill="#ffffff" fill-opacity="0.7" d="M134,208.33c1.94-1.42,4.2-2.39,6.2-3.8c1.97-1.38,4.58-2.43,6.96-2.54c2.78-0.12,6.41,0.93,8.84,2.16c2.15,1.09,3.93,2.95,6.27,3.87c-1.22,1.55-4.52,1.62-6.27,1.81c-2.77,0.3-5.36,0.63-8.18,0.66c-2.6,0.03-5.45,0.78-7.95,0.12c-1.21-0.32-1.78-1.06-2.84-1.67c-0.92-0.53-2.04-0.59-3.04-0.78"/><path fill="#3d270f" d="M143.5,203.33c-2.54,0.33-2.14,4.8-0.38,6.04c1.58,1.12,5.79,1.1,7.7,0.63c2.84-0.71,4.17-2.73,3.19-5.67c-0.91-2.73-5.29-2.73-7.67-2.49c-1.86,0.19-3.53,1.15-4.67,2.67"/><path fill="#3d270f" d="M212.33,202c-2.94,2.29-1.06,5.73,1.51,7.12c2.17,1.18,4.83,1.46,7.15,0.38c2.16-1.01,3.94-3.53,3.35-6.17c-0.6-2.66-4.05-2.37-6.16-2.15c-1.91,0.2-4.35-0.35-5.68,0.99"/></g><g class="eyebrows eyebrows-4"><path fill="#141615" fill-opacity="0.6" d="M114.33,197.17c0.01-0.65,1.08-2.04,1.53-2.97c1.97-0.83,3.34-3.96,5.09-5.4c1.89-1.55,4.14-2.98,6.34-4.17c2.99-1.61,5.6-1.33,9.03-1.63c2.21-0.19,4.22-0.67,6.53-0.67c3.02,0.01,5.63-1.43,8.49-1.85c2-0.29,4.28,0.09,6.16,0.36c1.79,0.26,2.99-0.43,4.66-0.35c1.02,0.05,4.34,1.73,4.69-0.33c0.18-1.07-3.19-3.88-4.06-4.67c-2.46-2.21-7.58-2.83-10.8-2.5c-2.77,0.28-4.98-1.04-7.66-1.17c-2.3-0.11-4.17,0.12-6.21,1c-3.32,1.44-7.42,1.82-10.42,3.84c-2.8,1.89-5.72,3.6-8.45,5.66c-2.66,2.01-3.62,4.22-4.63,7.17c-0.49,1.42-1.92,7.57,0.22,8.17"/><path fill="#141615" fill-opacity="0.6" d="M194,172.67c-2.43-0.06-6.16,0.4-7.13,2.97c-0.61,1.6-0.04,3.28,1.33,4.32c3.62,2.73,8.38,1.13,12.48,1.7c2.36,0.33,3.97,0.62,6.28-0.52c1.98-0.98,3.3-1.58,5.52-1.93c3.17-0.49,6.73,0.2,9.35,1.8c2.5,1.52,5.41,2.35,8.17,3.52c3.63,1.54,5.29,4.81,7.46,7.8c0.64,0.88,1.91,4.42,2.88,4.65c2.49,0.59,0.69-3.97,0.38-4.75c-1.57-4.06-4.84-7.2-7.92-10.23c-1.16-1.14-2.09-2.48-3.29-3.54c-1.26-1.11-2.77-1.9-4.14-2.89c-2.83-2.05-6.05-2.71-9.69-2.74c-2.04-0.02-3.86-0.77-5.84-1.04c-1.84-0.26-3.78-0.11-5.66-0.13c-2.39-0.02-4.34,0.23-6.66,0.51c-0.8,0.1-1.73-0.2-2.51-0.01c-0.82,0.2-1.05,0.6-1.83,0.83"/></g><g class="hair hair-15"><path fill="#141615" fill-opacity="1" d="M257.1,191.8C257.1,191.8,257.1,191.8,257.1,191.8C257.1,191.7,257.1,191.8,257.1,191.8c2.4-21,0-33,0-33c-16.8-65.6-65.8-69.4-76.8-69.4c-0.7,0-1.4,0-2.2,0.1c-54,1.4-71.5,44.6-71.5,44.6c-6.7,9.3-5.6,41.6-3.9,61.7c0.9-11.7,4.4-35.5,20.9-40.1l0.5-15c0,0,39.3-34.4,116.5,0v17.8c0,0,12.7,0.8,16,31.9C256.7,190.9,257.1,191.3,257.1,191.8z"/></g><g class="facial-hair facial-hair-6"><linearGradient id="SVGID_2_57da0c37c46c7" gradientUnits="userSpaceOnUse" x1="106.124" y1="272.5176" x2="254.1963" y2="272.5176">
<stop offset="0" style="stop-color:#482c21;stop-opacity:0"/><stop offset="0.0127" style="stop-color:#141615;stop-opacity:0.0429"/><stop offset="0.0441" style="stop-color:#141615;stop-opacity:0.149"/><stop offset="0.0767" style="stop-color:#141615;stop-opacity:0.2593"/><stop offset="0.1098" style="stop-color:#141615;stop-opacity:0.3713"/><stop offset="0.1436" style="stop-color:#141615;stop-opacity:0.4857"/><stop offset="0.1783" style="stop-color:#141615;stop-opacity:0.6031"/><stop offset="0.2143" style="stop-color:#141615;stop-opacity:0.7246"/><stop offset="0.2523" style="stop-color:#141615;stop-opacity:0.8531"/><stop offset="0.2957" style="stop-color:#141615"/><stop offset="0.6774" style="stop-color:#141615"/><stop offset="1" style="stop-color:#141615;stop-opacity:0"/></linearGradient><path fill="url(#SVGID_2_57da0c37c46c7)" fill-opacity="0.6" d="M254.04,227.24c-0.61,1.85-1.29,3.73-1.72,5.63c-0.22,0.99-0.42,2.19-0.77,3.13c-0.33,0.92-0.82,1.64-1.23,2.52c-0.8,1.7-1.29,3.74-1.79,5.53c-0.98,3.46-3.32,5.84-4.88,9c-1.54,3.13-2.05,6.08-4.68,8.73c-1.76,1.78-3.29,3.83-5.12,5.5c-1.41,1.29-2.97,2.18-4.4,3.4c-1.42,1.21-4.26,3.22-6.3,2.02c-1.49-0.88-1.49-3.56-2.15-4.84c-0.95-1.85-2.99-2.59-4.25-4.15c-1.67-2.07-2.48-4.53-4.63-6.36c-2.11-1.79-4.01-1.37-6.66-2.01c-2.11-0.51-4.01-1.78-6.16-2.38c-4.4-1.21-9.09-1.75-13.65-1.61c-3.01,0.09-5.91-0.18-8.85-0.34c-2.27-0.13-3.81,0.45-5.81,0.96c-2.58,0.66-5.19,0.6-7.82,0.71c-2.95,0.13-6.9,0.11-9.22,1.99c-1.62,1.31-3.44,2.49-4.84,4.05c-1.02,1.14-1.93,2.44-2.89,3.58c-1.63,1.94-3.04,4.22-4.92,5.95c-0.94,0.87-2.04,2.23-3.32,1.91c-0.69-0.17-2.08-1.74-2.71-2.3c-1.91-1.69-3.62-3.84-5.05-5.96c-1.63-2.41-3.37-4.58-5.07-6.95c-2.29-3.18-4.87-6.53-6.71-9.94c-1.07-1.98-2.85-4.12-3.28-6.29c-0.46-2.29-0.61-4.01-1.51-6.25c-0.89-2.23-7.24-17.19-7.5-15.45c-0.29,1.97,1.01,15.68,1.31,17.08c0.31,1.44,1.65,7.96,1.65,7.96c2.88,12.67,6.63,23.41,10.9,32.53c0.04,2.34,17.93,31.12,20.48,34.43c2.83,3.67,4.15,5.66,6.17,7.33c2.71,2.25,3.7,2.79,6.5,4.83c4.24,3.1,15,4.47,20.17,5.67c2.55,0.59,13.27,0.75,16.45,1.16c3.83,0.49,7.55-0.13,11.35-0.54c1.48-0.16,2.87-0.39,4.31-0.7c2.85-0.6,9.89-3.59,13.05-5.43c2.8-1.62,28.32-48.65,28.32-48.65c3.51-9.26,5.36-17.79,6.31-23.74c0.43-2.32,1.01-6.81,1.06-9.2c0.09-4.23-0.57-6.32-0.37-10.58C253.85,228.52,253.94,227.88,254.04,227.24z M208.38,296.3c-1.28,0.54-3.79,1.18-5.21,1.21c-1.63,0.03-2.95-0.82-4.5-1.01c-1.29-0.16-2.83,0.14-4.16,0.17c-2.15,0.05-3.88-0.18-5.71-0.39c-1.42-0.16-2.76,0.46-4.07,0.43c-1.54-0.04-3.21-0.04-4.72-0.03c-2.08,0.01-2.84-0.76-5.1-0.18c-2.05,0.52-3.67-0.23-5.77,0.06c-0.67,0.09-1.16,0.5-1.91,0.43c-1.07-0.09-2.06-1.19-3.18-1.33c-0.9-0.11-1.87,0.37-2.81,0.19c-0.99-0.19-1.77-0.9-2.77-1.15c-0.61-0.15-0.86,0.19-1.43,0.11c-2.61-0.37-5.86-2.19-6.89-4.75c-0.65-1.63-0.28-4.12-0.53-5.99c-0.28-2.06,0.31-4.32,0.2-6.56c-0.08-1.56,0.47-2.85,0.51-4.19l-0.33,1.33c-0.2-1.92,1.06-4.02,1.67-5.8c0.65-1.92,1.46-3.59,3.16-4.74c1.5-1.01,3.12-1.22,4.85-1.64c1.8-0.43,3.3-1.36,4.96-1.92c1.61-0.54,4.64-0.85,6.36-0.9c1.32-0.04,2.61,0.46,3.97,0.34c0.54-0.04,1.1-0.28,1.67-0.31c0.84-0.04,1.63,0.46,2.34,0.46c1.36,0.01,2.57-0.69,4-0.49c3.02,0.44,6.05,1.89,9.01,2.63c1.28,0.32,2.51,0.36,3.81,0.36c2.04,0.01,2.75,0.62,4.63,1.27c1.64,0.57,3.42,0.6,5.04,1.23c1.95,0.77,3.73,1.27,4.22,3.67c0.4,1.94-0.33,3.84,0.12,5.77c0.53,2.31,1.36,4.04,1.05,6.18c-0.34,2.29,0.21,4.21,1.19,6.04C213.88,290.27,211.91,294.81,208.38,296.3z"/></g><g class="nose nose-10"><path fill="#3e2217" d="M186.01,198.89c-0.17,1.53-0.26,3.95-0.49,5.46c-0.58,3.86,0.9,6.29,0.88,10.24 c-0.02,6.65,6.48,12.91,4.38,19.46c-5.2-0.71-6.56-12.33-6.95-16.23c-0.33-3.31-1.14-7.11-1.01-10.49 c0.11-2.91,1.43-6.24,2.54-9.75C185.35,197.6,186.24,196.78,186.01,198.89z"/><path fill="#160000" d="M171.75,238.75c-2.31-0.23-2.82,2.22-1.75,3.75c1.06,1.52,2.65,2.54,4.63,1.75c5.37-2.13-2.3-8.14-4.63-5.25"/><path fill="#160000" d="M188.25,238.88c-1.1-0.12-1.74,0.48-2.38,1.22c-0.95,1.11-0.87,1.46,0,2.52c0.62,0.76,1.7,2.12,2.62,2.48c0.87,0.34,2.53-0.15,3.38-0.48c1.85-0.7,3.13-2.9,1.65-4.65c-1.11-1.31-3.66-1.82-5.28-1.22c-0.18,0.07-0.13,0.05-0.25,0.12"/><path fill="none" stroke="#391d12" stroke-miterlimit="10" d="M167.63,232.25c-1.9,1.11-4.09,2.63-5.16,4.74c-0.86,1.69-0.22,4.64,0.16,6.38c0.45,2.09,2.24,4.18,4.22,5c1.03,0.42,2.72,0.48,3.89,0.5c1.72,0.03,2.24-0.82,3.63-1.26c1.9-0.59,4.9,0.33,6.76,0.62c3.3,0.52,6.46-0.66,9.85-0.37c1.42,0.12,2.4,0.58,3.68,0.03c0.81-0.35,1.47-0.88,2.21-1.4c1.99-1.42,2.59-2.57,3.4-4.75c0.71-1.91,0.58-2.59-0.78-4.29c-1.06-1.33-2.17-2.66-3.49-3.7c-1.22-0.96-2.55-1.87-3.71-3c-0.98-0.95-3.03-2.44-3.54-3.63"/></g><g class="mouth mouth-22"><path fill="#EDDDC1" d="M157.165,272.481c1.628,0.752,2.938,2.135,4.748,2.607c2.464,0.643,5.317,0.6,7.833,0.665c1.439,0.038,3.195,0.212,4.613,0.536c1.593,0.363,2.884,1.329,4.662,1.346c2.145,0.021,4.625-0.641,6.693-1.192c2.569-0.686,5.139-1.254,7.76-1.802c1.755-0.367,3.841-0.737,5.264-1.896c0.829-0.676,1.515-1.488,2.363-2.161c0.838-0.664,1.764-1.277,2.572-1.938c0.424-0.346,0.862-0.3,0.601-0.899c-0.309-0.705-2.846-1.422-3.47-1.662c-2.261-0.867-4.894-1.585-7.365-1.45c-2.089,0.115-4.337,0.532-6.454,0.095c-1.626-0.335-3.236-0.916-4.916-1.035c-1.367-0.097-2.769,0.155-4.14,0.241c-1.852,0.116-3.674,0.258-5.518,0.452c-3.11,0.326-6.313,0.597-9.413,1.12c-1.688,0.285-3.292,0.679-4.767,1.492c-0.746,0.411-1.438,0.937-2.291,1.228c-0.652,0.223-1.75,0.14-2.075,0.906c1.335,1.124,2.41,2.072,3.401,3.473"/><path fill="#29120F" d="M158.393,272.737c0.643-1.004,0.614-2.333,1.597-3.139c0.556-0.456,0.998-0.474,1.683-0.483c1.529-0.02,2.268,0.458,3.891,0.215c1.322-0.198,2.747-0.097,4.017-0.536c0.859-0.298,1.698-0.836,2.641-0.947c0.917-0.107,1.011,0.153,1.866,0.51c1.415,0.59,1.873-0.012,3.324-0.179c0.979-0.114,2.32,0.441,3.212,0.158c0.637-0.202,1.203-0.824,1.908-1.067c1.444-0.499,2.319,0.381,3.722-0.028c0.84-0.246,1.521-0.621,2.44-0.492c0.951,0.133,1.695,0.828,2.584,0.872c1.385,0.069,2.963-0.084,4.463,0.164c2.214,0.366,2.045,1.633,3.574,2.77c2.289,1.702,2.973-1.171,4.933-1.001c-0.213-1.41,0.309-1.667-1.225-2.282c-2.131-0.854-4.95-2.291-7.27-2.205c-2.097,0.078-4.055,0.798-6.136,0.877c-2.624,0.098-5.297,0.098-7.931,0.077c-2.938-0.023-5.888-0.12-8.815-0.181c-2.612-0.054-5.642-0.333-8.208,0.105c-2.342,0.399-5.497,0.691-7.625,1.78c-0.764,0.39-2.19,1.17-2.728,1.78c1.145,0.478,1.782,1.45,2.711,2.227c0.436,0.365,1.306,1.229,1.77,1.377c0.049-0.238-0.069-0.352-0.148-0.571"/><path fill="#34180d" fill-opacity="1" d="M153.078,269.266c2.046,1.402,1.379,3.328,3.159,5.023c1.916,1.827,3.875,3.361,6.037,4.925c2.181,1.578,4.802,3.484,7.374,4.17c2.812,0.75,5.708,0.217,8.596,0.56c3.345,0.397,5.928-0.77,9.133-1.489c3.067-0.687,4.977-1.662,7.374-3.606c3.377-2.737,7.242-4.999,10.385-8.06c1.182-1.149,1.975-2.048,2.033-3.737c-0.844-0.135-1.812,0.193-2.477,0.631c-0.892,0.587-1.77,0.789-2.672,1.172c-2.579,1.096-5.149,2.125-7.938,2.855c-1.208,0.316-2.431,0.527-3.565,0.988c-1.189,0.484-2.193,0.973-3.494,1.257c-1.845,0.404-3.811,0.158-5.636,0.658c-1.67,0.458-2.931,1.281-4.71,1.287c-4.635,0.015-9.699-0.842-13.854-2.682c-1.938-0.859-4.195-1.848-5.993-2.97c-1.714-1.069-2.044-1.196-4.048-1.361"/><path fill="#3e2217" d="M152.427,268.962c0.971-0.226,1.872-1.575,2.788-2.079c1.712-0.941,3.563-1.5,5.431-2.091c3.773-1.191,7.492-1.932,11.453-2.125c2.79-0.137,5.647-0.617,8.449-0.516c1.736,0.063,3.405,0.646,5.158,0.709c1.364,0.05,2.768-0.184,4.132-0.097c2.972,0.189,5.74,0.825,8.551,1.559c1.369,0.357,2.773,0.656,4.163,0.946c1.121,0.234,2.346,0.057,3.376,0.581c3.146,1.604-0.842,2.25-2.474,2.369c-2.655,0.193-5.082-0.297-7.65-0.992c-4.949-1.337-10.081,0.018-15.021,0.117c-1.274,0.025-2.644,0.353-3.957,0.429c-1.314,0.077-2.608-0.1-3.924-0.079c-2.611,0.042-5.133,0.109-7.701,0.479c-1.028,0.148-1.976,0.48-3.038,0.547c-1.353,0.085-2.709-0.171-4.043-0.018c-0.768,0.088-5.663,1.589-5.335,0.187"/></g></svg>