<svg id="s5c3d008c84781" class="face" xmlns="http://www.w3.org/2000/svg" xmlns:xlink="http://www.w3.org/1999/xlink" x="0px" y="0px" width="357px" height="358px" viewBox="0 0 357 358"><path fill="#b88a73" d="M268.5,189.04c-1.41-1.92-2.86-2.74-4.22-2.91c-3.96-0.47-7.28,4.62-7.28,4.62c2.38-21.04,0-32.96,0-32.96c-16.83-65.56-65.84-69.37-76.8-69.39c-0.71,0.02-1.44,0.04-2.2,0.06c-54,1.42-71.5,44.58-71.5,44.58c-9,12.5-4,61.55-4,61.55c-21-12.95-1.5,45.45-1.5,45.45c5,13.5,8,1,8,1c2.88,12.67,6.63,23.41,10.9,32.53c0.85,44.99,1.74,68.73,1.44,83.43c23.33,0,116.79,0,123.83,0l1.52-85.32c6.58-17.33,7.31-32.14,7.31-32.14c2.5,3,6.5,1.5,6.5,1.5C272.75,234.79,268.5,189.04,268.5,189.04z M255.96,199.92C255.93,200.18,255.94,200.15,255.96,199.92L255.96,199.92z M256.22,197.67c0.03-0.3,0.07-0.64,0.11-1.01C256.29,197.01,256.25,197.35,256.22,197.67z M256.82,192.32c0.06-0.55,0.11-0.99,0.14-1.26C256.91,191.5,256.87,191.92,256.82,192.32z M265.33,190.26c-0.04-0.16-0.09-0.37-0.16-0.62c-0.13-0.5-0.31-1.2-0.54-2.1c0.22,0.86,0.4,1.58,0.54,2.1C265.24,189.9,265.29,190.1,265.33,190.26C265.47,190.79,265.48,190.83,265.33,190.26z"/><path fill="#b3856e" d="M125.25,227.25c4.5-6.5,6.97-8.84,12.65-10c4.87-0.99,13.28-2.45,17.35-5.75c9.63-7.79,13.17-20.35,5.59-28.43c-4.32-4.6-7.03-7.3-13.05-8.81c-4.83-1.22-11.04-2.16-15.05-6.1c-7.84-7.69-11.29-20.73-10.82-31.2c0.41-8.95,9.17-18.79,15.15-24.83c7.04-7.12,15.71-14.12,23.72-20.42c-40.38,8.84-54.04,42.51-54.04,42.51c-9,12.5-4,61.55-4,61.55c-21-12.95-1.5,45.45-1.5,45.45c5,13.5,8,1,8,1c2.89,12.7,6.64,23.46,10.93,32.59c-0.78,38.87,1.32,70.54,1.15,83.21c7.79,0.1,53.6-30.51,61.45-32.32C179.16,318.81,113.75,264.75,125.25,227.25z"/><g class="eyes eyes-23"><path fill="#FFFFFF" fill-opacity="0.7" d="M131.596,203.802c0,0,15.5-17.815,28.25-0.565C159.846,203.237,142.721,208.617,131.596,203.802z"/><path fill="#FFFFFF" fill-opacity="0.7" d="M205.346,201.112c0,0,8.25-16.25,28.625-1.125C233.971,199.987,218.971,207.737,205.346,201.112z"/><path fill="#4f2a1a" d="M224.334,197.961c0-1.628-0.985-3.071-2.506-3.99c-3.19-0.688-5.877-0.464-8.091,0.237c-1.311,0.921-2.142,2.258-2.142,3.752c0,2.776,2.852,5.027,6.369,5.027C221.483,202.987,224.334,200.737,224.334,197.961z"/><path fill="#4f2a1a" d="M151.834,200.014c0-1.722-1.098-3.24-2.771-4.146c-3.283-0.495-6.418,0.333-9.103,1.625c-0.547,0.742-0.865,1.601-0.865,2.521c0,2.776,2.852,5.027,6.369,5.027C148.983,205.04,151.834,202.79,151.834,200.014z"/></g><g class="eyebrows eyebrows-25"><path fill="#281312" fill-opacity="0.5" d="M128,189.3c5.8-9.1,13.6-10,23.4-8.5c6.1,0.9,17.5,2.1,19.8,9.7h0.6c-3.3-6-17.5-3.9-23.1-3.3 c-3.9,0.3-8.1-0.3-11.7,0.9c-4.5,1.2-7.8,4.8-11.7,6.6c0-2.4,1.9-4.8,3.3-6.6"/><path fill="#281312" fill-opacity="0.5" d="M199.3,186c1.8-2,3.8-4.8,6.5-5c5-1,13.5-0.8,18,1.8c5,3,9.5,10,13,15c-4-7.5-14.5-11.3-22.5-10.8 c-4.5,0.3-9.5,2-14,2.3c-7,0.3-2.3-3.8,1.5-5.3"/></g><g class="chin chin-8"><path fill="none" stroke="#b3856e" stroke-miterlimit="10" d="M147.66,312.5c2.25,2.69,5,4.72,7.44,7.05 c1.68,1.6,3.26,3.36,5.1,4.71c1.87,1.37,4.35,2.79,6.47,3.57c3.26,1.2,5.64,2.43,9.1,3.18c3.51,0.75,7.66,0.24,11.23,0.24 c4.15-0.01,6.93,0.12,10.8-2c3.13-1.71,6.24-3.52,9.03-5.75c5.68-4.53,10.22-10.58,15.24-16.25"/></g><g class="hair hair-7"><path fill="#281312" fill-opacity="0.9" d="M107.61,202v-1c-0.08-2.77-1.44-3.51-0.2-6.32c1.13-2.56,1.67-4.51,1.7-7.43c0.06-5.64-2.41-10.25-0.76-15.81c0.74-2.48,2.22-4.86,2.51-7.44c0.32-2.84,0.7-4.41,1.55-6.99c1.81-5.5,3.5-12.78,9.6-15.03c8.93-3.29,18.36-5.73,27.6-8.67c3.67-1.17,6.17-3.42,10.12-3.56c2.21-0.07,4.22,0.17,6.33-0.56c2.14-0.74,3.85-1.72,6.52-2.01c7.79-0.82,16.24,1.82,23.79,3.31c7.67,1.51,16.05,1.58,23.05,5.44c2.77,1.53,4.78,2.7,7.9,3.31c2.3,0.45,5.12,0.93,7.28,1.76c4.95,1.88,5.79,6.85,5.3,11.69c-0.28,2.79-0.78,5.38,0.75,7.87c1.32,2.15,3.13,3.66,4.44,5.76c1.65,2.67,2.47,4.78,2.51,7.95c0.03,2.55-0.95,5.03-0.46,7.54c0.18,0.91,0.85,1.65,0.97,2.69c0.09,0.84-0.38,2.23-0.28,3.26c0.18,1.86,0.29,4.03,0.49,6.02c0.43,4.22,0.98,8.18,0.81,12.44c1.33-1.15,4.15-1.72,5.03-3.47c0.46-0.91,0.03-2.08,0.18-3.07c0.23-1.52,0.52-1.64,1.32-2.89c0.22-0.35,0.49-0.7,0.78-1.05c0.07-0.63,0.15-1.28,0.22-1.92c0.05-0.44,0.1-0.9,0.16-1.4c0.04-0.32,0.07-0.63,0.1-0.91c0.06-0.55,0.11-0.99,0.14-1.26c0.02-0.15,0.03-0.25,0.03-0.29c0-0.01,0-0.01,0-0.02c2.38-21.04,0-32.96,0-32.96c-16.83-65.56-65.84-69.37-76.8-69.39c-0.71,0.02-1.44,0.04-2.2,0.06c-54,1.42-71.5,44.58-71.5,44.58c-9,12.5-4,61.55-4,61.55C102.06,193.46,104.53,200.13,107.61,202z"/></g><g class="nose nose-13"><path fill="#ae8069" d="M186.01,198.89c-0.17,1.53-0.26,3.95-0.49,5.46c-0.58,3.86,0.9,6.29,0.88,10.24 c-0.02,6.65,6.48,12.91,4.38,19.46c-5.2-0.71-6.56-12.33-6.95-16.23c-0.33-3.31-1.14-7.11-1.01-10.49 c0.11-2.91,1.43-6.24,2.54-9.75C185.35,197.6,186.24,196.78,186.01,198.89z"/><path fill="#865841" d="M172.83,241.33c-2.35-0.01-5.7,2.37-5.81,4.81c2.4,0.37,3.86-1.31,6.14-1.77c3.53-0.72,1.66-2.12-0.5-3.04"/><path fill="#865841" d="M190.67,242.5c-1.77-0.29-3.34,1.11-4.35,2.34c0.96,1.44,3.2,0.93,4.69,1c1.62,0.08,2.97,0.55,4.64,0.47c1.02-2.11-3.54-4.46-5.31-3.81"/><path fill="none" stroke="#a97b64" stroke-miterlimit="10" d="M166,230.66c-0.08,1.35-1.71,3.11-2.37,4.32c-0.74,1.34-1.5,2.58-2,4.05c-1.08,3.13-1.4,5.65,0.87,8.46c3.9,4.84,10.42,0.77,15.64,2.36c3.02,0.92,5.75-0.68,9.02-0.53c3.38,0.15,7.32,1.16,10.64,0.3c2.45-0.64,4.7-1.64,6.03-3.96c1.64-2.84,0.83-4.9-0.5-7.68c-1.13-2.36-2.28-4.36-4.2-6.28c-2.3-2.29-3.86-3.87-5.46-6.71"/></g><g class="mouth mouth-9"><path fill="#151111" d="M152.27,272.06c2.41,1.94,4.48,4.09,6.67,6.21c0.7,0.68,1.36,0.97,2.3,1.26c2.91,0.9,6.01,0.96,8.94,1.87c2.21,0.69,4.41,1.53,6.61,2.1c5.6,1.47,12.66,1.42,18.18-0.53c0.72-0.26,1.63-0.32,2.27-0.62c0.9-0.42,1.5-1.25,2.44-1.68c1.68-0.76,2.76-1.64,3.97-3c1.12-1.26,2.87-3.23,2.94-5.02c-2.91,0.45-6.06,1.07-8.96,0.46c-3.38-0.7-6.83-1.47-10.12-2.4c-2.71-0.76-5.58-0.68-8.34-1.29c-2.23-0.5-4.58-0.55-6.86-1.12c-4.81-1.19-9.79-1.94-14.36,0.07c-1.27,0.56-2.68,0.62-3.67,1.56c-0.52,0.5-0.92,1.25-1.34,1.87"/><path fill="#8E4531" d="M159.87,271.92c0,0.93-0.26,2.42,0.1,3.23c0.81,1.8,4.15,2.11,5.72,2.49c4.33,1.03,9.69,0.55,14.11,0.16c1.59-0.14,3.11-0.7,4.67-0.95c1.7-0.27,3.43-0.04,5.12-0.28c1.22-0.18,2.44-1.01,3.66-0.52c1.05,0.43,1.44,1.16,2.77,1.21c1.32,0.04,2.24-0.46,3.33-0.93c0.74-0.32,2.06-0.56,2.45-1.43c0.8-1.82-2.15-2.33-3.36-2.71c-1.94-0.61-3.71-1.32-5.6-2c-3.9-1.4-7.42-1.09-11.37-0.4c-4.88,0.85-9.06,1.26-14.02,0.42c-2.86-0.49-5.7-0.01-7.58,1.98"/><path fill="#F7F2E8" d="M159.87,274.86c0.01,1.4,0.09,2.12,1.44,2.84c0.43,0.23,0.99,0.14,1.37,0.36c0.52,0.29,0.76,0.92,1.32,1.21c0.93,0.48,2.15,0.24,3.18,0.56c1.35,0.43,1.9,0.17,3.24,0.23c0.84,0.04,2.21,0.34,3.07,0.54c0.96,0.22,1.77,0.78,2.7,1.04c2.21,0.6,4.07,0.91,6.14,0.6c1.26-0.19,2.58,0.14,3.84,0.1c1.05-0.03,1.72-0.46,2.67-0.8c0.9-0.32,1.76-0.28,2.67-0.51c0.93-0.24,1.27-0.9,2.14-1.24c0.84-0.32,1.88-0.11,2.78-0.43c0.67-0.25,1.3-0.55,1.99-0.79c1.2-0.42,3.25-1.53,3.62-2.73c-1.46-0.59-3.11-0.63-4.55,0.07c-1.14,0.55-0.54,0.55-1.7,0.13c-0.87-0.31-1.39-0.58-2.13,0.32c-0.78-0.74-1.93-1.97-3.08-1.89c-0.5,0.03-0.81,0.55-1.23,0.64c-0.89,0.19-0.87-0.18-1.85-0.55c-1.03-0.39-2.67-0.51-3.72-0.23c-0.63,0.17-0.78,0.43-1.3,0.7c-0.28,0.14-0.12,0.58-0.48,0.66c-0.4,0.09-1.36-0.56-1.76-0.72c-1.21-0.5-2.73-0.9-4.07-0.77c-1.15,0.11-1.78,1.29-2.67,1.2c-0.96-0.09-2.11-1.58-3.34-1.22c-0.51,0.15-0.68,0.84-1.2,0.95c-0.38,0.08-1.17-0.41-1.73-0.41c-0.99,0.01-1.49,0.58-2.3,0.9c-0.86,0.34-0.62,0.3-1.61,0.07c-0.97-0.23-2.9-0.05-3.57-0.7"/><path fill="#a4765f" fill-opacity="1" d="M152.94,274.73c1.54,2.02,2.45,4.46,4.14,6.41c1.51,1.75,3.25,3.27,4.57,5.2c1.25,1.82,2.15,2.55,3.7,4.14c2.1,2.16,4.84,2.95,7.74,3.34c1.34,0.18,3.03-0.14,4.4,0c1.91,0.19,3.52,0.77,5.34,0.27c2.4-0.66,3.96,0.58,6.4,0.27c1.15-0.15,2.39-0.28,3.47-0.67c1.22-0.43,1.97-1.25,3.03-1.88c1.24-0.74,2.43-1.22,3.58-2.13c2.08-1.67,3.96-3.28,5.3-5.56c0.58-1,0.74-2.22,1.27-3.23c0.6-1.15,1.2-1.78,1.53-3.05c0.4-1.53,1.01-3.82-0.39-5.09c-1.16,2.88-5.57,3.51-7.83,5.32c-1.53,1.22-3.58,1.44-5.38,1.98c-1.41,0.42-2.98,1.01-4.47,1.21c-3.25,0.44-6.76,0.16-9.98-0.11c-1.74-0.15-3.48-0.46-5.2-0.63c-1.99-0.2-4.37,0.29-6.28-0.19c-1.43-0.36-2.84-1.21-4.13-1.84c-1.86-0.9-3.86-1.53-5.76-2.41c-2.36-1.09-4.98-2.72-6.81-4.61c0.93,0.85,0.75,1.94,1.24,2.88c0.41,0.77,1.14,1.05,1.44,1.87"/><path fill="#ae8069" d="M150,270.99c0.4-1.38,2.68-2.26,3.91-2.8c2.1-0.93,4.26-1.72,6.53-2.24c2.26-0.52,4.16-0.98,6.21-1.93c1.58-0.73,3.14-1.71,4.96-1.57c1.58,0.12,2.4,1.24,3.95,1.47c1.44,0.22,3.14,0.3,4.5-0.01c3.25-0.75,7.57-1.96,10.86-1.03c3.62,1.02,6.77,3.97,10.11,5.75c1.51,0.81,3.04,1.42,4.6,1.96c1.18,0.41,2.34,1.47,3.58,1.75c0.32,1.19,0.7,1.6-0.37,2.38c-0.97,0.71-2.5,0.94-3.6,1.33c-1.16,0.41-2.13,0.81-3.45,0.51c-1.28-0.29-3.19-0.48-4.54-0.93c-0.88-0.3-1.65-1.13-2.56-1.45c-1.18-0.41-2.5-0.11-3.74-0.29c-1.39-0.2-2.75-0.46-4.15-0.66c-0.88-0.13-2.21-0.52-3.13-0.22c-0.5,0.17-1.01,0.79-1.52,1.02c-1.07,0.48-2.63,0.89-3.77,1.19c-1.45,0.37-2.55-0.29-3.97-0.76c-2.91-0.96-6.58-1.51-9.74-1.21c-1.34,0.13-2.2,0.87-3.61,0.94c-1.69,0.08-3.42-0.38-5.07-0.71c-1.11-0.22-2.06-0.44-3.1-0.87c-1.05-0.43-1.61-1.05-2.51-1.63"/></g></svg>