<svg id="s5a4017d48d1c4" class="face" xmlns="http://www.w3.org/2000/svg" xmlns:xlink="http://www.w3.org/1999/xlink" x="0px" y="0px" width="357px" height="358px" viewBox="0 0 357 358"><path fill="#945a35" d="M268.5,189.04c-1.41-1.92-2.86-2.74-4.22-2.91c-3.96-0.47-7.28,4.62-7.28,4.62c2.38-21.04,0-32.96,0-32.96c-16.83-65.56-65.84-69.37-76.8-69.39c-0.71,0.02-1.44,0.04-2.2,0.06c-54,1.42-71.5,44.58-71.5,44.58c-9,12.5-4,61.55-4,61.55c-21-12.95-1.5,45.45-1.5,45.45c5,13.5,8,1,8,1c2.88,12.67,6.63,23.41,10.9,32.53c0.85,44.99,1.74,68.73,1.44,83.43c23.33,0,116.79,0,123.83,0l1.52-85.32c6.58-17.33,7.31-32.14,7.31-32.14c2.5,3,6.5,1.5,6.5,1.5C272.75,234.79,268.5,189.04,268.5,189.04z M255.96,199.92C255.93,200.18,255.94,200.15,255.96,199.92L255.96,199.92z M256.22,197.67c0.03-0.3,0.07-0.64,0.11-1.01C256.29,197.01,256.25,197.35,256.22,197.67z M256.82,192.32c0.06-0.55,0.11-0.99,0.14-1.26C256.91,191.5,256.87,191.92,256.82,192.32z M265.33,190.26c-0.04-0.16-0.09-0.37-0.16-0.62c-0.13-0.5-0.31-1.2-0.54-2.1c0.22,0.86,0.4,1.58,0.54,2.1C265.24,189.9,265.29,190.1,265.33,190.26C265.47,190.79,265.48,190.83,265.33,190.26z"/><path fill="#8f5530" d="M125.25,227.25c4.5-6.5,6.97-8.84,12.65-10c4.87-0.99,13.28-2.45,17.35-5.75c9.63-7.79,13.17-20.35,5.59-28.43c-4.32-4.6-7.03-7.3-13.05-8.81c-4.83-1.22-11.04-2.16-15.05-6.1c-7.84-7.69-11.29-20.73-10.82-31.2c0.41-8.95,9.17-18.79,15.15-24.83c7.04-7.12,15.71-14.12,23.72-20.42c-40.38,8.84-54.04,42.51-54.04,42.51c-9,12.5-4,61.55-4,61.55c-21-12.95-1.5,45.45-1.5,45.45c5,13.5,8,1,8,1c2.89,12.7,6.64,23.46,10.93,32.59c-0.78,38.87,1.32,70.54,1.15,83.21c7.79,0.1,53.6-30.51,61.45-32.32C179.16,318.81,113.75,264.75,125.25,227.25z"/><g class="eyes eyes-11"><path fill="#ffffff" fill-opacity="0.7" d="M148.83,201.33c-2.21-0.02-3.9,1.03-5.83,1.96c-1.33,0.64-4.67,1.73-4.64,3.51c1.45,0.55,2.34,2.11,3.63,2.91c1.58,0.97,3.43,1.02,5.18,1.29c2.9,0.44,5.83,0.09,8.68-0.63c2.64-0.67,5.37-0.23,7.69-1.65c2.87-1.76-1.03-4.23-2.71-5.42c-2.02-1.44-3.31-2.36-5.83-2.46c-2.15-0.08-4.32,0.14-6.33,0.5"/><path fill="#ffffff" fill-opacity="0.7" d="M214.5,203c-2.75-0.67-6.42-0.67-8.84,0.83c-0.91,0.56-2.29,1.61-2.96,2.38c-1.28,1.45-0.55,1.94,0.85,3.09c2.84,2.34,7.06,2.73,10.6,3.25c2.93,0.43,5.21,0.09,7.82-1.42c1.11-0.64,4.52-1.63,5.2-2.63c1.04-1.52-1.64-2.63-2.83-3.21c-1.62-0.78-3.09-1.24-4.84-1.59c-1.83-0.37-4.26-1.09-6.17-0.87"/><path display="inline" fill="#504040" d="M149.5,200.83c-3.15-0.66-2.99,4.38-2.2,6.17c0.94,2.13,3.69,3.78,6.04,3.83c2.98,0.06,4.71-3.04,5-5.67c0.38-3.45-1.97-4.15-4.84-4.33c-1.15-0.07-5.1-0.63-5.67,0"/><path display="inline" fill="#504040" d="M212,202.33c-2.94,0.16-5.82,2.57-4.47,5.67c1.04,2.4,3.58,4.37,6.13,4.5c4.42,0.22,10.64-6.87,4.46-9.46c-1.93-0.81-5.16-0.86-7.3-0.7"/></g><g class="eyebrows eyebrows-9"><path fill="#0e0e0c" fill-opacity="0.7" d="M121,190.33c2.1-2.45,1.46-6.36,3.33-8.87c1.62-2.17,4.04-4.61,6.17-6.3c5.86-4.67,13.71-6.07,20.82-7.5c2.09-0.42,3.74-0.84,5.78-0.32c2.58,0.66,6.17,1.86,8.42,3.29c0.8,0.51,1.22,1.2,1.65,2.08c0.38,0.77,1.4,2.47,1.51,3.29c0.48,3.47-5.55,2.24-7.51,1.97c-2.98-0.41-5.91-1.02-8.81-1.76c-2.14-0.55-3.97-0.75-6.03-0.04c-3.78,1.3-7.2,3.35-10.99,4.7c-2.77,0.98-5.65,2.1-8.01,3.94c-2.18,1.69-3.91,3.81-5.99,5.53"/><path fill="#0e0e0c" fill-opacity="0.7" d="M221.83,168.17c-4.25-0.04-7.79-0.41-11.94,0.63c-2.98,0.75-5.87,1.81-8.82,2.7c-2.38,0.72-8.51,4.15-5.71,6.99c3.23,3.28,9.79,1.09,13.68,0.68c4.05-0.43,8.02-1.09,11.96-1.67c1.48-0.21,2.87-0.5,4.38-0.2c1.08,0.21,2.23,0.55,3.3,0.87c1.28,0.38,2.79,0.43,3.99,0.82c2.24,0.74,4.18,3.57,6.13,4.84c0.85,0.55,2.99,2.01,3.58,0.54c0.35-0.87-1.84-3.64-2.5-4.51c-1.88-2.48-4.03-5.65-6.51-7.53c-1.92-1.45-4.18-1.66-6.36-2.33c-1.56-0.48-3.19-1.42-4.51-2.17"/></g><g class="facial-hair facial-hair-21"><path fill="#0e0e0c" fill-opacity="0.4" d="M200.1,305.1c-5.3,3-8.6,1.2-14.1,0.7c-5.5-0.5-11.2,1.5-15.9-1.4c-1.7-0.9-2.9-2.2-4-3.5c-0.5-0.2-1.1-0.5-1.5-0.9c0,0-0.1-0.1-0.1-0.1c-0.7-0.1-1.3-0.3-1.9-0.6c-1.8-1.1-3.2-2.4-4.4-4c-0.4-0.1-0.8-0.1-1.3-0.1c0.4,1.5,1.2,3.6,2.6,4.8l0.1-1c1.3,3.2,3.5,9.6,6.2,13.4c1.1,0.8,2.3,1.3,3.5,1.8c1.2,0.4,2.4,0.8,3.7,1.1c0.1,0,0.1,0,0.2,0c0,0,0,0,0.1,0c1.8-0.6,3.8,0.1,5,1.5c2.4-0.4,4.9-1.1,7.4-1.3c3.5-0.2,5.8,0.4,7.9,0.5c1.2-0.7,2.4-1.2,3.7-1.7c0.9-0.3,1.8-0.6,2.7-1c4.2-3.6,5.3-9.7,6.5-15.3C204.2,299.9,202.9,303.5,200.1,305.1z"/></g><g class="nose nose-19"><path fill="#8a502b" d="M186.01,198.89c-0.17,1.53-0.26,3.95-0.49,5.46c-0.58,3.86,0.9,6.29,0.88,10.24 c-0.02,6.65,6.48,12.91,4.38,19.46c-5.2-0.71-6.56-12.33-6.95-16.23c-0.33-3.31-1.14-7.11-1.01-10.49 c0.11-2.91,1.43-6.24,2.54-9.75C185.35,197.6,186.24,196.78,186.01,198.89z"/><path fill="#854b26" d="M186.01,198.89c-0.17,1.53-0.26,3.95-0.49,5.46c-0.58,3.86,0.9,6.29,0.88,10.24c-0.02,6.65,6.48,12.91,4.38,19.46c-5.2-0.71-6.56-12.33-6.95-16.23c-0.33-3.31-1.14-7.11-1.01-10.49c0.11-2.91,1.43-6.24,2.54-9.75C185.35,197.6,186.24,196.78,186.01,198.89z"/><path fill="#622803" d="M161,243.83c3.86,0,9,1.17,7.83,2.67c-1.81-1.34-2.52-1.08-4.8-0.63c-0.9,0.18-4.94,0.95-3.5-1.67c0.17-0.05,0.3-0.01,0.47-0.03"/><path fill="#622803" d="M186.53,246.48c1.49-0.25,2.67-1.44,4.18-1.75c1.86-0.39,3.19,0.31,4.87,0.4c2.92,2.19-1.31,1.76-2.66,1.57c-1.92-0.26-3.83,0.11-5.82,0.2c-0.06-0.28-0.16-0.68-0.12-0.97"/><path fill="none" stroke="#543324" stroke-miterlimit="10" d="M154.17,243c-0.44,3.85,4.94,5.77,7.57,6.78c1.67,0.64,3.08,0.72,4.93,0.72c2.05,0,2.63,0.94,4.46,1.45c7.37,2.05,13.67-1.45,20.07-2.74c2.8-0.57,7.88-1.06,8.96-4.04c1.39-3.83-2.97-7.56-5.33-10"/></g><g class="mouth mouth-14"><path fill="#1E0E0F" d="M156.1,268.13c-1.36,0.44-2.56-0.01-3.79-0.4c-0.08,1.38,1.71,2.42,2.57,3.16c1.28,1.1,2.82,2.29,4.24,3.09c2.47,1.4,5.49,0.86,8.23,1.11c3.5,0.32,7.14,0.21,10.66,0.29c7.43,0.18,14.62-0.2,21.89-1.75c2.94-0.63,6.29,1.3,8.05-1.42c0.38-0.59,1.36-2.64,0.96-3.22c-0.61-0.9-3.37-0.41-4.33-0.41c-4.86,0-9.81,0.06-14.64-0.16c-5.07-0.23-10.13,0.33-15.16,0.31c-4.92-0.02-10.03-1.24-14.98-0.6c-1.18,0.15-3.95,1.17-4.92,0.15"/><path fill="#F2E8D3" d="M160.19,272.21c0.52-2.44,0.49-2.98,2.84-3.9c1.99-0.78,4.17,0.02,6.31-0.42c1.37-0.28,2.65-0.1,4.01-0.06c1.18,0.04,2.26-0.26,3.51-0.31c2.12-0.08,4.49,0.71,5.86,2.29c1.18-1.27,3.21-1.92,4.98-2.29c1.3-0.27,2-0.19,2.99,0.65c0.18,0.15,0.49,0.81,0.64,0.87c0.95,0.4,0.4-0.07,1.25-0.4c1.11-0.43,2.14-0.65,3.32-0.32c1.04,0.29,1.89,1.28,2.84,1.48c1.34,0.28,4.47-0.09,5.79-0.4c1.88,2.61-2.86,3.82-4.43,4.48c-2.48,1.05-4.66,3.95-7.41,4.4c-3.16,0.51-6.48,0.9-9.72,1.05c-1.58,0.07-3.04-0.1-4.5-0.46c-1.45-0.36-2.83-0.24-4.36-0.45c-1.35-0.18-2.17-0.88-3.55-1.21c-1.58-0.38-2.89-0.86-4.48-1.63c-0.98-0.47-2.19-1.34-3.31-1.68c-1.32-0.4-2.46-0.15-3.24-1.54c0.36-0.32,0.17-0.53,0.33-0.91"/><path fill="#8a502b" d="M152.17,267.98c3.67-0.2,6.51-2.17,9.69-3.32c2.45-0.88,5.78-1.42,8.43-1.67c3.05-0.29,6.28,0.02,9.26,0.3c2.97,0.28,6.15-0.15,9.23-0.15c4.08,0,7.87-0.39,11.78,0.79c1.81,0.54,3.74,1.32,5.31,2.23c0.79,0.46,3.4,2.02,3.44,2.85c-1.47,0.47-2.99,0.08-4.51,0.33c-1.13,0.19-2.21,0.48-3.48,0.61c-1.67,0.17-3.43,0.42-5.14,0.3c-1.96-0.14-3.58-0.88-5.45-1.06c-2.82-0.27-5.3,0.7-7.86,1.21c-2.86,0.57-6.07-0.48-8.91-0.6c-3.94-0.18-7.86-0.45-11.76-0.45c-1.74,0-3.64,0.6-5.31,0.31c-1.52-0.27-2.84-1.13-4.39-1.09c-0.03-0.19-0.04-0.39-0.02-0.58"/><path fill="#a7696a" fill-opacity="0.9" d="M153.08,269.19c5.63,6.78,10.19,15.23,19.32,17.54c3.78,0.96,7.28,2.02,11.27,2.23c2.11,0.11,4.45-0.26,6.46-0.87c1.64-0.5,3.49-1.06,5.03-1.81c3.94-1.92,7.54-2.91,10.09-6.77c1.71-2.58,4.18-7.42,4.09-10.72c-1.21,2.48-6.04,3.72-8.59,4.22c-3.6,0.71-7.24,1.51-10.84,2.35c-2.67,0.62-5.64,1.33-8.4,1.05c-3.99-0.4-8.38-1.01-12.07-2.5c-3.53-1.42-7.47-1.11-11-2.13c-1.93-0.55-4.48-1.13-5.82-2.76"/></g></svg>