<svg id="s55b11145e66fe" class="face" xmlns="http://www.w3.org/2000/svg" xmlns:xlink="http://www.w3.org/1999/xlink" x="0px" y="0px" width="357px" height="358px" viewBox="0 0 357 358"><path fill="#d48a65" d="M268.5,189.04c-1.41-1.92-2.86-2.74-4.22-2.91c-3.96-0.47-7.28,4.62-7.28,4.62c2.38-21.04,0-32.96,0-32.96c-16.83-65.56-65.84-69.37-76.8-69.39c-0.71,0.02-1.44,0.04-2.2,0.06c-54,1.42-71.5,44.58-71.5,44.58c-9,12.5-4,61.55-4,61.55c-21-12.95-1.5,45.45-1.5,45.45c5,13.5,8,1,8,1c2.88,12.67,6.63,23.41,10.9,32.53c0.85,44.99,1.74,68.73,1.44,83.43c23.33,0,116.79,0,123.83,0l1.52-85.32c6.58-17.33,7.31-32.14,7.31-32.14c2.5,3,6.5,1.5,6.5,1.5C272.75,234.79,268.5,189.04,268.5,189.04z M255.96,199.92C255.93,200.18,255.94,200.15,255.96,199.92L255.96,199.92z M256.22,197.67c0.03-0.3,0.07-0.64,0.11-1.01C256.29,197.01,256.25,197.35,256.22,197.67z M256.82,192.32c0.06-0.55,0.11-0.99,0.14-1.26C256.91,191.5,256.87,191.92,256.82,192.32z M265.33,190.26c-0.04-0.16-0.09-0.37-0.16-0.62c-0.13-0.5-0.31-1.2-0.54-2.1c0.22,0.86,0.4,1.58,0.54,2.1C265.24,189.9,265.29,190.1,265.33,190.26C265.47,190.79,265.48,190.83,265.33,190.26z"/><path fill="#cf8560" d="M125.25,227.25c4.5-6.5,6.97-8.84,12.65-10c4.87-0.99,13.28-2.45,17.35-5.75c9.63-7.79,13.17-20.35,5.59-28.43c-4.32-4.6-7.03-7.3-13.05-8.81c-4.83-1.22-11.04-2.16-15.05-6.1c-7.84-7.69-11.29-20.73-10.82-31.2c0.41-8.95,9.17-18.79,15.15-24.83c7.04-7.12,15.71-14.12,23.72-20.42c-40.38,8.84-54.04,42.51-54.04,42.51c-9,12.5-4,61.55-4,61.55c-21-12.95-1.5,45.45-1.5,45.45c5,13.5,8,1,8,1c2.89,12.7,6.64,23.46,10.93,32.59c-0.78,38.87,1.32,70.54,1.15,83.21c7.79,0.1,53.6-30.51,61.45-32.32C179.16,318.81,113.75,264.75,125.25,227.25z"/><g class="eyes eyes-14"><path fill="#ffffff" fill-opacity="0.7" d="M221.18,197.8c-0.65-0.39-1.29-0.73-1.93-1.03c-0.03,1.04-0.09,2.12-0.46,2.86c-0.78,1.54-3.02,2.85-4.5,3.66c-1.9,1.03-3.99,1.19-5.78-0.03c-1.41-0.96-3.77-2.77-4.47-4.41c-0.2-0.46-0.27-0.98-0.25-1.52c-2.38,1.37-3.84,3.33-5.61,5.17c2,1.26,5.11,2.19,7.5,2.5c2.7,0.35,5.76-0.15,8.34-0.54c2.31-0.34,4.29-1.69,6.49-1.96c1.5-0.19,2.8-0.58,4.17-0.84c1.3-0.24,2.36,0.54,3.62,0.34C225.63,201.67,223.38,199.12,221.18,197.8z"/><path fill="#3d270f" d="M204.03,198.85c0.69,1.63,3.06,3.45,4.47,4.41c1.79,1.22,3.89,1.06,5.78,0.03c1.48-0.8,3.72-2.12,4.5-3.66c0.37-0.74,0.43-1.82,0.46-2.86c-1.99-0.93-4.01-1.43-6.41-1.43c-3.39,0-5.89,0.25-8.83,1.86c-0.08,0.04-0.14,0.09-0.22,0.13C203.76,197.87,203.83,198.38,204.03,198.85z"/></g><g><path fill="#ffffff" fill-opacity="0.7" d="M157.67,197.54c-0.26-0.16-0.53-0.3-0.8-0.44c-0.06,0.67-0.22,1.38-0.34,2.15c-0.35,2.35-1.63,3.33-3.37,4.9c-1.73,1.57-3.23,2.08-5.66,1.6c-4.51-0.89-6.85-4.89-6-9.13h-0.13c-0.47-0.24-0.56-0.62-0.43-1.05c-2.71,1.05-5.11,2.85-6.73,5.35c0.68,1.39,4.13,2.87,5.62,3.58c2.85,1.36,4.65,2.04,7.84,2.16c2.55,0.1,5.14-0.89,7.37-1.82c2.87-1.2,4.15-2.95,7.45-3.21C160.88,200.34,159.45,198.63,157.67,197.54z"/><path fill="#3d270f" d="M141.38,196.63h0.13c-0.85,4.24,1.49,8.24,6,9.13c2.43,0.48,3.93-0.02,5.66-1.6c1.73-1.58,3.02-2.55,3.37-4.9c0.12-0.77,0.28-1.48,0.34-2.15c-1.79-0.89-3.89-1.38-5.7-1.93c-3.32-1.02-6.99-0.84-10.22,0.41C140.82,196.01,140.9,196.39,141.38,196.63z"/></g><g class="eyebrows eyebrows-16"><path fill="#28130e" fill-opacity="0.5" d="M111.667,188c1.637-0.605,3.805-4.561,5.316-6c1.722-1.64,3.694-3.014,5.611-4.408c5.197-3.778,6.396-2.618,11.814-0.593c9.397,3.511,21.63-0.761,27.558,9.742c-1.543,1.757-3.715,0.743-5.5,0.267c-3.623-0.966-7.301-1.015-10.959-1.684c-5.357-0.98-12.666-4.374-17.838-2.323c-3.426,1.358-7.111,3.531-10.345,5.324c-0.801,0.444-3.724,2.559-4.657,2.364c-2.031-0.424-1.701-2.97,0.001-3.689"/><path fill="#28130e" fill-opacity="0.5" d="M194.333,182.667c2.025-4.569,13.703-4.777,18-5.75c6.178-1.398,11.472-3.237,17.96-2.859c1.196,1.418,3.134,3.662,4.672,4.958c1.966,1.658,4.91,2.375,6.116,4.936c1.02,2.164-0.504,3.179-3.49,2.738c-3.947-0.583-6.972-2.313-11.259-2.357c-7.314-0.076-14.113,1.661-21.35,2.017c-4.366,0.215-9.765,1.6-12.355-2.674c0.547-0.538,1.554-1.355,2.373-1.676"/></g><g class="chin chin-12"><path fill="none" stroke="#cf8560" stroke-miterlimit="10" d="M147.5,308c2.12,3.96,6.16,7.63,10.06,10.2c5.31,3.51,9.54,4.8,15.94,5.05c5.59,0.22,11.48,1.14,17.08,0.51c4.62-0.52,9.36-3.3,12.93-6.06c1.94-1.49,3.41-3.58,5.03-5.43c1.64-1.87,3.77-3.4,4.71-5.52"/></g><g class="hair hair-3017"><path fill="#28130e" d="M261.3,165c-0.5-1.9-0.6-3.9-0.6-5.9c-0.6-2-1-3.9-1.4-5.9c-0.8-4-1.4-7.6-3.2-11.3c-1.3-2.7-2.4-5.4-3.5-8.2c-3.4-8.2-6.5-17.2-12.2-24c-4.8-5.7-9.8-10.6-16.1-14.7c-6.1-3.9-12.6-7-19.3-9.8c-3.4-1.4-6.7-2.9-10.3-3.2c-4.5-0.4-9,0.1-13.5,0.5c-8.5,0.7-17.3-0.6-25.4,3.1c-5.7,2.6-11.3,5.2-17,7.7c-2.1,0.9-4.6,1.6-6.2,3.2c-2.7,2.7-5.4,5.4-8.1,8.1c-4.4,4.4-8.4,8.8-12.3,13.6c-1.1,1.4-2.3,2.9-3.4,4.3c-1.6,1.9-1.8,4.9-2.7,7.2c-1.2,3.2-3.3,5.6-3.6,9.1c-0.2,1.9-0.3,3.6-1.1,5.3c-0.8,1.8-0.5,4.5-0.7,6.5c-0.6,5.3-1.8,10.5-2.3,15.8c-0.5,5.2,0.7,10.7,1.5,15.9c0.4,2.8,0.8,5.6,1.2,8.4c0.2,1.4,1.7,3,2.5,4.2c0-2.1,0.9-4.2,0.8-6.2c-0.1-1.3-0.1-2.6,0.2-3.9c0.4-1.5,0.4-3.1,0.5-4.7c0.3-4.8,0.4-9.6,0.7-14.3c0.3-5.3,1.8-10.3,2.9-15.5c1.9-9.2,3.5-18.7,6.7-27.6c2.7-7.5,10.6-11.7,16.8-16.1c3.6-2.5,7.3-5.1,11-7.4c3.4-2.1,7.4-0.1,11.1,0.9c3.7,1.1,7.2-0.4,10.7-1.9c2.9-1.2,7.5-4.1,10.5-1.9c1.1,0.8,1.7,2,2,3.3c0.3,1.9,3.2-0.3,4.2-0.8c3.6-1.9,7.1-2.2,8.9,2.2c0.3,0.7,3.6,0.1,4.6,0.2c1.5-0.9,3.1-1.7,4.8-2.2c1.5-0.4,3.1-0.5,4.6,0.3c0.7,0.4,1.2,0.9,1.7,1.5c1.1,1.5,0.7,1.3,2.6,1c1.9-0.3,3.8-0.2,5.6,0.4c1.5,0.5,2.4-0.4,3.9-0.5c1.3-0.1,3.5,3,4.3,3.8c2.1,2.2,4.3,4.5,6.7,6.4c2.2,1.9,4.5,3.4,6.5,5.6c3,3.4,5.6,7.2,7.9,11.1c6.9,11.6,11.3,24.3,12.7,37.8c0.5,5.4,0.6,10.8,0.3,16.2c-0.1,1.4-0.2,2.8-0.4,4.3c0.2,1.4,0.2,2.8,0.1,4.2c-0.1,1.3-0.4,2.7-0.5,4.1c0.1,0.2,0.3,0.4,0.4,0.5c1.5-2.5,3-5.2,3.8-8c0.4-1.6-0.1-3.5-0.1-5.2C259.9,176.6,260.7,170.8,261.3,165z"/></g><g class="nose nose-11"><path fill="#ca805b" d="M186.01,198.89c-0.17,1.53-0.26,3.95-0.49,5.46c-0.58,3.86,0.9,6.29,0.88,10.24 c-0.02,6.65,6.48,12.91,4.38,19.46c-5.2-0.71-6.56-12.33-6.95-16.23c-0.33-3.31-1.14-7.11-1.01-10.49 c0.11-2.91,1.43-6.24,2.54-9.75C185.35,197.6,186.24,196.78,186.01,198.89z"/><path fill="#a25833" d="M168.25,236.38c-1.48,0.41-5.26,4.48-3.75,5.85c1.41,1.29,2.76-0.81,3.88-1.39c1.75-0.9,3.65-0.71,5.48-1.35c0.53-2.2-4.6-5.68-5.73-2.99"/><path fill="#a25833" d="M188.63,235c-1.05-0.39-1.6-1.1-2.78-0.5c-0.65,0.33-2,1.59-2.35,2.22c-1.14,2.1,3.47,3.29,4.9,4.06c1.06,0.57,5.07,1.1,4.35-1.17c-0.25-0.8-1.83-2.11-2.35-2.9c-0.52-0.77-0.86-1.18-1.65-1.59"/><path fill="none" stroke="#c57b56" stroke-miterlimit="10" d="M155.88,239.75c0.06,7.07,10.22,7.27,15.25,6c2.97-0.75,5.7,0.64,8.59,0.88c0.73,0.06,1.81,0.16,2.51-0.09c0.71-0.26,1.25-1.16,1.91-1.48c1.22-0.6,3.52-0.55,4.88-0.31c2.73,0.49,5.06,1.36,7.61-0.09c2.49-1.41,3.63-2.95,3.63-5.78"/></g><g class="mouth mouth-10"><path fill="#D48489" d="M157.83,269.87c1.52-2.85,3.22-4.73,6.45-5.69c2.21-0.65,4.14,0.43,6.31,1c2.47,0.65,4.79,0.66,7.41,0.77c4.82,0.21,9.68,2.1,14.49,1.38c3.07-0.46,6.68-0.63,9.78-0.01c0.4,0.08,0.89,0,1.31-0.01c-1,1.02-1,3.36-1.75,4.71c-0.65,1.17-1.58,2.3-2.54,3.28c-2.21,2.26-4.36,2.42-7.35,3.43c-2.58,0.87-5.51,1.95-8.25,2.31c-2.97,0.38-6.07-0.22-9.04,0.14c-3.3,0.39-5.23,1.18-8-0.77c-2.28-1.61-6-3.04-7.68-5.05c-1.27-1.52-1.34-3.87-1.33-5.87"/><path fill="#FCFCFD" d="M158.22,269.48c0.87,0.79,0.27,3.14,0.98,4.31c0.58,0.96,1.86,2.36,2.78,2.69c1.11,0.4,1.4-0.17,2.15-0.34c1.11-0.25,1-0.19,1.95-0.04c1.85,0.29,2.12,0.55,3.53,1.56c2.84,2.03,5.3,2.38,8.57,1.37c3.18-0.98,6.48-1.12,9.59-2.31c1.38-0.53,2.78-0.78,4.31-1.16c1.4-0.35,3.26-0.26,4.54-0.75c1.86-0.7,5.85-3.14,6-5.28c-2.84-1.65-5.9-1.15-8.97-1.02c-0.81,0.03-1.6-0.09-2.31,0.19c-0.19,0.07-0.75,0.77-0.86,0.79c-0.88,0.13-0.5-0.16-1.13-0.25c-1.71-0.23-0.99-1.01-2.31,0.46c-0.48,0.54-0.77,1.16-1.23,1.78c-1.05-1.74-0.17-2.25-2.73-2.38c-0.67-0.03-1.71-0.18-2.35,0c-0.65,0.17-1.56,1.33-1.91,1.39c-1.32,0.21-1.77-1.56-2.83-2.36c-1.31-0.99-3.15-0.84-4.82-0.75c0.13,0.82,0.75,1.52,1.13,2.29c-1.08-0.13-5.05-3.66-5.49-0.58c-1.44-0.77-5.78-3.05-5.87,0.39c-0.84-0.27-1.89-0.23-2.52,0.42"/><path fill="#c07651" fill-opacity="1" d="M153.13,267.52c0.78,1.37,1.35,2.74,2.5,3.97c1.25,1.35,1.61,2.25,2.39,3.82c1.14,2.29,3.61,5.6,5.73,7.04c2.56,1.74,6.81,3.19,9.7,3.17c2.77-0.02,5.16,0.46,7.84-0.39c1.81-0.57,3.38-1.2,5.31-1.37c3.19-0.29,5.68-0.1,8.41-1.66c2.59-1.48,4.33-2.72,6.47-4.6c2.61-2.3,6.47-6.95,6.05-10.74c-3.24,0.45-4.63,3.96-7.42,5.47c-2.6,1.4-6.04,2.32-8.8,3.09c-1.59,0.44-3.28-0.01-4.91,0.23c-1.46,0.21-3.13,0.68-4.69,0.98c-3.59,0.69-6.56,2.32-10.17,0.64c-1.71-0.79-3.02-1.57-4.89-1.85c-1.9-0.28-4.69,0.32-6.26-0.55c-1.29-0.71-2.26-2.35-3.38-3.32c-1.21-1.06-2.81-1.89-3.48-3.33"/><path fill="#ca805b" d="M152.54,267.92c1.77-0.41,2.89-2.63,4.5-3.48c1.56-0.82,3.6-1.03,5.3-1.45c4.24-1.04,10.07-1.44,14.46-0.75c1.75,0.28,2.86,1.11,4.7,1.17c1.84,0.07,3.65,0.16,5.48,0.2c4.26,0.09,8.14,1.38,12.34,1.37c2.7,0,7.2,0.73,8.97,2.7c-3.92,2.3-7.55,1.21-11.93,1.21c-3.59,0-6.78-0.89-10.36-0.78c-3.96,0.12-6.8,1.64-10.72,0.34c-3.28-1.09-6.75-2.05-10.23-2.1c-2.11-0.03-4.54,0.47-6.63,0.78c-1.83,0.27-4.23,1.49-6.02,1.18c0.64,0.01,1.14-0.21,1.7-0.39"/></g></svg>