<svg id="s5402130158676" class="face" xmlns="http://www.w3.org/2000/svg" xmlns:xlink="http://www.w3.org/1999/xlink" x="0px" y="0px" width="357px" height="358px" viewBox="0 0 357 358"><path fill="#7c4f2e" d="M268.5,189.04c-1.41-1.92-2.86-2.74-4.22-2.91c-3.96-0.47-7.28,4.62-7.28,4.62c2.38-21.04,0-32.96,0-32.96c-16.83-65.56-65.84-69.37-76.8-69.39c-0.71,0.02-1.44,0.04-2.2,0.06c-54,1.42-71.5,44.58-71.5,44.58c-9,12.5-4,61.55-4,61.55c-21-12.95-1.5,45.45-1.5,45.45c5,13.5,8,1,8,1c2.88,12.67,6.63,23.41,10.9,32.53c0.85,44.99,1.74,68.73,1.44,83.43c23.33,0,116.79,0,123.83,0l1.52-85.32c6.58-17.33,7.31-32.14,7.31-32.14c2.5,3,6.5,1.5,6.5,1.5C272.75,234.79,268.5,189.04,268.5,189.04z M255.96,199.92C255.93,200.18,255.94,200.15,255.96,199.92L255.96,199.92z M256.22,197.67c0.03-0.3,0.07-0.64,0.11-1.01C256.29,197.01,256.25,197.35,256.22,197.67z M256.82,192.32c0.06-0.55,0.11-0.99,0.14-1.26C256.91,191.5,256.87,191.92,256.82,192.32z M265.33,190.26c-0.04-0.16-0.09-0.37-0.16-0.62c-0.13-0.5-0.31-1.2-0.54-2.1c0.22,0.86,0.4,1.58,0.54,2.1C265.24,189.9,265.29,190.1,265.33,190.26C265.47,190.79,265.48,190.83,265.33,190.26z"/><path fill="#774a29" d="M125.25,227.25c4.5-6.5,6.97-8.84,12.65-10c4.87-0.99,13.28-2.45,17.35-5.75c9.63-7.79,13.17-20.35,5.59-28.43c-4.32-4.6-7.03-7.3-13.05-8.81c-4.83-1.22-11.04-2.16-15.05-6.1c-7.84-7.69-11.29-20.73-10.82-31.2c0.41-8.95,9.17-18.79,15.15-24.83c7.04-7.12,15.71-14.12,23.72-20.42c-40.38,8.84-54.04,42.51-54.04,42.51c-9,12.5-4,61.55-4,61.55c-21-12.95-1.5,45.45-1.5,45.45c5,13.5,8,1,8,1c2.89,12.7,6.64,23.46,10.93,32.59c-0.78,38.87,1.32,70.54,1.15,83.21c7.79,0.1,53.6-30.51,61.45-32.32C179.16,318.81,113.75,264.75,125.25,227.25z"/><g class="eyes eyes-23"><path fill="#FFFFFF" fill-opacity="0.7" d="M131.596,203.802c0,0,15.5-17.815,28.25-0.565C159.846,203.237,142.721,208.617,131.596,203.802z"/><path fill="#FFFFFF" fill-opacity="0.7" d="M205.346,201.112c0,0,8.25-16.25,28.625-1.125C233.971,199.987,218.971,207.737,205.346,201.112z"/><path fill="#3d270f" d="M224.334,197.961c0-1.628-0.985-3.071-2.506-3.99c-3.19-0.688-5.877-0.464-8.091,0.237c-1.311,0.921-2.142,2.258-2.142,3.752c0,2.776,2.852,5.027,6.369,5.027C221.483,202.987,224.334,200.737,224.334,197.961z"/><path fill="#3d270f" d="M151.834,200.014c0-1.722-1.098-3.24-2.771-4.146c-3.283-0.495-6.418,0.333-9.103,1.625c-0.547,0.742-0.865,1.601-0.865,2.521c0,2.776,2.852,5.027,6.369,5.027C148.983,205.04,151.834,202.79,151.834,200.014z"/></g><g class="eyebrows eyebrows-4"><path fill="#141615" fill-opacity="0.7" d="M114.33,197.17c0.01-0.65,1.08-2.04,1.53-2.97c1.97-0.83,3.34-3.96,5.09-5.4c1.89-1.55,4.14-2.98,6.34-4.17c2.99-1.61,5.6-1.33,9.03-1.63c2.21-0.19,4.22-0.67,6.53-0.67c3.02,0.01,5.63-1.43,8.49-1.85c2-0.29,4.28,0.09,6.16,0.36c1.79,0.26,2.99-0.43,4.66-0.35c1.02,0.05,4.34,1.73,4.69-0.33c0.18-1.07-3.19-3.88-4.06-4.67c-2.46-2.21-7.58-2.83-10.8-2.5c-2.77,0.28-4.98-1.04-7.66-1.17c-2.3-0.11-4.17,0.12-6.21,1c-3.32,1.44-7.42,1.82-10.42,3.84c-2.8,1.89-5.72,3.6-8.45,5.66c-2.66,2.01-3.62,4.22-4.63,7.17c-0.49,1.42-1.92,7.57,0.22,8.17"/><path fill="#141615" fill-opacity="0.7" d="M194,172.67c-2.43-0.06-6.16,0.4-7.13,2.97c-0.61,1.6-0.04,3.28,1.33,4.32c3.62,2.73,8.38,1.13,12.48,1.7c2.36,0.33,3.97,0.62,6.28-0.52c1.98-0.98,3.3-1.58,5.52-1.93c3.17-0.49,6.73,0.2,9.35,1.8c2.5,1.52,5.41,2.35,8.17,3.52c3.63,1.54,5.29,4.81,7.46,7.8c0.64,0.88,1.91,4.42,2.88,4.65c2.49,0.59,0.69-3.97,0.38-4.75c-1.57-4.06-4.84-7.2-7.92-10.23c-1.16-1.14-2.09-2.48-3.29-3.54c-1.26-1.11-2.77-1.9-4.14-2.89c-2.83-2.05-6.05-2.71-9.69-2.74c-2.04-0.02-3.86-0.77-5.84-1.04c-1.84-0.26-3.78-0.11-5.66-0.13c-2.39-0.02-4.34,0.23-6.66,0.51c-0.8,0.1-1.73-0.2-2.51-0.01c-0.82,0.2-1.05,0.6-1.83,0.83"/></g><g class="chin chin-14"><path fill="none" stroke="#774a29" stroke-miterlimit="10" d="M148.75,318c1.85,1.27,4.95,5.06,6.75,6.49c2.86,2.27,8.72,4.76,12.25,5.26c5.44,0.76,7.65,0.09,13.06,0.99c4.16,0.69,10.05-1.05,14.19-1.24c10.29-0.47,16.5-6.16,19.25-15.75"/></g><g class="hair hair-15"><path fill="#141615" fill-opacity="0.1" d="M257.1,191.8C257.1,191.8,257.1,191.8,257.1,191.8C257.1,191.7,257.1,191.8,257.1,191.8c2.4-21,0-33,0-33c-16.8-65.6-65.8-69.4-76.8-69.4c-0.7,0-1.4,0-2.2,0.1c-54,1.4-71.5,44.6-71.5,44.6c-6.7,9.3-5.6,41.6-3.9,61.7c0.9-11.7,4.4-35.5,20.9-40.1l0.5-15c0,0,39.3-34.4,116.5,0v17.8c0,0,12.7,0.8,16,31.9C256.7,190.9,257.1,191.3,257.1,191.8z"/></g><g class="nose nose-12"><path fill="#724524" d="M186.01,198.89c-0.17,1.53-0.26,3.95-0.49,5.46c-0.58,3.86,0.9,6.29,0.88,10.24 c-0.02,6.65,6.48,12.91,4.38,19.46c-5.2-0.71-6.56-12.33-6.95-16.23c-0.33-3.31-1.14-7.11-1.01-10.49 c0.11-2.91,1.43-6.24,2.54-9.75C185.35,197.6,186.24,196.78,186.01,198.89z"/><path fill="#4a1d00" d="M163.83,238.66c1.56-0.34,3.59-1.78,5.34-1.34c1,0.26,3.42,2.71,3.64,3.81c-1.2,0.21-2.4-1.68-3.61-2.01c-1.45-0.39-3.3-0.07-4.85-0.16c-0.05-0.24,0.07-0.26,0.15-0.47"/><path fill="#4a1d00" d="M200.33,241.83c-1.46-1.29-9.87-3.33-9.14,0.31c1.54,0.17,3.47-0.72,5.17-0.8c1-0.05,1.28-0.07,2.19,0.29c0.84,0.33,1.5,1.32,2.29,0.2"/><path fill="none" stroke="#6d401f" stroke-miterlimit="10" d="M164.67,221.33c-3.17-0.23-7.46,3.32-8.63,6.17c-1.31,3.2,0.62,6.73,2.3,9.34c1.52,2.36,3.89,2.48,6.49,3.01c1.77,0.36,3.45,0.6,5.36,0.66c1.81,0.06,2.63,0.82,4.16,1.79c2.47,1.57,4.3,4.03,7.62,3.34c1.35-0.28,2.58-1.6,3.67-2.33c1.34-0.9,2.75-1.19,4.37-1.13c1.73,0.07,3.59,0.14,5.33,0.33c1.74,0.19,4.16,1.04,5.97,0.47c2.02-0.65,4.62-3.22,6.08-4.75c1.56-1.64,3.42-3.97,2.59-6.54c-0.36-1.11-1.9-2.74-2.62-3.67c-0.94-1.2-3.13-2.24-3.67-3.5"/></g><g class="mouth mouth-23"><path fill="#E0DCDA" d="M196.66,277.52c2.04-1.92,4.63-2.73,7.37-3.56v-7.18h-47.51v6.65c0.48,0.08,0.95,0.25,1.38,0.54c0.97,0.67,2.01,1.25,2.98,1.92c0.7,0.48,1.37,1.02,2.04,1.54c-0.43-0.34-0.12-0.13,0.21,0.09H196.66z"/><path fill="#6A3433" d="M204.04,273.17c0.66-0.9,1.42-1.69,2.37-2.31c0.28-0.18,0.56-0.33,0.85-0.46c0,0,0,0,0-0.01c-4.08-0.64-8.16-1.54-12.14-2.51c-2.68-0.66-4.25,0.09-6.82,0.13c-2.15,0.04-4.16-0.66-6.29-0.81c-5.25-0.37-10.72-0.9-15.98-0.65c-2.52,0.12-4.9,0.36-7.35,0.89c-1.8,0.39-3.72,0.27-5.44,0.92c-0.04,0.02-0.08,0.03-0.13,0.04c0,0,0,0,0,0c-0.47,0.37-1.28,0.9-1.26,1.47c1.18,0.07,2.33,0.41,3.34,1.15c0.67,0.49,1.31,1.01,1.93,1.56c0.08,0.07,0.16,0.14,0.25,0.21c0.41-0.8,1.01-1.38,1.68-2.05c0.33-0.34,0.66-0.54,1.03-0.83c0.65-0.49,0.9-0.47,1.78-0.43c0.63,0.03,1.27,0.01,1.9,0.06c0.41,0.03,0.82,0.17,1.24,0.1c0.62-0.09,1.03-0.39,1.73-0.36c1.95,0.06,3.88,0.45,5.84,0.27c1.24-0.11,2.39-0.15,3.6,0.15c1.16,0.28,2.09-0.05,3.23-0.15c2.17-0.19,4.41-0.05,6.59-0.06c1.13,0,2.19,0.1,3.27,0.21c0.8,0.08,1.56,0.04,2.34-0.15c0.92-0.22,1.68-0.04,2.6,0.15c2.09,0.42,4.21,0.69,6.16,1.55c0.38,0.17,0.8,0.27,1.16,0.48c0.31,0.19,0.33,0.34,0.57,0.56c0.38,0.34,1.01,0.61,1.46,0.78C203.73,273.14,203.89,273.16,204.04,273.17z"/><path fill="#683b1a" fill-opacity="1" d="M151.65,269.72c0.52,1.75,2.38,3.06,3.6,4.29c1.21,1.22,2.53,2.22,3.73,3.46c3.07,3.17,6.37,6.53,10.86,7.47c2.56,0.53,5.23,0.59,7.83,0.83c1.31,0.12,2.49,0.42,3.71,0.53c1.49,0.14,2.93-0.11,4.34-0.42c1.98-0.44,4.27-0.85,6.09-1.83c2.13-1.16,4.28-2.42,6.4-3.53c2.25-1.18,4.58-3.42,6.38-5.19c1.7-1.67,3.05-3.4,4.28-5.41c-1.81-0.27-3.38,1.54-4.63,2.53c-1.58,1.26-4.14,0.67-6,1.44c-1.78,0.74-3.41,1.43-5.2,2.08c-1.95,0.71-4.13,0.66-6.21,0.98c-4.39,0.68-8.65,0.12-12.97-0.27c-1.91-0.17-3.84-0.71-5.67-1.05c-1.16-0.22-2.22-0.65-3.41-0.76c-1.05-0.1-1.99-0.1-2.94-0.5c-1.06-0.44-2.38-0.7-3.33-1.25c-0.84-0.48-1.6-1.15-2.49-1.63c-1.43-0.77-2.95-1.44-4.36-1.98"/><path fill="#724524" d="M151.56,269.83c1.33-1.34,2.27-2.91,3.75-4.07c1.54-1.21,3.2-2.22,5.07-2.78c1.87-0.56,4.15-0.43,6.13-0.53c2.08-0.11,4.18-0.33,6.25-0.33c0.94,0,1.89,0.04,2.8,0.19c1.32,0.22,3.6,0.17,4.81,0.45c2.67,0.63,5.97-0.68,8.73-0.83c2.78-0.15,4.91,0.7,7.67,0.9c1.26,0.09,2.79,0.87,3.94,1.36c0.93,0.39,4.07,2.62,5.13,3.62c0.72,0.68,2.31,1.32,3.03,2.12c-2.28,0.95-5.88,0.08-8.14-0.24c-2.38-0.34-11.59-1.22-13.84-1.31c-2.35-0.09-4.67,0.3-6.96,0.29c-2.21-0.01-12.18-0.91-14.93-1.23c-2.4-0.28-3.59,0.33-5.99,0.24c-1.04-0.04-3.96,0.45-4.81,0.94c-0.69,0.39-1.54,0.81-2.18,1.32"/></g></svg>