<svg id="s56e8470a7312c" class="face" xmlns="http://www.w3.org/2000/svg" xmlns:xlink="http://www.w3.org/1999/xlink" x="0px" y="0px" width="357px" height="358px" viewBox="0 0 357 358"><path fill="#d37e57" d="M268.5,189.04c-1.41-1.92-2.86-2.74-4.22-2.91c-3.96-0.47-7.28,4.62-7.28,4.62c2.38-21.04,0-32.96,0-32.96c-16.83-65.56-65.84-69.37-76.8-69.39c-0.71,0.02-1.44,0.04-2.2,0.06c-54,1.42-71.5,44.58-71.5,44.58c-9,12.5-4,61.55-4,61.55c-21-12.95-1.5,45.45-1.5,45.45c5,13.5,8,1,8,1c2.88,12.67,6.63,23.41,10.9,32.53c0.85,44.99,1.74,68.73,1.44,83.43c23.33,0,116.79,0,123.83,0l1.52-85.32c6.58-17.33,7.31-32.14,7.31-32.14c2.5,3,6.5,1.5,6.5,1.5C272.75,234.79,268.5,189.04,268.5,189.04z M255.96,199.92C255.93,200.18,255.94,200.15,255.96,199.92L255.96,199.92z M256.22,197.67c0.03-0.3,0.07-0.64,0.11-1.01C256.29,197.01,256.25,197.35,256.22,197.67z M256.82,192.32c0.06-0.55,0.11-0.99,0.14-1.26C256.91,191.5,256.87,191.92,256.82,192.32z M265.33,190.26c-0.04-0.16-0.09-0.37-0.16-0.62c-0.13-0.5-0.31-1.2-0.54-2.1c0.22,0.86,0.4,1.58,0.54,2.1C265.24,189.9,265.29,190.1,265.33,190.26C265.47,190.79,265.48,190.83,265.33,190.26z"/><path fill="#ce7952" d="M125.25,227.25c4.5-6.5,6.97-8.84,12.65-10c4.87-0.99,13.28-2.45,17.35-5.75c9.63-7.79,13.17-20.35,5.59-28.43c-4.32-4.6-7.03-7.3-13.05-8.81c-4.83-1.22-11.04-2.16-15.05-6.1c-7.84-7.69-11.29-20.73-10.82-31.2c0.41-8.95,9.17-18.79,15.15-24.83c7.04-7.12,15.71-14.12,23.72-20.42c-40.38,8.84-54.04,42.51-54.04,42.51c-9,12.5-4,61.55-4,61.55c-21-12.95-1.5,45.45-1.5,45.45c5,13.5,8,1,8,1c2.89,12.7,6.64,23.46,10.93,32.59c-0.78,38.87,1.32,70.54,1.15,83.21c7.79,0.1,53.6-30.51,61.45-32.32C179.16,318.81,113.75,264.75,125.25,227.25z"/><g class="eyes eyes-22"><path fill="#ffffff" fill-opacity="0.7" d="M154.4,199.38c-0.35-0.22-1.24-0.49-2.31-0.74c1.16,1.56,1.17,4.28,0.66,6.12c-0.5,1.82-3.27,3.8-5.12,4.38c2.18,0.33,5.62-0.3,7.87-0.5c2.81-0.25,5.73-1.07,8.58-1.02C163.46,206.09,159.25,202.38,154.4,199.38z"/><path fill="#ffffff" fill-opacity="0.7" d="M138.63,204.16c-0.14-0.27-0.23-0.59-0.29-0.91c-0.57-1.07-0.48-2.23-0.01-3.3c0.01-0.11,0.01-0.22,0.02-0.33c-1.12,0.33-2.18,0.77-3.12,1.41c-1.11,0.75-3.23,1.5-3.73,2.73l0.13-0.13c1.19,0.51,2.19,1.5,3.15,2.24c1.52,1.17,4.27,1.85,6.1,2.11c0.77,0.11,1.47,0.22,2.15,0.34c-0.57-0.37-1.13-0.79-1.67-1.25C140.34,206.22,139.24,205.35,138.63,204.16z"/><path fill="#3d270f" d="M152.75,204.75c0.51-1.83,0.5-4.56-0.66-6.12c-2.05-0.49-4.78-0.94-5.84-0.89c-2.3,0.11-4.4,1.04-6.6,1.53c-0.38,0.09-0.76,0.18-1.13,0.29c-0.03,0.05-0.05,0.1-0.07,0.14l-0.01-0.12c-0.03,0.01-0.06,0.02-0.09,0.03c-0.01,0.11-0.01,0.22-0.02,0.33c-0.47,1.07-0.56,2.23,0.01,3.3c0.06,0.32,0.15,0.63,0.29,0.91c0.61,1.2,1.72,2.07,2.73,2.92c0.54,0.46,1.1,0.88,1.67,1.25c1.5,0.26,2.89,0.55,4.61,0.81C149.48,208.55,152.25,206.57,152.75,204.75z"/><path fill="#ffffff" fill-opacity="0.7" d="M226.5,204.53c-1.93-1.7-3.74-2.98-6.17-3.97c0.34,0.4,0.63,0.8,0.83,1.16c0.64,1.21,0.51,3.53,0.12,4.81c-0.53,1.75-1.52,3.81-3.4,4.57c-1.8,0.73-5.55,0.03-7.03-0.95c-1.53-1.01-3.02-2.34-3.84-3.96c-0.47-0.92-0.89-1.94-1-2.94c-0.14-1.33,0.44-2.36,0.59-3.57c-0.37,0.2-0.73,0.41-1.12,0.66c-1.2,0.75-2.76,1.11-3.97,1.91c-1.61,1.08-2.58,3.07-3.81,4.53c0.65,0.42,1.48,0.79,1.97,1.2c1.05,0.27,2.21,0.96,3.23,1.39c2.06,0.85,4.13,1.04,6.28,1.67c1.38,0.4,2.66,0.68,4.1,0.72c1.68,0.05,3.7-0.08,5.38-0.25c4.42-0.44,5.44-5.37,9.83-5.62C227.81,205.39,227.12,205.08,226.5,204.53z"/><path fill="#3d270f" d="M206,203.25c0.11,1.01,0.53,2.03,1,2.94c0.83,1.62,2.32,2.95,3.84,3.96c1.48,0.98,5.23,1.68,7.03,0.95c1.88-0.76,2.87-2.82,3.4-4.57c0.39-1.28,0.52-3.59-0.12-4.81c-0.19-0.36-0.48-0.76-0.83-1.16c-0.16-0.06-0.31-0.13-0.47-0.19c-2.21-0.84-4.77-0.91-7.11-1.25c-1.33-0.19-2.58-0.28-3.94-0.15c-0.62,0.06-1.13,0.21-1.61,0.41c-0.2,0.21-0.39,0.42-0.58,0.61v-0.34c-0.01,0.01-0.02,0.01-0.04,0.02C206.44,200.89,205.86,201.92,206,203.25z"/></g><g class="eyebrows eyebrows-8"><path fill="#281312" fill-opacity="0.6" d="M117.11,181.74c3.68-2.79,4.84-7.13,9.1-9.39c4.44-2.35,10.33-1.92,14.9-0.72c5.35,1.4,5.77,4.63,9.6,8.01c3.06,2.7,6.94,4.66,10.23,7.24c-4.69,3.2-16.11-7.27-21.82-8.15c-8.78-1.34-13.18,5.82-21.92,5.44c-0.09-0.85-0.28-2.07-0.08-2.92"/><path fill="#281312" fill-opacity="0.6" d="M198.11,184.24c11.1-4.78,31.28-20.26,39.9-3c0.96,1.92,4.57,7.27,2.61,8.54c-2.07,1.34-6.75-3.96-8.51-5.04c-6.37-3.91-15.53-1.52-21.64,0.39c-2.89,0.9-12.37,4.73-12.8-0.81c1.17-0.08,2.77-0.34,3.94-0.08"/></g><g class="chin chin-12"><path fill="none" stroke="#ce7952" stroke-miterlimit="10" d="M147.5,308c2.12,3.96,6.16,7.63,10.06,10.2c5.31,3.51,9.54,4.8,15.94,5.05c5.59,0.22,11.48,1.14,17.08,0.51c4.62-0.52,9.36-3.3,12.93-6.06c1.94-1.49,3.41-3.58,5.03-5.43c1.64-1.87,3.77-3.4,4.71-5.52"/></g><g class="hair hair-11"><linearGradient id="hair_56e8470a740b2" gradientUnits="userSpaceOnUse" x1="178.3511" y1="214.4145" x2="180.4139" y2="146.8902"><stop offset="0" style="stop-color:#281312;stop-opacity:0.1"/><stop offset="1" style="stop-color:#281312"/></linearGradient><path fill="url(#hair_56e8470a740b2)" fill-opacity="0.8" d="M257.1,191.8c2.4-21,0-33,0-33c-16.8-65.6-65.8-69.4-76.8-69.4c-0.7,0-1.4,0-2.2,0.1c-54,1.4-71.5,44.6-71.5,44.6c-9,12.5-4,61.5-4,61.5c0.6,7.9,4.9,14.7,7.9,20.2c0,0-1.5-32.7,1-41.7c0,0,16.5-21.4,9.8-46.4c0,0,42.6-3.1,69.9-5.6c0,0,35.3-2,42.8,6c0,0-4,18,3.5,34c0,0,12,20.5,14,39.5L257.1,191.8z"/></g><g class="nose nose-18"><path fill="#c9744d" d="M186.01,198.89c-0.17,1.53-0.26,3.95-0.49,5.46c-0.58,3.86,0.9,6.29,0.88,10.24 c-0.02,6.65,6.48,12.91,4.38,19.46c-5.2-0.71-6.56-12.33-6.95-16.23c-0.33-3.31-1.14-7.11-1.01-10.49 c0.11-2.91,1.43-6.24,2.54-9.75C185.35,197.6,186.24,196.78,186.01,198.89z"/><path fill="#a14c25" d="M172,242.83c-2.06,0.37-6.05,2.25-5.47,4.97c1.36,0.29,3.74-1.15,4.97-1.65c1.45-0.59,3.06-1.74,3.15-3.46c-0.99-0.62-2.05-0.31-2.8,0.47"/><path fill="#a14c25" d="M192,243.83c-1.02-0.46-6.93-1.73-4.51,1.46c1.04,1.36,5.27,1.16,6.87,1.2c-0.52-0.61-1.66-2.17-2.36-3"/><path fill="none" stroke="#c46f48" stroke-miterlimit="10" d="M165.99,233.06c-2.27,2.02-4.23,4.18-6.21,6.46c-2.24,2.59-2.98,4.87-1.05,7.82c0.96,1.48,1.55,2.79,3.43,3.01c1.49,0.17,3.03,0.08,4.53,0.03c2.22-0.07,4.08-1.15,6.07-1.4c1.49-0.18,2.87,0.79,4.09,1.3c1.49,0.63,2.86,1.62,4.53,1.53c1.34-0.07,2.67-0.75,3.97-1.02c4.41-0.94,8.73,0.73,13.15-0.09c3.16-0.59,6.12-1.65,5.98-5.27c-0.13-3.29-2.46-5.3-4.49-7.49c-1.9-2.05-4.82-3.87-6.09-6.38c-1.5-2.96-4.11-5.49-4.96-8.72"/></g><g class="mouth mouth-17"><path fill="#F3D6B2" d="M160.53,269.64c-2.24-0.17-0.45,2.01,0.25,2.63c0.92,0.82,1.74,1.46,2.69,2.23c1.26,1.02,2.64,1.33,4.19,1.78c0.95,0.28,1.92,0.5,2.87,0.77c0.91,0.26,1.85,0.25,2.73,0.47c0.84,0.21,1.5,0.83,2.36,1.04c1.72,0.42,3.42,0.57,5.16,0.88c1.13,0.2,2.28,0,3.4,0.23c1.37,0.27,2.85,0.56,4.23,0.38c1.88-0.24,3.51-1.17,5.16-1.98c0.8-0.39,1.44-0.41,2.09-1.03c0.68-0.65,1.04-1.06,1.89-1.5c1.34-0.7,2.36-1.1,3.05-2.45c0.35-0.67,0.67-1.19,0.64-1.96c-0.06-1.65-2.53-2.56-3.78-3.39c-2.75-1.82-5.97-2.96-9.24-3.44c-2.5-0.36-4.51,0.05-6.85,0.6c-3.88,0.91-7.87,0.9-11.73,1.85c-1.34,0.33-2.76,0.24-4.04,0.73c-1.29,0.48-2.45,0.96-3.62,1.67c-0.54,0.33-0.96,0.59-1.61,0.56"/><path fill="#532316" d="M159.65,272.27c0.96-0.66,1.9-0.46,3.03-0.71c1.09-0.24,1.77-0.95,3.02-0.96c1.43-0.01,2.5,0.06,3.9-0.22c1.4-0.28,2.47,0.4,3.87-0.03c2.35-0.72,5.33-0.46,7.76-0.22c0.37,0.04,0.81,0.29,1.11,0.31c0.49,0.03,1.15-0.23,1.71-0.23c1.18,0,2.38-0.31,3.54-0.24c1.71,0.1,3.65-0.2,5.22,0.24c1.08,0.3,2.13,1.01,3.22,1.04c0.98,0.02,2.06,0.2,3.05,0.4c0.99,0.2,1.78,0.52,2.87,0.48c0.65-0.02,1.47-0.03,1.61-0.68c0.37-1.67-2.43-2.5-3.46-2.85c-2.06-0.71-4.05-1.49-6.18-1.98c-1.27-0.29-2.46-0.88-3.77-0.94c-1.15-0.05-2.34-0.05-3.49,0c-2.01,0.08-4.18,0.24-6.17,0.5c-1.89,0.24-3.77,0.18-5.68,0.32c-1.56,0.11-3.14,0.44-4.68,0.7c-1.55,0.26-3.14,0.36-4.68,0.64c-1.15,0.21-2.36,0.47-3.48,0.72c-1.62,0.36-4.6,2.54-2.23,3.83"/><path fill="#a7696a" fill-opacity="0.9" d="M152.24,270.12c0.86,0.53,3.78,3.75,4.47,4.6c1.44,1.79,2.96,3.32,4.62,4.9c1.09,1.04,2.03,2.53,3.35,3.33c0.94,0.56,1.9,1.21,2.88,1.73c1.82,0.98,4,1.76,6.07,2.01c1.21,0.15,2.37,0.01,3.56,0.16c1.32,0.17,2.47,0.37,3.83,0.31c1.62-0.06,7.56-0.45,8.74-1.28c0.8-0.56,1.81-0.67,2.64-1.17c0.86-0.52,1.8-1.2,2.64-1.83c2.05-1.52,4.16-3.07,5.84-5.05c0.91-1.07,4.51-4.06,4.9-4.85c0.29-0.58,1.93-2.27,2.07-2.87c0.11-0.48-2.12-0.46-1.92-0.94c-0.82,0.17-1.57,1.09-2.4,1.48c-1.06,0.5-2.2,0.99-3.33,1.33c-1.53,0.46-2.88,1.28-4.17,2.19c-0.95,0.68-1.95,1.22-2.93,1.91c-0.96,0.68-5.32,2.25-6.51,2.37c-2.55,0.26-4.85-0.29-7.41-0.38c-2.64-0.09-4.69-0.94-7.23-1.66c-2.58-0.73-4.83-1.17-7.11-2.41c-0.88-0.48-1.62-1.12-2.55-1.53c-1.02-0.45-1.89-0.95-2.72-1.52c-1.4-0.95-3-1.1-4.71-1.18c-0.73-0.04-1.38-0.13-1.83,0.48"/><path fill="#c9744d" d="M151.92,269.96c1.22,0.2,2.52-1.94,3.38-2.67c0.87-0.74,1.97-1.58,3.02-2.08c2.07-0.97,4.83-2.17,7.13-2.42c2.82-0.31,5.72-0.27,8.56-0.67c1.43-0.2,2.68-0.54,4.06,0.16c0.63,0.32,0.98,0.82,1.72,0.99c0.95,0.22,1.86-0.28,2.74-0.49c2.33-0.54,4.72-0.98,7.13-0.62c2.58,0.38,5.23,1.53,7.74,2.22c2.27,0.63,4.3,2.02,6.61,2.71c1.47,0.44,3.52,1.13,4.12,2.82c-1.38,1.75-6.15,2.13-8.27,1.8c-2.41-0.38-4.78-1.88-7.13-2.43c-2.69-0.63-5.95-0.32-8.8-0.28c-1.67,0.02-18.77,1.07-20.87,1.79c-1.27,0.44-3.7,0.52-5.77,0c-1.09-0.27-5.04,0.34-5.38-0.67"/></g></svg>