<svg id="s5a4017d21322b" class="face" xmlns="http://www.w3.org/2000/svg" xmlns:xlink="http://www.w3.org/1999/xlink" x="0px" y="0px" width="357px" height="358px" viewBox="0 0 357 358"><path fill="#885c43" d="M268.5,189.04c-1.41-1.92-2.86-2.74-4.22-2.91c-3.96-0.47-7.28,4.62-7.28,4.62c2.38-21.04,0-32.96,0-32.96c-16.83-65.56-65.84-69.37-76.8-69.39c-0.71,0.02-1.44,0.04-2.2,0.06c-54,1.42-71.5,44.58-71.5,44.58c-9,12.5-4,61.55-4,61.55c-21-12.95-1.5,45.45-1.5,45.45c5,13.5,8,1,8,1c2.88,12.67,6.63,23.41,10.9,32.53c0.85,44.99,1.74,68.73,1.44,83.43c23.33,0,116.79,0,123.83,0l1.52-85.32c6.58-17.33,7.31-32.14,7.31-32.14c2.5,3,6.5,1.5,6.5,1.5C272.75,234.79,268.5,189.04,268.5,189.04z M255.96,199.92C255.93,200.18,255.94,200.15,255.96,199.92L255.96,199.92z M256.22,197.67c0.03-0.3,0.07-0.64,0.11-1.01C256.29,197.01,256.25,197.35,256.22,197.67z M256.82,192.32c0.06-0.55,0.11-0.99,0.14-1.26C256.91,191.5,256.87,191.92,256.82,192.32z M265.33,190.26c-0.04-0.16-0.09-0.37-0.16-0.62c-0.13-0.5-0.31-1.2-0.54-2.1c0.22,0.86,0.4,1.58,0.54,2.1C265.24,189.9,265.29,190.1,265.33,190.26C265.47,190.79,265.48,190.83,265.33,190.26z"/><path fill="#83573e" d="M125.25,227.25c4.5-6.5,6.97-8.84,12.65-10c4.87-0.99,13.28-2.45,17.35-5.75c9.63-7.79,13.17-20.35,5.59-28.43c-4.32-4.6-7.03-7.3-13.05-8.81c-4.83-1.22-11.04-2.16-15.05-6.1c-7.84-7.69-11.29-20.73-10.82-31.2c0.41-8.95,9.17-18.79,15.15-24.83c7.04-7.12,15.71-14.12,23.72-20.42c-40.38,8.84-54.04,42.51-54.04,42.51c-9,12.5-4,61.55-4,61.55c-21-12.95-1.5,45.45-1.5,45.45c5,13.5,8,1,8,1c2.89,12.7,6.64,23.46,10.93,32.59c-0.78,38.87,1.32,70.54,1.15,83.21c7.79,0.1,53.6-30.51,61.45-32.32C179.16,318.81,113.75,264.75,125.25,227.25z"/><g class="eyes eyes-2"><path fill="#ffffff" fill-opacity="0.7" d="M126.5,210.5c2.81,0.68,5.07,2.41,7.83,2.96c2.77,0.55,5.03,0.2,7.83,0.2c5.21,0.01,11.24-0.49,13.94-5.5c-2.65-1.28-5.08-2.56-8.09-3.18c-2.91-0.6-4.69-1.94-8.1-1.62c-2.42,0.23-5.64,1.2-7.7,2.33c-1.03,0.57-2.08,1.42-3.09,2.09c-0.77,0.51-3.44,1.54-1.95,2.54"/><path fill="#ffffff" fill-opacity="0.7" d="M198.33,208.67c1.55,0.8,2.67,2.38,4.17,3.34c1.33,0.85,2.97,1.33,4.5,1.83c2.69,0.87,5.48,0.66,8.33,0.66c2.91,0,5.66,0.02,8.38-0.82c1.53-0.47,5.29-1.01,5.94-2.68c-1.28-0.62-2.55-0.95-3.78-1.67c-1.18-0.69-2.16-1.7-3.37-2.5c-2.64-1.76-5.22-2.03-8.38-2.32c-2.9-0.27-6.6-1.19-9.58-0.47c-1.7,0.41-6.71,3.26-5.54,5.14"/><path fill="#3d270f" d="M134.5,205.5c-0.72,2.94,0.68,5.42,2.96,7.2c2.33,1.82,5.24,1.01,7.74-0.66c1.73-1.16,4.89-4.57,2.92-6.83c-1.55-1.78-6.41-1.49-8.62-1.55c-1.11-0.03-6.91,1.76-5.5,3.5"/><path fill="#3d270f" d="M208.17,205.17c-1.87,2.2-3.55,3.97-1.89,6.94c2.03,1.46,6.15,2.68,8.9,1.61c0.82-0.32,2.23-1.44,2.78-2.2c0.63-0.88,1.73-3.62,1.31-4.63c-1.05-2.52-6.23-2.38-8.44-2.38c-3.18,0-5.8,1.74-5.33,5.3c0.08,0.63,0.15,1.12,0.67,1.54"/></g><g class="eyebrows eyebrows-3"><path fill="#0e0e0c" fill-opacity="0.7" d="M194.58,187.67c1.3-1.97,2.42-3.64,4.49-4.98c1-0.65,1.66-0.79,2.86-0.84c0.53-0.02,1.37-0.5,2.04-0.54c0.43-0.02,0.77,0.14,1.28,0.19c1.4,0.15,2.77-0.26,3.9-0.91c0.64-0.37,1.54-0.73,2.27-0.76c1.18-0.05,2.77-0.15,3.93,0.15c0.65,0.17,1.24,0.41,2.07,0.26c0.78-0.14,1.48-0.5,2.27-0.58c1.43-0.14,2.23,0.86,3.65,1c4.15,0.42,7.04,3.4,10.23,5.89c1.79,1.39,3.05,2.91,4.29,4.7c0.25,0.36,0.71,0.69,0.9,1.06c0.15,0.28,0.17,0.63,0.33,0.91c0.13,0.22,0.52,0.44,0.6,0.69c0.21,0.66-0.1,0.4-0.36,0.94c-0.22,0.45-0.23,0.9-0.01,1.39c-0.23,0.11-1.15,0.04-1.32-0.14c-0.32-0.33-0.06-0.82-0.32-1.19c-0.36-0.52-1.17-0.35-1.61-0.6c-0.4-0.23-0.53-0.78-0.81-1.12c-0.48-0.57-1.27-0.96-1.93-1.36c-0.89-0.54-1.7-1.23-2.63-1.68c-0.53-0.26-0.98-0.23-1.56-0.33c-0.58-0.1-1.11-0.37-1.64-0.69c-1.2-0.71-2.02-1.83-3.41-2.06c-0.91-0.15-1.85-0.19-2.77-0.31c-1.12-0.15-2.06,0.43-3.21,0.31c-0.83-0.08-1.97-0.48-2.78-0.32c-0.43,0.09-0.84,0.58-1.23,0.76c-0.64,0.29-1.47,0.5-2.17,0.56c-0.92,0.09-1.72-0.16-2.62-0.17c-0.53,0-1.2-0.1-1.72,0c-0.72,0.13-1.36,0.61-2.07,0.59c-0.73-0.02-1.42-0.36-2.19-0.11c-0.41,0.14-0.67,0.51-1.15,0.67c-0.67,0.22-1.45,0.24-2.14,0.27c-0.33,0.02-0.77-0.08-1.1-0.01c-0.33,0.08-0.6,0.42-0.92,0.51c-0.62,0.17-4.54-0.52-3.77-2.01c0.06-0.12,0.45-0.3,0.59-0.33"/><path fill="#0e0e0c" fill-opacity="0.7" d="M122.42,194.75c0.14-0.88,1.48-1.64,2.07-2.35c0.29-0.35,0.5-0.77,0.76-1.15c0.17-0.25,0.38-0.45,0.54-0.71c0.68-1.09,1.41-1.41,2.41-2.2c0.83-0.66,1.53-1.59,2.41-2.25c0.98-0.73,2.13-1.24,3.23-1.82c0.65-0.34,1.71-1.5,2.43-1.57c0.55-0.05,0.41,0.27,0.81,0.38c0.43,0.12,0.77-0.07,1.1-0.13c1.77-0.32,3.51-1.12,5.32-1.02c0.95,0.05,1.86,0.44,2.84,0.42c0.72-0.02,1.53-0.17,2.27-0.31c1.15-0.23,2.18-0.52,3.4-0.52c1.09,0,1.76,0.37,2.84,0.58c1.27,0.25,2.4-0.04,3.66-0.17c1.23-0.13,2.44,0.35,3.62,0.59c1.51,0.32,2.99,0.63,4.41,1.35c1.08,0.54,1.77,1.55,2.79,2.15c0.9,0.52,1.42,1.14,2.03,1.99c0.68,0.95,1.54,1.32,1.76,2.51c-1.38,0.37-2.25-0.42-3.57-0.59c-0.62-0.08-1.2-0.31-1.79-0.33c-0.69-0.03-1.4,0.32-2.08,0.42c-0.88,0.13-1.86,0.13-2.74,0c-0.28-0.04-0.66-0.25-0.94-0.24c-0.44,0.02-0.99,0.28-1.5,0.32c-1,0.09-1.82-0.05-2.73-0.17c-0.56-0.08-1.15,0.05-1.72-0.01c-0.77-0.08-1.45-0.53-2.2-0.57c-0.74-0.03-1,0.38-1.62,0.65c-0.54,0.23-1.06,0.17-1.66,0.19c-1.34,0.03-2.7,0.61-3.93,1.08c-1.11,0.42-2.02,0.39-3.15,0.6c-1.5,0.29-2.94,0.63-4.5,0.65c-1.43,0.02-2.4,0.46-3.74,0.94c-0.96,0.34-1.35,1.03-2.09,1.64c-1.13,0.93-2.49,1.74-3.69,2.5c-0.95,0.6-0.9,1.25-1.49,2.16c-0.76,1.17-1.69,1.53-2.66,2.42c-0.59,0.54-1.63,1.82-2.48,0.99c-0.56-0.55,0.01-0.81,0.06-1.4c0.05-0.66-0.33-1.13-0.58-1.68c-0.56-1.27-0.79-4.32,0.17-5.5"/></g><g class="hair hair-18"><path fill="#0e0e0c" fill-opacity="0.2" d="M257.1,158.8c-16.8-65.6-65.8-69.4-76.8-69.4c-0.7,0-1.4,0-2.2,0.1c-54,1.4-71.5,44.6-71.5,44.6c-8.1,11.2-4.9,51.7-4.1,60l2,0.9c0,0-3.9-41.7,16.3-52.7c0,0-4.3-17.9,6.4-26.9c0,0,14.6,6.2,31.8,8.2c17.2,2,24.9,2,27.9,0c0,0,24.5-2.3,30.9-5.1l16.3-1.2c0,0,8.6,7.8,11.2,30.4c0,0,17,12.1,8.8,47.2l3.2-3.8C259.5,170.5,257.1,158.8,257.1,158.8z"/></g><g class="facial-hair facial-hair-1002"><path fill="#0e0e0c" fill-opacity="1" d="M255.96,259.57c0.56-5.75-0.79-11.59-0.47-17.4c0.22-4.05,0.89-7.92,0.33-11.92c-0.27-1.92,1.8-30.46,1.18-32.25c-3.91,4.49-6.75,32.59-8.75,38c-1.18,3.21-3.09,10.98-4.9,13.9c-2.95,4.76-6.67,8.05-10.56,11.93c-3.54,3.53-8.03,5.87-11.46,9.45c-0.15-3.8-4.1-7.46-6.99-9.41c-1.79-1.2-3.8-1.93-5.46-3.25c-1.3-1.04-2.57-1.83-3.88-2.83c-2.13-1.63-4.69-2.75-7.04-3.91c-1.29-0.64-2.68-0.48-4.08-0.91c-1.47-0.45-6.93-2.23-9.06-1.65c-2.47,0.68-3.84,0.99-5.69,2.16c-1.48-1.5-3.08-0.46-4.12-2.31c-2.67,1-10.65,2.73-13.38,3.7c-3.87,1.38-6.51,3.95-9.78,6.25c-2.46,1.73-5.25,3.54-7.05,6.01c-2.05,2.82-1.07,6.11-2.5,9.03c-0.23,0.46-0.35,0.89-0.65,1.32c-0.92-0.69-1.06-2.51-1.64-3.58c-0.58-1.08-1.53-2.43-2.42-3.27c-1.46-1.38-3.36-2.25-5.09-3.27c-3.32-1.97-5.28-5.51-8.16-7.96c-2.61-2.22-4.8-5.53-6.36-8.59c-1.54-3.03-0.97-5.02-0.97-8.58c0-1.8-1.63-3.08-2.14-4.62c-0.62-1.86-0.38-3.47-0.36-5.46c0.02-2.37,0.55-4.64-0.67-6.67c-0.83-1.39-10.6-24.95-10.71-26.62c0.03,2.02,3.72,27.24,4,29.25c0.45,3.29,1.96,8.9,2,12.25c0.06,5.96-0.17,2.59,0.88,8.25c1.11,6.04,4.12,9.66,4.63,15.75c0.48,5.77,1.21,10.28,3.05,15.8c1.75,5.25,2.73,10.72,5.11,15.83c0.8,1.72,1.68,3.15,2.87,4.54c1.72,2.01,4.87,2.54,5.96,4.82c0.59,1.24,0.47,2.86,1.33,4.01c0.58,0.78,1.64,1.38,2.41,2.04c2.28,1.96,2.95,3.13,4.15,6.07c1.9,4.69,4.19,6.74,8.69,8.84c2.11,0.98,4.71,2.18,7.02,2.51c1.25,0.18,2.3,0,3.43,0.37c1.14,0.37,2.18,0.87,3.4,1.13c6.09,1.31,12.14,2.75,18.22,3.87c2.4,0.44,4.31-0.2,6.74-0.2c3,0,6,0,9,0c3.36,0,6.49,0.1,9.73-0.82c3.29-0.94,6.69-3.24,9.73-4.82c0.95-0.49,1.67-1.24,2.63-1.69c0.64-0.3,1.47-0.3,2.06-0.71c1.1-0.75,1.35-2.15,2-3.26c1.26-2.17,2.62-4.76,4.36-6.53c1.26-1.28,2.95-1.81,4.44-2.81c1.26-0.84,2.49-1.9,3.68-2.82c3.13-2.42,17.24-26.59,17.84-28.79c0.53-1.95,1.84-6.31,1.5-8.25c-0.37-2.12,0.63-3.92,1.13-6.13C255.55,263.5,255.77,261.54,255.96,259.57z M213,282.34c-0.52,2.51-1.46,4.54-2.67,6.86c-0.85,1.62-1.63,3.14-2.63,4.5c-1.05,1.43-2.21,2.23-3.75,3.34c-1.91,1.37-4.06,1.92-5.99,3.16c-2.39,1.54-4.13,1.2-6.83,0.96c-1.89-0.16-4.08,0.04-5.15-1.7c-0.95-1.56-0.46-3.2,0.3-4.62c0.65-1.22,2.28-2.58,2.21-3.84c-0.1-1.82-2.19-1.58-3.68-1.5c-2.91,0.14-5.69-0.33-8.63-0.33c-2.25,0-5.11-0.15-3.39,2.71c1.23,2.05,2.18,4.59,3.2,6.8c0.59,1.28-0.3,2.69-1.96,3.3c-2.73,1.01-6.01-1.96-7.89-3.49c-2.2-1.8-4.18-3.85-6.53-5.44c-2.22-1.5-4.24-3.01-6.23-4.86c-1.73-1.61-2.34-3.69-3.1-5.84c-0.44-1.26-0.94-2.46-1.29-3.67c-0.42-1.44-0.36-3.18-1-4.5l0.17,0.33c-0.3-2.02,1.98-3.53,3.03-5c1.03-1.43,1.1-3.41,2.29-4.7c1.18-1.27,3.36-1.65,4.91-1.99c3.48-0.76,7.07-0.83,10.59-1.48c4.8-0.88,9.82-1.81,14.72-0.99c4.42,0.74,8.71,0.03,13.08,1.33c0.85,0.25,1.69,0.41,2.54,0.78c1.55,0.67,3.78,0.68,5.32,1.57c0.88,0.51,1.3,0.94,2.17,1.3c0.77,0.32,1.69,0.5,2.5,0.91c1.88,0.95,2.78,1.42,3.41,3.59c0.54,1.85,1.66,3.58,1.76,5.66C214.62,278.09,213.51,279.86,213,282.34z"/></g><g class="nose nose-16"><path fill="#7e5239" d="M186.01,198.89c-0.17,1.53-0.26,3.95-0.49,5.46c-0.58,3.86,0.9,6.29,0.88,10.24 c-0.02,6.65,6.48,12.91,4.38,19.46c-5.2-0.71-6.56-12.33-6.95-16.23c-0.33-3.31-1.14-7.11-1.01-10.49 c0.11-2.91,1.43-6.24,2.54-9.75C185.35,197.6,186.24,196.78,186.01,198.89z"/><path fill="#562a11" d="M175.336,245.765c-1.109-0.261-1.878-1.531-2.954-2.083c-1.35-0.692-2.585-1.095-4-0.748c-1.036,0.254-2.413,0.743-3.136,1.575c-0.883,1.015,0.082,1.748,1.34,2.167c1.821,0.607,3.883,0.022,5.684,0.126c0.575,0.034,2.594,0.708,2.916,0.592c1.028-0.368,0.385-1.593-0.324-1.831"/><path fill="#562a11" d="M188,246.125c0.997,0.195,1.54-0.929,2.274-1.375c0.798-0.485,1.562-0.544,2.448-0.778c1.207-0.318,3.813-1.057,4.312,0.872c0.683,2.641-7.116,2.219-8.771,2.136c-0.073-0.301-0.024-0.601,0.112-0.855"/><path fill="none" stroke="#794d34" stroke-miterlimit="10" d="M195.5,233.375c1.334-0.088,3.025,2.333,3.844,3.278c1.017,1.175,1.686,2.355,2.126,3.774c0.819,2.645,0.538,5.88-1.748,7.67c-4.308,3.372-8.83,1.707-13.715,1.653c-1.755-0.02-2.239,0.348-3.622,1.285c-1.588,1.076-3.42,1.938-5.357,1.309c-0.758-0.247-1.411-0.894-2.065-1.347c-1.087-0.751-2.1-1.112-3.466-1.377c-1.9-0.369-3.917-0.249-5.847-0.245c-1.425,0.003-3.476,0.087-4.405-1.149c-0.768-1.022-2.494-2.351-0.744-5.226"/></g><g class="mouth mouth-21"><path fill="#EEEDEC" d="M156.98,274.06c-0.12,4,4.78,4.29,7.71,5.09c0.77,0.21,1.42,0.64,2.18,0.88c2.15,0.69,4.55,0.63,6.76,0.99c1.7,0.28,3.42,0.53,5.13,0.81c1.32,0.22,2.77,0.67,4.11,0.55c1.43-0.12,2.74-0.87,4.18-1.08c2.03-0.29,4.17-0.45,6.03-1.38c1.7-0.84,3.38-1.3,5.16-1.91c1.77-0.61,3.68-0.88,5.26-1.98c0.66-0.46,1.17-0.78,1.28-1.65c0.2-1.54-1.12-3.36-2.48-3.96c-1.43-0.63-3.31-0.58-4.84-0.79c-1.25-0.18-2.46-0.53-3.7-0.7c-1.11-0.15-2.25-0.03-3.37-0.16c-2.4-0.27-4.77-0.66-7.18-0.67c-2.63-0.01-5.04-0.13-7.62-0.62c-1.92-0.36-3.69-0.52-5.61-0.2c-1.04,0.17-1.99,0.38-2.98,0.78c-1.26,0.51-2.69,0.77-3.9,1.42c-1.35,0.72-3.09,1.41-4.25,2.34c-0.54,0.44-1.01,1.11-1.4,1.67c-0.53,0.77-0.28,1.15-0.46,1.83"/><path fill="#5F3836" d="M157.61,276.99c-0.02-0.7,0.88-1.23,1.25-1.74c0.38-0.54,0.56-1.09,1.04-1.53c0.76-0.69,1.29-0.57,2.24-0.69c0.51-0.06,0.36-0.07,0.85-0.29c0.44-0.19,0.74-0.28,1.2-0.36c0.99-0.19,2.08-0.27,3.1-0.22c0.93,0.04,1.62-0.12,2.53-0.24c1.24-0.16,2.12,0.43,3.26,0.48c0.76,0.03,1.45-0.2,2.2-0.26c0.98-0.07,2.1-0.26,3.09-0.06c1.18,0.24,2.11,0,3.38,0c0.79,0,1.51,0.17,2.22,0.23c0.76,0.06,1.9-0.22,2.65-0.39c1.1-0.25,1.88-0.07,3,0.23c1.83,0.48,4.58,0.44,6.41,0.35c0.62-0.03,1.2-0.37,1.85-0.26c0.35,0.06,0.58,0.29,0.88,0.38c0.8,0.24,1.7,0.04,2.44,0.51c0.61,0.39,1.27,0.94,1.84,1.4c1.1,0.9,1.57,1.03,2.9,0.15c0.59-0.39,0.94-0.8,1.26-1.41c0.37-0.71,0.59-1.1-0.23-1.51c-1.16-0.57-2.74-0.67-4.01-0.97c-2.69-0.64-5.53-0.16-8.21-0.88c-2.06-0.55-4.29-0.68-6.42-0.77c-1.47-0.07-2.95-0.08-4.43-0.08c-1.53,0-2.92-0.25-4.41-0.4c-2.26-0.22-4.44-0.15-6.69-0.16c-1.82-0.01-3.48,0.61-5.24,0.87c-1.84,0.27-3.67-0.41-5.51-0.14c-1.01,0.15-2.02,0.64-2.95,1.02c-1.84,0.75-3.71,1.51-5.55,2.2c-0.67,0.25-1.31,0.49-0.97,1.37c0.23,0.6,1.06,1.17,1.51,1.6c1.2,1.13,1.96,1.21,3.49,1.1c0.13,0.14,0.05,0.18,0.01,0.31"/><path fill="#74482f" fill-opacity="1" d="M151.75,272.79c0.88,1.26,1.68,2.46,2.26,3.83c0.81,1.94,1.92,2.78,3.3,4.25c2.35,2.5,4.45,5.88,7.65,7.29c1.56,0.69,3.28,1.02,4.83,1.87c1.6,0.87,2.49,1.16,4.44,1.15c4.02-0.01,8.11-0.15,12.1,0.2c6.02,0.53,10.79-3.85,14.93-7.83c3.05-2.94,7.31-7.56,7.39-12.01c-2.96,1.68-5.08,3.03-8.38,3.92c-1.36,0.36-2.69,0.83-4.09,1.15c-1.45,0.33-3.21,0.33-4.67,0.9c-2.85,1.11-6.54,3.07-9.64,3.06c-3.28-0.01-6.78-1.08-9.83-2.09c-3.65-1.21-7.01-1.9-10.79-2.51c-2.52-0.41-7.31-1-9.19-2.85"/><path fill="#7e5239" d="M152.7,273.66c7.69-1.9,20.94-3.27,27.11-3.25c7.63,0.02,10.08,0.39,17.76,1.11c1.71,0.16,7.57,1.15,9.2,0.95c4.54-0.55-1.14-2.53-2.7-3.45c-2.72-1.61-5.66-3.17-8.54-4.36c-3.09-1.27-7.63-2.32-9.2-2.33c-1.73-0.01-8.04-0.3-9.68-0.16c-3.12,0.27-3.18,0.24-6.25,0.24c-2.98,0-17.76,6.6-18.31,9.27C151.89,272.54,151.59,273.83,152.7,273.66"/></g></svg>