<svg id="s57da0c3039df9" class="face" xmlns="http://www.w3.org/2000/svg" xmlns:xlink="http://www.w3.org/1999/xlink" x="0px" y="0px" width="357px" height="358px" viewBox="0 0 357 358"><path fill="#e6a27b" d="M268.5,189.04c-1.41-1.92-2.86-2.74-4.22-2.91c-3.96-0.47-7.28,4.62-7.28,4.62c2.38-21.04,0-32.96,0-32.96c-16.83-65.56-65.84-69.37-76.8-69.39c-0.71,0.02-1.44,0.04-2.2,0.06c-54,1.42-71.5,44.58-71.5,44.58c-9,12.5-4,61.55-4,61.55c-21-12.95-1.5,45.45-1.5,45.45c5,13.5,8,1,8,1c2.88,12.67,6.63,23.41,10.9,32.53c0.85,44.99,1.74,68.73,1.44,83.43c23.33,0,116.79,0,123.83,0l1.52-85.32c6.58-17.33,7.31-32.14,7.31-32.14c2.5,3,6.5,1.5,6.5,1.5C272.75,234.79,268.5,189.04,268.5,189.04z M255.96,199.92C255.93,200.18,255.94,200.15,255.96,199.92L255.96,199.92z M256.22,197.67c0.03-0.3,0.07-0.64,0.11-1.01C256.29,197.01,256.25,197.35,256.22,197.67z M256.82,192.32c0.06-0.55,0.11-0.99,0.14-1.26C256.91,191.5,256.87,191.92,256.82,192.32z M265.33,190.26c-0.04-0.16-0.09-0.37-0.16-0.62c-0.13-0.5-0.31-1.2-0.54-2.1c0.22,0.86,0.4,1.58,0.54,2.1C265.24,189.9,265.29,190.1,265.33,190.26C265.47,190.79,265.48,190.83,265.33,190.26z"/><path fill="#e19d76" d="M125.25,227.25c4.5-6.5,6.97-8.84,12.65-10c4.87-0.99,13.28-2.45,17.35-5.75c9.63-7.79,13.17-20.35,5.59-28.43c-4.32-4.6-7.03-7.3-13.05-8.81c-4.83-1.22-11.04-2.16-15.05-6.1c-7.84-7.69-11.29-20.73-10.82-31.2c0.41-8.95,9.17-18.79,15.15-24.83c7.04-7.12,15.71-14.12,23.72-20.42c-40.38,8.84-54.04,42.51-54.04,42.51c-9,12.5-4,61.55-4,61.55c-21-12.95-1.5,45.45-1.5,45.45c5,13.5,8,1,8,1c2.89,12.7,6.64,23.46,10.93,32.59c-0.78,38.87,1.32,70.54,1.15,83.21c7.79,0.1,53.6-30.51,61.45-32.32C179.16,318.81,113.75,264.75,125.25,227.25z"/><g class="eyes eyes-13"><path fill="#ffffff" fill-opacity="0.7" d="M132.33,199.83c1.11,0.03,3.22-1.89,4.34-2.34c1.76-0.71,3.45-1.13,5.34-1.33c2.77-0.29,6.43-0.69,8.99,0.37c3.64,1.5,6.2,5.23,9.95,6.43c-2.99,0.25-6.11-0.28-9.1,0.07c-2.65,0.3-5.29,1.22-8.02,0.81c-3.56-0.53-8.45-2.35-11.33-4.01"/><path fill="#ffffff" fill-opacity="0.7" d="M205.83,202.5c1.32-3,5.15-2.68,7.86-2.83c3.09-0.17,5.56-0.72,8.6-0.37c3.01,0.34,6.24,0.13,9.04,1.38c2.06,0.91,4.3,2.09,6.29,3.34c-2.41-0.25-5,0.96-7.28,1.48c-3.45,0.79-6.57,1.18-10.18,1.18c-3.14,0-6.57,0.56-9.16-1.33c-1.53-1.12-3.11-2.3-4.5-3.34"/><path fill="#38453e" d="M142.01,196.17c-1.09,0.11-2.11,0.31-3.12,0.59c-0.46,1.23-0.61,2.67-0.2,3.79c0.45,1.24,1.33,2.1,2.29,2.68c1,0.27,1.97,0.48,2.85,0.61c2.35,0.35,4.63-0.28,6.92-0.66c1.36-1.21,2.57-3.08,2.42-5.45c-0.69-0.47-1.4-0.88-2.17-1.2C148.44,195.48,144.78,195.88,142.01,196.17z"/><path fill="#38453e" d="M214.01,199.65c-0.54,1.2-0.53,2.71,0.39,4.19c0.86,1.38,1.88,2.29,3.01,2.89c0.92-0.02,1.84-0.07,2.74-0.07c2.24,0,4.28-0.17,6.34-0.47c1.57-1.1,2.67-2.73,1.51-4.65c-0.52-0.86-1.21-1.48-1.98-1.97c-1.25-0.09-2.51-0.14-3.73-0.28C219.36,198.96,216.95,199.46,214.01,199.65z"/></g><g class="eyebrows eyebrows-5"><path fill="#141615" fill-opacity="0.9" d="M114.25,190.75c1.95-3.04,4.46-5.31,7.01-7.75c2.4-2.31,4.72-2.64,7.94-3.31c2.79-0.58,5.18,0.52,8.06,0.81c3.36,0.33,5.37-1.06,8.18,0.75c-0.12-0.03-0.8-0.08-0.46,0c2.81-0.24,5.11,2.07,7.77,2.25c2.49,0.17,4.97-1.64,7.52-0.75c2.06,0.72,6.02,9.88,1.49,10.51c-1.87,0.26-5.42-2.3-7.56-2.52c-3.24-0.33-5.06-0.96-7.93-2.07c-4.47-1.72-8.45,0.04-12.51,0.58c-3.68,0.49-7.56,1.28-10.99,2.74c-3.5,1.49-7.38,2.51-10.23,4.99c-0.17-2.03,1.95-5.3,2.46-7.48"/><path fill="#141615" fill-opacity="0.9" d="M199.75,189.5c-3.81-3.45,1.92-7.08,4.77-7.79c5.6-1.41,10.93-1.02,16.74-0.71c2.37,0.13,4.53,0.75,7,0.5c1.75-0.18,3.92-1.24,5.76-0.75c1.65,0.43,3.21,2.72,4.69,3.76c1.99,1.4,2.9,2.36,4.24,4.49c1.49,2.36,4.66,3.84,3.27,7.21c-1.88-0.14-3.52-2.41-5.02-3.41c-2.21-1.47-4.85-1.52-7.38-2.11c-3.76-0.88-7.33-1.25-11.29-1.7c-4.63-0.52-7.97,0.13-12.5,0.82c-3,0.46-7.17,2.57-9.76-0.31"/></g><g class="chin chin-15"><path fill="none" stroke="#e19d76" stroke-miterlimit="10" d="M148.17,314.5c2.03,0.92,12.9,9.24,14.52,10c2.37,1.12,15.18,5.5,17.81,6c7.24,1.37,12.83-0.5,19.5-2.83c8.62-3.02,16.75-8.58,20.67-17"/></g><g class="hair hair-15"><path fill="#141615" fill-opacity="0.9" d="M257.1,191.8C257.1,191.8,257.1,191.8,257.1,191.8C257.1,191.7,257.1,191.8,257.1,191.8c2.4-21,0-33,0-33c-16.8-65.6-65.8-69.4-76.8-69.4c-0.7,0-1.4,0-2.2,0.1c-54,1.4-71.5,44.6-71.5,44.6c-6.7,9.3-5.6,41.6-3.9,61.7c0.9-11.7,4.4-35.5,20.9-40.1l0.5-15c0,0,39.3-34.4,116.5,0v17.8c0,0,12.7,0.8,16,31.9C256.7,190.9,257.1,191.3,257.1,191.8z"/></g><g class="nose nose-10"><path fill="#dc9871" d="M186.01,198.89c-0.17,1.53-0.26,3.95-0.49,5.46c-0.58,3.86,0.9,6.29,0.88,10.24 c-0.02,6.65,6.48,12.91,4.38,19.46c-5.2-0.71-6.56-12.33-6.95-16.23c-0.33-3.31-1.14-7.11-1.01-10.49 c0.11-2.91,1.43-6.24,2.54-9.75C185.35,197.6,186.24,196.78,186.01,198.89z"/><path fill="#b47049" d="M171.75,238.75c-2.31-0.23-2.82,2.22-1.75,3.75c1.06,1.52,2.65,2.54,4.63,1.75c5.37-2.13-2.3-8.14-4.63-5.25"/><path fill="#b47049" d="M188.25,238.88c-1.1-0.12-1.74,0.48-2.38,1.22c-0.95,1.11-0.87,1.46,0,2.52c0.62,0.76,1.7,2.12,2.62,2.48c0.87,0.34,2.53-0.15,3.38-0.48c1.85-0.7,3.13-2.9,1.65-4.65c-1.11-1.31-3.66-1.82-5.28-1.22c-0.18,0.07-0.13,0.05-0.25,0.12"/><path fill="none" stroke="#d7936c" stroke-miterlimit="10" d="M167.63,232.25c-1.9,1.11-4.09,2.63-5.16,4.74c-0.86,1.69-0.22,4.64,0.16,6.38c0.45,2.09,2.24,4.18,4.22,5c1.03,0.42,2.72,0.48,3.89,0.5c1.72,0.03,2.24-0.82,3.63-1.26c1.9-0.59,4.9,0.33,6.76,0.62c3.3,0.52,6.46-0.66,9.85-0.37c1.42,0.12,2.4,0.58,3.68,0.03c0.81-0.35,1.47-0.88,2.21-1.4c1.99-1.42,2.59-2.57,3.4-4.75c0.71-1.91,0.58-2.59-0.78-4.29c-1.06-1.33-2.17-2.66-3.49-3.7c-1.22-0.96-2.55-1.87-3.71-3c-0.98-0.95-3.03-2.44-3.54-3.63"/></g><g class="mouth mouth-6"><path fill="#F4E0D0" d="M165.52,269.25c-2.52-1.55-4.95-2.13-7.84-1.54c-1.54,0.31-3.37,1.21-2.3,3.25c0.52,0.99,2.69,2.25,3.52,3.03c1.69,1.6,3.37,2.33,5.54,3.27c3.58,1.55,7.49,1.53,11.4,2.26c2.55,0.48,4.49,0.35,7.1-0.11c4.95-0.88,10.08-0.15,14.63-2.52c3.31-1.73,7.1-2.94,8.04-6.9c-1.91-1.19-6.19-1.33-8.47-0.89c-4.55,0.87-8.7,2.2-13.63,1.51c-4.02-0.56-8.06-1.69-12.23-1.73c-2.29-0.02-5.72,0.36-7.65-0.75"/><path fill="#854B3E" d="M153.33,268.88c1.56,0.95,1.84,0.69,3.03,2.23c1.17-0.71,2.67,0.73,3.76,0.58c1.86-0.26,2.13-0.3,2.96,0.75c-0.52-3.31,5.24-2.96,4.69,0.66c-0.83-3.53,4.78-2.96,4.89,0.08c1.07-0.41,1.24-1.27,2.43-1.66c0.84-0.27,1.64-0.14,2.47-0.05c2.57,0.26,2.17,1.2,3.14,3.18c-0.22-1.79,1.6-3.26,3.01-3.7c2.5-0.78,2.87,0.74,4.63,1.85c0.82-2.57,3.9-1.07,4.93,0.23c0.93-1.02,3.71-4.08,4.81-1.52c-0.25,0.01-0.56,0.03-0.82-0.01c3.16-0.16,8.3,0.67,10.67-2.62c-1.16-0.99-2.75-0.61-4.19-0.8c-1.32-0.17-2.45-0.82-3.72-1.04c-2.9-0.51-6.25,0.37-9.19,0.51c-5.71,0.27-11.04-0.81-16.69,0.23c-2.47,0.46-4.98,0.35-7.5,0.34c-2.38-0.01-4.58,1.12-6.94,0.94c-1.18-0.09-7.72-3-5.81,0.75"/><path fill="#dc9871" d="M151.83,268.5c1.36-0.04,3.47-1.87,4.85-2.45c2.02-0.85,4.04-2.04,6.11-2.75c4.1-1.4,8.67-1.74,13-1.74c4.63,0,8.87,1.07,13.36,1.5c1.58,0.15,2.96,0.53,4.5,0.75c1.62,0.23,3.06-0.16,4.65,0c3.62,0.35,6.81,4.88,10.51,4.91c0.13,0.15,0.41,0.5,0.54,0.68c-4.5,1.47-9.55,1.96-14.38,1.72c-4.14-0.21-8.52,0.43-12.73,0.79c-1.98,0.17-3.94,0.81-5.83,0.9c-2.61,0.12-5.13-0.33-7.7-0.57c-3.3-0.31-6.63-0.67-9.89-1.16c-1.12-0.17-2.67-0.1-3.79-0.47c-1.09-0.35-1.86-1.38-2.81-1.93"/><path fill="#a7696a" fill-opacity="0.9" d="M152.4,269.63c1.64,0.84,2.69,3.11,3.93,4.51c1,1.12,1.69,2.29,2.58,3.41c1.28,1.61,2.92,1.99,4.5,3.19c1.64,1.25,3.19,2.46,5.16,3.46c4.42,2.25,9.71,2.34,14.62,2.82c3.59,0.35,8.7,0.58,11.4-1.83c2.92-2.6,6.12-4.93,8.62-7.92c2.14-2.56,5.07-4.94,5.34-8.3c-1.34,0.05-1.99,0.53-3.04,1.27c-1.29,0.89-2.81,1.45-4.04,2.33c-1.3,0.93-2.29,2.12-3.74,2.85c-2.28,1.16-5.1,1.51-7.66,1.89c-4.13,0.61-7.94-0.6-12.17-0.89c-3.59-0.25-7.55,1.5-10.84-0.09c-2.32-1.13-4.48-3.09-6.98-3.93c-2.73-0.92-4.52-1.42-6.79-3.5c-0.43,0.15-0.85,0.46-1.06,0.87c0.38,0.03,0.32,0.27,0.54,0.42"/></g></svg>