<svg id="s57da0c3511c1e" class="face" xmlns="http://www.w3.org/2000/svg" xmlns:xlink="http://www.w3.org/1999/xlink" x="0px" y="0px" width="357px" height="358px" viewBox="0 0 357 358"><path fill="#d37e57" d="M268.5,189.04c-1.41-1.92-2.86-2.74-4.22-2.91c-3.96-0.47-7.28,4.62-7.28,4.62c2.38-21.04,0-32.96,0-32.96c-16.83-65.56-65.84-69.37-76.8-69.39c-0.71,0.02-1.44,0.04-2.2,0.06c-54,1.42-71.5,44.58-71.5,44.58c-9,12.5-4,61.55-4,61.55c-21-12.95-1.5,45.45-1.5,45.45c5,13.5,8,1,8,1c2.88,12.67,6.63,23.41,10.9,32.53c0.85,44.99,1.74,68.73,1.44,83.43c23.33,0,116.79,0,123.83,0l1.52-85.32c6.58-17.33,7.31-32.14,7.31-32.14c2.5,3,6.5,1.5,6.5,1.5C272.75,234.79,268.5,189.04,268.5,189.04z M255.96,199.92C255.93,200.18,255.94,200.15,255.96,199.92L255.96,199.92z M256.22,197.67c0.03-0.3,0.07-0.64,0.11-1.01C256.29,197.01,256.25,197.35,256.22,197.67z M256.82,192.32c0.06-0.55,0.11-0.99,0.14-1.26C256.91,191.5,256.87,191.92,256.82,192.32z M265.33,190.26c-0.04-0.16-0.09-0.37-0.16-0.62c-0.13-0.5-0.31-1.2-0.54-2.1c0.22,0.86,0.4,1.58,0.54,2.1C265.24,189.9,265.29,190.1,265.33,190.26C265.47,190.79,265.48,190.83,265.33,190.26z"/><path fill="#ce7952" d="M125.25,227.25c4.5-6.5,6.97-8.84,12.65-10c4.87-0.99,13.28-2.45,17.35-5.75c9.63-7.79,13.17-20.35,5.59-28.43c-4.32-4.6-7.03-7.3-13.05-8.81c-4.83-1.22-11.04-2.16-15.05-6.1c-7.84-7.69-11.29-20.73-10.82-31.2c0.41-8.95,9.17-18.79,15.15-24.83c7.04-7.12,15.71-14.12,23.72-20.42c-40.38,8.84-54.04,42.51-54.04,42.51c-9,12.5-4,61.55-4,61.55c-21-12.95-1.5,45.45-1.5,45.45c5,13.5,8,1,8,1c2.89,12.7,6.64,23.46,10.93,32.59c-0.78,38.87,1.32,70.54,1.15,83.21c7.79,0.1,53.6-30.51,61.45-32.32C179.16,318.81,113.75,264.75,125.25,227.25z"/><g class="eyes eyes-12"><path fill="#ffffff" fill-opacity="0.7" d="M128.25,203.25c1.4-2.3,5.02-2.76,7.14-4.35c2-1.5,3.71-2.77,6.39-3.03c1.37-0.13,2.27,0.45,3.49,0.63c1.52,0.23,3.09-0.15,4.61,0.15c2.19,0.43,4.08,1.86,6,2.94c0.92,0.52,1.8,0.97,2.74,1.39c-1.43,2.32-4.53,3.14-6.99,3.64c-2.76,0.56-5.32,1.5-8.14,1.75c-2.74,0.25-4.9-0.87-7.49-1.01c-2.35-0.12-4.01-0.67-6.13-1.37c-0.6-0.2-1.21-0.53-1.74-0.88"/><path fill="#ffffff" fill-opacity="0.7" d="M201.67,202.28c0.42-0.78,1.39-1.43,2.29-1.66c0.67-0.17,1.32-0.37,1.94-0.64c0.73-0.32,1.32-0.81,2.05-1.14c1.33-0.59,2.43-1.56,3.73-2.19c1.09-0.53,2.49-0.74,3.71-0.91c0.83-0.12,1.63-0.16,2.45,0.02c0.73,0.16,1.46,0.1,2.19,0.23c1.26,0.24,2.31,0.46,3.27,1.24c0.78,0.64,1.73,1.04,2.57,1.56c0.61,0.38,1.04,0.91,1.57,1.37c0.41,0.35,0.86,0.62,1.34,0.87c0.39,0.2,0.57,0.39,0.88,0.67c0.54,0.48,1.27,0.8,1.66,1.4c0.13,0.2,0.19,0.43,0.35,0.6c-1.49,0.49-3.08,0.83-4.66,1.06c-0.69,0.1-1.37,0-2.06,0.13c-0.48,0.09-0.98,0.15-1.47,0.23c-2.36,0.4-4.83,0.43-7.23,0.43c-1.64,0-3.31-0.33-4.91-0.65c-1.07-0.22-2.16-0.3-3.23-0.5c-1.59-0.3-3.16-0.87-4.67-1.37c-0.69-0.23-1.21-0.43-1.72-0.88"/><path fill="#1e2420" d="M140,195.75c-2.6,2.35-5.65,5.65-2.56,8.77c2.56,2.58,5.85,2.5,8.58,0.22c2.08-1.74,5.06-5.31,1.8-7.56c-1.55-1.07-8.29-1.78-9.32-0.43"/><path fill="#1e2420" d="M214,196.25c-1.04,1.15-2.43,1.93-2.99,3.43c1.99,5.58,9.32,8.68,13.45,2.75c3.82-5.48-8.98-8.72-11.96-4.93"/></g><g class="eyebrows eyebrows-22"><path fill="#19120c" fill-opacity="0.8" d="M123.3,197.5c0,0,17.1-12.1,40.4-5.6c0.3,0.1,0.6,0.2,0.9,0.2c23.8,7.1-21.5-11.2-28.5-10.9C136,181.2,123.3,192.3,123.3,197.5z"/><path fill="#19120c" fill-opacity="0.8" d="M197.7,192.1c0,0,25-4.4,37.3,3.6c0,0-2-9-11.7-14.5C223.3,181.2,207.9,182.8,197.7,192.1z"/></g><g class="hair hair-5"><path fill="#19120c" fill-opacity="0.3" d="M257,157.79c-16.83-65.56-65.84-69.37-76.8-69.39c-0.71,0.02-1.44,0.04-2.2,0.06c-54,1.42-71.5,44.58-71.5,44.58c-9,12.5-5.86,67.86-3.69,61.08c0.9-2.79,4.14-11.7,4.76-14.53c0.46-2.1,1.22-4.29,1.63-6.47c1.08-5.77,6.35-8.96,8.05-14.38c0.93-2.95,1.28-6.07,2.21-9.2c0.83-2.76,1.84-5.29,1.81-8.29c-0.07-5.82,3.33-11.83,8.67-14.95c4.18-2.44,9.11-3.16,13.46-5.36c3.91-1.98,7.73-3.63,11.85-5.18c16.46-6.18,58.27,0.36,60.26,1.69c2,1.33,4.37,2.42,6.45,3.62c4.46,2.56,9.48,3.91,12.49,8.42c2.63,3.95,0.59,11.74,1.31,15.64c0.54,2.92,7.71,6.53,8.42,9.46c0.73,3.02,3.5,7.92,4.33,10.67c1.06,3.5,8.75,19.53,8.75,22.52c0,0.18,0,0.36,0,0.55C259.19,168.8,257,157.79,257,157.79z"/></g><g class="facial-hair facial-hair-16"><path fill="#19120c" fill-opacity="0.2" d="M108.5,231.2c0,0,13.7,58.7,69.2,80.5c0,0,6.8,1.5,11.1,0c0,0,57.6-12.3,66.1-81.3c0,0,2.2,81.8-66.1,93.2c0,0-8.6,0.4-13.5-0.6C154.3,318.5,110.7,284.2,108.5,231.2z"/></g><g class="nose nose-21"><path fill="#c9744d" d="M186.01,198.89c-0.17,1.53-0.26,3.95-0.49,5.46c-0.58,3.86,0.9,6.29,0.88,10.24 c-0.02,6.65,6.48,12.91,4.38,19.46c-5.2-0.71-6.56-12.33-6.95-16.23c-0.33-3.31-1.14-7.11-1.01-10.49 c0.11-2.91,1.43-6.24,2.54-9.75C185.35,197.6,186.24,196.78,186.01,198.89z"/><path fill="#a14c25" d="M162.63,247.25c1.69-1.11,2.96-2.59,5.26-2c0.68,0.18,3.84,1.33,3.47,2.47c-0.55,1.74-9.18,1.2-8.98-0.47"/><path fill="#a14c25" d="M185,246.13c1.59-0.98,3.93-1.6,5.62-0.72c0.94,0.49,4.06,1.96,2.5,3.07c-1.33,0.95-3.51-0.57-4.65-0.94c-0.77-0.25-1.65-0.11-2.38-0.38c-0.73-0.27-1.56-1.18-0.47-1.66"/><path fill="none" stroke="#c46f48" stroke-miterlimit="10" d="M161.38,230.88c-3.2,3.47-6.95,7.96-5.75,13.12c0.39,1.67,1.64,3.93,3.34,4.66c1.49,0.65,3.62,0.29,5.26,0.61c1.4,0.27,2.54,0.6,4.04,0.72c1.48,0.12,3.37-0.2,4.85,0.13c0.94,0.21,1.67,1.01,2.56,1.41c1.44,0.64,4.01,1.29,5.58,1.22c1.49-0.07,2.46-0.78,3.69-1.47c2.93-1.64,6.72-0.89,9.95-0.78c2.39,0.08,5.64-0.44,7.22-2.26c2.62-2.99-0.16-7.34-1.59-10.34c-1.1-2.3-2.29-2.99-3.88-5.1c-2.03-2.68-4.55-8.49-5.03-11.56"/></g><g class="mouth mouth-6"><path fill="#F4E0D0" d="M165.52,269.25c-2.52-1.55-4.95-2.13-7.84-1.54c-1.54,0.31-3.37,1.21-2.3,3.25c0.52,0.99,2.69,2.25,3.52,3.03c1.69,1.6,3.37,2.33,5.54,3.27c3.58,1.55,7.49,1.53,11.4,2.26c2.55,0.48,4.49,0.35,7.1-0.11c4.95-0.88,10.08-0.15,14.63-2.52c3.31-1.73,7.1-2.94,8.04-6.9c-1.91-1.19-6.19-1.33-8.47-0.89c-4.55,0.87-8.7,2.2-13.63,1.51c-4.02-0.56-8.06-1.69-12.23-1.73c-2.29-0.02-5.72,0.36-7.65-0.75"/><path fill="#854B3E" d="M153.33,268.88c1.56,0.95,1.84,0.69,3.03,2.23c1.17-0.71,2.67,0.73,3.76,0.58c1.86-0.26,2.13-0.3,2.96,0.75c-0.52-3.31,5.24-2.96,4.69,0.66c-0.83-3.53,4.78-2.96,4.89,0.08c1.07-0.41,1.24-1.27,2.43-1.66c0.84-0.27,1.64-0.14,2.47-0.05c2.57,0.26,2.17,1.2,3.14,3.18c-0.22-1.79,1.6-3.26,3.01-3.7c2.5-0.78,2.87,0.74,4.63,1.85c0.82-2.57,3.9-1.07,4.93,0.23c0.93-1.02,3.71-4.08,4.81-1.52c-0.25,0.01-0.56,0.03-0.82-0.01c3.16-0.16,8.3,0.67,10.67-2.62c-1.16-0.99-2.75-0.61-4.19-0.8c-1.32-0.17-2.45-0.82-3.72-1.04c-2.9-0.51-6.25,0.37-9.19,0.51c-5.71,0.27-11.04-0.81-16.69,0.23c-2.47,0.46-4.98,0.35-7.5,0.34c-2.38-0.01-4.58,1.12-6.94,0.94c-1.18-0.09-7.72-3-5.81,0.75"/><path fill="#c9744d" d="M151.83,268.5c1.36-0.04,3.47-1.87,4.85-2.45c2.02-0.85,4.04-2.04,6.11-2.75c4.1-1.4,8.67-1.74,13-1.74c4.63,0,8.87,1.07,13.36,1.5c1.58,0.15,2.96,0.53,4.5,0.75c1.62,0.23,3.06-0.16,4.65,0c3.62,0.35,6.81,4.88,10.51,4.91c0.13,0.15,0.41,0.5,0.54,0.68c-4.5,1.47-9.55,1.96-14.38,1.72c-4.14-0.21-8.52,0.43-12.73,0.79c-1.98,0.17-3.94,0.81-5.83,0.9c-2.61,0.12-5.13-0.33-7.7-0.57c-3.3-0.31-6.63-0.67-9.89-1.16c-1.12-0.17-2.67-0.1-3.79-0.47c-1.09-0.35-1.86-1.38-2.81-1.93"/><path fill="#a7696a" fill-opacity="0.9" d="M152.4,269.63c1.64,0.84,2.69,3.11,3.93,4.51c1,1.12,1.69,2.29,2.58,3.41c1.28,1.61,2.92,1.99,4.5,3.19c1.64,1.25,3.19,2.46,5.16,3.46c4.42,2.25,9.71,2.34,14.62,2.82c3.59,0.35,8.7,0.58,11.4-1.83c2.92-2.6,6.12-4.93,8.62-7.92c2.14-2.56,5.07-4.94,5.34-8.3c-1.34,0.05-1.99,0.53-3.04,1.27c-1.29,0.89-2.81,1.45-4.04,2.33c-1.3,0.93-2.29,2.12-3.74,2.85c-2.28,1.16-5.1,1.51-7.66,1.89c-4.13,0.61-7.94-0.6-12.17-0.89c-3.59-0.25-7.55,1.5-10.84-0.09c-2.32-1.13-4.48-3.09-6.98-3.93c-2.73-0.92-4.52-1.42-6.79-3.5c-0.43,0.15-0.85,0.46-1.06,0.87c0.38,0.03,0.32,0.27,0.54,0.42"/></g></svg>