<svg id="s57da0c386a95e" class="face" xmlns="http://www.w3.org/2000/svg" xmlns:xlink="http://www.w3.org/1999/xlink" x="0px" y="0px" width="357px" height="358px" viewBox="0 0 357 358"><path fill="#be8b70" d="M268.5,189.04c-1.41-1.92-2.86-2.74-4.22-2.91c-3.96-0.47-7.28,4.62-7.28,4.62c2.38-21.04,0-32.96,0-32.96c-16.83-65.56-65.84-69.37-76.8-69.39c-0.71,0.02-1.44,0.04-2.2,0.06c-54,1.42-71.5,44.58-71.5,44.58c-9,12.5-4,61.55-4,61.55c-21-12.95-1.5,45.45-1.5,45.45c5,13.5,8,1,8,1c2.88,12.67,6.63,23.41,10.9,32.53c0.85,44.99,1.74,68.73,1.44,83.43c23.33,0,116.79,0,123.83,0l1.52-85.32c6.58-17.33,7.31-32.14,7.31-32.14c2.5,3,6.5,1.5,6.5,1.5C272.75,234.79,268.5,189.04,268.5,189.04z M255.96,199.92C255.93,200.18,255.94,200.15,255.96,199.92L255.96,199.92z M256.22,197.67c0.03-0.3,0.07-0.64,0.11-1.01C256.29,197.01,256.25,197.35,256.22,197.67z M256.82,192.32c0.06-0.55,0.11-0.99,0.14-1.26C256.91,191.5,256.87,191.92,256.82,192.32z M265.33,190.26c-0.04-0.16-0.09-0.37-0.16-0.62c-0.13-0.5-0.31-1.2-0.54-2.1c0.22,0.86,0.4,1.58,0.54,2.1C265.24,189.9,265.29,190.1,265.33,190.26C265.47,190.79,265.48,190.83,265.33,190.26z"/><path fill="#b9866b" d="M125.25,227.25c4.5-6.5,6.97-8.84,12.65-10c4.87-0.99,13.28-2.45,17.35-5.75c9.63-7.79,13.17-20.35,5.59-28.43c-4.32-4.6-7.03-7.3-13.05-8.81c-4.83-1.22-11.04-2.16-15.05-6.1c-7.84-7.69-11.29-20.73-10.82-31.2c0.41-8.95,9.17-18.79,15.15-24.83c7.04-7.12,15.71-14.12,23.72-20.42c-40.38,8.84-54.04,42.51-54.04,42.51c-9,12.5-4,61.55-4,61.55c-21-12.95-1.5,45.45-1.5,45.45c5,13.5,8,1,8,1c2.89,12.7,6.64,23.46,10.93,32.59c-0.78,38.87,1.32,70.54,1.15,83.21c7.79,0.1,53.6-30.51,61.45-32.32C179.16,318.81,113.75,264.75,125.25,227.25z"/><g class="eyes eyes-11"><path fill="#ffffff" fill-opacity="0.7" d="M148.83,201.33c-2.21-0.02-3.9,1.03-5.83,1.96c-1.33,0.64-4.67,1.73-4.64,3.51c1.45,0.55,2.34,2.11,3.63,2.91c1.58,0.97,3.43,1.02,5.18,1.29c2.9,0.44,5.83,0.09,8.68-0.63c2.64-0.67,5.37-0.23,7.69-1.65c2.87-1.76-1.03-4.23-2.71-5.42c-2.02-1.44-3.31-2.36-5.83-2.46c-2.15-0.08-4.32,0.14-6.33,0.5"/><path fill="#ffffff" fill-opacity="0.7" d="M214.5,203c-2.75-0.67-6.42-0.67-8.84,0.83c-0.91,0.56-2.29,1.61-2.96,2.38c-1.28,1.45-0.55,1.94,0.85,3.09c2.84,2.34,7.06,2.73,10.6,3.25c2.93,0.43,5.21,0.09,7.82-1.42c1.11-0.64,4.52-1.63,5.2-2.63c1.04-1.52-1.64-2.63-2.83-3.21c-1.62-0.78-3.09-1.24-4.84-1.59c-1.83-0.37-4.26-1.09-6.17-0.87"/><path display="inline" fill="#402a13" d="M149.5,200.83c-3.15-0.66-2.99,4.38-2.2,6.17c0.94,2.13,3.69,3.78,6.04,3.83c2.98,0.06,4.71-3.04,5-5.67c0.38-3.45-1.97-4.15-4.84-4.33c-1.15-0.07-5.1-0.63-5.67,0"/><path display="inline" fill="#402a13" d="M212,202.33c-2.94,0.16-5.82,2.57-4.47,5.67c1.04,2.4,3.58,4.37,6.13,4.5c4.42,0.22,10.64-6.87,4.46-9.46c-1.93-0.81-5.16-0.86-7.3-0.7"/></g><g class="eyebrows eyebrows-15"><path fill="#19120c" fill-opacity="0.6" d="M115.8,193c1.7-4.3,4.4-6.6,7.5-9.9c1.1-1.2,2.3-2.3,3.7-3.1c2.4-1.5,5.6-1,8.4-1.1c5.4-0.2,10.6-0.8,15.5,1.7c2.8,1.4,6.5,3.8,8,6.8c2.5,4.9-7.9,0.7-9.2,0c-4.1-2-8.1-3.4-12.8-3.8c-4.3-0.4-7.2,0.7-10.9,2.7c-1.3,0.7-2.3,1.9-3.4,2.8c-1.3,1.1-2.7,1.9-4,2.8c-1.1,0.8-2.4,2.6-3.7,3c-0.3-1.3,0.9-2.9,1.5-3.9"/><path fill="#19120c" fill-opacity="0.6" d="M221,179c-5.6,0.5-11.4-0.3-16.5,2.9c-3.1,1.9-2.4,6.3,0.9,7.2c1.7,0.5,2.5-0.2,4-0.9c1.8-0.9,3.8-1.4,5.7-1.9c3.8-0.9,10.7-4,14.5-1.6c2.7,1.7,5.1,7.7,9,7.1c0.8-2.3-0.4-3.1-2.2-4.8c-1.6-1.5-2.9-3.1-4.5-4.6c-3.2-3-7-3.6-11.3-3.7"/></g><g class="chin chin-14"><path fill="none" stroke="#b9866b" stroke-miterlimit="10" d="M148.75,318c1.85,1.27,4.95,5.06,6.75,6.49c2.86,2.27,8.72,4.76,12.25,5.26c5.44,0.76,7.65,0.09,13.06,0.99c4.16,0.69,10.05-1.05,14.19-1.24c10.29-0.47,16.5-6.16,19.25-15.75"/></g><g class="hair hair-2"><linearGradient id="hair_1_57da0c386b8fc" gradientUnits="userSpaceOnUse" x1="179.6421" y1="200.001" x2="179.6421" y2="88.6089"><stop offset="0" style="stop-color:#be8b70;stop-opacity:0"/><stop offset="0.0796" style="stop-color:#b48166;stop-opacity:0.0905"/><stop offset="0.2438" style="stop-color:#af7c61;stop-opacity:0.2771"/><stop offset="0.476" style="stop-color:#aa775c;stop-opacity:0.5411"/><stop offset="0.6158" style="stop-color:#19120c;stop-opacity:0.7"/><stop offset="1" style="stop-color:#19120c"/></linearGradient><path fill="url(#hair_1_57da0c386b8fc)" fill-opacity="1" d="M109.4,198.14c0.08,0.63,0.17,1.26,0.32,1.86l-0.67-2C109.18,198.04,109.3,198.08,109.4,198.14c-0.4-3.3-0.02-6.9-0.33-10.14c-0.37-3.89-0.85-8.32-0.35-12.27c0.45-3.51,2.21-6.46,3.66-9.4c1.53-3.1,3.57-3.45,5.65-5.84c4.72-5.42-0.34-17.2,2.02-24.17c2.7-7.96,9.64-9.39,16.12-12.99c7.27-4.04,23.58-6.38,32.16-6.29c9.53,0.1,15.27,0.03,24.74,1.28c4.79,0.63,9.58,1.02,14.32,1.68c4.67,0.65,9.11,2.63,13.69,3.99c3.31,0.99,8.3,1.69,11.26,3.41c2.94,1.7,4.6,6.57,5.72,9.61c0.95,2.58,2.27,5.3,2.76,7.98c0.5,2.75-0.54,5.38-0.1,8.02c0.83,5.06,6.68,9.99,8.59,15.08c3.55,9.47,1.02,20.53,3.82,30.21c1.45-1.38,2.64-2.9,3.62-4.55c0.01-0.11,0.02-0.21,0.04-0.32c0.04-0.32,0.07-0.63,0.1-0.91c0.06-0.55,0.11-0.99,0.14-1.26c0.02-0.15,0.03-0.25,0.03-0.29c0-0.01,0-0.01,0-0.02c2.38-21.04,0-32.96,0-32.96c-16.83-65.56-65.84-69.37-76.8-69.39c-0.71,0.02-1.44,0.04-2.2,0.06c-54,1.42-71.5,44.58-71.5,44.58c-9,12.5-4,61.55-4,61.55C101.44,194.11,111.12,199,109.4,198.14z"/></g><g class="nose nose-3"><path fill="#b48166" d="M186.01,198.89c-0.17,1.53-0.26,3.95-0.49,5.46c-0.58,3.86,0.9,6.29,0.88,10.24 c-0.02,6.65,6.48,12.91,4.38,19.46c-5.2-0.71-6.56-12.33-6.95-16.23c-0.33-3.31-1.14-7.11-1.01-10.49 c0.11-2.91,1.43-6.24,2.54-9.75C185.35,197.6,186.24,196.78,186.01,198.89z"/><path fill="#8c593e" d="M160.5,242.83c0.47,1.76,2.76,1.39,4.17,1.67c1.27,0.25,2.54,0.69,3.83,0.96c1.6,0.34,6.19,3.16,7.51,1.25c1.24-1.79-4.14-5.58-5.67-6.26c-3.12-1.38-4.45-0.63-7.33,1.08c-0.81,0.48-2.51,0.69-2.68,1.63"/><path fill="#8c593e" d="M186.83,244.17c-2.19-4.11,13.52-4.56,12.63-1.54c-0.19,0.65-2.54,0.92-3.13,1.04c-1.49,0.29-2.5,0.76-3.85,1.55c-2.64,1.56-3.54,0.66-5.49-1.05"/><path fill="none" stroke="#af7c61" stroke-miterlimit="10" d="M161.67,224.17c-1.22,1.53-2.63,2.46-3.55,4.34c-0.6,1.22-1.12,2.55-1.74,3.69c-1.46,2.69-2.6,5.47-1.89,8.47c0.86,3.59,2.67,5.06,5.72,7.29c0.96,0.7,2.26,1.57,3.45,1.84c1.56,0.35,3.1-0.27,4.67-0.13c2.4,0.21,5.54,1.86,7.2-0.81c2.44-0.85,5.26-0.03,7.81-0.53c1.46-0.29,2.95-0.57,4.53-0.5c1.75,0.08,3.27,0.69,5,0.83c5.59,0.47,11.69-1.64,14.18-6.78c1.22-2.52-0.06-4.44-1.54-6.31c-0.63-0.8-1.39-1.36-1.87-2.24c-0.73-1.34-0.91-4.8-2.64-4.84"/></g><g class="mouth mouth-16"><path fill="#a7696a" fill-opacity="0.9" d="M153.56,268.86c0.93,1.72,2.93,3.03,4.52,4.19c1.92,1.39,3.79,1.78,5.89,2.63c2.94,1.19,6,2.09,9.2,2c1.27-0.04,2.29-0.4,3.4-0.73c1.56-0.47,3.21-0.43,4.89-0.22c3.21,0.41,5.71,1.81,8.88,0.51c1.8-0.74,3.73-1.28,5.39-2.13c3.54-1.81,7.48-4.25,10.6-6.7c-1.22,0.13-3.41-0.67-4.66-0.68c-1.67-0.02-3.03-0.06-4.68-0.28c-2.86-0.39-5.59-0.13-8.47-0.17c-2.59-0.03-5.01-0.78-7.64-0.56c-2.76,0.23-5.51,0.71-8.28,0.97c-2,0.19-4.01,0.29-6.03,0.38c-3.07,0.13-6.32-0.69-9.16,0.29c-1.05,0.36-2.54,1.03-3.61,0.62"/><path fill="#b48166" d="M153.05,268.63c1.64-1.35,3.28-1.87,5.29-2.51c1.19-0.38,2.23-1.14,3.31-1.61c3.73-1.61,8.13-2.84,12.25-2.64c1.47,0.07,2.64,1.06,3.97,1.25c1.73,0.24,2.99-1.23,4.52-1.47c1.93-0.31,4.62,0.66,6.39,1.24c1.96,0.64,3.89,1.69,5.82,2.22c4.05,1.13,8.43,1.62,12.46,2.66c-0.08,1.34-2.13,1.53-3.2,1.75c-1.52,0.31-2.95,0.9-4.46,1.18c-3.7,0.7-8.01,0.65-11.72,0.49c-6.48-0.28-12.9-1.09-19.38-0.82c-3.13,0.13-6.17,0.05-9.31,0.01c-1.97-0.02-4.72-0.17-6.03-1.5"/></g></svg>