<svg class="face" xmlns="http://www.w3.org/2000/svg" xmlns:xlink="http://www.w3.org/1999/xlink" x="0px" y="0px" width="357px" height="358px" viewBox="0 0 357 358"><path fill="#d37e57" d="M268.5,189.04c-1.41-1.92-2.86-2.74-4.22-2.91c-3.96-0.47-7.28,4.62-7.28,4.62c2.38-21.04,0-32.96,0-32.96c-16.83-65.56-65.84-69.37-76.8-69.39c-0.71,0.02-1.44,0.04-2.2,0.06c-54,1.42-71.5,44.58-71.5,44.58c-9,12.5-4,61.55-4,61.55c-21-12.95-1.5,45.45-1.5,45.45c5,13.5,8,1,8,1c2.88,12.67,6.63,23.41,10.9,32.53c0.85,44.99,1.74,68.73,1.44,83.43c23.33,0,116.79,0,123.83,0l1.52-85.32c6.58-17.33,7.31-32.14,7.31-32.14c2.5,3,6.5,1.5,6.5,1.5C272.75,234.79,268.5,189.04,268.5,189.04z M255.96,199.92C255.93,200.18,255.94,200.15,255.96,199.92L255.96,199.92z M256.22,197.67c0.03-0.3,0.07-0.64,0.11-1.01C256.29,197.01,256.25,197.35,256.22,197.67z M256.82,192.32c0.06-0.55,0.11-0.99,0.14-1.26C256.91,191.5,256.87,191.92,256.82,192.32z M265.33,190.26c-0.04-0.16-0.09-0.37-0.16-0.62c-0.13-0.5-0.31-1.2-0.54-2.1c0.22,0.86,0.4,1.58,0.54,2.1C265.24,189.9,265.29,190.1,265.33,190.26C265.47,190.79,265.48,190.83,265.33,190.26z"/><path fill="#ce7952" d="M125.25,227.25c4.5-6.5,6.97-8.84,12.65-10c4.87-0.99,13.28-2.45,17.35-5.75c9.63-7.79,13.17-20.35,5.59-28.43c-4.32-4.6-7.03-7.3-13.05-8.81c-4.83-1.22-11.04-2.16-15.05-6.1c-7.84-7.69-11.29-20.73-10.82-31.2c0.41-8.95,9.17-18.79,15.15-24.83c7.04-7.12,15.71-14.12,23.72-20.42c-40.38,8.84-54.04,42.51-54.04,42.51c-9,12.5-4,61.55-4,61.55c-21-12.95-1.5,45.45-1.5,45.45c5,13.5,8,1,8,1c2.89,12.7,6.64,23.46,10.93,32.59c-0.78,38.87,1.32,70.54,1.15,83.21c7.79,0.1,53.6-30.51,61.45-32.32C179.16,318.81,113.75,264.75,125.25,227.25z"/><g class="eyes eyes-22"><path fill="#ffffff" fill-opacity="0.7" d="M154.4,199.38c-0.35-0.22-1.24-0.49-2.31-0.74c1.16,1.56,1.17,4.28,0.66,6.12c-0.5,1.82-3.27,3.8-5.12,4.38c2.18,0.33,5.62-0.3,7.87-0.5c2.81-0.25,5.73-1.07,8.58-1.02C163.46,206.09,159.25,202.38,154.4,199.38z"/><path fill="#ffffff" fill-opacity="0.7" d="M138.63,204.16c-0.14-0.27-0.23-0.59-0.29-0.91c-0.57-1.07-0.48-2.23-0.01-3.3c0.01-0.11,0.01-0.22,0.02-0.33c-1.12,0.33-2.18,0.77-3.12,1.41c-1.11,0.75-3.23,1.5-3.73,2.73l0.13-0.13c1.19,0.51,2.19,1.5,3.15,2.24c1.52,1.17,4.27,1.85,6.1,2.11c0.77,0.11,1.47,0.22,2.15,0.34c-0.57-0.37-1.13-0.79-1.67-1.25C140.34,206.22,139.24,205.35,138.63,204.16z"/><path fill="#1e2420" d="M152.75,204.75c0.51-1.83,0.5-4.56-0.66-6.12c-2.05-0.49-4.78-0.94-5.84-0.89c-2.3,0.11-4.4,1.04-6.6,1.53c-0.38,0.09-0.76,0.18-1.13,0.29c-0.03,0.05-0.05,0.1-0.07,0.14l-0.01-0.12c-0.03,0.01-0.06,0.02-0.09,0.03c-0.01,0.11-0.01,0.22-0.02,0.33c-0.47,1.07-0.56,2.23,0.01,3.3c0.06,0.32,0.15,0.63,0.29,0.91c0.61,1.2,1.72,2.07,2.73,2.92c0.54,0.46,1.1,0.88,1.67,1.25c1.5,0.26,2.89,0.55,4.61,0.81C149.48,208.55,152.25,206.57,152.75,204.75z"/><path fill="#ffffff" fill-opacity="0.7" d="M226.5,204.53c-1.93-1.7-3.74-2.98-6.17-3.97c0.34,0.4,0.63,0.8,0.83,1.16c0.64,1.21,0.51,3.53,0.12,4.81c-0.53,1.75-1.52,3.81-3.4,4.57c-1.8,0.73-5.55,0.03-7.03-0.95c-1.53-1.01-3.02-2.34-3.84-3.96c-0.47-0.92-0.89-1.94-1-2.94c-0.14-1.33,0.44-2.36,0.59-3.57c-0.37,0.2-0.73,0.41-1.12,0.66c-1.2,0.75-2.76,1.11-3.97,1.91c-1.61,1.08-2.58,3.07-3.81,4.53c0.65,0.42,1.48,0.79,1.97,1.2c1.05,0.27,2.21,0.96,3.23,1.39c2.06,0.85,4.13,1.04,6.28,1.67c1.38,0.4,2.66,0.68,4.1,0.72c1.68,0.05,3.7-0.08,5.38-0.25c4.42-0.44,5.44-5.37,9.83-5.62C227.81,205.39,227.12,205.08,226.5,204.53z"/><path fill="#1e2420" d="M206,203.25c0.11,1.01,0.53,2.03,1,2.94c0.83,1.62,2.32,2.95,3.84,3.96c1.48,0.98,5.23,1.68,7.03,0.95c1.88-0.76,2.87-2.82,3.4-4.57c0.39-1.28,0.52-3.59-0.12-4.81c-0.19-0.36-0.48-0.76-0.83-1.16c-0.16-0.06-0.31-0.13-0.47-0.19c-2.21-0.84-4.77-0.91-7.11-1.25c-1.33-0.19-2.58-0.28-3.94-0.15c-0.62,0.06-1.13,0.21-1.61,0.41c-0.2,0.21-0.39,0.42-0.58,0.61v-0.34c-0.01,0.01-0.02,0.01-0.04,0.02C206.44,200.89,205.86,201.92,206,203.25z"/></g><g class="eyebrows eyebrows-11"><path fill="#19120c" fill-opacity="0.8" d="M110.5,195.67c0.83-3.17,4.41-7.04,6.63-9.37c1.53-1.6,3.78-2.51,5.37-4.13c1.43-1.47,2.82-2.57,4.47-3.79c5.14-3.83,11.26-2.4,17.14-3.54c4.69-0.91,10.05-0.3,14.18,1.93c3.42,1.85,5.55,2.89,5.68,6.88c-4.4,2.82-9.13,3.71-14.54,3.7c-2.54-0.01-4.64,0.38-6.96-0.45c-1.98-0.71-3.92-0.82-5.93-1.19c-2.14-0.4-4.47-1.46-6.67-1.2c-2.21,0.26-4.48,1.67-6.53,2.49c-3.84,1.54-6.55,4.22-10.13,6.35c-1.48,0.89-2.34,1.86-3.54,3"/><path fill="#19120c" fill-opacity="0.8" d="M202,173c-4.71-0.38-9.26,3.05-12,6.5c-0.87,1.1-2.36,2.65-2.17,4.17c0.25,2.06,2.59,2.9,4.34,3c4.75,0.27,8.63-3.17,13.49-3.17c1.64,0,3.2,0.11,4.8,0.17c1.86,0.06,3.39-0.55,5.16-0.84c2.42-0.4,4.45-1.15,6.89-1.66c3.33-0.7,5.03,0.07,7.97,1.68c1.99,1.09,4.5,2.26,6.17,3.83c1.73,1.62,2.01,2.64,4.5,1.96c-0.09-1.35-2.05-3.33-2.85-4.47c-0.81-1.15-1.86-2.13-2.75-3.22c-2.31-2.82-4.34-5.22-7.88-6.47c-4.55-1.61-8.23-1.4-13.03-1.11c-3.87,0.23-8.11-1.4-11.96-0.72c-0.62,0.11-1.2,0.56-1.84,0.68"/></g><g class="chin chin-15"><path fill="none" stroke="#ce7952" stroke-miterlimit="10" d="M148.17,314.5c2.03,0.92,12.9,9.24,14.52,10c2.37,1.12,15.18,5.5,17.81,6c7.24,1.37,12.83-0.5,19.5-2.83c8.62-3.02,16.75-8.58,20.67-17"/></g><g class="hair hair-3"><radialGradient id="SVGID_2_533c984788724" cx="180.3369" cy="178.5039" r="62.0905" gradientTransform="matrix(-0.0144 -0.9999 1.2316 -0.0178 -36.9023 361.9954)" gradientUnits="userSpaceOnUse"><stop offset="0" style="stop-color:#d37e57;stop-opacity:0"/><stop offset="0.309" style="stop-color:#d37e57;stop-opacity:0.309"/><stop offset="0.4613" style="stop-color:#ce7952;stop-opacity:0.4613"/><stop offset="0.5794" style="stop-color:#c9744d;stop-opacity:0.5794"/><stop offset="0.6798" style="stop-color:#c46f48;stop-opacity:0.6798"/><stop offset="0.769" style="stop-color:#bf6a43;stop-opacity:0.769"/><stop offset="0.8503" style="stop-color:#ba653e;stop-opacity:0.8503"/><stop offset="0.9251" style="stop-color:#b56039;stop-opacity:0.9251"/><stop offset="0.9938" style="stop-color:#19120c;stop-opacity:0.9938"/><stop offset="1" style="stop-color:#19120c"/></radialGradient><path fill="url(#SVGID_2_533c984788724)" fill-opacity="0.9" d="M105.5,201.75c0.31-2.25,1.46-4.28,1.76-6.51c0.27-2.03-0.01-4.35,0.19-6.29c0.46-4.44,0.62-8.51-0.44-12.71c-0.47-1.86-0.49-3.71-0.51-5.79c-0.03-2.84-0.25-4.66-0.83-7.29c-0.65-2.93,0.34-4.94,1.3-7.43c0.89-2.34,0.81-4.8,1.29-7.28c1.01-5.24,3.43-10.36,7.36-14.01c1.92-1.78,3.44-3.56,5.88-4.51c3.17-1.24,6.44-1.72,9.64-2.99c6.52-2.59,12.2-5.28,19.12-6.21c5.85-0.79,11.83-1.94,17.49-3.17c2.17-0.47,3.41-1.44,5.77-1.56c4.31-0.22,8.6,0.32,12.74,0.69c2.92,0.26,5.17-0.4,7.8-0.69c3.98-0.44,7.2,1,10.94,1.67c3.24,0.58,4.97,2.6,8,3.39c2.89,0.75,5.78,0.78,8.59,1.66c3.61,1.13,6.68,2.65,10.15,3.71c2.89,0.88,5.79,2.22,8.03,4.3c4.11,3.82,7.88,9.08,7.99,14.79c0.15,7.46,4.21,13.7,5,20.91c0.55,5.06,0,10.29,0.25,15.36c0.12,2.47,0.49,4.71,0.25,7.2c-0.19,1.98-0.37,3.58,0.19,5.51c0.62,2.11,2.38,4.03,2.61,6.41c0.95-2.58,0.95-10.17,0.95-10.17c2.38-21.04,0-32.96,0-32.96c-16.83-65.56-65.84-69.37-76.8-69.39c-0.71,0.02-1.44,0.04-2.2,0.06c-54,1.42-71.5,44.58-71.5,44.58c-9,12.5-4,61.55-4,61.55C102.5,197.29,105.32,203.05,105.5,201.75z M256.96,191.06c-0.05,0.44-0.1,0.86-0.14,1.26C256.88,191.77,256.93,191.33,256.96,191.06z M255.96,199.92C255.93,200.18,255.94,200.15,255.96,199.92L255.96,199.92z"/></g><g class="nose nose-21"><path fill="#c9744d" d="M186.01,198.89c-0.17,1.53-0.26,3.95-0.49,5.46c-0.58,3.86,0.9,6.29,0.88,10.24 c-0.02,6.65,6.48,12.91,4.38,19.46c-5.2-0.71-6.56-12.33-6.95-16.23c-0.33-3.31-1.14-7.11-1.01-10.49 c0.11-2.91,1.43-6.24,2.54-9.75C185.35,197.6,186.24,196.78,186.01,198.89z"/><path fill="#a14c25" d="M162.63,247.25c1.69-1.11,2.96-2.59,5.26-2c0.68,0.18,3.84,1.33,3.47,2.47c-0.55,1.74-9.18,1.2-8.98-0.47"/><path fill="#a14c25" d="M185,246.13c1.59-0.98,3.93-1.6,5.62-0.72c0.94,0.49,4.06,1.96,2.5,3.07c-1.33,0.95-3.51-0.57-4.65-0.94c-0.77-0.25-1.65-0.11-2.38-0.38c-0.73-0.27-1.56-1.18-0.47-1.66"/><path fill="none" stroke="#c46f48" stroke-miterlimit="10" d="M161.38,230.88c-3.2,3.47-6.95,7.96-5.75,13.12c0.39,1.67,1.64,3.93,3.34,4.66c1.49,0.65,3.62,0.29,5.26,0.61c1.4,0.27,2.54,0.6,4.04,0.72c1.48,0.12,3.37-0.2,4.85,0.13c0.94,0.21,1.67,1.01,2.56,1.41c1.44,0.64,4.01,1.29,5.58,1.22c1.49-0.07,2.46-0.78,3.69-1.47c2.93-1.64,6.72-0.89,9.95-0.78c2.39,0.08,5.64-0.44,7.22-2.26c2.62-2.99-0.16-7.34-1.59-10.34c-1.1-2.3-2.29-2.99-3.88-5.1c-2.03-2.68-4.55-8.49-5.03-11.56"/></g><g class="mouth mouth-2"><path fill="#bf6a43" fill-opacity="1" d="M152.25,282.75c1.13,0.05,1.95,1.34,2.84,1.91c1.85,1.18,3.52,1.46,5.66,1.83c4.03,0.69,8.51,1.23,12.67,1.01c1.64-0.09,2.79-0.94,4.27-1.35c1.66-0.46,3.65-0.29,5.38-0.13c4.2,0.41,9.05,1.13,13.17-0.03c2.62-0.74,14.75-4.21,11.33-8.12c-1.14-1.3-3.73-2.23-5.37-2.85c-2.25-0.84-4.46-1.96-6.77-2.68c-4.31-1.34-9.55,0.3-13.96,0.69c-3.31,0.29-6.46-0.89-9.76-0.79c-3.57,0.11-7.14,1.69-10.39,2.9c-2.3,0.86-4.23,2.72-5.95,4.34c-1.56,1.47-2.27,1.76-2.3,3.75"/><path fill="#c9744d" d="M153.38,277.63c2-2.12,4.63-3,6.77-4.8c1.1-0.93,1.46-1.76,2.36-2.83c1.36-1.61,3.52-3.83,5.37-4.86c1.02-0.57,2.4-0.67,3.58-1.13c1.74-0.68,2.06-0.07,3.81,0.72c1.35,0.6,3.45,1.53,4.99,1.13c1.96-0.51,3.64-1.58,5.45-2.35c1.83-0.78,2.57,0.43,4.25,1.07c1.93,0.73,3.52,1.68,5.33,2.59c1.76,0.89,3,1.34,4.35,2.74c0.96,1,1.96,1.79,3.01,2.69c1.01,0.87,1.96,1.93,2.99,2.75c0.76,0.61,1.68,0.98,2.35,1.65c0.94,0.94,1.15,1.48,0.06,2.16c-0.82,0.52-2.46,1.01-3.47,0.97c-5.66-0.23-9.88-5.59-15.44-5.87c-2.56-0.13-4.87,1.64-7.36,2.12c-1.42,0.27-2.69,0.59-4.16,0.14c-1.24-0.38-2.48-1.1-3.75-1.26c-1.58-0.19-2.89,0.45-4.34,1c-2.07,0.79-4.16,1.63-6.07,2.75c-1.89,1.1-3.47,2.66-5.43,3.63c-1.67,0.82-4.19,2.37-5.35,0.22c-0.51-0.95-0.87-2.09-0.31-3.07c0.5-0.87,1.46-1.86,2.06-2.65c0.87-1.16,2.31-2.31,3.72-2.75"/></g></svg>