<svg id="s5c3d0095348f6" class="face" xmlns="http://www.w3.org/2000/svg" xmlns:xlink="http://www.w3.org/1999/xlink" x="0px" y="0px" width="357px" height="358px" viewBox="0 0 357 358"><path fill="#e3aea0" d="M268.5,189.04c-1.41-1.92-2.86-2.74-4.22-2.91c-3.96-0.47-7.28,4.62-7.28,4.62c2.38-21.04,0-32.96,0-32.96c-16.83-65.56-65.84-69.37-76.8-69.39c-0.71,0.02-1.44,0.04-2.2,0.06c-54,1.42-71.5,44.58-71.5,44.58c-9,12.5-4,61.55-4,61.55c-21-12.95-1.5,45.45-1.5,45.45c5,13.5,8,1,8,1c2.88,12.67,6.63,23.41,10.9,32.53c0.85,44.99,1.74,68.73,1.44,83.43c23.33,0,116.79,0,123.83,0l1.52-85.32c6.58-17.33,7.31-32.14,7.31-32.14c2.5,3,6.5,1.5,6.5,1.5C272.75,234.79,268.5,189.04,268.5,189.04z M255.96,199.92C255.93,200.18,255.94,200.15,255.96,199.92L255.96,199.92z M256.22,197.67c0.03-0.3,0.07-0.64,0.11-1.01C256.29,197.01,256.25,197.35,256.22,197.67z M256.82,192.32c0.06-0.55,0.11-0.99,0.14-1.26C256.91,191.5,256.87,191.92,256.82,192.32z M265.33,190.26c-0.04-0.16-0.09-0.37-0.16-0.62c-0.13-0.5-0.31-1.2-0.54-2.1c0.22,0.86,0.4,1.58,0.54,2.1C265.24,189.9,265.29,190.1,265.33,190.26C265.47,190.79,265.48,190.83,265.33,190.26z"/><path fill="#dea99b" d="M125.25,227.25c4.5-6.5,6.97-8.84,12.65-10c4.87-0.99,13.28-2.45,17.35-5.75c9.63-7.79,13.17-20.35,5.59-28.43c-4.32-4.6-7.03-7.3-13.05-8.81c-4.83-1.22-11.04-2.16-15.05-6.1c-7.84-7.69-11.29-20.73-10.82-31.2c0.41-8.95,9.17-18.79,15.15-24.83c7.04-7.12,15.71-14.12,23.72-20.42c-40.38,8.84-54.04,42.51-54.04,42.51c-9,12.5-4,61.55-4,61.55c-21-12.95-1.5,45.45-1.5,45.45c5,13.5,8,1,8,1c2.89,12.7,6.64,23.46,10.93,32.59c-0.78,38.87,1.32,70.54,1.15,83.21c7.79,0.1,53.6-30.51,61.45-32.32C179.16,318.81,113.75,264.75,125.25,227.25z"/><g class="eyes eyes-8"><path fill="#ffffff" fill-opacity="0.7" d="M125.65,196.01c5.16-0.65,8.73-4.66,14.5-5c5.9-0.34,9.51,2.28,12.05,7.5c-2.21,3.43-23.14,0.68-26.55-2"/><path fill="#ffffff" fill-opacity="0.7" d="M206.65,196.51c5.14-0.88,8.39-4.48,14.5-4c3.63,0.28,13.38,2.66,11.41,7.93c-8.8,2.55-17.06,2.17-24.91-3.43"/><path fill="#304274" d="M138.65,193.18c-4.59,4.13,2.7,8.07,6.68,5.08c5.02-3.77-3.68-7.24-7.02-5.08"/><path fill="#304274" d="M217.98,193.51c-3.32,0.64-2.99,6.32,0,7.6c3.16,1.35,7.51-1.13,7.27-4.54c-2.91-1.7-4.18-2.46-7.61-3.06"/></g><g class="eyebrows eyebrows-8"><path fill="#19120c" fill-opacity="0.4" d="M117.11,181.74c3.68-2.79,4.84-7.13,9.1-9.39c4.44-2.35,10.33-1.92,14.9-0.72c5.35,1.4,5.77,4.63,9.6,8.01c3.06,2.7,6.94,4.66,10.23,7.24c-4.69,3.2-16.11-7.27-21.82-8.15c-8.78-1.34-13.18,5.82-21.92,5.44c-0.09-0.85-0.28-2.07-0.08-2.92"/><path fill="#19120c" fill-opacity="0.4" d="M198.11,184.24c11.1-4.78,31.28-20.26,39.9-3c0.96,1.92,4.57,7.27,2.61,8.54c-2.07,1.34-6.75-3.96-8.51-5.04c-6.37-3.91-15.53-1.52-21.64,0.39c-2.89,0.9-12.37,4.73-12.8-0.81c1.17-0.08,2.77-0.34,3.94-0.08"/></g><g class="hair hair-3017"><path fill="#19120c" d="M261.3,165c-0.5-1.9-0.6-3.9-0.6-5.9c-0.6-2-1-3.9-1.4-5.9c-0.8-4-1.4-7.6-3.2-11.3c-1.3-2.7-2.4-5.4-3.5-8.2c-3.4-8.2-6.5-17.2-12.2-24c-4.8-5.7-9.8-10.6-16.1-14.7c-6.1-3.9-12.6-7-19.3-9.8c-3.4-1.4-6.7-2.9-10.3-3.2c-4.5-0.4-9,0.1-13.5,0.5c-8.5,0.7-17.3-0.6-25.4,3.1c-5.7,2.6-11.3,5.2-17,7.7c-2.1,0.9-4.6,1.6-6.2,3.2c-2.7,2.7-5.4,5.4-8.1,8.1c-4.4,4.4-8.4,8.8-12.3,13.6c-1.1,1.4-2.3,2.9-3.4,4.3c-1.6,1.9-1.8,4.9-2.7,7.2c-1.2,3.2-3.3,5.6-3.6,9.1c-0.2,1.9-0.3,3.6-1.1,5.3c-0.8,1.8-0.5,4.5-0.7,6.5c-0.6,5.3-1.8,10.5-2.3,15.8c-0.5,5.2,0.7,10.7,1.5,15.9c0.4,2.8,0.8,5.6,1.2,8.4c0.2,1.4,1.7,3,2.5,4.2c0-2.1,0.9-4.2,0.8-6.2c-0.1-1.3-0.1-2.6,0.2-3.9c0.4-1.5,0.4-3.1,0.5-4.7c0.3-4.8,0.4-9.6,0.7-14.3c0.3-5.3,1.8-10.3,2.9-15.5c1.9-9.2,3.5-18.7,6.7-27.6c2.7-7.5,10.6-11.7,16.8-16.1c3.6-2.5,7.3-5.1,11-7.4c3.4-2.1,7.4-0.1,11.1,0.9c3.7,1.1,7.2-0.4,10.7-1.9c2.9-1.2,7.5-4.1,10.5-1.9c1.1,0.8,1.7,2,2,3.3c0.3,1.9,3.2-0.3,4.2-0.8c3.6-1.9,7.1-2.2,8.9,2.2c0.3,0.7,3.6,0.1,4.6,0.2c1.5-0.9,3.1-1.7,4.8-2.2c1.5-0.4,3.1-0.5,4.6,0.3c0.7,0.4,1.2,0.9,1.7,1.5c1.1,1.5,0.7,1.3,2.6,1c1.9-0.3,3.8-0.2,5.6,0.4c1.5,0.5,2.4-0.4,3.9-0.5c1.3-0.1,3.5,3,4.3,3.8c2.1,2.2,4.3,4.5,6.7,6.4c2.2,1.9,4.5,3.4,6.5,5.6c3,3.4,5.6,7.2,7.9,11.1c6.9,11.6,11.3,24.3,12.7,37.8c0.5,5.4,0.6,10.8,0.3,16.2c-0.1,1.4-0.2,2.8-0.4,4.3c0.2,1.4,0.2,2.8,0.1,4.2c-0.1,1.3-0.4,2.7-0.5,4.1c0.1,0.2,0.3,0.4,0.4,0.5c1.5-2.5,3-5.2,3.8-8c0.4-1.6-0.1-3.5-0.1-5.2C259.9,176.6,260.7,170.8,261.3,165z"/></g><g class="facial-hair facial-hair-19"><path fill="#19120c" d="M213.3,302.6c-0.4,1.4-1,2.8-1.9,4.3c-0.3,0.5-0.7,1-1,1.6c0,0,0,0,0,0c-0.5,1.2-1.2,2.4-2,3.5c-0.2,0.5-0.4,1-0.5,1.5c-1.8,0.9-2.8,3.1-4.8,3.7c0,0-0.1,0-0.1,0c-7,4.9-16.7,6.9-24.4,6.3c-11-1-19.7-8.5-25.3-17.7c0.2,1.6,0.4,3.1,1.4,4.9c2,3.5,4.6,7.6,8,10.2c3.7,2.8,8.5,2,12.7,3.7c1.5,0.6,2.6,1.7,4.4,2c3.3,0.7,7.5,0.4,10.9,0.3c3.6-0.1,6.1-1.8,9-3.5c2.5-1.4,5.7-1.7,7.5-4.3c1.6-2.4,4.7-6.1,6.7-10c0.6-2.4,0.5-4.9,0.7-7.4C214,302,213.7,302.3,213.3,302.6z"/></g><g class="nose nose-18"><path fill="#d9a496" d="M186.01,198.89c-0.17,1.53-0.26,3.95-0.49,5.46c-0.58,3.86,0.9,6.29,0.88,10.24 c-0.02,6.65,6.48,12.91,4.38,19.46c-5.2-0.71-6.56-12.33-6.95-16.23c-0.33-3.31-1.14-7.11-1.01-10.49 c0.11-2.91,1.43-6.24,2.54-9.75C185.35,197.6,186.24,196.78,186.01,198.89z"/><path fill="#b17c6e" d="M172,242.83c-2.06,0.37-6.05,2.25-5.47,4.97c1.36,0.29,3.74-1.15,4.97-1.65c1.45-0.59,3.06-1.74,3.15-3.46c-0.99-0.62-2.05-0.31-2.8,0.47"/><path fill="#b17c6e" d="M192,243.83c-1.02-0.46-6.93-1.73-4.51,1.46c1.04,1.36,5.27,1.16,6.87,1.2c-0.52-0.61-1.66-2.17-2.36-3"/><path fill="none" stroke="#d49f91" stroke-miterlimit="10" d="M165.99,233.06c-2.27,2.02-4.23,4.18-6.21,6.46c-2.24,2.59-2.98,4.87-1.05,7.82c0.96,1.48,1.55,2.79,3.43,3.01c1.49,0.17,3.03,0.08,4.53,0.03c2.22-0.07,4.08-1.15,6.07-1.4c1.49-0.18,2.87,0.79,4.09,1.3c1.49,0.63,2.86,1.62,4.53,1.53c1.34-0.07,2.67-0.75,3.97-1.02c4.41-0.94,8.73,0.73,13.15-0.09c3.16-0.59,6.12-1.65,5.98-5.27c-0.13-3.29-2.46-5.3-4.49-7.49c-1.9-2.05-4.82-3.87-6.09-6.38c-1.5-2.96-4.11-5.49-4.96-8.72"/></g><g class="mouth mouth-13"><path fill="#271011" d="M154.04,273.51c0.52,4.09,7.62,5.03,10.62,5.49c9.01,1.38,18.18,1.52,27.17,0.96c4.02-0.25,7.97-1.95,11.51-3.5c0.79-0.35,2.83-0.79,3.21-1.58c0.6-1.23-0.53-3.3-1.39-3.82c-0.17-0.1-0.05-0.16-0.15-0.29c-1.6-0.41-3.66-0.32-5.28-0.27c-9.56,0.32-18.88,0.02-28.37-1.08c-5.05-0.58-11.27-2.07-15.05,2.28c-0.63,0.72-1.25,2.1-2.41,1.93"/><path fill="#AFA9A3" d="M165.31,273.37c-0.94,0.51-0.06,2.88,0.41,3.66c0.82,1.38,1.79,1.15,3.35,1.15c2.38,0,4.53,0.05,6.83-0.54c2.42-0.63,4.37-0.83,6.89-0.83c1.95,0,3.57,0.6,5.42,0.69c2.43,0.12,5.01,0.11,7.37-0.44c1.28-0.3,3.35-0.59,4.48-1.24c1.29-0.75,0.6-1.62-0.35-2.57c-1.63-1.64-4.22-2.75-6.49-2.75c-1.92,0-4.56,2.16-6.47,2.07c-1.63-0.08-2.55,0.21-4.14,0.52c-2.87,0.56-6.48,0.31-9.42,0.03c-2.05-0.19-6.94-1.88-8.28,0.68"/><path fill="#d9a496" d="M152.8,272.28c0.74-4.3,9.08-7.56,12.66-8.87c2.62-0.96,4.86-1.62,7.68-1.57c2.86,0.05,5.01,1.46,7.7,2.21c5.94,1.66,11.43-1.64,17.27-0.58c2.9,0.53,16.47,8.12,8.84,9.92c-1.7,0.4-4.23,0.08-5.97-0.01c-2.67-0.14-4.8-1.62-7.22-1.94c-2.52-0.34-4.71,1.38-7.06,1.75c-2.44,0.38-5.01,0.2-7.5,0.2c-4.78,0-9.81-1.22-14.58-1.38c-1.72-0.06-12.08,4.8-11.83,0.83"/><path fill="#a7696a" fill-opacity="0.9" d="M153.08,275.71c2.21,0.4,5.23,2.72,6.77,4.5c1.79,2.07,3.63,3.61,5.95,5.13c1.36,0.89,2.83,2.1,4.46,2.33c2.17,0.3,4.43,0.17,6.6,0.41c2.95,0.33,5.9,1.27,8.94,0.97c2.35-0.23,4.5-1.5,6.69-2.32c3.97-1.48,7.52-2.88,10.44-6.04c1.71-1.85,4.4-4.41,4.62-7.07c-4.04,2.24-8.19,1.56-12.79,1.8c-2.12,0.11-4.32,0.01-6.39,0.42c-2.18,0.43-4.2,0.75-6.44,0.85c-2.01,0.09-4.05,0.13-6.08,0.11c-2.04-0.02-3.69-0.75-5.65-0.96c-3.52-0.38-7.13-0.47-10.56-0.96c-2.02-0.29-4.99-0.59-6.71,0.55"/></g></svg>