<svg class="face" xmlns="http://www.w3.org/2000/svg" xmlns:xlink="http://www.w3.org/1999/xlink" x="0px" y="0px" width="357px" height="358px" viewBox="0 0 357 358"><path fill="#bb7e61" d="M268.5,189.04c-1.41-1.92-2.86-2.74-4.22-2.91c-3.96-0.47-7.28,4.62-7.28,4.62c2.38-21.04,0-32.96,0-32.96c-16.83-65.56-65.84-69.37-76.8-69.39c-0.71,0.02-1.44,0.04-2.2,0.06c-54,1.42-71.5,44.58-71.5,44.58c-9,12.5-4,61.55-4,61.55c-21-12.95-1.5,45.45-1.5,45.45c5,13.5,8,1,8,1c2.88,12.67,6.63,23.41,10.9,32.53c0.85,44.99,1.74,68.73,1.44,83.43c23.33,0,116.79,0,123.83,0l1.52-85.32c6.58-17.33,7.31-32.14,7.31-32.14c2.5,3,6.5,1.5,6.5,1.5C272.75,234.79,268.5,189.04,268.5,189.04z M255.96,199.92C255.93,200.18,255.94,200.15,255.96,199.92L255.96,199.92z M256.22,197.67c0.03-0.3,0.07-0.64,0.11-1.01C256.29,197.01,256.25,197.35,256.22,197.67z M256.82,192.32c0.06-0.55,0.11-0.99,0.14-1.26C256.91,191.5,256.87,191.92,256.82,192.32z M265.33,190.26c-0.04-0.16-0.09-0.37-0.16-0.62c-0.13-0.5-0.31-1.2-0.54-2.1c0.22,0.86,0.4,1.58,0.54,2.1C265.24,189.9,265.29,190.1,265.33,190.26C265.47,190.79,265.48,190.83,265.33,190.26z"/><path fill="#b6795c" d="M125.25,227.25c4.5-6.5,6.97-8.84,12.65-10c4.87-0.99,13.28-2.45,17.35-5.75c9.63-7.79,13.17-20.35,5.59-28.43c-4.32-4.6-7.03-7.3-13.05-8.81c-4.83-1.22-11.04-2.16-15.05-6.1c-7.84-7.69-11.29-20.73-10.82-31.2c0.41-8.95,9.17-18.79,15.15-24.83c7.04-7.12,15.71-14.12,23.72-20.42c-40.38,8.84-54.04,42.51-54.04,42.51c-9,12.5-4,61.55-4,61.55c-21-12.95-1.5,45.45-1.5,45.45c5,13.5,8,1,8,1c2.89,12.7,6.64,23.46,10.93,32.59c-0.78,38.87,1.32,70.54,1.15,83.21c7.79,0.1,53.6-30.51,61.45-32.32C179.16,318.81,113.75,264.75,125.25,227.25z"/><g class="eyes eyes-10"><path fill="#ffffff" fill-opacity="0.7" d="M195.13,196.5c1.71,1.33,3.54,3.27,5.64,3.85c1.54,0.42,3.17,0.3,4.73,0.53c1.2,0.18,2.29,0.61,3.49,0.75c2.65,0.29,4.42-0.53,6.67-1.75c1-0.54,1.81-1.42,2.85-1.85c0.84-0.35,1.92-0.33,2.84-0.54c-1.63-2.13-3.14-3.7-5.71-4.48c-2.6-0.79-5.73-1.12-8.51-1.5c-2.66-0.37-4.58,0.54-7.06,1.1c-1.11,0.25-1.84,0.37-2.75,1.15c-0.82,0.7-1.35,1.89-2.3,2.41c0.08,0.09,0.24,0.27,0.37,0.35"/><path fill="#ffffff" fill-opacity="0.7" d="M137.63,195.5c1.22-2.65,5.91-4.11,8.37-4.66c3.42-0.75,7.81-2.03,11.15-0.51c1.47,0.67,6.57,3.94,5.15,5.83c-0.93,1.23-4.18,2-5.53,2.58c-1.12,0.48-2.23,0.77-3.38,1c-3.13,0.63-6.8,0.5-9.52-1.24c-1.87-1.19-5.02-1.89-6.35-3.63"/><path display="inline" fill="#483224" d="M145.75,191c-0.52,2.26-1.77,4.87,0.25,6.76c0.67,0.63,1.79,1.4,2.62,1.78c1.36,0.62,2.34,0.13,3.66-0.16c2.18-0.48,4.67-1.7,4.34-4.51c-0.29-2.46-2.17-4.99-4.75-5.25c-1.67-0.17-4.98,0.3-6.25,1.38"/><path fill="#483224" d="M205.75,191.5c-3.11-0.07-4.13,3.74-2.97,6.1c1.06,2.15,3.24,3.29,5.47,3.39c1.58,0.07,1.54-0.04,2.75-0.97c1.21-0.92,1.8-1.29,1.63-3.03c-0.19-1.89-2.16-4.76-4.09-5.37c-0.84-0.27-2.86-0.62-3.41,0.13"/></g><g class="eyebrows eyebrows-20"><path fill="#19120c" fill-opacity="0.9" d="M120,193c2.964-3.944,4.346-8.004,7.818-11.7c4.633-4.93,12.946-4.678,19.194-5.3c3.71-0.369,7.282-0.226,10.949,0.682c2.651,0.656,9.891,1.969,10.744,4.818c1.394,4.653-8.978,4.32-11.4,4.25c-6.998-0.203-13.255-2.153-20.092,0.312c-3.685,1.328-6.448,1.632-9.695,3.638c-2.375,1.468-4.913,1.614-7.269,3.3"/><path fill="#19120c" fill-opacity="0.9" d="M243.75,188.25c-1.425-0.445-3.628-3.865-5.098-4.994c-2.428-1.866-4.7-3.276-7.631-4.2c-5.42-1.709-10.988-3.056-16.717-3.056c-5.33,0-14.488-0.107-18.054,4.506c-4.131,5.345,4.082,5.994,7.75,5.994c3.552,0,7.34-1.307,10.749-1c3.77,0.34,6.914-0.049,10.5-0.25c3.549-0.199,8.461,0.801,11.75,1.987c2.738,0.987,4.834,3.308,7.968,3.219c-0.111-1.284-1.442-2.003-2.468-2.707"/></g><g class="chin chin-9"><path display="inline" fill="none" stroke="#b6795c" stroke-miterlimit="10" d="M146.83,319.83c2.39,1.07,4.3,3.4,6.85,4.55 c3.01,1.36,5.66,3.39,8.67,4.78c5.96,2.75,12.85,1.91,19.22,2.46c5.66,0.49,11.43-3.33,16.89-4.47c3.13-0.65,6.49-1.39,9.38-2.86 c2.13-1.09,3.27-3.18,5.5-4.13"/></g><g class="nose nose-12"><path fill="#b17457" d="M186.01,198.89c-0.17,1.53-0.26,3.95-0.49,5.46c-0.58,3.86,0.9,6.29,0.88,10.24 c-0.02,6.65,6.48,12.91,4.38,19.46c-5.2-0.71-6.56-12.33-6.95-16.23c-0.33-3.31-1.14-7.11-1.01-10.49 c0.11-2.91,1.43-6.24,2.54-9.75C185.35,197.6,186.24,196.78,186.01,198.89z"/><path fill="#894c2f" d="M163.83,238.66c1.56-0.34,3.59-1.78,5.34-1.34c1,0.26,3.42,2.71,3.64,3.81c-1.2,0.21-2.4-1.68-3.61-2.01c-1.45-0.39-3.3-0.07-4.85-0.16c-0.05-0.24,0.07-0.26,0.15-0.47"/><path fill="#894c2f" d="M200.33,241.83c-1.46-1.29-9.87-3.33-9.14,0.31c1.54,0.17,3.47-0.72,5.17-0.8c1-0.05,1.28-0.07,2.19,0.29c0.84,0.33,1.5,1.32,2.29,0.2"/><path fill="none" stroke="#ac6f52" stroke-miterlimit="10" d="M164.67,221.33c-3.17-0.23-7.46,3.32-8.63,6.17c-1.31,3.2,0.62,6.73,2.3,9.34c1.52,2.36,3.89,2.48,6.49,3.01c1.77,0.36,3.45,0.6,5.36,0.66c1.81,0.06,2.63,0.82,4.16,1.79c2.47,1.57,4.3,4.03,7.62,3.34c1.35-0.28,2.58-1.6,3.67-2.33c1.34-0.9,2.75-1.19,4.37-1.13c1.73,0.07,3.59,0.14,5.33,0.33c1.74,0.19,4.16,1.04,5.97,0.47c2.02-0.65,4.62-3.22,6.08-4.75c1.56-1.64,3.42-3.97,2.59-6.54c-0.36-1.11-1.9-2.74-2.62-3.67c-0.94-1.2-3.13-2.24-3.67-3.5"/></g><g class="mouth mouth-20"><path fill="#FCE6C0" d="M156.25,279.88c-0.32,2.16,1.8,4.01,3.15,5.38c2.01,2.04,4.57,3.44,7.26,4.36c3.91,1.34,8.6,1.08,12.74,1.09c3.27,0,6.22-1.3,9.34-1.79c2.42-0.38,5.5,0.2,7.84-0.48c1.14-0.33,1.94-1.35,3.01-1.9c0.73-0.37,1.68-0.5,2.36-0.98c0.68-0.48,0.99-1.23,1.52-1.82c0.97-1.08,2.14-1.43,1.9-3.14c-0.29-2.04-2.76-3.46-4.59-4c-6.24-1.85-12.29-5.38-18.92-5.38c-2.36,0-4.73-0.03-7.07-0.14c-2.63-0.12-5.32-0.37-7.85,0.41c-2.71,0.84-5.43,1.98-7.98,3.12c-1.27,0.57-1.79,1.92-2.95,2.44c-0.34,1.1-0.48,3.33,0.65,3.77"/><path fill="#9A3E32" d="M158.69,283.94c0.74-1.46,1.34-6.96,3.94-4.27c-0.24-1.44,1.4-1.24,2.27-1.01c0.06-1.79,2.17-1.98,3.42-1.47c0.9,0.37,1.21,0.74,2.1,0.47c1.26-0.38,1.68-1.4,3.2-1.02c0.62,0.15,1.04,0.75,1.59,0.82c0.82,0.11,1.66-0.56,2.44-0.79c0.63-0.19,1.9-0.65,2.57-0.41c1.5,0.52,0.29,0.91,2.43,0.51c1.77-0.33,2.24,0.72,3.69,0.83c1.89,0.14,3.39-1.65,5.39-0.44c0.64,0.39,0.91,1.12,1.52,1.49c0.89,0.54,0.8,0.01,1.76,0.16c0.77,0.12,1.09,0.87,1.73,1.1c0.88,0.31,1.77-0.16,2.68-0.11c0.99,1.77,2.07,2.19,2.07,4.43c1.44,0.17,3.86-1.52,3.91-2.99c0.04-1.26-1.82-2.8-2.73-3.55c-2.52-2.07-6.09-3.21-9.16-4.14c-3.82-1.15-7.7-2.95-11.65-3.41c-3.97-0.47-8.18-0.62-12.19-0.64c-1.87-0.01-3.66,0.29-5.31,1.09c-3.11,1.5-6.83,2.47-9.55,4.61c-1.5,1.18-1.23,3.27-0.27,4.73c0.95,1.45,2.97,3.7,4.44,4.46"/><path fill="#a7696a" fill-opacity="0.9" d="M152.33,278.39c2.38,1.63,3.46,5.01,5.41,7.1c2.18,2.35,4.17,4.97,6.27,7.38c1.85,2.13,3.81,4.1,6.17,5.58c3.71,2.33,7.39,3,11.9,3.21c3.7,0.18,6.29-0.63,9.06-2.88c2.24-1.81,4.42-3.27,6.36-5.55c2.03-2.38,4.4-4.5,6.54-6.73c1.78-1.86,4.47-5.09,4.33-7.84c-0.03-0.66-1.04,0.04-0.94-0.64c-0.92,1.03-2.29,1.55-3.26,2.56c-1.04,1.09-2.17,2-3.39,2.91c-2.09,1.56-5.16,2.64-7.63,3.25c-3.41,0.85-6.7,0.89-10.23,0.71c-2.9-0.15-5.98-0.14-8.93-0.41c-2.34-0.21-4.93-0.18-7.3-0.64c-2.14-0.41-4.35-1.46-6.34-2.38c-1.8-0.83-3.06-2.09-4.59-3.35c-0.8-0.66-2.67-2.97-3.69-2.03"/><path fill="#b17457" d="M152.87,274.06c1.35-0.82,2.48-2.21,3.62-3.35c1.32-1.32,2.71-2.3,4.12-3.45c1.89-1.54,3.8-3.02,6.06-3.76c2.39-0.78,5.18-1.22,7.71-1.35c1.3-0.07,2.43,0.29,3.65,0.38c1.61,0.11,3.12-0.51,4.74-0.38c2.51,0.2,5.61,1.33,7.85,2.44c2.29,1.14,4.78,1.89,6.93,3.35c1.9,1.29,4.31,2.15,6.02,3.68c1.37,1.23,2.24,3.25,3.8,4.23c0.27,0.91,1.26,1.69,0.98,2.83c-0.25,1-1.36,1.39-2.17,1.89c-1.87,1.16-4.95,0.13-7.17-0.82c-2.19-0.94-3.2-0.99-5.27-2.2c-2.05-1.19-4.67-2.14-6.9-2.68c-2.27-0.55-4.6,0.28-6.91,0.28c-2.68,0-4.88-0.44-7.44-0.82c-5.19-0.76-9.52,1.19-14.11,3.09c-1.09,0.45-4.36,2.09-5.34,1.62c-1.37-0.66-0.15-4.38,0.37-5.38"/></g></svg>