<svg id="s56e8470376193" class="face" xmlns="http://www.w3.org/2000/svg" xmlns:xlink="http://www.w3.org/1999/xlink" x="0px" y="0px" width="357px" height="358px" viewBox="0 0 357 358"><path fill="#be8b70" d="M268.5,189.04c-1.41-1.92-2.86-2.74-4.22-2.91c-3.96-0.47-7.28,4.62-7.28,4.62c2.38-21.04,0-32.96,0-32.96c-16.83-65.56-65.84-69.37-76.8-69.39c-0.71,0.02-1.44,0.04-2.2,0.06c-54,1.42-71.5,44.58-71.5,44.58c-9,12.5-4,61.55-4,61.55c-21-12.95-1.5,45.45-1.5,45.45c5,13.5,8,1,8,1c2.88,12.67,6.63,23.41,10.9,32.53c0.85,44.99,1.74,68.73,1.44,83.43c23.33,0,116.79,0,123.83,0l1.52-85.32c6.58-17.33,7.31-32.14,7.31-32.14c2.5,3,6.5,1.5,6.5,1.5C272.75,234.79,268.5,189.04,268.5,189.04z M255.96,199.92C255.93,200.18,255.94,200.15,255.96,199.92L255.96,199.92z M256.22,197.67c0.03-0.3,0.07-0.64,0.11-1.01C256.29,197.01,256.25,197.35,256.22,197.67z M256.82,192.32c0.06-0.55,0.11-0.99,0.14-1.26C256.91,191.5,256.87,191.92,256.82,192.32z M265.33,190.26c-0.04-0.16-0.09-0.37-0.16-0.62c-0.13-0.5-0.31-1.2-0.54-2.1c0.22,0.86,0.4,1.58,0.54,2.1C265.24,189.9,265.29,190.1,265.33,190.26C265.47,190.79,265.48,190.83,265.33,190.26z"/><path fill="#b9866b" d="M125.25,227.25c4.5-6.5,6.97-8.84,12.65-10c4.87-0.99,13.28-2.45,17.35-5.75c9.63-7.79,13.17-20.35,5.59-28.43c-4.32-4.6-7.03-7.3-13.05-8.81c-4.83-1.22-11.04-2.16-15.05-6.1c-7.84-7.69-11.29-20.73-10.82-31.2c0.41-8.95,9.17-18.79,15.15-24.83c7.04-7.12,15.71-14.12,23.72-20.42c-40.38,8.84-54.04,42.51-54.04,42.51c-9,12.5-4,61.55-4,61.55c-21-12.95-1.5,45.45-1.5,45.45c5,13.5,8,1,8,1c2.89,12.7,6.64,23.46,10.93,32.59c-0.78,38.87,1.32,70.54,1.15,83.21c7.79,0.1,53.6-30.51,61.45-32.32C179.16,318.81,113.75,264.75,125.25,227.25z"/><g class="eyes eyes-24"><path fill="#FFFFFF" fill-opacity="0.7" d="M125.8,205.3c0,0,15.6-12.5,30.9-5.5c0,0,0.6,3.2-1.5,4C155.1,203.7,130.3,206.4,125.8,205.3z"/><path fill="#FFFFFF" fill-opacity="0.7" d="M202.4,203.1c0,0,1.4-7.7,18.8-5.5c0,0,11,1.9,15.6,6C236.8,203.7,209.8,206,202.4,203.1z"/><path fill="#402a13" d="M224,204.4c0.4-0.9,0.6-1.9,0.6-2.9c0-1.2-0.3-2.3-0.9-3.3c-1.6-0.4-2.6-0.6-2.6-0.6c-4.5-0.6-7.9-0.5-10.5,0c-0.8,1.1-1.2,2.5-1.2,3.9c0,1,0.2,1.9,0.6,2.8C214.3,204.7,219.4,204.6,224,204.4z"/><path fill="#402a13" d="M133.7,200.6c0,0.3-0.1,0.6-0.1,0.9c0,1.4,0.4,2.7,1.2,3.8c4.4-0.2,9.5-0.6,13.5-1c0.4-0.9,0.6-1.8,0.6-2.8c0-1.4-0.5-2.8-1.2-3.9C142.4,197.5,137.5,198.9,133.7,200.6z"/></g><g class="eyebrows eyebrows-22"><path fill="#2e1d16" fill-opacity="0.4" d="M123.3,197.5c0,0,17.1-12.1,40.4-5.6c0.3,0.1,0.6,0.2,0.9,0.2c23.8,7.1-21.5-11.2-28.5-10.9C136,181.2,123.3,192.3,123.3,197.5z"/><path fill="#2e1d16" fill-opacity="0.4" d="M197.7,192.1c0,0,25-4.4,37.3,3.6c0,0-2-9-11.7-14.5C223.3,181.2,207.9,182.8,197.7,192.1z"/></g><g class="hair hair-21"><path fill="#2e1d16" fill-opacity="0.5" d="M255.2,200.6c0.6-4.5,1.4-8.9,2.3-13.3c1.6-18.3-0.4-28.5-0.4-28.5c-16.8-65.6-65.8-69.4-76.8-69.4c-0.7,0-1.4,0-2.2,0.1c-54,1.4-71.5,44.6-71.5,44.6c-9,12.5-4,61.5-4,61.5c-1.2-0.7-2.3-1.2-3.2-1.5c0.2,0.4,0.4,0.8,0.6,1.3c1.8,4.4,4.3,11.7,9,13.6c0.3-5.6,0.7-11.4,0.7-16.9c0.1-6-2.6-11.2-2.7-17.4c-0.1-6,3.4-10.9,3.7-16.6c0.2-4.5-2.9-12.4,0.3-16.3c0.3-0.3,0.4-0.4,0.7-0.7l0.3-1c6.8-2,14.6-1.8,21.2-4.7c3.4-1.5,5.1-3.8,8.8-4.4c4.5-0.7,9.1-1,13.7-1c5.2,0,9.9,1.6,15.2,1.7c10.6,0.1,21.2-0.8,31.7-1c4.3-0.1,8.1,1.1,12.1,1.9c3.3,0.7,6.9,0.6,10,1.7c5.2,1.9,11.4,3.7,16.9,6.1c1.2,6.7,1.3,13.9,2.3,20.7c0.3,1.8,0.4,3.5,1.2,5.2c1,2.2,4.1,3.8,4.9,6.1c0.7,1.9-0.1,5,0.4,7.1c0.8,3.3,2.3,6.3,3,9.5c0.8,3.6,1.9,7.8,1,11.7C254.6,200.7,255.1,200.6,255.2,200.6z"/></g><g class="facial-hair facial-hair-11"><path fill="#2e1d16" fill-opacity="0.5" d="M144,266.5c1.62-2.03,3.62-4.12,6.17-4.97c0.54-0.18,1.2,0,1.69-0.19c0.71-0.28,1.13-1.03,1.81-1.3c1.93-0.78,4.27-0.29,6.31-0.7c0.74-0.15,1.58-0.65,2.41-0.87c0.71-0.19,1.48-0.15,2.11-0.3c1.48-0.35,1.92-0.48,3.7-0.34c0.76,0.06,1.52,0.19,2.3,0c1.48-0.35,2.19-1.27,3.83-1.17c1.18,0.07,2.77,1.52,3.3,0.01c0.09,0.97-0.26,2.1,1.01,2.35c-0.24,0.39,0.1,0.36-0.42,0.64c0.21-0.09,0.5-0.02,0.73-0.15c-0.02,0.11-0.23,0.79-0.3,0.95c-0.84,0.05-0.67-0.93-1.3-0.99c-0.45-0.04-0.88,0.64-1.29,0.73s-1.03-0.13-1.38-0.06c-0.71,0.16-1.34,0.76-2.17,0.69c-1.04-0.1-1.52-1.04-2.5-1.01c-0.25,0.01-0.8,0.59-1.15,0.67c-0.64,0.16-1.52-0.27-2.01-0.18c-0.57,0.1-1.05,0.58-1.67,0.72c-0.63,0.14-1.19-0.15-1.75-0.09c-1.43,0.15-1.97,1.06-3.53,1.02c-0.7-0.02-1.31-0.7-2.05-0.48c-0.87,0.26-0.73,1.45-1.36,1.94c-1.03,0.8-2.56,0.21-3.64,0.11c-0.23,0.79-0.13,1.61-0.17,2.43c-1.06,0.17-1.86-0.52-2.79-0.76c-0.35,1.76-3.09,2.15-3.55,3.95c-0.17-0.26-0.76-0.58-0.96-0.94c-0.98,0.46-1.29-0.64-1.66-1.37c0.47-0.1,0.5-0.48,0.82-0.7"/><path fill="#2e1d16" fill-opacity="0.5" d="M181.5,257.83c0,0.51-0.21,1.54,0,2c0.46,1.03,0.46,0.37,1.05,0.53c0.09,0.02,0.32-0.4,0.49-0.39c0.46,0.01,0.63,0.55,1.13,0.52c1.06-0.06,1.76-1.01,2.54-1.13c1.74-0.28,3.06,1.49,4.65,1.64c1.63,0.15,3.08-0.26,4.81,0.03c1.46,0.25,2.26,1.36,3.57,1.76c0.99,0.31,2.22-0.42,3.11-0.11c0.65,0.23,1.12,1.21,1.83,1.47c2.07,0.77,4.49-0.28,6.46,1.17c0.95,0.7,1.96,1.84,2.71,2.81c0.73-0.04,1.7,0.27,2.6,0.37c-0.28-0.86,0.36-1.87,0.07-2.69c-0.22-0.64-1.2-1.09-1.67-1.48c-1.32-1.12-2.53-2.45-3.99-3.54c-1.7-1.28-2.15-0.94-4.01-1.13c-1.71-0.17-3.46-0.91-5.3-1.17c-2.38-0.35-4.13,1.08-6.56,0.46c-1.76-0.45-3.24-1.24-5.1-1.66c-2.02-0.46-3.25,0.28-5.18,0.41c-0.66,0.04-4.48-0.91-4.72,0.12c-0.23,0.96,1.15,0.34,1.35,0.01"/><path fill="#2e1d16" fill-opacity="0.2" d="M164,317.67c-1,0.07-1.69-0.63-2.57-1.05c-1.66-0.79-2.87-1.04-4.66-1.45c-1.92-0.44-2.59-2.18-4.41-2.94c-0.23,1.14-1.42,1.56-2.5,1.46c-0.3,1.72,0.67,3.42,1.78,4.52c1.24,1.24,2.76,1.42,4.14,2.33c0.71,0.47,0.76,1.07,1.38,1.64c0.71,0.66,1.82,0.77,2.68,1.16c1.46,0.65,1.72,1.21,2.83,2.18c1.51,1.31,3.7,1.64,5.6,1.79c0.65,0.05,0.96-0.3,1.95,0.03c0.65,0.22,1.23,0.83,1.79,1c0.64,0.2,0.94,0.1,1.66,0.17c0.32,0.03,0.66-0.24,1.02-0.19c0.39,0.06,0.55,0.61,0.84,0.66c0.77,0.12,1.56-0.33,2.31-0.15c1.04,0.25,1.73,1.48,2.64,1.98c1-2.08,4.73-1.07,6.53-0.8c1.56,0.24,4.04,0.59,5.63,0.13c0.97-0.28,1.49-0.99,2.71-1.13c1.42-0.16,2-0.03,3.39-0.78c1.27-0.68,2.01-1.7,3.09-2.39c2.96-1.9,6.19-1.91,8.81-4.54c1.44-1.44,2.74-2.28,4.16-3.41c0.72-0.57,2.59-2.65,2.21-3.89c-0.08-0.25-1.5-1.58-1.87-1.63c-1.44-0.19-2.77,1.89-4.15,2.3c-1.56,0.47-2.43,0.34-3.82,1.68c-0.79,0.76-1.11,1.19-1.97,1.83c-1.42,1.05-2.7,2.31-4.02,3.33c-1.29,0.99-2.68,0.92-4.36,1c-1.66,0.08-3.25-0.1-4.84,0.3c-0.82,0.21-1.21,0.64-2.3,0.7c-2.67,0.16-5.55,1.24-8.19,1c-3.05-0.28-6.11-1.38-9.17-2.04c-1.69-0.36-5.38-1.72-6.18-3.27c-2.47,0.29-1.91-3.33-4.64-0.2"/></g><g class="nose nose-14"><path fill="#b48166" d="M186.01,198.89c-0.17,1.53-0.26,3.95-0.49,5.46c-0.58,3.86,0.9,6.29,0.88,10.24 c-0.02,6.65,6.48,12.91,4.38,19.46c-5.2-0.71-6.56-12.33-6.95-16.23c-0.33-3.31-1.14-7.11-1.01-10.49 c0.11-2.91,1.43-6.24,2.54-9.75C185.35,197.6,186.24,196.78,186.01,198.89z"/><path fill="#8c593e" d="M167.01,243.31c-1.69-0.6-8.1-2.83-4.16-5.28c3.3-2.05,6.01,3.82,7.51,5.57c-1.23,0.46-2.28-0.2-3.4-0.53"/><path fill="#8c593e" d="M180.75,241.5c2.52-0.88,6.87-5.64,8.51-1.76c0.47,1.11,0.34,2.4-0.75,3.03c-1.45,0.83-5.62-0.48-7.47-0.06c-0.18-0.46,0.07-0.58,0.21-0.96"/><path fill="none" stroke="#af7c61" stroke-miterlimit="10" d="M154.5,236.75c0.01,3.79,0.5,4.04,3.51,6.06c1.94,1.3,3.47,2.55,5.75,3.19c4.81,1.36,8.25,4.81,14,3.75c2.51-0.46,4.55-1.87,7-2.5c2.1-0.54,3.37-1.23,5.56-1.25c5.88-0.06,7.54-5.88,5.49-10.81c-0.9-2.16-2.54-3.59-4.05-5.44"/></g><g class="mouth mouth-9"><path fill="#151111" d="M152.27,272.06c2.41,1.94,4.48,4.09,6.67,6.21c0.7,0.68,1.36,0.97,2.3,1.26c2.91,0.9,6.01,0.96,8.94,1.87c2.21,0.69,4.41,1.53,6.61,2.1c5.6,1.47,12.66,1.42,18.18-0.53c0.72-0.26,1.63-0.32,2.27-0.62c0.9-0.42,1.5-1.25,2.44-1.68c1.68-0.76,2.76-1.64,3.97-3c1.12-1.26,2.87-3.23,2.94-5.02c-2.91,0.45-6.06,1.07-8.96,0.46c-3.38-0.7-6.83-1.47-10.12-2.4c-2.71-0.76-5.58-0.68-8.34-1.29c-2.23-0.5-4.58-0.55-6.86-1.12c-4.81-1.19-9.79-1.94-14.36,0.07c-1.27,0.56-2.68,0.62-3.67,1.56c-0.52,0.5-0.92,1.25-1.34,1.87"/><path fill="#8E4531" d="M159.87,271.92c0,0.93-0.26,2.42,0.1,3.23c0.81,1.8,4.15,2.11,5.72,2.49c4.33,1.03,9.69,0.55,14.11,0.16c1.59-0.14,3.11-0.7,4.67-0.95c1.7-0.27,3.43-0.04,5.12-0.28c1.22-0.18,2.44-1.01,3.66-0.52c1.05,0.43,1.44,1.16,2.77,1.21c1.32,0.04,2.24-0.46,3.33-0.93c0.74-0.32,2.06-0.56,2.45-1.43c0.8-1.82-2.15-2.33-3.36-2.71c-1.94-0.61-3.71-1.32-5.6-2c-3.9-1.4-7.42-1.09-11.37-0.4c-4.88,0.85-9.06,1.26-14.02,0.42c-2.86-0.49-5.7-0.01-7.58,1.98"/><path fill="#F7F2E8" d="M159.87,274.86c0.01,1.4,0.09,2.12,1.44,2.84c0.43,0.23,0.99,0.14,1.37,0.36c0.52,0.29,0.76,0.92,1.32,1.21c0.93,0.48,2.15,0.24,3.18,0.56c1.35,0.43,1.9,0.17,3.24,0.23c0.84,0.04,2.21,0.34,3.07,0.54c0.96,0.22,1.77,0.78,2.7,1.04c2.21,0.6,4.07,0.91,6.14,0.6c1.26-0.19,2.58,0.14,3.84,0.1c1.05-0.03,1.72-0.46,2.67-0.8c0.9-0.32,1.76-0.28,2.67-0.51c0.93-0.24,1.27-0.9,2.14-1.24c0.84-0.32,1.88-0.11,2.78-0.43c0.67-0.25,1.3-0.55,1.99-0.79c1.2-0.42,3.25-1.53,3.62-2.73c-1.46-0.59-3.11-0.63-4.55,0.07c-1.14,0.55-0.54,0.55-1.7,0.13c-0.87-0.31-1.39-0.58-2.13,0.32c-0.78-0.74-1.93-1.97-3.08-1.89c-0.5,0.03-0.81,0.55-1.23,0.64c-0.89,0.19-0.87-0.18-1.85-0.55c-1.03-0.39-2.67-0.51-3.72-0.23c-0.63,0.17-0.78,0.43-1.3,0.7c-0.28,0.14-0.12,0.58-0.48,0.66c-0.4,0.09-1.36-0.56-1.76-0.72c-1.21-0.5-2.73-0.9-4.07-0.77c-1.15,0.11-1.78,1.29-2.67,1.2c-0.96-0.09-2.11-1.58-3.34-1.22c-0.51,0.15-0.68,0.84-1.2,0.95c-0.38,0.08-1.17-0.41-1.73-0.41c-0.99,0.01-1.49,0.58-2.3,0.9c-0.86,0.34-0.62,0.3-1.61,0.07c-0.97-0.23-2.9-0.05-3.57-0.7"/><path fill="#a7696a" fill-opacity="0.9" d="M152.94,274.73c1.54,2.02,2.45,4.46,4.14,6.41c1.51,1.75,3.25,3.27,4.57,5.2c1.25,1.82,2.15,2.55,3.7,4.14c2.1,2.16,4.84,2.95,7.74,3.34c1.34,0.18,3.03-0.14,4.4,0c1.91,0.19,3.52,0.77,5.34,0.27c2.4-0.66,3.96,0.58,6.4,0.27c1.15-0.15,2.39-0.28,3.47-0.67c1.22-0.43,1.97-1.25,3.03-1.88c1.24-0.74,2.43-1.22,3.58-2.13c2.08-1.67,3.96-3.28,5.3-5.56c0.58-1,0.74-2.22,1.27-3.23c0.6-1.15,1.2-1.78,1.53-3.05c0.4-1.53,1.01-3.82-0.39-5.09c-1.16,2.88-5.57,3.51-7.83,5.32c-1.53,1.22-3.58,1.44-5.38,1.98c-1.41,0.42-2.98,1.01-4.47,1.21c-3.25,0.44-6.76,0.16-9.98-0.11c-1.74-0.15-3.48-0.46-5.2-0.63c-1.99-0.2-4.37,0.29-6.28-0.19c-1.43-0.36-2.84-1.21-4.13-1.84c-1.86-0.9-3.86-1.53-5.76-2.41c-2.36-1.09-4.98-2.72-6.81-4.61c0.93,0.85,0.75,1.94,1.24,2.88c0.41,0.77,1.14,1.05,1.44,1.87"/><path fill="#b48166" d="M150,270.99c0.4-1.38,2.68-2.26,3.91-2.8c2.1-0.93,4.26-1.72,6.53-2.24c2.26-0.52,4.16-0.98,6.21-1.93c1.58-0.73,3.14-1.71,4.96-1.57c1.58,0.12,2.4,1.24,3.95,1.47c1.44,0.22,3.14,0.3,4.5-0.01c3.25-0.75,7.57-1.96,10.86-1.03c3.62,1.02,6.77,3.97,10.11,5.75c1.51,0.81,3.04,1.42,4.6,1.96c1.18,0.41,2.34,1.47,3.58,1.75c0.32,1.19,0.7,1.6-0.37,2.38c-0.97,0.71-2.5,0.94-3.6,1.33c-1.16,0.41-2.13,0.81-3.45,0.51c-1.28-0.29-3.19-0.48-4.54-0.93c-0.88-0.3-1.65-1.13-2.56-1.45c-1.18-0.41-2.5-0.11-3.74-0.29c-1.39-0.2-2.75-0.46-4.15-0.66c-0.88-0.13-2.21-0.52-3.13-0.22c-0.5,0.17-1.01,0.79-1.52,1.02c-1.07,0.48-2.63,0.89-3.77,1.19c-1.45,0.37-2.55-0.29-3.97-0.76c-2.91-0.96-6.58-1.51-9.74-1.21c-1.34,0.13-2.2,0.87-3.61,0.94c-1.69,0.08-3.42-0.38-5.07-0.71c-1.11-0.22-2.06-0.44-3.1-0.87c-1.05-0.43-1.61-1.05-2.51-1.63"/></g></svg>