<svg id="s592cd39cdbd60" class="face" xmlns="http://www.w3.org/2000/svg" xmlns:xlink="http://www.w3.org/1999/xlink" x="0px" y="0px" width="357px" height="358px" viewBox="0 0 357 358"><path fill="#b36537" d="M268.5,189.04c-1.41-1.92-2.86-2.74-4.22-2.91c-3.96-0.47-7.28,4.62-7.28,4.62c2.38-21.04,0-32.96,0-32.96c-16.83-65.56-65.84-69.37-76.8-69.39c-0.71,0.02-1.44,0.04-2.2,0.06c-54,1.42-71.5,44.58-71.5,44.58c-9,12.5-4,61.55-4,61.55c-21-12.95-1.5,45.45-1.5,45.45c5,13.5,8,1,8,1c2.88,12.67,6.63,23.41,10.9,32.53c0.85,44.99,1.74,68.73,1.44,83.43c23.33,0,116.79,0,123.83,0l1.52-85.32c6.58-17.33,7.31-32.14,7.31-32.14c2.5,3,6.5,1.5,6.5,1.5C272.75,234.79,268.5,189.04,268.5,189.04z M255.96,199.92C255.93,200.18,255.94,200.15,255.96,199.92L255.96,199.92z M256.22,197.67c0.03-0.3,0.07-0.64,0.11-1.01C256.29,197.01,256.25,197.35,256.22,197.67z M256.82,192.32c0.06-0.55,0.11-0.99,0.14-1.26C256.91,191.5,256.87,191.92,256.82,192.32z M265.33,190.26c-0.04-0.16-0.09-0.37-0.16-0.62c-0.13-0.5-0.31-1.2-0.54-2.1c0.22,0.86,0.4,1.58,0.54,2.1C265.24,189.9,265.29,190.1,265.33,190.26C265.47,190.79,265.48,190.83,265.33,190.26z"/><path fill="#ae6032" d="M125.25,227.25c4.5-6.5,6.97-8.84,12.65-10c4.87-0.99,13.28-2.45,17.35-5.75c9.63-7.79,13.17-20.35,5.59-28.43c-4.32-4.6-7.03-7.3-13.05-8.81c-4.83-1.22-11.04-2.16-15.05-6.1c-7.84-7.69-11.29-20.73-10.82-31.2c0.41-8.95,9.17-18.79,15.15-24.83c7.04-7.12,15.71-14.12,23.72-20.42c-40.38,8.84-54.04,42.51-54.04,42.51c-9,12.5-4,61.55-4,61.55c-21-12.95-1.5,45.45-1.5,45.45c5,13.5,8,1,8,1c2.89,12.7,6.64,23.46,10.93,32.59c-0.78,38.87,1.32,70.54,1.15,83.21c7.79,0.1,53.6-30.51,61.45-32.32C179.16,318.81,113.75,264.75,125.25,227.25z"/><g class="eyes eyes-24"><path fill="#FFFFFF" fill-opacity="0.7" d="M125.8,205.3c0,0,15.6-12.5,30.9-5.5c0,0,0.6,3.2-1.5,4C155.1,203.7,130.3,206.4,125.8,205.3z"/><path fill="#FFFFFF" fill-opacity="0.7" d="M202.4,203.1c0,0,1.4-7.7,18.8-5.5c0,0,11,1.9,15.6,6C236.8,203.7,209.8,206,202.4,203.1z"/><path fill="#483224" d="M224,204.4c0.4-0.9,0.6-1.9,0.6-2.9c0-1.2-0.3-2.3-0.9-3.3c-1.6-0.4-2.6-0.6-2.6-0.6c-4.5-0.6-7.9-0.5-10.5,0c-0.8,1.1-1.2,2.5-1.2,3.9c0,1,0.2,1.9,0.6,2.8C214.3,204.7,219.4,204.6,224,204.4z"/><path fill="#483224" d="M133.7,200.6c0,0.3-0.1,0.6-0.1,0.9c0,1.4,0.4,2.7,1.2,3.8c4.4-0.2,9.5-0.6,13.5-1c0.4-0.9,0.6-1.8,0.6-2.8c0-1.4-0.5-2.8-1.2-3.9C142.4,197.5,137.5,198.9,133.7,200.6z"/></g><g class="eyebrows eyebrows-12"><path fill="#0e0e0c" fill-opacity="0.6" d="M116.67,186.33c1.18-2.47,4.08-5.08,6.17-6.8c2.93-2.42,6.2-4.23,10.16-4.04c2.26,0.11,4.05,0.5,6.13,1.35c2.48,1.01,4.97,1,7.58,1.33c2.81,0.36,5.34,0.13,8.23-0.01c2.17-0.1,4.17-0.19,5.45,1.8c2.78,4.32-6.24,3.67-8.37,3.36c-4.1-0.6-8.21-0.8-12.35-1.17c-3.58-0.32-6.49-1.23-9.75,0.63c-2.86,1.63-5.96,2.54-8.92,3.87c-1.18,0.53-2.56,1.15-3.96,0.64C116.81,187.01,116.69,186.71,116.67,186.33"/><path fill="#0e0e0c" fill-opacity="0.6" d="M202.5,181.83c2.63-0.31,4.95-1.63,7.5-1.99c1.88-0.26,3.86-0.1,5.73-0.38c3.38-0.5,6.25-2.84,9.56-3.33c1.77-0.26,4.01-0.24,5.84,0.03c1.26,0.19,2.98,0.29,4.04,0.84c0.56,0.29,1.01,1.05,1.53,1.45c2.27,1.75,4.52,3.66,6.3,6.05c1.2,1.61,2.79,4.26,2.47,6.47c-3.74,0.2-5.04-1.75-7.85-3.76c-3.49-2.5-5.61-4.04-10.12-4.05c-4.83,0-9.08-0.25-13.8,0.54c-2.9,0.48-6.37,1.52-9.24,0.67c-1.5-0.45-3.35-3.17-0.63-2.87"/></g><g class="hair hair-2003"><path fill="#0e0e0c" d="M257.5,114.75c-0.38-1.59-0.77-3.29-1.19-5c-2.85-3.06-6-5.84-9.37-8.38c-2.51-1.19-5.13-2.19-7.63-3.3c-10.55-4.7-20.99-7.93-32.07-11.06c-1.51-0.43-3.01-0.91-4.53-1.4c-0.94,0.31-1.98,0.38-3.04,0.21c-1.39-0.23-2.71-0.63-4-1.1c-2.95-0.3-5.88-0.78-8.8-1.28c-23.06,0.68-46.36,2.21-67.27,11.17c-2.38,1.78-4.79,3.51-7.07,5.42c-0.02,0.01-0.03,0.02-0.05,0.03c-1.06,1.67-2.05,3.39-3.03,5.07c0.04,0.56,0.02,1.12-0.14,1.69c-0.27,1-0.67,1.88-1.13,2.72c-0.42,2.27-1.04,4.52-1.87,6.78c-0.21,0.57-0.49,1.06-0.82,1.48c-0.31,2.49-0.64,4.69-1.01,5.88c-2.12,6.79-1.8,13.44-3,20.5c-1.36,8.02-1,26.39-0.54,37.27c0.02-0.01,0.04-0.02,0.06-0.02c-0.29-9.07,0.65-18.13,3.67-26.76c0.61-1.74,1.85-2.76,3.25-3.19c1.19-3.56,3.02-6.72,6.17-8.71c0.43-0.81,1.07-1.52,1.87-2.09c0.71-0.5,1.43-0.98,2.16-1.46c1.56-2.38,3.86-4.26,7.06-5.69c3.73-1.67,7.85-2.43,11.67-3.68c2.98-0.97,5.68-2.36,8.68-3.02c2.44-0.53,17.71-2.68,22.34-3.15c3.81-0.39,7.48-0.03,11.26-0.2c3.73-0.17,7.28-0.38,10.78,0.4c6.93,1.55,14,1.55,20.95,3.39c1.24,0.33,2.52,0.66,3.79,1.01c8.49,0.52,17.73,4.34,23.56,9.47c1.14-0.02,2.31,0.47,3.3,1.71c0.49,0.62,0.99,1.24,1.49,1.87c1.36-0.27,2.81,0.15,4.01,1.63c5.25,6.5,8.92,13.6,11.32,21.13c-0.23-4.72-0.49-9.73,0.09-14.1c0.49-3.63,0.17-6.18-0.06-9.81c-0.21-3.21,0.34-5.89,0.65-8.97C259.28,128.95,258.29,118.01,257.5,114.75z"/></g><g class="facial-hair facial-hair-26"><path fill="#0e0e0c" fill-opacity="0.4" d="M169,312c3.1-6.5,12.4-16,14.6-22.7c2.6,1.2,7.7,12.5,9.8,14.7c2.7,2.8,3.3,5.7,3.3,5.7c2.7,2.6,9.9,9.1,2.2,14.6c-7.1,5-20.5,3.8-23.9,2.8c-3.9-1.1-11.7-1.3-10.7-8.4c0.4-2.9,5.5-8.7,7.7-10"/></g><g class="nose nose-3"><path fill="#a95b2d" d="M186.01,198.89c-0.17,1.53-0.26,3.95-0.49,5.46c-0.58,3.86,0.9,6.29,0.88,10.24 c-0.02,6.65,6.48,12.91,4.38,19.46c-5.2-0.71-6.56-12.33-6.95-16.23c-0.33-3.31-1.14-7.11-1.01-10.49 c0.11-2.91,1.43-6.24,2.54-9.75C185.35,197.6,186.24,196.78,186.01,198.89z"/><path fill="#813305" d="M160.5,242.83c0.47,1.76,2.76,1.39,4.17,1.67c1.27,0.25,2.54,0.69,3.83,0.96c1.6,0.34,6.19,3.16,7.51,1.25c1.24-1.79-4.14-5.58-5.67-6.26c-3.12-1.38-4.45-0.63-7.33,1.08c-0.81,0.48-2.51,0.69-2.68,1.63"/><path fill="#813305" d="M186.83,244.17c-2.19-4.11,13.52-4.56,12.63-1.54c-0.19,0.65-2.54,0.92-3.13,1.04c-1.49,0.29-2.5,0.76-3.85,1.55c-2.64,1.56-3.54,0.66-5.49-1.05"/><path fill="none" stroke="#a45628" stroke-miterlimit="10" d="M161.67,224.17c-1.22,1.53-2.63,2.46-3.55,4.34c-0.6,1.22-1.12,2.55-1.74,3.69c-1.46,2.69-2.6,5.47-1.89,8.47c0.86,3.59,2.67,5.06,5.72,7.29c0.96,0.7,2.26,1.57,3.45,1.84c1.56,0.35,3.1-0.27,4.67-0.13c2.4,0.21,5.54,1.86,7.2-0.81c2.44-0.85,5.26-0.03,7.81-0.53c1.46-0.29,2.95-0.57,4.53-0.5c1.75,0.08,3.27,0.69,5,0.83c5.59,0.47,11.69-1.64,14.18-6.78c1.22-2.52-0.06-4.44-1.54-6.31c-0.63-0.8-1.39-1.36-1.87-2.24c-0.73-1.34-0.91-4.8-2.64-4.84"/></g><g class="mouth mouth-10"><path fill="#D48489" d="M157.83,269.87c1.52-2.85,3.22-4.73,6.45-5.69c2.21-0.65,4.14,0.43,6.31,1c2.47,0.65,4.79,0.66,7.41,0.77c4.82,0.21,9.68,2.1,14.49,1.38c3.07-0.46,6.68-0.63,9.78-0.01c0.4,0.08,0.89,0,1.31-0.01c-1,1.02-1,3.36-1.75,4.71c-0.65,1.17-1.58,2.3-2.54,3.28c-2.21,2.26-4.36,2.42-7.35,3.43c-2.58,0.87-5.51,1.95-8.25,2.31c-2.97,0.38-6.07-0.22-9.04,0.14c-3.3,0.39-5.23,1.18-8-0.77c-2.28-1.61-6-3.04-7.68-5.05c-1.27-1.52-1.34-3.87-1.33-5.87"/><path fill="#FCFCFD" d="M158.22,269.48c0.87,0.79,0.27,3.14,0.98,4.31c0.58,0.96,1.86,2.36,2.78,2.69c1.11,0.4,1.4-0.17,2.15-0.34c1.11-0.25,1-0.19,1.95-0.04c1.85,0.29,2.12,0.55,3.53,1.56c2.84,2.03,5.3,2.38,8.57,1.37c3.18-0.98,6.48-1.12,9.59-2.31c1.38-0.53,2.78-0.78,4.31-1.16c1.4-0.35,3.26-0.26,4.54-0.75c1.86-0.7,5.85-3.14,6-5.28c-2.84-1.65-5.9-1.15-8.97-1.02c-0.81,0.03-1.6-0.09-2.31,0.19c-0.19,0.07-0.75,0.77-0.86,0.79c-0.88,0.13-0.5-0.16-1.13-0.25c-1.71-0.23-0.99-1.01-2.31,0.46c-0.48,0.54-0.77,1.16-1.23,1.78c-1.05-1.74-0.17-2.25-2.73-2.38c-0.67-0.03-1.71-0.18-2.35,0c-0.65,0.17-1.56,1.33-1.91,1.39c-1.32,0.21-1.77-1.56-2.83-2.36c-1.31-0.99-3.15-0.84-4.82-0.75c0.13,0.82,0.75,1.52,1.13,2.29c-1.08-0.13-5.05-3.66-5.49-0.58c-1.44-0.77-5.78-3.05-5.87,0.39c-0.84-0.27-1.89-0.23-2.52,0.42"/><path fill="#a7696a" fill-opacity="0.9" d="M153.13,267.52c0.78,1.37,1.35,2.74,2.5,3.97c1.25,1.35,1.61,2.25,2.39,3.82c1.14,2.29,3.61,5.6,5.73,7.04c2.56,1.74,6.81,3.19,9.7,3.17c2.77-0.02,5.16,0.46,7.84-0.39c1.81-0.57,3.38-1.2,5.31-1.37c3.19-0.29,5.68-0.1,8.41-1.66c2.59-1.48,4.33-2.72,6.47-4.6c2.61-2.3,6.47-6.95,6.05-10.74c-3.24,0.45-4.63,3.96-7.42,5.47c-2.6,1.4-6.04,2.32-8.8,3.09c-1.59,0.44-3.28-0.01-4.91,0.23c-1.46,0.21-3.13,0.68-4.69,0.98c-3.59,0.69-6.56,2.32-10.17,0.64c-1.71-0.79-3.02-1.57-4.89-1.85c-1.9-0.28-4.69,0.32-6.26-0.55c-1.29-0.71-2.26-2.35-3.38-3.32c-1.21-1.06-2.81-1.89-3.48-3.33"/><path fill="#a95b2d" d="M152.54,267.92c1.77-0.41,2.89-2.63,4.5-3.48c1.56-0.82,3.6-1.03,5.3-1.45c4.24-1.04,10.07-1.44,14.46-0.75c1.75,0.28,2.86,1.11,4.7,1.17c1.84,0.07,3.65,0.16,5.48,0.2c4.26,0.09,8.14,1.38,12.34,1.37c2.7,0,7.2,0.73,8.97,2.7c-3.92,2.3-7.55,1.21-11.93,1.21c-3.59,0-6.78-0.89-10.36-0.78c-3.96,0.12-6.8,1.64-10.72,0.34c-3.28-1.09-6.75-2.05-10.23-2.1c-2.11-0.03-4.54,0.47-6.63,0.78c-1.83,0.27-4.23,1.49-6.02,1.18c0.64,0.01,1.14-0.21,1.7-0.39"/></g></svg>