<svg id="s592cd39de7d7e" class="face" xmlns="http://www.w3.org/2000/svg" xmlns:xlink="http://www.w3.org/1999/xlink" x="0px" y="0px" width="357px" height="358px" viewBox="0 0 357 358"><path fill="#be8b70" d="M268.5,189.04c-1.41-1.92-2.86-2.74-4.22-2.91c-3.96-0.47-7.28,4.62-7.28,4.62c2.38-21.04,0-32.96,0-32.96c-16.83-65.56-65.84-69.37-76.8-69.39c-0.71,0.02-1.44,0.04-2.2,0.06c-54,1.42-71.5,44.58-71.5,44.58c-9,12.5-4,61.55-4,61.55c-21-12.95-1.5,45.45-1.5,45.45c5,13.5,8,1,8,1c2.88,12.67,6.63,23.41,10.9,32.53c0.85,44.99,1.74,68.73,1.44,83.43c23.33,0,116.79,0,123.83,0l1.52-85.32c6.58-17.33,7.31-32.14,7.31-32.14c2.5,3,6.5,1.5,6.5,1.5C272.75,234.79,268.5,189.04,268.5,189.04z M255.96,199.92C255.93,200.18,255.94,200.15,255.96,199.92L255.96,199.92z M256.22,197.67c0.03-0.3,0.07-0.64,0.11-1.01C256.29,197.01,256.25,197.35,256.22,197.67z M256.82,192.32c0.06-0.55,0.11-0.99,0.14-1.26C256.91,191.5,256.87,191.92,256.82,192.32z M265.33,190.26c-0.04-0.16-0.09-0.37-0.16-0.62c-0.13-0.5-0.31-1.2-0.54-2.1c0.22,0.86,0.4,1.58,0.54,2.1C265.24,189.9,265.29,190.1,265.33,190.26C265.47,190.79,265.48,190.83,265.33,190.26z"/><path fill="#b9866b" d="M125.25,227.25c4.5-6.5,6.97-8.84,12.65-10c4.87-0.99,13.28-2.45,17.35-5.75c9.63-7.79,13.17-20.35,5.59-28.43c-4.32-4.6-7.03-7.3-13.05-8.81c-4.83-1.22-11.04-2.16-15.05-6.1c-7.84-7.69-11.29-20.73-10.82-31.2c0.41-8.95,9.17-18.79,15.15-24.83c7.04-7.12,15.71-14.12,23.72-20.42c-40.38,8.84-54.04,42.51-54.04,42.51c-9,12.5-4,61.55-4,61.55c-21-12.95-1.5,45.45-1.5,45.45c5,13.5,8,1,8,1c2.89,12.7,6.64,23.46,10.93,32.59c-0.78,38.87,1.32,70.54,1.15,83.21c7.79,0.1,53.6-30.51,61.45-32.32C179.16,318.81,113.75,264.75,125.25,227.25z"/><g class="eyes eyes-17"><path fill="#ffffff" fill-opacity="0.7" d="M157.243,198.587c-1.524-1.36-4.262-2.417-6.339-2.587c-0.832-0.068-1.68-0.071-2.529-0.057c0.356,0.245,0.694,0.548,1.028,0.931c0.869,0.995,2.476,2.215,2.722,3.528c0.486,2.597-2.42,5.352-4.6,6.229c-2.99,1.203-5.94,0.13-8.053-2.153c-2.213-2.393-2.299-4.442-1.274-7.112c-2.103,0.491-4.044,1.064-4.813,1.637c-1.419,1.057-2.36,2.351-3.754,3.358c0.351,0.998,4.133,3.899,4.935,4.507c1.587,1.202,3.986,2.07,5.926,2.387c3.356,0.549,6.377,0.334,9.231-1.509c2.503-1.617,4.958-3.615,7.036-5.741c0.242-0.248,1.564-1.545,1.596-1.656C158.552,199.651,157.81,199.093,157.243,198.587z"/><path fill="#483224" d="M139.472,204.479c2.112,2.283,5.063,3.355,8.053,2.153c2.18-0.876,5.085-3.632,4.6-6.229c-0.246-1.313-1.853-2.534-2.722-3.528c-0.334-0.383-0.672-0.686-1.028-0.931c-0.996,0.016-1.993,0.056-2.972,0.056c0,0-3.813,0.575-7.205,1.367C137.173,200.037,137.259,202.086,139.472,204.479z"/><path fill="#ffffff" fill-opacity="0.7" d="M224.75,197.75c-0.927-0.4-1.801-0.626-2.75-1c-0.203-0.08-0.401-0.148-0.597-0.209c0.012,0.45-0.072,0.934-0.156,1.555c-0.24,1.773-0.452,3.541-1.747,4.91c-2.318,2.45-6.213,3.793-9.507,2.619c-2.027-0.723-2.863-2.054-3.765-3.946c-0.666-1.397-1.591-3.14-1.116-4.733c0.106-0.357,0.292-0.674,0.502-0.979c-2.416,0.614-4.808,1.012-5.734,3.622c3.074,1.949,5.593,4.743,8.783,6.511c2.688,1.49,6.017,2.545,9.126,2.526c4.683-0.029,9.687-2.835,12.206-6.848C228.931,200.548,226.251,198.398,224.75,197.75z"/><path fill="#483224" d="M206.229,201.679c0.901,1.892,1.737,3.223,3.765,3.946c3.294,1.174,7.188-0.169,9.507-2.619c1.295-1.369,1.507-3.136,1.747-4.91c0.084-0.621,0.168-1.105,0.156-1.555c-1.315-0.407-2.495-0.412-3.996-0.553c-1.943-0.183-3.734-0.976-5.657-0.988c-1.307-0.009-2.126,0.348-3.375,0.125V195c-0.866,0.453-1.815,0.726-2.761,0.966c-0.21,0.305-0.396,0.622-0.502,0.979C204.638,198.539,205.563,200.281,206.229,201.679z"/></g><g class="eyebrows eyebrows-18"><path fill="#281312" fill-opacity="0.6" d="M117.5,198.33c-0.11-1.82,2.26-4.52,3.18-6.01c1.64-2.65,3.3-5.76,5.62-7.81c2.25-1.99,5.25-2.95,7.58-4.81c1.69-1.35,3.6-2.37,5.63-3.2c4.88-2.01,9.97-3.43,15.26-2.33c2.85,0.59,5.78,1.4,8.63,1.97c1.52,0.3,3.27,1.29,4.62,2.2c1.13,0.77,2.63,2.2,2.33,3.7c-0.5,2.51-4.22,1.95-6.01,1.5c-4.62-1.15-8.87-2.51-13.65-1.73c-4.53,0.74-8.37,0.9-12.72,2.69c-4.02,1.66-7.9,3.91-11.4,6.51c-1.29,0.96-7.94,7.94-9.06,7.49"/><path fill="#281312" fill-opacity="0.6" d="M231.17,178.31c-6.83-1.26-13.94-4.96-20.55-4.44c-4.35,0.35-8.11-0.01-11.79,1.92c-2.81,1.47-4.68,3.82-1.5,5.77c1.48,0.91,2.55,0.84,4.2,1.12c3.01,0.52,5.96-0.72,9.15-0.59c4.14,0.17,9.17,1.81,13.13,2.82c2.76,0.71,5.5,1.73,8.32,2.35c1.8,0.39,3.04,0.82,4.56,1.79c1.35,0.86,2.53,1.7,3.66,2.65c0.8,0.67,2.28,2.48,3.54,2.03c1.65-0.59,0.38-2.37-0.23-3.11c-1.39-1.71-2.33-3.6-3.61-5.4c-2.55-3.58-5.09-3.74-8.37-6.38"/></g><g class="chin chin-15"><path fill="none" stroke="#b9866b" stroke-miterlimit="10" d="M148.17,314.5c2.03,0.92,12.9,9.24,14.52,10c2.37,1.12,15.18,5.5,17.81,6c7.24,1.37,12.83-0.5,19.5-2.83c8.62-3.02,16.75-8.58,20.67-17"/></g><g class="hair hair-1006"><path fill="#281312" d="M257.6,187.3c1.6-18.2-0.4-28.5-0.4-28.5c-16.8-65.6-65.8-69.4-76.8-69.4c-0.7,0-1.4,0-2.2,0.1c-54,1.4-71.5,44.6-71.5,44.6c-7.2,10-5.4,43.3-4.5,56.3c0.1,0.2,0.2,0.5,0.3,0.7c3.5-4,5.5-11.5,6-17c0.5-9,1-9.5,5-17c-0.5,0-1,0.5-1,0.5c3.3-5.4,7.7-10.3,11.2-15.6c4.3-6.6,10.9-7.6,18.3-7.4c10.4,0.3,20.6,3.4,30.9,4.5c12.9,1.4,25.7-0.9,38.6-1.2c4.4-0.1,12.1-1.2,15.7,1.6c2.7,2.1,5.6,7.8,7.8,10.6c2,2.5,5.5,3.5,7.5,6c2,3,1,5,2.5,8c4,10,9,18,11,29C256.5,191,257,189.1,257.6,187.3z"/></g><g class="nose nose-21"><path fill="#b48166" d="M186.01,198.89c-0.17,1.53-0.26,3.95-0.49,5.46c-0.58,3.86,0.9,6.29,0.88,10.24 c-0.02,6.65,6.48,12.91,4.38,19.46c-5.2-0.71-6.56-12.33-6.95-16.23c-0.33-3.31-1.14-7.11-1.01-10.49 c0.11-2.91,1.43-6.24,2.54-9.75C185.35,197.6,186.24,196.78,186.01,198.89z"/><path fill="#8c593e" d="M162.63,247.25c1.69-1.11,2.96-2.59,5.26-2c0.68,0.18,3.84,1.33,3.47,2.47c-0.55,1.74-9.18,1.2-8.98-0.47"/><path fill="#8c593e" d="M185,246.13c1.59-0.98,3.93-1.6,5.62-0.72c0.94,0.49,4.06,1.96,2.5,3.07c-1.33,0.95-3.51-0.57-4.65-0.94c-0.77-0.25-1.65-0.11-2.38-0.38c-0.73-0.27-1.56-1.18-0.47-1.66"/><path fill="none" stroke="#af7c61" stroke-miterlimit="10" d="M161.38,230.88c-3.2,3.47-6.95,7.96-5.75,13.12c0.39,1.67,1.64,3.93,3.34,4.66c1.49,0.65,3.62,0.29,5.26,0.61c1.4,0.27,2.54,0.6,4.04,0.72c1.48,0.12,3.37-0.2,4.85,0.13c0.94,0.21,1.67,1.01,2.56,1.41c1.44,0.64,4.01,1.29,5.58,1.22c1.49-0.07,2.46-0.78,3.69-1.47c2.93-1.64,6.72-0.89,9.95-0.78c2.39,0.08,5.64-0.44,7.22-2.26c2.62-2.99-0.16-7.34-1.59-10.34c-1.1-2.3-2.29-2.99-3.88-5.1c-2.03-2.68-4.55-8.49-5.03-11.56"/></g><g class="mouth mouth-12"><path fill="#451715" d="M152.46,270.17c-2.79,0.96,3.26,4.86,3.97,5.26c1.37,0.76,2.81,1.17,4.33,1.58c1.08,0.3,2.09,0.74,3.21,0.92c1.03,0.16,1.58-0.17,2.49-0.17c1.36,0.01,2.41,0.77,3.87,0.78c1.18,0.01,1.72,0.36,2.74,0.5c1.06,0.14,1.71,0.01,2.79,0.25c1.14,0.26,2.4,0.27,3.51,0.22c1.77-0.09,3.55-0.1,5.09-0.76c2.3-0.99,5.21-0.27,7.72-0.99c1.52-0.43,3.28-1.05,4.95-1.23c1.16-0.12,2.39,0.09,3.57-0.12c1.12-0.2,1.45-1.09,2.64-1.66c0.76-0.36,1.9-0.78,2.53-1.31c3.84-3.28-8.58-7.73-10.54-8.28c-4.22-1.18-7.5,0.8-11.6,1c-2.41,0.12-4.74-0.01-7.13-0.13c-2.38-0.11-4.72-0.86-7.16-0.88c-3.05-0.01-5.46,1.67-8.36,2.15c-1.28,0.21-1.83,0.44-2.98,0.97C156.49,269.05,154.34,270.38,152.46,270.17"/><path fill="#D9A19D" d="M164.96,266.17c-3.59,1.64-2.22,5.06-1.5,7.99c0.29,1.17,0.72,2.88,1.78,3.61c0.75,0.52,2.05,0.65,2.99,0.78c2.04,0.28,3.88,1.07,5.9,1.46c3.74,0.72,6.09,0.46,9.57-0.87c1.98-0.75,3.87,0,5.88-0.37c2.59-0.47,5.36-1.98,7.13-3.72c1.42-1.39,2.09-2.19,2.02-4.24c-0.05-1.37-0.56-2.18-1.34-3.26c-2.13-2.93-7.09-1.8-10.29-1.63c-1.32,0.07-2.69-0.14-4,0c-0.69,0.08-1.41,0.4-2.12,0.47c-2.21,0.22-4.5-0.48-6.73-0.47c-2.19,0-4.2-0.37-6.4-0.38c-1.27,0-1.8,0.46-2.75,0.75"/><path fill="#E7C2AD" d="M157.08,269.67c0.01,1.51,0.24,2.37,1.12,3.62c0.72,1.02,1.2,2.38,2.23,3.14c0.76,0.57,2.08,0.65,3.03,0.28c1.04-0.4,1.89-1.93,2.84-2.2c0.89-0.25,2.74,1.37,3.63,1.85c1.71,0.93,2.55-0.16,4.3,0.09c1.63,0.23,2.52,1.43,4.24,0.97c1.33-0.35,2.18-0.78,3.47-0.53c1.46,0.28,2.96,0.96,4.5,0.78c1.29-0.15,2.34-0.93,3.69-1.15c1.21-0.19,2.52-0.14,3.69-0.38c0.71-0.14,1.45-0.76,2.15-0.85c1.83-0.23,3.17,0.99,5,0.07c0.73-0.37,3.03-1.29,3.41-1.93c0.67-1.14-0.26-3.06-1.06-3.78c-1.22-1.08-2-0.93-3.33-0.97c-1.14-0.03-2.29-1.17-3.39-0.86c-0.97,0.27-0.98,1.77-2.03,1.24c-0.62-0.31-0.94-1.83-1.71-2.13c-0.94-0.37-1.51,0.26-2.25,0.78c-0.39,0.27-0.87,0.74-1.28,0.94c-0.97,0.47-0.52,0.19-1.38-0.06c-1.44-0.43-2.62-1.03-4.23-1.03c-0.69,0-1.44-0.08-2.09,0.16c-0.52,0.19-0.88,0.75-1.41,0.86c-0.81,0.17-2.33-0.77-3.09-1.04c-0.9-0.32-1.69-0.4-2.77-0.34c-2.41,0.12-0.78,1.2-1.89,2.27c-1.1-0.71-2.06-1.43-3.49-1.65c-1.71-0.26-1.7,1.05-2.98,1.63c-1.35,0.61-2.26-0.28-3.42-0.63c-2.13-0.65-3.81,0.05-5.49,1"/><path fill="#aa775c" fill-opacity="1" d="M151.21,272.29c1.78,1.47,3.2,3.17,4.89,4.78c1.32,1.25,3.12,2.24,4.69,3.09c1.33,0.72,2.81,2.01,4.29,2.51c2.63,0.9,6.31,1.11,9.14,0.87s5.71,0.15,8.61,0.35c1.66,0.11,3.2-0.54,4.88-0.47c1.04,0.04,2,0.19,2.99-0.01c2.57-0.51,4.43-1.87,6.47-3.4c0.9-0.68,1.93-1.53,2.91-2.09c1.1-0.62,2.11-0.74,3.09-1.66c1.09-1.02,4.24-3.09,4.02-4.67c-0.78-0.1-1.05,0.64-1.6,1.07c-0.73,0.58-1.48,0.81-2.34,1.13c-1.04,0.39-1.98,0.85-3.15,0.97c-1.38,0.14-2.83-0.2-4.12,0.31c-1.43,0.56-2.34,1.22-3.95,1.44c-2.94,0.41-6.01,0.1-8.96,0.52c-1.2,0.17-2.41,0.51-3.72,0.38c-1.08-0.11-2.11-0.61-3.15-0.76c-1.84-0.27-3.79,0.01-5.63-0.12c-1.49-0.1-2.88-0.65-4.36-0.9c-1.26-0.22-2.37-0.16-3.63-0.1c-4.03,0.2-7.7-2.85-11.12-4.46c0.78,0.6,0.03,1.25-0.01,1.96"/><path fill="#b48166" d="M150.96,270.54c1.17,0.11,2.08-1.17,3.12-1.66c1.39-0.65,2.94-0.37,4.23-1.1c1.13-0.63,1.77-1.31,3.05-1.72c1.5-0.48,2.38-1.61,3.79-2.03c0.86-0.25,1.83-0.13,2.69-0.37c0.87-0.24,1.74-0.78,2.68-0.99c1.59-0.37,2.93,0.04,4.44,0.26c1.72,0.25,3.4-0.1,4.84,0.87c0.77,0.52,0.43,0.81,1.54,0.61c0.66-0.12,1.65-0.71,2.26-1.04c2.35-1.26,5.58-1.03,8.28-0.71c1.17,0.14,1.93,0.54,2.97,0.88c1.22,0.4,2.51,0.35,3.57,1.02c1.8,1.13,3.34,2.9,5.12,4.09c1.19,0.79,4.56,2.08,5.02,3.36c-1.6,0.11-2.21,0.16-3.51-0.6c-1.16-0.67-2.36-1.33-3.58-1.98c-2.48-1.33-5.71-1.52-8.39-2.17c-1.46-0.35-2.95-0.59-4.52-0.61c-1.53-0.02-2.18,1.02-3.49,1.5c-0.77,0.28-1.65,0.39-2.38,0.79c-0.51,0.28-0.85,0.71-1.37,0.93c-1.49,0.63-1.92-0.65-3.24-1.07c-0.86-0.27-2.02-0.24-2.93-0.42c-1.53-0.31-3.04-0.18-4.59-0.25c-1.42-0.07-2.3-0.06-3.6,0.41c-1.18,0.43-2.51,0.88-3.73,1.22c-2.42,0.66-5.04,0.97-7.5,1.38c-1.05,0.17-2.26-0.23-3.28,0.02c-1.25,0.31-1.07,0.94-1.37-0.74"/></g></svg>