<svg id="s539e78492fb43" class="face" xmlns="http://www.w3.org/2000/svg" xmlns:xlink="http://www.w3.org/1999/xlink" x="0px" y="0px" width="357px" height="358px" viewBox="0 0 357 358"><path fill="#573d2c" d="M268.5,189.04c-1.41-1.92-2.86-2.74-4.22-2.91c-3.96-0.47-7.28,4.62-7.28,4.62c2.38-21.04,0-32.96,0-32.96c-16.83-65.56-65.84-69.37-76.8-69.39c-0.71,0.02-1.44,0.04-2.2,0.06c-54,1.42-71.5,44.58-71.5,44.58c-9,12.5-4,61.55-4,61.55c-21-12.95-1.5,45.45-1.5,45.45c5,13.5,8,1,8,1c2.88,12.67,6.63,23.41,10.9,32.53c0.85,44.99,1.74,68.73,1.44,83.43c23.33,0,116.79,0,123.83,0l1.52-85.32c6.58-17.33,7.31-32.14,7.31-32.14c2.5,3,6.5,1.5,6.5,1.5C272.75,234.79,268.5,189.04,268.5,189.04z M255.96,199.92C255.93,200.18,255.94,200.15,255.96,199.92L255.96,199.92z M256.22,197.67c0.03-0.3,0.07-0.64,0.11-1.01C256.29,197.01,256.25,197.35,256.22,197.67z M256.82,192.32c0.06-0.55,0.11-0.99,0.14-1.26C256.91,191.5,256.87,191.92,256.82,192.32z M265.33,190.26c-0.04-0.16-0.09-0.37-0.16-0.62c-0.13-0.5-0.31-1.2-0.54-2.1c0.22,0.86,0.4,1.58,0.54,2.1C265.24,189.9,265.29,190.1,265.33,190.26C265.47,190.79,265.48,190.83,265.33,190.26z"/><path fill="#523827" d="M125.25,227.25c4.5-6.5,6.97-8.84,12.65-10c4.87-0.99,13.28-2.45,17.35-5.75c9.63-7.79,13.17-20.35,5.59-28.43c-4.32-4.6-7.03-7.3-13.05-8.81c-4.83-1.22-11.04-2.16-15.05-6.1c-7.84-7.69-11.29-20.73-10.82-31.2c0.41-8.95,9.17-18.79,15.15-24.83c7.04-7.12,15.71-14.12,23.72-20.42c-40.38,8.84-54.04,42.51-54.04,42.51c-9,12.5-4,61.55-4,61.55c-21-12.95-1.5,45.45-1.5,45.45c5,13.5,8,1,8,1c2.89,12.7,6.64,23.46,10.93,32.59c-0.78,38.87,1.32,70.54,1.15,83.21c7.79,0.1,53.6-30.51,61.45-32.32C179.16,318.81,113.75,264.75,125.25,227.25z"/><g class="eyes eyes-9"><path display="inline" fill="#ffffff" fill-opacity="0.7" d="M133.92,200.33c0.68-0.5,1.18-1.14,2.05-1.43c1.12-0.38,2.1-0.64,3.11-1.16c1.64-0.85,3.67-1.64,5.5-1.84c3.18-0.35,6.58-0.06,9.23,1.65c0.87,0.56,1.58,1.45,2.48,2.02c0.63,0.4,3.16,1.27,2.38,2.2c-0.5,0.6-1.74,0.69-2.44,0.87c-0.84,0.22-1.75,0.6-2.62,0.7c-1.12,0.13-2.26-0.02-3.38,0.14c-0.9,0.13-1.74,0.22-2.71,0.22c-1.54,0-3.08,0.13-4.6,0.14c-1.68,0.01-2.72-0.22-4.2-0.91c-0.96-0.45-1.81-0.63-2.71-1.18c-0.46-0.28-2.53-1.14-1.65-1.84"/><path display="inline" fill="#ffffff" fill-opacity="0.7" d="M208.17,201.67c0.51-0.38,0.88-0.82,1.48-1.08c1.07-0.47,2.15-0.43,3.12-1.07c0.65-0.43,1.41-0.78,2.15-1.02c2.3-0.74,4.77-0.66,7.21-0.66c1.41,0,2.73,0.04,4.05,0.56c0.98,0.39,1.69,1.07,2.67,1.52c1.78,0.82,3.53,1.3,5.02,2.59c0.42,0.36,1.3,0.8,1.54,1.32c0.57,1.24-1.24,1.47-1.99,1.58c-2.45,0.38-4.87,0-7.33-0.08c-2.59-0.08-4.99-0.83-7.61-0.83c-2.66,0-4.92-1.63-7.51-1.92c-0.42-0.05-3.88-0.17-2.41-1.41"/><path display="inline" fill="#1e2420" d="M221.08,198c-1.38-0.14-1.98,1.08-2.64,2.02c-0.41,0.59-0.7,0.91-0.44,1.72c0.21,0.64,0.78,1.31,1.23,1.76c0.92,0.92,2.38,1.53,3.77,1.58c0.83,0.03,1.21-0.43,1.92-0.59c0.81-0.18,1.23-0.15,1.94-0.64c0.73-0.51,1.82-1.25,2.04-2.19c0.21-0.86-0.79-2.1-1.4-2.67c-1.37-1.31-4.45-0.75-6.25-0.75"/><path fill="#1e2420" d="M144.07,196.11c-1.13,0.13-2.73,1.03-2.86,2.29c-0.15,1.39,1.3,3.3,2.47,3.95c2.31,1.29,5.76,1.61,7.6-0.75c0.68-0.87,1.42-1.99,0.58-2.99c-0.35-0.42-0.84-0.66-1.22-1.07c-0.31-0.34-0.56-0.75-0.93-1.05c-0.81-0.65-1.97-0.45-2.98-0.45c-0.8,0-2.25-0.29-2.86,0.29"/></g><g class="eyebrows eyebrows-6"><path fill="#0e0e0c" fill-opacity="0.6" d="M119.33,195c0.74-3.9,2.84-7.79,6-10.18c1.94-1.47,4.57-2.44,6.57-3.65c2.44-1.48,4.96-1.74,7.4-0.16c4.14,2.67,8.63-0.43,12.74,1.1c2.92,1.09,6.48,3.07,8.12,5.88c0.84,1.43,0.37,3.01-1.6,3.02c-2.48,0.02-4.47-1.71-6.74-2.02c-4.44-0.61-9.01-0.13-13.47-0.5c-1.99-0.16-4.54-0.52-6.54-0.17c-1.63,0.28-2.55,1.52-3.95,2.38c-3.14,1.93-7.13,2.6-9.56,5.4c0.3-0.57,0.74-0.88,1.36-0.94"/><path fill="#0e0e0c" fill-opacity="0.6" d="M200.83,188c0.67-2.73,4.53-5.59,6.93-6.83c3.15-1.63,7.54-1.51,11.04-1.34c3.83,0.19,6.89-1.51,10.83-0.29c2.02,0.62,3.93,0.96,6.21,0.96c2.66,0,2.83,0.67,4.53,2.33c1.18,1.15,2.95,2.21,3.77,3.67c0.84,1.48,1.6,3.19,2.36,4.67c0.5,0.98,0.38,1.78,0.61,2.79c-0.66-0.6-1.35-1.29-2.11-1.79c-1.99-1.32-3.83-0.68-6-1.17c-1.49-0.34-2.32-1.59-3.67-2.16c-3.62-1.54-7.45-2.03-11.34-2.17c-4.61-0.17-9.03-2.32-13.2,0.62c-1.62,1.14-2.29,1.18-4.13,1.54c-1.7,0.33-2.86,1.66-4.67,0.67c-1.08-0.59-1.82-1.98-0.83-3.17"/></g><g class="chin chin-7"><path display="inline" fill="none" stroke="#523827" stroke-miterlimit="10" d="M146,311.67c2.08,1.12,4.01,5.38,5.67,7.35 c2.23,2.66,4.46,5.73,7.34,7.74c7,4.89,18.17,7.28,26.56,7.91c5.8,0.44,14.16-3.86,18.4-7.64c3.1-2.77,6.04-5.84,9.02-8.71 c2.25-2.17,5.93-4.62,6.35-7.98"/></g><g class="hair hair-1007"><path fill="#1E1E1E" d="M105.1,198.5c2.5-3,1.6-12.1,1.2-16.1c-0.6-7.1-1.6-13.9,2.5-20.1c2.9-4.3,7.1-10,8.1-15.2c1.3-7,0.4-13.3,4.2-19.6c2.9-4.9,9.2-10.1,14.4-12.2c5.5-2.3,11.9-0.9,17.7-2.2c5.2-1.3,9.9-2.4,15.4-2.5c8.5-0.1,17.4,0.8,25.9,1.8c8.2,1,18-0.6,24.4,5.3c2.3,2.1,4.6,3.7,7,5.6c2.6,1.9,5.9,4.5,7.4,7.2c1.7,3,0.9,6.5,1.2,9.9c0.3,3.1,1.6,4.9,3.3,7.5c2,3,2.6,6,3.8,9.4c2.3,6.5,6.6,10.7,6.2,18.2c-0.3,6-0.2,11.9,0.9,17.7c0.5,2.7,1.2,5.8,0.9,8.6c1-1.5,1.7-3.4,2.8-4.9c0.9-1.2,2.5-2.2,3.4-3.4c1.7-2.5,2.1-5.4,2.3-8.3c0.2-2.9-0.3-5.8,0-8.7c0.2-1.8,1.1-2.5,1.5-4.1c0.4-1.5-0.1-3.3,0-4.9c0.3-3.9,0.8-6.6-0.3-10.5c-1-3.4-1.6-7.6-2.6-11.2c-1.5-5.2-2.1-11.2-3.9-16.1c-1.4-3.8-4.1-8.1-6.2-11.7c-1.7-2.9-3.4-6.3-5.3-9c-2.3-3.2-5.9-5.5-8.6-8.5c-1.8-2-3.8-4.9-5.9-6.4c-2.6-1.9-6.1-2.6-9-3.9c-4.1-1.9-7.9-4-12.1-5.7c-3.1-1.2-6.8-3.6-9.9-4.4c-3.2-0.8-7.6,0-10.9,0c-4.3,0-8.3-0.2-12.7,0c-3.4,0.1-6.1,0.1-9.2,0.9c-3.6,1-6.2,1.9-9.5,3.4c-4.9,2.2-10.1,2.9-14.8,5.5c-3.7,2-7.5,3.1-11.1,5c-11,5.8-19.1,15.8-25.5,26.1c-3.9,6.4-2.5,12.7-5.8,19.8c-1.9,4.1-0.7,5.9-1.3,9.4c-0.6,3.3-3.4,4-1.9,8.3c2.4,6.6-1.9,16.8,1.6,22.7c1.4,2.3,3.2,4.1,4.6,6.6c1.4,2.5,2,5.3,3.4,7.9c0.7,1.3,0.6,2.4,1.9,3.2"/></g><g class="nose nose-18"><path fill="#4d3322" d="M186.01,198.89c-0.17,1.53-0.26,3.95-0.49,5.46c-0.58,3.86,0.9,6.29,0.88,10.24 c-0.02,6.65,6.48,12.91,4.38,19.46c-5.2-0.71-6.56-12.33-6.95-16.23c-0.33-3.31-1.14-7.11-1.01-10.49 c0.11-2.91,1.43-6.24,2.54-9.75C185.35,197.6,186.24,196.78,186.01,198.89z"/><path fill="#250b00" d="M172,242.83c-2.06,0.37-6.05,2.25-5.47,4.97c1.36,0.29,3.74-1.15,4.97-1.65c1.45-0.59,3.06-1.74,3.15-3.46c-0.99-0.62-2.05-0.31-2.8,0.47"/><path fill="#250b00" d="M192,243.83c-1.02-0.46-6.93-1.73-4.51,1.46c1.04,1.36,5.27,1.16,6.87,1.2c-0.52-0.61-1.66-2.17-2.36-3"/><path fill="none" stroke="#482e1d" stroke-miterlimit="10" d="M165.99,233.06c-2.27,2.02-4.23,4.18-6.21,6.46c-2.24,2.59-2.98,4.87-1.05,7.82c0.96,1.48,1.55,2.79,3.43,3.01c1.49,0.17,3.03,0.08,4.53,0.03c2.22-0.07,4.08-1.15,6.07-1.4c1.49-0.18,2.87,0.79,4.09,1.3c1.49,0.63,2.86,1.62,4.53,1.53c1.34-0.07,2.67-0.75,3.97-1.02c4.41-0.94,8.73,0.73,13.15-0.09c3.16-0.59,6.12-1.65,5.98-5.27c-0.13-3.29-2.46-5.3-4.49-7.49c-1.9-2.05-4.82-3.87-6.09-6.38c-1.5-2.96-4.11-5.49-4.96-8.72"/></g><g class="mouth mouth-14"><path fill="#1E0E0F" d="M156.1,268.13c-1.36,0.44-2.56-0.01-3.79-0.4c-0.08,1.38,1.71,2.42,2.57,3.16c1.28,1.1,2.82,2.29,4.24,3.09c2.47,1.4,5.49,0.86,8.23,1.11c3.5,0.32,7.14,0.21,10.66,0.29c7.43,0.18,14.62-0.2,21.89-1.75c2.94-0.63,6.29,1.3,8.05-1.42c0.38-0.59,1.36-2.64,0.96-3.22c-0.61-0.9-3.37-0.41-4.33-0.41c-4.86,0-9.81,0.06-14.64-0.16c-5.07-0.23-10.13,0.33-15.16,0.31c-4.92-0.02-10.03-1.24-14.98-0.6c-1.18,0.15-3.95,1.17-4.92,0.15"/><path fill="#F2E8D3" d="M160.19,272.21c0.52-2.44,0.49-2.98,2.84-3.9c1.99-0.78,4.17,0.02,6.31-0.42c1.37-0.28,2.65-0.1,4.01-0.06c1.18,0.04,2.26-0.26,3.51-0.31c2.12-0.08,4.49,0.71,5.86,2.29c1.18-1.27,3.21-1.92,4.98-2.29c1.3-0.27,2-0.19,2.99,0.65c0.18,0.15,0.49,0.81,0.64,0.87c0.95,0.4,0.4-0.07,1.25-0.4c1.11-0.43,2.14-0.65,3.32-0.32c1.04,0.29,1.89,1.28,2.84,1.48c1.34,0.28,4.47-0.09,5.79-0.4c1.88,2.61-2.86,3.82-4.43,4.48c-2.48,1.05-4.66,3.95-7.41,4.4c-3.16,0.51-6.48,0.9-9.72,1.05c-1.58,0.07-3.04-0.1-4.5-0.46c-1.45-0.36-2.83-0.24-4.36-0.45c-1.35-0.18-2.17-0.88-3.55-1.21c-1.58-0.38-2.89-0.86-4.48-1.63c-0.98-0.47-2.19-1.34-3.31-1.68c-1.32-0.4-2.46-0.15-3.24-1.54c0.36-0.32,0.17-0.53,0.33-0.91"/><path fill="#4d3322" d="M152.17,267.98c3.67-0.2,6.51-2.17,9.69-3.32c2.45-0.88,5.78-1.42,8.43-1.67c3.05-0.29,6.28,0.02,9.26,0.3c2.97,0.28,6.15-0.15,9.23-0.15c4.08,0,7.87-0.39,11.78,0.79c1.81,0.54,3.74,1.32,5.31,2.23c0.79,0.46,3.4,2.02,3.44,2.85c-1.47,0.47-2.99,0.08-4.51,0.33c-1.13,0.19-2.21,0.48-3.48,0.61c-1.67,0.17-3.43,0.42-5.14,0.3c-1.96-0.14-3.58-0.88-5.45-1.06c-2.82-0.27-5.3,0.7-7.86,1.21c-2.86,0.57-6.07-0.48-8.91-0.6c-3.94-0.18-7.86-0.45-11.76-0.45c-1.74,0-3.64,0.6-5.31,0.31c-1.52-0.27-2.84-1.13-4.39-1.09c-0.03-0.19-0.04-0.39-0.02-0.58"/><path fill="#a7696a" fill-opacity="0.9" d="M153.08,269.19c5.63,6.78,10.19,15.23,19.32,17.54c3.78,0.96,7.28,2.02,11.27,2.23c2.11,0.11,4.45-0.26,6.46-0.87c1.64-0.5,3.49-1.06,5.03-1.81c3.94-1.92,7.54-2.91,10.09-6.77c1.71-2.58,4.18-7.42,4.09-10.72c-1.21,2.48-6.04,3.72-8.59,4.22c-3.6,0.71-7.24,1.51-10.84,2.35c-2.67,0.62-5.64,1.33-8.4,1.05c-3.99-0.4-8.38-1.01-12.07-2.5c-3.53-1.42-7.47-1.11-11-2.13c-1.93-0.55-4.48-1.13-5.82-2.76"/></g></svg>