<svg id="s5c3d0093134cb" class="face" xmlns="http://www.w3.org/2000/svg" xmlns:xlink="http://www.w3.org/1999/xlink" x="0px" y="0px" width="357px" height="358px" viewBox="0 0 357 358"><path fill="#914930" d="M268.5,189.04c-1.41-1.92-2.86-2.74-4.22-2.91c-3.96-0.47-7.28,4.62-7.28,4.62c2.38-21.04,0-32.96,0-32.96c-16.83-65.56-65.84-69.37-76.8-69.39c-0.71,0.02-1.44,0.04-2.2,0.06c-54,1.42-71.5,44.58-71.5,44.58c-9,12.5-4,61.55-4,61.55c-21-12.95-1.5,45.45-1.5,45.45c5,13.5,8,1,8,1c2.88,12.67,6.63,23.41,10.9,32.53c0.85,44.99,1.74,68.73,1.44,83.43c23.33,0,116.79,0,123.83,0l1.52-85.32c6.58-17.33,7.31-32.14,7.31-32.14c2.5,3,6.5,1.5,6.5,1.5C272.75,234.79,268.5,189.04,268.5,189.04z M255.96,199.92C255.93,200.18,255.94,200.15,255.96,199.92L255.96,199.92z M256.22,197.67c0.03-0.3,0.07-0.64,0.11-1.01C256.29,197.01,256.25,197.35,256.22,197.67z M256.82,192.32c0.06-0.55,0.11-0.99,0.14-1.26C256.91,191.5,256.87,191.92,256.82,192.32z M265.33,190.26c-0.04-0.16-0.09-0.37-0.16-0.62c-0.13-0.5-0.31-1.2-0.54-2.1c0.22,0.86,0.4,1.58,0.54,2.1C265.24,189.9,265.29,190.1,265.33,190.26C265.47,190.79,265.48,190.83,265.33,190.26z"/><path fill="#8c442b" d="M125.25,227.25c4.5-6.5,6.97-8.84,12.65-10c4.87-0.99,13.28-2.45,17.35-5.75c9.63-7.79,13.17-20.35,5.59-28.43c-4.32-4.6-7.03-7.3-13.05-8.81c-4.83-1.22-11.04-2.16-15.05-6.1c-7.84-7.69-11.29-20.73-10.82-31.2c0.41-8.95,9.17-18.79,15.15-24.83c7.04-7.12,15.71-14.12,23.72-20.42c-40.38,8.84-54.04,42.51-54.04,42.51c-9,12.5-4,61.55-4,61.55c-21-12.95-1.5,45.45-1.5,45.45c5,13.5,8,1,8,1c2.89,12.7,6.64,23.46,10.93,32.59c-0.78,38.87,1.32,70.54,1.15,83.21c7.79,0.1,53.6-30.51,61.45-32.32C179.16,318.81,113.75,264.75,125.25,227.25z"/><g class="eyes eyes-1"><path fill="#ffffff" fill-opacity="0.7" d="M136.83,206c1.16,0.13,2.07,1.14,3.17,1.5c1.18,0.39,2.58,0.58,3.83,0.83c2.38,0.47,4.47,0.84,7,0.84c2.32,0,4.64,0.43,7,0.17c1.97-0.22,3.83-1.21,5.81-1.53c-0.55-1.94-4.06-3.4-5.81-3.97c-2.45-0.8-4.72-1.05-7.33-1.18c-4.9-0.24-9.49,1.3-13.51,3.34"/><path fill="#ffffff" fill-opacity="0.7" d="M199.5,206.17c2.39,0.43,4.81,0.56,7.2,0.67c2.58,0.11,4.37,1.27,6.8,1.5c5.21,0.5,10.11-2.09,14.3-4.19c-0.01-0.04-0.01-0.4,0-0.45c-2.52-0.3-4.94-1.61-7.47-2.23c-2.53-0.62-5.56-0.34-8.18-0.46c-2.65-0.13-4.68,1.01-7,2c-2.06,0.88-4.03,1.76-5.67,3.33"/><path fill="#402a13" d="M143.33,203c0,1.77-0.03,3.03,0.69,4.47c2.04,1.17,3.77,1.82,6.13,1.35c2.13-0.42,4.49-1.14,5.01-3.49c0.65-2.95-2.47-3.17-4.67-3.17c-1.71,0-6.04-0.74-6.83,0.83"/><path fill="#402a13" d="M209.33,200.83c-2.13,1.3-1.37,4.16,0.17,5.67c1.49,1.47,5.41,1.55,7.46,0.79c1.93-0.71,4.85-3.47,3-5.92c-0.74-0.98-2.85-0.77-3.97-0.87c-1.36-0.12-2.57-0.68-3.99-0.5c-1.02,0.13-1.88,0.57-2.83,1"/></g><g class="eyebrows eyebrows-19"><path fill="#141615" fill-opacity="1" d="M118.25,196.75c0.07-4.44,4.29-8.87,8.56-9.69c4.49-0.87,10.44-0.55,14.87,0.13c4.44,0.69,8.71,1.08,13.13,0.37c4.97-0.8,7.21-4.82,2-7.61c-7.85-4.21-17.11-2.59-25.56-2.19c-4.95,0.23-6.97,3.81-10.24,7.3c-2.21,2.37-6.42,6.67-4.83,10.26c0.29,0.64,0.83,0.91,1.53,0.97c0.2,0.25-0.03,0.3,0.29,0.5c0.3-0.44,0.32-1.11,0.25-1.79"/><path fill="#141615" fill-opacity="1" d="M225.5,177.16c-5.04-1.51-15.77-0.16-20.5,1.54c-2.89,1.04-8.48,4.97-6.52,8.42c1.65,2.89,8.27,0.21,14.27-0.01c2.07-0.08,4.39-0.79,6.25-1.55c2.73-1.11,6.68,0.01,9.75-0.22c6.64-0.49,10.18,4.83,14.22,8.36c-1.24-3.16-4.13-6.86-6.96-9.24c-1.82-1.53-4.96-4.25-7.47-4.68c-0.63-0.89-2.64-2.35-3.79-2.62"/></g><g class="hair hair-1005"><path fill="#141615" d="M257.1,158.8c-16.8-65.6-65.8-69.4-76.8-69.4c-0.7,0-1.4,0-2.2,0.1c-54,1.4-71.5,44.6-71.5,44.6c-9,12.5-4,61.5-4,61.5c0,0-0.1,0-0.1-0.1c0.3,0.7,0.6,1.4,0.9,2.2c3.5-10.9,8.4-21.4,12.6-32.1c1.6-4.1,0.7-9.7,0.8-14.1c0-1.9,8.1-6.4,9.8-7.7c6.2-4.7,16.5-7,24.1-9c10.2-2.6,17.5-2.7,28.1-2.3c9.6,0.4,18.5,1.9,27.9,3.5c2.6,0.5,6.9,0.4,9.6,1.7c0.7,0,1.4,0.2,2.2,0.6c7.6,4,15.7,6.6,19.3,15.1c1.2,2.9,1.8,5.9,2,8.9c0.3,0.6,0.5,1.2,0.8,1.8c0.4,0.9,0.6,1.9,0.7,2.9c1.2,1.5,2.3,3.1,3.2,5.1c3.5,8.4,5.6,16.9,10.9,24.4c0.7-1.7,1.3-3.3,1.9-4.9c-0.1,0.1-0.2,0.2-0.2,0.2C259.5,170.7,257.1,158.8,257.1,158.8z"/></g><g class="facial-hair facial-hair-25"><path fill="#141615" fill-opacity="0.8" d="M144.3,266.4c5-5.8,14.9-12.2,22.6-14c2.3-0.5,5.2-0.9,7.4-0.3c2.1,0.6,3.2,2.2,5.6,1.9c1.9-0.2,3.2-2.2,4.9-2.9c1.6-0.7,5.9-1.2,7.7-0.9c1.1,2.5,4.7,4.3,6.9,5.6c2.6,1.6,6.1,3.8,9,5c3.3,1.3,4.2,1.9,6.4,4.5c1.2,1.5,4.9,4.2,3.8,6.3c-2.1,3.7-5.8-0.7-7.3-1.9c-2.1-1.6-4.5-2.6-6.9-3.6c-6-2.6-11.9-4.1-18.5-4.4c-4.4-0.2-8.7-1.4-13.1-0.9c-4,0.4-6.8,2.3-10.6,3.3c-4.3,1.1-7.7,1-11.2,3.7c-2.5,1.9-4.2,3.1-7.6,2.8c-0.5-2.8,0.6-3.5,2.4-4.9"/><path fill="#141615" d="M144.8,293.2c1.6,3.5-0.2,7,0,10.5c0.2,3.5,2.1,6.7,3.4,9.9c2.1,5.3,4.6,9,9.6,11.5c5.2,2.5,12.5,2.2,18.3,2.2c4.1,0,8-0.5,12.1-0.6c3.5-0.1,7.5,0.6,10.9-0.3c7.7-2.1,13.2-4.2,13.7-11.7c0.3-4,1.9-7.9,2.2-11.7c0.2-2.6,1.8-11.6-0.7-12.6c-0.7,2.4-4.1-0.1-6.3,1.4c-0.2,0.1-1.9,0.3-2.3,0.5c-1.9,0.7-3.4,2.3-5.3,2.7c-1.6,3.9-4.7,1-6.9,1.5c-1.2,0.3-2.2,2-3.3,2.5c-0.8,0.3-2.1,0.4-2.9,0.6c-3.8,1-5.5,2.2-8.9,0.6c-3.8-1.8-3.7-2-7.6,0.5c-6.1,3.9-7-0.5-13.9-1c-3-0.2-4.5-2.3-7-3.8c-1.8-1-2.5-2.6-4.9-3.1c-0.1,0.5-0.2,1.3,0,1.8"/></g><g class="nose nose-7"><path fill="#873f26" d="M186.01,198.89c-0.17,1.53-0.26,3.95-0.49,5.46c-0.58,3.86,0.9,6.29,0.88,10.24 c-0.02,6.65,6.48,12.91,4.38,19.46c-5.2-0.71-6.56-12.33-6.95-16.23c-0.33-3.31-1.14-7.11-1.01-10.49 c0.11-2.91,1.43-6.24,2.54-9.75C185.35,197.6,186.24,196.78,186.01,198.89z"/><path fill="none" stroke="#823a21" stroke-miterlimit="10" d="M166.22,228.31c-3.29,0.65-5,4.65-5.51,7.49c-1.05,5.78,2.08,6.19,7.01,6.01"/><path fill="none" stroke="#823a21" stroke-miterlimit="10" d="M196.72,231.31c0.42,2.48,3.38,6.42,2.54,8.39c-1.63,3.79-6.21,2.21-8.04,0.11"/><path fill="#5f1700" d="M167.22,241.31c1.49-1.02,7.76-1.08,6.96,1.96c-2.75,0.43-3.95-2.48-6.46-1.96"/><path fill="#5f1700" d="M187.97,241.56c-1.71-0.03-7.84-1.2-5.96,2.46c1.82,0.42,5.39-1.19,6.45-2.67c-0.33-0.06-0.65-0.03-0.99-0.04"/></g><g class="mouth mouth-2"><path fill="#a7696a" fill-opacity="0.9" d="M152.25,282.75c1.13,0.05,1.95,1.34,2.84,1.91c1.85,1.18,3.52,1.46,5.66,1.83c4.03,0.69,8.51,1.23,12.67,1.01c1.64-0.09,2.79-0.94,4.27-1.35c1.66-0.46,3.65-0.29,5.38-0.13c4.2,0.41,9.05,1.13,13.17-0.03c2.62-0.74,14.75-4.21,11.33-8.12c-1.14-1.3-3.73-2.23-5.37-2.85c-2.25-0.84-4.46-1.96-6.77-2.68c-4.31-1.34-9.55,0.3-13.96,0.69c-3.31,0.29-6.46-0.89-9.76-0.79c-3.57,0.11-7.14,1.69-10.39,2.9c-2.3,0.86-4.23,2.72-5.95,4.34c-1.56,1.47-2.27,1.76-2.3,3.75"/><path fill="#873f26" d="M153.38,277.63c2-2.12,4.63-3,6.77-4.8c1.1-0.93,1.46-1.76,2.36-2.83c1.36-1.61,3.52-3.83,5.37-4.86c1.02-0.57,2.4-0.67,3.58-1.13c1.74-0.68,2.06-0.07,3.81,0.72c1.35,0.6,3.45,1.53,4.99,1.13c1.96-0.51,3.64-1.58,5.45-2.35c1.83-0.78,2.57,0.43,4.25,1.07c1.93,0.73,3.52,1.68,5.33,2.59c1.76,0.89,3,1.34,4.35,2.74c0.96,1,1.96,1.79,3.01,2.69c1.01,0.87,1.96,1.93,2.99,2.75c0.76,0.61,1.68,0.98,2.35,1.65c0.94,0.94,1.15,1.48,0.06,2.16c-0.82,0.52-2.46,1.01-3.47,0.97c-5.66-0.23-9.88-5.59-15.44-5.87c-2.56-0.13-4.87,1.64-7.36,2.12c-1.42,0.27-2.69,0.59-4.16,0.14c-1.24-0.38-2.48-1.1-3.75-1.26c-1.58-0.19-2.89,0.45-4.34,1c-2.07,0.79-4.16,1.63-6.07,2.75c-1.89,1.1-3.47,2.66-5.43,3.63c-1.67,0.82-4.19,2.37-5.35,0.22c-0.51-0.95-0.87-2.09-0.31-3.07c0.5-0.87,1.46-1.86,2.06-2.65c0.87-1.16,2.31-2.31,3.72-2.75"/></g></svg>