<svg id="s5402130144df4" class="face" xmlns="http://www.w3.org/2000/svg" xmlns:xlink="http://www.w3.org/1999/xlink" x="0px" y="0px" width="357px" height="358px" viewBox="0 0 357 358"><path fill="#aa6544" d="M268.5,189.04c-1.41-1.92-2.86-2.74-4.22-2.91c-3.96-0.47-7.28,4.62-7.28,4.62c2.38-21.04,0-32.96,0-32.96c-16.83-65.56-65.84-69.37-76.8-69.39c-0.71,0.02-1.44,0.04-2.2,0.06c-54,1.42-71.5,44.58-71.5,44.58c-9,12.5-4,61.55-4,61.55c-21-12.95-1.5,45.45-1.5,45.45c5,13.5,8,1,8,1c2.88,12.67,6.63,23.41,10.9,32.53c0.85,44.99,1.74,68.73,1.44,83.43c23.33,0,116.79,0,123.83,0l1.52-85.32c6.58-17.33,7.31-32.14,7.31-32.14c2.5,3,6.5,1.5,6.5,1.5C272.75,234.79,268.5,189.04,268.5,189.04z M255.96,199.92C255.93,200.18,255.94,200.15,255.96,199.92L255.96,199.92z M256.22,197.67c0.03-0.3,0.07-0.64,0.11-1.01C256.29,197.01,256.25,197.35,256.22,197.67z M256.82,192.32c0.06-0.55,0.11-0.99,0.14-1.26C256.91,191.5,256.87,191.92,256.82,192.32z M265.33,190.26c-0.04-0.16-0.09-0.37-0.16-0.62c-0.13-0.5-0.31-1.2-0.54-2.1c0.22,0.86,0.4,1.58,0.54,2.1C265.24,189.9,265.29,190.1,265.33,190.26C265.47,190.79,265.48,190.83,265.33,190.26z"/><path fill="#a5603f" d="M125.25,227.25c4.5-6.5,6.97-8.84,12.65-10c4.87-0.99,13.28-2.45,17.35-5.75c9.63-7.79,13.17-20.35,5.59-28.43c-4.32-4.6-7.03-7.3-13.05-8.81c-4.83-1.22-11.04-2.16-15.05-6.1c-7.84-7.69-11.29-20.73-10.82-31.2c0.41-8.95,9.17-18.79,15.15-24.83c7.04-7.12,15.71-14.12,23.72-20.42c-40.38,8.84-54.04,42.51-54.04,42.51c-9,12.5-4,61.55-4,61.55c-21-12.95-1.5,45.45-1.5,45.45c5,13.5,8,1,8,1c2.89,12.7,6.64,23.46,10.93,32.59c-0.78,38.87,1.32,70.54,1.15,83.21c7.79,0.1,53.6-30.51,61.45-32.32C179.16,318.81,113.75,264.75,125.25,227.25z"/><g class="eyes eyes-13"><path fill="#ffffff" fill-opacity="0.7" d="M132.33,199.83c1.11,0.03,3.22-1.89,4.34-2.34c1.76-0.71,3.45-1.13,5.34-1.33c2.77-0.29,6.43-0.69,8.99,0.37c3.64,1.5,6.2,5.23,9.95,6.43c-2.99,0.25-6.11-0.28-9.1,0.07c-2.65,0.3-5.29,1.22-8.02,0.81c-3.56-0.53-8.45-2.35-11.33-4.01"/><path fill="#ffffff" fill-opacity="0.7" d="M205.83,202.5c1.32-3,5.15-2.68,7.86-2.83c3.09-0.17,5.56-0.72,8.6-0.37c3.01,0.34,6.24,0.13,9.04,1.38c2.06,0.91,4.3,2.09,6.29,3.34c-2.41-0.25-5,0.96-7.28,1.48c-3.45,0.79-6.57,1.18-10.18,1.18c-3.14,0-6.57,0.56-9.16-1.33c-1.53-1.12-3.11-2.3-4.5-3.34"/><path fill="#504040" d="M142.01,196.17c-1.09,0.11-2.11,0.31-3.12,0.59c-0.46,1.23-0.61,2.67-0.2,3.79c0.45,1.24,1.33,2.1,2.29,2.68c1,0.27,1.97,0.48,2.85,0.61c2.35,0.35,4.63-0.28,6.92-0.66c1.36-1.21,2.57-3.08,2.42-5.45c-0.69-0.47-1.4-0.88-2.17-1.2C148.44,195.48,144.78,195.88,142.01,196.17z"/><path fill="#504040" d="M214.01,199.65c-0.54,1.2-0.53,2.71,0.39,4.19c0.86,1.38,1.88,2.29,3.01,2.89c0.92-0.02,1.84-0.07,2.74-0.07c2.24,0,4.28-0.17,6.34-0.47c1.57-1.1,2.67-2.73,1.51-4.65c-0.52-0.86-1.21-1.48-1.98-1.97c-1.25-0.09-2.51-0.14-3.73-0.28C219.36,198.96,216.95,199.46,214.01,199.65z"/></g><g class="eyebrows eyebrows-19"><path fill="#0e0e0c" fill-opacity="0.4" d="M118.25,196.75c0.07-4.44,4.29-8.87,8.56-9.69c4.49-0.87,10.44-0.55,14.87,0.13c4.44,0.69,8.71,1.08,13.13,0.37c4.97-0.8,7.21-4.82,2-7.61c-7.85-4.21-17.11-2.59-25.56-2.19c-4.95,0.23-6.97,3.81-10.24,7.3c-2.21,2.37-6.42,6.67-4.83,10.26c0.29,0.64,0.83,0.91,1.53,0.97c0.2,0.25-0.03,0.3,0.29,0.5c0.3-0.44,0.32-1.11,0.25-1.79"/><path fill="#0e0e0c" fill-opacity="0.4" d="M225.5,177.16c-5.04-1.51-15.77-0.16-20.5,1.54c-2.89,1.04-8.48,4.97-6.52,8.42c1.65,2.89,8.27,0.21,14.27-0.01c2.07-0.08,4.39-0.79,6.25-1.55c2.73-1.11,6.68,0.01,9.75-0.22c6.64-0.49,10.18,4.83,14.22,8.36c-1.24-3.16-4.13-6.86-6.96-9.24c-1.82-1.53-4.96-4.25-7.47-4.68c-0.63-0.89-2.64-2.35-3.79-2.62"/></g><g class="hair hair-9"><linearGradient id="hair_1_5402130146d51" gradientUnits="userSpaceOnUse" x1="307.1953" y1="-68.4199" x2="307.1953" y2="53.5893" gradientTransform="matrix(1 0 0 -1 -127.5 142)"><stop offset="0" style="stop-color:#aa6544;stop-opacity:0"/><stop offset="0" style="stop-color:#a5603f;stop-opacity:0.4462"/><stop offset="0.7312" style="stop-color:#0e0e0c"/></linearGradient><path fill="url(#hair_1_5402130146d51)" fill-opacity="0.5" d="M257.11,157.8c-16.83-65.56-65.84-69.37-76.8-69.39c-0.71,0.02-1.44,0.04-2.2,0.06c-54,1.42-71.5,44.58-71.5,44.58c-9,12.5-4,61.55-4,61.55c-0.25-0.16,0.29,2.82,1.54,6.25c0.94-5.79,3.01-11.4,4.53-17.68c0.24-1,0.7-1.78,1.28-2.35c0.63-2.66,1.48-5.25,2.57-7.72c0.05-0.69,0.25-1.4,0.65-2.13c0.25-0.46,0.53-0.9,0.81-1.33c0.21-0.57,0.52-1.14,0.97-1.68c0.38-0.45,0.71-0.93,1.03-1.43c0.93-3.59,2.52-4.24,4.31-5.24c1.24-1.62,2.61-3.1,4.21-4.33c0.16-0.3,0.32-0.62,0.48-0.97c2.13-4.67-5.28-21.74-1.5-26c5.19-2.78,18.5-11,36-15c2.26-0.11,4.45-0.21,6.59-0.3c8.34-1.6,17.04-2.13,25.11-0.61c3.89,0.17,7.74,0.59,11.55,1.25c3.28,0.41,6.51,0.95,9.75,1.66c5.12,2.52,17.5,5.21,21,9.5c3.91,4.79,0.82,26.41,2.5,32.5c0.16,0.58,0.4,1.11,0.69,1.6c2.14,1.63,4.15,3.44,6.03,5.41c1.49,1.11,2.85,2.29,3.64,3.84c0-0.07,0.06,0.03,0.19,0.39c0.06,0.13,0.11,0.27,0.16,0.41c4.36,5.65,7.85,12.17,10.53,19.02C259.4,169.31,257.11,157.8,257.11,157.8z"/></g><g class="facial-hair facial-hair-1005"><path fill="#0e0e0c" fill-opacity="1" d="M255.9,219.7c-0.34,0.56-0.72,1.1-1.14,1.61c0.14,0.46,0.24,0.96,0.24,1.53c0,4.85-1.83,8.99-4.67,12.43c-2.46,8.23-7.38,16.94-14.36,21.22c-2.55,2.29-5.37,4.28-8.11,6.33c-0.08,0.06-0.16,0.09-0.23,0.14c-1.63,3.94-9.14,3.67-10.62,7.54c-1.21,3.16,2.56,9.4,1.74,12.72c-0.58,2.38-0.84,4.83-1.24,7.33c-0.65,4.07-10.15,7.04-17.25,7.2c-3.97,0.09-16.4-23.19-20.5-24c-2.85-0.56-6.5,22.28-9.5,22c-5.28-0.5-17.07-2.21-20.25-3c-2.46-0.62-6.27-15.26-5.75-20.5c0.52-5.25-11.42-6.66-14.31-10.69c-3.03-4.23-5.58-8.25-9.14-12.07c-2.94-3.15-5.49-6.53-8.25-9.8c-3.72-4.4-5.56-9.14-5.56-14.94c0-2.75-1-4.47-1.43-6.88c-0.03,0.19-0.05,0.39-0.07,0.57c-0.5,5.08,0.97,10,0.51,15.05c-0.06,0.69-0.11,1.34-0.15,1.98c0.15,0.52,0.21,1.11,0.15,1.78c-0.56,6.65,1.35,13.12,1.5,19.75c0,0.04,0,0.08,0,0.13c0.29,0.86,0.57,1.72,0.75,2.62c0.44,2.17,0.08,4.51,0.3,6.73c0.22,2.25,1.2,4.42,1.64,6.57c0.84,4.11,0.83,9.09,2.56,12.94c1.92,4.26,4.77,8.22,6.74,12.52c2.22,4.84,6.08,8.65,9.76,12.62c3.16,3.41,6.1,7,10.04,9.42c4.71,2.9,9.19,6.48,13.95,9.2c9.7,5.54,20.76,9.32,31.97,8.23c10.38-1.01,23.43-9.16,32.46-14.15c8.27-4.57,11.07-10.21,17.14-17.52c2.54-3.06,5.17-7.4,6.87-11.14c1.57-3.45,1.75-7.5,3.07-11.17c1.41-3.94,1.74-7.96,3.25-11.75c1.32-3.32,2.17-8.15,2.7-11.74c1.94-13.21,3.6-20.35,4.8-25.38C256.33,231.62,255.91,224.63,255.9,219.7z"/><path fill="#0e0e0c" fill-opacity="1" d="M135.68,289.67c2.47-2.88,4.12-6.84,6.33-10.11c2.36-3.48,5.53-5.61,8.27-8.33c5.07-5.01,11.42-8.97,17.68-9.69c3.71-0.42,6.67,2.11,10.11,3.06c3.09,0.86,6.28-0.46,9.24-1.3c2.72-0.77,5.01-0.86,7.82-0.44c3.27,0.49,8.18,1.54,10.87,3.98c5.11,4.62,7.3,7.12,12.61,11.35c2.09,1.67,4.46,5.54,6.66,6.1c4.73,1.23,0.63-4.03-0.73-6.47c-3.37-6.05-7.02-12.75-11.32-17.57c-3.87-4.34-10.01-10.58-14.87-11.02c-5.6-0.49-11.89-0.7-17.49,0.09c-5.36,0.76-11.48-0.19-16.84,1.25c-5.12,1.37-10.36,5.87-14.3,10.45c-4.67,5.41-9.92,7.63-12.49,15.93c-1,3.25-2.52,8.85-2.1,12.68c0.33,0.12,0.54,0.33,0.85,0.51"/></g><g class="nose nose-15"><path fill="#a05b3a" d="M186.01,198.89c-0.17,1.53-0.26,3.95-0.49,5.46c-0.58,3.86,0.9,6.29,0.88,10.24 c-0.02,6.65,6.48,12.91,4.38,19.46c-5.2-0.71-6.56-12.33-6.95-16.23c-0.33-3.31-1.14-7.11-1.01-10.49 c0.11-2.91,1.43-6.24,2.54-9.75C185.35,197.6,186.24,196.78,186.01,198.89z"/><path fill="#783312" d="M162.17,241.5c0.86-0.05,1.63-0.8,2.5-1c0.96-0.21,2.22-0.3,3.16-0.35c1.33-0.07,5.76-0.36,5.31,1.98c-2.57,1.64-8.25-0.13-11.25-0.14c0.44,0.08,0.45-0.19,0.78-0.33"/><path fill="#783312" d="M195.83,242c-1.02,0-6.01-0.88-6.87,0.12c-1.02,1.17,2.31,1.33,3.06,1.43c1.56,0.2,3.13,0.04,4.65,0.41c1.35,0.33,2.43,0.58,3.96,0.53c0.4-3.37-5.52-3.03-7.31-2.32"/><path fill="none" stroke="#9b5635" stroke-miterlimit="10" d="M162.5,226.5c0.12,1.2-1.28,2.12-2.04,2.96c-0.77,0.85-1.35,1.73-1.79,2.87c-0.83,2.17-2.77,5.81-1.64,8.17c1.19,2.5,5.32,3.73,7.97,4c3.16,0.32,6.55-0.01,9.67-0.17c3.06-0.16,5.43,0.99,8.5,1c1.58,0,2.6-0.56,4-0.83c1.6-0.3,3.35-0.19,5-0.17c3.63,0.03,7.74,1.44,10.83-0.33c2.71-1.54,5.23-3.76,3.83-7.04c-0.87-2.04-2.67-4.92-4.67-6.13"/></g><g class="mouth mouth-5"><path fill="#a7696a" fill-opacity="0.9" d="M157.67,276.38c1.49,3.44,4.03,3.59,7.14,4.87c2.15,0.89,1.9,1.13,3.94,2.25c2.68,1.47,7.82,3.32,10.88,4c1.94,0.44,5.11,0.85,6.82-0.11c1.46-0.82,3.01-1.7,4.45-2.63c2.56-1.66,6.55-3.58,8.97-5.38c2.75-2.05,5.22-3.98,6.5-7.75c-5.7-1.63-8.48-1.63-10.55-3.14c-0.17-1.73-4.4-1.63-5.62-1.72c-2.26-0.17-4.53-0.65-6.8-0.64c-1.87,0.01-3.45,0.66-5.25,0.98c-3.47,0.62-7.12-0.04-10.53,0.92c-2.26,0.64-4.52,1.38-6.48,2.56c-1.46,0.89-5.88,1.61-6.45,3.44c-0.49,1.55,2.95,3.77,4.22,4.35"/><path fill="#a05b3a" d="M153.63,272.75c-0.26,1.15,1.94,2.49,2.58,3.76c0.88,1.76,4.53,1.7,6.22,1.62c2.79-0.13,5.81-0.2,8.46,0.34c1.52,0.31,3.14,0.19,4.67,0.28c1.57,0.09,3.1,0.61,4.74,0.63c1.71,0.01,3.41,0.01,5.12,0c0.68-0.01,1.4,0.1,2.02-0.24c0.55-0.3,5.07-1.51,6.61-1.64c1.99-0.16,7.62-2.17,8.75-3.4c0.94-1.02,3.16-1.49,3.88-2.6c-3.06-1.57-7.86-2.79-10.9-4.35c-2.31-1.18-4.91-1.71-7.48-1.77c-4.71-0.11-10.18-0.37-14.68,1.09c-3.74,1.22-7.73,0.41-11.06,2.66c-1.88,1.28-4.2,0.85-6.05,2.12"/></g></svg>