<svg id="s540212fe894e5" class="face" xmlns="http://www.w3.org/2000/svg" xmlns:xlink="http://www.w3.org/1999/xlink" x="0px" y="0px" width="357px" height="358px" viewBox="0 0 357 358"><path fill="#69493c" d="M268.5,189.04c-1.41-1.92-2.86-2.74-4.22-2.91c-3.96-0.47-7.28,4.62-7.28,4.62c2.38-21.04,0-32.96,0-32.96c-16.83-65.56-65.84-69.37-76.8-69.39c-0.71,0.02-1.44,0.04-2.2,0.06c-54,1.42-71.5,44.58-71.5,44.58c-9,12.5-4,61.55-4,61.55c-21-12.95-1.5,45.45-1.5,45.45c5,13.5,8,1,8,1c2.88,12.67,6.63,23.41,10.9,32.53c0.85,44.99,1.74,68.73,1.44,83.43c23.33,0,116.79,0,123.83,0l1.52-85.32c6.58-17.33,7.31-32.14,7.31-32.14c2.5,3,6.5,1.5,6.5,1.5C272.75,234.79,268.5,189.04,268.5,189.04z M255.96,199.92C255.93,200.18,255.94,200.15,255.96,199.92L255.96,199.92z M256.22,197.67c0.03-0.3,0.07-0.64,0.11-1.01C256.29,197.01,256.25,197.35,256.22,197.67z M256.82,192.32c0.06-0.55,0.11-0.99,0.14-1.26C256.91,191.5,256.87,191.92,256.82,192.32z M265.33,190.26c-0.04-0.16-0.09-0.37-0.16-0.62c-0.13-0.5-0.31-1.2-0.54-2.1c0.22,0.86,0.4,1.58,0.54,2.1C265.24,189.9,265.29,190.1,265.33,190.26C265.47,190.79,265.48,190.83,265.33,190.26z"/><path fill="#644437" d="M125.25,227.25c4.5-6.5,6.97-8.84,12.65-10c4.87-0.99,13.28-2.45,17.35-5.75c9.63-7.79,13.17-20.35,5.59-28.43c-4.32-4.6-7.03-7.3-13.05-8.81c-4.83-1.22-11.04-2.16-15.05-6.1c-7.84-7.69-11.29-20.73-10.82-31.2c0.41-8.95,9.17-18.79,15.15-24.83c7.04-7.12,15.71-14.12,23.72-20.42c-40.38,8.84-54.04,42.51-54.04,42.51c-9,12.5-4,61.55-4,61.55c-21-12.95-1.5,45.45-1.5,45.45c5,13.5,8,1,8,1c2.89,12.7,6.64,23.46,10.93,32.59c-0.78,38.87,1.32,70.54,1.15,83.21c7.79,0.1,53.6-30.51,61.45-32.32C179.16,318.81,113.75,264.75,125.25,227.25z"/><g class="eyes eyes-9"><path display="inline" fill="#ffffff" fill-opacity="0.7" d="M133.92,200.33c0.68-0.5,1.18-1.14,2.05-1.43c1.12-0.38,2.1-0.64,3.11-1.16c1.64-0.85,3.67-1.64,5.5-1.84c3.18-0.35,6.58-0.06,9.23,1.65c0.87,0.56,1.58,1.45,2.48,2.02c0.63,0.4,3.16,1.27,2.38,2.2c-0.5,0.6-1.74,0.69-2.44,0.87c-0.84,0.22-1.75,0.6-2.62,0.7c-1.12,0.13-2.26-0.02-3.38,0.14c-0.9,0.13-1.74,0.22-2.71,0.22c-1.54,0-3.08,0.13-4.6,0.14c-1.68,0.01-2.72-0.22-4.2-0.91c-0.96-0.45-1.81-0.63-2.71-1.18c-0.46-0.28-2.53-1.14-1.65-1.84"/><path display="inline" fill="#ffffff" fill-opacity="0.7" d="M208.17,201.67c0.51-0.38,0.88-0.82,1.48-1.08c1.07-0.47,2.15-0.43,3.12-1.07c0.65-0.43,1.41-0.78,2.15-1.02c2.3-0.74,4.77-0.66,7.21-0.66c1.41,0,2.73,0.04,4.05,0.56c0.98,0.39,1.69,1.07,2.67,1.52c1.78,0.82,3.53,1.3,5.02,2.59c0.42,0.36,1.3,0.8,1.54,1.32c0.57,1.24-1.24,1.47-1.99,1.58c-2.45,0.38-4.87,0-7.33-0.08c-2.59-0.08-4.99-0.83-7.61-0.83c-2.66,0-4.92-1.63-7.51-1.92c-0.42-0.05-3.88-0.17-2.41-1.41"/><path display="inline" fill="#332a19" d="M221.08,198c-1.38-0.14-1.98,1.08-2.64,2.02c-0.41,0.59-0.7,0.91-0.44,1.72c0.21,0.64,0.78,1.31,1.23,1.76c0.92,0.92,2.38,1.53,3.77,1.58c0.83,0.03,1.21-0.43,1.92-0.59c0.81-0.18,1.23-0.15,1.94-0.64c0.73-0.51,1.82-1.25,2.04-2.19c0.21-0.86-0.79-2.1-1.4-2.67c-1.37-1.31-4.45-0.75-6.25-0.75"/><path fill="#332a19" d="M144.07,196.11c-1.13,0.13-2.73,1.03-2.86,2.29c-0.15,1.39,1.3,3.3,2.47,3.95c2.31,1.29,5.76,1.61,7.6-0.75c0.68-0.87,1.42-1.99,0.58-2.99c-0.35-0.42-0.84-0.66-1.22-1.07c-0.31-0.34-0.56-0.75-0.93-1.05c-0.81-0.65-1.97-0.45-2.98-0.45c-0.8,0-2.25-0.29-2.86,0.29"/></g><g class="eyebrows eyebrows-10"><path fill="#141615" fill-opacity="0.5" d="M122.75,179.13c0.82-1.08,1.81-2.19,2.88-3.01c1.17-0.91,2.58-1.21,3.75-2.08c1.09-0.81,1.81-1.62,3.13-2.13c1.62-0.62,3.07-1.27,4.59-1.93c2.31-1.01,5.9-2.16,8.41-1.1c1.34,0.56,1.12,1.56,2.87,1.63c1.57,0.07,2.37,0.29,3.76,0.91c2.64,1.16,5.21,1.67,7.86,2.75c1.77,0.72,2.8,2.33,3.86,3.87c1.12,1.62,2.2,3.15,3.38,4.63c0.9,1.14,3.32,5.08,0.28,4.21c-1.18-0.34-2.1-1.3-3.22-1.84c-1.48-0.72-2.64-1.44-4.04-2.29c-0.91-0.55-1.76-0.7-2.78-1.12c-1.07-0.44-2.11-0.99-3.24-1.1c-2.85-0.26-5.52-1.01-8.38-1.15c-3.15-0.16-6.94-1.66-9.98-0.52c-2.95,1.1-5.99,2.2-8.99,3.28c-0.73,0.26-3.36,1.08-4.1,0.59c-1.06-0.71,0.33-2.99,0.47-3.85"/><path fill="#141615" fill-opacity="0.5" d="M186.75,185.5c2.17-3.57,4.13-6.74,7.63-9.12c2.01-1.36,4.42-2.09,6.76-2.89c1.39-0.48,3.23-1.83,4.62-1.99c1.6-0.19,3.08,0.57,4.75,0.25c1.66-0.32,3.31-0.79,5.05-1.03c1.36-0.19,2.74-0.56,4.11-0.22c1.57,0.38,2.98,1.24,4.58,1.66c2.46,0.66,3.29,1.17,5.14,2.97c1.33,1.29,2.93,2.14,4.22,3.5c1.19,1.25,2.54,2.5,2.53,4.37c-0.01,1.91-1.01,3.15-1.65,4.85c-1.45,0.3-3.1-1.62-4.2-2.39c-1.28-0.9-2.6-1.69-3.77-2.66c-1.28-1.06-3.29-2.13-4.92-2.53c-1.65-0.4-4.38-1.24-6.07-0.88c-3.61,0.77-7.39,0.93-11.09,1.61c-1.53,0.28-3.33,0.5-4.72,1.24c-0.84,0.45-1.42,0.94-2.34,1.25c-1.82,0.61-3.94,0.5-5.61,1.51c-1.15,0.69-1.74,1.56-3.14,1.75c-1.13,0.16-3-0.73-1.25-1.62"/></g><g class="chin chin-11"><path fill="none" stroke="#644437" stroke-miterlimit="10" d="M141,314.5c1.52,0.31,3.15,2.17,4.33,3.17c1.39,1.17,2.78,2.19,4.11,3.37c1.22,1.09,2.46,2.06,3.89,2.96c2.41,1.52,4.85,1.7,7.6,2.55c2.44,0.75,4.83,1.86,7.35,2.45c2.58,0.61,4.78,0.7,7.42,0.84c2.95,0.16,5.83,0.86,8.76,0.47c2.23-0.3,3.83-1.25,5.87-1.63c2.67-0.5,3.67-1.28,5.67-1.7c1.71-0.35,3.54-1.32,5.29-1.84c3.64-1.08,7.27-3.71,10.27-5.92c1.51-1.11,3.36-1.89,4.85-3.04c1.14-0.88,1.92-1.98,3.05-2.88c2.17-1.72,4.14-3.53,6.17-5.46c0.34-0.32,0.41-0.59,0.88-0.83"/></g><g class="hair hair-7"><path fill="#141615" fill-opacity="0.9" d="M107.61,202v-1c-0.08-2.77-1.44-3.51-0.2-6.32c1.13-2.56,1.67-4.51,1.7-7.43c0.06-5.64-2.41-10.25-0.76-15.81c0.74-2.48,2.22-4.86,2.51-7.44c0.32-2.84,0.7-4.41,1.55-6.99c1.81-5.5,3.5-12.78,9.6-15.03c8.93-3.29,18.36-5.73,27.6-8.67c3.67-1.17,6.17-3.42,10.12-3.56c2.21-0.07,4.22,0.17,6.33-0.56c2.14-0.74,3.85-1.72,6.52-2.01c7.79-0.82,16.24,1.82,23.79,3.31c7.67,1.51,16.05,1.58,23.05,5.44c2.77,1.53,4.78,2.7,7.9,3.31c2.3,0.45,5.12,0.93,7.28,1.76c4.95,1.88,5.79,6.85,5.3,11.69c-0.28,2.79-0.78,5.38,0.75,7.87c1.32,2.15,3.13,3.66,4.44,5.76c1.65,2.67,2.47,4.78,2.51,7.95c0.03,2.55-0.95,5.03-0.46,7.54c0.18,0.91,0.85,1.65,0.97,2.69c0.09,0.84-0.38,2.23-0.28,3.26c0.18,1.86,0.29,4.03,0.49,6.02c0.43,4.22,0.98,8.18,0.81,12.44c1.33-1.15,4.15-1.72,5.03-3.47c0.46-0.91,0.03-2.08,0.18-3.07c0.23-1.52,0.52-1.64,1.32-2.89c0.22-0.35,0.49-0.7,0.78-1.05c0.07-0.63,0.15-1.28,0.22-1.92c0.05-0.44,0.1-0.9,0.16-1.4c0.04-0.32,0.07-0.63,0.1-0.91c0.06-0.55,0.11-0.99,0.14-1.26c0.02-0.15,0.03-0.25,0.03-0.29c0-0.01,0-0.01,0-0.02c2.38-21.04,0-32.96,0-32.96c-16.83-65.56-65.84-69.37-76.8-69.39c-0.71,0.02-1.44,0.04-2.2,0.06c-54,1.42-71.5,44.58-71.5,44.58c-9,12.5-4,61.55-4,61.55C102.06,193.46,104.53,200.13,107.61,202z"/></g><g class="nose nose-12"><path fill="#5f3f32" d="M186.01,198.89c-0.17,1.53-0.26,3.95-0.49,5.46c-0.58,3.86,0.9,6.29,0.88,10.24 c-0.02,6.65,6.48,12.91,4.38,19.46c-5.2-0.71-6.56-12.33-6.95-16.23c-0.33-3.31-1.14-7.11-1.01-10.49 c0.11-2.91,1.43-6.24,2.54-9.75C185.35,197.6,186.24,196.78,186.01,198.89z"/><path fill="#37170a" d="M163.83,238.66c1.56-0.34,3.59-1.78,5.34-1.34c1,0.26,3.42,2.71,3.64,3.81c-1.2,0.21-2.4-1.68-3.61-2.01c-1.45-0.39-3.3-0.07-4.85-0.16c-0.05-0.24,0.07-0.26,0.15-0.47"/><path fill="#37170a" d="M200.33,241.83c-1.46-1.29-9.87-3.33-9.14,0.31c1.54,0.17,3.47-0.72,5.17-0.8c1-0.05,1.28-0.07,2.19,0.29c0.84,0.33,1.5,1.32,2.29,0.2"/><path fill="none" stroke="#5a3a2d" stroke-miterlimit="10" d="M164.67,221.33c-3.17-0.23-7.46,3.32-8.63,6.17c-1.31,3.2,0.62,6.73,2.3,9.34c1.52,2.36,3.89,2.48,6.49,3.01c1.77,0.36,3.45,0.6,5.36,0.66c1.81,0.06,2.63,0.82,4.16,1.79c2.47,1.57,4.3,4.03,7.62,3.34c1.35-0.28,2.58-1.6,3.67-2.33c1.34-0.9,2.75-1.19,4.37-1.13c1.73,0.07,3.59,0.14,5.33,0.33c1.74,0.19,4.16,1.04,5.97,0.47c2.02-0.65,4.62-3.22,6.08-4.75c1.56-1.64,3.42-3.97,2.59-6.54c-0.36-1.11-1.9-2.74-2.62-3.67c-0.94-1.2-3.13-2.24-3.67-3.5"/></g><g class="mouth mouth-13"><path fill="#271011" d="M154.04,273.51c0.52,4.09,7.62,5.03,10.62,5.49c9.01,1.38,18.18,1.52,27.17,0.96c4.02-0.25,7.97-1.95,11.51-3.5c0.79-0.35,2.83-0.79,3.21-1.58c0.6-1.23-0.53-3.3-1.39-3.82c-0.17-0.1-0.05-0.16-0.15-0.29c-1.6-0.41-3.66-0.32-5.28-0.27c-9.56,0.32-18.88,0.02-28.37-1.08c-5.05-0.58-11.27-2.07-15.05,2.28c-0.63,0.72-1.25,2.1-2.41,1.93"/><path fill="#AFA9A3" d="M165.31,273.37c-0.94,0.51-0.06,2.88,0.41,3.66c0.82,1.38,1.79,1.15,3.35,1.15c2.38,0,4.53,0.05,6.83-0.54c2.42-0.63,4.37-0.83,6.89-0.83c1.95,0,3.57,0.6,5.42,0.69c2.43,0.12,5.01,0.11,7.37-0.44c1.28-0.3,3.35-0.59,4.48-1.24c1.29-0.75,0.6-1.62-0.35-2.57c-1.63-1.64-4.22-2.75-6.49-2.75c-1.92,0-4.56,2.16-6.47,2.07c-1.63-0.08-2.55,0.21-4.14,0.52c-2.87,0.56-6.48,0.31-9.42,0.03c-2.05-0.19-6.94-1.88-8.28,0.68"/><path fill="#5f3f32" d="M152.8,272.28c0.74-4.3,9.08-7.56,12.66-8.87c2.62-0.96,4.86-1.62,7.68-1.57c2.86,0.05,5.01,1.46,7.7,2.21c5.94,1.66,11.43-1.64,17.27-0.58c2.9,0.53,16.47,8.12,8.84,9.92c-1.7,0.4-4.23,0.08-5.97-0.01c-2.67-0.14-4.8-1.62-7.22-1.94c-2.52-0.34-4.71,1.38-7.06,1.75c-2.44,0.38-5.01,0.2-7.5,0.2c-4.78,0-9.81-1.22-14.58-1.38c-1.72-0.06-12.08,4.8-11.83,0.83"/><path fill="#553528" fill-opacity="1" d="M153.08,275.71c2.21,0.4,5.23,2.72,6.77,4.5c1.79,2.07,3.63,3.61,5.95,5.13c1.36,0.89,2.83,2.1,4.46,2.33c2.17,0.3,4.43,0.17,6.6,0.41c2.95,0.33,5.9,1.27,8.94,0.97c2.35-0.23,4.5-1.5,6.69-2.32c3.97-1.48,7.52-2.88,10.44-6.04c1.71-1.85,4.4-4.41,4.62-7.07c-4.04,2.24-8.19,1.56-12.79,1.8c-2.12,0.11-4.32,0.01-6.39,0.42c-2.18,0.43-4.2,0.75-6.44,0.85c-2.01,0.09-4.05,0.13-6.08,0.11c-2.04-0.02-3.69-0.75-5.65-0.96c-3.52-0.38-7.13-0.47-10.56-0.96c-2.02-0.29-4.99-0.59-6.71,0.55"/></g></svg>