<svg class="face" xmlns="http://www.w3.org/2000/svg" xmlns:xlink="http://www.w3.org/1999/xlink" x="0px" y="0px" width="357px" height="358px" viewBox="0 0 357 358"><path fill="#a4634d" d="M268.5,189.04c-1.41-1.92-2.86-2.74-4.22-2.91c-3.96-0.47-7.28,4.62-7.28,4.62c2.38-21.04,0-32.96,0-32.96c-16.83-65.56-65.84-69.37-76.8-69.39c-0.71,0.02-1.44,0.04-2.2,0.06c-54,1.42-71.5,44.58-71.5,44.58c-9,12.5-4,61.55-4,61.55c-21-12.95-1.5,45.45-1.5,45.45c5,13.5,8,1,8,1c2.88,12.67,6.63,23.41,10.9,32.53c0.85,44.99,1.74,68.73,1.44,83.43c23.33,0,116.79,0,123.83,0l1.52-85.32c6.58-17.33,7.31-32.14,7.31-32.14c2.5,3,6.5,1.5,6.5,1.5C272.75,234.79,268.5,189.04,268.5,189.04z M255.96,199.92C255.93,200.18,255.94,200.15,255.96,199.92L255.96,199.92z M256.22,197.67c0.03-0.3,0.07-0.64,0.11-1.01C256.29,197.01,256.25,197.35,256.22,197.67z M256.82,192.32c0.06-0.55,0.11-0.99,0.14-1.26C256.91,191.5,256.87,191.92,256.82,192.32z M265.33,190.26c-0.04-0.16-0.09-0.37-0.16-0.62c-0.13-0.5-0.31-1.2-0.54-2.1c0.22,0.86,0.4,1.58,0.54,2.1C265.24,189.9,265.29,190.1,265.33,190.26C265.47,190.79,265.48,190.83,265.33,190.26z"/><path fill="#9f5e48" d="M125.25,227.25c4.5-6.5,6.97-8.84,12.65-10c4.87-0.99,13.28-2.45,17.35-5.75c9.63-7.79,13.17-20.35,5.59-28.43c-4.32-4.6-7.03-7.3-13.05-8.81c-4.83-1.22-11.04-2.16-15.05-6.1c-7.84-7.69-11.29-20.73-10.82-31.2c0.41-8.95,9.17-18.79,15.15-24.83c7.04-7.12,15.71-14.12,23.72-20.42c-40.38,8.84-54.04,42.51-54.04,42.51c-9,12.5-4,61.55-4,61.55c-21-12.95-1.5,45.45-1.5,45.45c5,13.5,8,1,8,1c2.89,12.7,6.64,23.46,10.93,32.59c-0.78,38.87,1.32,70.54,1.15,83.21c7.79,0.1,53.6-30.51,61.45-32.32C179.16,318.81,113.75,264.75,125.25,227.25z"/><g class="eyes eyes-16"><path fill="#ffffff" fill-opacity="0.7" d="M152.62,203c-0.51-0.07-1.04-0.14-1.58-0.2c1.09,1.83,0.9,4.22-1.55,6.5c-1.94,1.81-4.52,2.46-6.87,0.9c-1.57-1.04-3.3-3.79-3.32-6.1c-1.66,0.76-3.57,1.83-4.68,3.07c-1.13,1.26-2.88,2.57-3.45,4.15c2.78,0.3,5.44,0.29,8.2,0.02c2.79-0.27,5.86,0.51,8.59-0.17c1.24-0.31,2.62-0.63,3.91-0.85c1.38-0.24,2.5-0.31,3.89-0.52c2.21-0.34,4.48-1.58,6.72-1.83C161.77,204.75,155.25,203.36,152.62,203z"/><path fill="#483224" d="M142.63,210.2c2.34,1.56,4.92,0.91,6.87-0.9c2.45-2.28,2.64-4.67,1.55-6.5c-1.87-0.22-3.83-0.38-5.61-0.23c-1.96,0.16-5.57,1.08-5.88,1.42c-0.08,0.04-0.17,0.08-0.25,0.12C139.33,206.4,141.06,209.15,142.63,210.2z"/><path fill="#ffffff" fill-opacity="0.7" d="M224.38,207.13c-1.55-0.67-2.77-1.33-4.12-1.89c-0.07,0.48-0.21,0.97-0.42,1.47c-0.64,1.53-3.93,4.75-5.66,5.14c-4.34,0.98-8.58-5.45-6.93-9.17c-1.98,0.28-4.34,1.49-5.56,2.39c-1.42,1.05-2.42,2.56-3.97,3.47c4.47,4.16,13.07,3.72,18.78,3.72c3.55,0,10.75,0.81,13.96-0.75C228.55,210.05,226.59,208.09,224.38,207.13z"/><path fill="#483224" d="M214.18,211.84c1.72-0.39,5.01-3.61,5.66-5.14c0.21-0.5,0.35-0.99,0.42-1.47c-0.7-0.29-1.42-0.56-2.25-0.79c-2.12-0.6-3.36-1.36-5.63-1.56c-2.02-0.18-1.76-0.33-3.81-0.25c-0.4-0.05-0.85-0.02-1.32,0.05C205.6,206.39,209.84,212.82,214.18,211.84z"/></g><g class="eyebrows eyebrows-1"><path fill="#141615" fill-opacity="0.7" d="M124.5,192.33c0,0,4.67-7.33,12-9.67c0,0,13.5-2.33,30,8.17l-7.17,2.5L157,192l-5,0.33l-2.67-1.5l-8.5,0.33l-5.17,0.5h-3.17C132.5,191.67,129.17,193.33,124.5,192.33z"/><path fill="#141615" fill-opacity="0.7" d="M195.17,189.67l5.83-5l6-1.17l6.33-2.5h11.17l8.33,3c0,0,3.83,5.33,3.83,6.33s-3.83,1.33-3.83,1.33h-5.67l-6.83-2.33l-5.33-0.5l-5.67,0.5l-5.83,1.33l-5.83,1l-3.17,1L195.17,189.67z"/></g><g class="chin chin-7"><path display="inline" fill="none" stroke="#9f5e48" stroke-miterlimit="10" d="M146,311.67c2.08,1.12,4.01,5.38,5.67,7.35 c2.23,2.66,4.46,5.73,7.34,7.74c7,4.89,18.17,7.28,26.56,7.91c5.8,0.44,14.16-3.86,18.4-7.64c3.1-2.77,6.04-5.84,9.02-8.71 c2.25-2.17,5.93-4.62,6.35-7.98"/></g><g class="hair hair-11"><linearGradient id="hair_5340ad38c470c" gradientUnits="userSpaceOnUse" x1="178.3511" y1="214.4145" x2="180.4139" y2="146.8902"><stop offset="0" style="stop-color:#141615;stop-opacity:0.1"/><stop offset="1" style="stop-color:#141615"/></linearGradient><path fill="url(#hair_5340ad38c470c)" fill-opacity="0.9" d="M257.1,191.8c2.4-21,0-33,0-33c-16.8-65.6-65.8-69.4-76.8-69.4c-0.7,0-1.4,0-2.2,0.1c-54,1.4-71.5,44.6-71.5,44.6c-9,12.5-4,61.5-4,61.5c0.6,7.9,4.9,14.7,7.9,20.2c0,0-1.5-32.7,1-41.7c0,0,16.5-21.4,9.8-46.4c0,0,42.6-3.1,69.9-5.6c0,0,35.3-2,42.8,6c0,0-4,18,3.5,34c0,0,12,20.5,14,39.5L257.1,191.8z"/></g><g class="nose nose-3"><path fill="#9a5943" d="M186.01,198.89c-0.17,1.53-0.26,3.95-0.49,5.46c-0.58,3.86,0.9,6.29,0.88,10.24 c-0.02,6.65,6.48,12.91,4.38,19.46c-5.2-0.71-6.56-12.33-6.95-16.23c-0.33-3.31-1.14-7.11-1.01-10.49 c0.11-2.91,1.43-6.24,2.54-9.75C185.35,197.6,186.24,196.78,186.01,198.89z"/><path fill="#72311b" d="M160.5,242.83c0.47,1.76,2.76,1.39,4.17,1.67c1.27,0.25,2.54,0.69,3.83,0.96c1.6,0.34,6.19,3.16,7.51,1.25c1.24-1.79-4.14-5.58-5.67-6.26c-3.12-1.38-4.45-0.63-7.33,1.08c-0.81,0.48-2.51,0.69-2.68,1.63"/><path fill="#72311b" d="M186.83,244.17c-2.19-4.11,13.52-4.56,12.63-1.54c-0.19,0.65-2.54,0.92-3.13,1.04c-1.49,0.29-2.5,0.76-3.85,1.55c-2.64,1.56-3.54,0.66-5.49-1.05"/><path fill="none" stroke="#95543e" stroke-miterlimit="10" d="M161.67,224.17c-1.22,1.53-2.63,2.46-3.55,4.34c-0.6,1.22-1.12,2.55-1.74,3.69c-1.46,2.69-2.6,5.47-1.89,8.47c0.86,3.59,2.67,5.06,5.72,7.29c0.96,0.7,2.26,1.57,3.45,1.84c1.56,0.35,3.1-0.27,4.67-0.13c2.4,0.21,5.54,1.86,7.2-0.81c2.44-0.85,5.26-0.03,7.81-0.53c1.46-0.29,2.95-0.57,4.53-0.5c1.75,0.08,3.27,0.69,5,0.83c5.59,0.47,11.69-1.64,14.18-6.78c1.22-2.52-0.06-4.44-1.54-6.31c-0.63-0.8-1.39-1.36-1.87-2.24c-0.73-1.34-0.91-4.8-2.64-4.84"/></g><g class="mouth mouth-14"><path fill="#1E0E0F" d="M156.1,268.13c-1.36,0.44-2.56-0.01-3.79-0.4c-0.08,1.38,1.71,2.42,2.57,3.16c1.28,1.1,2.82,2.29,4.24,3.09c2.47,1.4,5.49,0.86,8.23,1.11c3.5,0.32,7.14,0.21,10.66,0.29c7.43,0.18,14.62-0.2,21.89-1.75c2.94-0.63,6.29,1.3,8.05-1.42c0.38-0.59,1.36-2.64,0.96-3.22c-0.61-0.9-3.37-0.41-4.33-0.41c-4.86,0-9.81,0.06-14.64-0.16c-5.07-0.23-10.13,0.33-15.16,0.31c-4.92-0.02-10.03-1.24-14.98-0.6c-1.18,0.15-3.95,1.17-4.92,0.15"/><path fill="#F2E8D3" d="M160.19,272.21c0.52-2.44,0.49-2.98,2.84-3.9c1.99-0.78,4.17,0.02,6.31-0.42c1.37-0.28,2.65-0.1,4.01-0.06c1.18,0.04,2.26-0.26,3.51-0.31c2.12-0.08,4.49,0.71,5.86,2.29c1.18-1.27,3.21-1.92,4.98-2.29c1.3-0.27,2-0.19,2.99,0.65c0.18,0.15,0.49,0.81,0.64,0.87c0.95,0.4,0.4-0.07,1.25-0.4c1.11-0.43,2.14-0.65,3.32-0.32c1.04,0.29,1.89,1.28,2.84,1.48c1.34,0.28,4.47-0.09,5.79-0.4c1.88,2.61-2.86,3.82-4.43,4.48c-2.48,1.05-4.66,3.95-7.41,4.4c-3.16,0.51-6.48,0.9-9.72,1.05c-1.58,0.07-3.04-0.1-4.5-0.46c-1.45-0.36-2.83-0.24-4.36-0.45c-1.35-0.18-2.17-0.88-3.55-1.21c-1.58-0.38-2.89-0.86-4.48-1.63c-0.98-0.47-2.19-1.34-3.31-1.68c-1.32-0.4-2.46-0.15-3.24-1.54c0.36-0.32,0.17-0.53,0.33-0.91"/><path fill="#9a5943" d="M152.17,267.98c3.67-0.2,6.51-2.17,9.69-3.32c2.45-0.88,5.78-1.42,8.43-1.67c3.05-0.29,6.28,0.02,9.26,0.3c2.97,0.28,6.15-0.15,9.23-0.15c4.08,0,7.87-0.39,11.78,0.79c1.81,0.54,3.74,1.32,5.31,2.23c0.79,0.46,3.4,2.02,3.44,2.85c-1.47,0.47-2.99,0.08-4.51,0.33c-1.13,0.19-2.21,0.48-3.48,0.61c-1.67,0.17-3.43,0.42-5.14,0.3c-1.96-0.14-3.58-0.88-5.45-1.06c-2.82-0.27-5.3,0.7-7.86,1.21c-2.86,0.57-6.07-0.48-8.91-0.6c-3.94-0.18-7.86-0.45-11.76-0.45c-1.74,0-3.64,0.6-5.31,0.31c-1.52-0.27-2.84-1.13-4.39-1.09c-0.03-0.19-0.04-0.39-0.02-0.58"/><path fill="#904f39" fill-opacity="1" d="M153.08,269.19c5.63,6.78,10.19,15.23,19.32,17.54c3.78,0.96,7.28,2.02,11.27,2.23c2.11,0.11,4.45-0.26,6.46-0.87c1.64-0.5,3.49-1.06,5.03-1.81c3.94-1.92,7.54-2.91,10.09-6.77c1.71-2.58,4.18-7.42,4.09-10.72c-1.21,2.48-6.04,3.72-8.59,4.22c-3.6,0.71-7.24,1.51-10.84,2.35c-2.67,0.62-5.64,1.33-8.4,1.05c-3.99-0.4-8.38-1.01-12.07-2.5c-3.53-1.42-7.47-1.11-11-2.13c-1.93-0.55-4.48-1.13-5.82-2.76"/></g></svg>