<svg id="s539e784facb17" class="face" xmlns="http://www.w3.org/2000/svg" xmlns:xlink="http://www.w3.org/1999/xlink" x="0px" y="0px" width="357px" height="358px" viewBox="0 0 357 358"><path fill="#e6a27b" d="M268.5,189.04c-1.41-1.92-2.86-2.74-4.22-2.91c-3.96-0.47-7.28,4.62-7.28,4.62c2.38-21.04,0-32.96,0-32.96c-16.83-65.56-65.84-69.37-76.8-69.39c-0.71,0.02-1.44,0.04-2.2,0.06c-54,1.42-71.5,44.58-71.5,44.58c-9,12.5-4,61.55-4,61.55c-21-12.95-1.5,45.45-1.5,45.45c5,13.5,8,1,8,1c2.88,12.67,6.63,23.41,10.9,32.53c0.85,44.99,1.74,68.73,1.44,83.43c23.33,0,116.79,0,123.83,0l1.52-85.32c6.58-17.33,7.31-32.14,7.31-32.14c2.5,3,6.5,1.5,6.5,1.5C272.75,234.79,268.5,189.04,268.5,189.04z M255.96,199.92C255.93,200.18,255.94,200.15,255.96,199.92L255.96,199.92z M256.22,197.67c0.03-0.3,0.07-0.64,0.11-1.01C256.29,197.01,256.25,197.35,256.22,197.67z M256.82,192.32c0.06-0.55,0.11-0.99,0.14-1.26C256.91,191.5,256.87,191.92,256.82,192.32z M265.33,190.26c-0.04-0.16-0.09-0.37-0.16-0.62c-0.13-0.5-0.31-1.2-0.54-2.1c0.22,0.86,0.4,1.58,0.54,2.1C265.24,189.9,265.29,190.1,265.33,190.26C265.47,190.79,265.48,190.83,265.33,190.26z"/><path fill="#e19d76" d="M125.25,227.25c4.5-6.5,6.97-8.84,12.65-10c4.87-0.99,13.28-2.45,17.35-5.75c9.63-7.79,13.17-20.35,5.59-28.43c-4.32-4.6-7.03-7.3-13.05-8.81c-4.83-1.22-11.04-2.16-15.05-6.1c-7.84-7.69-11.29-20.73-10.82-31.2c0.41-8.95,9.17-18.79,15.15-24.83c7.04-7.12,15.71-14.12,23.72-20.42c-40.38,8.84-54.04,42.51-54.04,42.51c-9,12.5-4,61.55-4,61.55c-21-12.95-1.5,45.45-1.5,45.45c5,13.5,8,1,8,1c2.89,12.7,6.64,23.46,10.93,32.59c-0.78,38.87,1.32,70.54,1.15,83.21c7.79,0.1,53.6-30.51,61.45-32.32C179.16,318.81,113.75,264.75,125.25,227.25z"/><g class="eyes eyes-7"><path fill="#ffffff" fill-opacity="0.7" d="M130.67,205.17c3.71-3.85,9.45-3.34,14.5-2.67c2.44,0.33,4.47,0.94,6.55,2.17c1.45,0.85,5.95,3.1,5.42,5.14c-1.8,0.92-3.6,0.77-5.65,1.04c-3.08,0.41-5.96,0.32-9.05-0.13c-2.29-0.33-4.49-1.03-6.58-1.97C133.94,207.87,132.58,205.97,130.67,205.17"/><path fill="#ffffff" fill-opacity="0.7" d="M197.83,208.5c0.56-1.71,5.14-3.87,6.88-4.3c2.4-0.6,4.91-1.54,7.35-1.91c2.71-0.4,4.1,0.74,6.42,1.21c3,0.6,5.13,2.71,7.97,3.53c-1.7,1.15-3.57,2.93-5.45,3.85c-2.36,1.16-5.89,1.12-8.5,1.12c-2.79,0-5.38-0.26-8.03-1c-1.52-0.43-2.72-1.5-4.18-1.97c-0.84-0.27-1.79-0.09-2.63-0.37"/><path fill="#4f2a1a" d="M137.33,204.17c-0.38,1.41-0.76,2.12,0.33,3.54c0.88,1.15,1.97,1.89,3.33,2.3c2.35,0.72,5.19-0.15,6.71-2.14c0.62-0.81,1.21-2.43,0.79-3.54c-0.37-0.97-1.96-1.47-3.17-1.79c-1.23-0.32-2.88-0.37-4.17-0.21c-1.68,0.21-1.88,1.21-3.13,1.87c-0.17,0.09-0.18,0.07-0.37,0.13"/><path fill="#4f2a1a" d="M207.17,203.83c-4.42,2.89,7.97,11.78,10.17,4.12c1.76-6.12-10.3-6.54-10.83-3.29"/></g><g class="eyebrows eyebrows-21"><path fill="#96775a" fill-opacity="0.6" d="M171.5,189c-1.46-4.67-6.03-5.8-10.24-6.25c-4.7-0.5-9.13-1.75-13.8-2.43c-4.42-0.65-8.87-1.92-13.15-2.57c-4.45-0.68-8.37,1.52-12.17,3.75c-2.86,1.67-5.56,4.37-7.62,6.94c2.55,0.79,5.12,0.49,7.74,0.37c3.43-0.15,8.56-0.99,11.75-0.31c6.1,1.31,10.36,1.94,16,1.75C155,190.08,166.65,188.51,171.5,189"/><path fill="#96775a" fill-opacity="0.6" d="M229.25,177.5c-4.44,0.66-8.87,1.88-13.25,2.25c-2.83,0.24-5.67,1.15-8.5,1c-3.66-0.2-13.46,0.87-12.46,6.46c2.92,1.52,3.97,3.02,7.92,2.55c2.18-0.26,4.26-1.01,6.48-1.31c2.3-0.31,11.03,0.33,13.11,0.31c5-0.06,9.76-1.13,14.49,1.93c2.61,1.68,8.44,4.75,7.41-1.39c-3.09-1.37-4.66-4.22-7.01-6.49c-2.39-2.31-5.47-3.95-8.44-5.3"/></g><g class="chin chin-15"><path fill="none" stroke="#e19d76" stroke-miterlimit="10" d="M148.17,314.5c2.03,0.92,12.9,9.24,14.52,10c2.37,1.12,15.18,5.5,17.81,6c7.24,1.37,12.83-0.5,19.5-2.83c8.62-3.02,16.75-8.58,20.67-17"/></g><g class="hair hair-3009"><radialGradient id="hair_1_539e784fada8d" cx="176.75" cy="178.2998" r="65.3969" fx="161.0713" fy="177.1977" gradientTransform="matrix(0.0703 0.9975 -1.2281 0.0866 383.2917 -13.4544)" gradientUnits="userSpaceOnUse"><stop offset="0" style="stop-color:#e6a27b;stop-opacity:0"/><stop offset="0.1103" style="stop-color:#e19d76;stop-opacity:0.0682"/><stop offset="0.2473" style="stop-color:#cd8962;stop-opacity:0.1529"/><stop offset="1" style="stop-color:#96775a"/></radialGradient><path fill="url(#hair_1_539e784fada8d)" d="M109.676,195.65c1.554-7.072,5.37-14.875,7.723-21.65c2.173-6.255,3.795-13.012,1.935-19.574c-0.835-2.946-2.891-5.441-2.592-8.758c0.375-4.172,3.603-7.484,5.176-11.324c2.529-6.174,6.819-11.448,12.434-15.693c7.461-5.641,14.148-4.02,22.567-4.39c10.688-0.471,21.213-0.75,31.714-2.857c4.286-0.86,8.357-1.537,12.701-1.736c6.449-0.295,10.536,4.861,15.668,8.493c5.219,3.691,10.298,8.991,14.268,13.932c4.413,5.494,1.347,12.833,2.398,19.333c0.654,4.042,3.937,7.068,6.185,10.527c1.988,3.059,3.94,5.977,5.409,9.264c3.083,6.901,5.571,14.313,7.925,21.467c1.017,3.088,1.481,6.64,1.481,9.365c-0.153-5.819,3.743-10.696,4-16.714c0.296-6.949,0.724-14.25,1-21.301c0.582-14.865-10.38-35.254-14.167-41.034c-4.75-7.25-16.75-19.5-25.25-24.25c-6.737-3.765-14-9-23.5-10c-8.32-0.876-20.37-1.548-28.484-0.048c-14.126,2.612-24.701,4.714-37.266,11.548c-5.875,3.196-15.819,8.047-19.75,13.5c-4.583,6.357-6.25,5-12.5,21.75c-2.041,5.468-2.828,23.781-3,27.5c-0.209,4.523,2.046,28.252,3.25,34.669c0.672,3.581,1.157,4.818,3.066,7.975c1.593,2.634,2.152,4.912,2.951,7.747"/></g><g class="nose nose-12"><path fill="#dc9871" d="M186.01,198.89c-0.17,1.53-0.26,3.95-0.49,5.46c-0.58,3.86,0.9,6.29,0.88,10.24 c-0.02,6.65,6.48,12.91,4.38,19.46c-5.2-0.71-6.56-12.33-6.95-16.23c-0.33-3.31-1.14-7.11-1.01-10.49 c0.11-2.91,1.43-6.24,2.54-9.75C185.35,197.6,186.24,196.78,186.01,198.89z"/><path fill="#b47049" d="M163.83,238.66c1.56-0.34,3.59-1.78,5.34-1.34c1,0.26,3.42,2.71,3.64,3.81c-1.2,0.21-2.4-1.68-3.61-2.01c-1.45-0.39-3.3-0.07-4.85-0.16c-0.05-0.24,0.07-0.26,0.15-0.47"/><path fill="#b47049" d="M200.33,241.83c-1.46-1.29-9.87-3.33-9.14,0.31c1.54,0.17,3.47-0.72,5.17-0.8c1-0.05,1.28-0.07,2.19,0.29c0.84,0.33,1.5,1.32,2.29,0.2"/><path fill="none" stroke="#d7936c" stroke-miterlimit="10" d="M164.67,221.33c-3.17-0.23-7.46,3.32-8.63,6.17c-1.31,3.2,0.62,6.73,2.3,9.34c1.52,2.36,3.89,2.48,6.49,3.01c1.77,0.36,3.45,0.6,5.36,0.66c1.81,0.06,2.63,0.82,4.16,1.79c2.47,1.57,4.3,4.03,7.62,3.34c1.35-0.28,2.58-1.6,3.67-2.33c1.34-0.9,2.75-1.19,4.37-1.13c1.73,0.07,3.59,0.14,5.33,0.33c1.74,0.19,4.16,1.04,5.97,0.47c2.02-0.65,4.62-3.22,6.08-4.75c1.56-1.64,3.42-3.97,2.59-6.54c-0.36-1.11-1.9-2.74-2.62-3.67c-0.94-1.2-3.13-2.24-3.67-3.5"/></g><g class="mouth mouth-15"><path fill="#d28e67" fill-opacity="1" d="M155.17,269.83c2.28,0.77,3.62,5.06,5.54,6.67c2.81,2.35,6.46,4.04,10.09,4.71c6.54,1.21,13.64-0.47,20.2,0.96c7.75,1.68,15.34-5.75,16.98-12.63c-2.1-0.07-4.06-0.37-6.13-0.87c-3.28-0.79-6.47-0.27-9.82-0.17c-2.67,0.08-5.21,0.97-7.89,1.17c-2.64,0.19-5.33,0.25-7.99,0.33c-1.85,0.06-3.47-0.67-5.16-0.99c-1.93-0.37-3.73,0-5.61,0.17c-2,0.18-4.03-0.1-6.02,0.16c-1.21,0.16-2.34,0.75-3.54,0.83"/><path fill="#dc9871" d="M154.83,270c1.32-1.31,3.81-2.26,5.37-3.29c1.13-0.75,2.22-1.45,3.61-1.84c2.71-0.75,5.81-1.18,8.54-1.71c2.58-0.5,5.99-1.4,8.37,0.01c1.12,0.67,1.9,1.69,3.28,1.83c2.11,0.21,4.58-1.09,6.73-1.34c2.03-0.24,3.7,0.7,5.72,0.96c2.05,0.26,3.68,0.66,5.63,1.34c2.09,0.73,5.17,1.95,6.9,3.41c-1.88,3.29-6.43,3.83-10.01,3.8c-3.57-0.04-6.77-1.62-10.29-1.34c-2.32,0.19-4.22,1.15-6.54,1.17c-3.19,0.03-6.37-0.02-9.52-0.33c-3.2-0.32-6.42-0.68-9.91-0.67c-1.53,0-3.68-0.21-5.05-0.83c-1-0.46-1.51-1.04-2.67-1.17"/></g><g class="accessory headband"><path class="base" fill="#EFEFEF" d="M99.5,168.37c0,0,71.96-72.12,158.43,0c0,0,0.82-19.14-4.93-28.38c0,0-70.86-87.05-152-0.05C101,139.94,97.63,154.46,99.5,168.37z"/><path class="shadow" fill="#E5E5E5" d="M102.33,151c0.48-9.87,14.95-28.55,24.65-30.83c9.56-2.24,1.27,11.54-2.1,15.35c-5.04,5.68-9.11,9.62-13.15,16.1c8.01-5.61,15.01-12.98,25.15-15.39c3.43-4.72,16.56-0.56,21.46-1.21c4.29-0.57,7.89-2.31,12-3.33c9.88-2.47,23.38-1.84,33.3,0.62c9.63,2.38,21.39,4.88,29.35,10.72c9.03,6.62,16.35,13.65,25.29,19.83c-5.16-0.4-9.4-6.92-13.94-9.38c-4.58-2.48-9.16-4.19-14.01-6.95c-10.2-5.81-20.72-7.27-32.02-10.83c-23.33-7.36-45.24,2.95-67.3,10.02c-5.3,1.7-11.3,2.57-16.54,4.76c-4.59,1.92-8.9,6.4-14.05,6.44c0.37-2.87,2.96-5.13,2.56-7.9"/><path class="shadow" fill="#E5E5E5" d="M151,114.33c11.08,1.18,22.31-9.17,34-6.02c7.97,2.15,13.17,7.95,20.67,11.39c15.45,7.08,37.98,11.52,46.76,27.73c-8.69-3.99-14.49-12.55-23.28-15.76c-8.64-3.16-16.83-2.52-24.83-8.02c-8.28-5.69-13.54-9.79-23.84-10.65c-5.03-0.42-23.83,4.33-25.48,1.34"/></g></svg>