<svg id="s5a4017d26b403" class="face" xmlns="http://www.w3.org/2000/svg" xmlns:xlink="http://www.w3.org/1999/xlink" x="0px" y="0px" width="357px" height="358px" viewBox="0 0 357 358"><path fill="#69493c" d="M268.5,189.04c-1.41-1.92-2.86-2.74-4.22-2.91c-3.96-0.47-7.28,4.62-7.28,4.62c2.38-21.04,0-32.96,0-32.96c-16.83-65.56-65.84-69.37-76.8-69.39c-0.71,0.02-1.44,0.04-2.2,0.06c-54,1.42-71.5,44.58-71.5,44.58c-9,12.5-4,61.55-4,61.55c-21-12.95-1.5,45.45-1.5,45.45c5,13.5,8,1,8,1c2.88,12.67,6.63,23.41,10.9,32.53c0.85,44.99,1.74,68.73,1.44,83.43c23.33,0,116.79,0,123.83,0l1.52-85.32c6.58-17.33,7.31-32.14,7.31-32.14c2.5,3,6.5,1.5,6.5,1.5C272.75,234.79,268.5,189.04,268.5,189.04z M255.96,199.92C255.93,200.18,255.94,200.15,255.96,199.92L255.96,199.92z M256.22,197.67c0.03-0.3,0.07-0.64,0.11-1.01C256.29,197.01,256.25,197.35,256.22,197.67z M256.82,192.32c0.06-0.55,0.11-0.99,0.14-1.26C256.91,191.5,256.87,191.92,256.82,192.32z M265.33,190.26c-0.04-0.16-0.09-0.37-0.16-0.62c-0.13-0.5-0.31-1.2-0.54-2.1c0.22,0.86,0.4,1.58,0.54,2.1C265.24,189.9,265.29,190.1,265.33,190.26C265.47,190.79,265.48,190.83,265.33,190.26z"/><path fill="#644437" d="M125.25,227.25c4.5-6.5,6.97-8.84,12.65-10c4.87-0.99,13.28-2.45,17.35-5.75c9.63-7.79,13.17-20.35,5.59-28.43c-4.32-4.6-7.03-7.3-13.05-8.81c-4.83-1.22-11.04-2.16-15.05-6.1c-7.84-7.69-11.29-20.73-10.82-31.2c0.41-8.95,9.17-18.79,15.15-24.83c7.04-7.12,15.71-14.12,23.72-20.42c-40.38,8.84-54.04,42.51-54.04,42.51c-9,12.5-4,61.55-4,61.55c-21-12.95-1.5,45.45-1.5,45.45c5,13.5,8,1,8,1c2.89,12.7,6.64,23.46,10.93,32.59c-0.78,38.87,1.32,70.54,1.15,83.21c7.79,0.1,53.6-30.51,61.45-32.32C179.16,318.81,113.75,264.75,125.25,227.25z"/><g class="eyes eyes-22"><path fill="#ffffff" fill-opacity="0.7" d="M154.4,199.38c-0.35-0.22-1.24-0.49-2.31-0.74c1.16,1.56,1.17,4.28,0.66,6.12c-0.5,1.82-3.27,3.8-5.12,4.38c2.18,0.33,5.62-0.3,7.87-0.5c2.81-0.25,5.73-1.07,8.58-1.02C163.46,206.09,159.25,202.38,154.4,199.38z"/><path fill="#ffffff" fill-opacity="0.7" d="M138.63,204.16c-0.14-0.27-0.23-0.59-0.29-0.91c-0.57-1.07-0.48-2.23-0.01-3.3c0.01-0.11,0.01-0.22,0.02-0.33c-1.12,0.33-2.18,0.77-3.12,1.41c-1.11,0.75-3.23,1.5-3.73,2.73l0.13-0.13c1.19,0.51,2.19,1.5,3.15,2.24c1.52,1.17,4.27,1.85,6.1,2.11c0.77,0.11,1.47,0.22,2.15,0.34c-0.57-0.37-1.13-0.79-1.67-1.25C140.34,206.22,139.24,205.35,138.63,204.16z"/><path fill="#1e2420" d="M152.75,204.75c0.51-1.83,0.5-4.56-0.66-6.12c-2.05-0.49-4.78-0.94-5.84-0.89c-2.3,0.11-4.4,1.04-6.6,1.53c-0.38,0.09-0.76,0.18-1.13,0.29c-0.03,0.05-0.05,0.1-0.07,0.14l-0.01-0.12c-0.03,0.01-0.06,0.02-0.09,0.03c-0.01,0.11-0.01,0.22-0.02,0.33c-0.47,1.07-0.56,2.23,0.01,3.3c0.06,0.32,0.15,0.63,0.29,0.91c0.61,1.2,1.72,2.07,2.73,2.92c0.54,0.46,1.1,0.88,1.67,1.25c1.5,0.26,2.89,0.55,4.61,0.81C149.48,208.55,152.25,206.57,152.75,204.75z"/><path fill="#ffffff" fill-opacity="0.7" d="M226.5,204.53c-1.93-1.7-3.74-2.98-6.17-3.97c0.34,0.4,0.63,0.8,0.83,1.16c0.64,1.21,0.51,3.53,0.12,4.81c-0.53,1.75-1.52,3.81-3.4,4.57c-1.8,0.73-5.55,0.03-7.03-0.95c-1.53-1.01-3.02-2.34-3.84-3.96c-0.47-0.92-0.89-1.94-1-2.94c-0.14-1.33,0.44-2.36,0.59-3.57c-0.37,0.2-0.73,0.41-1.12,0.66c-1.2,0.75-2.76,1.11-3.97,1.91c-1.61,1.08-2.58,3.07-3.81,4.53c0.65,0.42,1.48,0.79,1.97,1.2c1.05,0.27,2.21,0.96,3.23,1.39c2.06,0.85,4.13,1.04,6.28,1.67c1.38,0.4,2.66,0.68,4.1,0.72c1.68,0.05,3.7-0.08,5.38-0.25c4.42-0.44,5.44-5.37,9.83-5.62C227.81,205.39,227.12,205.08,226.5,204.53z"/><path fill="#1e2420" d="M206,203.25c0.11,1.01,0.53,2.03,1,2.94c0.83,1.62,2.32,2.95,3.84,3.96c1.48,0.98,5.23,1.68,7.03,0.95c1.88-0.76,2.87-2.82,3.4-4.57c0.39-1.28,0.52-3.59-0.12-4.81c-0.19-0.36-0.48-0.76-0.83-1.16c-0.16-0.06-0.31-0.13-0.47-0.19c-2.21-0.84-4.77-0.91-7.11-1.25c-1.33-0.19-2.58-0.28-3.94-0.15c-0.62,0.06-1.13,0.21-1.61,0.41c-0.2,0.21-0.39,0.42-0.58,0.61v-0.34c-0.01,0.01-0.02,0.01-0.04,0.02C206.44,200.89,205.86,201.92,206,203.25z"/></g><g class="eyebrows eyebrows-11"><path fill="#141615" fill-opacity="0.8" d="M110.5,195.67c0.83-3.17,4.41-7.04,6.63-9.37c1.53-1.6,3.78-2.51,5.37-4.13c1.43-1.47,2.82-2.57,4.47-3.79c5.14-3.83,11.26-2.4,17.14-3.54c4.69-0.91,10.05-0.3,14.18,1.93c3.42,1.85,5.55,2.89,5.68,6.88c-4.4,2.82-9.13,3.71-14.54,3.7c-2.54-0.01-4.64,0.38-6.96-0.45c-1.98-0.71-3.92-0.82-5.93-1.19c-2.14-0.4-4.47-1.46-6.67-1.2c-2.21,0.26-4.48,1.67-6.53,2.49c-3.84,1.54-6.55,4.22-10.13,6.35c-1.48,0.89-2.34,1.86-3.54,3"/><path fill="#141615" fill-opacity="0.8" d="M202,173c-4.71-0.38-9.26,3.05-12,6.5c-0.87,1.1-2.36,2.65-2.17,4.17c0.25,2.06,2.59,2.9,4.34,3c4.75,0.27,8.63-3.17,13.49-3.17c1.64,0,3.2,0.11,4.8,0.17c1.86,0.06,3.39-0.55,5.16-0.84c2.42-0.4,4.45-1.15,6.89-1.66c3.33-0.7,5.03,0.07,7.97,1.68c1.99,1.09,4.5,2.26,6.17,3.83c1.73,1.62,2.01,2.64,4.5,1.96c-0.09-1.35-2.05-3.33-2.85-4.47c-0.81-1.15-1.86-2.13-2.75-3.22c-2.31-2.82-4.34-5.22-7.88-6.47c-4.55-1.61-8.23-1.4-13.03-1.11c-3.87,0.23-8.11-1.4-11.96-0.72c-0.62,0.11-1.2,0.56-1.84,0.68"/></g><g class="chin chin-11"><path fill="none" stroke="#644437" stroke-miterlimit="10" d="M141,314.5c1.52,0.31,3.15,2.17,4.33,3.17c1.39,1.17,2.78,2.19,4.11,3.37c1.22,1.09,2.46,2.06,3.89,2.96c2.41,1.52,4.85,1.7,7.6,2.55c2.44,0.75,4.83,1.86,7.35,2.45c2.58,0.61,4.78,0.7,7.42,0.84c2.95,0.16,5.83,0.86,8.76,0.47c2.23-0.3,3.83-1.25,5.87-1.63c2.67-0.5,3.67-1.28,5.67-1.7c1.71-0.35,3.54-1.32,5.29-1.84c3.64-1.08,7.27-3.71,10.27-5.92c1.51-1.11,3.36-1.89,4.85-3.04c1.14-0.88,1.92-1.98,3.05-2.88c2.17-1.72,4.14-3.53,6.17-5.46c0.34-0.32,0.41-0.59,0.88-0.83"/></g><g class="hair hair-1"><path fill="#141615" fill-opacity="0.5" d="M108.94,207.62c0.55-1.65,1.12-4.62-0.6-5.48c-0.4-3.3-0.02-6.9-0.33-10.14c-0.37-3.89-0.85-8.32-0.35-12.27c0.45-3.51,2.21-6.46,3.66-9.4c1.53-3.1,3.57-3.45,5.65-5.84c4.72-5.42-0.34-17.2,2.02-24.17c2.7-7.96,13.15-9.48,19.63-13.08c7.27-4.04,15.53-6.34,24.11-6.24c9.53,0.1,19.81,0.08,29.29,1.32c4.79,0.63,9.58,1.02,14.32,1.68c4.67,0.65,9.11,2.63,13.69,3.99c3.31,0.99,8.3,1.69,11.26,3.41c2.93,1.7,4.6,6.57,5.72,9.61c0.95,2.58,2.27,5.3,2.76,7.98c0.5,2.75-0.54,5.38-0.1,8.02c0.83,5.06,6.68,9.99,8.59,15.08c3.55,9.47,1.02,20.53,3.82,30.21c3.96-3.75,4.93-11.55,4.93-11.55c2.38-21.04,0-32.96,0-32.96c-16.83-65.56-65.84-69.37-76.8-69.39c-0.71,0.02-1.44,0.04-2.2,0.06c-54,1.42-71.5,44.58-71.5,44.58c-9,12.5-4,61.55-4,61.55C103.03,197.31,107.4,207.12,108.94,207.62z M256.96,191.06c-0.05,0.44-0.1,0.86-0.14,1.26C256.88,191.77,256.93,191.33,256.96,191.06z"/></g><g class="nose nose-8"><path fill="#5f3f32" d="M186.01,198.89c-0.17,1.53-0.26,3.95-0.49,5.46c-0.58,3.86,0.9,6.29,0.88,10.24 c-0.02,6.65,6.48,12.91,4.38,19.46c-5.2-0.71-6.56-12.33-6.95-16.23c-0.33-3.31-1.14-7.11-1.01-10.49 c0.11-2.91,1.43-6.24,2.54-9.75C185.35,197.6,186.24,196.78,186.01,198.89z"/><path fill="#37170a" d="M161.25,240.25c2.63-2.83,4.53-2.89,7.5-0.94c1.32,0.87,5.69,2.64,5.03,4.44c-1.12,3.04-7.16,0.55-8.78,0c-0.94-0.32-6.45-2.02-3.5-3.75"/><path fill="#37170a" d="M188.25,239.25c2.48-1.05,3.94-2.43,6.69-1.44c1.84,0.66,5.71,2.67,4.3,4.49c-2.64,3.41-14.05,0.07-10.49-3.3"/><path fill="none" stroke="#5a3a2d" stroke-miterlimit="10" d="M159.25,226.25c-2.79,0.32-6.4,3.88-8.2,6.05c-2.02,2.44-2.68,5.1-1.12,8.02c1.54,2.87,3.68,5.12,6.57,6.63c2.66,1.39,6.91,0.25,9,1.81"/><path fill="none" stroke="#5a3a2d" stroke-miterlimit="10" d="M174.25,247.25c1.6-0.23,2.64,1.12,4.18,1.5c3.76,0.94,5.48-1.55,8.86-1.93c2.22-0.25,4.24,1.13,6.41,1.41c6.13,0.79,12.03-3.1,13.8-8.98c1.31-4.33-1.4-5.91-4.76-8.49c-2.09-1.61-4.13-2.11-6.49-3.19c-2.23-1.03-4.25-6.06-5.76-6.32"/></g><g class="mouth mouth-24"><path fill="#553528" fill-opacity="1" d="M150.621,275.814c0,0,37.886,18.5,59.761-2.333v-1.166C210.382,272.314,150.151,267.98,150.621,275.814z"/><path fill="#5f3f32" d="M150.621,274.314c0,0,11.636-9.5,31.636-8c0,0,15.75-1.999,28.125,6c0,0-25.292,3.833-31.125,4.333C179.257,276.647,153.484,274.814,150.621,274.314z"/></g></svg>