<svg id="s57da0c2e3dcbf" class="face" xmlns="http://www.w3.org/2000/svg" xmlns:xlink="http://www.w3.org/1999/xlink" x="0px" y="0px" width="357px" height="358px" viewBox="0 0 357 358"><path fill="#994d2d" d="M268.5,189.04c-1.41-1.92-2.86-2.74-4.22-2.91c-3.96-0.47-7.28,4.62-7.28,4.62c2.38-21.04,0-32.96,0-32.96c-16.83-65.56-65.84-69.37-76.8-69.39c-0.71,0.02-1.44,0.04-2.2,0.06c-54,1.42-71.5,44.58-71.5,44.58c-9,12.5-4,61.55-4,61.55c-21-12.95-1.5,45.45-1.5,45.45c5,13.5,8,1,8,1c2.88,12.67,6.63,23.41,10.9,32.53c0.85,44.99,1.74,68.73,1.44,83.43c23.33,0,116.79,0,123.83,0l1.52-85.32c6.58-17.33,7.31-32.14,7.31-32.14c2.5,3,6.5,1.5,6.5,1.5C272.75,234.79,268.5,189.04,268.5,189.04z M255.96,199.92C255.93,200.18,255.94,200.15,255.96,199.92L255.96,199.92z M256.22,197.67c0.03-0.3,0.07-0.64,0.11-1.01C256.29,197.01,256.25,197.35,256.22,197.67z M256.82,192.32c0.06-0.55,0.11-0.99,0.14-1.26C256.91,191.5,256.87,191.92,256.82,192.32z M265.33,190.26c-0.04-0.16-0.09-0.37-0.16-0.62c-0.13-0.5-0.31-1.2-0.54-2.1c0.22,0.86,0.4,1.58,0.54,2.1C265.24,189.9,265.29,190.1,265.33,190.26C265.47,190.79,265.48,190.83,265.33,190.26z"/><path fill="#944828" d="M125.25,227.25c4.5-6.5,6.97-8.84,12.65-10c4.87-0.99,13.28-2.45,17.35-5.75c9.63-7.79,13.17-20.35,5.59-28.43c-4.32-4.6-7.03-7.3-13.05-8.81c-4.83-1.22-11.04-2.16-15.05-6.1c-7.84-7.69-11.29-20.73-10.82-31.2c0.41-8.95,9.17-18.79,15.15-24.83c7.04-7.12,15.71-14.12,23.72-20.42c-40.38,8.84-54.04,42.51-54.04,42.51c-9,12.5-4,61.55-4,61.55c-21-12.95-1.5,45.45-1.5,45.45c5,13.5,8,1,8,1c2.89,12.7,6.64,23.46,10.93,32.59c-0.78,38.87,1.32,70.54,1.15,83.21c7.79,0.1,53.6-30.51,61.45-32.32C179.16,318.81,113.75,264.75,125.25,227.25z"/><g class="eyes eyes-21"><path fill="#ffffff" fill-opacity="0.7" d="M154.675,192.763c0.515,0.944,0.79,2.031,0.731,3.18c-0.17,3.356-3.065,5.937-6.466,5.764c-3.402-0.172-6.021-3.032-5.851-6.389c0.033-0.656,0.173-1.28,0.398-1.862c-1.676,1.114-4.709,3.721-4.815,4.47l0.063,0.062c-0.05,0.954,1.15,1.029,1.882,1.289c0.907,0.322,1.773,0.785,2.644,1.259c0.822,0.448,4.069,0.996,4.934,1.148c0.806,0.142,3.872,0.212,4.572,0.094c1.264-0.212,2.549-0.602,3.796-0.837c1.189-0.224,2.33-0.613,3.417-1.161c0.866-0.437,2.215-1.071,2.796-1.878C161.553,196.941,156.537,193.614,154.675,192.763z"/><path fill="#1e2420" d="M148.94,201.707c3.401,0.172,6.296-2.408,6.466-5.764c0.059-1.148-0.216-2.235-0.731-3.18c-0.106-0.049-0.208-0.093-0.292-0.125c-1.3-0.486-2.623-0.854-4.541-0.718c-0.866,0.063-1.739,0.245-2.575,0.452c-0.974,0.241-2.079,0.236-3,0.629c-0.19,0.082-0.463,0.245-0.779,0.455c-0.225,0.582-0.365,1.206-0.398,1.862C142.919,198.674,145.538,201.534,148.94,201.707z"/><path fill="#ffffff" fill-opacity="0.7" d="M228.037,196.748c-0.722-0.708-1.382-1.047-2.185-1.658c-0.889-0.676-2.145-1.249-3.354-1.735c0.063,0.388,0.086,0.787,0.065,1.193c-0.165,3.241-3.018,5.73-6.374,5.56c-3.354-0.17-5.942-2.935-5.777-6.175c0.046-0.911,0.311-1.759,0.732-2.508c-0.716,0.215-1.425,0.487-2.114,0.7c-0.619,0.192-3.212,1.622-3.919,2.228c-0.889,0.762-1.452,1.607-2.093,2.527c0.56,0.019,0.841,0.271,1.292,0.595c0.753,0.542,3.212,1.283,3.694,1.519c0.8,0.392,2.466,0.982,3.325,1.119c3.313,0.529,5.842,1.562,9.284,0.896c1.335-0.258,2.626-0.453,3.918-0.919c0.585-0.211,3.181-0.713,3.818-0.93c0.506-0.171,1.079-0.506,1.621-0.717C229.415,197.875,228.634,197.334,228.037,196.748z"/><path fill="#1e2420" d="M216.189,200.107c3.356,0.17,6.209-2.319,6.374-5.56c0.021-0.407-0.003-0.806-0.065-1.193c-0.627-0.252-1.242-0.482-1.786-0.689c-1.222-0.463-2.409-0.83-3.631-1.086c-1.199-0.252-2.715-0.533-3.962-0.514c-0.659,0.011-1.32,0.161-1.975,0.358c-0.422,0.75-0.687,1.598-0.732,2.508C210.247,197.172,212.835,199.937,216.189,200.107z"/></g><g class="eyebrows eyebrows-19"><path fill="#141615" fill-opacity="0.5" d="M118.25,196.75c0.07-4.44,4.29-8.87,8.56-9.69c4.49-0.87,10.44-0.55,14.87,0.13c4.44,0.69,8.71,1.08,13.13,0.37c4.97-0.8,7.21-4.82,2-7.61c-7.85-4.21-17.11-2.59-25.56-2.19c-4.95,0.23-6.97,3.81-10.24,7.3c-2.21,2.37-6.42,6.67-4.83,10.26c0.29,0.64,0.83,0.91,1.53,0.97c0.2,0.25-0.03,0.3,0.29,0.5c0.3-0.44,0.32-1.11,0.25-1.79"/><path fill="#141615" fill-opacity="0.5" d="M225.5,177.16c-5.04-1.51-15.77-0.16-20.5,1.54c-2.89,1.04-8.48,4.97-6.52,8.42c1.65,2.89,8.27,0.21,14.27-0.01c2.07-0.08,4.39-0.79,6.25-1.55c2.73-1.11,6.68,0.01,9.75-0.22c6.64-0.49,10.18,4.83,14.22,8.36c-1.24-3.16-4.13-6.86-6.96-9.24c-1.82-1.53-4.96-4.25-7.47-4.68c-0.63-0.89-2.64-2.35-3.79-2.62"/></g><g class="chin chin-7"><path display="inline" fill="none" stroke="#944828" stroke-miterlimit="10" d="M146,311.67c2.08,1.12,4.01,5.38,5.67,7.35 c2.23,2.66,4.46,5.73,7.34,7.74c7,4.89,18.17,7.28,26.56,7.91c5.8,0.44,14.16-3.86,18.4-7.64c3.1-2.77,6.04-5.84,9.02-8.71 c2.25-2.17,5.93-4.62,6.35-7.98"/></g><g class="hair hair-4"><path fill="#141615" fill-opacity="1" d="M105.29,191.58c0.19-4.12-1.57-8.49-0.85-12.35c0.44,0.06,1.1,0.2,1.46,0.26c0.33-8.07,1.73-17.04,1.54-24.76c0.6,0.01,1.32-0.23,1.85-0.25c-0.31-3.73-0.3-11.06,2.55-13.35c1.26-1.01,4.27-0.36,4.64-0.55c1.68-0.88,3.02-2.5,4.36-4.01c4.01-4.51,5.39-10.73,9.64-14.78c6.68-6.37,13.85-6.51,21.89-8.14c6.25-1.26,13.87-5.59,20.5-6c1.88-0.12,1.86-1.02,3.53-0.53c3.75,1.1,5.64,0.23,9.72,0.28c6.23,0.07,12.17,0.13,18,2.25c3.47,1.26,8.01,2.32,10.76,4.39c2.88,2.17,6.08,2.8,9.5,4.11c7.34,2.81,9.96,9.08,14.96,14.5c2.61,2.83,4.3,3.89,5.03,7.75c0.81,4.3,0.47,7.94,3.37,12.39c3.68,5.63,6.96,16.82,8.56,23.42c0.51,2.1,1.07,5.01,1.34,7.56c0.04-0.55,0.08-1.1,0.11-1.64c0.02-4.16,0.11-9.96,0.24-13.32c-0.11-3.44-0.34-6.1-0.55-7.96c-0.38-2.07-0.81-4.18-1.32-6.32c-17.59-62.44-65.15-66.13-75.93-66.15c-0.71,0.02-1.44,0.04-2.2,0.06c-54,1.42-71.5,44.58-71.5,44.58c-7.06,9.8-5.51,42.08-4.51,55.55c0.56,1.22,1.25,2.27,2.1,3.08C104.49,191.67,104.9,191.65,105.29,191.58z"/></g><g class="nose nose-21"><path fill="#8f4323" d="M186.01,198.89c-0.17,1.53-0.26,3.95-0.49,5.46c-0.58,3.86,0.9,6.29,0.88,10.24 c-0.02,6.65,6.48,12.91,4.38,19.46c-5.2-0.71-6.56-12.33-6.95-16.23c-0.33-3.31-1.14-7.11-1.01-10.49 c0.11-2.91,1.43-6.24,2.54-9.75C185.35,197.6,186.24,196.78,186.01,198.89z"/><path fill="#671b00" d="M162.63,247.25c1.69-1.11,2.96-2.59,5.26-2c0.68,0.18,3.84,1.33,3.47,2.47c-0.55,1.74-9.18,1.2-8.98-0.47"/><path fill="#671b00" d="M185,246.13c1.59-0.98,3.93-1.6,5.62-0.72c0.94,0.49,4.06,1.96,2.5,3.07c-1.33,0.95-3.51-0.57-4.65-0.94c-0.77-0.25-1.65-0.11-2.38-0.38c-0.73-0.27-1.56-1.18-0.47-1.66"/><path fill="none" stroke="#8a3e1e" stroke-miterlimit="10" d="M161.38,230.88c-3.2,3.47-6.95,7.96-5.75,13.12c0.39,1.67,1.64,3.93,3.34,4.66c1.49,0.65,3.62,0.29,5.26,0.61c1.4,0.27,2.54,0.6,4.04,0.72c1.48,0.12,3.37-0.2,4.85,0.13c0.94,0.21,1.67,1.01,2.56,1.41c1.44,0.64,4.01,1.29,5.58,1.22c1.49-0.07,2.46-0.78,3.69-1.47c2.93-1.64,6.72-0.89,9.95-0.78c2.39,0.08,5.64-0.44,7.22-2.26c2.62-2.99-0.16-7.34-1.59-10.34c-1.1-2.3-2.29-2.99-3.88-5.1c-2.03-2.68-4.55-8.49-5.03-11.56"/></g><g class="mouth mouth-4"><path fill="#DA7771" d="M157.67,276.38c1.49,3.44,4.03,3.59,7.14,4.87c2.15,0.89,4.35,1.38,6.39,2.5c2.68,1.47,5.37,3.07,8.43,3.75c1.94,0.44,5.11,0.85,6.82-0.11c1.46-0.82,3.01-1.7,4.45-2.63c2.56-1.66,4.47-4.48,6.89-6.29c2.75-2.05,6.88-2.2,8.16-5.97c1.85-5.44-8.06-2.5-10.13-4.02c-0.17-1.73-4.4-1.63-5.62-1.72c-2.26-0.17-4.53-0.65-6.8-0.64c-1.87,0.01-3.45,0.66-5.25,0.98c-3.47,0.62-7.12-0.04-10.53,0.92c-2.26,0.64-4.52,1.38-6.48,2.56c-1.46,0.89-5.88,1.61-6.45,3.44c-0.49,1.55,2.95,3.77,4.22,4.35"/><path fill="#F6F1D6" d="M153.67,271.63c-0.26,1.15,1.9,3.61,2.53,4.88c0.88,1.76,4.53,1.7,6.22,1.62c2.79-0.13,5.81-0.2,8.46,0.34c1.52,0.31,3.14,0.19,4.67,0.28c1.57,0.09,3.1,0.61,4.74,0.63c1.71,0.01,3.41,0.01,5.12,0c0.68-0.01,1.4,0.1,2.02-0.24c0.55-0.3,0.78-0.88,1.36-1.13c1.41-0.6,3.71-0.38,5.25-0.51c1.99-0.16,3.13,0.12,4.88-0.96c1.38-0.85,2.74-1.21,3.87-2.44c0.94-1.02,3.16-1.49,3.88-2.6c-3.06-1.57-7.86-2.79-10.9-4.35c-2.31-1.18-4.91-1.71-7.48-1.77c-4.71-0.11-10.18-0.37-14.68,1.09c-3.74,1.22-7.73,0.41-11.06,2.66c-1.88,1.28-3.91,2.47-5.76,3.74"/><path fill="#8f4323" d="M152.79,271.75c1.23-1.6,2.51-3.38,4.24-4.52c1.68-1.1,3.78-1.36,5.5-2.38c1.41-0.84,2.44-1.87,4.15-2.22c1.63-0.33,3.53-0.41,5.24-0.5c0.91-0.05,1.78-0.07,2.68-0.16c0.97-0.1,2.38-0.66,3.31-0.47c1.19,0.25,1.82,1.64,3,2.12c1.72,0.71,2.43-0.92,4.02-1.47c1.71-0.59,3.83-0.44,5.6-0.27c2.32,0.23,4.56-0.11,6.9,0.53c1.86,0.51,3.91,1.37,5.62,2.35c1.12,0.65,2.29,1.42,3.48,2.08c0.77,0.43,2.38,1.25,2.73,2.01c-1.69,1.52-3.92,3.55-6.33,3.4c-2.35-0.15-4.34-2.7-6.53-3.6c-2.56-1.05-5.73-0.78-8.5-0.78c-1.71,0-3.42-0.19-5,0.37c-1.37,0.48-2.48,0.74-4.02,0.88c-1.78,0.16-3.53,0.48-5.38,0.38c-1.51-0.08-2.77-0.68-4.23-0.75c-1.27-0.06-2.5-0.2-3.5,0.5c-0.9,0.63-1.78,1.65-2.63,2.38c-2.1,1.82-3.72,2.88-6.63,2.87c-1.33,0-2.32,0.08-3.37-0.78c-1.07-0.87-1.05-1.95,0.13-2.85"/><path fill="#a7696a" fill-opacity="0.9" d="M153.42,273.63c0.61,3.59,3.26,6.19,5.07,9.16c1.33,2.2,3.14,4.55,5.15,6.25c1.13,0.95,2.42,1.93,3.65,2.75c1.78,1.17,4.33,1.8,6.36,2.57c1.66,0.63,3.25,0.77,5.02,0.53c1.01-0.13,2.17-0.39,3.12-0.48c1.88-0.18,3.68,0.42,5.51,0.35c1.42-0.06,2.51-0.67,3.76-1.25c1.83-0.85,3.96-1.29,5.7-2.38c2.64-1.67,4.81-4.54,6.3-7.25c1.48-2.68,3.77-4.55,4.82-7.57c0.36-1.05,2.23-6.83,0.66-7.53c-0.27-0.12-2.98,2.84-3.6,3.38c-1.5,1.3-3.16,1.81-4.88,2.74c-2.93,1.6-4.67,4.2-6.87,6.6c-0.86,0.94-1.69,1.79-2.82,2.38c-1.26,0.65-2.62,0.58-3.99,0.9c-3.01,0.7-7.41,1.11-10.41,0.1c-1.03-0.35-1.96-0.87-2.99-1.28c-1.2-0.48-2.42-0.62-3.55-1.22c-1.81-0.96-3.52-2.25-5.51-2.88c-2.17-0.69-4.08-1.03-5.97-2.4c-1.19-0.86-2.69-2.29-3.4-3.58c-0.24-0.04-1.15-0.32-1.36-0.16c-0.58,0.43-0.14,1.15,0.38,1.39"/></g></svg>