<svg id="s5a4017d19496b" class="face" xmlns="http://www.w3.org/2000/svg" xmlns:xlink="http://www.w3.org/1999/xlink" x="0px" y="0px" width="357px" height="358px" viewBox="0 0 357 358"><path fill="#efb19a" d="M268.5,189.04c-1.41-1.92-2.86-2.74-4.22-2.91c-3.96-0.47-7.28,4.62-7.28,4.62c2.38-21.04,0-32.96,0-32.96c-16.83-65.56-65.84-69.37-76.8-69.39c-0.71,0.02-1.44,0.04-2.2,0.06c-54,1.42-71.5,44.58-71.5,44.58c-9,12.5-4,61.55-4,61.55c-21-12.95-1.5,45.45-1.5,45.45c5,13.5,8,1,8,1c2.88,12.67,6.63,23.41,10.9,32.53c0.85,44.99,1.74,68.73,1.44,83.43c23.33,0,116.79,0,123.83,0l1.52-85.32c6.58-17.33,7.31-32.14,7.31-32.14c2.5,3,6.5,1.5,6.5,1.5C272.75,234.79,268.5,189.04,268.5,189.04z M255.96,199.92C255.93,200.18,255.94,200.15,255.96,199.92L255.96,199.92z M256.22,197.67c0.03-0.3,0.07-0.64,0.11-1.01C256.29,197.01,256.25,197.35,256.22,197.67z M256.82,192.32c0.06-0.55,0.11-0.99,0.14-1.26C256.91,191.5,256.87,191.92,256.82,192.32z M265.33,190.26c-0.04-0.16-0.09-0.37-0.16-0.62c-0.13-0.5-0.31-1.2-0.54-2.1c0.22,0.86,0.4,1.58,0.54,2.1C265.24,189.9,265.29,190.1,265.33,190.26C265.47,190.79,265.48,190.83,265.33,190.26z"/><path fill="#eaac95" d="M125.25,227.25c4.5-6.5,6.97-8.84,12.65-10c4.87-0.99,13.28-2.45,17.35-5.75c9.63-7.79,13.17-20.35,5.59-28.43c-4.32-4.6-7.03-7.3-13.05-8.81c-4.83-1.22-11.04-2.16-15.05-6.1c-7.84-7.69-11.29-20.73-10.82-31.2c0.41-8.95,9.17-18.79,15.15-24.83c7.04-7.12,15.71-14.12,23.72-20.42c-40.38,8.84-54.04,42.51-54.04,42.51c-9,12.5-4,61.55-4,61.55c-21-12.95-1.5,45.45-1.5,45.45c5,13.5,8,1,8,1c2.89,12.7,6.64,23.46,10.93,32.59c-0.78,38.87,1.32,70.54,1.15,83.21c7.79,0.1,53.6-30.51,61.45-32.32C179.16,318.81,113.75,264.75,125.25,227.25z"/><g class="eyes eyes-17"><path fill="#ffffff" fill-opacity="0.7" d="M157.243,198.587c-1.524-1.36-4.262-2.417-6.339-2.587c-0.832-0.068-1.68-0.071-2.529-0.057c0.356,0.245,0.694,0.548,1.028,0.931c0.869,0.995,2.476,2.215,2.722,3.528c0.486,2.597-2.42,5.352-4.6,6.229c-2.99,1.203-5.94,0.13-8.053-2.153c-2.213-2.393-2.299-4.442-1.274-7.112c-2.103,0.491-4.044,1.064-4.813,1.637c-1.419,1.057-2.36,2.351-3.754,3.358c0.351,0.998,4.133,3.899,4.935,4.507c1.587,1.202,3.986,2.07,5.926,2.387c3.356,0.549,6.377,0.334,9.231-1.509c2.503-1.617,4.958-3.615,7.036-5.741c0.242-0.248,1.564-1.545,1.596-1.656C158.552,199.651,157.81,199.093,157.243,198.587z"/><path fill="#402a13" d="M139.472,204.479c2.112,2.283,5.063,3.355,8.053,2.153c2.18-0.876,5.085-3.632,4.6-6.229c-0.246-1.313-1.853-2.534-2.722-3.528c-0.334-0.383-0.672-0.686-1.028-0.931c-0.996,0.016-1.993,0.056-2.972,0.056c0,0-3.813,0.575-7.205,1.367C137.173,200.037,137.259,202.086,139.472,204.479z"/><path fill="#ffffff" fill-opacity="0.7" d="M224.75,197.75c-0.927-0.4-1.801-0.626-2.75-1c-0.203-0.08-0.401-0.148-0.597-0.209c0.012,0.45-0.072,0.934-0.156,1.555c-0.24,1.773-0.452,3.541-1.747,4.91c-2.318,2.45-6.213,3.793-9.507,2.619c-2.027-0.723-2.863-2.054-3.765-3.946c-0.666-1.397-1.591-3.14-1.116-4.733c0.106-0.357,0.292-0.674,0.502-0.979c-2.416,0.614-4.808,1.012-5.734,3.622c3.074,1.949,5.593,4.743,8.783,6.511c2.688,1.49,6.017,2.545,9.126,2.526c4.683-0.029,9.687-2.835,12.206-6.848C228.931,200.548,226.251,198.398,224.75,197.75z"/><path fill="#402a13" d="M206.229,201.679c0.901,1.892,1.737,3.223,3.765,3.946c3.294,1.174,7.188-0.169,9.507-2.619c1.295-1.369,1.507-3.136,1.747-4.91c0.084-0.621,0.168-1.105,0.156-1.555c-1.315-0.407-2.495-0.412-3.996-0.553c-1.943-0.183-3.734-0.976-5.657-0.988c-1.307-0.009-2.126,0.348-3.375,0.125V195c-0.866,0.453-1.815,0.726-2.761,0.966c-0.21,0.305-0.396,0.622-0.502,0.979C204.638,198.539,205.563,200.281,206.229,201.679z"/></g><g class="eyebrows eyebrows-16"><path fill="#d8b677" fill-opacity="0.4" d="M111.667,188c1.637-0.605,3.805-4.561,5.316-6c1.722-1.64,3.694-3.014,5.611-4.408c5.197-3.778,6.396-2.618,11.814-0.593c9.397,3.511,21.63-0.761,27.558,9.742c-1.543,1.757-3.715,0.743-5.5,0.267c-3.623-0.966-7.301-1.015-10.959-1.684c-5.357-0.98-12.666-4.374-17.838-2.323c-3.426,1.358-7.111,3.531-10.345,5.324c-0.801,0.444-3.724,2.559-4.657,2.364c-2.031-0.424-1.701-2.97,0.001-3.689"/><path fill="#d8b677" fill-opacity="0.4" d="M194.333,182.667c2.025-4.569,13.703-4.777,18-5.75c6.178-1.398,11.472-3.237,17.96-2.859c1.196,1.418,3.134,3.662,4.672,4.958c1.966,1.658,4.91,2.375,6.116,4.936c1.02,2.164-0.504,3.179-3.49,2.738c-3.947-0.583-6.972-2.313-11.259-2.357c-7.314-0.076-14.113,1.661-21.35,2.017c-4.366,0.215-9.765,1.6-12.355-2.674c0.547-0.538,1.554-1.355,2.373-1.676"/></g><g class="hair hair-3000"><path fill="#d8b677" d="M110,230c1.29-3.27,0.3-8.56,0.5-12.5c0.21-4.14,1.43-7.72,1-12c-0.77-7.65-2.88-16.91-1-24.5c1.05-4.23,4.91-7.35,5.9-11.49c0.72-2.99-0.07-8.7-0.4-12.01c-0.44-4.35-1.92-6.7,1.49-10.12c2.95-2.97,8.02-4.78,11.58-6.99c8.98-5.57,12.57-10.36,23.32-5.29c3.89,1.83,6.52,5.35,9.98,7.02c9.05,4.37,12.21,0.88,17.22-4.6c2.06-2.25,6.97-7.58,10.02-7.91c4.3-0.47,8.04,3.14,13.55,1.27c7.12-2.41,7.11-6.01,15.87-1.88c1.22,0.58,3.42,1.58,4.34,2.62c1.38,1.54,0.67,3.11,2.1,4.48c2.71,2.6,6.73,3.68,9.55,6.75c2.3,2.5,5.05,4.62,7.35,7.26c5.55,6.37,4.51,13.03,3.74,20.87c-0.42,4.28,0.24,7.37,1.39,10.98c1.22,3.85,1.02,6.78,1.97,10.55c0.89,3.54,3.46,6.81,4.05,9.95c0.75,3.99-1.32,8.07-1.53,12.03c-0.21,4.2,0,8.48,0,12.69c-1.37-12.1,10.04-16.71,11.61-27.19c0.77-5.17,0.12-8.42-0.64-13.47c-0.78-5.21,0.8-10.8,0.06-16.01c-0.84-5.94-0.6-9.41-0.04-15.49c0.59-6.37-2.98-9.42-4.54-14.91c-2.33-8.26-6.48-14.71-9.48-22.62c-3.49-9.2-11.54-20.81-19.58-26.99c-3.65-2.81-8.5-5.13-12.51-7c-4.91-2.29-7.56-5.31-11.45-8.62c0.1,0.81-0.08,1.74,0,2.48c-1.26-1.01-3.39-4.65-4.9-5.01c-2.44-0.58-3.8,2.85-6.96,2.07c0.01-0.83-0.49-1.75-0.53-2.38c-1.64,1.45-3.93,2.11-5.55,0.2c-0.55,0.55-2.04,1.25-2.43,1.73c0.09-2.38,0.61-5.64,1.81-7.34c-3.38,3.74-6.7,5.32-10.77,7.87c-0.53-1.6-0.76-3.3-0.69-4.97c-3.15,3.34-4.13,5.67-8.43,8.35c-1.36,0.85-3.18,2.94-4.61,3.54c-3.12,1.31-2.45-0.11-5.42-0.45c-3.2-0.36-6.46-0.94-9.57,0.4c-1.26,0.54-2.4,1.58-3.52,2.1c-2.04,0.94-5.23,1.35-7.26,2.44c1.23-0.13,2.67,0.27,3.89,0.2c-2.86,2.62-7.77,3.91-11.45,5.37c-5.19,2.06-9.07,3.72-13.31,7.06c5.44-1.82,7.17,0.34,11.92,0.69c-2.97,1.05-6.26,1.57-9.16,2.89c-4.46,2.03-10.9,3.8-14.55,6.41c7.35-4.37,16.6-5.33,25.03-4.95c-6.53,6.12-18.08,6.13-24.88,12.39c3.06-1,6.15-2.93,9.25-3.38c-4.73,3.87-6.09,5.04-7.63,10.78c1.75-0.66,3.49-1.47,5.11-2.34c-4.15,4.35-8.32,9.64-11.37,14.89c-3.08,5.3,1.51,7.5-0.59,12.86c-0.75,1.92-3.13,3.36-3.41,5.72c-0.31,2.56,1.3,4.01,1.54,6.38c0.52,5.19-0.01,10.59,0.49,15.74c0.47,4.9,0.78,7.83,2.14,12.25c1.28,4.16,0.11,7.83,0.35,12.14c0.46,8.1,7.36,14.15,9.02,21.49c0.59,2.6,0.01,5.62,1.49,8.01"/><path fill="#ecca8b" d="M114.5,144c-4.02,1.14-7.2,2.83-10.6,4.62c1.09-4.27,5.84-5.72,9.46-6.01c-1.92,0.19-3.61-0.49-4.78-2.1c2.09,1.46,4.76,2.7,7.02,1.54c-1.69-4.08-7.71-7.77-12.04-6.94c2.83,1.09,4.95-0.58,7.46,0.56c2.35,1.07,3.56,4.03,5.52,5.31c0.56-2.94,2.38-6.15,2-9.29c1.68,2.32,2.64,5.06,4.39,7.23c0.11-2.14,0.05-4.34,0.1-6.48c1.24,0.13,2.71-0.16,3.96,0.49c-2.29-1.21-4.97-2.44-7.67-2.99c3.07-1.9,7.29-2.17,10.26-4.34c-3.44-1.6-11.01-0.95-14.92-0.35c2.24-2.45,6.75-3.66,7.4-7.56c-4.3-1.27-10.01,2.09-13.36,4.26c3.58-5.33,10.1-10.42,16.03-6.26c-0.69,0.53-1.22,1.92-1.63,2.28c3.01,1.45,6.3,2.41,9.57,3.14c-3.22,1.97-7.15,2.71-10.66,4.02c5.89,1.78,7.56,0.2,12.34,4.92c-0.95-0.9-2.19-1.2-3.3-1.67c0.38,0.85,0.16,2.32,0.41,3.16c-2.42,0.11-3.69,1.95-3.56,4.46c-0.45-1.73-1.51-3.48-3.18-4.37c-1.38,3-3.33,7.63-7.14,4.93c-0.39,6.1-1.04,4.69-4.59,8.94"/><path fill="#ecca8b" d="M102.5,164.5c-0.16-4.47,4.82-8.48,8.05-10.84c-0.75,2.16-2.53,3.63-3.57,5.73c-1.04,2.12-0.89,4.67-2,6.96c0.36-1.14,0.22-2.71,0.46-3.76c-5.36,0.06-1.66,10.5-1.06,13.38c0.85-2.25,1.45-4.98,2.02-6.95c-0.2,3.48-0.77,9.39-1.82,12.82c0.27-0.32,1.08-0.98,1.34-1.31c-0.34,2.04-1.1,4.15-0.92,6.33c0.13-1.77,1.02-3.38,2.41-4.31c0.18,2.28-8.8,13.16-1.98,13.02c-0.47,1.82-2.18,4.7-1.35,6.82c0.74,1.89,4.23,2.28,4.82,5.34c0.09-4.29-2.77-7.8-4.9-11.22c-0.47-0.76-2.84-4.01-2.9-4.68c-0.25-2.52,0.75-1.05,1.41-3.19c2.01-6.48-3.11-17.81,2.99-22.16"/><path fill="#ecca8b" d="M130,95c-1.73,2.75-5.08,4.56-5.5,7.9c-0.41-6.7,11.2-8.21,15.71-8.48c-1.88,2.36-6.51,5.21-9.24,7.19c3.5-2.19,17.4-7.61,20.33-3.66c-3.46-0.22-6.17-2.96-9.88-2.4c11.19-2.23,19.35-2.49,30.77-2.54c-6.83-0.28-12.05-4.11-18.83-1.52c-2.53,0.97-2.38,2.38-5.69,2.44c-3.04,0.06-8.53-1.13-11.68-1.77c-0.84,3.06-3.41,4.74-6.48,4.34"/><path fill="#ecca8b" d="M173.5,129c-1.35,1.64-7.51,3.59-9.76,4.14c-2.37,0.57-4.91,1.95-6.49-1.25c3.19-3.06,6.43-5.07,9.76-7.74c-4.03,2.42-5.12,5.13-10.12,5.35c-4.85,0.21-6.69-1.2-8.65-5.65c-0.16,0.37-0.33,2.17-0.34,2.55c-0.34-0.19-0.6-0.46-0.77-0.81c4.33-0.32,10.43,5.88,14.83,3.98c2.95-1.27,1.82-5.47,5.56-5.01c-1.4,0.82-2.8,2.23-3.3,3.4c1.33-0.55,3.43-0.49,4.78-0.99c-0.57,1.28-0.67,2.94-1.46,4.14c4.54-3.5,8.86-8.13,15.01-7.64c-8.16-4.49-21.8-10.93-31.22-6.8c10.22-0.49,19.34-5.3,28.41,2.31c-4.66-0.87-8.59-5.47-12.89-7.56c-4.64-2.26-9.47-3.48-14.5-4.58c8.07-0.9,17.95,3.51,25.44,6.65c3.39,1.42,10.4,2.58,12.7,5.4c-8.48-5.15-14.72-14.34-20.86-21.94c6.57,3.09,12.71,7.71,19.12,11.22c2.57,1.41,4.99,2.34,5.78,5.33c-3.79-6.78-10.84-8.86-15.81-13.97c7.54,1.84,14.65,11.13,18.38,17.48c5.89-9.72-10.7-15.99-17.19-19.19c6.24,2.82,32.2,13.74,23.5,24.14c-2.97-2.23-2.27-6.76-4.65-9.56c0.56,3.15,4.57,5.99,1.29,8.17c-3.97,2.65-11.11-5.8-14.59-6.85c0.95,2.77,4.15,3.98,5.7,6.73c-4.17,1.95-12.08-1.24-15.47-3.94c3.87,1.29,6.71,4.67,7.64,8.43c-3.04-1.34-5.97-1.71-9.33-1.29c0.81,1.3,0.69,2.86,0.92,4.26c-3.67,0.09-6.48-2.77-10.42-2.42"/><path fill="#ecca8b" d="M211.5,115.5c0.76-6.2-4.24-13.29-6.75-18.46c2.86,4.31,6.17,8.57,8.32,13.29c-0.69-2.51,0.1-4.46-0.18-6.72c-0.44-3.51-2.15-6.55-2.88-10.14c2.51,2.54,7.59,0.86,10.97,2.52c4.14,2.03,10.13,6.37,13.49,10.12c-2.96-2.87-6.05-6.69-10.06-8.04c4.51,2.61,7.21,4.22,10.2,8.06c1.89,2.42,3.6,5.08,5.98,6.92c-0.34-0.13-1.2-0.44-1.88-0.81c4.59,2.84,7.07,8.73,9.82,13.24c-6.9-7.33-9.83-13.54-18.65-17.87c-2.4-1.18-6.17-4.01-8.84-3.5c0.76,0.58,1.41,1.82,2.31,2.45c-4.75-0.14-4.11,6.75-5.46,9.92c-1.54-3.45,0.46-5.74,3.94-7.05c-2.09,1.96-5.13,4.61-4.68,7.56c5-1.3,6.78-5,12.81-2.88c-0.29,0.36-0.77,0.9-1.14,1.3c1.68,2.13,4.25,3.81,6.59,5.13c-2.97-5.02-12.46-13.41-14.75-3.11c0.71,0.01,1.57,0.2,2.26,0.14c0.53,3.84-3.17,1.67-4.9,0.91c-2.91-1.27-3.57-1.95-4.49-4.55c-0.91,1.39-1.7,0.6-3.04,1.06"/><path fill="#ecca8b" d="M240,128.5c1.41,1.43,3.95,4.02,6.03,5.58c-0.34-0.13-2.48-0.3-2.91-0.43c1.9,2.1,3.03,4.58,4.66,6.89c-0.69-0.52-1.53-0.99-2.18-1.56c3.6,3.54,7.63,8.48,7.72,13.5c-0.75-0.61-2.43-1.3-3.2-2.14c0.83,1.32,1.4,2.96,2.21,4.24c-0.67-0.44-1.86-0.69-2.32-0.93c0.03,3.83,2.38,7.2,2.98,10.86c0.35,2.16-0.27,4.23,0.55,6.15c-1.3-4.8,2.19-9.64,0.51-13.38c0.39,0.55,0.96,1.08,1.3,1.61c-0.72-2.98-2.49-5.56-2.29-8.64c0.55,0.79,1.83,1.92,2.28,2.79c-1.99-6-3.59-11.61-7.91-16c5.29,1.43,6.57,6,10.11,9.34c-2.22-10.57-9.56-11.66-15.14-19.14c0.56,3.7,4.87,6.12,6.92,9.21c-3.78-0.8-6.32-6.63-9.34-8.94"/></g><g class="facial-hair facial-hair-23"><path fill="#d8b677" fill-opacity="0.1" d="M151,266c0,0,26.5-14,58,0h1.5l-1.5-3.1l-11.3-4.1l-14.9-2.3h-9.6l-10.3,2l-8.8,3L151,265V266z"/></g><g class="nose nose-20"><path fill="#e5a790" d="M186.01,198.89c-0.17,1.53-0.26,3.95-0.49,5.46c-0.58,3.86,0.9,6.29,0.88,10.24 c-0.02,6.65,6.48,12.91,4.38,19.46c-5.2-0.71-6.56-12.33-6.95-16.23c-0.33-3.31-1.14-7.11-1.01-10.49 c0.11-2.91,1.43-6.24,2.54-9.75C185.35,197.6,186.24,196.78,186.01,198.89z"/><path fill="#bd7f68" d="M168.667,245.833c1.813-0.615,3.275-1.156,4.893,0.341c-0.929-0.034-1.796-0.176-2.724-0.174c-0.814,0.001-1.568,0.276-2.323,0.237c-0.093-0.426,0.335-0.781,0.654-0.654"/><path fill="#bd7f68" d="M187.566,245.909c0.198-0.012,4.207-1.517,3.951-0.287c-0.004,0.021-3.761,0.962-3.977,0.884c-0.025-0.281,0.069-0.56,0.26-0.785"/><path fill="none" stroke="#e0a28b" stroke-miterlimit="10" d="M162.75,239.999c-0.667,1.333-0.752,3.591-0.083,4.5c0.654,0.889,1.909,0.885,2.815,1.463c1.586,1.012,3.246,1.271,5.083,1.371c0.841,0.046,1.843-0.048,2.686,0.098c1.557,0.269,2.839,1.36,4.413,1.571c1.678,0.224,3.916,0.613,5.583,0.085c0.862-0.273,1.091-0.951,1.768-1.561c1.087-0.978,2.329-0.859,3.747-0.946c2.6-0.159,4.557-0.347,6.26-2.476c1.32-1.65,0.804-3.859-0.188-5.502"/></g><g class="mouth mouth-12"><path fill="#451715" d="M152.46,270.17c-2.79,0.96,3.26,4.86,3.97,5.26c1.37,0.76,2.81,1.17,4.33,1.58c1.08,0.3,2.09,0.74,3.21,0.92c1.03,0.16,1.58-0.17,2.49-0.17c1.36,0.01,2.41,0.77,3.87,0.78c1.18,0.01,1.72,0.36,2.74,0.5c1.06,0.14,1.71,0.01,2.79,0.25c1.14,0.26,2.4,0.27,3.51,0.22c1.77-0.09,3.55-0.1,5.09-0.76c2.3-0.99,5.21-0.27,7.72-0.99c1.52-0.43,3.28-1.05,4.95-1.23c1.16-0.12,2.39,0.09,3.57-0.12c1.12-0.2,1.45-1.09,2.64-1.66c0.76-0.36,1.9-0.78,2.53-1.31c3.84-3.28-8.58-7.73-10.54-8.28c-4.22-1.18-7.5,0.8-11.6,1c-2.41,0.12-4.74-0.01-7.13-0.13c-2.38-0.11-4.72-0.86-7.16-0.88c-3.05-0.01-5.46,1.67-8.36,2.15c-1.28,0.21-1.83,0.44-2.98,0.97C156.49,269.05,154.34,270.38,152.46,270.17"/><path fill="#D9A19D" d="M164.96,266.17c-3.59,1.64-2.22,5.06-1.5,7.99c0.29,1.17,0.72,2.88,1.78,3.61c0.75,0.52,2.05,0.65,2.99,0.78c2.04,0.28,3.88,1.07,5.9,1.46c3.74,0.72,6.09,0.46,9.57-0.87c1.98-0.75,3.87,0,5.88-0.37c2.59-0.47,5.36-1.98,7.13-3.72c1.42-1.39,2.09-2.19,2.02-4.24c-0.05-1.37-0.56-2.18-1.34-3.26c-2.13-2.93-7.09-1.8-10.29-1.63c-1.32,0.07-2.69-0.14-4,0c-0.69,0.08-1.41,0.4-2.12,0.47c-2.21,0.22-4.5-0.48-6.73-0.47c-2.19,0-4.2-0.37-6.4-0.38c-1.27,0-1.8,0.46-2.75,0.75"/><path fill="#E7C2AD" d="M157.08,269.67c0.01,1.51,0.24,2.37,1.12,3.62c0.72,1.02,1.2,2.38,2.23,3.14c0.76,0.57,2.08,0.65,3.03,0.28c1.04-0.4,1.89-1.93,2.84-2.2c0.89-0.25,2.74,1.37,3.63,1.85c1.71,0.93,2.55-0.16,4.3,0.09c1.63,0.23,2.52,1.43,4.24,0.97c1.33-0.35,2.18-0.78,3.47-0.53c1.46,0.28,2.96,0.96,4.5,0.78c1.29-0.15,2.34-0.93,3.69-1.15c1.21-0.19,2.52-0.14,3.69-0.38c0.71-0.14,1.45-0.76,2.15-0.85c1.83-0.23,3.17,0.99,5,0.07c0.73-0.37,3.03-1.29,3.41-1.93c0.67-1.14-0.26-3.06-1.06-3.78c-1.22-1.08-2-0.93-3.33-0.97c-1.14-0.03-2.29-1.17-3.39-0.86c-0.97,0.27-0.98,1.77-2.03,1.24c-0.62-0.31-0.94-1.83-1.71-2.13c-0.94-0.37-1.51,0.26-2.25,0.78c-0.39,0.27-0.87,0.74-1.28,0.94c-0.97,0.47-0.52,0.19-1.38-0.06c-1.44-0.43-2.62-1.03-4.23-1.03c-0.69,0-1.44-0.08-2.09,0.16c-0.52,0.19-0.88,0.75-1.41,0.86c-0.81,0.17-2.33-0.77-3.09-1.04c-0.9-0.32-1.69-0.4-2.77-0.34c-2.41,0.12-0.78,1.2-1.89,2.27c-1.1-0.71-2.06-1.43-3.49-1.65c-1.71-0.26-1.7,1.05-2.98,1.63c-1.35,0.61-2.26-0.28-3.42-0.63c-2.13-0.65-3.81,0.05-5.49,1"/><path fill="#db9d86" fill-opacity="1" d="M151.21,272.29c1.78,1.47,3.2,3.17,4.89,4.78c1.32,1.25,3.12,2.24,4.69,3.09c1.33,0.72,2.81,2.01,4.29,2.51c2.63,0.9,6.31,1.11,9.14,0.87s5.71,0.15,8.61,0.35c1.66,0.11,3.2-0.54,4.88-0.47c1.04,0.04,2,0.19,2.99-0.01c2.57-0.51,4.43-1.87,6.47-3.4c0.9-0.68,1.93-1.53,2.91-2.09c1.1-0.62,2.11-0.74,3.09-1.66c1.09-1.02,4.24-3.09,4.02-4.67c-0.78-0.1-1.05,0.64-1.6,1.07c-0.73,0.58-1.48,0.81-2.34,1.13c-1.04,0.39-1.98,0.85-3.15,0.97c-1.38,0.14-2.83-0.2-4.12,0.31c-1.43,0.56-2.34,1.22-3.95,1.44c-2.94,0.41-6.01,0.1-8.96,0.52c-1.2,0.17-2.41,0.51-3.72,0.38c-1.08-0.11-2.11-0.61-3.15-0.76c-1.84-0.27-3.79,0.01-5.63-0.12c-1.49-0.1-2.88-0.65-4.36-0.9c-1.26-0.22-2.37-0.16-3.63-0.1c-4.03,0.2-7.7-2.85-11.12-4.46c0.78,0.6,0.03,1.25-0.01,1.96"/><path fill="#e5a790" d="M150.96,270.54c1.17,0.11,2.08-1.17,3.12-1.66c1.39-0.65,2.94-0.37,4.23-1.1c1.13-0.63,1.77-1.31,3.05-1.72c1.5-0.48,2.38-1.61,3.79-2.03c0.86-0.25,1.83-0.13,2.69-0.37c0.87-0.24,1.74-0.78,2.68-0.99c1.59-0.37,2.93,0.04,4.44,0.26c1.72,0.25,3.4-0.1,4.84,0.87c0.77,0.52,0.43,0.81,1.54,0.61c0.66-0.12,1.65-0.71,2.26-1.04c2.35-1.26,5.58-1.03,8.28-0.71c1.17,0.14,1.93,0.54,2.97,0.88c1.22,0.4,2.51,0.35,3.57,1.02c1.8,1.13,3.34,2.9,5.12,4.09c1.19,0.79,4.56,2.08,5.02,3.36c-1.6,0.11-2.21,0.16-3.51-0.6c-1.16-0.67-2.36-1.33-3.58-1.98c-2.48-1.33-5.71-1.52-8.39-2.17c-1.46-0.35-2.95-0.59-4.52-0.61c-1.53-0.02-2.18,1.02-3.49,1.5c-0.77,0.28-1.65,0.39-2.38,0.79c-0.51,0.28-0.85,0.71-1.37,0.93c-1.49,0.63-1.92-0.65-3.24-1.07c-0.86-0.27-2.02-0.24-2.93-0.42c-1.53-0.31-3.04-0.18-4.59-0.25c-1.42-0.07-2.3-0.06-3.6,0.41c-1.18,0.43-2.51,0.88-3.73,1.22c-2.42,0.66-5.04,0.97-7.5,1.38c-1.05,0.17-2.26-0.23-3.28,0.02c-1.25,0.31-1.07,0.94-1.37-0.74"/></g></svg>