<svg id="s5cd114a46b5ed" class="face" xmlns="http://www.w3.org/2000/svg" xmlns:xlink="http://www.w3.org/1999/xlink" x="0px" y="0px" width="357px" height="358px" viewBox="0 0 357 358"><path fill="#875647" d="M268.5,189.04c-1.41-1.92-2.86-2.74-4.22-2.91c-3.96-0.47-7.28,4.62-7.28,4.62c2.38-21.04,0-32.96,0-32.96c-16.83-65.56-65.84-69.37-76.8-69.39c-0.71,0.02-1.44,0.04-2.2,0.06c-54,1.42-71.5,44.58-71.5,44.58c-9,12.5-4,61.55-4,61.55c-21-12.95-1.5,45.45-1.5,45.45c5,13.5,8,1,8,1c2.88,12.67,6.63,23.41,10.9,32.53c0.85,44.99,1.74,68.73,1.44,83.43c23.33,0,116.79,0,123.83,0l1.52-85.32c6.58-17.33,7.31-32.14,7.31-32.14c2.5,3,6.5,1.5,6.5,1.5C272.75,234.79,268.5,189.04,268.5,189.04z M255.96,199.92C255.93,200.18,255.94,200.15,255.96,199.92L255.96,199.92z M256.22,197.67c0.03-0.3,0.07-0.64,0.11-1.01C256.29,197.01,256.25,197.35,256.22,197.67z M256.82,192.32c0.06-0.55,0.11-0.99,0.14-1.26C256.91,191.5,256.87,191.92,256.82,192.32z M265.33,190.26c-0.04-0.16-0.09-0.37-0.16-0.62c-0.13-0.5-0.31-1.2-0.54-2.1c0.22,0.86,0.4,1.58,0.54,2.1C265.24,189.9,265.29,190.1,265.33,190.26C265.47,190.79,265.48,190.83,265.33,190.26z"/><path fill="#825142" d="M125.25,227.25c4.5-6.5,6.97-8.84,12.65-10c4.87-0.99,13.28-2.45,17.35-5.75c9.63-7.79,13.17-20.35,5.59-28.43c-4.32-4.6-7.03-7.3-13.05-8.81c-4.83-1.22-11.04-2.16-15.05-6.1c-7.84-7.69-11.29-20.73-10.82-31.2c0.41-8.95,9.17-18.79,15.15-24.83c7.04-7.12,15.71-14.12,23.72-20.42c-40.38,8.84-54.04,42.51-54.04,42.51c-9,12.5-4,61.55-4,61.55c-21-12.95-1.5,45.45-1.5,45.45c5,13.5,8,1,8,1c2.89,12.7,6.64,23.46,10.93,32.59c-0.78,38.87,1.32,70.54,1.15,83.21c7.79,0.1,53.6-30.51,61.45-32.32C179.16,318.81,113.75,264.75,125.25,227.25z"/><g class="eyes eyes-2"><path fill="#ffffff" fill-opacity="0.7" d="M126.5,210.5c2.81,0.68,5.07,2.41,7.83,2.96c2.77,0.55,5.03,0.2,7.83,0.2c5.21,0.01,11.24-0.49,13.94-5.5c-2.65-1.28-5.08-2.56-8.09-3.18c-2.91-0.6-4.69-1.94-8.1-1.62c-2.42,0.23-5.64,1.2-7.7,2.33c-1.03,0.57-2.08,1.42-3.09,2.09c-0.77,0.51-3.44,1.54-1.95,2.54"/><path fill="#ffffff" fill-opacity="0.7" d="M198.33,208.67c1.55,0.8,2.67,2.38,4.17,3.34c1.33,0.85,2.97,1.33,4.5,1.83c2.69,0.87,5.48,0.66,8.33,0.66c2.91,0,5.66,0.02,8.38-0.82c1.53-0.47,5.29-1.01,5.94-2.68c-1.28-0.62-2.55-0.95-3.78-1.67c-1.18-0.69-2.16-1.7-3.37-2.5c-2.64-1.76-5.22-2.03-8.38-2.32c-2.9-0.27-6.6-1.19-9.58-0.47c-1.7,0.41-6.71,3.26-5.54,5.14"/><path fill="#1e2420" d="M134.5,205.5c-0.72,2.94,0.68,5.42,2.96,7.2c2.33,1.82,5.24,1.01,7.74-0.66c1.73-1.16,4.89-4.57,2.92-6.83c-1.55-1.78-6.41-1.49-8.62-1.55c-1.11-0.03-6.91,1.76-5.5,3.5"/><path fill="#1e2420" d="M208.17,205.17c-1.87,2.2-3.55,3.97-1.89,6.94c2.03,1.46,6.15,2.68,8.9,1.61c0.82-0.32,2.23-1.44,2.78-2.2c0.63-0.88,1.73-3.62,1.31-4.63c-1.05-2.52-6.23-2.38-8.44-2.38c-3.18,0-5.8,1.74-5.33,5.3c0.08,0.63,0.15,1.12,0.67,1.54"/></g><g class="eyebrows eyebrows-12"><path fill="#0e0e0c" fill-opacity="1" d="M116.67,186.33c1.18-2.47,4.08-5.08,6.17-6.8c2.93-2.42,6.2-4.23,10.16-4.04c2.26,0.11,4.05,0.5,6.13,1.35c2.48,1.01,4.97,1,7.58,1.33c2.81,0.36,5.34,0.13,8.23-0.01c2.17-0.1,4.17-0.19,5.45,1.8c2.78,4.32-6.24,3.67-8.37,3.36c-4.1-0.6-8.21-0.8-12.35-1.17c-3.58-0.32-6.49-1.23-9.75,0.63c-2.86,1.63-5.96,2.54-8.92,3.87c-1.18,0.53-2.56,1.15-3.96,0.64C116.81,187.01,116.69,186.71,116.67,186.33"/><path fill="#0e0e0c" fill-opacity="1" d="M202.5,181.83c2.63-0.31,4.95-1.63,7.5-1.99c1.88-0.26,3.86-0.1,5.73-0.38c3.38-0.5,6.25-2.84,9.56-3.33c1.77-0.26,4.01-0.24,5.84,0.03c1.26,0.19,2.98,0.29,4.04,0.84c0.56,0.29,1.01,1.05,1.53,1.45c2.27,1.75,4.52,3.66,6.3,6.05c1.2,1.61,2.79,4.26,2.47,6.47c-3.74,0.2-5.04-1.75-7.85-3.76c-3.49-2.5-5.61-4.04-10.12-4.05c-4.83,0-9.08-0.25-13.8,0.54c-2.9,0.48-6.37,1.52-9.24,0.67c-1.5-0.45-3.35-3.17-0.63-2.87"/></g><g class="chin chin-7"><path display="inline" fill="none" stroke="#825142" stroke-miterlimit="10" d="M146,311.67c2.08,1.12,4.01,5.38,5.67,7.35 c2.23,2.66,4.46,5.73,7.34,7.74c7,4.89,18.17,7.28,26.56,7.91c5.8,0.44,14.16-3.86,18.4-7.64c3.1-2.77,6.04-5.84,9.02-8.71 c2.25-2.17,5.93-4.62,6.35-7.98"/></g><g class="hair hair-21"><path fill="#0e0e0c" fill-opacity="0.2" d="M255.2,200.6c0.6-4.5,1.4-8.9,2.3-13.3c1.6-18.3-0.4-28.5-0.4-28.5c-16.8-65.6-65.8-69.4-76.8-69.4c-0.7,0-1.4,0-2.2,0.1c-54,1.4-71.5,44.6-71.5,44.6c-9,12.5-4,61.5-4,61.5c-1.2-0.7-2.3-1.2-3.2-1.5c0.2,0.4,0.4,0.8,0.6,1.3c1.8,4.4,4.3,11.7,9,13.6c0.3-5.6,0.7-11.4,0.7-16.9c0.1-6-2.6-11.2-2.7-17.4c-0.1-6,3.4-10.9,3.7-16.6c0.2-4.5-2.9-12.4,0.3-16.3c0.3-0.3,0.4-0.4,0.7-0.7l0.3-1c6.8-2,14.6-1.8,21.2-4.7c3.4-1.5,5.1-3.8,8.8-4.4c4.5-0.7,9.1-1,13.7-1c5.2,0,9.9,1.6,15.2,1.7c10.6,0.1,21.2-0.8,31.7-1c4.3-0.1,8.1,1.1,12.1,1.9c3.3,0.7,6.9,0.6,10,1.7c5.2,1.9,11.4,3.7,16.9,6.1c1.2,6.7,1.3,13.9,2.3,20.7c0.3,1.8,0.4,3.5,1.2,5.2c1,2.2,4.1,3.8,4.9,6.1c0.7,1.9-0.1,5,0.4,7.1c0.8,3.3,2.3,6.3,3,9.5c0.8,3.6,1.9,7.8,1,11.7C254.6,200.7,255.1,200.6,255.2,200.6z"/></g><g class="nose nose-24"><path fill="#7d4c3d" d="M186.01,198.89c-0.17,1.53-0.26,3.95-0.49,5.46c-0.58,3.86,0.9,6.29,0.88,10.24 c-0.02,6.65,6.48,12.91,4.38,19.46c-5.2-0.71-6.56-12.33-6.95-16.23c-0.33-3.31-1.14-7.11-1.01-10.49 c0.11-2.91,1.43-6.24,2.54-9.75C185.35,197.6,186.24,196.78,186.01,198.89z"/><path fill="#552415" d="M159.048,241.906c2.677-9.923,11.129-2.401,15.091,1.124l0,0c-4.272-0.252-11.718,5.19-14.313-0.669"/><path fill="#552415" d="M189.174,238.899c2.966-0.674,11.556-3.678,9.13,1.972c-0.661,1.541-1.895,1.863-3.114,2.435 c-3.407,1.701-7.722,0.7-10.584-1.136c1.924-1.364,3.819-3.228,6.285-3.872"/><path fill="none" stroke="#784738" stroke-miterlimit="10" d="M161.5,227.25c-4.225,0.279-9.186,9.358-7.269,13.256 c0.833,1.693,3.121,2.132,4.456,3.307c1.798,1.582,1.419,2.131,4.063,2.424c4.287,0.476,8.426-0.528,12.201,1.312 c5.202,2.535,6.936-1.541,11.799-2.048c3.653-0.381,6.734-0.433,10.5-1.251"/></g><g class="mouth mouth-11"><path fill="#CCC2BB" d="M162.75,272.46c-0.18,0.88-1.2,0.82-1.56,1.61c-0.44,0.97,0.19,2.48,0.78,3.22c2.33,2.95,7.68,2.21,10.97,2.97c6.78,1.57,13.41,1.12,20.21-0.06c1.84-0.32,3.4-1.1,5.21-1.34c1.14-0.15,2.26-0.34,3.44-0.38c2.48-0.08,6.22,0.28,5.52-3.49c-1.94-2.2-6.04-2.83-8.94-3.69c-2.25-0.67-4.55-1.27-6.81-1.78c-4.38-0.99-7.48-0.61-11.72,0c-3.6,0.52-6.77,1.24-10.43,1.14c-1.94-0.05-7.2-0.65-7.01,2.67"/><path fill="#a7696a" fill-opacity="0.9" d="M162.93,276.62c-2.05,0.15-4.05-1.29-6.18-1.28c-0.8,0-3.32-0.11-3.79,0.65c-0.91,1.47,2.52,4.34,3.47,5.15c1.13,0.96,2.19,2.05,3.48,2.89c1.44,0.94,2.89,1.12,4.43,1.84c2.94,1.37,5.78,1.73,9.13,2.09c3.74,0.4,7.92,1.39,11.67,0.6c2.99-0.63,6.12-0.44,9.09-1.39c1.41-0.45,2.57-1.4,4.01-1.79c1.22-0.33,2.59-0.28,3.86-0.67c2.83-0.88,6.17-4.05,7.67-6.6c0.63-1.07,1.06-2.65-0.05-3.41c-1.3-0.88-2.35,0.47-3.33,1.23c-1.69,1.29-2.65,1.98-4.85,1.96c-2.39-0.03-4.64-0.15-6.98,0.01c-5.45,0.38-11,0.17-16.31-0.41c-2.6-0.28-4.92-0.16-7.48-0.06c-1.46,0.06-2.76,0.2-4.2,0.18c-1.55-0.02-2.8-0.61-4.26-0.57"/><path fill="#7d4c3d" d="M153.83,275.16c3.65-1.5,5.79-4.28,8.92-6.44c1.43-0.99,2.63-2.38,4.13-3.22c1.32-0.75,2.76-2.07,4.18-2.56c3.9-1.33,8.62-0.08,12.59-0.42c1.7-0.15,4.37-0.27,5.91,0.52c1.74,0.88,2.84,1.61,4.76,2.09c6.25,1.54,9.66,8.05,15.68,9.61c-0.42,3.25-5.83,1.17-7.78,1.44c-1.68,0.23-3.37,0.53-5.17,0.54c-1.68,0.01-2.43-1.05-3.76-1.92c-1.04-0.68-2.21-1.73-3.46-1.96c-1.5-0.27-3.25,0.24-4.76,0.29c-1.61,0.06-3.21-0.17-4.79-0.12c-2.17,0.06-4.64-0.23-6.75,0.13c-1.21,0.2-2.58,0.98-3.83,1.28c-1.71,0.42-2.68,1.32-4.35,1.96c-0.93,0.35-1.77,0.11-2.72,0.25c-0.97,0.15-1.96,0.74-3.01,0.83c-2.89,0.24-4.55-0.75-7.17-1.52c0.51-0.87,1.56-0.32,2.41-0.56"/></g></svg>