<svg id="s539e784f1d224" class="face" xmlns="http://www.w3.org/2000/svg" xmlns:xlink="http://www.w3.org/1999/xlink" x="0px" y="0px" width="357px" height="358px" viewBox="0 0 357 358"><path fill="#5a3022" d="M268.5,189.04c-1.41-1.92-2.86-2.74-4.22-2.91c-3.96-0.47-7.28,4.62-7.28,4.62c2.38-21.04,0-32.96,0-32.96c-16.83-65.56-65.84-69.37-76.8-69.39c-0.71,0.02-1.44,0.04-2.2,0.06c-54,1.42-71.5,44.58-71.5,44.58c-9,12.5-4,61.55-4,61.55c-21-12.95-1.5,45.45-1.5,45.45c5,13.5,8,1,8,1c2.88,12.67,6.63,23.41,10.9,32.53c0.85,44.99,1.74,68.73,1.44,83.43c23.33,0,116.79,0,123.83,0l1.52-85.32c6.58-17.33,7.31-32.14,7.31-32.14c2.5,3,6.5,1.5,6.5,1.5C272.75,234.79,268.5,189.04,268.5,189.04z M255.96,199.92C255.93,200.18,255.94,200.15,255.96,199.92L255.96,199.92z M256.22,197.67c0.03-0.3,0.07-0.64,0.11-1.01C256.29,197.01,256.25,197.35,256.22,197.67z M256.82,192.32c0.06-0.55,0.11-0.99,0.14-1.26C256.91,191.5,256.87,191.92,256.82,192.32z M265.33,190.26c-0.04-0.16-0.09-0.37-0.16-0.62c-0.13-0.5-0.31-1.2-0.54-2.1c0.22,0.86,0.4,1.58,0.54,2.1C265.24,189.9,265.29,190.1,265.33,190.26C265.47,190.79,265.48,190.83,265.33,190.26z"/><path fill="#552b1d" d="M125.25,227.25c4.5-6.5,6.97-8.84,12.65-10c4.87-0.99,13.28-2.45,17.35-5.75c9.63-7.79,13.17-20.35,5.59-28.43c-4.32-4.6-7.03-7.3-13.05-8.81c-4.83-1.22-11.04-2.16-15.05-6.1c-7.84-7.69-11.29-20.73-10.82-31.2c0.41-8.95,9.17-18.79,15.15-24.83c7.04-7.12,15.71-14.12,23.72-20.42c-40.38,8.84-54.04,42.51-54.04,42.51c-9,12.5-4,61.55-4,61.55c-21-12.95-1.5,45.45-1.5,45.45c5,13.5,8,1,8,1c2.89,12.7,6.64,23.46,10.93,32.59c-0.78,38.87,1.32,70.54,1.15,83.21c7.79,0.1,53.6-30.51,61.45-32.32C179.16,318.81,113.75,264.75,125.25,227.25z"/><g class="eyes eyes-8"><path fill="#ffffff" fill-opacity="0.7" d="M125.65,196.01c5.16-0.65,8.73-4.66,14.5-5c5.9-0.34,9.51,2.28,12.05,7.5c-2.21,3.43-23.14,0.68-26.55-2"/><path fill="#ffffff" fill-opacity="0.7" d="M206.65,196.51c5.14-0.88,8.39-4.48,14.5-4c3.63,0.28,13.38,2.66,11.41,7.93c-8.8,2.55-17.06,2.17-24.91-3.43"/><path fill="#332a19" d="M138.65,193.18c-4.59,4.13,2.7,8.07,6.68,5.08c5.02-3.77-3.68-7.24-7.02-5.08"/><path fill="#332a19" d="M217.98,193.51c-3.32,0.64-2.99,6.32,0,7.6c3.16,1.35,7.51-1.13,7.27-4.54c-2.91-1.7-4.18-2.46-7.61-3.06"/></g><g class="eyebrows eyebrows-22"><path fill="#141615" fill-opacity="0.6" d="M123.3,197.5c0,0,17.1-12.1,40.4-5.6c0.3,0.1,0.6,0.2,0.9,0.2c23.8,7.1-21.5-11.2-28.5-10.9C136,181.2,123.3,192.3,123.3,197.5z"/><path fill="#141615" fill-opacity="0.6" d="M197.7,192.1c0,0,25-4.4,37.3,3.6c0,0-2-9-11.7-14.5C223.3,181.2,207.9,182.8,197.7,192.1z"/></g><g class="chin chin-1"><path display="inline" fill="none" stroke="#552b1d" stroke-miterlimit="10" d="M160.03,323.62c1.88,4.33,10.37,5.57,14.49,7.45 c5.11,2.33,10.76,2.84,16.3,1.58c2.46-0.56,5.32-0.69,7.7-1.4c2.79-0.83,17.91-6.92,18.65-12.54c0.05-0.4,0.08-0.94,0.03-1.33"/></g><g class="hair hair-16"><path fill="#141615" fill-opacity="0.4" d="M257.1,158.8c-16.8-65.6-65.8-69.4-76.8-69.4c-0.7,0-1.4,0-2.2,0.1c-54,1.4-71.5,44.6-71.5,44.6c-7.5,10.4-5.3,46.2-4.3,57.9l2,2.6c0,0,4.2-29.8,23-44.4v-15.7c0,0,38.7-30.3,112.6,0v18.5c0,0,7.1-1.7,15.4,35.4l2.4-1.6C259.1,168.8,257.1,158.8,257.1,158.8z"/></g><g class="nose nose-10"><path fill="#502618" d="M186.01,198.89c-0.17,1.53-0.26,3.95-0.49,5.46c-0.58,3.86,0.9,6.29,0.88,10.24 c-0.02,6.65,6.48,12.91,4.38,19.46c-5.2-0.71-6.56-12.33-6.95-16.23c-0.33-3.31-1.14-7.11-1.01-10.49 c0.11-2.91,1.43-6.24,2.54-9.75C185.35,197.6,186.24,196.78,186.01,198.89z"/><path fill="#280000" d="M171.75,238.75c-2.31-0.23-2.82,2.22-1.75,3.75c1.06,1.52,2.65,2.54,4.63,1.75c5.37-2.13-2.3-8.14-4.63-5.25"/><path fill="#280000" d="M188.25,238.88c-1.1-0.12-1.74,0.48-2.38,1.22c-0.95,1.11-0.87,1.46,0,2.52c0.62,0.76,1.7,2.12,2.62,2.48c0.87,0.34,2.53-0.15,3.38-0.48c1.85-0.7,3.13-2.9,1.65-4.65c-1.11-1.31-3.66-1.82-5.28-1.22c-0.18,0.07-0.13,0.05-0.25,0.12"/><path fill="none" stroke="#4b2113" stroke-miterlimit="10" d="M167.63,232.25c-1.9,1.11-4.09,2.63-5.16,4.74c-0.86,1.69-0.22,4.64,0.16,6.38c0.45,2.09,2.24,4.18,4.22,5c1.03,0.42,2.72,0.48,3.89,0.5c1.72,0.03,2.24-0.82,3.63-1.26c1.9-0.59,4.9,0.33,6.76,0.62c3.3,0.52,6.46-0.66,9.85-0.37c1.42,0.12,2.4,0.58,3.68,0.03c0.81-0.35,1.47-0.88,2.21-1.4c1.99-1.42,2.59-2.57,3.4-4.75c0.71-1.91,0.58-2.59-0.78-4.29c-1.06-1.33-2.17-2.66-3.49-3.7c-1.22-0.96-2.55-1.87-3.71-3c-0.98-0.95-3.03-2.44-3.54-3.63"/></g><g class="mouth mouth-4"><path fill="#DA7771" d="M157.67,276.38c1.49,3.44,4.03,3.59,7.14,4.87c2.15,0.89,4.35,1.38,6.39,2.5c2.68,1.47,5.37,3.07,8.43,3.75c1.94,0.44,5.11,0.85,6.82-0.11c1.46-0.82,3.01-1.7,4.45-2.63c2.56-1.66,4.47-4.48,6.89-6.29c2.75-2.05,6.88-2.2,8.16-5.97c1.85-5.44-8.06-2.5-10.13-4.02c-0.17-1.73-4.4-1.63-5.62-1.72c-2.26-0.17-4.53-0.65-6.8-0.64c-1.87,0.01-3.45,0.66-5.25,0.98c-3.47,0.62-7.12-0.04-10.53,0.92c-2.26,0.64-4.52,1.38-6.48,2.56c-1.46,0.89-5.88,1.61-6.45,3.44c-0.49,1.55,2.95,3.77,4.22,4.35"/><path fill="#F6F1D6" d="M153.67,271.63c-0.26,1.15,1.9,3.61,2.53,4.88c0.88,1.76,4.53,1.7,6.22,1.62c2.79-0.13,5.81-0.2,8.46,0.34c1.52,0.31,3.14,0.19,4.67,0.28c1.57,0.09,3.1,0.61,4.74,0.63c1.71,0.01,3.41,0.01,5.12,0c0.68-0.01,1.4,0.1,2.02-0.24c0.55-0.3,0.78-0.88,1.36-1.13c1.41-0.6,3.71-0.38,5.25-0.51c1.99-0.16,3.13,0.12,4.88-0.96c1.38-0.85,2.74-1.21,3.87-2.44c0.94-1.02,3.16-1.49,3.88-2.6c-3.06-1.57-7.86-2.79-10.9-4.35c-2.31-1.18-4.91-1.71-7.48-1.77c-4.71-0.11-10.18-0.37-14.68,1.09c-3.74,1.22-7.73,0.41-11.06,2.66c-1.88,1.28-3.91,2.47-5.76,3.74"/><path fill="#502618" d="M152.79,271.75c1.23-1.6,2.51-3.38,4.24-4.52c1.68-1.1,3.78-1.36,5.5-2.38c1.41-0.84,2.44-1.87,4.15-2.22c1.63-0.33,3.53-0.41,5.24-0.5c0.91-0.05,1.78-0.07,2.68-0.16c0.97-0.1,2.38-0.66,3.31-0.47c1.19,0.25,1.82,1.64,3,2.12c1.72,0.71,2.43-0.92,4.02-1.47c1.71-0.59,3.83-0.44,5.6-0.27c2.32,0.23,4.56-0.11,6.9,0.53c1.86,0.51,3.91,1.37,5.62,2.35c1.12,0.65,2.29,1.42,3.48,2.08c0.77,0.43,2.38,1.25,2.73,2.01c-1.69,1.52-3.92,3.55-6.33,3.4c-2.35-0.15-4.34-2.7-6.53-3.6c-2.56-1.05-5.73-0.78-8.5-0.78c-1.71,0-3.42-0.19-5,0.37c-1.37,0.48-2.48,0.74-4.02,0.88c-1.78,0.16-3.53,0.48-5.38,0.38c-1.51-0.08-2.77-0.68-4.23-0.75c-1.27-0.06-2.5-0.2-3.5,0.5c-0.9,0.63-1.78,1.65-2.63,2.38c-2.1,1.82-3.72,2.88-6.63,2.87c-1.33,0-2.32,0.08-3.37-0.78c-1.07-0.87-1.05-1.95,0.13-2.85"/><path fill="#461c0e" fill-opacity="1" d="M153.42,273.63c0.61,3.59,3.26,6.19,5.07,9.16c1.33,2.2,3.14,4.55,5.15,6.25c1.13,0.95,2.42,1.93,3.65,2.75c1.78,1.17,4.33,1.8,6.36,2.57c1.66,0.63,3.25,0.77,5.02,0.53c1.01-0.13,2.17-0.39,3.12-0.48c1.88-0.18,3.68,0.42,5.51,0.35c1.42-0.06,2.51-0.67,3.76-1.25c1.83-0.85,3.96-1.29,5.7-2.38c2.64-1.67,4.81-4.54,6.3-7.25c1.48-2.68,3.77-4.55,4.82-7.57c0.36-1.05,2.23-6.83,0.66-7.53c-0.27-0.12-2.98,2.84-3.6,3.38c-1.5,1.3-3.16,1.81-4.88,2.74c-2.93,1.6-4.67,4.2-6.87,6.6c-0.86,0.94-1.69,1.79-2.82,2.38c-1.26,0.65-2.62,0.58-3.99,0.9c-3.01,0.7-7.41,1.11-10.41,0.1c-1.03-0.35-1.96-0.87-2.99-1.28c-1.2-0.48-2.42-0.62-3.55-1.22c-1.81-0.96-3.52-2.25-5.51-2.88c-2.17-0.69-4.08-1.03-5.97-2.4c-1.19-0.86-2.69-2.29-3.4-3.58c-0.24-0.04-1.15-0.32-1.36-0.16c-0.58,0.43-0.14,1.15,0.38,1.39"/></g></svg>