<svg id="s539e784e3006c" class="face" xmlns="http://www.w3.org/2000/svg" xmlns:xlink="http://www.w3.org/1999/xlink" x="0px" y="0px" width="357px" height="358px" viewBox="0 0 357 358"><path fill="#b28969" d="M268.5,189.04c-1.41-1.92-2.86-2.74-4.22-2.91c-3.96-0.47-7.28,4.62-7.28,4.62c2.38-21.04,0-32.96,0-32.96c-16.83-65.56-65.84-69.37-76.8-69.39c-0.71,0.02-1.44,0.04-2.2,0.06c-54,1.42-71.5,44.58-71.5,44.58c-9,12.5-4,61.55-4,61.55c-21-12.95-1.5,45.45-1.5,45.45c5,13.5,8,1,8,1c2.88,12.67,6.63,23.41,10.9,32.53c0.85,44.99,1.74,68.73,1.44,83.43c23.33,0,116.79,0,123.83,0l1.52-85.32c6.58-17.33,7.31-32.14,7.31-32.14c2.5,3,6.5,1.5,6.5,1.5C272.75,234.79,268.5,189.04,268.5,189.04z M255.96,199.92C255.93,200.18,255.94,200.15,255.96,199.92L255.96,199.92z M256.22,197.67c0.03-0.3,0.07-0.64,0.11-1.01C256.29,197.01,256.25,197.35,256.22,197.67z M256.82,192.32c0.06-0.55,0.11-0.99,0.14-1.26C256.91,191.5,256.87,191.92,256.82,192.32z M265.33,190.26c-0.04-0.16-0.09-0.37-0.16-0.62c-0.13-0.5-0.31-1.2-0.54-2.1c0.22,0.86,0.4,1.58,0.54,2.1C265.24,189.9,265.29,190.1,265.33,190.26C265.47,190.79,265.48,190.83,265.33,190.26z"/><path fill="#ad8464" d="M125.25,227.25c4.5-6.5,6.97-8.84,12.65-10c4.87-0.99,13.28-2.45,17.35-5.75c9.63-7.79,13.17-20.35,5.59-28.43c-4.32-4.6-7.03-7.3-13.05-8.81c-4.83-1.22-11.04-2.16-15.05-6.1c-7.84-7.69-11.29-20.73-10.82-31.2c0.41-8.95,9.17-18.79,15.15-24.83c7.04-7.12,15.71-14.12,23.72-20.42c-40.38,8.84-54.04,42.51-54.04,42.51c-9,12.5-4,61.55-4,61.55c-21-12.95-1.5,45.45-1.5,45.45c5,13.5,8,1,8,1c2.89,12.7,6.64,23.46,10.93,32.59c-0.78,38.87,1.32,70.54,1.15,83.21c7.79,0.1,53.6-30.51,61.45-32.32C179.16,318.81,113.75,264.75,125.25,227.25z"/><g class="eyes eyes-6"><path fill="#ffffff" fill-opacity="0.7" d="M203.17,207.16c2.26-1.32,3.9-3.13,6.37-4.13c2.36-0.96,4.83-1.67,7.3-2.04c2.99-0.45,5.92,0.27,8.49,1.5c1.11,0.53,2.12,1.41,3.34,1.79c1.15,0.35,2.85,1.35,4,1.64c1.99,2.42-5.1,2.57-6.34,3.06c-2.49,0.98-4.18,1.67-7,1.67c-1.37,0-2.96,0.34-4.16,0.35c-1.65,0-3.39-0.51-5.18-0.51c-2.64,0-5.74-0.24-6.66-3.17"/><path fill="#ffffff" fill-opacity="0.7" d="M134,208.33c1.94-1.42,4.2-2.39,6.2-3.8c1.97-1.38,4.58-2.43,6.96-2.54c2.78-0.12,6.41,0.93,8.84,2.16c2.15,1.09,3.93,2.95,6.27,3.87c-1.22,1.55-4.52,1.62-6.27,1.81c-2.77,0.3-5.36,0.63-8.18,0.66c-2.6,0.03-5.45,0.78-7.95,0.12c-1.21-0.32-1.78-1.06-2.84-1.67c-0.92-0.53-2.04-0.59-3.04-0.78"/><path fill="#402a13" d="M143.5,203.33c-2.54,0.33-2.14,4.8-0.38,6.04c1.58,1.12,5.79,1.1,7.7,0.63c2.84-0.71,4.17-2.73,3.19-5.67c-0.91-2.73-5.29-2.73-7.67-2.49c-1.86,0.19-3.53,1.15-4.67,2.67"/><path fill="#402a13" d="M212.33,202c-2.94,2.29-1.06,5.73,1.51,7.12c2.17,1.18,4.83,1.46,7.15,0.38c2.16-1.01,3.94-3.53,3.35-6.17c-0.6-2.66-4.05-2.37-6.16-2.15c-1.91,0.2-4.35-0.35-5.68,0.99"/></g><g class="eyebrows eyebrows-4"><path fill="#19120c" fill-opacity="0.7" d="M114.33,197.17c0.01-0.65,1.08-2.04,1.53-2.97c1.97-0.83,3.34-3.96,5.09-5.4c1.89-1.55,4.14-2.98,6.34-4.17c2.99-1.61,5.6-1.33,9.03-1.63c2.21-0.19,4.22-0.67,6.53-0.67c3.02,0.01,5.63-1.43,8.49-1.85c2-0.29,4.28,0.09,6.16,0.36c1.79,0.26,2.99-0.43,4.66-0.35c1.02,0.05,4.34,1.73,4.69-0.33c0.18-1.07-3.19-3.88-4.06-4.67c-2.46-2.21-7.58-2.83-10.8-2.5c-2.77,0.28-4.98-1.04-7.66-1.17c-2.3-0.11-4.17,0.12-6.21,1c-3.32,1.44-7.42,1.82-10.42,3.84c-2.8,1.89-5.72,3.6-8.45,5.66c-2.66,2.01-3.62,4.22-4.63,7.17c-0.49,1.42-1.92,7.57,0.22,8.17"/><path fill="#19120c" fill-opacity="0.7" d="M194,172.67c-2.43-0.06-6.16,0.4-7.13,2.97c-0.61,1.6-0.04,3.28,1.33,4.32c3.62,2.73,8.38,1.13,12.48,1.7c2.36,0.33,3.97,0.62,6.28-0.52c1.98-0.98,3.3-1.58,5.52-1.93c3.17-0.49,6.73,0.2,9.35,1.8c2.5,1.52,5.41,2.35,8.17,3.52c3.63,1.54,5.29,4.81,7.46,7.8c0.64,0.88,1.91,4.42,2.88,4.65c2.49,0.59,0.69-3.97,0.38-4.75c-1.57-4.06-4.84-7.2-7.92-10.23c-1.16-1.14-2.09-2.48-3.29-3.54c-1.26-1.11-2.77-1.9-4.14-2.89c-2.83-2.05-6.05-2.71-9.69-2.74c-2.04-0.02-3.86-0.77-5.84-1.04c-1.84-0.26-3.78-0.11-5.66-0.13c-2.39-0.02-4.34,0.23-6.66,0.51c-0.8,0.1-1.73-0.2-2.51-0.01c-0.82,0.2-1.05,0.6-1.83,0.83"/></g><g class="hair hair-8"><path fill="#19120c" fill-opacity="0.8" d="M257,157.79c-16.83-65.56-65.84-69.37-76.8-69.39c-0.71,0.02-1.44,0.04-2.2,0.06c-54,1.42-71.5,44.58-71.5,44.58c-9,12.5-5.86,67.86-3.69,61.08c0.21-0.66,0.56-1.66,0.96-2.83c-0.81-2.54-0.73-5.33-0.08-8.15c-0.02-0.21-0.03-0.42-0.02-0.64c0.1-4.28,1.87-8.03,4.44-11.26c0.66-1.1,1.33-2.19,2.01-3.27c0.04-0.07,0.09-0.14,0.13-0.21c2.15-3.39,4.44-6.62,7.14-9.51c0.82-2.8,1.2-5.75,2.08-8.71c0.05-0.17,0.1-0.34,0.16-0.51c-0.01-2.26,0.42-4.65,0.99-6.94c-0.65-3.64,0.37-7.3,2.23-10.69c0.11-0.94,0.5-1.89,1.29-2.77c7.92-8.84,20.45-9.75,30.87-13.95c0.39-0.16,0.76-0.26,1.11-0.32c0.63-0.32,1.36-0.51,2.22-0.53c3.46-0.07,6.86-0.73,10.26-0.46c19.13-1.24,45.35,3.03,46.92,4.08c0.03,0.02,0.07,0.04,0.11,0.06c5.72,0.41,11.29,2.99,15.91,6.33c1.88,1.36,2.53,3.17,2.32,4.81c0.21,0.27,0.41,0.54,0.61,0.83c1.55,2.33,1.48,6,1.3,9.42c0.16,2.55,0.49,5.09,0.71,7.64c1.7,2.3,5.92,4.87,7.32,7.14c8.26,8.12,12.18,20.41,13.04,32.04c0.28,0.9,0.45,1.62,0.45,2.05v0.55C259.19,168.8,257,157.79,257,157.79z"/></g><g class="facial-hair facial-hair-26"><path fill="#19120c" fill-opacity="1" d="M169,312c3.1-6.5,12.4-16,14.6-22.7c2.6,1.2,7.7,12.5,9.8,14.7c2.7,2.8,3.3,5.7,3.3,5.7c2.7,2.6,9.9,9.1,2.2,14.6c-7.1,5-20.5,3.8-23.9,2.8c-3.9-1.1-11.7-1.3-10.7-8.4c0.4-2.9,5.5-8.7,7.7-10"/></g><g class="nose nose-3"><path fill="#a87f5f" d="M186.01,198.89c-0.17,1.53-0.26,3.95-0.49,5.46c-0.58,3.86,0.9,6.29,0.88,10.24 c-0.02,6.65,6.48,12.91,4.38,19.46c-5.2-0.71-6.56-12.33-6.95-16.23c-0.33-3.31-1.14-7.11-1.01-10.49 c0.11-2.91,1.43-6.24,2.54-9.75C185.35,197.6,186.24,196.78,186.01,198.89z"/><path fill="#805737" d="M160.5,242.83c0.47,1.76,2.76,1.39,4.17,1.67c1.27,0.25,2.54,0.69,3.83,0.96c1.6,0.34,6.19,3.16,7.51,1.25c1.24-1.79-4.14-5.58-5.67-6.26c-3.12-1.38-4.45-0.63-7.33,1.08c-0.81,0.48-2.51,0.69-2.68,1.63"/><path fill="#805737" d="M186.83,244.17c-2.19-4.11,13.52-4.56,12.63-1.54c-0.19,0.65-2.54,0.92-3.13,1.04c-1.49,0.29-2.5,0.76-3.85,1.55c-2.64,1.56-3.54,0.66-5.49-1.05"/><path fill="none" stroke="#a37a5a" stroke-miterlimit="10" d="M161.67,224.17c-1.22,1.53-2.63,2.46-3.55,4.34c-0.6,1.22-1.12,2.55-1.74,3.69c-1.46,2.69-2.6,5.47-1.89,8.47c0.86,3.59,2.67,5.06,5.72,7.29c0.96,0.7,2.26,1.57,3.45,1.84c1.56,0.35,3.1-0.27,4.67-0.13c2.4,0.21,5.54,1.86,7.2-0.81c2.44-0.85,5.26-0.03,7.81-0.53c1.46-0.29,2.95-0.57,4.53-0.5c1.75,0.08,3.27,0.69,5,0.83c5.59,0.47,11.69-1.64,14.18-6.78c1.22-2.52-0.06-4.44-1.54-6.31c-0.63-0.8-1.39-1.36-1.87-2.24c-0.73-1.34-0.91-4.8-2.64-4.84"/></g><g class="mouth mouth-4"><path fill="#DA7771" d="M157.67,276.38c1.49,3.44,4.03,3.59,7.14,4.87c2.15,0.89,4.35,1.38,6.39,2.5c2.68,1.47,5.37,3.07,8.43,3.75c1.94,0.44,5.11,0.85,6.82-0.11c1.46-0.82,3.01-1.7,4.45-2.63c2.56-1.66,4.47-4.48,6.89-6.29c2.75-2.05,6.88-2.2,8.16-5.97c1.85-5.44-8.06-2.5-10.13-4.02c-0.17-1.73-4.4-1.63-5.62-1.72c-2.26-0.17-4.53-0.65-6.8-0.64c-1.87,0.01-3.45,0.66-5.25,0.98c-3.47,0.62-7.12-0.04-10.53,0.92c-2.26,0.64-4.52,1.38-6.48,2.56c-1.46,0.89-5.88,1.61-6.45,3.44c-0.49,1.55,2.95,3.77,4.22,4.35"/><path fill="#F6F1D6" d="M153.67,271.63c-0.26,1.15,1.9,3.61,2.53,4.88c0.88,1.76,4.53,1.7,6.22,1.62c2.79-0.13,5.81-0.2,8.46,0.34c1.52,0.31,3.14,0.19,4.67,0.28c1.57,0.09,3.1,0.61,4.74,0.63c1.71,0.01,3.41,0.01,5.12,0c0.68-0.01,1.4,0.1,2.02-0.24c0.55-0.3,0.78-0.88,1.36-1.13c1.41-0.6,3.71-0.38,5.25-0.51c1.99-0.16,3.13,0.12,4.88-0.96c1.38-0.85,2.74-1.21,3.87-2.44c0.94-1.02,3.16-1.49,3.88-2.6c-3.06-1.57-7.86-2.79-10.9-4.35c-2.31-1.18-4.91-1.71-7.48-1.77c-4.71-0.11-10.18-0.37-14.68,1.09c-3.74,1.22-7.73,0.41-11.06,2.66c-1.88,1.28-3.91,2.47-5.76,3.74"/><path fill="#a87f5f" d="M152.79,271.75c1.23-1.6,2.51-3.38,4.24-4.52c1.68-1.1,3.78-1.36,5.5-2.38c1.41-0.84,2.44-1.87,4.15-2.22c1.63-0.33,3.53-0.41,5.24-0.5c0.91-0.05,1.78-0.07,2.68-0.16c0.97-0.1,2.38-0.66,3.31-0.47c1.19,0.25,1.82,1.64,3,2.12c1.72,0.71,2.43-0.92,4.02-1.47c1.71-0.59,3.83-0.44,5.6-0.27c2.32,0.23,4.56-0.11,6.9,0.53c1.86,0.51,3.91,1.37,5.62,2.35c1.12,0.65,2.29,1.42,3.48,2.08c0.77,0.43,2.38,1.25,2.73,2.01c-1.69,1.52-3.92,3.55-6.33,3.4c-2.35-0.15-4.34-2.7-6.53-3.6c-2.56-1.05-5.73-0.78-8.5-0.78c-1.71,0-3.42-0.19-5,0.37c-1.37,0.48-2.48,0.74-4.02,0.88c-1.78,0.16-3.53,0.48-5.38,0.38c-1.51-0.08-2.77-0.68-4.23-0.75c-1.27-0.06-2.5-0.2-3.5,0.5c-0.9,0.63-1.78,1.65-2.63,2.38c-2.1,1.82-3.72,2.88-6.63,2.87c-1.33,0-2.32,0.08-3.37-0.78c-1.07-0.87-1.05-1.95,0.13-2.85"/><path fill="#a7696a" fill-opacity="0.9" d="M153.42,273.63c0.61,3.59,3.26,6.19,5.07,9.16c1.33,2.2,3.14,4.55,5.15,6.25c1.13,0.95,2.42,1.93,3.65,2.75c1.78,1.17,4.33,1.8,6.36,2.57c1.66,0.63,3.25,0.77,5.02,0.53c1.01-0.13,2.17-0.39,3.12-0.48c1.88-0.18,3.68,0.42,5.51,0.35c1.42-0.06,2.51-0.67,3.76-1.25c1.83-0.85,3.96-1.29,5.7-2.38c2.64-1.67,4.81-4.54,6.3-7.25c1.48-2.68,3.77-4.55,4.82-7.57c0.36-1.05,2.23-6.83,0.66-7.53c-0.27-0.12-2.98,2.84-3.6,3.38c-1.5,1.3-3.16,1.81-4.88,2.74c-2.93,1.6-4.67,4.2-6.87,6.6c-0.86,0.94-1.69,1.79-2.82,2.38c-1.26,0.65-2.62,0.58-3.99,0.9c-3.01,0.7-7.41,1.11-10.41,0.1c-1.03-0.35-1.96-0.87-2.99-1.28c-1.2-0.48-2.42-0.62-3.55-1.22c-1.81-0.96-3.52-2.25-5.51-2.88c-2.17-0.69-4.08-1.03-5.97-2.4c-1.19-0.86-2.69-2.29-3.4-3.58c-0.24-0.04-1.15-0.32-1.36-0.16c-0.58,0.43-0.14,1.15,0.38,1.39"/></g></svg>