<svg id="s592cd39c435db" class="face" xmlns="http://www.w3.org/2000/svg" xmlns:xlink="http://www.w3.org/1999/xlink" x="0px" y="0px" width="357px" height="358px" viewBox="0 0 357 358"><path fill="#d39b82" d="M268.5,189.04c-1.41-1.92-2.86-2.74-4.22-2.91c-3.96-0.47-7.28,4.62-7.28,4.62c2.38-21.04,0-32.96,0-32.96c-16.83-65.56-65.84-69.37-76.8-69.39c-0.71,0.02-1.44,0.04-2.2,0.06c-54,1.42-71.5,44.58-71.5,44.58c-9,12.5-4,61.55-4,61.55c-21-12.95-1.5,45.45-1.5,45.45c5,13.5,8,1,8,1c2.88,12.67,6.63,23.41,10.9,32.53c0.85,44.99,1.74,68.73,1.44,83.43c23.33,0,116.79,0,123.83,0l1.52-85.32c6.58-17.33,7.31-32.14,7.31-32.14c2.5,3,6.5,1.5,6.5,1.5C272.75,234.79,268.5,189.04,268.5,189.04z M255.96,199.92C255.93,200.18,255.94,200.15,255.96,199.92L255.96,199.92z M256.22,197.67c0.03-0.3,0.07-0.64,0.11-1.01C256.29,197.01,256.25,197.35,256.22,197.67z M256.82,192.32c0.06-0.55,0.11-0.99,0.14-1.26C256.91,191.5,256.87,191.92,256.82,192.32z M265.33,190.26c-0.04-0.16-0.09-0.37-0.16-0.62c-0.13-0.5-0.31-1.2-0.54-2.1c0.22,0.86,0.4,1.58,0.54,2.1C265.24,189.9,265.29,190.1,265.33,190.26C265.47,190.79,265.48,190.83,265.33,190.26z"/><path fill="#ce967d" d="M125.25,227.25c4.5-6.5,6.97-8.84,12.65-10c4.87-0.99,13.28-2.45,17.35-5.75c9.63-7.79,13.17-20.35,5.59-28.43c-4.32-4.6-7.03-7.3-13.05-8.81c-4.83-1.22-11.04-2.16-15.05-6.1c-7.84-7.69-11.29-20.73-10.82-31.2c0.41-8.95,9.17-18.79,15.15-24.83c7.04-7.12,15.71-14.12,23.72-20.42c-40.38,8.84-54.04,42.51-54.04,42.51c-9,12.5-4,61.55-4,61.55c-21-12.95-1.5,45.45-1.5,45.45c5,13.5,8,1,8,1c2.89,12.7,6.64,23.46,10.93,32.59c-0.78,38.87,1.32,70.54,1.15,83.21c7.79,0.1,53.6-30.51,61.45-32.32C179.16,318.81,113.75,264.75,125.25,227.25z"/><g class="eyes eyes-11"><path fill="#ffffff" fill-opacity="0.7" d="M148.83,201.33c-2.21-0.02-3.9,1.03-5.83,1.96c-1.33,0.64-4.67,1.73-4.64,3.51c1.45,0.55,2.34,2.11,3.63,2.91c1.58,0.97,3.43,1.02,5.18,1.29c2.9,0.44,5.83,0.09,8.68-0.63c2.64-0.67,5.37-0.23,7.69-1.65c2.87-1.76-1.03-4.23-2.71-5.42c-2.02-1.44-3.31-2.36-5.83-2.46c-2.15-0.08-4.32,0.14-6.33,0.5"/><path fill="#ffffff" fill-opacity="0.7" d="M214.5,203c-2.75-0.67-6.42-0.67-8.84,0.83c-0.91,0.56-2.29,1.61-2.96,2.38c-1.28,1.45-0.55,1.94,0.85,3.09c2.84,2.34,7.06,2.73,10.6,3.25c2.93,0.43,5.21,0.09,7.82-1.42c1.11-0.64,4.52-1.63,5.2-2.63c1.04-1.52-1.64-2.63-2.83-3.21c-1.62-0.78-3.09-1.24-4.84-1.59c-1.83-0.37-4.26-1.09-6.17-0.87"/><path display="inline" fill="#402a13" d="M149.5,200.83c-3.15-0.66-2.99,4.38-2.2,6.17c0.94,2.13,3.69,3.78,6.04,3.83c2.98,0.06,4.71-3.04,5-5.67c0.38-3.45-1.97-4.15-4.84-4.33c-1.15-0.07-5.1-0.63-5.67,0"/><path display="inline" fill="#402a13" d="M212,202.33c-2.94,0.16-5.82,2.57-4.47,5.67c1.04,2.4,3.58,4.37,6.13,4.5c4.42,0.22,10.64-6.87,4.46-9.46c-1.93-0.81-5.16-0.86-7.3-0.7"/></g><g class="eyebrows eyebrows-6"><path fill="#141615" fill-opacity="0.8" d="M119.33,195c0.74-3.9,2.84-7.79,6-10.18c1.94-1.47,4.57-2.44,6.57-3.65c2.44-1.48,4.96-1.74,7.4-0.16c4.14,2.67,8.63-0.43,12.74,1.1c2.92,1.09,6.48,3.07,8.12,5.88c0.84,1.43,0.37,3.01-1.6,3.02c-2.48,0.02-4.47-1.71-6.74-2.02c-4.44-0.61-9.01-0.13-13.47-0.5c-1.99-0.16-4.54-0.52-6.54-0.17c-1.63,0.28-2.55,1.52-3.95,2.38c-3.14,1.93-7.13,2.6-9.56,5.4c0.3-0.57,0.74-0.88,1.36-0.94"/><path fill="#141615" fill-opacity="0.8" d="M200.83,188c0.67-2.73,4.53-5.59,6.93-6.83c3.15-1.63,7.54-1.51,11.04-1.34c3.83,0.19,6.89-1.51,10.83-0.29c2.02,0.62,3.93,0.96,6.21,0.96c2.66,0,2.83,0.67,4.53,2.33c1.18,1.15,2.95,2.21,3.77,3.67c0.84,1.48,1.6,3.19,2.36,4.67c0.5,0.98,0.38,1.78,0.61,2.79c-0.66-0.6-1.35-1.29-2.11-1.79c-1.99-1.32-3.83-0.68-6-1.17c-1.49-0.34-2.32-1.59-3.67-2.16c-3.62-1.54-7.45-2.03-11.34-2.17c-4.61-0.17-9.03-2.32-13.2,0.62c-1.62,1.14-2.29,1.18-4.13,1.54c-1.7,0.33-2.86,1.66-4.67,0.67c-1.08-0.59-1.82-1.98-0.83-3.17"/></g><g class="hair hair-3011"><path fill="#141615" d="M260.42,171.76c-1.05-4.62-1.24-9.03-0.38-13.39c-0.16-0.32-0.29-0.67-0.37-1.04l-1.5-7.5c-0.18-0.9-0.14-1.8,0.08-2.63c-0.17-0.51-0.26-1.07-0.25-1.7c0.05-5.99-1-11.77-2.73-17.37c-0.59-0.37-1.13-0.9-1.58-1.61c-1.34-2.09-2.68-4.17-3.99-6.27c-22.51-29.1-61.14-36.51-96.09-33.03c-0.06,0.04-0.13,0.07-0.19,0.1c-1.8,1.03-9.82,4.1-11.67,4.92c-0.8,3.57-1.53,1.63-4.58,2.42c-2.12,0.54,3.63,0.84,1.33,0.83c-0.56,0.31-5.37,1.29-5.92,1.63c-9.41,5.79-19.35,10.5-25.68,18.58c-5.91,9.89-9.76,21.08-12.27,32.46c0.39,5.17,1.56,10.18,0.97,15.51c-0.32,2.96-1.72,5.29-2.43,8.09c-0.52,2.04,1.29,6.74,1.82,8.91c0.73,3,3.33,8.62,5.67,10.33c0.49,0.36,0.83,0.58,1.06,0.72c-0.5-0.13-1.3-0.04-1.39,1.61c-0.1,1.78,1.24,6.16,2.55,8.01c-0.41-4.11-0.7-8.24-0.55-12.41c0.29-8.07,1.73-17.99,9.01-22.32c0.15-1.53,0.36-3.05,0.7-4.56c1.56-6.97-0.36-13.37,3.95-19.39c3.72-5.2,16.29-7.73,19.16-12.91c1.05-0.4,3.89-2.92,4.82-3.59c4.71-3.38,10.42-5.27,16.22-5.2c1.15-0.31,2.3-0.59,3.47-0.8c0.52-0.09,1.03-0.1,1.53-0.07c2.06-0.88,12.6-1.74,14.63-1.94c11.07-1.08,13.39,6.52,24.5,7.33c4.64,0.34,14.29-2.64,18.42-1.5c3.94,1.08,17.63,12.3,21.26,14.68c5.46,3.58,6.47,13.26,7.5,17.63c0.75,3.18-0.79,5.72-2.46,8.25c0.09,0.13,0.18,0.27,0.27,0.42c4.54,7.91,8.54,16.46,9.88,25.57c0.34,2.33,0.57,4.65,0.7,6.97c1.23-2.82,2.17-5.72,3.44-8.49c1.14-2.49,1.1-4.11,1.74-6.75C261.87,179.02,261.13,174.87,260.42,171.76z"/><path fill="#282a29" d="M124,113.5c4.79-7.4,18.44-7.86,25.97-10.41c4.81-1.63,11.12-1.83,15.51-4.05c-5.39,2.44-13.47,2.83-17.41,7.77c8.41,0.54,18.21-2.68,25.93-3.31c2.62-0.21,4.48,1.28,7.37,2.02c-2.33-0.04-14.69-1.15-13.35,3.01c0.26,0.81,11.2,3.57,13.18,3.57c-10.72,2.47-21.12-0.52-31.28,5.76c-4.48,2.77-9.41,5.6-15.7,5.09c1.22-1.4,2.51-2.95,3.46-4.39c-3.42,0.14-6.09,1.92-9.71,1.35c1.03-0.53,2.49-1.46,3.81-1.85c-5.91,2.41-12.7,3.04-17.39,7.44c-3.87,3.63-6.11,8.67-9.06,13c0.93-10.7,16.11-20.27,22.67-27.5"/><path fill="#282a29" d="M226,103.5c-3.26-2.02-5.64-5.07-9.39-6.64c-5.01-2.09-7.5-0.16-12.6,0.15c-5.63,0.34-10.6-2.17-15.15-4.38c-4.31-2.09-8.95-1.44-13.71-2.13c5.62-0.28,16.17,5.69,20.75,9.47c2.1,1.73,3.1,4.5,5.56,5.69c2.53,1.23,6.92,0.31,9.62,0.34c5.15,0.06,6.47,1.08,10.07,4.42c-1.25-0.26-3.38-0.09-4.44-0.3c3.9,2.65,8.22,5.03,12.56,6.89c-1.93-0.83-4.25-0.95-5.78-1.92c9.44,0.35,25.81,14.84,26.93,24.41c-1.14-4.23-2.59-9.01-4.28-13.01c-1.29-3.07-2.92-7.64-4.65-10.46c1.41,0.44,2.91,1.45,3.96,2.64c-6.15-1.85-10.71-7.89-15.57-12.04c-2.7-2.3-7.47-4.07-8.89-7.14"/></g><g class="facial-hair facial-hair-20"><path fill="#141615" d="M156.2,303.7c0,0,8.6,2.3,17.1,5l1.3,1.3h1.7l4.2-1.3l2.3,0.3l3.7,1h2.7h3.7h4.3l3.3-1h4l5.3-0.7c0,0,20.1-14.3,22.4-16.3c2.3-2-21.1,24.3-25.4,26.3c-4.3,2-10.7,8-14,7.7c-3.3-0.3-6.3,0-6.3,0l-10.2-3.7l-11.1-6.7l-6.7-5.7l-4.3-4.3l-11.6-12.3L156.2,303.7z"/><path fill="#141615" d="M153,264c18.3-4.6,41.6-4.9,59.8,0c0-1-1.2-1-1.2-2C205.7,255.8,150.6,254,153,264z"/></g><g class="nose nose-10"><path fill="#c99178" d="M186.01,198.89c-0.17,1.53-0.26,3.95-0.49,5.46c-0.58,3.86,0.9,6.29,0.88,10.24 c-0.02,6.65,6.48,12.91,4.38,19.46c-5.2-0.71-6.56-12.33-6.95-16.23c-0.33-3.31-1.14-7.11-1.01-10.49 c0.11-2.91,1.43-6.24,2.54-9.75C185.35,197.6,186.24,196.78,186.01,198.89z"/><path fill="#a16950" d="M171.75,238.75c-2.31-0.23-2.82,2.22-1.75,3.75c1.06,1.52,2.65,2.54,4.63,1.75c5.37-2.13-2.3-8.14-4.63-5.25"/><path fill="#a16950" d="M188.25,238.88c-1.1-0.12-1.74,0.48-2.38,1.22c-0.95,1.11-0.87,1.46,0,2.52c0.62,0.76,1.7,2.12,2.62,2.48c0.87,0.34,2.53-0.15,3.38-0.48c1.85-0.7,3.13-2.9,1.65-4.65c-1.11-1.31-3.66-1.82-5.28-1.22c-0.18,0.07-0.13,0.05-0.25,0.12"/><path fill="none" stroke="#c48c73" stroke-miterlimit="10" d="M167.63,232.25c-1.9,1.11-4.09,2.63-5.16,4.74c-0.86,1.69-0.22,4.64,0.16,6.38c0.45,2.09,2.24,4.18,4.22,5c1.03,0.42,2.72,0.48,3.89,0.5c1.72,0.03,2.24-0.82,3.63-1.26c1.9-0.59,4.9,0.33,6.76,0.62c3.3,0.52,6.46-0.66,9.85-0.37c1.42,0.12,2.4,0.58,3.68,0.03c0.81-0.35,1.47-0.88,2.21-1.4c1.99-1.42,2.59-2.57,3.4-4.75c0.71-1.91,0.58-2.59-0.78-4.29c-1.06-1.33-2.17-2.66-3.49-3.7c-1.22-0.96-2.55-1.87-3.71-3c-0.98-0.95-3.03-2.44-3.54-3.63"/></g><g class="mouth mouth-20"><path fill="#FCE6C0" d="M156.25,279.88c-0.32,2.16,1.8,4.01,3.15,5.38c2.01,2.04,4.57,3.44,7.26,4.36c3.91,1.34,8.6,1.08,12.74,1.09c3.27,0,6.22-1.3,9.34-1.79c2.42-0.38,5.5,0.2,7.84-0.48c1.14-0.33,1.94-1.35,3.01-1.9c0.73-0.37,1.68-0.5,2.36-0.98c0.68-0.48,0.99-1.23,1.52-1.82c0.97-1.08,2.14-1.43,1.9-3.14c-0.29-2.04-2.76-3.46-4.59-4c-6.24-1.85-12.29-5.38-18.92-5.38c-2.36,0-4.73-0.03-7.07-0.14c-2.63-0.12-5.32-0.37-7.85,0.41c-2.71,0.84-5.43,1.98-7.98,3.12c-1.27,0.57-1.79,1.92-2.95,2.44c-0.34,1.1-0.48,3.33,0.65,3.77"/><path fill="#9A3E32" d="M158.69,283.94c0.74-1.46,1.34-6.96,3.94-4.27c-0.24-1.44,1.4-1.24,2.27-1.01c0.06-1.79,2.17-1.98,3.42-1.47c0.9,0.37,1.21,0.74,2.1,0.47c1.26-0.38,1.68-1.4,3.2-1.02c0.62,0.15,1.04,0.75,1.59,0.82c0.82,0.11,1.66-0.56,2.44-0.79c0.63-0.19,1.9-0.65,2.57-0.41c1.5,0.52,0.29,0.91,2.43,0.51c1.77-0.33,2.24,0.72,3.69,0.83c1.89,0.14,3.39-1.65,5.39-0.44c0.64,0.39,0.91,1.12,1.52,1.49c0.89,0.54,0.8,0.01,1.76,0.16c0.77,0.12,1.09,0.87,1.73,1.1c0.88,0.31,1.77-0.16,2.68-0.11c0.99,1.77,2.07,2.19,2.07,4.43c1.44,0.17,3.86-1.52,3.91-2.99c0.04-1.26-1.82-2.8-2.73-3.55c-2.52-2.07-6.09-3.21-9.16-4.14c-3.82-1.15-7.7-2.95-11.65-3.41c-3.97-0.47-8.18-0.62-12.19-0.64c-1.87-0.01-3.66,0.29-5.31,1.09c-3.11,1.5-6.83,2.47-9.55,4.61c-1.5,1.18-1.23,3.27-0.27,4.73c0.95,1.45,2.97,3.7,4.44,4.46"/><path fill="#bf876e" fill-opacity="1" d="M152.33,278.39c2.38,1.63,3.46,5.01,5.41,7.1c2.18,2.35,4.17,4.97,6.27,7.38c1.85,2.13,3.81,4.1,6.17,5.58c3.71,2.33,7.39,3,11.9,3.21c3.7,0.18,6.29-0.63,9.06-2.88c2.24-1.81,4.42-3.27,6.36-5.55c2.03-2.38,4.4-4.5,6.54-6.73c1.78-1.86,4.47-5.09,4.33-7.84c-0.03-0.66-1.04,0.04-0.94-0.64c-0.92,1.03-2.29,1.55-3.26,2.56c-1.04,1.09-2.17,2-3.39,2.91c-2.09,1.56-5.16,2.64-7.63,3.25c-3.41,0.85-6.7,0.89-10.23,0.71c-2.9-0.15-5.98-0.14-8.93-0.41c-2.34-0.21-4.93-0.18-7.3-0.64c-2.14-0.41-4.35-1.46-6.34-2.38c-1.8-0.83-3.06-2.09-4.59-3.35c-0.8-0.66-2.67-2.97-3.69-2.03"/><path fill="#c99178" d="M152.87,274.06c1.35-0.82,2.48-2.21,3.62-3.35c1.32-1.32,2.71-2.3,4.12-3.45c1.89-1.54,3.8-3.02,6.06-3.76c2.39-0.78,5.18-1.22,7.71-1.35c1.3-0.07,2.43,0.29,3.65,0.38c1.61,0.11,3.12-0.51,4.74-0.38c2.51,0.2,5.61,1.33,7.85,2.44c2.29,1.14,4.78,1.89,6.93,3.35c1.9,1.29,4.31,2.15,6.02,3.68c1.37,1.23,2.24,3.25,3.8,4.23c0.27,0.91,1.26,1.69,0.98,2.83c-0.25,1-1.36,1.39-2.17,1.89c-1.87,1.16-4.95,0.13-7.17-0.82c-2.19-0.94-3.2-0.99-5.27-2.2c-2.05-1.19-4.67-2.14-6.9-2.68c-2.27-0.55-4.6,0.28-6.91,0.28c-2.68,0-4.88-0.44-7.44-0.82c-5.19-0.76-9.52,1.19-14.11,3.09c-1.09,0.45-4.36,2.09-5.34,1.62c-1.37-0.66-0.15-4.38,0.37-5.38"/></g></svg>