<svg id="s539e784c8f6a7" class="face" xmlns="http://www.w3.org/2000/svg" xmlns:xlink="http://www.w3.org/1999/xlink" x="0px" y="0px" width="357px" height="358px" viewBox="0 0 357 358"><path fill="#e1ab85" d="M268.5,189.04c-1.41-1.92-2.86-2.74-4.22-2.91c-3.96-0.47-7.28,4.62-7.28,4.62c2.38-21.04,0-32.96,0-32.96c-16.83-65.56-65.84-69.37-76.8-69.39c-0.71,0.02-1.44,0.04-2.2,0.06c-54,1.42-71.5,44.58-71.5,44.58c-9,12.5-4,61.55-4,61.55c-21-12.95-1.5,45.45-1.5,45.45c5,13.5,8,1,8,1c2.88,12.67,6.63,23.41,10.9,32.53c0.85,44.99,1.74,68.73,1.44,83.43c23.33,0,116.79,0,123.83,0l1.52-85.32c6.58-17.33,7.31-32.14,7.31-32.14c2.5,3,6.5,1.5,6.5,1.5C272.75,234.79,268.5,189.04,268.5,189.04z M255.96,199.92C255.93,200.18,255.94,200.15,255.96,199.92L255.96,199.92z M256.22,197.67c0.03-0.3,0.07-0.64,0.11-1.01C256.29,197.01,256.25,197.35,256.22,197.67z M256.82,192.32c0.06-0.55,0.11-0.99,0.14-1.26C256.91,191.5,256.87,191.92,256.82,192.32z M265.33,190.26c-0.04-0.16-0.09-0.37-0.16-0.62c-0.13-0.5-0.31-1.2-0.54-2.1c0.22,0.86,0.4,1.58,0.54,2.1C265.24,189.9,265.29,190.1,265.33,190.26C265.47,190.79,265.48,190.83,265.33,190.26z"/><path fill="#dca680" d="M125.25,227.25c4.5-6.5,6.97-8.84,12.65-10c4.87-0.99,13.28-2.45,17.35-5.75c9.63-7.79,13.17-20.35,5.59-28.43c-4.32-4.6-7.03-7.3-13.05-8.81c-4.83-1.22-11.04-2.16-15.05-6.1c-7.84-7.69-11.29-20.73-10.82-31.2c0.41-8.95,9.17-18.79,15.15-24.83c7.04-7.12,15.71-14.12,23.72-20.42c-40.38,8.84-54.04,42.51-54.04,42.51c-9,12.5-4,61.55-4,61.55c-21-12.95-1.5,45.45-1.5,45.45c5,13.5,8,1,8,1c2.89,12.7,6.64,23.46,10.93,32.59c-0.78,38.87,1.32,70.54,1.15,83.21c7.79,0.1,53.6-30.51,61.45-32.32C179.16,318.81,113.75,264.75,125.25,227.25z"/><g class="eyes eyes-19"><path fill="#ffffff" fill-opacity="0.7" d="M158.33,206.68c-0.61-0.47-1.13-1.22-1.76-1.66c-1.49-1.05-3.98-1.48-5.74-1.75c-0.15-0.02-0.3-0.03-0.45-0.05c0.42,0.62,0.72,1.32,0.86,2.14c0.27,1.59-1.1,2.92-2.16,3.89c-1.44,1.33-2.83,2.11-4.76,2.66c-2.15,0.61-4.04-0.15-5.58-1.77c-1.36-1.42-1.6-3.34-1.64-5.25c-0.78,0.46-1.5,0.99-2.07,1.52c-1.18,1.09-2.64,1.92-3.77,3.08h0.25c-0.05,0.72,5.78,4.06,7.27,4.31c2.17,0.37,5.32,0.66,7.4-0.21c1.85-0.78,5.19-1.08,6.75-2.35c2.23-1.82,3.93-2.11,6.26-3.84C158.95,207.16,158.61,206.9,158.33,206.68z"/><path fill="#504040" d="M144.31,211.91c1.93-0.55,3.32-1.33,4.76-2.66c1.06-0.97,2.43-2.3,2.16-3.89c-0.14-0.82-0.44-1.53-0.86-2.14c-3.08-0.39-6.49-0.09-9.54,0.28c-1.21,0.14-2.55,0.69-3.75,1.4c0.04,1.91,0.28,3.83,1.64,5.25C140.28,211.76,142.16,212.53,144.31,211.91z"/></g><g><path fill="#ffffff" fill-opacity="0.7" d="M229.09,209.31c-1.17-1.2-2.72-2.3-4.31-2.98c-0.32-0.14-0.65-0.25-0.98-0.35c0.22,1.73-0.23,3.54-1.48,4.75c-0.64,0.62-1.31,1.36-2.14,1.7c-0.88,0.36-1.57,0.48-2.43,0.97c-1.28,0.72-2.6,0.97-4.01,0.37c-1.6-0.69-2.74-2.23-3.67-3.69c-0.48-0.75-0.81-1.53-0.9-2.41c-0.08-0.8,0.18-1.57,0.33-2.34c-1.42,0.5-3.69,1.1-4.25,1.51c-0.5,0.37-0.93,0.86-1.42,1.25c-0.47,0.38-1.09,0.65-1.47,1.15c0.99,1.78,3.2,2.79,5.06,3.33c1.48,0.43,2.65,0.96,4.16,1.11c1.28,0.13,2.56,0.35,3.83,0.58c1.33,0.25,2.8,0.42,4.17,0.42c0.61,0,1.22,0,1.83,0c0.9,0,6.29-1.2,7.5-2.15c0.25-0.19,1.68-0.91,1.74-1.01C231.05,210.84,229.45,209.69,229.09,209.31z"/><path fill="#504040" d="M209.17,207.67c0.08,0.88,0.41,1.66,0.9,2.41c0.93,1.46,2.07,3,3.67,3.69c1.41,0.61,2.73,0.36,4.01-0.37c0.86-0.48,1.55-0.61,2.43-0.97c0.83-0.34,1.5-1.08,2.14-1.7c1.25-1.21,1.71-3.02,1.48-4.75c-2.03-0.63-4.25-0.7-6.29-1.13c-1.9-0.41-4.85-0.69-6.67-0.18l-0.25,0.17c-0.17,0.14-0.57,0.31-1.09,0.49C209.35,206.1,209.09,206.87,209.17,207.67z"/></g><g class="eyebrows eyebrows-1"><path fill="#96775a" fill-opacity="0.7" d="M124.5,192.33c0,0,4.67-7.33,12-9.67c0,0,13.5-2.33,30,8.17l-7.17,2.5L157,192l-5,0.33l-2.67-1.5l-8.5,0.33l-5.17,0.5h-3.17C132.5,191.67,129.17,193.33,124.5,192.33z"/><path fill="#96775a" fill-opacity="0.7" d="M195.17,189.67l5.83-5l6-1.17l6.33-2.5h11.17l8.33,3c0,0,3.83,5.33,3.83,6.33s-3.83,1.33-3.83,1.33h-5.67l-6.83-2.33l-5.33-0.5l-5.67,0.5l-5.83,1.33l-5.83,1l-3.17,1L195.17,189.67z"/></g><g class="hair hair-3012"><path fill="#96775a" d="M97.3,166c0.3-1,4-42,26.3-59.3c0,0,2.7-7.3,11.3-9c0,0,11.7-5.5,12.7-8.3c0,0,10-3.7,21.7-3.4c0,0,16.7-3.3,28.7,2l7.7,4c0,0,9.3,2,11.7,5.7c0,0,19.7,0.7,24.3,16.7c0,0,12,11.2,15.3,32.8c0.3,2,0.5,4,0.7,6.2c0,0,0.8,3.4,4.8,7.5c0,0,5,14.9-2.6,18.1c0,0,2.1,2.3-0.1,16c0,0,0.8,16.3-0.8,22c0,0-3.5,7.5-3.5,9s0.3-5.3-9.8-22.5c0,0-4.3-15.8-5.3-24.5c0,0,0.3-5.5-4.5-11.8l-4.3,7.5c0,0-20.8-18.1-29.8-19.2l1.3,7.9c0,0-4.3-6.3-9.3-10.5l-11.2-10c0,0-6.8,9.5-8.3,10.8s6.3-9.5,6-12.3l-5.3-7.8c0,0-5.5,14.3-4,23l-7-15.5c0,0-8,9.5-10,10s-7.5,12-19.5,14c0,0-7,2-7.5,11.8l1.3,7c0,0-4-6-5.3-5s-6.8,3-9.8,9.3c0,0-4.8,26.2-1,35.5c0,0-8.8-0.7-9.8-3s-7.3-24.5-7.8-29C95,191.8,95.2,173.3,97.3,166z"/><path fill="#aa8b6e" stroke-miterlimit="10" d="M129.8,109.5c-4.6,2.4-7.5,3.9-10.2,8.4c-1.2,1.9-2.7,3.8-3.5,5.9c-1.4,3.4-0.6,7.2-2.1,10.6c0.4-1.1,1.1-2.2,2-2.8c0.5,4.6-2.5,7.1-4.2,11c-1.1,2.4-4,14.7-6.4,14.7c-0.1-1.7,0-3.4,0-5.1c0.7,5.4-4.8,11.3-5.3,16.8c-0.6,6.7,4.3,13.8,2,20.6c2.1-2.7,2.1-6.7,4.3-9.1c0.7,1.5-0.1,3.8-0.5,5.3c2.3-4.1,2.5-9.9,4.8-14.4c2.3-4.6,2.5-9.9,4.5-14.5c-1.1,1.4-2.3,2.2-3.7,3.2c-0.1-1.9,2.9-3.1,4.1-4.4c1.9-1.9,3.2-4.6,4.7-6.8c2.8-4.1,4.9-7.7,8.8-10.8c-1,1.7-2,4.4-2.1,6.4c1.9-2.2,5.5-4.7,8-6.2c0.8-0.5,0.9-1.3,2-1.1c1,5-20.6,29.8-14.3,33.7c2.6-5,6.9-8.3,9.5-13.5c1.9-3.8,3.1-8.8,5.6-12.2c-1.4,2.2-5.8,4.7-5.8,7.4c6,0,13.6-5.4,14.3-11.4c0.1-1.4,0.1-3.1,0.8-4.4c1.2-2.2,4.8-4,6.7-5.8c4.2-3.8,9.3-6.5,13.8-10.1c2.6-2.1,8.9-6.6,9.1-10.3c-6.2,3.9-12.9,7.1-19.7,9.8c-2.7,1-4.5,2.8-7.2,4c2-6.9,8.9-12.7,12.8-18.5c-5.1,3.7-8.5,9.3-13.8,12.6c-3.2,2-6.8,2.8-10.1,4.6c-0.9-3.3,1.6-6.2,2.3-8.9c-2.2,1.2-4.2,2.8-6.4,4c-2.3,1.3-5.4,1.5-7.6,2.9c2.6-3.5,4.5-7.5,6-11.7c0.9-2.6,1.6-5.7,3.6-7.7c-1.3,3.7-3.3,8-7.3,8.7"/><path fill="#aa8b6e" d="M196.3,131.8c-5.6-1-7.7-4.8-11.4-8c1.8,2.9,4.4,5.8,3.8,9.5c-2.2,0.2-3.8-2.4-5.4-3.7c0.1,2.6,2.1,6.2,3.2,8.6c1.5,3.2,2.6,4,5.9,5.1c8.1,2.6,14.6,9.4,23.1,11.4c-3.5-1.6,0.4-3.8,2.5-3.9c2.8-0.1,5.7,1.3,8.5,1.5c-0.5-1.4-1.6-2.6-2-4.2c3.7-0.2,6.4,1.2,9.6,2.6c-0.4-1.2-1.9-3-1.1-4c1-1.2,6.4,0.5,7.7,1.1c1.9,0.9,3.2,3,4.5,4.7c-0.8-2-2.9-5.2-2.7-7.4c1.9,0.2,3,2.7,4.3,4c1.9,1.8,3.5,2.9,4.7,5.5c1,2.1,1.9,4.9,2.2,7.3c0.2,1.5-0.4,2.9,1,3.9c0.3-3.5-1.9-8.1-2.4-11.6c-0.6-3.7-2.9-7.6-2.7-11.3c1.3-0.2,2.2,1,3,1.9c-1.9-4.8-4.8-10.3-7.5-14.8c-3.4-5.7-6.9-10.8-11.8-15.3c-3-2.8-6.8-3.9-10.2-6.1c-2.6-1.7-5.1-3.6-7.9-5c2.9,2.8,6.2,6.4,8.4,9.7c1.3,1.9,1.8,4.3,2.9,6.3c-3.8-1.1-7.9-4.9-11.4-7c-1.6-1-3.5-1.9-4.7-3.4c2.1,3.7,5.8,6.6,7.3,10.9c0.9,2.5,0.4,4.9,0.8,7.5c-3.9-2.5-9.3-4-12.6-7.4c-0.1,1.9,1.9,4.8,2.2,6.9c-3,0.5-6.9,1-9.1-1.4c1.2,1.8,3.2,2.8,5.2,3.6c0.6,0.3,1.7,0.1,2.2,0.7c0.8,1,0.7,2.9,0.7,4.2c-3.3,0.3-4.9-3.2-7.7-3.2c-1.5,0-1.6,1.8-3.7,1"/></g><g class="facial-hair facial-hair-25"><path fill="#96775a" fill-opacity="0.4" d="M144.3,266.4c5-5.8,14.9-12.2,22.6-14c2.3-0.5,5.2-0.9,7.4-0.3c2.1,0.6,3.2,2.2,5.6,1.9c1.9-0.2,3.2-2.2,4.9-2.9c1.6-0.7,5.9-1.2,7.7-0.9c1.1,2.5,4.7,4.3,6.9,5.6c2.6,1.6,6.1,3.8,9,5c3.3,1.3,4.2,1.9,6.4,4.5c1.2,1.5,4.9,4.2,3.8,6.3c-2.1,3.7-5.8-0.7-7.3-1.9c-2.1-1.6-4.5-2.6-6.9-3.6c-6-2.6-11.9-4.1-18.5-4.4c-4.4-0.2-8.7-1.4-13.1-0.9c-4,0.4-6.8,2.3-10.6,3.3c-4.3,1.1-7.7,1-11.2,3.7c-2.5,1.9-4.2,3.1-7.6,2.8c-0.5-2.8,0.6-3.5,2.4-4.9"/><path fill="#96775a" d="M144.8,293.2c1.6,3.5-0.2,7,0,10.5c0.2,3.5,2.1,6.7,3.4,9.9c2.1,5.3,4.6,9,9.6,11.5c5.2,2.5,12.5,2.2,18.3,2.2c4.1,0,8-0.5,12.1-0.6c3.5-0.1,7.5,0.6,10.9-0.3c7.7-2.1,13.2-4.2,13.7-11.7c0.3-4,1.9-7.9,2.2-11.7c0.2-2.6,1.8-11.6-0.7-12.6c-0.7,2.4-4.1-0.1-6.3,1.4c-0.2,0.1-1.9,0.3-2.3,0.5c-1.9,0.7-3.4,2.3-5.3,2.7c-1.6,3.9-4.7,1-6.9,1.5c-1.2,0.3-2.2,2-3.3,2.5c-0.8,0.3-2.1,0.4-2.9,0.6c-3.8,1-5.5,2.2-8.9,0.6c-3.8-1.8-3.7-2-7.6,0.5c-6.1,3.9-7-0.5-13.9-1c-3-0.2-4.5-2.3-7-3.8c-1.8-1-2.5-2.6-4.9-3.1c-0.1,0.5-0.2,1.3,0,1.8"/></g><g class="nose nose-10"><path fill="#d7a17b" d="M186.01,198.89c-0.17,1.53-0.26,3.95-0.49,5.46c-0.58,3.86,0.9,6.29,0.88,10.24 c-0.02,6.65,6.48,12.91,4.38,19.46c-5.2-0.71-6.56-12.33-6.95-16.23c-0.33-3.31-1.14-7.11-1.01-10.49 c0.11-2.91,1.43-6.24,2.54-9.75C185.35,197.6,186.24,196.78,186.01,198.89z"/><path fill="#af7953" d="M171.75,238.75c-2.31-0.23-2.82,2.22-1.75,3.75c1.06,1.52,2.65,2.54,4.63,1.75c5.37-2.13-2.3-8.14-4.63-5.25"/><path fill="#af7953" d="M188.25,238.88c-1.1-0.12-1.74,0.48-2.38,1.22c-0.95,1.11-0.87,1.46,0,2.52c0.62,0.76,1.7,2.12,2.62,2.48c0.87,0.34,2.53-0.15,3.38-0.48c1.85-0.7,3.13-2.9,1.65-4.65c-1.11-1.31-3.66-1.82-5.28-1.22c-0.18,0.07-0.13,0.05-0.25,0.12"/><path fill="none" stroke="#d29c76" stroke-miterlimit="10" d="M167.63,232.25c-1.9,1.11-4.09,2.63-5.16,4.74c-0.86,1.69-0.22,4.64,0.16,6.38c0.45,2.09,2.24,4.18,4.22,5c1.03,0.42,2.72,0.48,3.89,0.5c1.72,0.03,2.24-0.82,3.63-1.26c1.9-0.59,4.9,0.33,6.76,0.62c3.3,0.52,6.46-0.66,9.85-0.37c1.42,0.12,2.4,0.58,3.68,0.03c0.81-0.35,1.47-0.88,2.21-1.4c1.99-1.42,2.59-2.57,3.4-4.75c0.71-1.91,0.58-2.59-0.78-4.29c-1.06-1.33-2.17-2.66-3.49-3.7c-1.22-0.96-2.55-1.87-3.71-3c-0.98-0.95-3.03-2.44-3.54-3.63"/></g><g class="mouth mouth-14"><path fill="#1E0E0F" d="M156.1,268.13c-1.36,0.44-2.56-0.01-3.79-0.4c-0.08,1.38,1.71,2.42,2.57,3.16c1.28,1.1,2.82,2.29,4.24,3.09c2.47,1.4,5.49,0.86,8.23,1.11c3.5,0.32,7.14,0.21,10.66,0.29c7.43,0.18,14.62-0.2,21.89-1.75c2.94-0.63,6.29,1.3,8.05-1.42c0.38-0.59,1.36-2.64,0.96-3.22c-0.61-0.9-3.37-0.41-4.33-0.41c-4.86,0-9.81,0.06-14.64-0.16c-5.07-0.23-10.13,0.33-15.16,0.31c-4.92-0.02-10.03-1.24-14.98-0.6c-1.18,0.15-3.95,1.17-4.92,0.15"/><path fill="#F2E8D3" d="M160.19,272.21c0.52-2.44,0.49-2.98,2.84-3.9c1.99-0.78,4.17,0.02,6.31-0.42c1.37-0.28,2.65-0.1,4.01-0.06c1.18,0.04,2.26-0.26,3.51-0.31c2.12-0.08,4.49,0.71,5.86,2.29c1.18-1.27,3.21-1.92,4.98-2.29c1.3-0.27,2-0.19,2.99,0.65c0.18,0.15,0.49,0.81,0.64,0.87c0.95,0.4,0.4-0.07,1.25-0.4c1.11-0.43,2.14-0.65,3.32-0.32c1.04,0.29,1.89,1.28,2.84,1.48c1.34,0.28,4.47-0.09,5.79-0.4c1.88,2.61-2.86,3.82-4.43,4.48c-2.48,1.05-4.66,3.95-7.41,4.4c-3.16,0.51-6.48,0.9-9.72,1.05c-1.58,0.07-3.04-0.1-4.5-0.46c-1.45-0.36-2.83-0.24-4.36-0.45c-1.35-0.18-2.17-0.88-3.55-1.21c-1.58-0.38-2.89-0.86-4.48-1.63c-0.98-0.47-2.19-1.34-3.31-1.68c-1.32-0.4-2.46-0.15-3.24-1.54c0.36-0.32,0.17-0.53,0.33-0.91"/><path fill="#d7a17b" d="M152.17,267.98c3.67-0.2,6.51-2.17,9.69-3.32c2.45-0.88,5.78-1.42,8.43-1.67c3.05-0.29,6.28,0.02,9.26,0.3c2.97,0.28,6.15-0.15,9.23-0.15c4.08,0,7.87-0.39,11.78,0.79c1.81,0.54,3.74,1.32,5.31,2.23c0.79,0.46,3.4,2.02,3.44,2.85c-1.47,0.47-2.99,0.08-4.51,0.33c-1.13,0.19-2.21,0.48-3.48,0.61c-1.67,0.17-3.43,0.42-5.14,0.3c-1.96-0.14-3.58-0.88-5.45-1.06c-2.82-0.27-5.3,0.7-7.86,1.21c-2.86,0.57-6.07-0.48-8.91-0.6c-3.94-0.18-7.86-0.45-11.76-0.45c-1.74,0-3.64,0.6-5.31,0.31c-1.52-0.27-2.84-1.13-4.39-1.09c-0.03-0.19-0.04-0.39-0.02-0.58"/><path fill="#cd9771" fill-opacity="1" d="M153.08,269.19c5.63,6.78,10.19,15.23,19.32,17.54c3.78,0.96,7.28,2.02,11.27,2.23c2.11,0.11,4.45-0.26,6.46-0.87c1.64-0.5,3.49-1.06,5.03-1.81c3.94-1.92,7.54-2.91,10.09-6.77c1.71-2.58,4.18-7.42,4.09-10.72c-1.21,2.48-6.04,3.72-8.59,4.22c-3.6,0.71-7.24,1.51-10.84,2.35c-2.67,0.62-5.64,1.33-8.4,1.05c-3.99-0.4-8.38-1.01-12.07-2.5c-3.53-1.42-7.47-1.11-11-2.13c-1.93-0.55-4.48-1.13-5.82-2.76"/></g></svg>