<svg id="s56e84701b0b58" class="face" xmlns="http://www.w3.org/2000/svg" xmlns:xlink="http://www.w3.org/1999/xlink" x="0px" y="0px" width="357px" height="358px" viewBox="0 0 357 358"><path fill="#763b29" d="M268.5,189.04c-1.41-1.92-2.86-2.74-4.22-2.91c-3.96-0.47-7.28,4.62-7.28,4.62c2.38-21.04,0-32.96,0-32.96c-16.83-65.56-65.84-69.37-76.8-69.39c-0.71,0.02-1.44,0.04-2.2,0.06c-54,1.42-71.5,44.58-71.5,44.58c-9,12.5-4,61.55-4,61.55c-21-12.95-1.5,45.45-1.5,45.45c5,13.5,8,1,8,1c2.88,12.67,6.63,23.41,10.9,32.53c0.85,44.99,1.74,68.73,1.44,83.43c23.33,0,116.79,0,123.83,0l1.52-85.32c6.58-17.33,7.31-32.14,7.31-32.14c2.5,3,6.5,1.5,6.5,1.5C272.75,234.79,268.5,189.04,268.5,189.04z M255.96,199.92C255.93,200.18,255.94,200.15,255.96,199.92L255.96,199.92z M256.22,197.67c0.03-0.3,0.07-0.64,0.11-1.01C256.29,197.01,256.25,197.35,256.22,197.67z M256.82,192.32c0.06-0.55,0.11-0.99,0.14-1.26C256.91,191.5,256.87,191.92,256.82,192.32z M265.33,190.26c-0.04-0.16-0.09-0.37-0.16-0.62c-0.13-0.5-0.31-1.2-0.54-2.1c0.22,0.86,0.4,1.58,0.54,2.1C265.24,189.9,265.29,190.1,265.33,190.26C265.47,190.79,265.48,190.83,265.33,190.26z"/><path fill="#713624" d="M125.25,227.25c4.5-6.5,6.97-8.84,12.65-10c4.87-0.99,13.28-2.45,17.35-5.75c9.63-7.79,13.17-20.35,5.59-28.43c-4.32-4.6-7.03-7.3-13.05-8.81c-4.83-1.22-11.04-2.16-15.05-6.1c-7.84-7.69-11.29-20.73-10.82-31.2c0.41-8.95,9.17-18.79,15.15-24.83c7.04-7.12,15.71-14.12,23.72-20.42c-40.38,8.84-54.04,42.51-54.04,42.51c-9,12.5-4,61.55-4,61.55c-21-12.95-1.5,45.45-1.5,45.45c5,13.5,8,1,8,1c2.89,12.7,6.64,23.46,10.93,32.59c-0.78,38.87,1.32,70.54,1.15,83.21c7.79,0.1,53.6-30.51,61.45-32.32C179.16,318.81,113.75,264.75,125.25,227.25z"/><g class="eyes eyes-2"><path fill="#ffffff" fill-opacity="0.7" d="M126.5,210.5c2.81,0.68,5.07,2.41,7.83,2.96c2.77,0.55,5.03,0.2,7.83,0.2c5.21,0.01,11.24-0.49,13.94-5.5c-2.65-1.28-5.08-2.56-8.09-3.18c-2.91-0.6-4.69-1.94-8.1-1.62c-2.42,0.23-5.64,1.2-7.7,2.33c-1.03,0.57-2.08,1.42-3.09,2.09c-0.77,0.51-3.44,1.54-1.95,2.54"/><path fill="#ffffff" fill-opacity="0.7" d="M198.33,208.67c1.55,0.8,2.67,2.38,4.17,3.34c1.33,0.85,2.97,1.33,4.5,1.83c2.69,0.87,5.48,0.66,8.33,0.66c2.91,0,5.66,0.02,8.38-0.82c1.53-0.47,5.29-1.01,5.94-2.68c-1.28-0.62-2.55-0.95-3.78-1.67c-1.18-0.69-2.16-1.7-3.37-2.5c-2.64-1.76-5.22-2.03-8.38-2.32c-2.9-0.27-6.6-1.19-9.58-0.47c-1.7,0.41-6.71,3.26-5.54,5.14"/><path fill="#4f2a1a" d="M134.5,205.5c-0.72,2.94,0.68,5.42,2.96,7.2c2.33,1.82,5.24,1.01,7.74-0.66c1.73-1.16,4.89-4.57,2.92-6.83c-1.55-1.78-6.41-1.49-8.62-1.55c-1.11-0.03-6.91,1.76-5.5,3.5"/><path fill="#4f2a1a" d="M208.17,205.17c-1.87,2.2-3.55,3.97-1.89,6.94c2.03,1.46,6.15,2.68,8.9,1.61c0.82-0.32,2.23-1.44,2.78-2.2c0.63-0.88,1.73-3.62,1.31-4.63c-1.05-2.52-6.23-2.38-8.44-2.38c-3.18,0-5.8,1.74-5.33,5.3c0.08,0.63,0.15,1.12,0.67,1.54"/></g><g class="eyebrows eyebrows-2"><path fill="#141615" fill-opacity="0.5" d="M114.33,186.5c-1.72,3.1-1.84,6.54-1.64,10.3c0.49-1.33,2.29-1.98,3.35-2.81c1.03-0.81,2.02-1.7,2.84-2.69c0.9-1.1,1.54-2.08,2.91-2.82c1.03-0.56,2.28-0.42,3.38-0.65c1.17-0.25,2.14-0.82,3.23-1.21c1.63-0.58,1.98-0.15,3.25,0.22c1.92,0.56,4.17,0.66,6.19,0.99c1.77,0.28,3.07,0.24,4.83,0c1.86-0.26,3.45,0.29,5.32,0.37c1.93,0.08,4.63-0.2,6.48,0.33c0.81,0.23,1.24,0.67,2.18,0.8c1.34,0.18,1.59,0.33,2.67,0.99c1.11,0.68,2.29,1.17,3.62,0.98c0.27-1.6,0.37-3.27,0.05-4.92c-0.23-1.2-0.14-1.36-0.78-2.42c-0.73-1.19-0.83-1.96-1.2-3.29c-0.79-2.85-1.95-3.28-4.35-4.18c-2.7-1.01-3.3-0.75-6.3-0.17c-2.22,0.43-4.56,0.42-6.83,0.33c-1.01-0.04-1.87-0.12-2.86-0.37c-1.45-0.36-2.75-0.27-4.22-0.5c-1.63-0.27-2.58-1.64-4.29-1.97c-1.81-0.35-3.98,0.65-5.49,1.51c-2.29,1.31-5.04,3.78-7.2,5.61c-1.96,1.66-3.37,4.92-5.47,6.05"/><path fill="#141615" fill-opacity="0.5" d="M190.33,180.17c-1.92,2.17-0.93,3.02-2.35,5.53c1.06,0.73,1.6,1.79,2.85,2.52c0.97,0.57,1.83,1.52,2.84,2c2.4,1.15,3.15-0.66,5.16-1.22c4.5-1.25,8.67,1.63,13.11,0.3c2.52-0.75,3.64-2.87,6.24-2.12c2.84,0.82,5.14,0.51,8.36,0.49c1.49-0.01,2.08,0.19,3.44,0.78c2.24,0.99,4.32,1.22,6.54,1.92c2.62,0.82,3.32,3.92,4.7,5.95c0.33,0.48,1.17,0.97,1.59,1.48c-0.04-1.68-0.57-2.51-1.13-3.96c-0.38-1-0.23-1.84-0.34-2.96c-0.25-2.53-1.1-4.41-3.17-5.7c-2.89-1.8-5.23-3.53-7.33-6.16c-1.53-1.91-2.79-2.62-5.15-3.35c-2.18-0.67-4.27-1.89-6.6-2.13c-2.37-0.25-3.27,1.12-5.28,1.81c-4.42,1.53-9.84,0.21-14.42,0.16c-1.02-0.01-2.78-0.35-3.75-0.02c-1.08,0.38-2.23,1.95-3.29,2.54c-0.85,0.48-2.34,0.97-3.01,1.67c-0.79,0.82-0.64,2.03-1.33,2.8"/></g><g class="chin chin-12"><path fill="none" stroke="#713624" stroke-miterlimit="10" d="M147.5,308c2.12,3.96,6.16,7.63,10.06,10.2c5.31,3.51,9.54,4.8,15.94,5.05c5.59,0.22,11.48,1.14,17.08,0.51c4.62-0.52,9.36-3.3,12.93-6.06c1.94-1.49,3.41-3.58,5.03-5.43c1.64-1.87,3.77-3.4,4.71-5.52"/></g><g class="hair hair-11"><linearGradient id="hair_56e84701b1b07" gradientUnits="userSpaceOnUse" x1="178.3511" y1="214.4145" x2="180.4139" y2="146.8902"><stop offset="0" style="stop-color:#141615;stop-opacity:0.1"/><stop offset="1" style="stop-color:#141615"/></linearGradient><path fill="url(#hair_56e84701b1b07)" fill-opacity="0.2" d="M257.1,191.8c2.4-21,0-33,0-33c-16.8-65.6-65.8-69.4-76.8-69.4c-0.7,0-1.4,0-2.2,0.1c-54,1.4-71.5,44.6-71.5,44.6c-9,12.5-4,61.5-4,61.5c0.6,7.9,4.9,14.7,7.9,20.2c0,0-1.5-32.7,1-41.7c0,0,16.5-21.4,9.8-46.4c0,0,42.6-3.1,69.9-5.6c0,0,35.3-2,42.8,6c0,0-4,18,3.5,34c0,0,12,20.5,14,39.5L257.1,191.8z"/></g><g class="facial-hair facial-hair-2002"><path fill="#141615" fill-opacity="0.4" d="M153,264c18.3-4.6,41.6-4.9,59.8,0c0-1-1.2-1-1.2-2C205.7,255.8,150.6,254,153,264z"/></g><g class="nose nose-12"><path fill="#6c311f" d="M186.01,198.89c-0.17,1.53-0.26,3.95-0.49,5.46c-0.58,3.86,0.9,6.29,0.88,10.24 c-0.02,6.65,6.48,12.91,4.38,19.46c-5.2-0.71-6.56-12.33-6.95-16.23c-0.33-3.31-1.14-7.11-1.01-10.49 c0.11-2.91,1.43-6.24,2.54-9.75C185.35,197.6,186.24,196.78,186.01,198.89z"/><path fill="#440900" d="M163.83,238.66c1.56-0.34,3.59-1.78,5.34-1.34c1,0.26,3.42,2.71,3.64,3.81c-1.2,0.21-2.4-1.68-3.61-2.01c-1.45-0.39-3.3-0.07-4.85-0.16c-0.05-0.24,0.07-0.26,0.15-0.47"/><path fill="#440900" d="M200.33,241.83c-1.46-1.29-9.87-3.33-9.14,0.31c1.54,0.17,3.47-0.72,5.17-0.8c1-0.05,1.28-0.07,2.19,0.29c0.84,0.33,1.5,1.32,2.29,0.2"/><path fill="none" stroke="#672c1a" stroke-miterlimit="10" d="M164.67,221.33c-3.17-0.23-7.46,3.32-8.63,6.17c-1.31,3.2,0.62,6.73,2.3,9.34c1.52,2.36,3.89,2.48,6.49,3.01c1.77,0.36,3.45,0.6,5.36,0.66c1.81,0.06,2.63,0.82,4.16,1.79c2.47,1.57,4.3,4.03,7.62,3.34c1.35-0.28,2.58-1.6,3.67-2.33c1.34-0.9,2.75-1.19,4.37-1.13c1.73,0.07,3.59,0.14,5.33,0.33c1.74,0.19,4.16,1.04,5.97,0.47c2.02-0.65,4.62-3.22,6.08-4.75c1.56-1.64,3.42-3.97,2.59-6.54c-0.36-1.11-1.9-2.74-2.62-3.67c-0.94-1.2-3.13-2.24-3.67-3.5"/></g><g class="mouth mouth-12"><path fill="#451715" d="M152.46,270.17c-2.79,0.96,3.26,4.86,3.97,5.26c1.37,0.76,2.81,1.17,4.33,1.58c1.08,0.3,2.09,0.74,3.21,0.92c1.03,0.16,1.58-0.17,2.49-0.17c1.36,0.01,2.41,0.77,3.87,0.78c1.18,0.01,1.72,0.36,2.74,0.5c1.06,0.14,1.71,0.01,2.79,0.25c1.14,0.26,2.4,0.27,3.51,0.22c1.77-0.09,3.55-0.1,5.09-0.76c2.3-0.99,5.21-0.27,7.72-0.99c1.52-0.43,3.28-1.05,4.95-1.23c1.16-0.12,2.39,0.09,3.57-0.12c1.12-0.2,1.45-1.09,2.64-1.66c0.76-0.36,1.9-0.78,2.53-1.31c3.84-3.28-8.58-7.73-10.54-8.28c-4.22-1.18-7.5,0.8-11.6,1c-2.41,0.12-4.74-0.01-7.13-0.13c-2.38-0.11-4.72-0.86-7.16-0.88c-3.05-0.01-5.46,1.67-8.36,2.15c-1.28,0.21-1.83,0.44-2.98,0.97C156.49,269.05,154.34,270.38,152.46,270.17"/><path fill="#D9A19D" d="M164.96,266.17c-3.59,1.64-2.22,5.06-1.5,7.99c0.29,1.17,0.72,2.88,1.78,3.61c0.75,0.52,2.05,0.65,2.99,0.78c2.04,0.28,3.88,1.07,5.9,1.46c3.74,0.72,6.09,0.46,9.57-0.87c1.98-0.75,3.87,0,5.88-0.37c2.59-0.47,5.36-1.98,7.13-3.72c1.42-1.39,2.09-2.19,2.02-4.24c-0.05-1.37-0.56-2.18-1.34-3.26c-2.13-2.93-7.09-1.8-10.29-1.63c-1.32,0.07-2.69-0.14-4,0c-0.69,0.08-1.41,0.4-2.12,0.47c-2.21,0.22-4.5-0.48-6.73-0.47c-2.19,0-4.2-0.37-6.4-0.38c-1.27,0-1.8,0.46-2.75,0.75"/><path fill="#E7C2AD" d="M157.08,269.67c0.01,1.51,0.24,2.37,1.12,3.62c0.72,1.02,1.2,2.38,2.23,3.14c0.76,0.57,2.08,0.65,3.03,0.28c1.04-0.4,1.89-1.93,2.84-2.2c0.89-0.25,2.74,1.37,3.63,1.85c1.71,0.93,2.55-0.16,4.3,0.09c1.63,0.23,2.52,1.43,4.24,0.97c1.33-0.35,2.18-0.78,3.47-0.53c1.46,0.28,2.96,0.96,4.5,0.78c1.29-0.15,2.34-0.93,3.69-1.15c1.21-0.19,2.52-0.14,3.69-0.38c0.71-0.14,1.45-0.76,2.15-0.85c1.83-0.23,3.17,0.99,5,0.07c0.73-0.37,3.03-1.29,3.41-1.93c0.67-1.14-0.26-3.06-1.06-3.78c-1.22-1.08-2-0.93-3.33-0.97c-1.14-0.03-2.29-1.17-3.39-0.86c-0.97,0.27-0.98,1.77-2.03,1.24c-0.62-0.31-0.94-1.83-1.71-2.13c-0.94-0.37-1.51,0.26-2.25,0.78c-0.39,0.27-0.87,0.74-1.28,0.94c-0.97,0.47-0.52,0.19-1.38-0.06c-1.44-0.43-2.62-1.03-4.23-1.03c-0.69,0-1.44-0.08-2.09,0.16c-0.52,0.19-0.88,0.75-1.41,0.86c-0.81,0.17-2.33-0.77-3.09-1.04c-0.9-0.32-1.69-0.4-2.77-0.34c-2.41,0.12-0.78,1.2-1.89,2.27c-1.1-0.71-2.06-1.43-3.49-1.65c-1.71-0.26-1.7,1.05-2.98,1.63c-1.35,0.61-2.26-0.28-3.42-0.63c-2.13-0.65-3.81,0.05-5.49,1"/><path fill="#a7696a" fill-opacity="0.9" d="M151.21,272.29c1.78,1.47,3.2,3.17,4.89,4.78c1.32,1.25,3.12,2.24,4.69,3.09c1.33,0.72,2.81,2.01,4.29,2.51c2.63,0.9,6.31,1.11,9.14,0.87s5.71,0.15,8.61,0.35c1.66,0.11,3.2-0.54,4.88-0.47c1.04,0.04,2,0.19,2.99-0.01c2.57-0.51,4.43-1.87,6.47-3.4c0.9-0.68,1.93-1.53,2.91-2.09c1.1-0.62,2.11-0.74,3.09-1.66c1.09-1.02,4.24-3.09,4.02-4.67c-0.78-0.1-1.05,0.64-1.6,1.07c-0.73,0.58-1.48,0.81-2.34,1.13c-1.04,0.39-1.98,0.85-3.15,0.97c-1.38,0.14-2.83-0.2-4.12,0.31c-1.43,0.56-2.34,1.22-3.95,1.44c-2.94,0.41-6.01,0.1-8.96,0.52c-1.2,0.17-2.41,0.51-3.72,0.38c-1.08-0.11-2.11-0.61-3.15-0.76c-1.84-0.27-3.79,0.01-5.63-0.12c-1.49-0.1-2.88-0.65-4.36-0.9c-1.26-0.22-2.37-0.16-3.63-0.1c-4.03,0.2-7.7-2.85-11.12-4.46c0.78,0.6,0.03,1.25-0.01,1.96"/><path fill="#6c311f" d="M150.96,270.54c1.17,0.11,2.08-1.17,3.12-1.66c1.39-0.65,2.94-0.37,4.23-1.1c1.13-0.63,1.77-1.31,3.05-1.72c1.5-0.48,2.38-1.61,3.79-2.03c0.86-0.25,1.83-0.13,2.69-0.37c0.87-0.24,1.74-0.78,2.68-0.99c1.59-0.37,2.93,0.04,4.44,0.26c1.72,0.25,3.4-0.1,4.84,0.87c0.77,0.52,0.43,0.81,1.54,0.61c0.66-0.12,1.65-0.71,2.26-1.04c2.35-1.26,5.58-1.03,8.28-0.71c1.17,0.14,1.93,0.54,2.97,0.88c1.22,0.4,2.51,0.35,3.57,1.02c1.8,1.13,3.34,2.9,5.12,4.09c1.19,0.79,4.56,2.08,5.02,3.36c-1.6,0.11-2.21,0.16-3.51-0.6c-1.16-0.67-2.36-1.33-3.58-1.98c-2.48-1.33-5.71-1.52-8.39-2.17c-1.46-0.35-2.95-0.59-4.52-0.61c-1.53-0.02-2.18,1.02-3.49,1.5c-0.77,0.28-1.65,0.39-2.38,0.79c-0.51,0.28-0.85,0.71-1.37,0.93c-1.49,0.63-1.92-0.65-3.24-1.07c-0.86-0.27-2.02-0.24-2.93-0.42c-1.53-0.31-3.04-0.18-4.59-0.25c-1.42-0.07-2.3-0.06-3.6,0.41c-1.18,0.43-2.51,0.88-3.73,1.22c-2.42,0.66-5.04,0.97-7.5,1.38c-1.05,0.17-2.26-0.23-3.28,0.02c-1.25,0.31-1.07,0.94-1.37-0.74"/></g></svg>