<svg id="s5c3d008d6ada8" class="face" xmlns="http://www.w3.org/2000/svg" xmlns:xlink="http://www.w3.org/1999/xlink" x="0px" y="0px" width="357px" height="358px" viewBox="0 0 357 358"><path fill="#f1996b" d="M268.5,189.04c-1.41-1.92-2.86-2.74-4.22-2.91c-3.96-0.47-7.28,4.62-7.28,4.62c2.38-21.04,0-32.96,0-32.96c-16.83-65.56-65.84-69.37-76.8-69.39c-0.71,0.02-1.44,0.04-2.2,0.06c-54,1.42-71.5,44.58-71.5,44.58c-9,12.5-4,61.55-4,61.55c-21-12.95-1.5,45.45-1.5,45.45c5,13.5,8,1,8,1c2.88,12.67,6.63,23.41,10.9,32.53c0.85,44.99,1.74,68.73,1.44,83.43c23.33,0,116.79,0,123.83,0l1.52-85.32c6.58-17.33,7.31-32.14,7.31-32.14c2.5,3,6.5,1.5,6.5,1.5C272.75,234.79,268.5,189.04,268.5,189.04z M255.96,199.92C255.93,200.18,255.94,200.15,255.96,199.92L255.96,199.92z M256.22,197.67c0.03-0.3,0.07-0.64,0.11-1.01C256.29,197.01,256.25,197.35,256.22,197.67z M256.82,192.32c0.06-0.55,0.11-0.99,0.14-1.26C256.91,191.5,256.87,191.92,256.82,192.32z M265.33,190.26c-0.04-0.16-0.09-0.37-0.16-0.62c-0.13-0.5-0.31-1.2-0.54-2.1c0.22,0.86,0.4,1.58,0.54,2.1C265.24,189.9,265.29,190.1,265.33,190.26C265.47,190.79,265.48,190.83,265.33,190.26z"/><path fill="#ec9466" d="M125.25,227.25c4.5-6.5,6.97-8.84,12.65-10c4.87-0.99,13.28-2.45,17.35-5.75c9.63-7.79,13.17-20.35,5.59-28.43c-4.32-4.6-7.03-7.3-13.05-8.81c-4.83-1.22-11.04-2.16-15.05-6.1c-7.84-7.69-11.29-20.73-10.82-31.2c0.41-8.95,9.17-18.79,15.15-24.83c7.04-7.12,15.71-14.12,23.72-20.42c-40.38,8.84-54.04,42.51-54.04,42.51c-9,12.5-4,61.55-4,61.55c-21-12.95-1.5,45.45-1.5,45.45c5,13.5,8,1,8,1c2.89,12.7,6.64,23.46,10.93,32.59c-0.78,38.87,1.32,70.54,1.15,83.21c7.79,0.1,53.6-30.51,61.45-32.32C179.16,318.81,113.75,264.75,125.25,227.25z"/><g class="eyes eyes-14"><path fill="#ffffff" fill-opacity="0.7" d="M221.18,197.8c-0.65-0.39-1.29-0.73-1.93-1.03c-0.03,1.04-0.09,2.12-0.46,2.86c-0.78,1.54-3.02,2.85-4.5,3.66c-1.9,1.03-3.99,1.19-5.78-0.03c-1.41-0.96-3.77-2.77-4.47-4.41c-0.2-0.46-0.27-0.98-0.25-1.52c-2.38,1.37-3.84,3.33-5.61,5.17c2,1.26,5.11,2.19,7.5,2.5c2.7,0.35,5.76-0.15,8.34-0.54c2.31-0.34,4.29-1.69,6.49-1.96c1.5-0.19,2.8-0.58,4.17-0.84c1.3-0.24,2.36,0.54,3.62,0.34C225.63,201.67,223.38,199.12,221.18,197.8z"/><path fill="#806530" d="M204.03,198.85c0.69,1.63,3.06,3.45,4.47,4.41c1.79,1.22,3.89,1.06,5.78,0.03c1.48-0.8,3.72-2.12,4.5-3.66c0.37-0.74,0.43-1.82,0.46-2.86c-1.99-0.93-4.01-1.43-6.41-1.43c-3.39,0-5.89,0.25-8.83,1.86c-0.08,0.04-0.14,0.09-0.22,0.13C203.76,197.87,203.83,198.38,204.03,198.85z"/></g><g><path fill="#ffffff" fill-opacity="0.7" d="M157.67,197.54c-0.26-0.16-0.53-0.3-0.8-0.44c-0.06,0.67-0.22,1.38-0.34,2.15c-0.35,2.35-1.63,3.33-3.37,4.9c-1.73,1.57-3.23,2.08-5.66,1.6c-4.51-0.89-6.85-4.89-6-9.13h-0.13c-0.47-0.24-0.56-0.62-0.43-1.05c-2.71,1.05-5.11,2.85-6.73,5.35c0.68,1.39,4.13,2.87,5.62,3.58c2.85,1.36,4.65,2.04,7.84,2.16c2.55,0.1,5.14-0.89,7.37-1.82c2.87-1.2,4.15-2.95,7.45-3.21C160.88,200.34,159.45,198.63,157.67,197.54z"/><path fill="#806530" d="M141.38,196.63h0.13c-0.85,4.24,1.49,8.24,6,9.13c2.43,0.48,3.93-0.02,5.66-1.6c1.73-1.58,3.02-2.55,3.37-4.9c0.12-0.77,0.28-1.48,0.34-2.15c-1.79-0.89-3.89-1.38-5.7-1.93c-3.32-1.02-6.99-0.84-10.22,0.41C140.82,196.01,140.9,196.39,141.38,196.63z"/></g><g class="eyebrows eyebrows-11"><path fill="#764932" fill-opacity="0.4" d="M110.5,195.67c0.83-3.17,4.41-7.04,6.63-9.37c1.53-1.6,3.78-2.51,5.37-4.13c1.43-1.47,2.82-2.57,4.47-3.79c5.14-3.83,11.26-2.4,17.14-3.54c4.69-0.91,10.05-0.3,14.18,1.93c3.42,1.85,5.55,2.89,5.68,6.88c-4.4,2.82-9.13,3.71-14.54,3.7c-2.54-0.01-4.64,0.38-6.96-0.45c-1.98-0.71-3.92-0.82-5.93-1.19c-2.14-0.4-4.47-1.46-6.67-1.2c-2.21,0.26-4.48,1.67-6.53,2.49c-3.84,1.54-6.55,4.22-10.13,6.35c-1.48,0.89-2.34,1.86-3.54,3"/><path fill="#764932" fill-opacity="0.4" d="M202,173c-4.71-0.38-9.26,3.05-12,6.5c-0.87,1.1-2.36,2.65-2.17,4.17c0.25,2.06,2.59,2.9,4.34,3c4.75,0.27,8.63-3.17,13.49-3.17c1.64,0,3.2,0.11,4.8,0.17c1.86,0.06,3.39-0.55,5.16-0.84c2.42-0.4,4.45-1.15,6.89-1.66c3.33-0.7,5.03,0.07,7.97,1.68c1.99,1.09,4.5,2.26,6.17,3.83c1.73,1.62,2.01,2.64,4.5,1.96c-0.09-1.35-2.05-3.33-2.85-4.47c-0.81-1.15-1.86-2.13-2.75-3.22c-2.31-2.82-4.34-5.22-7.88-6.47c-4.55-1.61-8.23-1.4-13.03-1.11c-3.87,0.23-8.11-1.4-11.96-0.72c-0.62,0.11-1.2,0.56-1.84,0.68"/></g><g class="hair hair-3008"><path fill="#764932" d="M108,207c-1.93-4.13,0.11-9.13,0.34-13.33c0.29-5.15,0.39-8.29,2.62-12.99c3.41-7.23,15.44-13.53,14.19-22.29c-4.21,0.35-3.78-1.15-3.99-4.68c-3.21,0.19-0.48-7.48,0.51-9.37c2.37-4.51,9.66-5.58,13.48-8.26c4.77-3.34,8.52-4.31,14.48-4.42c5.39-0.09,10.82-2.24,15.65-0.33c4.12,1.63,8.04,3.83,12.09,5.36c5.61,2.12,9.5-2.24,14.51-4.03c6.38-2.29,18.23-3.16,24.87-0.93c7.59,2.55,15.65,9.56,19.22,16.94c1.39,2.88,1.03,6.6,2.02,9.68c1.15,3.61,3.7,5.67,6.03,8.72c4.1,5.37,8.54,10.42,8.54,17.33c0,7.75,3.24,14.3,4.33,21.67c0.1,0.68,0.12,1.4,0,2.05c-2.38-8.34,0.12-14.74,2.52-22.21c2.34-7.29,1.26-15.99,1.27-23.66c0.01-5.91-2.81-10.76-3.63-16.53c-0.6-4.21-0.5-7.73-2.13-11.73c-3.57-8.76-5.35-11.67-10.49-19.33C233.61,98.56,209.3,81.96,189.1,82c-8.64,0.02-18.15-1.2-26.78,0.39c-4.36,0.8-8.41,2.1-12.84,2.6c-3.58,0.4-5.89,2.12-9.58,2.67c-1.47,0.22-5.04-0.01-6.12,0.75c-1.43,1.01-0.56,1.43-1.08,2.91c-1.35,3.89-2.91,3.44-6.01,5.98c-2.77,2.27-5.95,5.27-8.84,7.73c-2.23,1.9-3.57,4.97-5.87,6.64c3.32,2.63-3.13,6.14-3.93,8.98c-0.93,3.29-0.78,7.15-1.4,10.26c-1.62,8.08-8.09,13.77-8.49,22.35c-0.34,7.28-0.32,14.72-0.68,22.05c-0.38,7.67,0.48,14.03,2.45,21.27c0.71,2.6,2.39,4.49,3.04,7.06c0.93,3.69,1.14,4.59,3.92,7.25c-0.06-1.25,0.17-2.52,0.75-3.57"/><path fill="#8a5d46" d="M137.45,108.33c-3.95,3.37-8.99,5.19-12.7,9.32c2.43-1.32,5.22-2.78,7.92-3.23c0.28,1.38-0.05,2.77-1,3.81c0.42-0.15,0.86-0.25,1.31-0.29c-0.07,4.42-4.71,6.86-7.06,10.09c-1.65,2.27-3.21,5.2-4.49,7.72c-2.17,4.25-4.33,6.25-7.81,9.48c-2.65,2.47-6.12,4.41-7.7,7.79c-1.42,3.06-2.04,6.69-3.77,9.61c-0.82-2.19,1.44-3.98,3.15-5.36c1.3,1.02,1.31,2.77,0.45,4.12c0.68-0.22,2.3,0.13,3.02,0c1.05,3.72-1.99,8.2-1.77,12.26c2.63-1.79,9.46-7.98,10.82-11.24c-2.23,0.43-4.46,1.06-6.75,0.9c-0.44-2.91,2.74-5.25,2.59-8.38c-0.55,0.1-1.14-0.01-1.69,0.16c-0.26-5.05,6.41-11.19,9.72-14.7c5.31-5.62,8.8-11.8,13.61-17.72c-0.23,0.05-0.32,0.3-0.57,0.39c-1.11-2.26,1.71-5.52,1.7-8.17c-0.02-3.08-1.07-5.14,1.69-7.23"/><path fill="#8a5d46" d="M170.28,128.33c-4.28-3.01-8.31-6.7-13.18-8.77c3.88-1.56,8.36,2.87,12.34,2.85c-3.46-3.59-7.51-7.42-11.31-10.81c-1.4-1.25-2.7-2.32-4.47-2.94c4.2,1.22,8.86,2.9,12.93,4.39c1.07,0.39,2.19,0.67,3.15,1.64c-3.18-2.28-5.97-6.14-7.42-9.71c4.59,2.9,8.18,7.22,13.67,8.69c-0.96-3.07-2.01-6.36-2.98-9.3c2.05,0.68,4.18,1.19,6.35,1.38c-3.43-2.41-7.28-5.37-8.82-9.34c3,3.64,12.02,8.13,16.84,8.76c-1.64-3.44-3.8-6.42-5.79-9.53c3.11,2.76,7.59,4.53,11.08,6.59c1.32,0.78,2,1.8,3.63,1.71c0.62-3.48-6-8.33-8.08-10.26c4.23,3.82,8.45,7.65,12.6,11.53c2.48,2.32,6.46,3.6,8.54,6.18c-0.77-3.74-4.49-8.1-6.61-11.35c1.89-0.29,3.75,0.93,5.48,1.54c2.73,0.96,5.87,1.14,8.49,2.08c1.89,0.68,3.75,1.26,5.63,1.95c4.78,1.75,10.91,6.34,14.66,9.72c1.16,1.05,1.88,2.5,2.57,3.71c-2.46-4.74-8.52-8.14-14.05-6.98c2.51,3.63,2.83,7.2,4.54,11.01c-2.86-2.71-6.66-3.99-9.6-6.55c-2.23-1.94-3.1-3.68-6.62-3.27c0.57,1.39,2.3,4.04,3.61,5.07c-2.46,2.07-4.35-0.22-5.93-2.02c-3.1-3.53-3.33-4.41-8.35-5.03c-2.5-0.31-5.13,0.09-7.57-0.76c3.57,1.13,8.39,3.58,10.97,6.5c-4.69,2.4-11.98-5.09-16.18-6.7c1.77,2.46,5.06,4.2,6.15,7.08c-4.91,1.29-9.51-3.62-13.04-5.65c1.78,3.23,4.76,5.74,7.28,8.31c-4.04,1.47-8.53-2.76-11.85-4.55c0.15,1.8,1.3,3.45,2.03,5.17c-3.37-0.38-6.33-2.13-9.71-2.24c0.99,1.05,1.86,2.17,2.8,3.28c-1,0.45-2.26,0.27-3.26-0.4c0.43,0.79,3.03,3.88,2.12,5.03c-0.91,1.15-2.22,0.48-3.11-0.66c0.66,1.44,1.76,3.05,2.84,4.28c-1.67-0.02-2.4-1.05-3.04-2.62"/></g><g class="facial-hair facial-hair-1"><path fill="#764932" fill-opacity="1" d="M147.25,311.75c3.11,10.09,12.48,20.35,22.69,23.05c5.45,1.44,11.47,1.01,17.25,0.95c6.14-0.07,11.24,0.31,16.07-3.69c3.49-2.89,8.95-6.5,11.24-10.36c1.17-1.98,4.49-13.49,1.25-14.39c-1.45,2.99-2.97,4.79-4.81,7.42c-1.39-0.62-3.1,0.85-4.19,1.54c-0.48,0.3-1.05-0.28-1.56,0.17c-1.02,0.9-0.51,2.73-1.63,3.57c-0.78,0.58-2.25,0.75-3.31,0.46c-0.75-0.21-1.29-1.05-2.04-1.22c-1.69-0.37-3.92,0.06-5.72,0.26c-2.5,0.28-4.2,0.24-6.72-0.25c-2-0.39-3.77-1.29-5.47-1c-1.55,0.27-2.16,1.02-4.25,0.68c-2.31-0.36-4.62-1.82-7.05-2.21c-1.38-0.22-3.04,0.86-4.47,0.52c-1.14-0.27-1.86-1.34-3.07-1.7c-1.9-0.57-3.91,0.21-5.84-0.5c-1.44-0.53-2.13-1.54-3.37-2.39c-0.68-0.47-4.26-2.78-5.06-2.61c-0.14-0.04-0.28-0.08-0.41-0.14c0.58,0.62,1.47,1.88,1.22,3.08"/><path fill="#764932" fill-opacity="1" d="M171.9,257.15c-2.26-0.13-4.23,1.56-6.36,1.9c-1.14,0.18-2.68-0.22-4-0.01c-1.92,0.31-2.16,1.13-3.7,1.87c-1.82,0.88-15.52,5.13-12.47,8.11c1.46-0.32,3.41-1.34,4.08-2.69c4.06-0.67,7.69-3.38,11.75-3.77c2.31-0.22,5.38-0.34,7.45,0.04c1.46,0.26,1.84,0.98,3.67,0.61c1.43-0.29,2.88-0.95,4.25-1.32c3.92-1.04,6.7,0.1,10.52,0.09c3.21-0.01,5.57,1.05,8.62,1.22c3.63,0.2,6.62,1.61,10.22,2.09c4.98,0.66,9.97,2.9,15.11,2.34c0.09-3.37-7.08-4.52-9.43-5.08c-2.58-0.61-4.95-1.29-7.5-1.8c-1.35-0.27-2.46-0.67-3.77-1.09c-1.81-0.57-1.5-0.33-3.52-0.08c-2.02,0.25-4.22-0.48-6.13-1.02c-2.56-0.72-4.83-0.19-7.49-0.66c-3.62-0.64-8.33-4.08-11.57-1"/></g><g class="nose nose-21"><path fill="#e78f61" d="M186.01,198.89c-0.17,1.53-0.26,3.95-0.49,5.46c-0.58,3.86,0.9,6.29,0.88,10.24 c-0.02,6.65,6.48,12.91,4.38,19.46c-5.2-0.71-6.56-12.33-6.95-16.23c-0.33-3.31-1.14-7.11-1.01-10.49 c0.11-2.91,1.43-6.24,2.54-9.75C185.35,197.6,186.24,196.78,186.01,198.89z"/><path fill="#bf6739" d="M162.63,247.25c1.69-1.11,2.96-2.59,5.26-2c0.68,0.18,3.84,1.33,3.47,2.47c-0.55,1.74-9.18,1.2-8.98-0.47"/><path fill="#bf6739" d="M185,246.13c1.59-0.98,3.93-1.6,5.62-0.72c0.94,0.49,4.06,1.96,2.5,3.07c-1.33,0.95-3.51-0.57-4.65-0.94c-0.77-0.25-1.65-0.11-2.38-0.38c-0.73-0.27-1.56-1.18-0.47-1.66"/><path fill="none" stroke="#e28a5c" stroke-miterlimit="10" d="M161.38,230.88c-3.2,3.47-6.95,7.96-5.75,13.12c0.39,1.67,1.64,3.93,3.34,4.66c1.49,0.65,3.62,0.29,5.26,0.61c1.4,0.27,2.54,0.6,4.04,0.72c1.48,0.12,3.37-0.2,4.85,0.13c0.94,0.21,1.67,1.01,2.56,1.41c1.44,0.64,4.01,1.29,5.58,1.22c1.49-0.07,2.46-0.78,3.69-1.47c2.93-1.64,6.72-0.89,9.95-0.78c2.39,0.08,5.64-0.44,7.22-2.26c2.62-2.99-0.16-7.34-1.59-10.34c-1.1-2.3-2.29-2.99-3.88-5.1c-2.03-2.68-4.55-8.49-5.03-11.56"/></g><g class="mouth mouth-26"><path fill="#F2E7DC" d="M151.5,267.5c1.875-2.375,3.625-2.438,6.375-2.75c1.875-0.188,4.063,0.063,5.938,0.25 c1.938,0.188,3.875,0.063,5.75,0.375c2,0.25,3.938,0.375,5.938,0.438c3.938,0.125,7.938,0.563,11.938,0 c1.75-0.25,3.438-0.25,5.25-0.375c1.5-0.063,3-0.5,4.563-0.438c1.813,0.063,4.063,0.438,5.75,1.063 c0.938,0.313,1.5,0.75,2.375,1.25c0.625,0.375,1.938,0.5,2.375,1c1.688,1.875-7.375,4.563-8,4.813 c-3.875,1.438-7.25,3.75-10.938,5.375c-2.5,1.063-5.438,1.688-8.125,1.875c-5.5,0.438-10.625-0.875-15.938-1.75 c-2.375-0.438-3.875-1.5-5.438-3.25c-0.75-0.813-1.563-1.813-2.375-2.438c-0.75-0.563-1.563-0.75-2.25-1.375 c-1.188-1-2.75-2.688-2.875-4.25"/><path fill="#a7696a" fill-opacity="0.9" d="M149,267.6c0.8,3.3,2.2,6.6,3.5,9.8c1.3,3.2,2.9,5.9,5.6,8.1c5.2,4.4,13.3,4.8,19.9,4.2 c3.4-0.3,6.9-0.8,10.3-1.5c4.7-1.1,8.2-4.7,11.7-7.9c2.4-2.3,5.2-4.4,7.2-7.1c0.8-1,1.2-2.2,1.7-3.4c0.4-1.1-0.4-0.9-0.2-2.1 c-1.4,0.2-1.3,0-2.7,0.4c-1.8,0.4-2.9,0.8-4.3,2c-1.5,1.2-3.1,1.8-4.7,2.8c-1.4,0.9-2.9,1.2-4.4,1.9c-1.4,0.8-2.5,1.9-4.2,1.9 c-1.5,0.1-2.9-0.4-4.4-0.4c-3.2-0.2-6.4,0.6-9.5,0.2c-2.8-0.4-6,0.1-8.5-1.1c-1.5-0.6-3-0.9-4.5-1.5c-1.6-0.7-4.3-2.9-5.5-3.9 c-2.1-1.7-4.4-3.5-7.2-2.4"/><path fill="#e78f61" d="M152.6,264.3c6.8-1.1,12.9-3.1,19.9-2.7c1,0,1.9,0,2.9,0.3c1,0.3,2.4,1.8,2.9,1.8c2.2,0,4.6-1.5,6.8-2 c4.4-1.2,11.6-0.5,15.6,1.4c3.1,1.3,7.3,2.2,8.5,5.7c-5.1-0.3-7.7-2-12.8-2.1c-5.1-0.1-10.4-0.4-15,1c-3.6,0.9-3.9,0.9-7.3,0.1 c-2.4-0.5-5.1-0.6-7.3-0.9c-5.1-0.8-6.7,0.3-11.5-0.2c-1.5,0-5.4,1.5-6.6,0.8C150.3,267.1,151.2,264.5,152.6,264.3"/></g></svg>