<svg id="s539e7850bb537" class="face" xmlns="http://www.w3.org/2000/svg" xmlns:xlink="http://www.w3.org/1999/xlink" x="0px" y="0px" width="357px" height="358px" viewBox="0 0 357 358"><path fill="#51332b" d="M268.5,189.04c-1.41-1.92-2.86-2.74-4.22-2.91c-3.96-0.47-7.28,4.62-7.28,4.62c2.38-21.04,0-32.96,0-32.96c-16.83-65.56-65.84-69.37-76.8-69.39c-0.71,0.02-1.44,0.04-2.2,0.06c-54,1.42-71.5,44.58-71.5,44.58c-9,12.5-4,61.55-4,61.55c-21-12.95-1.5,45.45-1.5,45.45c5,13.5,8,1,8,1c2.88,12.67,6.63,23.41,10.9,32.53c0.85,44.99,1.74,68.73,1.44,83.43c23.33,0,116.79,0,123.83,0l1.52-85.32c6.58-17.33,7.31-32.14,7.31-32.14c2.5,3,6.5,1.5,6.5,1.5C272.75,234.79,268.5,189.04,268.5,189.04z M255.96,199.92C255.93,200.18,255.94,200.15,255.96,199.92L255.96,199.92z M256.22,197.67c0.03-0.3,0.07-0.64,0.11-1.01C256.29,197.01,256.25,197.35,256.22,197.67z M256.82,192.32c0.06-0.55,0.11-0.99,0.14-1.26C256.91,191.5,256.87,191.92,256.82,192.32z M265.33,190.26c-0.04-0.16-0.09-0.37-0.16-0.62c-0.13-0.5-0.31-1.2-0.54-2.1c0.22,0.86,0.4,1.58,0.54,2.1C265.24,189.9,265.29,190.1,265.33,190.26C265.47,190.79,265.48,190.83,265.33,190.26z"/><path fill="#4c2e26" d="M125.25,227.25c4.5-6.5,6.97-8.84,12.65-10c4.87-0.99,13.28-2.45,17.35-5.75c9.63-7.79,13.17-20.35,5.59-28.43c-4.32-4.6-7.03-7.3-13.05-8.81c-4.83-1.22-11.04-2.16-15.05-6.1c-7.84-7.69-11.29-20.73-10.82-31.2c0.41-8.95,9.17-18.79,15.15-24.83c7.04-7.12,15.71-14.12,23.72-20.42c-40.38,8.84-54.04,42.51-54.04,42.51c-9,12.5-4,61.55-4,61.55c-21-12.95-1.5,45.45-1.5,45.45c5,13.5,8,1,8,1c2.89,12.7,6.64,23.46,10.93,32.59c-0.78,38.87,1.32,70.54,1.15,83.21c7.79,0.1,53.6-30.51,61.45-32.32C179.16,318.81,113.75,264.75,125.25,227.25z"/><g class="eyes eyes-10"><path fill="#ffffff" fill-opacity="0.7" d="M195.13,196.5c1.71,1.33,3.54,3.27,5.64,3.85c1.54,0.42,3.17,0.3,4.73,0.53c1.2,0.18,2.29,0.61,3.49,0.75c2.65,0.29,4.42-0.53,6.67-1.75c1-0.54,1.81-1.42,2.85-1.85c0.84-0.35,1.92-0.33,2.84-0.54c-1.63-2.13-3.14-3.7-5.71-4.48c-2.6-0.79-5.73-1.12-8.51-1.5c-2.66-0.37-4.58,0.54-7.06,1.1c-1.11,0.25-1.84,0.37-2.75,1.15c-0.82,0.7-1.35,1.89-2.3,2.41c0.08,0.09,0.24,0.27,0.37,0.35"/><path fill="#ffffff" fill-opacity="0.7" d="M137.63,195.5c1.22-2.65,5.91-4.11,8.37-4.66c3.42-0.75,7.81-2.03,11.15-0.51c1.47,0.67,6.57,3.94,5.15,5.83c-0.93,1.23-4.18,2-5.53,2.58c-1.12,0.48-2.23,0.77-3.38,1c-3.13,0.63-6.8,0.5-9.52-1.24c-1.87-1.19-5.02-1.89-6.35-3.63"/><path display="inline" fill="#402a13" d="M145.75,191c-0.52,2.26-1.77,4.87,0.25,6.76c0.67,0.63,1.79,1.4,2.62,1.78c1.36,0.62,2.34,0.13,3.66-0.16c2.18-0.48,4.67-1.7,4.34-4.51c-0.29-2.46-2.17-4.99-4.75-5.25c-1.67-0.17-4.98,0.3-6.25,1.38"/><path fill="#402a13" d="M205.75,191.5c-3.11-0.07-4.13,3.74-2.97,6.1c1.06,2.15,3.24,3.29,5.47,3.39c1.58,0.07,1.54-0.04,2.75-0.97c1.21-0.92,1.8-1.29,1.63-3.03c-0.19-1.89-2.16-4.76-4.09-5.37c-0.84-0.27-2.86-0.62-3.41,0.13"/></g><g class="eyebrows eyebrows-3"><path fill="#0e0e0c" fill-opacity="0.7" d="M194.58,187.67c1.3-1.97,2.42-3.64,4.49-4.98c1-0.65,1.66-0.79,2.86-0.84c0.53-0.02,1.37-0.5,2.04-0.54c0.43-0.02,0.77,0.14,1.28,0.19c1.4,0.15,2.77-0.26,3.9-0.91c0.64-0.37,1.54-0.73,2.27-0.76c1.18-0.05,2.77-0.15,3.93,0.15c0.65,0.17,1.24,0.41,2.07,0.26c0.78-0.14,1.48-0.5,2.27-0.58c1.43-0.14,2.23,0.86,3.65,1c4.15,0.42,7.04,3.4,10.23,5.89c1.79,1.39,3.05,2.91,4.29,4.7c0.25,0.36,0.71,0.69,0.9,1.06c0.15,0.28,0.17,0.63,0.33,0.91c0.13,0.22,0.52,0.44,0.6,0.69c0.21,0.66-0.1,0.4-0.36,0.94c-0.22,0.45-0.23,0.9-0.01,1.39c-0.23,0.11-1.15,0.04-1.32-0.14c-0.32-0.33-0.06-0.82-0.32-1.19c-0.36-0.52-1.17-0.35-1.61-0.6c-0.4-0.23-0.53-0.78-0.81-1.12c-0.48-0.57-1.27-0.96-1.93-1.36c-0.89-0.54-1.7-1.23-2.63-1.68c-0.53-0.26-0.98-0.23-1.56-0.33c-0.58-0.1-1.11-0.37-1.64-0.69c-1.2-0.71-2.02-1.83-3.41-2.06c-0.91-0.15-1.85-0.19-2.77-0.31c-1.12-0.15-2.06,0.43-3.21,0.31c-0.83-0.08-1.97-0.48-2.78-0.32c-0.43,0.09-0.84,0.58-1.23,0.76c-0.64,0.29-1.47,0.5-2.17,0.56c-0.92,0.09-1.72-0.16-2.62-0.17c-0.53,0-1.2-0.1-1.72,0c-0.72,0.13-1.36,0.61-2.07,0.59c-0.73-0.02-1.42-0.36-2.19-0.11c-0.41,0.14-0.67,0.51-1.15,0.67c-0.67,0.22-1.45,0.24-2.14,0.27c-0.33,0.02-0.77-0.08-1.1-0.01c-0.33,0.08-0.6,0.42-0.92,0.51c-0.62,0.17-4.54-0.52-3.77-2.01c0.06-0.12,0.45-0.3,0.59-0.33"/><path fill="#0e0e0c" fill-opacity="0.7" d="M122.42,194.75c0.14-0.88,1.48-1.64,2.07-2.35c0.29-0.35,0.5-0.77,0.76-1.15c0.17-0.25,0.38-0.45,0.54-0.71c0.68-1.09,1.41-1.41,2.41-2.2c0.83-0.66,1.53-1.59,2.41-2.25c0.98-0.73,2.13-1.24,3.23-1.82c0.65-0.34,1.71-1.5,2.43-1.57c0.55-0.05,0.41,0.27,0.81,0.38c0.43,0.12,0.77-0.07,1.1-0.13c1.77-0.32,3.51-1.12,5.32-1.02c0.95,0.05,1.86,0.44,2.84,0.42c0.72-0.02,1.53-0.17,2.27-0.31c1.15-0.23,2.18-0.52,3.4-0.52c1.09,0,1.76,0.37,2.84,0.58c1.27,0.25,2.4-0.04,3.66-0.17c1.23-0.13,2.44,0.35,3.62,0.59c1.51,0.32,2.99,0.63,4.41,1.35c1.08,0.54,1.77,1.55,2.79,2.15c0.9,0.52,1.42,1.14,2.03,1.99c0.68,0.95,1.54,1.32,1.76,2.51c-1.38,0.37-2.25-0.42-3.57-0.59c-0.62-0.08-1.2-0.31-1.79-0.33c-0.69-0.03-1.4,0.32-2.08,0.42c-0.88,0.13-1.86,0.13-2.74,0c-0.28-0.04-0.66-0.25-0.94-0.24c-0.44,0.02-0.99,0.28-1.5,0.32c-1,0.09-1.82-0.05-2.73-0.17c-0.56-0.08-1.15,0.05-1.72-0.01c-0.77-0.08-1.45-0.53-2.2-0.57c-0.74-0.03-1,0.38-1.62,0.65c-0.54,0.23-1.06,0.17-1.66,0.19c-1.34,0.03-2.7,0.61-3.93,1.08c-1.11,0.42-2.02,0.39-3.15,0.6c-1.5,0.29-2.94,0.63-4.5,0.65c-1.43,0.02-2.4,0.46-3.74,0.94c-0.96,0.34-1.35,1.03-2.09,1.64c-1.13,0.93-2.49,1.74-3.69,2.5c-0.95,0.6-0.9,1.25-1.49,2.16c-0.76,1.17-1.69,1.53-2.66,2.42c-0.59,0.54-1.63,1.82-2.48,0.99c-0.56-0.55,0.01-0.81,0.06-1.4c0.05-0.66-0.33-1.13-0.58-1.68c-0.56-1.27-0.79-4.32,0.17-5.5"/></g><g class="hair hair-2007"><linearGradient id="hair_539e7850bc4e9" gradientUnits="userSpaceOnUse" x1="179.7064" y1="194.5" x2="179.7064" y2="89.4009"><stop offset="0" style="stop-color:#0e0e0c;stop-opacity:0"/><stop offset="0.02" style="stop-color:#0e0e0c;stop-opacity:0.02"/><stop offset="0.1009" style="stop-color:#0e0e0c;stop-opacity:0.1337"/><stop offset="0.1909" style="stop-color:#0e0e0c;stop-opacity:0.2528"/><stop offset="0.2815" style="stop-color:#0e0e0c;stop-opacity:0.3728"/><stop offset="0.3727" style="stop-color:#0e0e0c;stop-opacity:0.4937"/><stop offset="0.4649" style="stop-color:#0e0e0c;stop-opacity:0.6157"/><stop offset="0.5584" style="stop-color:#0e0e0c;stop-opacity:0.7395"/><stop offset="0.6539" style="stop-color:#0e0e0c;stop-opacity:0.8662"/><stop offset="0.755" style="stop-color:#0e0e0c"/></linearGradient><path fill="url(#hair_539e7850bc4e9)" d="M257.1,158.8c-16.8-65.6-65.8-69.4-76.8-69.4c-0.7,0-1.4,0-2.2,0.1c-54,1.4-71.5,44.6-71.5,44.6c-7.5,10.4-5.3,46.2-4.3,57.9l2,2.6c0,0,4.2-29.8,23-44.4v-15.7c0,0,38.7-30.3,112.6,0v18.5c0,0,7.1-1.7,15.4,35.4l2.4-1.6C259.1,168.8,257.1,158.8,257.1,158.8z"/><path fill="#0e0e0c" d="M202.9,112.6c-0.2-5.8,3-8.5,2.7-14.3c-0.1-2.6,0.9-0.2-0.1-2.6c16.7,7.5-6.4-9.2-7-9.8c-6.5-2.5-13.3-5-20.3-4.9c-2.9,0.1-12,2.2-14.8,2.7c-4,2.6-8.3,5.7-11.7,9.9c-0.8,3.9,6,5,6.5,7.9c0.6,4.4,0.9,8.9,3.1,12.9c0.2,0.4,0.4,0.7,0.6,1.1c2.1,2.2,4.3,4.4,6.2,6.7c0.4,0-1.8-2.1,1.2,0.1c10-0.6,20.1,1.6,29.8-0.5C201.1,119.3,202.3,116,202.9,112.6z"/></g><g class="facial-hair facial-hair-25"><path fill="#0e0e0c" fill-opacity="0.3" d="M144.3,266.4c5-5.8,14.9-12.2,22.6-14c2.3-0.5,5.2-0.9,7.4-0.3c2.1,0.6,3.2,2.2,5.6,1.9c1.9-0.2,3.2-2.2,4.9-2.9c1.6-0.7,5.9-1.2,7.7-0.9c1.1,2.5,4.7,4.3,6.9,5.6c2.6,1.6,6.1,3.8,9,5c3.3,1.3,4.2,1.9,6.4,4.5c1.2,1.5,4.9,4.2,3.8,6.3c-2.1,3.7-5.8-0.7-7.3-1.9c-2.1-1.6-4.5-2.6-6.9-3.6c-6-2.6-11.9-4.1-18.5-4.4c-4.4-0.2-8.7-1.4-13.1-0.9c-4,0.4-6.8,2.3-10.6,3.3c-4.3,1.1-7.7,1-11.2,3.7c-2.5,1.9-4.2,3.1-7.6,2.8c-0.5-2.8,0.6-3.5,2.4-4.9"/><path fill="#0e0e0c" d="M144.8,293.2c1.6,3.5-0.2,7,0,10.5c0.2,3.5,2.1,6.7,3.4,9.9c2.1,5.3,4.6,9,9.6,11.5c5.2,2.5,12.5,2.2,18.3,2.2c4.1,0,8-0.5,12.1-0.6c3.5-0.1,7.5,0.6,10.9-0.3c7.7-2.1,13.2-4.2,13.7-11.7c0.3-4,1.9-7.9,2.2-11.7c0.2-2.6,1.8-11.6-0.7-12.6c-0.7,2.4-4.1-0.1-6.3,1.4c-0.2,0.1-1.9,0.3-2.3,0.5c-1.9,0.7-3.4,2.3-5.3,2.7c-1.6,3.9-4.7,1-6.9,1.5c-1.2,0.3-2.2,2-3.3,2.5c-0.8,0.3-2.1,0.4-2.9,0.6c-3.8,1-5.5,2.2-8.9,0.6c-3.8-1.8-3.7-2-7.6,0.5c-6.1,3.9-7-0.5-13.9-1c-3-0.2-4.5-2.3-7-3.8c-1.8-1-2.5-2.6-4.9-3.1c-0.1,0.5-0.2,1.3,0,1.8"/></g><g class="nose nose-2"><path fill="#472921" d="M186.01,198.89c-0.17,1.53-0.26,3.95-0.49,5.46c-0.58,3.86,0.9,6.29,0.88,10.24 c-0.02,6.65,6.48,12.91,4.38,19.46c-5.2-0.71-6.56-12.33-6.95-16.23c-0.33-3.31-1.14-7.11-1.01-10.49 c0.11-2.91,1.43-6.24,2.54-9.75C185.35,197.6,186.24,196.78,186.01,198.89z"/><path fill="#1f0100" d="M166.63,243.75c2.25-1.3,2.59-3.82,5.63-2.9c1.56,0.48,4.43,2.55,4.11,4.38c-0.96,0.17-1.93-0.21-2.76-0.63c-1.38-0.7-1.58-0.67-2.84,0.31c-1.49,1.16-3.98,1.35-4.49-0.88c0.25-0.19,0.55-0.29,0.86-0.28"/><path fill="#1f0100" d="M187.38,240.75c-0.76,0.2-2.24,1.91-2.38,2.74c-0.25,1.5,0.94,1.27,2.01,1.38c1.81,0.18,3.94,1.63,5.75,0.78c3.43-1.6-3.45-8.78-6.13-4.16"/><path fill="none" stroke="#42241c" stroke-miterlimit="10" d="M164.75,227c0.56,1.57-0.23,2.33-0.76,3.75c-0.47,1.27-0.72,2.65-1.21,3.87c-0.9,2.23-2.4,3.66-2.53,6.12c-0.15,2.94,1,4.25,2.75,6.37c1.36,1.65,4.54,2.49,6.63,2.01c1.04-0.24,1.75-0.86,2.88-0.75c1.13,0.1,2.24,0.56,3.37,0.72c1.05,0.15,2.32,0.09,3.38,0.03c1.33-0.08,1.49-0.53,2.53-1.23c2.13-1.42,6.09,0.33,8.72,0.1c2.12-0.19,3.6-1.49,5.35-2.75c1.25-0.9,2.52-2.38,3.13-3.75c0.93-2.09-1.34-2.51-1.6-4.25"/></g><g class="mouth mouth-23"><path fill="#E0DCDA" d="M196.66,277.52c2.04-1.92,4.63-2.73,7.37-3.56v-7.18h-47.51v6.65c0.48,0.08,0.95,0.25,1.38,0.54c0.97,0.67,2.01,1.25,2.98,1.92c0.7,0.48,1.37,1.02,2.04,1.54c-0.43-0.34-0.12-0.13,0.21,0.09H196.66z"/><path fill="#6A3433" d="M204.04,273.17c0.66-0.9,1.42-1.69,2.37-2.31c0.28-0.18,0.56-0.33,0.85-0.46c0,0,0,0,0-0.01c-4.08-0.64-8.16-1.54-12.14-2.51c-2.68-0.66-4.25,0.09-6.82,0.13c-2.15,0.04-4.16-0.66-6.29-0.81c-5.25-0.37-10.72-0.9-15.98-0.65c-2.52,0.12-4.9,0.36-7.35,0.89c-1.8,0.39-3.72,0.27-5.44,0.92c-0.04,0.02-0.08,0.03-0.13,0.04c0,0,0,0,0,0c-0.47,0.37-1.28,0.9-1.26,1.47c1.18,0.07,2.33,0.41,3.34,1.15c0.67,0.49,1.31,1.01,1.93,1.56c0.08,0.07,0.16,0.14,0.25,0.21c0.41-0.8,1.01-1.38,1.68-2.05c0.33-0.34,0.66-0.54,1.03-0.83c0.65-0.49,0.9-0.47,1.78-0.43c0.63,0.03,1.27,0.01,1.9,0.06c0.41,0.03,0.82,0.17,1.24,0.1c0.62-0.09,1.03-0.39,1.73-0.36c1.95,0.06,3.88,0.45,5.84,0.27c1.24-0.11,2.39-0.15,3.6,0.15c1.16,0.28,2.09-0.05,3.23-0.15c2.17-0.19,4.41-0.05,6.59-0.06c1.13,0,2.19,0.1,3.27,0.21c0.8,0.08,1.56,0.04,2.34-0.15c0.92-0.22,1.68-0.04,2.6,0.15c2.09,0.42,4.21,0.69,6.16,1.55c0.38,0.17,0.8,0.27,1.16,0.48c0.31,0.19,0.33,0.34,0.57,0.56c0.38,0.34,1.01,0.61,1.46,0.78C203.73,273.14,203.89,273.16,204.04,273.17z"/><path fill="#3d1f17" fill-opacity="1" d="M151.65,269.72c0.52,1.75,2.38,3.06,3.6,4.29c1.21,1.22,2.53,2.22,3.73,3.46c3.07,3.17,6.37,6.53,10.86,7.47c2.56,0.53,5.23,0.59,7.83,0.83c1.31,0.12,2.49,0.42,3.71,0.53c1.49,0.14,2.93-0.11,4.34-0.42c1.98-0.44,4.27-0.85,6.09-1.83c2.13-1.16,4.28-2.42,6.4-3.53c2.25-1.18,4.58-3.42,6.38-5.19c1.7-1.67,3.05-3.4,4.28-5.41c-1.81-0.27-3.38,1.54-4.63,2.53c-1.58,1.26-4.14,0.67-6,1.44c-1.78,0.74-3.41,1.43-5.2,2.08c-1.95,0.71-4.13,0.66-6.21,0.98c-4.39,0.68-8.65,0.12-12.97-0.27c-1.91-0.17-3.84-0.71-5.67-1.05c-1.16-0.22-2.22-0.65-3.41-0.76c-1.05-0.1-1.99-0.1-2.94-0.5c-1.06-0.44-2.38-0.7-3.33-1.25c-0.84-0.48-1.6-1.15-2.49-1.63c-1.43-0.77-2.95-1.44-4.36-1.98"/><path fill="#472921" d="M151.56,269.83c1.33-1.34,2.27-2.91,3.75-4.07c1.54-1.21,3.2-2.22,5.07-2.78c1.87-0.56,4.15-0.43,6.13-0.53c2.08-0.11,4.18-0.33,6.25-0.33c0.94,0,1.89,0.04,2.8,0.19c1.32,0.22,3.6,0.17,4.81,0.45c2.67,0.63,5.97-0.68,8.73-0.83c2.78-0.15,4.91,0.7,7.67,0.9c1.26,0.09,2.79,0.87,3.94,1.36c0.93,0.39,4.07,2.62,5.13,3.62c0.72,0.68,2.31,1.32,3.03,2.12c-2.28,0.95-5.88,0.08-8.14-0.24c-2.38-0.34-11.59-1.22-13.84-1.31c-2.35-0.09-4.67,0.3-6.96,0.29c-2.21-0.01-12.18-0.91-14.93-1.23c-2.4-0.28-3.59,0.33-5.99,0.24c-1.04-0.04-3.96,0.45-4.81,0.94c-0.69,0.39-1.54,0.81-2.18,1.32"/></g></svg>