<svg id="s53434f9491e4c" class="face" xmlns="http://www.w3.org/2000/svg" xmlns:xlink="http://www.w3.org/1999/xlink" x="0px" y="0px" width="357px" height="358px" viewBox="0 0 357 358"><path fill="#bb8964" d="M268.5,189.04c-1.41-1.92-2.86-2.74-4.22-2.91c-3.96-0.47-7.28,4.62-7.28,4.62c2.38-21.04,0-32.96,0-32.96c-16.83-65.56-65.84-69.37-76.8-69.39c-0.71,0.02-1.44,0.04-2.2,0.06c-54,1.42-71.5,44.58-71.5,44.58c-9,12.5-4,61.55-4,61.55c-21-12.95-1.5,45.45-1.5,45.45c5,13.5,8,1,8,1c2.88,12.67,6.63,23.41,10.9,32.53c0.85,44.99,1.74,68.73,1.44,83.43c23.33,0,116.79,0,123.83,0l1.52-85.32c6.58-17.33,7.31-32.14,7.31-32.14c2.5,3,6.5,1.5,6.5,1.5C272.75,234.79,268.5,189.04,268.5,189.04z M255.96,199.92C255.93,200.18,255.94,200.15,255.96,199.92L255.96,199.92z M256.22,197.67c0.03-0.3,0.07-0.64,0.11-1.01C256.29,197.01,256.25,197.35,256.22,197.67z M256.82,192.32c0.06-0.55,0.11-0.99,0.14-1.26C256.91,191.5,256.87,191.92,256.82,192.32z M265.33,190.26c-0.04-0.16-0.09-0.37-0.16-0.62c-0.13-0.5-0.31-1.2-0.54-2.1c0.22,0.86,0.4,1.58,0.54,2.1C265.24,189.9,265.29,190.1,265.33,190.26C265.47,190.79,265.48,190.83,265.33,190.26z"/><path fill="#b6845f" d="M125.25,227.25c4.5-6.5,6.97-8.84,12.65-10c4.87-0.99,13.28-2.45,17.35-5.75c9.63-7.79,13.17-20.35,5.59-28.43c-4.32-4.6-7.03-7.3-13.05-8.81c-4.83-1.22-11.04-2.16-15.05-6.1c-7.84-7.69-11.29-20.73-10.82-31.2c0.41-8.95,9.17-18.79,15.15-24.83c7.04-7.12,15.71-14.12,23.72-20.42c-40.38,8.84-54.04,42.51-54.04,42.51c-9,12.5-4,61.55-4,61.55c-21-12.95-1.5,45.45-1.5,45.45c5,13.5,8,1,8,1c2.89,12.7,6.64,23.46,10.93,32.59c-0.78,38.87,1.32,70.54,1.15,83.21c7.79,0.1,53.6-30.51,61.45-32.32C179.16,318.81,113.75,264.75,125.25,227.25z"/><g class="eyes eyes-6"><path fill="#ffffff" fill-opacity="0.7" d="M203.17,207.16c2.26-1.32,3.9-3.13,6.37-4.13c2.36-0.96,4.83-1.67,7.3-2.04c2.99-0.45,5.92,0.27,8.49,1.5c1.11,0.53,2.12,1.41,3.34,1.79c1.15,0.35,2.85,1.35,4,1.64c1.99,2.42-5.1,2.57-6.34,3.06c-2.49,0.98-4.18,1.67-7,1.67c-1.37,0-2.96,0.34-4.16,0.35c-1.65,0-3.39-0.51-5.18-0.51c-2.64,0-5.74-0.24-6.66-3.17"/><path fill="#ffffff" fill-opacity="0.7" d="M134,208.33c1.94-1.42,4.2-2.39,6.2-3.8c1.97-1.38,4.58-2.43,6.96-2.54c2.78-0.12,6.41,0.93,8.84,2.16c2.15,1.09,3.93,2.95,6.27,3.87c-1.22,1.55-4.52,1.62-6.27,1.81c-2.77,0.3-5.36,0.63-8.18,0.66c-2.6,0.03-5.45,0.78-7.95,0.12c-1.21-0.32-1.78-1.06-2.84-1.67c-0.92-0.53-2.04-0.59-3.04-0.78"/><path fill="#483224" d="M143.5,203.33c-2.54,0.33-2.14,4.8-0.38,6.04c1.58,1.12,5.79,1.1,7.7,0.63c2.84-0.71,4.17-2.73,3.19-5.67c-0.91-2.73-5.29-2.73-7.67-2.49c-1.86,0.19-3.53,1.15-4.67,2.67"/><path fill="#483224" d="M212.33,202c-2.94,2.29-1.06,5.73,1.51,7.12c2.17,1.18,4.83,1.46,7.15,0.38c2.16-1.01,3.94-3.53,3.35-6.17c-0.6-2.66-4.05-2.37-6.16-2.15c-1.91,0.2-4.35-0.35-5.68,0.99"/></g><g class="eyebrows eyebrows-17"><path fill="#19120c" fill-opacity="0.9" d="M121.5,192.83c3.86-4.32,7.58-8.57,12.6-11.58c1.17-0.7,2.49-1.83,3.85-2.09c1.61-0.31,3.54,0.18,5.19,0.17c2.5,0,4.75-0.5,7.22-0.5c5.14,0.01,16.15-1.84,17.81,4.93c0.61,2.5-0.97,2.81-3.23,2.69c-3.6-0.18-7.19-0.25-10.77-0.76c-3.42-0.49-8.1-1.31-11.55-0.71c-2.71,0.47-5.58,2.86-8.13,3.89c-2.83,1.14-5.36,2.37-8.18,3.72c-1,0.48-2.45,1.28-3.53,1.56c-2.05,0.53-1.62-0.64-0.79-2.16"/><path fill="#19120c" fill-opacity="0.9" d="M220.83,177.17c-3.94-0.4-9.86-1.37-13.46,0.54c-1.01,0.54-1.83,1.28-3,1.67c-1.41,0.47-2.84,0.55-4.23,1.14c-1.88,0.8-5.94,2.7-6.77,4.66c-1.4,3.29,3.34,3.56,5.42,3.37c1.87-0.17,3.45,0.13,5.17-0.49c1.73-0.62,2.92-2.04,4.48-2.84c1.98-1.02,4.6-0.82,6.8-0.71c5.99,0.3,12.94,1.06,18.09,4.38c1.33,0.86,5.56,4.05,7.54,2.81c2.19-1.38-5.09-6.95-6.35-7.95c-2.21-1.74-5.34-3.88-7.97-4.84c-2.76-1.01-3.12-0.64-5.99-1.89"/></g><g class="chin chin-9"><path display="inline" fill="none" stroke="#b6845f" stroke-miterlimit="10" d="M146.83,319.83c2.39,1.07,4.3,3.4,6.85,4.55 c3.01,1.36,5.66,3.39,8.67,4.78c5.96,2.75,12.85,1.91,19.22,2.46c5.66,0.49,11.43-3.33,16.89-4.47c3.13-0.65,6.49-1.39,9.38-2.86 c2.13-1.09,3.27-3.18,5.5-4.13"/></g><g class="hair hair-1003"><radialGradient id="hair_1_53434f9493d88" cx="178.6289" cy="185.25" r="86.6347" fx="172.762" fy="185.2177" gradientTransform="matrix(1 -4.913946e-003 3.512081e-003 0.7147 -0.6484 53.728)" gradientUnits="userSpaceOnUse"><stop offset="0" style="stop-color:#bb8964;stop-opacity:0"/><stop offset="0.2755" style="stop-color:#19120c;stop-opacity:0.2755"/><stop offset="0.5365" style="stop-color:#19120c;stop-opacity:0.5365"/><stop offset="0.7512" style="stop-color:#19120c;stop-opacity:0.7512"/><stop offset="0.9118" style="stop-color:#19120c;stop-opacity:0.9118"/><stop offset="1" style="stop-color:#19120c"/></radialGradient><path fill="url(#hair_1_53434f9493d88)" d="M259.93,148.08c-1.48-4.6-3.76-8.81-4.77-13.56c-0.1-0.48-0.21-0.94-0.32-1.41c-1.13-1.78-2.09-3.65-2.8-5.62c-5.3-6.7-10.84-13.15-16.88-19.16c-1.35-0.74-2.55-1.66-3.72-2.63c-1.57-0.6-3.12-1.25-4.46-2.14c-2.67-1.76-4.84-4.45-7.7-5.86c-6.31-3.11-13.51-5.09-20.15-7.59c-4.9-1.1-9.81-1.84-14.83-2.16c-2.18,0.26-4.35,0.52-6.54,0.54c-3.08,0.03-6.15-0.06-9.2-0.06c-4.01,0.58-7.95,1.44-12.02,1.98c-1.6,0.21-3.24,0.34-4.86,0.58c-4.32,1.65-8.42,3.87-12.81,5.24c-3.64,1.83-7.3,3.64-10.96,5.44c-0.18,0.2-0.38,0.4-0.62,0.6c-5.12,4.17-9.27,7.92-13.28,13.24c-2.04,2.71-4.19,5.35-6.23,8.07c-1.7,3.33-3.18,6.72-3.9,10.3c-0.72,3.6-1.21,7.84-2.71,11.45c-0.03,0.16-0.05,0.32-0.09,0.48c-0.29,1.16-0.7,2.27-1.17,3.37c0.05,4.68-0.72,9.23-1.36,13.89c0.31,3.4,0.25,6.77-0.15,10.18c1.24,5.03,2.54,10.02,2.51,15.33c-0.02,4.21,1.62,8.18,3.61,12.04c0.29-2.32,0.72-4.58,1.38-6.69c1.61-5.15,3.16-11.5,6.33-15.89c1.47-2.04,3.76-3.89,4.39-6.31c0.73-2.83,0.47-6.69,0.86-9.54c0.8-5.9,0.51-10.99,2.46-16.66c0.88-2.56,0.5-4.84,1.91-7.25c1.38-2.36,3.65-4.68,5.57-6.62c5.28-5.33,12.18-3.4,19.2-4.11c5.16-0.52,11.46-0.02,16.89-0.58c5.89-0.6,10.52-0.56,16.5-0.25c6.24,0.32,11.91-1.08,18.09-0.75c3.08,0.16,6.43-0.64,9.31-0.02c2.94,0.64,11.6,0.56,14.35,1.52c2.19,0.77,3.78,1.59,5.03,2.65c5.25,2.67,10.53,7.38,12.41,12.91c2.59,7.65,0.07,15.63,3.91,23.07c3.68,7.13,9.51,13.02,10.24,21.36c0.28,3.19,0,6.3-0.58,9.36c0.45,0.11,0.89,0.27,1.29,0.48c0.53-1.95,1.08-3.47,1.6-4c0.33-0.33,0.64-0.66,0.94-0.99c0.58-5.43,3.07-10.51,3.24-16.02c0.2-6.65,0.24-13.3,0.43-19.94c0.08-2.79-0.05-5.55-0.34-8.28C259.93,148.09,259.93,148.08,259.93,148.08z"/></g><g class="nose nose-2"><path fill="#b17f5a" d="M186.01,198.89c-0.17,1.53-0.26,3.95-0.49,5.46c-0.58,3.86,0.9,6.29,0.88,10.24 c-0.02,6.65,6.48,12.91,4.38,19.46c-5.2-0.71-6.56-12.33-6.95-16.23c-0.33-3.31-1.14-7.11-1.01-10.49 c0.11-2.91,1.43-6.24,2.54-9.75C185.35,197.6,186.24,196.78,186.01,198.89z"/><path fill="#895732" d="M166.63,243.75c2.25-1.3,2.59-3.82,5.63-2.9c1.56,0.48,4.43,2.55,4.11,4.38c-0.96,0.17-1.93-0.21-2.76-0.63c-1.38-0.7-1.58-0.67-2.84,0.31c-1.49,1.16-3.98,1.35-4.49-0.88c0.25-0.19,0.55-0.29,0.86-0.28"/><path fill="#895732" d="M187.38,240.75c-0.76,0.2-2.24,1.91-2.38,2.74c-0.25,1.5,0.94,1.27,2.01,1.38c1.81,0.18,3.94,1.63,5.75,0.78c3.43-1.6-3.45-8.78-6.13-4.16"/><path fill="none" stroke="#ac7a55" stroke-miterlimit="10" d="M164.75,227c0.56,1.57-0.23,2.33-0.76,3.75c-0.47,1.27-0.72,2.65-1.21,3.87c-0.9,2.23-2.4,3.66-2.53,6.12c-0.15,2.94,1,4.25,2.75,6.37c1.36,1.65,4.54,2.49,6.63,2.01c1.04-0.24,1.75-0.86,2.88-0.75c1.13,0.1,2.24,0.56,3.37,0.72c1.05,0.15,2.32,0.09,3.38,0.03c1.33-0.08,1.49-0.53,2.53-1.23c2.13-1.42,6.09,0.33,8.72,0.1c2.12-0.19,3.6-1.49,5.35-2.75c1.25-0.9,2.52-2.38,3.13-3.75c0.93-2.09-1.34-2.51-1.6-4.25"/></g><g class="mouth mouth-22"><path fill="#EDDDC1" d="M157.165,272.481c1.628,0.752,2.938,2.135,4.748,2.607c2.464,0.643,5.317,0.6,7.833,0.665c1.439,0.038,3.195,0.212,4.613,0.536c1.593,0.363,2.884,1.329,4.662,1.346c2.145,0.021,4.625-0.641,6.693-1.192c2.569-0.686,5.139-1.254,7.76-1.802c1.755-0.367,3.841-0.737,5.264-1.896c0.829-0.676,1.515-1.488,2.363-2.161c0.838-0.664,1.764-1.277,2.572-1.938c0.424-0.346,0.862-0.3,0.601-0.899c-0.309-0.705-2.846-1.422-3.47-1.662c-2.261-0.867-4.894-1.585-7.365-1.45c-2.089,0.115-4.337,0.532-6.454,0.095c-1.626-0.335-3.236-0.916-4.916-1.035c-1.367-0.097-2.769,0.155-4.14,0.241c-1.852,0.116-3.674,0.258-5.518,0.452c-3.11,0.326-6.313,0.597-9.413,1.12c-1.688,0.285-3.292,0.679-4.767,1.492c-0.746,0.411-1.438,0.937-2.291,1.228c-0.652,0.223-1.75,0.14-2.075,0.906c1.335,1.124,2.41,2.072,3.401,3.473"/><path fill="#29120F" d="M158.393,272.737c0.643-1.004,0.614-2.333,1.597-3.139c0.556-0.456,0.998-0.474,1.683-0.483c1.529-0.02,2.268,0.458,3.891,0.215c1.322-0.198,2.747-0.097,4.017-0.536c0.859-0.298,1.698-0.836,2.641-0.947c0.917-0.107,1.011,0.153,1.866,0.51c1.415,0.59,1.873-0.012,3.324-0.179c0.979-0.114,2.32,0.441,3.212,0.158c0.637-0.202,1.203-0.824,1.908-1.067c1.444-0.499,2.319,0.381,3.722-0.028c0.84-0.246,1.521-0.621,2.44-0.492c0.951,0.133,1.695,0.828,2.584,0.872c1.385,0.069,2.963-0.084,4.463,0.164c2.214,0.366,2.045,1.633,3.574,2.77c2.289,1.702,2.973-1.171,4.933-1.001c-0.213-1.41,0.309-1.667-1.225-2.282c-2.131-0.854-4.95-2.291-7.27-2.205c-2.097,0.078-4.055,0.798-6.136,0.877c-2.624,0.098-5.297,0.098-7.931,0.077c-2.938-0.023-5.888-0.12-8.815-0.181c-2.612-0.054-5.642-0.333-8.208,0.105c-2.342,0.399-5.497,0.691-7.625,1.78c-0.764,0.39-2.19,1.17-2.728,1.78c1.145,0.478,1.782,1.45,2.711,2.227c0.436,0.365,1.306,1.229,1.77,1.377c0.049-0.238-0.069-0.352-0.148-0.571"/><path fill="#a77550" fill-opacity="1" d="M153.078,269.266c2.046,1.402,1.379,3.328,3.159,5.023c1.916,1.827,3.875,3.361,6.037,4.925c2.181,1.578,4.802,3.484,7.374,4.17c2.812,0.75,5.708,0.217,8.596,0.56c3.345,0.397,5.928-0.77,9.133-1.489c3.067-0.687,4.977-1.662,7.374-3.606c3.377-2.737,7.242-4.999,10.385-8.06c1.182-1.149,1.975-2.048,2.033-3.737c-0.844-0.135-1.812,0.193-2.477,0.631c-0.892,0.587-1.77,0.789-2.672,1.172c-2.579,1.096-5.149,2.125-7.938,2.855c-1.208,0.316-2.431,0.527-3.565,0.988c-1.189,0.484-2.193,0.973-3.494,1.257c-1.845,0.404-3.811,0.158-5.636,0.658c-1.67,0.458-2.931,1.281-4.71,1.287c-4.635,0.015-9.699-0.842-13.854-2.682c-1.938-0.859-4.195-1.848-5.993-2.97c-1.714-1.069-2.044-1.196-4.048-1.361"/><path fill="#b17f5a" d="M152.427,268.962c0.971-0.226,1.872-1.575,2.788-2.079c1.712-0.941,3.563-1.5,5.431-2.091c3.773-1.191,7.492-1.932,11.453-2.125c2.79-0.137,5.647-0.617,8.449-0.516c1.736,0.063,3.405,0.646,5.158,0.709c1.364,0.05,2.768-0.184,4.132-0.097c2.972,0.189,5.74,0.825,8.551,1.559c1.369,0.357,2.773,0.656,4.163,0.946c1.121,0.234,2.346,0.057,3.376,0.581c3.146,1.604-0.842,2.25-2.474,2.369c-2.655,0.193-5.082-0.297-7.65-0.992c-4.949-1.337-10.081,0.018-15.021,0.117c-1.274,0.025-2.644,0.353-3.957,0.429c-1.314,0.077-2.608-0.1-3.924-0.079c-2.611,0.042-5.133,0.109-7.701,0.479c-1.028,0.148-1.976,0.48-3.038,0.547c-1.353,0.085-2.709-0.171-4.043-0.018c-0.768,0.088-5.663,1.589-5.335,0.187"/></g></svg>