<svg id="s5c3d008fe7a5b" class="face" xmlns="http://www.w3.org/2000/svg" xmlns:xlink="http://www.w3.org/1999/xlink" x="0px" y="0px" width="357px" height="358px" viewBox="0 0 357 358"><path fill="#994d2d" d="M268.5,189.04c-1.41-1.92-2.86-2.74-4.22-2.91c-3.96-0.47-7.28,4.62-7.28,4.62c2.38-21.04,0-32.96,0-32.96c-16.83-65.56-65.84-69.37-76.8-69.39c-0.71,0.02-1.44,0.04-2.2,0.06c-54,1.42-71.5,44.58-71.5,44.58c-9,12.5-4,61.55-4,61.55c-21-12.95-1.5,45.45-1.5,45.45c5,13.5,8,1,8,1c2.88,12.67,6.63,23.41,10.9,32.53c0.85,44.99,1.74,68.73,1.44,83.43c23.33,0,116.79,0,123.83,0l1.52-85.32c6.58-17.33,7.31-32.14,7.31-32.14c2.5,3,6.5,1.5,6.5,1.5C272.75,234.79,268.5,189.04,268.5,189.04z M255.96,199.92C255.93,200.18,255.94,200.15,255.96,199.92L255.96,199.92z M256.22,197.67c0.03-0.3,0.07-0.64,0.11-1.01C256.29,197.01,256.25,197.35,256.22,197.67z M256.82,192.32c0.06-0.55,0.11-0.99,0.14-1.26C256.91,191.5,256.87,191.92,256.82,192.32z M265.33,190.26c-0.04-0.16-0.09-0.37-0.16-0.62c-0.13-0.5-0.31-1.2-0.54-2.1c0.22,0.86,0.4,1.58,0.54,2.1C265.24,189.9,265.29,190.1,265.33,190.26C265.47,190.79,265.48,190.83,265.33,190.26z"/><path fill="#944828" d="M125.25,227.25c4.5-6.5,6.97-8.84,12.65-10c4.87-0.99,13.28-2.45,17.35-5.75c9.63-7.79,13.17-20.35,5.59-28.43c-4.32-4.6-7.03-7.3-13.05-8.81c-4.83-1.22-11.04-2.16-15.05-6.1c-7.84-7.69-11.29-20.73-10.82-31.2c0.41-8.95,9.17-18.79,15.15-24.83c7.04-7.12,15.71-14.12,23.72-20.42c-40.38,8.84-54.04,42.51-54.04,42.51c-9,12.5-4,61.55-4,61.55c-21-12.95-1.5,45.45-1.5,45.45c5,13.5,8,1,8,1c2.89,12.7,6.64,23.46,10.93,32.59c-0.78,38.87,1.32,70.54,1.15,83.21c7.79,0.1,53.6-30.51,61.45-32.32C179.16,318.81,113.75,264.75,125.25,227.25z"/><g class="eyes eyes-19"><path fill="#ffffff" fill-opacity="0.7" d="M158.33,206.68c-0.61-0.47-1.13-1.22-1.76-1.66c-1.49-1.05-3.98-1.48-5.74-1.75c-0.15-0.02-0.3-0.03-0.45-0.05c0.42,0.62,0.72,1.32,0.86,2.14c0.27,1.59-1.1,2.92-2.16,3.89c-1.44,1.33-2.83,2.11-4.76,2.66c-2.15,0.61-4.04-0.15-5.58-1.77c-1.36-1.42-1.6-3.34-1.64-5.25c-0.78,0.46-1.5,0.99-2.07,1.52c-1.18,1.09-2.64,1.92-3.77,3.08h0.25c-0.05,0.72,5.78,4.06,7.27,4.31c2.17,0.37,5.32,0.66,7.4-0.21c1.85-0.78,5.19-1.08,6.75-2.35c2.23-1.82,3.93-2.11,6.26-3.84C158.95,207.16,158.61,206.9,158.33,206.68z"/><path fill="#3d270f" d="M144.31,211.91c1.93-0.55,3.32-1.33,4.76-2.66c1.06-0.97,2.43-2.3,2.16-3.89c-0.14-0.82-0.44-1.53-0.86-2.14c-3.08-0.39-6.49-0.09-9.54,0.28c-1.21,0.14-2.55,0.69-3.75,1.4c0.04,1.91,0.28,3.83,1.64,5.25C140.28,211.76,142.16,212.53,144.31,211.91z"/></g><g><path fill="#ffffff" fill-opacity="0.7" d="M229.09,209.31c-1.17-1.2-2.72-2.3-4.31-2.98c-0.32-0.14-0.65-0.25-0.98-0.35c0.22,1.73-0.23,3.54-1.48,4.75c-0.64,0.62-1.31,1.36-2.14,1.7c-0.88,0.36-1.57,0.48-2.43,0.97c-1.28,0.72-2.6,0.97-4.01,0.37c-1.6-0.69-2.74-2.23-3.67-3.69c-0.48-0.75-0.81-1.53-0.9-2.41c-0.08-0.8,0.18-1.57,0.33-2.34c-1.42,0.5-3.69,1.1-4.25,1.51c-0.5,0.37-0.93,0.86-1.42,1.25c-0.47,0.38-1.09,0.65-1.47,1.15c0.99,1.78,3.2,2.79,5.06,3.33c1.48,0.43,2.65,0.96,4.16,1.11c1.28,0.13,2.56,0.35,3.83,0.58c1.33,0.25,2.8,0.42,4.17,0.42c0.61,0,1.22,0,1.83,0c0.9,0,6.29-1.2,7.5-2.15c0.25-0.19,1.68-0.91,1.74-1.01C231.05,210.84,229.45,209.69,229.09,209.31z"/><path fill="#3d270f" d="M209.17,207.67c0.08,0.88,0.41,1.66,0.9,2.41c0.93,1.46,2.07,3,3.67,3.69c1.41,0.61,2.73,0.36,4.01-0.37c0.86-0.48,1.55-0.61,2.43-0.97c0.83-0.34,1.5-1.08,2.14-1.7c1.25-1.21,1.71-3.02,1.48-4.75c-2.03-0.63-4.25-0.7-6.29-1.13c-1.9-0.41-4.85-0.69-6.67-0.18l-0.25,0.17c-0.17,0.14-0.57,0.31-1.09,0.49C209.35,206.1,209.09,206.87,209.17,207.67z"/></g><g class="eyebrows eyebrows-11"><path fill="#141615" fill-opacity="0.8" d="M110.5,195.67c0.83-3.17,4.41-7.04,6.63-9.37c1.53-1.6,3.78-2.51,5.37-4.13c1.43-1.47,2.82-2.57,4.47-3.79c5.14-3.83,11.26-2.4,17.14-3.54c4.69-0.91,10.05-0.3,14.18,1.93c3.42,1.85,5.55,2.89,5.68,6.88c-4.4,2.82-9.13,3.71-14.54,3.7c-2.54-0.01-4.64,0.38-6.96-0.45c-1.98-0.71-3.92-0.82-5.93-1.19c-2.14-0.4-4.47-1.46-6.67-1.2c-2.21,0.26-4.48,1.67-6.53,2.49c-3.84,1.54-6.55,4.22-10.13,6.35c-1.48,0.89-2.34,1.86-3.54,3"/><path fill="#141615" fill-opacity="0.8" d="M202,173c-4.71-0.38-9.26,3.05-12,6.5c-0.87,1.1-2.36,2.65-2.17,4.17c0.25,2.06,2.59,2.9,4.34,3c4.75,0.27,8.63-3.17,13.49-3.17c1.64,0,3.2,0.11,4.8,0.17c1.86,0.06,3.39-0.55,5.16-0.84c2.42-0.4,4.45-1.15,6.89-1.66c3.33-0.7,5.03,0.07,7.97,1.68c1.99,1.09,4.5,2.26,6.17,3.83c1.73,1.62,2.01,2.64,4.5,1.96c-0.09-1.35-2.05-3.33-2.85-4.47c-0.81-1.15-1.86-2.13-2.75-3.22c-2.31-2.82-4.34-5.22-7.88-6.47c-4.55-1.61-8.23-1.4-13.03-1.11c-3.87,0.23-8.11-1.4-11.96-0.72c-0.62,0.11-1.2,0.56-1.84,0.68"/></g><g class="chin chin-15"><path fill="none" stroke="#944828" stroke-miterlimit="10" d="M148.17,314.5c2.03,0.92,12.9,9.24,14.52,10c2.37,1.12,15.18,5.5,17.81,6c7.24,1.37,12.83-0.5,19.5-2.83c8.62-3.02,16.75-8.58,20.67-17"/></g><g class="hair hair-17"><linearGradient id="hair_5c3d008fe7b60" gradientUnits="userSpaceOnUse" x1="179.7064" y1="194.5" x2="179.7064" y2="89.4009"><stop offset="0" style="stop-color:#FFFFFF;stop-opacity:0"/><stop offset="0.02" style="stop-color:#141615;stop-opacity:0.02"/><stop offset="0.1009" style="stop-color:#141615;stop-opacity:0.1337"/><stop offset="0.1909" style="stop-color:#141615;stop-opacity:0.2528"/><stop offset="0.2815" style="stop-color:#141615;stop-opacity:0.3728"/><stop offset="0.3727" style="stop-color:#141615;stop-opacity:0.4937"/><stop offset="0.4649" style="stop-color:#141615;stop-opacity:0.6157"/><stop offset="0.5584" style="stop-color:#141615;stop-opacity:0.7395"/><stop offset="0.6539" style="stop-color:#141615;stop-opacity:0.8662"/><stop offset="0.755" style="stop-color:#141615"/></linearGradient><path fill="url(#hair_5c3d008fe7b60)" d="M257.1,158.8c-16.8-65.6-65.8-69.4-76.8-69.4c-0.7,0-1.4,0-2.2,0.1c-54,1.4-71.5,44.6-71.5,44.6c-7.5,10.4-5.3,46.2-4.3,57.9l2,2.6c0,0,4.2-29.8,23-44.4v-15.7c0,0,38.7-30.3,112.6,0v18.5c0,0,7.1-1.7,15.4,35.4l2.4-1.6C259.1,168.8,257.1,158.8,257.1,158.8z"/></g><g class="nose nose-6"><path fill="#8f4323" d="M186.01,198.89c-0.17,1.53-0.26,3.95-0.49,5.46c-0.58,3.86,0.9,6.29,0.88,10.24 c-0.02,6.65,6.48,12.91,4.38,19.46c-5.2-0.71-6.56-12.33-6.95-16.23c-0.33-3.31-1.14-7.11-1.01-10.49 c0.11-2.91,1.43-6.24,2.54-9.75C185.35,197.6,186.24,196.78,186.01,198.89z"/><path fill="#671b00" d="M177.25,244.5c-1.8-0.5-2.86-2.27-4.23-3.07c-1.36-0.79-2.82-1.04-4.25-1.5c-1.44-0.46-8.9-2.33-8.47,0.53c2.44,1.6,6.16,1.58,8.96,2.54c3.18,1.09,5.46,2.23,8.99,2.57c-0.5-0.1-1.26-0.66-1.74-1.31"/><path fill="#671b00" d="M188.5,242.75c2.48-1.76,4.13-3.15,7-4.01c4.14-1.24,5.98-1.69,7.46,2.46c-2.94,1.38-5.59-0.75-8.47,0.04c-0.88,0.24-1.86,1.17-2.73,1.5c-1.28,0.48-2.63,0.53-3.79,1.17c0.34-0.48,0.73-1.06,1.03-1.41"/><path fill="none" stroke="#8a3e1e" stroke-miterlimit="10" d="M159.88,227.25c-1.9,0.96-3.26,1.14-4.25,3.1c-0.82,1.63-1.62,3.35-2.26,5.02c-0.95,2.5,1.18,4.39,2.75,6.15c1.74,1.96,3.86,2.48,6.12,3.51c2.54,1.16,5.54,0.45,8.25,0.84c1.76,0.26,3.43,0.71,5.12,1.03c0.67,0.13,1.39,0.02,2.01,0.2c0.68,0.2,1.26,0.76,2.01,0.92c2.26,0.48,3.71-1.11,5.83-1.41c3.5-0.49,7.01-0.68,10.57-0.87c1.26-0.07,2.14-0.49,3.2-0.88c1.18-0.43,2.44-0.47,3.52-1.09c1.09-0.63,2.59-2.07,3.4-3c1.55-1.78,0.96-3.66-0.18-5.48c-1.19-1.9-2.75-3.72-4.06-5.56c-1.44-2.01-3.18-3.42-4.91-5.12"/></g><g class="mouth mouth-17"><path fill="#F3D6B2" d="M160.53,269.64c-2.24-0.17-0.45,2.01,0.25,2.63c0.92,0.82,1.74,1.46,2.69,2.23c1.26,1.02,2.64,1.33,4.19,1.78c0.95,0.28,1.92,0.5,2.87,0.77c0.91,0.26,1.85,0.25,2.73,0.47c0.84,0.21,1.5,0.83,2.36,1.04c1.72,0.42,3.42,0.57,5.16,0.88c1.13,0.2,2.28,0,3.4,0.23c1.37,0.27,2.85,0.56,4.23,0.38c1.88-0.24,3.51-1.17,5.16-1.98c0.8-0.39,1.44-0.41,2.09-1.03c0.68-0.65,1.04-1.06,1.89-1.5c1.34-0.7,2.36-1.1,3.05-2.45c0.35-0.67,0.67-1.19,0.64-1.96c-0.06-1.65-2.53-2.56-3.78-3.39c-2.75-1.82-5.97-2.96-9.24-3.44c-2.5-0.36-4.51,0.05-6.85,0.6c-3.88,0.91-7.87,0.9-11.73,1.85c-1.34,0.33-2.76,0.24-4.04,0.73c-1.29,0.48-2.45,0.96-3.62,1.67c-0.54,0.33-0.96,0.59-1.61,0.56"/><path fill="#532316" d="M159.65,272.27c0.96-0.66,1.9-0.46,3.03-0.71c1.09-0.24,1.77-0.95,3.02-0.96c1.43-0.01,2.5,0.06,3.9-0.22c1.4-0.28,2.47,0.4,3.87-0.03c2.35-0.72,5.33-0.46,7.76-0.22c0.37,0.04,0.81,0.29,1.11,0.31c0.49,0.03,1.15-0.23,1.71-0.23c1.18,0,2.38-0.31,3.54-0.24c1.71,0.1,3.65-0.2,5.22,0.24c1.08,0.3,2.13,1.01,3.22,1.04c0.98,0.02,2.06,0.2,3.05,0.4c0.99,0.2,1.78,0.52,2.87,0.48c0.65-0.02,1.47-0.03,1.61-0.68c0.37-1.67-2.43-2.5-3.46-2.85c-2.06-0.71-4.05-1.49-6.18-1.98c-1.27-0.29-2.46-0.88-3.77-0.94c-1.15-0.05-2.34-0.05-3.49,0c-2.01,0.08-4.18,0.24-6.17,0.5c-1.89,0.24-3.77,0.18-5.68,0.32c-1.56,0.11-3.14,0.44-4.68,0.7c-1.55,0.26-3.14,0.36-4.68,0.64c-1.15,0.21-2.36,0.47-3.48,0.72c-1.62,0.36-4.6,2.54-2.23,3.83"/><path fill="#853919" fill-opacity="1" d="M152.24,270.12c0.86,0.53,3.78,3.75,4.47,4.6c1.44,1.79,2.96,3.32,4.62,4.9c1.09,1.04,2.03,2.53,3.35,3.33c0.94,0.56,1.9,1.21,2.88,1.73c1.82,0.98,4,1.76,6.07,2.01c1.21,0.15,2.37,0.01,3.56,0.16c1.32,0.17,2.47,0.37,3.83,0.31c1.62-0.06,7.56-0.45,8.74-1.28c0.8-0.56,1.81-0.67,2.64-1.17c0.86-0.52,1.8-1.2,2.64-1.83c2.05-1.52,4.16-3.07,5.84-5.05c0.91-1.07,4.51-4.06,4.9-4.85c0.29-0.58,1.93-2.27,2.07-2.87c0.11-0.48-2.12-0.46-1.92-0.94c-0.82,0.17-1.57,1.09-2.4,1.48c-1.06,0.5-2.2,0.99-3.33,1.33c-1.53,0.46-2.88,1.28-4.17,2.19c-0.95,0.68-1.95,1.22-2.93,1.91c-0.96,0.68-5.32,2.25-6.51,2.37c-2.55,0.26-4.85-0.29-7.41-0.38c-2.64-0.09-4.69-0.94-7.23-1.66c-2.58-0.73-4.83-1.17-7.11-2.41c-0.88-0.48-1.62-1.12-2.55-1.53c-1.02-0.45-1.89-0.95-2.72-1.52c-1.4-0.95-3-1.1-4.71-1.18c-0.73-0.04-1.38-0.13-1.83,0.48"/><path fill="#8f4323" d="M151.92,269.96c1.22,0.2,2.52-1.94,3.38-2.67c0.87-0.74,1.97-1.58,3.02-2.08c2.07-0.97,4.83-2.17,7.13-2.42c2.82-0.31,5.72-0.27,8.56-0.67c1.43-0.2,2.68-0.54,4.06,0.16c0.63,0.32,0.98,0.82,1.72,0.99c0.95,0.22,1.86-0.28,2.74-0.49c2.33-0.54,4.72-0.98,7.13-0.62c2.58,0.38,5.23,1.53,7.74,2.22c2.27,0.63,4.3,2.02,6.61,2.71c1.47,0.44,3.52,1.13,4.12,2.82c-1.38,1.75-6.15,2.13-8.27,1.8c-2.41-0.38-4.78-1.88-7.13-2.43c-2.69-0.63-5.95-0.32-8.8-0.28c-1.67,0.02-18.77,1.07-20.87,1.79c-1.27,0.44-3.7,0.52-5.77,0c-1.09-0.27-5.04,0.34-5.38-0.67"/></g></svg>