<svg id="s539e784c33982" class="face" xmlns="http://www.w3.org/2000/svg" xmlns:xlink="http://www.w3.org/1999/xlink" x="0px" y="0px" width="357px" height="358px" viewBox="0 0 357 358"><path fill="#b28969" d="M268.5,189.04c-1.41-1.92-2.86-2.74-4.22-2.91c-3.96-0.47-7.28,4.62-7.28,4.62c2.38-21.04,0-32.96,0-32.96c-16.83-65.56-65.84-69.37-76.8-69.39c-0.71,0.02-1.44,0.04-2.2,0.06c-54,1.42-71.5,44.58-71.5,44.58c-9,12.5-4,61.55-4,61.55c-21-12.95-1.5,45.45-1.5,45.45c5,13.5,8,1,8,1c2.88,12.67,6.63,23.41,10.9,32.53c0.85,44.99,1.74,68.73,1.44,83.43c23.33,0,116.79,0,123.83,0l1.52-85.32c6.58-17.33,7.31-32.14,7.31-32.14c2.5,3,6.5,1.5,6.5,1.5C272.75,234.79,268.5,189.04,268.5,189.04z M255.96,199.92C255.93,200.18,255.94,200.15,255.96,199.92L255.96,199.92z M256.22,197.67c0.03-0.3,0.07-0.64,0.11-1.01C256.29,197.01,256.25,197.35,256.22,197.67z M256.82,192.32c0.06-0.55,0.11-0.99,0.14-1.26C256.91,191.5,256.87,191.92,256.82,192.32z M265.33,190.26c-0.04-0.16-0.09-0.37-0.16-0.62c-0.13-0.5-0.31-1.2-0.54-2.1c0.22,0.86,0.4,1.58,0.54,2.1C265.24,189.9,265.29,190.1,265.33,190.26C265.47,190.79,265.48,190.83,265.33,190.26z"/><path fill="#ad8464" d="M125.25,227.25c4.5-6.5,6.97-8.84,12.65-10c4.87-0.99,13.28-2.45,17.35-5.75c9.63-7.79,13.17-20.35,5.59-28.43c-4.32-4.6-7.03-7.3-13.05-8.81c-4.83-1.22-11.04-2.16-15.05-6.1c-7.84-7.69-11.29-20.73-10.82-31.2c0.41-8.95,9.17-18.79,15.15-24.83c7.04-7.12,15.71-14.12,23.72-20.42c-40.38,8.84-54.04,42.51-54.04,42.51c-9,12.5-4,61.55-4,61.55c-21-12.95-1.5,45.45-1.5,45.45c5,13.5,8,1,8,1c2.89,12.7,6.64,23.46,10.93,32.59c-0.78,38.87,1.32,70.54,1.15,83.21c7.79,0.1,53.6-30.51,61.45-32.32C179.16,318.81,113.75,264.75,125.25,227.25z"/><g class="eyes eyes-21"><path fill="#ffffff" fill-opacity="0.7" d="M154.675,192.763c0.515,0.944,0.79,2.031,0.731,3.18c-0.17,3.356-3.065,5.937-6.466,5.764c-3.402-0.172-6.021-3.032-5.851-6.389c0.033-0.656,0.173-1.28,0.398-1.862c-1.676,1.114-4.709,3.721-4.815,4.47l0.063,0.062c-0.05,0.954,1.15,1.029,1.882,1.289c0.907,0.322,1.773,0.785,2.644,1.259c0.822,0.448,4.069,0.996,4.934,1.148c0.806,0.142,3.872,0.212,4.572,0.094c1.264-0.212,2.549-0.602,3.796-0.837c1.189-0.224,2.33-0.613,3.417-1.161c0.866-0.437,2.215-1.071,2.796-1.878C161.553,196.941,156.537,193.614,154.675,192.763z"/><path fill="#4f2a1a" d="M148.94,201.707c3.401,0.172,6.296-2.408,6.466-5.764c0.059-1.148-0.216-2.235-0.731-3.18c-0.106-0.049-0.208-0.093-0.292-0.125c-1.3-0.486-2.623-0.854-4.541-0.718c-0.866,0.063-1.739,0.245-2.575,0.452c-0.974,0.241-2.079,0.236-3,0.629c-0.19,0.082-0.463,0.245-0.779,0.455c-0.225,0.582-0.365,1.206-0.398,1.862C142.919,198.674,145.538,201.534,148.94,201.707z"/><path fill="#ffffff" fill-opacity="0.7" d="M228.037,196.748c-0.722-0.708-1.382-1.047-2.185-1.658c-0.889-0.676-2.145-1.249-3.354-1.735c0.063,0.388,0.086,0.787,0.065,1.193c-0.165,3.241-3.018,5.73-6.374,5.56c-3.354-0.17-5.942-2.935-5.777-6.175c0.046-0.911,0.311-1.759,0.732-2.508c-0.716,0.215-1.425,0.487-2.114,0.7c-0.619,0.192-3.212,1.622-3.919,2.228c-0.889,0.762-1.452,1.607-2.093,2.527c0.56,0.019,0.841,0.271,1.292,0.595c0.753,0.542,3.212,1.283,3.694,1.519c0.8,0.392,2.466,0.982,3.325,1.119c3.313,0.529,5.842,1.562,9.284,0.896c1.335-0.258,2.626-0.453,3.918-0.919c0.585-0.211,3.181-0.713,3.818-0.93c0.506-0.171,1.079-0.506,1.621-0.717C229.415,197.875,228.634,197.334,228.037,196.748z"/><path fill="#4f2a1a" d="M216.189,200.107c3.356,0.17,6.209-2.319,6.374-5.56c0.021-0.407-0.003-0.806-0.065-1.193c-0.627-0.252-1.242-0.482-1.786-0.689c-1.222-0.463-2.409-0.83-3.631-1.086c-1.199-0.252-2.715-0.533-3.962-0.514c-0.659,0.011-1.32,0.161-1.975,0.358c-0.422,0.75-0.687,1.598-0.732,2.508C210.247,197.172,212.835,199.937,216.189,200.107z"/></g><g class="eyebrows eyebrows-13"><path fill="#2e1d16" fill-opacity="0.7" d="M121,190.5c5.82-10.47,19.05-12,30.01-10.25c5.35,0.85,9.64,1.74,13.68,5.52c0.75,0.7,4.47,2.92,4.32,3.99c-0.31,2.24-5.16,0.96-6.27,0.74c-4.19-0.84-8.23-2.73-12.48-3.19c-3.51-0.38-7.49-0.35-11,0.25c-2.88,0.49-5.61,1.7-8.78,1.69c-3.49-0.01-6.59-0.48-9.75,1.25"/><path fill="#2e1d16" fill-opacity="0.7" d="M195.25,186.75c2.22-2.8,5.53-4.17,8.49-5.94c3.9-2.32,11.4-3.28,15.75-3.06c3.69,0.18,15.32,4.97,15.21,9.71c-1.75-0.19-2.81,0.35-4.45,0.03c-1.41-0.27-2.56-0.76-4-0.99c-3.32-0.54-6.88-0.25-10.26-0.25c-6.99,0-13.37,2.11-20.21,1.71c-0.26-0.51-0.4-1.11-0.29-1.71"/></g><g class="chin chin-14"><path fill="none" stroke="#ad8464" stroke-miterlimit="10" d="M148.75,318c1.85,1.27,4.95,5.06,6.75,6.49c2.86,2.27,8.72,4.76,12.25,5.26c5.44,0.76,7.65,0.09,13.06,0.99c4.16,0.69,10.05-1.05,14.19-1.24c10.29-0.47,16.5-6.16,19.25-15.75"/></g><g class="hair hair-11"><linearGradient id="hair_539e784c34929" gradientUnits="userSpaceOnUse" x1="178.3511" y1="214.4145" x2="180.4139" y2="146.8902"><stop offset="0" style="stop-color:#2e1d16;stop-opacity:0.1"/><stop offset="1" style="stop-color:#2e1d16"/></linearGradient><path fill="url(#hair_539e784c34929)" fill-opacity="1" d="M257.1,191.8c2.4-21,0-33,0-33c-16.8-65.6-65.8-69.4-76.8-69.4c-0.7,0-1.4,0-2.2,0.1c-54,1.4-71.5,44.6-71.5,44.6c-9,12.5-4,61.5-4,61.5c0.6,7.9,4.9,14.7,7.9,20.2c0,0-1.5-32.7,1-41.7c0,0,16.5-21.4,9.8-46.4c0,0,42.6-3.1,69.9-5.6c0,0,35.3-2,42.8,6c0,0-4,18,3.5,34c0,0,12,20.5,14,39.5L257.1,191.8z"/></g><g class="nose nose-5"><path fill="#a87f5f" d="M186.01,198.89c-0.17,1.53-0.26,3.95-0.49,5.46c-0.58,3.86,0.9,6.29,0.88,10.24 c-0.02,6.65,6.48,12.91,4.38,19.46c-5.2-0.71-6.56-12.33-6.95-16.23c-0.33-3.31-1.14-7.11-1.01-10.49 c0.11-2.91,1.43-6.24,2.54-9.75C185.35,197.6,186.24,196.78,186.01,198.89z"/><path fill="#805737" d="M165.5,244.33c1.52-1.45,2.67-2.87,4.83-3c2.28-0.14,3.18,0.5,4.64,1.86c0.55,1.97-0.21,1.84-1.8,2.14c-1.35,0.26-2.17,0.93-3.33,1.54c-2.53,1.32-6.37,0.85-4-2.38"/><path fill="#805737" d="M192,242.33c2.14-1.62,4.19-2.19,6.21-0.7c1.07,0.79,3.26,2.53,2.47,4.04c-0.68,1.28-3.37,1.48-4.37,1.04c-1.67-0.72-2.89-1.95-4.77-2.41c-0.36-0.67-0.28-1.44,0.31-1.97"/><path fill="none" stroke="#a37a5a" stroke-miterlimit="10" d="M166,217.99c-0.28,1.33-1.67,2.01-2.47,3.04c-0.7,0.9-1.38,2.1-1.9,2.96c-0.65,1.07-0.84,1.72-0.84,2.7c0,1.62-0.01,2.36-0.99,3.8c-1.61,2.34-4.24,4.25-4.59,7.17c-0.38,3.09,2.17,5.79,3.32,8.47c0.61,0.03,1.51-0.16,2.01-0.1c1.08,0.13,1.6,0.53,2.67,0.97c1.6,0.65,3.27,1.34,4.87,1.88c2.18,0.74,4.41-0.04,6.56-0.26c1.45-0.15,2.56,0.59,4.16,0.92c1.69,0.35,3.52,0.63,5.38,0.63c2.46,0,2.05-0.56,3.79-1.67c4.06-2.59,9.16-0.36,13.17,0.68c3.59,0.93,7.69-1.85,8.72-5.35c1.15-3.91-1.4-8.81-3.51-11.99"/></g><g class="mouth mouth-23"><path fill="#E0DCDA" d="M196.66,277.52c2.04-1.92,4.63-2.73,7.37-3.56v-7.18h-47.51v6.65c0.48,0.08,0.95,0.25,1.38,0.54c0.97,0.67,2.01,1.25,2.98,1.92c0.7,0.48,1.37,1.02,2.04,1.54c-0.43-0.34-0.12-0.13,0.21,0.09H196.66z"/><path fill="#6A3433" d="M204.04,273.17c0.66-0.9,1.42-1.69,2.37-2.31c0.28-0.18,0.56-0.33,0.85-0.46c0,0,0,0,0-0.01c-4.08-0.64-8.16-1.54-12.14-2.51c-2.68-0.66-4.25,0.09-6.82,0.13c-2.15,0.04-4.16-0.66-6.29-0.81c-5.25-0.37-10.72-0.9-15.98-0.65c-2.52,0.12-4.9,0.36-7.35,0.89c-1.8,0.39-3.72,0.27-5.44,0.92c-0.04,0.02-0.08,0.03-0.13,0.04c0,0,0,0,0,0c-0.47,0.37-1.28,0.9-1.26,1.47c1.18,0.07,2.33,0.41,3.34,1.15c0.67,0.49,1.31,1.01,1.93,1.56c0.08,0.07,0.16,0.14,0.25,0.21c0.41-0.8,1.01-1.38,1.68-2.05c0.33-0.34,0.66-0.54,1.03-0.83c0.65-0.49,0.9-0.47,1.78-0.43c0.63,0.03,1.27,0.01,1.9,0.06c0.41,0.03,0.82,0.17,1.24,0.1c0.62-0.09,1.03-0.39,1.73-0.36c1.95,0.06,3.88,0.45,5.84,0.27c1.24-0.11,2.39-0.15,3.6,0.15c1.16,0.28,2.09-0.05,3.23-0.15c2.17-0.19,4.41-0.05,6.59-0.06c1.13,0,2.19,0.1,3.27,0.21c0.8,0.08,1.56,0.04,2.34-0.15c0.92-0.22,1.68-0.04,2.6,0.15c2.09,0.42,4.21,0.69,6.16,1.55c0.38,0.17,0.8,0.27,1.16,0.48c0.31,0.19,0.33,0.34,0.57,0.56c0.38,0.34,1.01,0.61,1.46,0.78C203.73,273.14,203.89,273.16,204.04,273.17z"/><path fill="#9e7555" fill-opacity="1" d="M151.65,269.72c0.52,1.75,2.38,3.06,3.6,4.29c1.21,1.22,2.53,2.22,3.73,3.46c3.07,3.17,6.37,6.53,10.86,7.47c2.56,0.53,5.23,0.59,7.83,0.83c1.31,0.12,2.49,0.42,3.71,0.53c1.49,0.14,2.93-0.11,4.34-0.42c1.98-0.44,4.27-0.85,6.09-1.83c2.13-1.16,4.28-2.42,6.4-3.53c2.25-1.18,4.58-3.42,6.38-5.19c1.7-1.67,3.05-3.4,4.28-5.41c-1.81-0.27-3.38,1.54-4.63,2.53c-1.58,1.26-4.14,0.67-6,1.44c-1.78,0.74-3.41,1.43-5.2,2.08c-1.95,0.71-4.13,0.66-6.21,0.98c-4.39,0.68-8.65,0.12-12.97-0.27c-1.91-0.17-3.84-0.71-5.67-1.05c-1.16-0.22-2.22-0.65-3.41-0.76c-1.05-0.1-1.99-0.1-2.94-0.5c-1.06-0.44-2.38-0.7-3.33-1.25c-0.84-0.48-1.6-1.15-2.49-1.63c-1.43-0.77-2.95-1.44-4.36-1.98"/><path fill="#a87f5f" d="M151.56,269.83c1.33-1.34,2.27-2.91,3.75-4.07c1.54-1.21,3.2-2.22,5.07-2.78c1.87-0.56,4.15-0.43,6.13-0.53c2.08-0.11,4.18-0.33,6.25-0.33c0.94,0,1.89,0.04,2.8,0.19c1.32,0.22,3.6,0.17,4.81,0.45c2.67,0.63,5.97-0.68,8.73-0.83c2.78-0.15,4.91,0.7,7.67,0.9c1.26,0.09,2.79,0.87,3.94,1.36c0.93,0.39,4.07,2.62,5.13,3.62c0.72,0.68,2.31,1.32,3.03,2.12c-2.28,0.95-5.88,0.08-8.14-0.24c-2.38-0.34-11.59-1.22-13.84-1.31c-2.35-0.09-4.67,0.3-6.96,0.29c-2.21-0.01-12.18-0.91-14.93-1.23c-2.4-0.28-3.59,0.33-5.99,0.24c-1.04-0.04-3.96,0.45-4.81,0.94c-0.69,0.39-1.54,0.81-2.18,1.32"/></g></svg>