<svg id="s53bc14aa96c76" class="face" xmlns="http://www.w3.org/2000/svg" xmlns:xlink="http://www.w3.org/1999/xlink" x="0px" y="0px" width="357px" height="358px" viewBox="0 0 357 358"><path fill="#b3876a" d="M268.5,189.04c-1.41-1.92-2.86-2.74-4.22-2.91c-3.96-0.47-7.28,4.62-7.28,4.62c2.38-21.04,0-32.96,0-32.96c-16.83-65.56-65.84-69.37-76.8-69.39c-0.71,0.02-1.44,0.04-2.2,0.06c-54,1.42-71.5,44.58-71.5,44.58c-9,12.5-4,61.55-4,61.55c-21-12.95-1.5,45.45-1.5,45.45c5,13.5,8,1,8,1c2.88,12.67,6.63,23.41,10.9,32.53c0.85,44.99,1.74,68.73,1.44,83.43c23.33,0,116.79,0,123.83,0l1.52-85.32c6.58-17.33,7.31-32.14,7.31-32.14c2.5,3,6.5,1.5,6.5,1.5C272.75,234.79,268.5,189.04,268.5,189.04z M255.96,199.92C255.93,200.18,255.94,200.15,255.96,199.92L255.96,199.92z M256.22,197.67c0.03-0.3,0.07-0.64,0.11-1.01C256.29,197.01,256.25,197.35,256.22,197.67z M256.82,192.32c0.06-0.55,0.11-0.99,0.14-1.26C256.91,191.5,256.87,191.92,256.82,192.32z M265.33,190.26c-0.04-0.16-0.09-0.37-0.16-0.62c-0.13-0.5-0.31-1.2-0.54-2.1c0.22,0.86,0.4,1.58,0.54,2.1C265.24,189.9,265.29,190.1,265.33,190.26C265.47,190.79,265.48,190.83,265.33,190.26z"/><path fill="#ae8265" d="M125.25,227.25c4.5-6.5,6.97-8.84,12.65-10c4.87-0.99,13.28-2.45,17.35-5.75c9.63-7.79,13.17-20.35,5.59-28.43c-4.32-4.6-7.03-7.3-13.05-8.81c-4.83-1.22-11.04-2.16-15.05-6.1c-7.84-7.69-11.29-20.73-10.82-31.2c0.41-8.95,9.17-18.79,15.15-24.83c7.04-7.12,15.71-14.12,23.72-20.42c-40.38,8.84-54.04,42.51-54.04,42.51c-9,12.5-4,61.55-4,61.55c-21-12.95-1.5,45.45-1.5,45.45c5,13.5,8,1,8,1c2.89,12.7,6.64,23.46,10.93,32.59c-0.78,38.87,1.32,70.54,1.15,83.21c7.79,0.1,53.6-30.51,61.45-32.32C179.16,318.81,113.75,264.75,125.25,227.25z"/><g class="eyes eyes-2"><path fill="#ffffff" fill-opacity="0.7" d="M126.5,210.5c2.81,0.68,5.07,2.41,7.83,2.96c2.77,0.55,5.03,0.2,7.83,0.2c5.21,0.01,11.24-0.49,13.94-5.5c-2.65-1.28-5.08-2.56-8.09-3.18c-2.91-0.6-4.69-1.94-8.1-1.62c-2.42,0.23-5.64,1.2-7.7,2.33c-1.03,0.57-2.08,1.42-3.09,2.09c-0.77,0.51-3.44,1.54-1.95,2.54"/><path fill="#ffffff" fill-opacity="0.7" d="M198.33,208.67c1.55,0.8,2.67,2.38,4.17,3.34c1.33,0.85,2.97,1.33,4.5,1.83c2.69,0.87,5.48,0.66,8.33,0.66c2.91,0,5.66,0.02,8.38-0.82c1.53-0.47,5.29-1.01,5.94-2.68c-1.28-0.62-2.55-0.95-3.78-1.67c-1.18-0.69-2.16-1.7-3.37-2.5c-2.64-1.76-5.22-2.03-8.38-2.32c-2.9-0.27-6.6-1.19-9.58-0.47c-1.7,0.41-6.71,3.26-5.54,5.14"/><path fill="#332a19" d="M134.5,205.5c-0.72,2.94,0.68,5.42,2.96,7.2c2.33,1.82,5.24,1.01,7.74-0.66c1.73-1.16,4.89-4.57,2.92-6.83c-1.55-1.78-6.41-1.49-8.62-1.55c-1.11-0.03-6.91,1.76-5.5,3.5"/><path fill="#332a19" d="M208.17,205.17c-1.87,2.2-3.55,3.97-1.89,6.94c2.03,1.46,6.15,2.68,8.9,1.61c0.82-0.32,2.23-1.44,2.78-2.2c0.63-0.88,1.73-3.62,1.31-4.63c-1.05-2.52-6.23-2.38-8.44-2.38c-3.18,0-5.8,1.74-5.33,5.3c0.08,0.63,0.15,1.12,0.67,1.54"/></g><g class="eyebrows eyebrows-20"><path fill="#19120c" fill-opacity="1" d="M120,193c2.964-3.944,4.346-8.004,7.818-11.7c4.633-4.93,12.946-4.678,19.194-5.3c3.71-0.369,7.282-0.226,10.949,0.682c2.651,0.656,9.891,1.969,10.744,4.818c1.394,4.653-8.978,4.32-11.4,4.25c-6.998-0.203-13.255-2.153-20.092,0.312c-3.685,1.328-6.448,1.632-9.695,3.638c-2.375,1.468-4.913,1.614-7.269,3.3"/><path fill="#19120c" fill-opacity="1" d="M243.75,188.25c-1.425-0.445-3.628-3.865-5.098-4.994c-2.428-1.866-4.7-3.276-7.631-4.2c-5.42-1.709-10.988-3.056-16.717-3.056c-5.33,0-14.488-0.107-18.054,4.506c-4.131,5.345,4.082,5.994,7.75,5.994c3.552,0,7.34-1.307,10.749-1c3.77,0.34,6.914-0.049,10.5-0.25c3.549-0.199,8.461,0.801,11.75,1.987c2.738,0.987,4.834,3.308,7.968,3.219c-0.111-1.284-1.442-2.003-2.468-2.707"/></g><g class="chin chin-17"><path fill="none" stroke="#ae8265" stroke-miterlimit="10" d="M143.3,308.7c2.9,0.4,6,5.3,8.4,7c2.9,2.1,5.9,2.6,9,3.7 c5.7,2,11.3,3.6,17.4,3.9c3.4,0.2,5.8-0.8,9-0.9c3.8-0.1,6.5,0.9,10.1-0.3c7.5-2.4,14.8-3.1,19.8-10.2c0.4-0.5,0.8-1,1.1-1.6"/></g><g class="hair hair-5"><path fill="#19120c" fill-opacity="0.2" d="M257,157.79c-16.83-65.56-65.84-69.37-76.8-69.39c-0.71,0.02-1.44,0.04-2.2,0.06c-54,1.42-71.5,44.58-71.5,44.58c-9,12.5-5.86,67.86-3.69,61.08c0.9-2.79,4.14-11.7,4.76-14.53c0.46-2.1,1.22-4.29,1.63-6.47c1.08-5.77,6.35-8.96,8.05-14.38c0.93-2.95,1.28-6.07,2.21-9.2c0.83-2.76,1.84-5.29,1.81-8.29c-0.07-5.82,3.33-11.83,8.67-14.95c4.18-2.44,9.11-3.16,13.46-5.36c3.91-1.98,7.73-3.63,11.85-5.18c16.46-6.18,58.27,0.36,60.26,1.69c2,1.33,4.37,2.42,6.45,3.62c4.46,2.56,9.48,3.91,12.49,8.42c2.63,3.95,0.59,11.74,1.31,15.64c0.54,2.92,7.71,6.53,8.42,9.46c0.73,3.02,3.5,7.92,4.33,10.67c1.06,3.5,8.75,19.53,8.75,22.52c0,0.18,0,0.36,0,0.55C259.19,168.8,257,157.79,257,157.79z"/></g><g class="nose nose-5"><path fill="#a97d60" d="M186.01,198.89c-0.17,1.53-0.26,3.95-0.49,5.46c-0.58,3.86,0.9,6.29,0.88,10.24 c-0.02,6.65,6.48,12.91,4.38,19.46c-5.2-0.71-6.56-12.33-6.95-16.23c-0.33-3.31-1.14-7.11-1.01-10.49 c0.11-2.91,1.43-6.24,2.54-9.75C185.35,197.6,186.24,196.78,186.01,198.89z"/><path fill="#815538" d="M165.5,244.33c1.52-1.45,2.67-2.87,4.83-3c2.28-0.14,3.18,0.5,4.64,1.86c0.55,1.97-0.21,1.84-1.8,2.14c-1.35,0.26-2.17,0.93-3.33,1.54c-2.53,1.32-6.37,0.85-4-2.38"/><path fill="#815538" d="M192,242.33c2.14-1.62,4.19-2.19,6.21-0.7c1.07,0.79,3.26,2.53,2.47,4.04c-0.68,1.28-3.37,1.48-4.37,1.04c-1.67-0.72-2.89-1.95-4.77-2.41c-0.36-0.67-0.28-1.44,0.31-1.97"/><path fill="none" stroke="#a4785b" stroke-miterlimit="10" d="M166,217.99c-0.28,1.33-1.67,2.01-2.47,3.04c-0.7,0.9-1.38,2.1-1.9,2.96c-0.65,1.07-0.84,1.72-0.84,2.7c0,1.62-0.01,2.36-0.99,3.8c-1.61,2.34-4.24,4.25-4.59,7.17c-0.38,3.09,2.17,5.79,3.32,8.47c0.61,0.03,1.51-0.16,2.01-0.1c1.08,0.13,1.6,0.53,2.67,0.97c1.6,0.65,3.27,1.34,4.87,1.88c2.18,0.74,4.41-0.04,6.56-0.26c1.45-0.15,2.56,0.59,4.16,0.92c1.69,0.35,3.52,0.63,5.38,0.63c2.46,0,2.05-0.56,3.79-1.67c4.06-2.59,9.16-0.36,13.17,0.68c3.59,0.93,7.69-1.85,8.72-5.35c1.15-3.91-1.4-8.81-3.51-11.99"/></g><g class="mouth mouth-15"><path fill="#9f7356" fill-opacity="1" d="M155.17,269.83c2.28,0.77,3.62,5.06,5.54,6.67c2.81,2.35,6.46,4.04,10.09,4.71c6.54,1.21,13.64-0.47,20.2,0.96c7.75,1.68,15.34-5.75,16.98-12.63c-2.1-0.07-4.06-0.37-6.13-0.87c-3.28-0.79-6.47-0.27-9.82-0.17c-2.67,0.08-5.21,0.97-7.89,1.17c-2.64,0.19-5.33,0.25-7.99,0.33c-1.85,0.06-3.47-0.67-5.16-0.99c-1.93-0.37-3.73,0-5.61,0.17c-2,0.18-4.03-0.1-6.02,0.16c-1.21,0.16-2.34,0.75-3.54,0.83"/><path fill="#a97d60" d="M154.83,270c1.32-1.31,3.81-2.26,5.37-3.29c1.13-0.75,2.22-1.45,3.61-1.84c2.71-0.75,5.81-1.18,8.54-1.71c2.58-0.5,5.99-1.4,8.37,0.01c1.12,0.67,1.9,1.69,3.28,1.83c2.11,0.21,4.58-1.09,6.73-1.34c2.03-0.24,3.7,0.7,5.72,0.96c2.05,0.26,3.68,0.66,5.63,1.34c2.09,0.73,5.17,1.95,6.9,3.41c-1.88,3.29-6.43,3.83-10.01,3.8c-3.57-0.04-6.77-1.62-10.29-1.34c-2.32,0.19-4.22,1.15-6.54,1.17c-3.19,0.03-6.37-0.02-9.52-0.33c-3.2-0.32-6.42-0.68-9.91-0.67c-1.53,0-3.68-0.21-5.05-0.83c-1-0.46-1.51-1.04-2.67-1.17"/></g></svg>