<svg id="s5a4017d494102" class="face" xmlns="http://www.w3.org/2000/svg" xmlns:xlink="http://www.w3.org/1999/xlink" x="0px" y="0px" width="357px" height="358px" viewBox="0 0 357 358"><path fill="#dfa192" d="M268.5,189.04c-1.41-1.92-2.86-2.74-4.22-2.91c-3.96-0.47-7.28,4.62-7.28,4.62c2.38-21.04,0-32.96,0-32.96c-16.83-65.56-65.84-69.37-76.8-69.39c-0.71,0.02-1.44,0.04-2.2,0.06c-54,1.42-71.5,44.58-71.5,44.58c-9,12.5-4,61.55-4,61.55c-21-12.95-1.5,45.45-1.5,45.45c5,13.5,8,1,8,1c2.88,12.67,6.63,23.41,10.9,32.53c0.85,44.99,1.74,68.73,1.44,83.43c23.33,0,116.79,0,123.83,0l1.52-85.32c6.58-17.33,7.31-32.14,7.31-32.14c2.5,3,6.5,1.5,6.5,1.5C272.75,234.79,268.5,189.04,268.5,189.04z M255.96,199.92C255.93,200.18,255.94,200.15,255.96,199.92L255.96,199.92z M256.22,197.67c0.03-0.3,0.07-0.64,0.11-1.01C256.29,197.01,256.25,197.35,256.22,197.67z M256.82,192.32c0.06-0.55,0.11-0.99,0.14-1.26C256.91,191.5,256.87,191.92,256.82,192.32z M265.33,190.26c-0.04-0.16-0.09-0.37-0.16-0.62c-0.13-0.5-0.31-1.2-0.54-2.1c0.22,0.86,0.4,1.58,0.54,2.1C265.24,189.9,265.29,190.1,265.33,190.26C265.47,190.79,265.48,190.83,265.33,190.26z"/><path fill="#da9c8d" d="M125.25,227.25c4.5-6.5,6.97-8.84,12.65-10c4.87-0.99,13.28-2.45,17.35-5.75c9.63-7.79,13.17-20.35,5.59-28.43c-4.32-4.6-7.03-7.3-13.05-8.81c-4.83-1.22-11.04-2.16-15.05-6.1c-7.84-7.69-11.29-20.73-10.82-31.2c0.41-8.95,9.17-18.79,15.15-24.83c7.04-7.12,15.71-14.12,23.72-20.42c-40.38,8.84-54.04,42.51-54.04,42.51c-9,12.5-4,61.55-4,61.55c-21-12.95-1.5,45.45-1.5,45.45c5,13.5,8,1,8,1c2.89,12.7,6.64,23.46,10.93,32.59c-0.78,38.87,1.32,70.54,1.15,83.21c7.79,0.1,53.6-30.51,61.45-32.32C179.16,318.81,113.75,264.75,125.25,227.25z"/><g class="eyes eyes-25"><path fill="#FFFFFF" fill-opacity="0.7" d="M136.3,206.4c8.7-3,20.3-9,27.7,0.3c-8.7,2.2-21.4-3-28.8,0"/><path fill="#FFFFFF" fill-opacity="0.7" d="M197.3,206c4.3-1.9,8.5-3.7,12.9-5.4c-0.3,0.1-0.4,0.2-0.4,0.4c3-0.1,6.9,1.2,9.8,2.2 c2.2,0.8,5,1.9,5.7,4.1c-4.7,0.1-9.6-0.6-14.5-0.6c-4.4,0-8.9,0.2-13.2,0c3.3-3.2,8.2-5.5,12.5-5.2"/><path fill="#38453e" d="M144.8,203.4c0.2,0.9,0.6,1.8,1.2,2.6c3.5,0.4,7.1,0.9,10.6,1.1c0.3-0.7,0.5-1.6,0.4-2.7 c0-1-0.2-1.8-0.4-2.5C152.8,201.2,148.8,202.1,144.8,203.4z"/><path fill="#38453e" d="M218.2,207.1c0.8-1.1,1.2-2.4,1.1-3.9c-2.9-1-6.6-2.3-9.5-2.1c0-0.2,0.1-0.3,0.4-0.4 c-0.8,0.3-1.5,0.6-2.3,0.9c-0.2,0-0.4,0-0.6,0.1c-0.4,1-0.6,2.1-0.5,3.3l0-0.2c-0.1,0.8-0.1,1.5,0,2.1c1.3,0,2.6,0,3.9,0 C213.2,206.8,215.7,206.9,218.2,207.1z"/></g><g class="eyebrows eyebrows-5"><path fill="#845b3b" fill-opacity="0.6" d="M114.25,190.75c1.95-3.04,4.46-5.31,7.01-7.75c2.4-2.31,4.72-2.64,7.94-3.31c2.79-0.58,5.18,0.52,8.06,0.81c3.36,0.33,5.37-1.06,8.18,0.75c-0.12-0.03-0.8-0.08-0.46,0c2.81-0.24,5.11,2.07,7.77,2.25c2.49,0.17,4.97-1.64,7.52-0.75c2.06,0.72,6.02,9.88,1.49,10.51c-1.87,0.26-5.42-2.3-7.56-2.52c-3.24-0.33-5.06-0.96-7.93-2.07c-4.47-1.72-8.45,0.04-12.51,0.58c-3.68,0.49-7.56,1.28-10.99,2.74c-3.5,1.49-7.38,2.51-10.23,4.99c-0.17-2.03,1.95-5.3,2.46-7.48"/><path fill="#845b3b" fill-opacity="0.6" d="M199.75,189.5c-3.81-3.45,1.92-7.08,4.77-7.79c5.6-1.41,10.93-1.02,16.74-0.71c2.37,0.13,4.53,0.75,7,0.5c1.75-0.18,3.92-1.24,5.76-0.75c1.65,0.43,3.21,2.72,4.69,3.76c1.99,1.4,2.9,2.36,4.24,4.49c1.49,2.36,4.66,3.84,3.27,7.21c-1.88-0.14-3.52-2.41-5.02-3.41c-2.21-1.47-4.85-1.52-7.38-2.11c-3.76-0.88-7.33-1.25-11.29-1.7c-4.63-0.52-7.97,0.13-12.5,0.82c-3,0.46-7.17,2.57-9.76-0.31"/></g><g class="chin chin-8"><path fill="none" stroke="#da9c8d" stroke-miterlimit="10" d="M147.66,312.5c2.25,2.69,5,4.72,7.44,7.05 c1.68,1.6,3.26,3.36,5.1,4.71c1.87,1.37,4.35,2.79,6.47,3.57c3.26,1.2,5.64,2.43,9.1,3.18c3.51,0.75,7.66,0.24,11.23,0.24 c4.15-0.01,6.93,0.12,10.8-2c3.13-1.71,6.24-3.52,9.03-5.75c5.68-4.53,10.22-10.58,15.24-16.25"/></g><g class="hair hair-10"><path fill="#845b3b" fill-opacity="1" d="M257.1,191.8c2.4-21,0-33,0-33c-16.8-65.6-65.8-69.4-76.8-69.4c-0.7,0-1.4,0-2.2,0.1 c-20.3,0.5-35.4,6.9-46.4,14.8c-7.4,6.1-14.8,14.1-22.2,24.2c-2,3.4-2.9,5.6-2.9,5.6c-9,12.5-4,61.5-4,61.5 c0.3,1.4,0.5,1.7,0.5,1.9c0,0,0.9,5.9,3,14.9c0,0,3.1-28.8,10.5-36.7c0,0,11.6-4.7,11.9-18.4c0,0-1.7-19.4,0.7-23.8c0,0,58.2-29.9,103.8,3.6c0,0,5.8,24.5,13.3,38.5c0,0,1.4,1.1,2.4,8.6c0,0,1.4,24.1,2.7,29.9l3.1-13L257.1,191.8z M256.9,193.3 c0.1-0.5,0.1-1,0.1-1.3C257,192.5,257,192.9,256.9,193.3z"/></g><g class="nose nose-11"><path fill="#d59788" d="M186.01,198.89c-0.17,1.53-0.26,3.95-0.49,5.46c-0.58,3.86,0.9,6.29,0.88,10.24 c-0.02,6.65,6.48,12.91,4.38,19.46c-5.2-0.71-6.56-12.33-6.95-16.23c-0.33-3.31-1.14-7.11-1.01-10.49 c0.11-2.91,1.43-6.24,2.54-9.75C185.35,197.6,186.24,196.78,186.01,198.89z"/><path fill="#ad6f60" d="M168.25,236.38c-1.48,0.41-5.26,4.48-3.75,5.85c1.41,1.29,2.76-0.81,3.88-1.39c1.75-0.9,3.65-0.71,5.48-1.35c0.53-2.2-4.6-5.68-5.73-2.99"/><path fill="#ad6f60" d="M188.63,235c-1.05-0.39-1.6-1.1-2.78-0.5c-0.65,0.33-2,1.59-2.35,2.22c-1.14,2.1,3.47,3.29,4.9,4.06c1.06,0.57,5.07,1.1,4.35-1.17c-0.25-0.8-1.83-2.11-2.35-2.9c-0.52-0.77-0.86-1.18-1.65-1.59"/><path fill="none" stroke="#d09283" stroke-miterlimit="10" d="M155.88,239.75c0.06,7.07,10.22,7.27,15.25,6c2.97-0.75,5.7,0.64,8.59,0.88c0.73,0.06,1.81,0.16,2.51-0.09c0.71-0.26,1.25-1.16,1.91-1.48c1.22-0.6,3.52-0.55,4.88-0.31c2.73,0.49,5.06,1.36,7.61-0.09c2.49-1.41,3.63-2.95,3.63-5.78"/></g><g class="mouth mouth-3"><path fill="#a7696a" fill-opacity="0.9" d="M157.13,273.38c1.85,0.61,3.26,2.16,5.26,2.71c1.8,0.49,3.66,0.59,5.47,1.17c2.26,0.72,4.13,1.89,6.52,2c3.88,0.17,7.85-0.08,11.72-0.25c2-0.08,3.83-0.28,5.7-0.76c1.62-0.41,3.63-1.22,5.04-2.08c1.17-0.71,2.92-1.08,4.17-1.58c1.08-0.44,2.23-0.95,3.33-1.33c0.76-0.27,1.26-0.73,0.8-1.75c-0.41-0.9-2.57-1.25-3.38-1.49c-1.33-0.39-2.68-0.5-3.97-1.01c-2.52-0.99-5.23-1.95-7.97-2.37c-2.25-0.35-4.5-0.53-6.77-0.25c-2.87,0.35-5.24,2.07-8.11,2.63c-2.31,0.45-4.73,0.57-7.05,0.88c-2.13,0.28-3.55,0.94-5.37,1.88c-0.96,0.49-4.21,2.28-5,1.99"/><path fill="#d59788" d="M156.25,273c0.71-0.98,1.64-2.1,2.53-2.87c1.69-1.48,3.96-1.65,5.82-2.88c3.53-2.35,8.68-3.99,12.88-4.59c2.03-0.29,4.12,0.04,6.07-0.42c2.64-0.64,6.36-0.24,8.7,1.15c2.46,1.46,4.7,3.66,7.19,5.13c1.26,0.75,2.54,1.42,3.81,2.12c1.4,0.77,3.08,1.3,4.35,2.14c-3.03-0.07-5.93-0.95-8.95-1.26c-3.79-0.4-7.25-2.19-10.96-2.72c-1.5-0.21-2.97-0.03-4.49,0.19c-1.13,0.17-2.58,0.22-3.83,0.41c-2.83,0.42-5.61,1.59-8.5,1.88c-2.88,0.29-6.03,1.2-8.75,2.13c-0.5,0.17-7.44,1.44-5.38-1.25"/></g></svg>