<svg id="s539e78493e516" class="face" xmlns="http://www.w3.org/2000/svg" xmlns:xlink="http://www.w3.org/1999/xlink" x="0px" y="0px" width="357px" height="358px" viewBox="0 0 357 358"><path fill="#7c4f2e" d="M268.5,189.04c-1.41-1.92-2.86-2.74-4.22-2.91c-3.96-0.47-7.28,4.62-7.28,4.62c2.38-21.04,0-32.96,0-32.96c-16.83-65.56-65.84-69.37-76.8-69.39c-0.71,0.02-1.44,0.04-2.2,0.06c-54,1.42-71.5,44.58-71.5,44.58c-9,12.5-4,61.55-4,61.55c-21-12.95-1.5,45.45-1.5,45.45c5,13.5,8,1,8,1c2.88,12.67,6.63,23.41,10.9,32.53c0.85,44.99,1.74,68.73,1.44,83.43c23.33,0,116.79,0,123.83,0l1.52-85.32c6.58-17.33,7.31-32.14,7.31-32.14c2.5,3,6.5,1.5,6.5,1.5C272.75,234.79,268.5,189.04,268.5,189.04z M255.96,199.92C255.93,200.18,255.94,200.15,255.96,199.92L255.96,199.92z M256.22,197.67c0.03-0.3,0.07-0.64,0.11-1.01C256.29,197.01,256.25,197.35,256.22,197.67z M256.82,192.32c0.06-0.55,0.11-0.99,0.14-1.26C256.91,191.5,256.87,191.92,256.82,192.32z M265.33,190.26c-0.04-0.16-0.09-0.37-0.16-0.62c-0.13-0.5-0.31-1.2-0.54-2.1c0.22,0.86,0.4,1.58,0.54,2.1C265.24,189.9,265.29,190.1,265.33,190.26C265.47,190.79,265.48,190.83,265.33,190.26z"/><path fill="#774a29" d="M125.25,227.25c4.5-6.5,6.97-8.84,12.65-10c4.87-0.99,13.28-2.45,17.35-5.75c9.63-7.79,13.17-20.35,5.59-28.43c-4.32-4.6-7.03-7.3-13.05-8.81c-4.83-1.22-11.04-2.16-15.05-6.1c-7.84-7.69-11.29-20.73-10.82-31.2c0.41-8.95,9.17-18.79,15.15-24.83c7.04-7.12,15.71-14.12,23.72-20.42c-40.38,8.84-54.04,42.51-54.04,42.51c-9,12.5-4,61.55-4,61.55c-21-12.95-1.5,45.45-1.5,45.45c5,13.5,8,1,8,1c2.89,12.7,6.64,23.46,10.93,32.59c-0.78,38.87,1.32,70.54,1.15,83.21c7.79,0.1,53.6-30.51,61.45-32.32C179.16,318.81,113.75,264.75,125.25,227.25z"/><g class="eyes eyes-22"><path fill="#ffffff" fill-opacity="0.7" d="M154.4,199.38c-0.35-0.22-1.24-0.49-2.31-0.74c1.16,1.56,1.17,4.28,0.66,6.12c-0.5,1.82-3.27,3.8-5.12,4.38c2.18,0.33,5.62-0.3,7.87-0.5c2.81-0.25,5.73-1.07,8.58-1.02C163.46,206.09,159.25,202.38,154.4,199.38z"/><path fill="#ffffff" fill-opacity="0.7" d="M138.63,204.16c-0.14-0.27-0.23-0.59-0.29-0.91c-0.57-1.07-0.48-2.23-0.01-3.3c0.01-0.11,0.01-0.22,0.02-0.33c-1.12,0.33-2.18,0.77-3.12,1.41c-1.11,0.75-3.23,1.5-3.73,2.73l0.13-0.13c1.19,0.51,2.19,1.5,3.15,2.24c1.52,1.17,4.27,1.85,6.1,2.11c0.77,0.11,1.47,0.22,2.15,0.34c-0.57-0.37-1.13-0.79-1.67-1.25C140.34,206.22,139.24,205.35,138.63,204.16z"/><path fill="#4f2a1a" d="M152.75,204.75c0.51-1.83,0.5-4.56-0.66-6.12c-2.05-0.49-4.78-0.94-5.84-0.89c-2.3,0.11-4.4,1.04-6.6,1.53c-0.38,0.09-0.76,0.18-1.13,0.29c-0.03,0.05-0.05,0.1-0.07,0.14l-0.01-0.12c-0.03,0.01-0.06,0.02-0.09,0.03c-0.01,0.11-0.01,0.22-0.02,0.33c-0.47,1.07-0.56,2.23,0.01,3.3c0.06,0.32,0.15,0.63,0.29,0.91c0.61,1.2,1.72,2.07,2.73,2.92c0.54,0.46,1.1,0.88,1.67,1.25c1.5,0.26,2.89,0.55,4.61,0.81C149.48,208.55,152.25,206.57,152.75,204.75z"/><path fill="#ffffff" fill-opacity="0.7" d="M226.5,204.53c-1.93-1.7-3.74-2.98-6.17-3.97c0.34,0.4,0.63,0.8,0.83,1.16c0.64,1.21,0.51,3.53,0.12,4.81c-0.53,1.75-1.52,3.81-3.4,4.57c-1.8,0.73-5.55,0.03-7.03-0.95c-1.53-1.01-3.02-2.34-3.84-3.96c-0.47-0.92-0.89-1.94-1-2.94c-0.14-1.33,0.44-2.36,0.59-3.57c-0.37,0.2-0.73,0.41-1.12,0.66c-1.2,0.75-2.76,1.11-3.97,1.91c-1.61,1.08-2.58,3.07-3.81,4.53c0.65,0.42,1.48,0.79,1.97,1.2c1.05,0.27,2.21,0.96,3.23,1.39c2.06,0.85,4.13,1.04,6.28,1.67c1.38,0.4,2.66,0.68,4.1,0.72c1.68,0.05,3.7-0.08,5.38-0.25c4.42-0.44,5.44-5.37,9.83-5.62C227.81,205.39,227.12,205.08,226.5,204.53z"/><path fill="#4f2a1a" d="M206,203.25c0.11,1.01,0.53,2.03,1,2.94c0.83,1.62,2.32,2.95,3.84,3.96c1.48,0.98,5.23,1.68,7.03,0.95c1.88-0.76,2.87-2.82,3.4-4.57c0.39-1.28,0.52-3.59-0.12-4.81c-0.19-0.36-0.48-0.76-0.83-1.16c-0.16-0.06-0.31-0.13-0.47-0.19c-2.21-0.84-4.77-0.91-7.11-1.25c-1.33-0.19-2.58-0.28-3.94-0.15c-0.62,0.06-1.13,0.21-1.61,0.41c-0.2,0.21-0.39,0.42-0.58,0.61v-0.34c-0.01,0.01-0.02,0.01-0.04,0.02C206.44,200.89,205.86,201.92,206,203.25z"/></g><g class="eyebrows eyebrows-21"><path fill="#0e0e0c" fill-opacity="0.4" d="M171.5,189c-1.46-4.67-6.03-5.8-10.24-6.25c-4.7-0.5-9.13-1.75-13.8-2.43c-4.42-0.65-8.87-1.92-13.15-2.57c-4.45-0.68-8.37,1.52-12.17,3.75c-2.86,1.67-5.56,4.37-7.62,6.94c2.55,0.79,5.12,0.49,7.74,0.37c3.43-0.15,8.56-0.99,11.75-0.31c6.1,1.31,10.36,1.94,16,1.75C155,190.08,166.65,188.51,171.5,189"/><path fill="#0e0e0c" fill-opacity="0.4" d="M229.25,177.5c-4.44,0.66-8.87,1.88-13.25,2.25c-2.83,0.24-5.67,1.15-8.5,1c-3.66-0.2-13.46,0.87-12.46,6.46c2.92,1.52,3.97,3.02,7.92,2.55c2.18-0.26,4.26-1.01,6.48-1.31c2.3-0.31,11.03,0.33,13.11,0.31c5-0.06,9.76-1.13,14.49,1.93c2.61,1.68,8.44,4.75,7.41-1.39c-3.09-1.37-4.66-4.22-7.01-6.49c-2.39-2.31-5.47-3.95-8.44-5.3"/></g><g class="hair hair-2002"><path fill="#0e0e0c" d="M254,102.25c-5.22-5.87-20.75-13.25-27.63-16.18c-13.32-5.67-25.53-10.36-40.12-10.57c-14.88-0.21-29.21,0.21-42.97,5.95c-7.29,3.04-33.05,13.81-33.95,15.38c-2.83,5-1.33,4.33-2.33,9c-0.75,3.52-1.49,14.58-2.51,17.85c-2.12,6.79-1.8,13.44-3,20.5c-1.93,11.36-0.39,43.49-0.06,45.67c0.25,1.65,0.32,3.88,1.15,5.19c0.03-0.47,0.01-0.94-0.03-1.42l0.25,0.23c-0.44-2.67,0.48-5.42,1.03-7.96c0.62-2.86,0.78-5.15,2.4-7.75c3.53-5.64,5.73-9.89,6.49-16.53c0.34-2.94,1.66-5.03,1.72-7.94c0.06-2.57,1.04-4.53,1.28-7.03c0.6-6.25,3.5-10.44,9.48-13.12c3.73-1.67,7.85-2.43,11.67-3.68c2.98-0.97,5.68-2.36,8.68-3.02c2.44-0.53,17.71-2.68,22.34-3.15c3.81-0.39,7.48-0.03,11.26-0.2c3.73-0.17,7.28-0.38,10.78,0.4c6.93,1.55,14,1.55,20.95,3.39c2.87,0.76,5.99,1.55,8.66,2.51c2.42,0.87,3.96,2.5,6.23,3.62c4.45,2.18,10.35,2.67,13.92,5.88c3.37,3.03,4.67,8.22,4.01,12.75c-0.52,3.57-1.4,5.45-0.26,9.08c0.76,2.44,1.98,5.26,3.61,7.21c3.04,3.65,5.23,6.84,7.1,11.11c1.86,4.25,1.44,9.52,1.71,14.19c-0.01-1.82,1.19-3.04,1.84-4.64c0.87-2.15,0.94-4.18,0.9-6.48c-0.08-4.65,0.06-9.13-0.06-13.89c-0.15-5.88-0.87-12.81-0.09-18.61c0.49-3.63,0.17-6.18-0.06-9.81c-0.21-3.21,0.34-5.89,0.65-8.97c0.24-2.27-0.75-13.21-1.54-16.47C256.54,110.77,255.59,106.14,254,102.25z"/></g><g class="facial-hair facial-hair-20"><path fill="#0e0e0c" d="M156.2,303.7c0,0,8.6,2.3,17.1,5l1.3,1.3h1.7l4.2-1.3l2.3,0.3l3.7,1h2.7h3.7h4.3l3.3-1h4l5.3-0.7c0,0,20.1-14.3,22.4-16.3c2.3-2-21.1,24.3-25.4,26.3c-4.3,2-10.7,8-14,7.7c-3.3-0.3-6.3,0-6.3,0l-10.2-3.7l-11.1-6.7l-6.7-5.7l-4.3-4.3l-11.6-12.3L156.2,303.7z"/><path fill="#0e0e0c" d="M153,264c18.3-4.6,41.6-4.9,59.8,0c0-1-1.2-1-1.2-2C205.7,255.8,150.6,254,153,264z"/></g><g class="nose nose-17"><path fill="#724524" d="M186.01,198.89c-0.17,1.53-0.26,3.95-0.49,5.46c-0.58,3.86,0.9,6.29,0.88,10.24 c-0.02,6.65,6.48,12.91,4.38,19.46c-5.2-0.71-6.56-12.33-6.95-16.23c-0.33-3.31-1.14-7.11-1.01-10.49 c0.11-2.91,1.43-6.24,2.54-9.75C185.35,197.6,186.24,196.78,186.01,198.89z"/><path fill="#4a1d00" d="M169.13,243.5c-1.2-0.13-2.39-0.76-3.62-0.62c-1.02,0.11-1.65,0.67-2.53,1.15c-1.83,1.01-4.11,3.85-0.39,3.01c2.33-0.52,4.93-0.37,7.19-1.01c2.82-0.79,0.12-2.27-1.41-2.41"/><path fill="#4a1d00" d="M189.13,243.38c-1.01,0.23-4.93,1.23-4.49,2.34c0.49,1.22,4.62,1.45,5.86,1.51c4.41,0.22,0.55-3.61-1.75-3.72"/><path fill="none" stroke="#6d401f" stroke-miterlimit="10" d="M194.2,234.86c3.32,1.47,5.54,5.68,5.64,9.12c0.1,3.45-3.07,5.8-6.25,6.33c-3.98,0.66-7.51-2.29-11.21-1.35c-3.01,0.76-5.59,2.47-8.75,0.92c-3.09-1.51-3.37,0.06-6.7,0.89c-1.87,0.46-8.16-0.15-9.8-1.66c-2.74-2.53,0-4.85-0.28-6.4"/></g><g class="mouth mouth-21"><path fill="#EEEDEC" d="M156.98,274.06c-0.12,4,4.78,4.29,7.71,5.09c0.77,0.21,1.42,0.64,2.18,0.88c2.15,0.69,4.55,0.63,6.76,0.99c1.7,0.28,3.42,0.53,5.13,0.81c1.32,0.22,2.77,0.67,4.11,0.55c1.43-0.12,2.74-0.87,4.18-1.08c2.03-0.29,4.17-0.45,6.03-1.38c1.7-0.84,3.38-1.3,5.16-1.91c1.77-0.61,3.68-0.88,5.26-1.98c0.66-0.46,1.17-0.78,1.28-1.65c0.2-1.54-1.12-3.36-2.48-3.96c-1.43-0.63-3.31-0.58-4.84-0.79c-1.25-0.18-2.46-0.53-3.7-0.7c-1.11-0.15-2.25-0.03-3.37-0.16c-2.4-0.27-4.77-0.66-7.18-0.67c-2.63-0.01-5.04-0.13-7.62-0.62c-1.92-0.36-3.69-0.52-5.61-0.2c-1.04,0.17-1.99,0.38-2.98,0.78c-1.26,0.51-2.69,0.77-3.9,1.42c-1.35,0.72-3.09,1.41-4.25,2.34c-0.54,0.44-1.01,1.11-1.4,1.67c-0.53,0.77-0.28,1.15-0.46,1.83"/><path fill="#5F3836" d="M157.61,276.99c-0.02-0.7,0.88-1.23,1.25-1.74c0.38-0.54,0.56-1.09,1.04-1.53c0.76-0.69,1.29-0.57,2.24-0.69c0.51-0.06,0.36-0.07,0.85-0.29c0.44-0.19,0.74-0.28,1.2-0.36c0.99-0.19,2.08-0.27,3.1-0.22c0.93,0.04,1.62-0.12,2.53-0.24c1.24-0.16,2.12,0.43,3.26,0.48c0.76,0.03,1.45-0.2,2.2-0.26c0.98-0.07,2.1-0.26,3.09-0.06c1.18,0.24,2.11,0,3.38,0c0.79,0,1.51,0.17,2.22,0.23c0.76,0.06,1.9-0.22,2.65-0.39c1.1-0.25,1.88-0.07,3,0.23c1.83,0.48,4.58,0.44,6.41,0.35c0.62-0.03,1.2-0.37,1.85-0.26c0.35,0.06,0.58,0.29,0.88,0.38c0.8,0.24,1.7,0.04,2.44,0.51c0.61,0.39,1.27,0.94,1.84,1.4c1.1,0.9,1.57,1.03,2.9,0.15c0.59-0.39,0.94-0.8,1.26-1.41c0.37-0.71,0.59-1.1-0.23-1.51c-1.16-0.57-2.74-0.67-4.01-0.97c-2.69-0.64-5.53-0.16-8.21-0.88c-2.06-0.55-4.29-0.68-6.42-0.77c-1.47-0.07-2.95-0.08-4.43-0.08c-1.53,0-2.92-0.25-4.41-0.4c-2.26-0.22-4.44-0.15-6.69-0.16c-1.82-0.01-3.48,0.61-5.24,0.87c-1.84,0.27-3.67-0.41-5.51-0.14c-1.01,0.15-2.02,0.64-2.95,1.02c-1.84,0.75-3.71,1.51-5.55,2.2c-0.67,0.25-1.31,0.49-0.97,1.37c0.23,0.6,1.06,1.17,1.51,1.6c1.2,1.13,1.96,1.21,3.49,1.1c0.13,0.14,0.05,0.18,0.01,0.31"/><path fill="#683b1a" fill-opacity="1" d="M151.75,272.79c0.88,1.26,1.68,2.46,2.26,3.83c0.81,1.94,1.92,2.78,3.3,4.25c2.35,2.5,4.45,5.88,7.65,7.29c1.56,0.69,3.28,1.02,4.83,1.87c1.6,0.87,2.49,1.16,4.44,1.15c4.02-0.01,8.11-0.15,12.1,0.2c6.02,0.53,10.79-3.85,14.93-7.83c3.05-2.94,7.31-7.56,7.39-12.01c-2.96,1.68-5.08,3.03-8.38,3.92c-1.36,0.36-2.69,0.83-4.09,1.15c-1.45,0.33-3.21,0.33-4.67,0.9c-2.85,1.11-6.54,3.07-9.64,3.06c-3.28-0.01-6.78-1.08-9.83-2.09c-3.65-1.21-7.01-1.9-10.79-2.51c-2.52-0.41-7.31-1-9.19-2.85"/><path fill="#724524" d="M152.7,273.66c7.69-1.9,20.94-3.27,27.11-3.25c7.63,0.02,10.08,0.39,17.76,1.11c1.71,0.16,7.57,1.15,9.2,0.95c4.54-0.55-1.14-2.53-2.7-3.45c-2.72-1.61-5.66-3.17-8.54-4.36c-3.09-1.27-7.63-2.32-9.2-2.33c-1.73-0.01-8.04-0.3-9.68-0.16c-3.12,0.27-3.18,0.24-6.25,0.24c-2.98,0-17.76,6.6-18.31,9.27C151.89,272.54,151.59,273.83,152.7,273.66"/></g></svg>