<svg id="s57da0c31ad134" class="face" xmlns="http://www.w3.org/2000/svg" xmlns:xlink="http://www.w3.org/1999/xlink" x="0px" y="0px" width="357px" height="358px" viewBox="0 0 357 358"><path fill="#b3876a" d="M268.5,189.04c-1.41-1.92-2.86-2.74-4.22-2.91c-3.96-0.47-7.28,4.62-7.28,4.62c2.38-21.04,0-32.96,0-32.96c-16.83-65.56-65.84-69.37-76.8-69.39c-0.71,0.02-1.44,0.04-2.2,0.06c-54,1.42-71.5,44.58-71.5,44.58c-9,12.5-4,61.55-4,61.55c-21-12.95-1.5,45.45-1.5,45.45c5,13.5,8,1,8,1c2.88,12.67,6.63,23.41,10.9,32.53c0.85,44.99,1.74,68.73,1.44,83.43c23.33,0,116.79,0,123.83,0l1.52-85.32c6.58-17.33,7.31-32.14,7.31-32.14c2.5,3,6.5,1.5,6.5,1.5C272.75,234.79,268.5,189.04,268.5,189.04z M255.96,199.92C255.93,200.18,255.94,200.15,255.96,199.92L255.96,199.92z M256.22,197.67c0.03-0.3,0.07-0.64,0.11-1.01C256.29,197.01,256.25,197.35,256.22,197.67z M256.82,192.32c0.06-0.55,0.11-0.99,0.14-1.26C256.91,191.5,256.87,191.92,256.82,192.32z M265.33,190.26c-0.04-0.16-0.09-0.37-0.16-0.62c-0.13-0.5-0.31-1.2-0.54-2.1c0.22,0.86,0.4,1.58,0.54,2.1C265.24,189.9,265.29,190.1,265.33,190.26C265.47,190.79,265.48,190.83,265.33,190.26z"/><path fill="#ae8265" d="M125.25,227.25c4.5-6.5,6.97-8.84,12.65-10c4.87-0.99,13.28-2.45,17.35-5.75c9.63-7.79,13.17-20.35,5.59-28.43c-4.32-4.6-7.03-7.3-13.05-8.81c-4.83-1.22-11.04-2.16-15.05-6.1c-7.84-7.69-11.29-20.73-10.82-31.2c0.41-8.95,9.17-18.79,15.15-24.83c7.04-7.12,15.71-14.12,23.72-20.42c-40.38,8.84-54.04,42.51-54.04,42.51c-9,12.5-4,61.55-4,61.55c-21-12.95-1.5,45.45-1.5,45.45c5,13.5,8,1,8,1c2.89,12.7,6.64,23.46,10.93,32.59c-0.78,38.87,1.32,70.54,1.15,83.21c7.79,0.1,53.6-30.51,61.45-32.32C179.16,318.81,113.75,264.75,125.25,227.25z"/><g class="eyes eyes-23"><path fill="#FFFFFF" fill-opacity="0.7" d="M131.596,203.802c0,0,15.5-17.815,28.25-0.565C159.846,203.237,142.721,208.617,131.596,203.802z"/><path fill="#FFFFFF" fill-opacity="0.7" d="M205.346,201.112c0,0,8.25-16.25,28.625-1.125C233.971,199.987,218.971,207.737,205.346,201.112z"/><path fill="#4f2a1a" d="M224.334,197.961c0-1.628-0.985-3.071-2.506-3.99c-3.19-0.688-5.877-0.464-8.091,0.237c-1.311,0.921-2.142,2.258-2.142,3.752c0,2.776,2.852,5.027,6.369,5.027C221.483,202.987,224.334,200.737,224.334,197.961z"/><path fill="#4f2a1a" d="M151.834,200.014c0-1.722-1.098-3.24-2.771-4.146c-3.283-0.495-6.418,0.333-9.103,1.625c-0.547,0.742-0.865,1.601-0.865,2.521c0,2.776,2.852,5.027,6.369,5.027C148.983,205.04,151.834,202.79,151.834,200.014z"/></g><g class="eyebrows eyebrows-12"><path fill="#281312" fill-opacity="0.7" d="M116.67,186.33c1.18-2.47,4.08-5.08,6.17-6.8c2.93-2.42,6.2-4.23,10.16-4.04c2.26,0.11,4.05,0.5,6.13,1.35c2.48,1.01,4.97,1,7.58,1.33c2.81,0.36,5.34,0.13,8.23-0.01c2.17-0.1,4.17-0.19,5.45,1.8c2.78,4.32-6.24,3.67-8.37,3.36c-4.1-0.6-8.21-0.8-12.35-1.17c-3.58-0.32-6.49-1.23-9.75,0.63c-2.86,1.63-5.96,2.54-8.92,3.87c-1.18,0.53-2.56,1.15-3.96,0.64C116.81,187.01,116.69,186.71,116.67,186.33"/><path fill="#281312" fill-opacity="0.7" d="M202.5,181.83c2.63-0.31,4.95-1.63,7.5-1.99c1.88-0.26,3.86-0.1,5.73-0.38c3.38-0.5,6.25-2.84,9.56-3.33c1.77-0.26,4.01-0.24,5.84,0.03c1.26,0.19,2.98,0.29,4.04,0.84c0.56,0.29,1.01,1.05,1.53,1.45c2.27,1.75,4.52,3.66,6.3,6.05c1.2,1.61,2.79,4.26,2.47,6.47c-3.74,0.2-5.04-1.75-7.85-3.76c-3.49-2.5-5.61-4.04-10.12-4.05c-4.83,0-9.08-0.25-13.8,0.54c-2.9,0.48-6.37,1.52-9.24,0.67c-1.5-0.45-3.35-3.17-0.63-2.87"/></g><g class="chin chin-10"><path fill="none" stroke="#ae8265" d="M144.75,317c4.72,4.93,10.18,12.44,16.21,16.25c6.55,4.13,15.05,3.98,22.54,4.25 c6.14,0.22,11.47-0.55,17.22-1.82c5.8-1.28,8.92-5.1,12.96-9.48c2.12-2.3,3.4-5.7,5.32-7.7"/></g><g class="hair hair-8"><path fill="#281312" fill-opacity="0.5" d="M257,157.79c-16.83-65.56-65.84-69.37-76.8-69.39c-0.71,0.02-1.44,0.04-2.2,0.06c-54,1.42-71.5,44.58-71.5,44.58c-9,12.5-5.86,67.86-3.69,61.08c0.21-0.66,0.56-1.66,0.96-2.83c-0.81-2.54-0.73-5.33-0.08-8.15c-0.02-0.21-0.03-0.42-0.02-0.64c0.1-4.28,1.87-8.03,4.44-11.26c0.66-1.1,1.33-2.19,2.01-3.27c0.04-0.07,0.09-0.14,0.13-0.21c2.15-3.39,4.44-6.62,7.14-9.51c0.82-2.8,1.2-5.75,2.08-8.71c0.05-0.17,0.1-0.34,0.16-0.51c-0.01-2.26,0.42-4.65,0.99-6.94c-0.65-3.64,0.37-7.3,2.23-10.69c0.11-0.94,0.5-1.89,1.29-2.77c7.92-8.84,20.45-9.75,30.87-13.95c0.39-0.16,0.76-0.26,1.11-0.32c0.63-0.32,1.36-0.51,2.22-0.53c3.46-0.07,6.86-0.73,10.26-0.46c19.13-1.24,45.35,3.03,46.92,4.08c0.03,0.02,0.07,0.04,0.11,0.06c5.72,0.41,11.29,2.99,15.91,6.33c1.88,1.36,2.53,3.17,2.32,4.81c0.21,0.27,0.41,0.54,0.61,0.83c1.55,2.33,1.48,6,1.3,9.42c0.16,2.55,0.49,5.09,0.71,7.64c1.7,2.3,5.92,4.87,7.32,7.14c8.26,8.12,12.18,20.41,13.04,32.04c0.28,0.9,0.45,1.62,0.45,2.05v0.55C259.19,168.8,257,157.79,257,157.79z"/></g><g class="nose nose-2"><path fill="#a97d60" d="M186.01,198.89c-0.17,1.53-0.26,3.95-0.49,5.46c-0.58,3.86,0.9,6.29,0.88,10.24 c-0.02,6.65,6.48,12.91,4.38,19.46c-5.2-0.71-6.56-12.33-6.95-16.23c-0.33-3.31-1.14-7.11-1.01-10.49 c0.11-2.91,1.43-6.24,2.54-9.75C185.35,197.6,186.24,196.78,186.01,198.89z"/><path fill="#815538" d="M166.63,243.75c2.25-1.3,2.59-3.82,5.63-2.9c1.56,0.48,4.43,2.55,4.11,4.38c-0.96,0.17-1.93-0.21-2.76-0.63c-1.38-0.7-1.58-0.67-2.84,0.31c-1.49,1.16-3.98,1.35-4.49-0.88c0.25-0.19,0.55-0.29,0.86-0.28"/><path fill="#815538" d="M187.38,240.75c-0.76,0.2-2.24,1.91-2.38,2.74c-0.25,1.5,0.94,1.27,2.01,1.38c1.81,0.18,3.94,1.63,5.75,0.78c3.43-1.6-3.45-8.78-6.13-4.16"/><path fill="none" stroke="#a4785b" stroke-miterlimit="10" d="M164.75,227c0.56,1.57-0.23,2.33-0.76,3.75c-0.47,1.27-0.72,2.65-1.21,3.87c-0.9,2.23-2.4,3.66-2.53,6.12c-0.15,2.94,1,4.25,2.75,6.37c1.36,1.65,4.54,2.49,6.63,2.01c1.04-0.24,1.75-0.86,2.88-0.75c1.13,0.1,2.24,0.56,3.37,0.72c1.05,0.15,2.32,0.09,3.38,0.03c1.33-0.08,1.49-0.53,2.53-1.23c2.13-1.42,6.09,0.33,8.72,0.1c2.12-0.19,3.6-1.49,5.35-2.75c1.25-0.9,2.52-2.38,3.13-3.75c0.93-2.09-1.34-2.51-1.6-4.25"/></g><g class="mouth mouth-7"><path fill="#B69882" d="M163.09,271.36c-2.17-0.01-5.39,3-4.43,5.36c0.47,1.16,5.74,4.3,7.02,5.05c4.19,2.46,9.32,3.08,14.28,2.62c3.1-0.29,8.26-0.16,11.14-1.29c2.41-0.96,4.23-3.33,6.49-4.65c2.49-1.46,4.98-1.18,4.58-4.42c-0.5-4.14-5.36-4.15-8.75-4.34c-3.95-0.22-6.24-0.02-9.42,1.61c-3.39,1.74-7.68,1.82-11.58,1.08c-2.32-0.44-8.54-4.3-9.67-1.02"/><path fill="#9f7356" fill-opacity="1" d="M151.09,277.36c4.58,3.87,8.12,8.16,13.99,10.01c4.74,1.49,9.23,4.06,14.36,4.65c5.48,0.63,11.58-1.46,16.98-2.33c4.74-0.76,9.98-5.08,11.94-9.65c0.61-1.42,0.67-3.5,1.01-4.96c-4.98-2.09-9.18-0.81-13.28,1.97c-4.51,3.05-9.3,2.97-14.67,2.97c-5.63,0-10.14,0.27-15.07-1.92c-4.52-2-10.28-1.87-14.93-0.75"/><path fill="#a97d60" d="M152.75,275.03c4.12-0.8,8.64-8.02,12.35-10.6c4.85-3.38,10.36-4,15.65-1.73c4.26,1.82,9.21,1.25,13.67,2.92c4.77,1.79,8.8,4.37,12.97,7.41c-1.52,2.41-11.31,0.88-14.03,0.6c-5.17-0.52-9.52-0.77-14.6-0.26c-4.95,0.5-10.07-0.58-14.65-0.68c-3.55-0.08-9.14,5.53-12.02,2.68"/></g></svg>