<svg id="s5c3d0093213f6" class="face" xmlns="http://www.w3.org/2000/svg" xmlns:xlink="http://www.w3.org/1999/xlink" x="0px" y="0px" width="357px" height="358px" viewBox="0 0 357 358"><path fill="#734a34" d="M268.5,189.04c-1.41-1.92-2.86-2.74-4.22-2.91c-3.96-0.47-7.28,4.62-7.28,4.62c2.38-21.04,0-32.96,0-32.96c-16.83-65.56-65.84-69.37-76.8-69.39c-0.71,0.02-1.44,0.04-2.2,0.06c-54,1.42-71.5,44.58-71.5,44.58c-9,12.5-4,61.55-4,61.55c-21-12.95-1.5,45.45-1.5,45.45c5,13.5,8,1,8,1c2.88,12.67,6.63,23.41,10.9,32.53c0.85,44.99,1.74,68.73,1.44,83.43c23.33,0,116.79,0,123.83,0l1.52-85.32c6.58-17.33,7.31-32.14,7.31-32.14c2.5,3,6.5,1.5,6.5,1.5C272.75,234.79,268.5,189.04,268.5,189.04z M255.96,199.92C255.93,200.18,255.94,200.15,255.96,199.92L255.96,199.92z M256.22,197.67c0.03-0.3,0.07-0.64,0.11-1.01C256.29,197.01,256.25,197.35,256.22,197.67z M256.82,192.32c0.06-0.55,0.11-0.99,0.14-1.26C256.91,191.5,256.87,191.92,256.82,192.32z M265.33,190.26c-0.04-0.16-0.09-0.37-0.16-0.62c-0.13-0.5-0.31-1.2-0.54-2.1c0.22,0.86,0.4,1.58,0.54,2.1C265.24,189.9,265.29,190.1,265.33,190.26C265.47,190.79,265.48,190.83,265.33,190.26z"/><path fill="#6e452f" d="M125.25,227.25c4.5-6.5,6.97-8.84,12.65-10c4.87-0.99,13.28-2.45,17.35-5.75c9.63-7.79,13.17-20.35,5.59-28.43c-4.32-4.6-7.03-7.3-13.05-8.81c-4.83-1.22-11.04-2.16-15.05-6.1c-7.84-7.69-11.29-20.73-10.82-31.2c0.41-8.95,9.17-18.79,15.15-24.83c7.04-7.12,15.71-14.12,23.72-20.42c-40.38,8.84-54.04,42.51-54.04,42.51c-9,12.5-4,61.55-4,61.55c-21-12.95-1.5,45.45-1.5,45.45c5,13.5,8,1,8,1c2.89,12.7,6.64,23.46,10.93,32.59c-0.78,38.87,1.32,70.54,1.15,83.21c7.79,0.1,53.6-30.51,61.45-32.32C179.16,318.81,113.75,264.75,125.25,227.25z"/><g class="eyes eyes-16"><path fill="#ffffff" fill-opacity="0.7" d="M152.62,203c-0.51-0.07-1.04-0.14-1.58-0.2c1.09,1.83,0.9,4.22-1.55,6.5c-1.94,1.81-4.52,2.46-6.87,0.9c-1.57-1.04-3.3-3.79-3.32-6.1c-1.66,0.76-3.57,1.83-4.68,3.07c-1.13,1.26-2.88,2.57-3.45,4.15c2.78,0.3,5.44,0.29,8.2,0.02c2.79-0.27,5.86,0.51,8.59-0.17c1.24-0.31,2.62-0.63,3.91-0.85c1.38-0.24,2.5-0.31,3.89-0.52c2.21-0.34,4.48-1.58,6.72-1.83C161.77,204.75,155.25,203.36,152.62,203z"/><path fill="#504040" d="M142.63,210.2c2.34,1.56,4.92,0.91,6.87-0.9c2.45-2.28,2.64-4.67,1.55-6.5c-1.87-0.22-3.83-0.38-5.61-0.23c-1.96,0.16-5.57,1.08-5.88,1.42c-0.08,0.04-0.17,0.08-0.25,0.12C139.33,206.4,141.06,209.15,142.63,210.2z"/><path fill="#ffffff" fill-opacity="0.7" d="M224.38,207.13c-1.55-0.67-2.77-1.33-4.12-1.89c-0.07,0.48-0.21,0.97-0.42,1.47c-0.64,1.53-3.93,4.75-5.66,5.14c-4.34,0.98-8.58-5.45-6.93-9.17c-1.98,0.28-4.34,1.49-5.56,2.39c-1.42,1.05-2.42,2.56-3.97,3.47c4.47,4.16,13.07,3.72,18.78,3.72c3.55,0,10.75,0.81,13.96-0.75C228.55,210.05,226.59,208.09,224.38,207.13z"/><path fill="#504040" d="M214.18,211.84c1.72-0.39,5.01-3.61,5.66-5.14c0.21-0.5,0.35-0.99,0.42-1.47c-0.7-0.29-1.42-0.56-2.25-0.79c-2.12-0.6-3.36-1.36-5.63-1.56c-2.02-0.18-1.76-0.33-3.81-0.25c-0.4-0.05-0.85-0.02-1.32,0.05C205.6,206.39,209.84,212.82,214.18,211.84z"/></g><g class="eyebrows eyebrows-8"><path fill="#141615" fill-opacity="0.6" d="M117.11,181.74c3.68-2.79,4.84-7.13,9.1-9.39c4.44-2.35,10.33-1.92,14.9-0.72c5.35,1.4,5.77,4.63,9.6,8.01c3.06,2.7,6.94,4.66,10.23,7.24c-4.69,3.2-16.11-7.27-21.82-8.15c-8.78-1.34-13.18,5.82-21.92,5.44c-0.09-0.85-0.28-2.07-0.08-2.92"/><path fill="#141615" fill-opacity="0.6" d="M198.11,184.24c11.1-4.78,31.28-20.26,39.9-3c0.96,1.92,4.57,7.27,2.61,8.54c-2.07,1.34-6.75-3.96-8.51-5.04c-6.37-3.91-15.53-1.52-21.64,0.39c-2.89,0.9-12.37,4.73-12.8-0.81c1.17-0.08,2.77-0.34,3.94-0.08"/></g><g class="chin chin-6"><path display="inline" fill="none" stroke="#6e452f" stroke-miterlimit="10" d="M159.91,318.15c9.33,5.41,19.81,5.03,30.5,6.11 c10.21,1.03,18.55-1.03,27-6.11"/></g><g class="hair hair-3"><radialGradient id="SVGID_2_5c3d00932149f" cx="180.3369" cy="178.5039" r="62.0905" gradientTransform="matrix(-0.0144 -0.9999 1.2316 -0.0178 -36.9023 361.9954)" gradientUnits="userSpaceOnUse"><stop offset="0" style="stop-color:#734a34;stop-opacity:0"/><stop offset="0.309" style="stop-color:#734a34;stop-opacity:0.309"/><stop offset="0.4613" style="stop-color:#6e452f;stop-opacity:0.4613"/><stop offset="0.5794" style="stop-color:#69402a;stop-opacity:0.5794"/><stop offset="0.6798" style="stop-color:#643b25;stop-opacity:0.6798"/><stop offset="0.769" style="stop-color:#5f3620;stop-opacity:0.769"/><stop offset="0.8503" style="stop-color:#5a311b;stop-opacity:0.8503"/><stop offset="0.9251" style="stop-color:#552c16;stop-opacity:0.9251"/><stop offset="0.9938" style="stop-color:#141615;stop-opacity:0.9938"/><stop offset="1" style="stop-color:#141615"/></radialGradient><path fill="url(#SVGID_2_5c3d00932149f)" fill-opacity="0.4" d="M105.5,201.75c0.31-2.25,1.46-4.28,1.76-6.51c0.27-2.03-0.01-4.35,0.19-6.29c0.46-4.44,0.62-8.51-0.44-12.71c-0.47-1.86-0.49-3.71-0.51-5.79c-0.03-2.84-0.25-4.66-0.83-7.29c-0.65-2.93,0.34-4.94,1.3-7.43c0.89-2.34,0.81-4.8,1.29-7.28c1.01-5.24,3.43-10.36,7.36-14.01c1.92-1.78,3.44-3.56,5.88-4.51c3.17-1.24,6.44-1.72,9.64-2.99c6.52-2.59,12.2-5.28,19.12-6.21c5.85-0.79,11.83-1.94,17.49-3.17c2.17-0.47,3.41-1.44,5.77-1.56c4.31-0.22,8.6,0.32,12.74,0.69c2.92,0.26,5.17-0.4,7.8-0.69c3.98-0.44,7.2,1,10.94,1.67c3.24,0.58,4.97,2.6,8,3.39c2.89,0.75,5.78,0.78,8.59,1.66c3.61,1.13,6.68,2.65,10.15,3.71c2.89,0.88,5.79,2.22,8.03,4.3c4.11,3.82,7.88,9.08,7.99,14.79c0.15,7.46,4.21,13.7,5,20.91c0.55,5.06,0,10.29,0.25,15.36c0.12,2.47,0.49,4.71,0.25,7.2c-0.19,1.98-0.37,3.58,0.19,5.51c0.62,2.11,2.38,4.03,2.61,6.41c0.95-2.58,0.95-10.17,0.95-10.17c2.38-21.04,0-32.96,0-32.96c-16.83-65.56-65.84-69.37-76.8-69.39c-0.71,0.02-1.44,0.04-2.2,0.06c-54,1.42-71.5,44.58-71.5,44.58c-9,12.5-4,61.55-4,61.55C102.5,197.29,105.32,203.05,105.5,201.75z M256.96,191.06c-0.05,0.44-0.1,0.86-0.14,1.26C256.88,191.77,256.93,191.33,256.96,191.06z M255.96,199.92C255.93,200.18,255.94,200.15,255.96,199.92L255.96,199.92z"/></g><g class="nose nose-12"><path fill="#69402a" d="M186.01,198.89c-0.17,1.53-0.26,3.95-0.49,5.46c-0.58,3.86,0.9,6.29,0.88,10.24 c-0.02,6.65,6.48,12.91,4.38,19.46c-5.2-0.71-6.56-12.33-6.95-16.23c-0.33-3.31-1.14-7.11-1.01-10.49 c0.11-2.91,1.43-6.24,2.54-9.75C185.35,197.6,186.24,196.78,186.01,198.89z"/><path fill="#411802" d="M163.83,238.66c1.56-0.34,3.59-1.78,5.34-1.34c1,0.26,3.42,2.71,3.64,3.81c-1.2,0.21-2.4-1.68-3.61-2.01c-1.45-0.39-3.3-0.07-4.85-0.16c-0.05-0.24,0.07-0.26,0.15-0.47"/><path fill="#411802" d="M200.33,241.83c-1.46-1.29-9.87-3.33-9.14,0.31c1.54,0.17,3.47-0.72,5.17-0.8c1-0.05,1.28-0.07,2.19,0.29c0.84,0.33,1.5,1.32,2.29,0.2"/><path fill="none" stroke="#643b25" stroke-miterlimit="10" d="M164.67,221.33c-3.17-0.23-7.46,3.32-8.63,6.17c-1.31,3.2,0.62,6.73,2.3,9.34c1.52,2.36,3.89,2.48,6.49,3.01c1.77,0.36,3.45,0.6,5.36,0.66c1.81,0.06,2.63,0.82,4.16,1.79c2.47,1.57,4.3,4.03,7.62,3.34c1.35-0.28,2.58-1.6,3.67-2.33c1.34-0.9,2.75-1.19,4.37-1.13c1.73,0.07,3.59,0.14,5.33,0.33c1.74,0.19,4.16,1.04,5.97,0.47c2.02-0.65,4.62-3.22,6.08-4.75c1.56-1.64,3.42-3.97,2.59-6.54c-0.36-1.11-1.9-2.74-2.62-3.67c-0.94-1.2-3.13-2.24-3.67-3.5"/></g><g class="mouth mouth-2"><path fill="#5f3620" fill-opacity="1" d="M152.25,282.75c1.13,0.05,1.95,1.34,2.84,1.91c1.85,1.18,3.52,1.46,5.66,1.83c4.03,0.69,8.51,1.23,12.67,1.01c1.64-0.09,2.79-0.94,4.27-1.35c1.66-0.46,3.65-0.29,5.38-0.13c4.2,0.41,9.05,1.13,13.17-0.03c2.62-0.74,14.75-4.21,11.33-8.12c-1.14-1.3-3.73-2.23-5.37-2.85c-2.25-0.84-4.46-1.96-6.77-2.68c-4.31-1.34-9.55,0.3-13.96,0.69c-3.31,0.29-6.46-0.89-9.76-0.79c-3.57,0.11-7.14,1.69-10.39,2.9c-2.3,0.86-4.23,2.72-5.95,4.34c-1.56,1.47-2.27,1.76-2.3,3.75"/><path fill="#69402a" d="M153.38,277.63c2-2.12,4.63-3,6.77-4.8c1.1-0.93,1.46-1.76,2.36-2.83c1.36-1.61,3.52-3.83,5.37-4.86c1.02-0.57,2.4-0.67,3.58-1.13c1.74-0.68,2.06-0.07,3.81,0.72c1.35,0.6,3.45,1.53,4.99,1.13c1.96-0.51,3.64-1.58,5.45-2.35c1.83-0.78,2.57,0.43,4.25,1.07c1.93,0.73,3.52,1.68,5.33,2.59c1.76,0.89,3,1.34,4.35,2.74c0.96,1,1.96,1.79,3.01,2.69c1.01,0.87,1.96,1.93,2.99,2.75c0.76,0.61,1.68,0.98,2.35,1.65c0.94,0.94,1.15,1.48,0.06,2.16c-0.82,0.52-2.46,1.01-3.47,0.97c-5.66-0.23-9.88-5.59-15.44-5.87c-2.56-0.13-4.87,1.64-7.36,2.12c-1.42,0.27-2.69,0.59-4.16,0.14c-1.24-0.38-2.48-1.1-3.75-1.26c-1.58-0.19-2.89,0.45-4.34,1c-2.07,0.79-4.16,1.63-6.07,2.75c-1.89,1.1-3.47,2.66-5.43,3.63c-1.67,0.82-4.19,2.37-5.35,0.22c-0.51-0.95-0.87-2.09-0.31-3.07c0.5-0.87,1.46-1.86,2.06-2.65c0.87-1.16,2.31-2.31,3.72-2.75"/></g></svg>