<svg id="s56e84701f2266" class="face" xmlns="http://www.w3.org/2000/svg" xmlns:xlink="http://www.w3.org/1999/xlink" x="0px" y="0px" width="357px" height="358px" viewBox="0 0 357 358"><path fill="#a16549" d="M268.5,189.04c-1.41-1.92-2.86-2.74-4.22-2.91c-3.96-0.47-7.28,4.62-7.28,4.62c2.38-21.04,0-32.96,0-32.96c-16.83-65.56-65.84-69.37-76.8-69.39c-0.71,0.02-1.44,0.04-2.2,0.06c-54,1.42-71.5,44.58-71.5,44.58c-9,12.5-4,61.55-4,61.55c-21-12.95-1.5,45.45-1.5,45.45c5,13.5,8,1,8,1c2.88,12.67,6.63,23.41,10.9,32.53c0.85,44.99,1.74,68.73,1.44,83.43c23.33,0,116.79,0,123.83,0l1.52-85.32c6.58-17.33,7.31-32.14,7.31-32.14c2.5,3,6.5,1.5,6.5,1.5C272.75,234.79,268.5,189.04,268.5,189.04z M255.96,199.92C255.93,200.18,255.94,200.15,255.96,199.92L255.96,199.92z M256.22,197.67c0.03-0.3,0.07-0.64,0.11-1.01C256.29,197.01,256.25,197.35,256.22,197.67z M256.82,192.32c0.06-0.55,0.11-0.99,0.14-1.26C256.91,191.5,256.87,191.92,256.82,192.32z M265.33,190.26c-0.04-0.16-0.09-0.37-0.16-0.62c-0.13-0.5-0.31-1.2-0.54-2.1c0.22,0.86,0.4,1.58,0.54,2.1C265.24,189.9,265.29,190.1,265.33,190.26C265.47,190.79,265.48,190.83,265.33,190.26z"/><path fill="#9c6044" d="M125.25,227.25c4.5-6.5,6.97-8.84,12.65-10c4.87-0.99,13.28-2.45,17.35-5.75c9.63-7.79,13.17-20.35,5.59-28.43c-4.32-4.6-7.03-7.3-13.05-8.81c-4.83-1.22-11.04-2.16-15.05-6.1c-7.84-7.69-11.29-20.73-10.82-31.2c0.41-8.95,9.17-18.79,15.15-24.83c7.04-7.12,15.71-14.12,23.72-20.42c-40.38,8.84-54.04,42.51-54.04,42.51c-9,12.5-4,61.55-4,61.55c-21-12.95-1.5,45.45-1.5,45.45c5,13.5,8,1,8,1c2.89,12.7,6.64,23.46,10.93,32.59c-0.78,38.87,1.32,70.54,1.15,83.21c7.79,0.1,53.6-30.51,61.45-32.32C179.16,318.81,113.75,264.75,125.25,227.25z"/><g class="eyes eyes-11"><path fill="#ffffff" fill-opacity="0.7" d="M148.83,201.33c-2.21-0.02-3.9,1.03-5.83,1.96c-1.33,0.64-4.67,1.73-4.64,3.51c1.45,0.55,2.34,2.11,3.63,2.91c1.58,0.97,3.43,1.02,5.18,1.29c2.9,0.44,5.83,0.09,8.68-0.63c2.64-0.67,5.37-0.23,7.69-1.65c2.87-1.76-1.03-4.23-2.71-5.42c-2.02-1.44-3.31-2.36-5.83-2.46c-2.15-0.08-4.32,0.14-6.33,0.5"/><path fill="#ffffff" fill-opacity="0.7" d="M214.5,203c-2.75-0.67-6.42-0.67-8.84,0.83c-0.91,0.56-2.29,1.61-2.96,2.38c-1.28,1.45-0.55,1.94,0.85,3.09c2.84,2.34,7.06,2.73,10.6,3.25c2.93,0.43,5.21,0.09,7.82-1.42c1.11-0.64,4.52-1.63,5.2-2.63c1.04-1.52-1.64-2.63-2.83-3.21c-1.62-0.78-3.09-1.24-4.84-1.59c-1.83-0.37-4.26-1.09-6.17-0.87"/><path display="inline" fill="#402a13" d="M149.5,200.83c-3.15-0.66-2.99,4.38-2.2,6.17c0.94,2.13,3.69,3.78,6.04,3.83c2.98,0.06,4.71-3.04,5-5.67c0.38-3.45-1.97-4.15-4.84-4.33c-1.15-0.07-5.1-0.63-5.67,0"/><path display="inline" fill="#402a13" d="M212,202.33c-2.94,0.16-5.82,2.57-4.47,5.67c1.04,2.4,3.58,4.37,6.13,4.5c4.42,0.22,10.64-6.87,4.46-9.46c-1.93-0.81-5.16-0.86-7.3-0.7"/></g><g class="eyebrows eyebrows-2"><path fill="#141615" fill-opacity="0.5" d="M114.33,186.5c-1.72,3.1-1.84,6.54-1.64,10.3c0.49-1.33,2.29-1.98,3.35-2.81c1.03-0.81,2.02-1.7,2.84-2.69c0.9-1.1,1.54-2.08,2.91-2.82c1.03-0.56,2.28-0.42,3.38-0.65c1.17-0.25,2.14-0.82,3.23-1.21c1.63-0.58,1.98-0.15,3.25,0.22c1.92,0.56,4.17,0.66,6.19,0.99c1.77,0.28,3.07,0.24,4.83,0c1.86-0.26,3.45,0.29,5.32,0.37c1.93,0.08,4.63-0.2,6.48,0.33c0.81,0.23,1.24,0.67,2.18,0.8c1.34,0.18,1.59,0.33,2.67,0.99c1.11,0.68,2.29,1.17,3.62,0.98c0.27-1.6,0.37-3.27,0.05-4.92c-0.23-1.2-0.14-1.36-0.78-2.42c-0.73-1.19-0.83-1.96-1.2-3.29c-0.79-2.85-1.95-3.28-4.35-4.18c-2.7-1.01-3.3-0.75-6.3-0.17c-2.22,0.43-4.56,0.42-6.83,0.33c-1.01-0.04-1.87-0.12-2.86-0.37c-1.45-0.36-2.75-0.27-4.22-0.5c-1.63-0.27-2.58-1.64-4.29-1.97c-1.81-0.35-3.98,0.65-5.49,1.51c-2.29,1.31-5.04,3.78-7.2,5.61c-1.96,1.66-3.37,4.92-5.47,6.05"/><path fill="#141615" fill-opacity="0.5" d="M190.33,180.17c-1.92,2.17-0.93,3.02-2.35,5.53c1.06,0.73,1.6,1.79,2.85,2.52c0.97,0.57,1.83,1.52,2.84,2c2.4,1.15,3.15-0.66,5.16-1.22c4.5-1.25,8.67,1.63,13.11,0.3c2.52-0.75,3.64-2.87,6.24-2.12c2.84,0.82,5.14,0.51,8.36,0.49c1.49-0.01,2.08,0.19,3.44,0.78c2.24,0.99,4.32,1.22,6.54,1.92c2.62,0.82,3.32,3.92,4.7,5.95c0.33,0.48,1.17,0.97,1.59,1.48c-0.04-1.68-0.57-2.51-1.13-3.96c-0.38-1-0.23-1.84-0.34-2.96c-0.25-2.53-1.1-4.41-3.17-5.7c-2.89-1.8-5.23-3.53-7.33-6.16c-1.53-1.91-2.79-2.62-5.15-3.35c-2.18-0.67-4.27-1.89-6.6-2.13c-2.37-0.25-3.27,1.12-5.28,1.81c-4.42,1.53-9.84,0.21-14.42,0.16c-1.02-0.01-2.78-0.35-3.75-0.02c-1.08,0.38-2.23,1.95-3.29,2.54c-0.85,0.48-2.34,0.97-3.01,1.67c-0.79,0.82-0.64,2.03-1.33,2.8"/></g><g class="hair hair-1000"><path fill="#141615" d="M106.44,197.24c-0.99-5.34,1.01-10.58,3.12-15.52c1.06-2.49,2.64-4.55,3.46-7.18c0.89-2.86,0.99-5.77,1.29-8.79c0.59-5.97,1.1-10.96,3.25-16.44c2.22-5.68,6.34-12.09,11.69-15.33c6.2-3.75,13.4-7.44,20.3-9.47c9.13-2.69,18.57-5.64,28.11-6.21c6.28-0.38,14.26-0.27,20.1,1.94c4.2,1.59,8.53,2.29,13.05,2.75c6.33,0.64,10.17,1.31,14.75,5.99c3.37,3.44,7.03,6.32,10.46,9.76c4,4.01,7.94,8.3,8.24,14.26c0.29,5.61,0.94,10.63,2.24,15.99c1.35,5.59,4.87,9.86,6.05,15.3c1.32,6.04,3.03,10.93,2.96,17.47c-0.04,4.26,6.06-7.96,8.5-8.26c4.61-0.56,5.66,20.48,5.08,23.92c1.33,2.42,5.59,3.91,6.95,2.64c1.44-1.35,2.44-1.39,2.18-3.93c-0.15-1.51-0.83-2.93-0.96-4.63c-0.24-3.04-2.97-4.03-0.66-6.44c2.42-2.53,5.1-3.22,2.77-7.15c-0.84-1.42-2.12-2.11-2.37-3.82c-0.3-2.02,1.21-4.07,2.01-5.65c1-1.98,1.71-4.17,3.05-5.95c0.87-1.15,2.6-2.03,2.45-3.76c-0.2-2.26-4.58-3.72-5.86-5.73c-1.36-2.13-1.3-6.04-0.53-8.51c1.68-5.38,8.3-13.94,2.63-18.31c-2.07-1.6-6.5-2.31-7.99-4.19c-1.45-1.83-1.41-7.01-1.75-9.18c-0.59-3.81,0.63-7.64-1.5-11.07c-0.83-1.34-3.33-4.93-5-5.26c-1.62-0.32-3.33,1.69-4.99,1.77c-1.86,0.1-5.89-1.68-6.83-3.44c-1.13-2.1,1.55-4.77,2.32-6.88c0.98-2.71,1.1-4.89,0.99-7.92c-1.39-0.15-2.67,0.63-2.99,1.99c0.82,0.28,1.8,0.34,2.7,0.23c-1.99,0-5.17,0.92-6.9,0.56c-3.46-0.72-5.88-6.28-6.87-9.15c-1.5-4.35-3-7.95-6.43-11.17c-1.97-1.85-4.11-4.86-6.5-4.62c-4.02,0.42-9.04,5.52-13.25,4.13c-1.19-0.39-2.05-2.66-3-3.77c-1.13-1.33-2.49-2.54-3.98-3.52c-1.14-0.75-4.63-3.71-5.77-3.69c-0.79,0.02-2.86,1.9-3.76,2.22c-1.21,0.42-2.87,0.84-4.11,0.95c-3.18,0.3-3.87,0.34-4.85-2.47c-0.62-1.78-0.85-2.92-2.29-4.24c-3.49-3.2-3.52,2.68-5.55,4.7c-5.18,5.15-8.13-2.01-13.22-3.21c-1.84-0.43-4.27-0.33-5.99-0.5c-1.91-0.19-3.6-0.08-5.46,0.06c0.02,1.74,0.52,3.46-0.06,5.16c-3.98,0.71-6.77-4.09-10.49-2.97c-2.62,0.78-2.87,3.73-4.59,5.25c-1.95,1.73-4.82,3.56-7.25,3.76c-3.66,0.3-7.34-1.25-10.86-0.71c0.85,1.39,2.3,2.4,1.3,4.29c-1.07,2.01-4.15,1.62-6.05,1.7c-0.02,2.81,2.98,3.67-1.2,5.29c-2.61,1.01-5.57,1.28-8.13,2.39c-0.86,0.37-2,0.58-2.65,1.43c-1.37,1.77,0.06,1.71-0.1,3.62c-0.23,2.81-3.99,3.3-3.45,5.89c0.2,0.96,1.86,1.74,1.46,3.11c-0.23,0.77-2.09,2-2.74,2.42c-1.31,0.84-2.97,1.29-3.91,2.6c-1.22,1.69-0.48,1.37-0.29,3.17c0.44,4.25-0.94,6.13-3.31,9.25c-1.79,2.36-4.17,4-5.19,6.82c-0.65,1.78-0.34,2.17-0.25,4c0.1,2.09-0.73,3.9-2.48,5.43c-0.91,0.79-1.89,0.43-2.26,1.83c2.34,1.5,4.76,4.87,3.7,7.89c-0.96,2.75-4.2,3.85-6.16,5.67c-2.94,2.74-0.03,3.28,0.96,5.91c1.06,2.82,1.62,7.54,0.74,10.51c-0.76,2.59-2.81,4.64-4.05,6.95c-1.91,3.56-2.87,3.99,0.5,6.81c2.43,2.03,2.15,4.17,2.74,7.29c0.16,0.86,1.03,4.13,0.84,4.71c-0.55,1.69-3.1,2.51-3.71,4.51c-1.02,3.38,2.98,5.31,3.99,8.59c1.07,3.46-0.12,5.15,2.68,7.71c1.97,1.81,3.26,4.03,3.76,6.7c0.29,1.52,4.96-0.26,5.5,1.13c0.48,1.24-3.98-28.85-3.88-27.5c0.4-2.84,3-7.75,9.75-3.88"/></g><g class="facial-hair facial-hair-21"><path fill="#141615" fill-opacity="0.1" d="M200.1,305.1c-5.3,3-8.6,1.2-14.1,0.7c-5.5-0.5-11.2,1.5-15.9-1.4c-1.7-0.9-2.9-2.2-4-3.5c-0.5-0.2-1.1-0.5-1.5-0.9c0,0-0.1-0.1-0.1-0.1c-0.7-0.1-1.3-0.3-1.9-0.6c-1.8-1.1-3.2-2.4-4.4-4c-0.4-0.1-0.8-0.1-1.3-0.1c0.4,1.5,1.2,3.6,2.6,4.8l0.1-1c1.3,3.2,3.5,9.6,6.2,13.4c1.1,0.8,2.3,1.3,3.5,1.8c1.2,0.4,2.4,0.8,3.7,1.1c0.1,0,0.1,0,0.2,0c0,0,0,0,0.1,0c1.8-0.6,3.8,0.1,5,1.5c2.4-0.4,4.9-1.1,7.4-1.3c3.5-0.2,5.8,0.4,7.9,0.5c1.2-0.7,2.4-1.2,3.7-1.7c0.9-0.3,1.8-0.6,2.7-1c4.2-3.6,5.3-9.7,6.5-15.3C204.2,299.9,202.9,303.5,200.1,305.1z"/></g><g class="nose nose-12"><path fill="#975b3f" d="M186.01,198.89c-0.17,1.53-0.26,3.95-0.49,5.46c-0.58,3.86,0.9,6.29,0.88,10.24 c-0.02,6.65,6.48,12.91,4.38,19.46c-5.2-0.71-6.56-12.33-6.95-16.23c-0.33-3.31-1.14-7.11-1.01-10.49 c0.11-2.91,1.43-6.24,2.54-9.75C185.35,197.6,186.24,196.78,186.01,198.89z"/><path fill="#6f3317" d="M163.83,238.66c1.56-0.34,3.59-1.78,5.34-1.34c1,0.26,3.42,2.71,3.64,3.81c-1.2,0.21-2.4-1.68-3.61-2.01c-1.45-0.39-3.3-0.07-4.85-0.16c-0.05-0.24,0.07-0.26,0.15-0.47"/><path fill="#6f3317" d="M200.33,241.83c-1.46-1.29-9.87-3.33-9.14,0.31c1.54,0.17,3.47-0.72,5.17-0.8c1-0.05,1.28-0.07,2.19,0.29c0.84,0.33,1.5,1.32,2.29,0.2"/><path fill="none" stroke="#92563a" stroke-miterlimit="10" d="M164.67,221.33c-3.17-0.23-7.46,3.32-8.63,6.17c-1.31,3.2,0.62,6.73,2.3,9.34c1.52,2.36,3.89,2.48,6.49,3.01c1.77,0.36,3.45,0.6,5.36,0.66c1.81,0.06,2.63,0.82,4.16,1.79c2.47,1.57,4.3,4.03,7.62,3.34c1.35-0.28,2.58-1.6,3.67-2.33c1.34-0.9,2.75-1.19,4.37-1.13c1.73,0.07,3.59,0.14,5.33,0.33c1.74,0.19,4.16,1.04,5.97,0.47c2.02-0.65,4.62-3.22,6.08-4.75c1.56-1.64,3.42-3.97,2.59-6.54c-0.36-1.11-1.9-2.74-2.62-3.67c-0.94-1.2-3.13-2.24-3.67-3.5"/></g><g class="mouth mouth-23"><path fill="#E0DCDA" d="M196.66,277.52c2.04-1.92,4.63-2.73,7.37-3.56v-7.18h-47.51v6.65c0.48,0.08,0.95,0.25,1.38,0.54c0.97,0.67,2.01,1.25,2.98,1.92c0.7,0.48,1.37,1.02,2.04,1.54c-0.43-0.34-0.12-0.13,0.21,0.09H196.66z"/><path fill="#6A3433" d="M204.04,273.17c0.66-0.9,1.42-1.69,2.37-2.31c0.28-0.18,0.56-0.33,0.85-0.46c0,0,0,0,0-0.01c-4.08-0.64-8.16-1.54-12.14-2.51c-2.68-0.66-4.25,0.09-6.82,0.13c-2.15,0.04-4.16-0.66-6.29-0.81c-5.25-0.37-10.72-0.9-15.98-0.65c-2.52,0.12-4.9,0.36-7.35,0.89c-1.8,0.39-3.72,0.27-5.44,0.92c-0.04,0.02-0.08,0.03-0.13,0.04c0,0,0,0,0,0c-0.47,0.37-1.28,0.9-1.26,1.47c1.18,0.07,2.33,0.41,3.34,1.15c0.67,0.49,1.31,1.01,1.93,1.56c0.08,0.07,0.16,0.14,0.25,0.21c0.41-0.8,1.01-1.38,1.68-2.05c0.33-0.34,0.66-0.54,1.03-0.83c0.65-0.49,0.9-0.47,1.78-0.43c0.63,0.03,1.27,0.01,1.9,0.06c0.41,0.03,0.82,0.17,1.24,0.1c0.62-0.09,1.03-0.39,1.73-0.36c1.95,0.06,3.88,0.45,5.84,0.27c1.24-0.11,2.39-0.15,3.6,0.15c1.16,0.28,2.09-0.05,3.23-0.15c2.17-0.19,4.41-0.05,6.59-0.06c1.13,0,2.19,0.1,3.27,0.21c0.8,0.08,1.56,0.04,2.34-0.15c0.92-0.22,1.68-0.04,2.6,0.15c2.09,0.42,4.21,0.69,6.16,1.55c0.38,0.17,0.8,0.27,1.16,0.48c0.31,0.19,0.33,0.34,0.57,0.56c0.38,0.34,1.01,0.61,1.46,0.78C203.73,273.14,203.89,273.16,204.04,273.17z"/><path fill="#a7696a" fill-opacity="0.9" d="M151.65,269.72c0.52,1.75,2.38,3.06,3.6,4.29c1.21,1.22,2.53,2.22,3.73,3.46c3.07,3.17,6.37,6.53,10.86,7.47c2.56,0.53,5.23,0.59,7.83,0.83c1.31,0.12,2.49,0.42,3.71,0.53c1.49,0.14,2.93-0.11,4.34-0.42c1.98-0.44,4.27-0.85,6.09-1.83c2.13-1.16,4.28-2.42,6.4-3.53c2.25-1.18,4.58-3.42,6.38-5.19c1.7-1.67,3.05-3.4,4.28-5.41c-1.81-0.27-3.38,1.54-4.63,2.53c-1.58,1.26-4.14,0.67-6,1.44c-1.78,0.74-3.41,1.43-5.2,2.08c-1.95,0.71-4.13,0.66-6.21,0.98c-4.39,0.68-8.65,0.12-12.97-0.27c-1.91-0.17-3.84-0.71-5.67-1.05c-1.16-0.22-2.22-0.65-3.41-0.76c-1.05-0.1-1.99-0.1-2.94-0.5c-1.06-0.44-2.38-0.7-3.33-1.25c-0.84-0.48-1.6-1.15-2.49-1.63c-1.43-0.77-2.95-1.44-4.36-1.98"/><path fill="#975b3f" d="M151.56,269.83c1.33-1.34,2.27-2.91,3.75-4.07c1.54-1.21,3.2-2.22,5.07-2.78c1.87-0.56,4.15-0.43,6.13-0.53c2.08-0.11,4.18-0.33,6.25-0.33c0.94,0,1.89,0.04,2.8,0.19c1.32,0.22,3.6,0.17,4.81,0.45c2.67,0.63,5.97-0.68,8.73-0.83c2.78-0.15,4.91,0.7,7.67,0.9c1.26,0.09,2.79,0.87,3.94,1.36c0.93,0.39,4.07,2.62,5.13,3.62c0.72,0.68,2.31,1.32,3.03,2.12c-2.28,0.95-5.88,0.08-8.14-0.24c-2.38-0.34-11.59-1.22-13.84-1.31c-2.35-0.09-4.67,0.3-6.96,0.29c-2.21-0.01-12.18-0.91-14.93-1.23c-2.4-0.28-3.59,0.33-5.99,0.24c-1.04-0.04-3.96,0.45-4.81,0.94c-0.69,0.39-1.54,0.81-2.18,1.32"/></g></svg>