<svg id="s539e785300c9a" class="face" xmlns="http://www.w3.org/2000/svg" xmlns:xlink="http://www.w3.org/1999/xlink" x="0px" y="0px" width="357px" height="358px" viewBox="0 0 357 358"><path fill="#e39070" d="M268.5,189.04c-1.41-1.92-2.86-2.74-4.22-2.91c-3.96-0.47-7.28,4.62-7.28,4.62c2.38-21.04,0-32.96,0-32.96c-16.83-65.56-65.84-69.37-76.8-69.39c-0.71,0.02-1.44,0.04-2.2,0.06c-54,1.42-71.5,44.58-71.5,44.58c-9,12.5-4,61.55-4,61.55c-21-12.95-1.5,45.45-1.5,45.45c5,13.5,8,1,8,1c2.88,12.67,6.63,23.41,10.9,32.53c0.85,44.99,1.74,68.73,1.44,83.43c23.33,0,116.79,0,123.83,0l1.52-85.32c6.58-17.33,7.31-32.14,7.31-32.14c2.5,3,6.5,1.5,6.5,1.5C272.75,234.79,268.5,189.04,268.5,189.04z M255.96,199.92C255.93,200.18,255.94,200.15,255.96,199.92L255.96,199.92z M256.22,197.67c0.03-0.3,0.07-0.64,0.11-1.01C256.29,197.01,256.25,197.35,256.22,197.67z M256.82,192.32c0.06-0.55,0.11-0.99,0.14-1.26C256.91,191.5,256.87,191.92,256.82,192.32z M265.33,190.26c-0.04-0.16-0.09-0.37-0.16-0.62c-0.13-0.5-0.31-1.2-0.54-2.1c0.22,0.86,0.4,1.58,0.54,2.1C265.24,189.9,265.29,190.1,265.33,190.26C265.47,190.79,265.48,190.83,265.33,190.26z"/><path fill="#de8b6b" d="M125.25,227.25c4.5-6.5,6.97-8.84,12.65-10c4.87-0.99,13.28-2.45,17.35-5.75c9.63-7.79,13.17-20.35,5.59-28.43c-4.32-4.6-7.03-7.3-13.05-8.81c-4.83-1.22-11.04-2.16-15.05-6.1c-7.84-7.69-11.29-20.73-10.82-31.2c0.41-8.95,9.17-18.79,15.15-24.83c7.04-7.12,15.71-14.12,23.72-20.42c-40.38,8.84-54.04,42.51-54.04,42.51c-9,12.5-4,61.55-4,61.55c-21-12.95-1.5,45.45-1.5,45.45c5,13.5,8,1,8,1c2.89,12.7,6.64,23.46,10.93,32.59c-0.78,38.87,1.32,70.54,1.15,83.21c7.79,0.1,53.6-30.51,61.45-32.32C179.16,318.81,113.75,264.75,125.25,227.25z"/><g class="eyes eyes-5"><path fill="#ffffff" fill-opacity="0.7" d="M135.75,201.5c-1.72,0.07-3.66,2.14-4.47,3.45c3.15,0.53,5.6-0.64,8.67,0.86c2.25,1.11,4.17,1.78,7.05,1.94c5.49,0.3,10.45-1.49,15.73-1.79c-2.69-4.57-8.53-6.93-13.48-7.21C145.09,198.51,137.96,197.42,135.75,201.5"/><path fill="#ffffff" fill-opacity="0.7" d="M201.34,205.04c2.89-1.3,3.77-2.92,6.9-3.8c2.42-0.68,6.6-1.72,9.21-1.18c4.91,1.02,10.58,5.93,14.47,9.21c-2.99-0.07-5.62-0.73-8.34,0.27c-2.89,1.07-5.39,0.46-8.74,0.46c-3.16,0-5.29-1.17-8-2.22c-2.25-0.87-5.17,0.4-7.08-1.28"/><path fill="#4f2a1a" d="M209.75,201.75c-2.03,3.49,0.87,6.17,4,6.44c2.37,0.2,7.99,1.38,9.32-0.94c2.08-3.6-2.84-5.28-5.27-6.07c-3.14-1.02-5.62-1.69-8.06,1.06"/><path fill="#4f2a1a" d="M141,199.25c-3.15,0.45-2.06,5.23-0.01,6.56c2.14,1.39,6.63,1.67,9.01,0.76c3.89-1.5,3.21-4.74,0.01-6.31c-2.92-1.44-5.92-1.25-9.25-1.25"/></g><g class="eyebrows eyebrows-2"><path fill="#764932" fill-opacity="0.7" d="M114.33,186.5c-1.72,3.1-1.84,6.54-1.64,10.3c0.49-1.33,2.29-1.98,3.35-2.81c1.03-0.81,2.02-1.7,2.84-2.69c0.9-1.1,1.54-2.08,2.91-2.82c1.03-0.56,2.28-0.42,3.38-0.65c1.17-0.25,2.14-0.82,3.23-1.21c1.63-0.58,1.98-0.15,3.25,0.22c1.92,0.56,4.17,0.66,6.19,0.99c1.77,0.28,3.07,0.24,4.83,0c1.86-0.26,3.45,0.29,5.32,0.37c1.93,0.08,4.63-0.2,6.48,0.33c0.81,0.23,1.24,0.67,2.18,0.8c1.34,0.18,1.59,0.33,2.67,0.99c1.11,0.68,2.29,1.17,3.62,0.98c0.27-1.6,0.37-3.27,0.05-4.92c-0.23-1.2-0.14-1.36-0.78-2.42c-0.73-1.19-0.83-1.96-1.2-3.29c-0.79-2.85-1.95-3.28-4.35-4.18c-2.7-1.01-3.3-0.75-6.3-0.17c-2.22,0.43-4.56,0.42-6.83,0.33c-1.01-0.04-1.87-0.12-2.86-0.37c-1.45-0.36-2.75-0.27-4.22-0.5c-1.63-0.27-2.58-1.64-4.29-1.97c-1.81-0.35-3.98,0.65-5.49,1.51c-2.29,1.31-5.04,3.78-7.2,5.61c-1.96,1.66-3.37,4.92-5.47,6.05"/><path fill="#764932" fill-opacity="0.7" d="M190.33,180.17c-1.92,2.17-0.93,3.02-2.35,5.53c1.06,0.73,1.6,1.79,2.85,2.52c0.97,0.57,1.83,1.52,2.84,2c2.4,1.15,3.15-0.66,5.16-1.22c4.5-1.25,8.67,1.63,13.11,0.3c2.52-0.75,3.64-2.87,6.24-2.12c2.84,0.82,5.14,0.51,8.36,0.49c1.49-0.01,2.08,0.19,3.44,0.78c2.24,0.99,4.32,1.22,6.54,1.92c2.62,0.82,3.32,3.92,4.7,5.95c0.33,0.48,1.17,0.97,1.59,1.48c-0.04-1.68-0.57-2.51-1.13-3.96c-0.38-1-0.23-1.84-0.34-2.96c-0.25-2.53-1.1-4.41-3.17-5.7c-2.89-1.8-5.23-3.53-7.33-6.16c-1.53-1.91-2.79-2.62-5.15-3.35c-2.18-0.67-4.27-1.89-6.6-2.13c-2.37-0.25-3.27,1.12-5.28,1.81c-4.42,1.53-9.84,0.21-14.42,0.16c-1.02-0.01-2.78-0.35-3.75-0.02c-1.08,0.38-2.23,1.95-3.29,2.54c-0.85,0.48-2.34,0.97-3.01,1.67c-0.79,0.82-0.64,2.03-1.33,2.8"/></g><g class="chin chin-15"><path fill="none" stroke="#de8b6b" stroke-miterlimit="10" d="M148.17,314.5c2.03,0.92,12.9,9.24,14.52,10c2.37,1.12,15.18,5.5,17.81,6c7.24,1.37,12.83-0.5,19.5-2.83c8.62-3.02,16.75-8.58,20.67-17"/></g><g class="hair hair-6"><linearGradient id="hair_1_539e785301c3a" gradientUnits="userSpaceOnUse" x1="179.708" y1="211.418" x2="179.708" y2="89.4009"><stop offset="0" style="stop-color:#e39070;stop-opacity:0"/><stop offset="0.2" style="stop-color:#d98666;stop-opacity:0.4462"/><stop offset="0.7312" style="stop-color:#764932"/></linearGradient><path fill="url(#hair_1_539e785301c3a)" fill-opacity="0.9" d="M111.39,211.42c-1.58-15.84,1.49-27.82,4.36-42.79c1.56-8.1,1.74-12.06,5.25-19.75c2.13-4.67,2.88-19.52,6.66-23.78c5.19-2.78,21.77-12.47,29.96-13.84c16.39-2.74,44.38-5.05,59.23,2.27c5.12,2.52,10.81,5.15,14.31,9.44c3.91,4.79,4.05,10.48,5.73,16.57c1.54,5.58,2.84,11.1,4,16.8c1.19,5.84,4.25,10.36,6.06,16.15c3.46,11.05,4.02,22.4,6.37,33.5c1.06-1.55,1.96-3.2,2.74-4.91c0-0.03,0-0.03,0,0c1.71-3.78,1.05-9.32,1.05-9.32c2.38-21.04,0-32.96,0-32.96c-16.83-65.56-65.84-69.37-76.8-69.39c-0.71,0.02-1.44,0.04-2.2,0.06c-54,1.42-71.5,44.58-71.5,44.58c-9,12.5-4,61.55-4,61.55C102.06,195.24,105.3,209.96,111.39,211.42z M257.09,192.06c-0.05,0.44-0.1,0.86-0.14,1.26C257.01,192.77,257.06,192.33,257.09,192.06z M128.41,124.35c0.3-0.26,0.62-0.49,0.95-0.68L128.41,124.35z"/></g><g class="nose nose-7"><path fill="#d98666" d="M186.01,198.89c-0.17,1.53-0.26,3.95-0.49,5.46c-0.58,3.86,0.9,6.29,0.88,10.24 c-0.02,6.65,6.48,12.91,4.38,19.46c-5.2-0.71-6.56-12.33-6.95-16.23c-0.33-3.31-1.14-7.11-1.01-10.49 c0.11-2.91,1.43-6.24,2.54-9.75C185.35,197.6,186.24,196.78,186.01,198.89z"/><path fill="none" stroke="#d48161" stroke-miterlimit="10" d="M166.22,228.31c-3.29,0.65-5,4.65-5.51,7.49c-1.05,5.78,2.08,6.19,7.01,6.01"/><path fill="none" stroke="#d48161" stroke-miterlimit="10" d="M196.72,231.31c0.42,2.48,3.38,6.42,2.54,8.39c-1.63,3.79-6.21,2.21-8.04,0.11"/><path fill="#b15e3e" d="M167.22,241.31c1.49-1.02,7.76-1.08,6.96,1.96c-2.75,0.43-3.95-2.48-6.46-1.96"/><path fill="#b15e3e" d="M187.97,241.56c-1.71-0.03-7.84-1.2-5.96,2.46c1.82,0.42,5.39-1.19,6.45-2.67c-0.33-0.06-0.65-0.03-0.99-0.04"/></g><g class="mouth mouth-11"><path fill="#CCC2BB" d="M162.75,272.46c-0.18,0.88-1.2,0.82-1.56,1.61c-0.44,0.97,0.19,2.48,0.78,3.22c2.33,2.95,7.68,2.21,10.97,2.97c6.78,1.57,13.41,1.12,20.21-0.06c1.84-0.32,3.4-1.1,5.21-1.34c1.14-0.15,2.26-0.34,3.44-0.38c2.48-0.08,6.22,0.28,5.52-3.49c-1.94-2.2-6.04-2.83-8.94-3.69c-2.25-0.67-4.55-1.27-6.81-1.78c-4.38-0.99-7.48-0.61-11.72,0c-3.6,0.52-6.77,1.24-10.43,1.14c-1.94-0.05-7.2-0.65-7.01,2.67"/><path fill="#a7696a" fill-opacity="0.9" d="M162.93,276.62c-2.05,0.15-4.05-1.29-6.18-1.28c-0.8,0-3.32-0.11-3.79,0.65c-0.91,1.47,2.52,4.34,3.47,5.15c1.13,0.96,2.19,2.05,3.48,2.89c1.44,0.94,2.89,1.12,4.43,1.84c2.94,1.37,5.78,1.73,9.13,2.09c3.74,0.4,7.92,1.39,11.67,0.6c2.99-0.63,6.12-0.44,9.09-1.39c1.41-0.45,2.57-1.4,4.01-1.79c1.22-0.33,2.59-0.28,3.86-0.67c2.83-0.88,6.17-4.05,7.67-6.6c0.63-1.07,1.06-2.65-0.05-3.41c-1.3-0.88-2.35,0.47-3.33,1.23c-1.69,1.29-2.65,1.98-4.85,1.96c-2.39-0.03-4.64-0.15-6.98,0.01c-5.45,0.38-11,0.17-16.31-0.41c-2.6-0.28-4.92-0.16-7.48-0.06c-1.46,0.06-2.76,0.2-4.2,0.18c-1.55-0.02-2.8-0.61-4.26-0.57"/><path fill="#d98666" d="M153.83,275.16c3.65-1.5,5.79-4.28,8.92-6.44c1.43-0.99,2.63-2.38,4.13-3.22c1.32-0.75,2.76-2.07,4.18-2.56c3.9-1.33,8.62-0.08,12.59-0.42c1.7-0.15,4.37-0.27,5.91,0.52c1.74,0.88,2.84,1.61,4.76,2.09c6.25,1.54,9.66,8.05,15.68,9.61c-0.42,3.25-5.83,1.17-7.78,1.44c-1.68,0.23-3.37,0.53-5.17,0.54c-1.68,0.01-2.43-1.05-3.76-1.92c-1.04-0.68-2.21-1.73-3.46-1.96c-1.5-0.27-3.25,0.24-4.76,0.29c-1.61,0.06-3.21-0.17-4.79-0.12c-2.17,0.06-4.64-0.23-6.75,0.13c-1.21,0.2-2.58,0.98-3.83,1.28c-1.71,0.42-2.68,1.32-4.35,1.96c-0.93,0.35-1.77,0.11-2.72,0.25c-0.97,0.15-1.96,0.74-3.01,0.83c-2.89,0.24-4.55-0.75-7.17-1.52c0.51-0.87,1.56-0.32,2.41-0.56"/></g></svg>