<svg id="s57da0c2d3ae15" class="face" xmlns="http://www.w3.org/2000/svg" xmlns:xlink="http://www.w3.org/1999/xlink" x="0px" y="0px" width="357px" height="358px" viewBox="0 0 357 358"><path fill="#5a3022" d="M268.5,189.04c-1.41-1.92-2.86-2.74-4.22-2.91c-3.96-0.47-7.28,4.62-7.28,4.62c2.38-21.04,0-32.96,0-32.96c-16.83-65.56-65.84-69.37-76.8-69.39c-0.71,0.02-1.44,0.04-2.2,0.06c-54,1.42-71.5,44.58-71.5,44.58c-9,12.5-4,61.55-4,61.55c-21-12.95-1.5,45.45-1.5,45.45c5,13.5,8,1,8,1c2.88,12.67,6.63,23.41,10.9,32.53c0.85,44.99,1.74,68.73,1.44,83.43c23.33,0,116.79,0,123.83,0l1.52-85.32c6.58-17.33,7.31-32.14,7.31-32.14c2.5,3,6.5,1.5,6.5,1.5C272.75,234.79,268.5,189.04,268.5,189.04z M255.96,199.92C255.93,200.18,255.94,200.15,255.96,199.92L255.96,199.92z M256.22,197.67c0.03-0.3,0.07-0.64,0.11-1.01C256.29,197.01,256.25,197.35,256.22,197.67z M256.82,192.32c0.06-0.55,0.11-0.99,0.14-1.26C256.91,191.5,256.87,191.92,256.82,192.32z M265.33,190.26c-0.04-0.16-0.09-0.37-0.16-0.62c-0.13-0.5-0.31-1.2-0.54-2.1c0.22,0.86,0.4,1.58,0.54,2.1C265.24,189.9,265.29,190.1,265.33,190.26C265.47,190.79,265.48,190.83,265.33,190.26z"/><path fill="#552b1d" d="M125.25,227.25c4.5-6.5,6.97-8.84,12.65-10c4.87-0.99,13.28-2.45,17.35-5.75c9.63-7.79,13.17-20.35,5.59-28.43c-4.32-4.6-7.03-7.3-13.05-8.81c-4.83-1.22-11.04-2.16-15.05-6.1c-7.84-7.69-11.29-20.73-10.82-31.2c0.41-8.95,9.17-18.79,15.15-24.83c7.04-7.12,15.71-14.12,23.72-20.42c-40.38,8.84-54.04,42.51-54.04,42.51c-9,12.5-4,61.55-4,61.55c-21-12.95-1.5,45.45-1.5,45.45c5,13.5,8,1,8,1c2.89,12.7,6.64,23.46,10.93,32.59c-0.78,38.87,1.32,70.54,1.15,83.21c7.79,0.1,53.6-30.51,61.45-32.32C179.16,318.81,113.75,264.75,125.25,227.25z"/><g class="eyes eyes-19"><path fill="#ffffff" fill-opacity="0.7" d="M158.33,206.68c-0.61-0.47-1.13-1.22-1.76-1.66c-1.49-1.05-3.98-1.48-5.74-1.75c-0.15-0.02-0.3-0.03-0.45-0.05c0.42,0.62,0.72,1.32,0.86,2.14c0.27,1.59-1.1,2.92-2.16,3.89c-1.44,1.33-2.83,2.11-4.76,2.66c-2.15,0.61-4.04-0.15-5.58-1.77c-1.36-1.42-1.6-3.34-1.64-5.25c-0.78,0.46-1.5,0.99-2.07,1.52c-1.18,1.09-2.64,1.92-3.77,3.08h0.25c-0.05,0.72,5.78,4.06,7.27,4.31c2.17,0.37,5.32,0.66,7.4-0.21c1.85-0.78,5.19-1.08,6.75-2.35c2.23-1.82,3.93-2.11,6.26-3.84C158.95,207.16,158.61,206.9,158.33,206.68z"/><path fill="#483224" d="M144.31,211.91c1.93-0.55,3.32-1.33,4.76-2.66c1.06-0.97,2.43-2.3,2.16-3.89c-0.14-0.82-0.44-1.53-0.86-2.14c-3.08-0.39-6.49-0.09-9.54,0.28c-1.21,0.14-2.55,0.69-3.75,1.4c0.04,1.91,0.28,3.83,1.64,5.25C140.28,211.76,142.16,212.53,144.31,211.91z"/></g><g><path fill="#ffffff" fill-opacity="0.7" d="M229.09,209.31c-1.17-1.2-2.72-2.3-4.31-2.98c-0.32-0.14-0.65-0.25-0.98-0.35c0.22,1.73-0.23,3.54-1.48,4.75c-0.64,0.62-1.31,1.36-2.14,1.7c-0.88,0.36-1.57,0.48-2.43,0.97c-1.28,0.72-2.6,0.97-4.01,0.37c-1.6-0.69-2.74-2.23-3.67-3.69c-0.48-0.75-0.81-1.53-0.9-2.41c-0.08-0.8,0.18-1.57,0.33-2.34c-1.42,0.5-3.69,1.1-4.25,1.51c-0.5,0.37-0.93,0.86-1.42,1.25c-0.47,0.38-1.09,0.65-1.47,1.15c0.99,1.78,3.2,2.79,5.06,3.33c1.48,0.43,2.65,0.96,4.16,1.11c1.28,0.13,2.56,0.35,3.83,0.58c1.33,0.25,2.8,0.42,4.17,0.42c0.61,0,1.22,0,1.83,0c0.9,0,6.29-1.2,7.5-2.15c0.25-0.19,1.68-0.91,1.74-1.01C231.05,210.84,229.45,209.69,229.09,209.31z"/><path fill="#483224" d="M209.17,207.67c0.08,0.88,0.41,1.66,0.9,2.41c0.93,1.46,2.07,3,3.67,3.69c1.41,0.61,2.73,0.36,4.01-0.37c0.86-0.48,1.55-0.61,2.43-0.97c0.83-0.34,1.5-1.08,2.14-1.7c1.25-1.21,1.71-3.02,1.48-4.75c-2.03-0.63-4.25-0.7-6.29-1.13c-1.9-0.41-4.85-0.69-6.67-0.18l-0.25,0.17c-0.17,0.14-0.57,0.31-1.09,0.49C209.35,206.1,209.09,206.87,209.17,207.67z"/></g><g class="eyebrows eyebrows-3"><path fill="#141615" fill-opacity="1" d="M194.58,187.67c1.3-1.97,2.42-3.64,4.49-4.98c1-0.65,1.66-0.79,2.86-0.84c0.53-0.02,1.37-0.5,2.04-0.54c0.43-0.02,0.77,0.14,1.28,0.19c1.4,0.15,2.77-0.26,3.9-0.91c0.64-0.37,1.54-0.73,2.27-0.76c1.18-0.05,2.77-0.15,3.93,0.15c0.65,0.17,1.24,0.41,2.07,0.26c0.78-0.14,1.48-0.5,2.27-0.58c1.43-0.14,2.23,0.86,3.65,1c4.15,0.42,7.04,3.4,10.23,5.89c1.79,1.39,3.05,2.91,4.29,4.7c0.25,0.36,0.71,0.69,0.9,1.06c0.15,0.28,0.17,0.63,0.33,0.91c0.13,0.22,0.52,0.44,0.6,0.69c0.21,0.66-0.1,0.4-0.36,0.94c-0.22,0.45-0.23,0.9-0.01,1.39c-0.23,0.11-1.15,0.04-1.32-0.14c-0.32-0.33-0.06-0.82-0.32-1.19c-0.36-0.52-1.17-0.35-1.61-0.6c-0.4-0.23-0.53-0.78-0.81-1.12c-0.48-0.57-1.27-0.96-1.93-1.36c-0.89-0.54-1.7-1.23-2.63-1.68c-0.53-0.26-0.98-0.23-1.56-0.33c-0.58-0.1-1.11-0.37-1.64-0.69c-1.2-0.71-2.02-1.83-3.41-2.06c-0.91-0.15-1.85-0.19-2.77-0.31c-1.12-0.15-2.06,0.43-3.21,0.31c-0.83-0.08-1.97-0.48-2.78-0.32c-0.43,0.09-0.84,0.58-1.23,0.76c-0.64,0.29-1.47,0.5-2.17,0.56c-0.92,0.09-1.72-0.16-2.62-0.17c-0.53,0-1.2-0.1-1.72,0c-0.72,0.13-1.36,0.61-2.07,0.59c-0.73-0.02-1.42-0.36-2.19-0.11c-0.41,0.14-0.67,0.51-1.15,0.67c-0.67,0.22-1.45,0.24-2.14,0.27c-0.33,0.02-0.77-0.08-1.1-0.01c-0.33,0.08-0.6,0.42-0.92,0.51c-0.62,0.17-4.54-0.52-3.77-2.01c0.06-0.12,0.45-0.3,0.59-0.33"/><path fill="#141615" fill-opacity="1" d="M122.42,194.75c0.14-0.88,1.48-1.64,2.07-2.35c0.29-0.35,0.5-0.77,0.76-1.15c0.17-0.25,0.38-0.45,0.54-0.71c0.68-1.09,1.41-1.41,2.41-2.2c0.83-0.66,1.53-1.59,2.41-2.25c0.98-0.73,2.13-1.24,3.23-1.82c0.65-0.34,1.71-1.5,2.43-1.57c0.55-0.05,0.41,0.27,0.81,0.38c0.43,0.12,0.77-0.07,1.1-0.13c1.77-0.32,3.51-1.12,5.32-1.02c0.95,0.05,1.86,0.44,2.84,0.42c0.72-0.02,1.53-0.17,2.27-0.31c1.15-0.23,2.18-0.52,3.4-0.52c1.09,0,1.76,0.37,2.84,0.58c1.27,0.25,2.4-0.04,3.66-0.17c1.23-0.13,2.44,0.35,3.62,0.59c1.51,0.32,2.99,0.63,4.41,1.35c1.08,0.54,1.77,1.55,2.79,2.15c0.9,0.52,1.42,1.14,2.03,1.99c0.68,0.95,1.54,1.32,1.76,2.51c-1.38,0.37-2.25-0.42-3.57-0.59c-0.62-0.08-1.2-0.31-1.79-0.33c-0.69-0.03-1.4,0.32-2.08,0.42c-0.88,0.13-1.86,0.13-2.74,0c-0.28-0.04-0.66-0.25-0.94-0.24c-0.44,0.02-0.99,0.28-1.5,0.32c-1,0.09-1.82-0.05-2.73-0.17c-0.56-0.08-1.15,0.05-1.72-0.01c-0.77-0.08-1.45-0.53-2.2-0.57c-0.74-0.03-1,0.38-1.62,0.65c-0.54,0.23-1.06,0.17-1.66,0.19c-1.34,0.03-2.7,0.61-3.93,1.08c-1.11,0.42-2.02,0.39-3.15,0.6c-1.5,0.29-2.94,0.63-4.5,0.65c-1.43,0.02-2.4,0.46-3.74,0.94c-0.96,0.34-1.35,1.03-2.09,1.64c-1.13,0.93-2.49,1.74-3.69,2.5c-0.95,0.6-0.9,1.25-1.49,2.16c-0.76,1.17-1.69,1.53-2.66,2.42c-0.59,0.54-1.63,1.82-2.48,0.99c-0.56-0.55,0.01-0.81,0.06-1.4c0.05-0.66-0.33-1.13-0.58-1.68c-0.56-1.27-0.79-4.32,0.17-5.5"/></g><g class="chin chin-5"><path display="inline" fill="none" stroke="#552b1d" stroke-miterlimit="10" d="M159,325.59c3.68,0.56,7.52,5.32,10.98,6.81 c4.3,1.86,8.45,3.26,13.02,3.26c4.91,0,8.27,0.08,12.17-3.27c2.93-2.52,8.11-4.67,10.17-8.07"/></g><g class="hair hair-9"><linearGradient id="hair_1_57da0c2d3bda5" gradientUnits="userSpaceOnUse" x1="307.1953" y1="-68.4199" x2="307.1953" y2="53.5893" gradientTransform="matrix(1 0 0 -1 -127.5 142)"><stop offset="0" style="stop-color:#5a3022;stop-opacity:0"/><stop offset="0" style="stop-color:#552b1d;stop-opacity:0.4462"/><stop offset="0.7312" style="stop-color:#141615"/></linearGradient><path fill="url(#hair_1_57da0c2d3bda5)" fill-opacity="0.2" d="M257.11,157.8c-16.83-65.56-65.84-69.37-76.8-69.39c-0.71,0.02-1.44,0.04-2.2,0.06c-54,1.42-71.5,44.58-71.5,44.58c-9,12.5-4,61.55-4,61.55c-0.25-0.16,0.29,2.82,1.54,6.25c0.94-5.79,3.01-11.4,4.53-17.68c0.24-1,0.7-1.78,1.28-2.35c0.63-2.66,1.48-5.25,2.57-7.72c0.05-0.69,0.25-1.4,0.65-2.13c0.25-0.46,0.53-0.9,0.81-1.33c0.21-0.57,0.52-1.14,0.97-1.68c0.38-0.45,0.71-0.93,1.03-1.43c0.93-3.59,2.52-4.24,4.31-5.24c1.24-1.62,2.61-3.1,4.21-4.33c0.16-0.3,0.32-0.62,0.48-0.97c2.13-4.67-5.28-21.74-1.5-26c5.19-2.78,18.5-11,36-15c2.26-0.11,4.45-0.21,6.59-0.3c8.34-1.6,17.04-2.13,25.11-0.61c3.89,0.17,7.74,0.59,11.55,1.25c3.28,0.41,6.51,0.95,9.75,1.66c5.12,2.52,17.5,5.21,21,9.5c3.91,4.79,0.82,26.41,2.5,32.5c0.16,0.58,0.4,1.11,0.69,1.6c2.14,1.63,4.15,3.44,6.03,5.41c1.49,1.11,2.85,2.29,3.64,3.84c0-0.07,0.06,0.03,0.19,0.39c0.06,0.13,0.11,0.27,0.16,0.41c4.36,5.65,7.85,12.17,10.53,19.02C259.4,169.31,257.11,157.8,257.11,157.8z"/></g><g class="nose nose-10"><path fill="#502618" d="M186.01,198.89c-0.17,1.53-0.26,3.95-0.49,5.46c-0.58,3.86,0.9,6.29,0.88,10.24 c-0.02,6.65,6.48,12.91,4.38,19.46c-5.2-0.71-6.56-12.33-6.95-16.23c-0.33-3.31-1.14-7.11-1.01-10.49 c0.11-2.91,1.43-6.24,2.54-9.75C185.35,197.6,186.24,196.78,186.01,198.89z"/><path fill="#280000" d="M171.75,238.75c-2.31-0.23-2.82,2.22-1.75,3.75c1.06,1.52,2.65,2.54,4.63,1.75c5.37-2.13-2.3-8.14-4.63-5.25"/><path fill="#280000" d="M188.25,238.88c-1.1-0.12-1.74,0.48-2.38,1.22c-0.95,1.11-0.87,1.46,0,2.52c0.62,0.76,1.7,2.12,2.62,2.48c0.87,0.34,2.53-0.15,3.38-0.48c1.85-0.7,3.13-2.9,1.65-4.65c-1.11-1.31-3.66-1.82-5.28-1.22c-0.18,0.07-0.13,0.05-0.25,0.12"/><path fill="none" stroke="#4b2113" stroke-miterlimit="10" d="M167.63,232.25c-1.9,1.11-4.09,2.63-5.16,4.74c-0.86,1.69-0.22,4.64,0.16,6.38c0.45,2.09,2.24,4.18,4.22,5c1.03,0.42,2.72,0.48,3.89,0.5c1.72,0.03,2.24-0.82,3.63-1.26c1.9-0.59,4.9,0.33,6.76,0.62c3.3,0.52,6.46-0.66,9.85-0.37c1.42,0.12,2.4,0.58,3.68,0.03c0.81-0.35,1.47-0.88,2.21-1.4c1.99-1.42,2.59-2.57,3.4-4.75c0.71-1.91,0.58-2.59-0.78-4.29c-1.06-1.33-2.17-2.66-3.49-3.7c-1.22-0.96-2.55-1.87-3.71-3c-0.98-0.95-3.03-2.44-3.54-3.63"/></g><g class="mouth mouth-10"><path fill="#D48489" d="M157.83,269.87c1.52-2.85,3.22-4.73,6.45-5.69c2.21-0.65,4.14,0.43,6.31,1c2.47,0.65,4.79,0.66,7.41,0.77c4.82,0.21,9.68,2.1,14.49,1.38c3.07-0.46,6.68-0.63,9.78-0.01c0.4,0.08,0.89,0,1.31-0.01c-1,1.02-1,3.36-1.75,4.71c-0.65,1.17-1.58,2.3-2.54,3.28c-2.21,2.26-4.36,2.42-7.35,3.43c-2.58,0.87-5.51,1.95-8.25,2.31c-2.97,0.38-6.07-0.22-9.04,0.14c-3.3,0.39-5.23,1.18-8-0.77c-2.28-1.61-6-3.04-7.68-5.05c-1.27-1.52-1.34-3.87-1.33-5.87"/><path fill="#FCFCFD" d="M158.22,269.48c0.87,0.79,0.27,3.14,0.98,4.31c0.58,0.96,1.86,2.36,2.78,2.69c1.11,0.4,1.4-0.17,2.15-0.34c1.11-0.25,1-0.19,1.95-0.04c1.85,0.29,2.12,0.55,3.53,1.56c2.84,2.03,5.3,2.38,8.57,1.37c3.18-0.98,6.48-1.12,9.59-2.31c1.38-0.53,2.78-0.78,4.31-1.16c1.4-0.35,3.26-0.26,4.54-0.75c1.86-0.7,5.85-3.14,6-5.28c-2.84-1.65-5.9-1.15-8.97-1.02c-0.81,0.03-1.6-0.09-2.31,0.19c-0.19,0.07-0.75,0.77-0.86,0.79c-0.88,0.13-0.5-0.16-1.13-0.25c-1.71-0.23-0.99-1.01-2.31,0.46c-0.48,0.54-0.77,1.16-1.23,1.78c-1.05-1.74-0.17-2.25-2.73-2.38c-0.67-0.03-1.71-0.18-2.35,0c-0.65,0.17-1.56,1.33-1.91,1.39c-1.32,0.21-1.77-1.56-2.83-2.36c-1.31-0.99-3.15-0.84-4.82-0.75c0.13,0.82,0.75,1.52,1.13,2.29c-1.08-0.13-5.05-3.66-5.49-0.58c-1.44-0.77-5.78-3.05-5.87,0.39c-0.84-0.27-1.89-0.23-2.52,0.42"/><path fill="#a7696a" fill-opacity="0.9" d="M153.13,267.52c0.78,1.37,1.35,2.74,2.5,3.97c1.25,1.35,1.61,2.25,2.39,3.82c1.14,2.29,3.61,5.6,5.73,7.04c2.56,1.74,6.81,3.19,9.7,3.17c2.77-0.02,5.16,0.46,7.84-0.39c1.81-0.57,3.38-1.2,5.31-1.37c3.19-0.29,5.68-0.1,8.41-1.66c2.59-1.48,4.33-2.72,6.47-4.6c2.61-2.3,6.47-6.95,6.05-10.74c-3.24,0.45-4.63,3.96-7.42,5.47c-2.6,1.4-6.04,2.32-8.8,3.09c-1.59,0.44-3.28-0.01-4.91,0.23c-1.46,0.21-3.13,0.68-4.69,0.98c-3.59,0.69-6.56,2.32-10.17,0.64c-1.71-0.79-3.02-1.57-4.89-1.85c-1.9-0.28-4.69,0.32-6.26-0.55c-1.29-0.71-2.26-2.35-3.38-3.32c-1.21-1.06-2.81-1.89-3.48-3.33"/><path fill="#502618" d="M152.54,267.92c1.77-0.41,2.89-2.63,4.5-3.48c1.56-0.82,3.6-1.03,5.3-1.45c4.24-1.04,10.07-1.44,14.46-0.75c1.75,0.28,2.86,1.11,4.7,1.17c1.84,0.07,3.65,0.16,5.48,0.2c4.26,0.09,8.14,1.38,12.34,1.37c2.7,0,7.2,0.73,8.97,2.7c-3.92,2.3-7.55,1.21-11.93,1.21c-3.59,0-6.78-0.89-10.36-0.78c-3.96,0.12-6.8,1.64-10.72,0.34c-3.28-1.09-6.75-2.05-10.23-2.1c-2.11-0.03-4.54,0.47-6.63,0.78c-1.83,0.27-4.23,1.49-6.02,1.18c0.64,0.01,1.14-0.21,1.7-0.39"/></g></svg>