<svg id="s539e7844db9d4" class="face" xmlns="http://www.w3.org/2000/svg" xmlns:xlink="http://www.w3.org/1999/xlink" x="0px" y="0px" width="357px" height="358px" viewBox="0 0 357 358"><path fill="#d0a07c" d="M268.5,189.04c-1.41-1.92-2.86-2.74-4.22-2.91c-3.96-0.47-7.28,4.62-7.28,4.62c2.38-21.04,0-32.96,0-32.96c-16.83-65.56-65.84-69.37-76.8-69.39c-0.71,0.02-1.44,0.04-2.2,0.06c-54,1.42-71.5,44.58-71.5,44.58c-9,12.5-4,61.55-4,61.55c-21-12.95-1.5,45.45-1.5,45.45c5,13.5,8,1,8,1c2.88,12.67,6.63,23.41,10.9,32.53c0.85,44.99,1.74,68.73,1.44,83.43c23.33,0,116.79,0,123.83,0l1.52-85.32c6.58-17.33,7.31-32.14,7.31-32.14c2.5,3,6.5,1.5,6.5,1.5C272.75,234.79,268.5,189.04,268.5,189.04z M255.96,199.92C255.93,200.18,255.94,200.15,255.96,199.92L255.96,199.92z M256.22,197.67c0.03-0.3,0.07-0.64,0.11-1.01C256.29,197.01,256.25,197.35,256.22,197.67z M256.82,192.32c0.06-0.55,0.11-0.99,0.14-1.26C256.91,191.5,256.87,191.92,256.82,192.32z M265.33,190.26c-0.04-0.16-0.09-0.37-0.16-0.62c-0.13-0.5-0.31-1.2-0.54-2.1c0.22,0.86,0.4,1.58,0.54,2.1C265.24,189.9,265.29,190.1,265.33,190.26C265.47,190.79,265.48,190.83,265.33,190.26z"/><path fill="#cb9b77" d="M125.25,227.25c4.5-6.5,6.97-8.84,12.65-10c4.87-0.99,13.28-2.45,17.35-5.75c9.63-7.79,13.17-20.35,5.59-28.43c-4.32-4.6-7.03-7.3-13.05-8.81c-4.83-1.22-11.04-2.16-15.05-6.1c-7.84-7.69-11.29-20.73-10.82-31.2c0.41-8.95,9.17-18.79,15.15-24.83c7.04-7.12,15.71-14.12,23.72-20.42c-40.38,8.84-54.04,42.51-54.04,42.51c-9,12.5-4,61.55-4,61.55c-21-12.95-1.5,45.45-1.5,45.45c5,13.5,8,1,8,1c2.89,12.7,6.64,23.46,10.93,32.59c-0.78,38.87,1.32,70.54,1.15,83.21c7.79,0.1,53.6-30.51,61.45-32.32C179.16,318.81,113.75,264.75,125.25,227.25z"/><g class="eyes eyes-12"><path fill="#ffffff" fill-opacity="0.7" d="M128.25,203.25c1.4-2.3,5.02-2.76,7.14-4.35c2-1.5,3.71-2.77,6.39-3.03c1.37-0.13,2.27,0.45,3.49,0.63c1.52,0.23,3.09-0.15,4.61,0.15c2.19,0.43,4.08,1.86,6,2.94c0.92,0.52,1.8,0.97,2.74,1.39c-1.43,2.32-4.53,3.14-6.99,3.64c-2.76,0.56-5.32,1.5-8.14,1.75c-2.74,0.25-4.9-0.87-7.49-1.01c-2.35-0.12-4.01-0.67-6.13-1.37c-0.6-0.2-1.21-0.53-1.74-0.88"/><path fill="#ffffff" fill-opacity="0.7" d="M201.67,202.28c0.42-0.78,1.39-1.43,2.29-1.66c0.67-0.17,1.32-0.37,1.94-0.64c0.73-0.32,1.32-0.81,2.05-1.14c1.33-0.59,2.43-1.56,3.73-2.19c1.09-0.53,2.49-0.74,3.71-0.91c0.83-0.12,1.63-0.16,2.45,0.02c0.73,0.16,1.46,0.1,2.19,0.23c1.26,0.24,2.31,0.46,3.27,1.24c0.78,0.64,1.73,1.04,2.57,1.56c0.61,0.38,1.04,0.91,1.57,1.37c0.41,0.35,0.86,0.62,1.34,0.87c0.39,0.2,0.57,0.39,0.88,0.67c0.54,0.48,1.27,0.8,1.66,1.4c0.13,0.2,0.19,0.43,0.35,0.6c-1.49,0.49-3.08,0.83-4.66,1.06c-0.69,0.1-1.37,0-2.06,0.13c-0.48,0.09-0.98,0.15-1.47,0.23c-2.36,0.4-4.83,0.43-7.23,0.43c-1.64,0-3.31-0.33-4.91-0.65c-1.07-0.22-2.16-0.3-3.23-0.5c-1.59-0.3-3.16-0.87-4.67-1.37c-0.69-0.23-1.21-0.43-1.72-0.88"/><path fill="#4f2a1a" d="M140,195.75c-2.6,2.35-5.65,5.65-2.56,8.77c2.56,2.58,5.85,2.5,8.58,0.22c2.08-1.74,5.06-5.31,1.8-7.56c-1.55-1.07-8.29-1.78-9.32-0.43"/><path fill="#4f2a1a" d="M214,196.25c-1.04,1.15-2.43,1.93-2.99,3.43c1.99,5.58,9.32,8.68,13.45,2.75c3.82-5.48-8.98-8.72-11.96-4.93"/></g><g class="eyebrows eyebrows-2"><path fill="#764932" fill-opacity="0.8" d="M114.33,186.5c-1.72,3.1-1.84,6.54-1.64,10.3c0.49-1.33,2.29-1.98,3.35-2.81c1.03-0.81,2.02-1.7,2.84-2.69c0.9-1.1,1.54-2.08,2.91-2.82c1.03-0.56,2.28-0.42,3.38-0.65c1.17-0.25,2.14-0.82,3.23-1.21c1.63-0.58,1.98-0.15,3.25,0.22c1.92,0.56,4.17,0.66,6.19,0.99c1.77,0.28,3.07,0.24,4.83,0c1.86-0.26,3.45,0.29,5.32,0.37c1.93,0.08,4.63-0.2,6.48,0.33c0.81,0.23,1.24,0.67,2.18,0.8c1.34,0.18,1.59,0.33,2.67,0.99c1.11,0.68,2.29,1.17,3.62,0.98c0.27-1.6,0.37-3.27,0.05-4.92c-0.23-1.2-0.14-1.36-0.78-2.42c-0.73-1.19-0.83-1.96-1.2-3.29c-0.79-2.85-1.95-3.28-4.35-4.18c-2.7-1.01-3.3-0.75-6.3-0.17c-2.22,0.43-4.56,0.42-6.83,0.33c-1.01-0.04-1.87-0.12-2.86-0.37c-1.45-0.36-2.75-0.27-4.22-0.5c-1.63-0.27-2.58-1.64-4.29-1.97c-1.81-0.35-3.98,0.65-5.49,1.51c-2.29,1.31-5.04,3.78-7.2,5.61c-1.96,1.66-3.37,4.92-5.47,6.05"/><path fill="#764932" fill-opacity="0.8" d="M190.33,180.17c-1.92,2.17-0.93,3.02-2.35,5.53c1.06,0.73,1.6,1.79,2.85,2.52c0.97,0.57,1.83,1.52,2.84,2c2.4,1.15,3.15-0.66,5.16-1.22c4.5-1.25,8.67,1.63,13.11,0.3c2.52-0.75,3.64-2.87,6.24-2.12c2.84,0.82,5.14,0.51,8.36,0.49c1.49-0.01,2.08,0.19,3.44,0.78c2.24,0.99,4.32,1.22,6.54,1.92c2.62,0.82,3.32,3.92,4.7,5.95c0.33,0.48,1.17,0.97,1.59,1.48c-0.04-1.68-0.57-2.51-1.13-3.96c-0.38-1-0.23-1.84-0.34-2.96c-0.25-2.53-1.1-4.41-3.17-5.7c-2.89-1.8-5.23-3.53-7.33-6.16c-1.53-1.91-2.79-2.62-5.15-3.35c-2.18-0.67-4.27-1.89-6.6-2.13c-2.37-0.25-3.27,1.12-5.28,1.81c-4.42,1.53-9.84,0.21-14.42,0.16c-1.02-0.01-2.78-0.35-3.75-0.02c-1.08,0.38-2.23,1.95-3.29,2.54c-0.85,0.48-2.34,0.97-3.01,1.67c-0.79,0.82-0.64,2.03-1.33,2.8"/></g><g class="chin chin-4"><path display="inline" fill="none" stroke="#cb9b77" stroke-miterlimit="10" d="M148.67,321.33c2.9,4.97,9.55,7.09,14.17,9.33 c1.98,0.96,4.19,1.2,6.32,1.8c3.69,1.04,7.7,1.38,11.51,1.54c4.9,0.2,11.34,0.95,15.96-0.5c1.89-0.59,4.02-0.41,5.92-1.37 c1.37-0.69,2.61-1.58,3.92-2.33c2.71-1.57,6-3.24,8.38-5.25c1.9-1.61,3.95-3.63,6.16-4.71"/></g><g class="hair hair-3008"><path fill="#764932" d="M108,207c-1.93-4.13,0.11-9.13,0.34-13.33c0.29-5.15,0.39-8.29,2.62-12.99c3.41-7.23,15.44-13.53,14.19-22.29c-4.21,0.35-3.78-1.15-3.99-4.68c-3.21,0.19-0.48-7.48,0.51-9.37c2.37-4.51,9.66-5.58,13.48-8.26c4.77-3.34,8.52-4.31,14.48-4.42c5.39-0.09,10.82-2.24,15.65-0.33c4.12,1.63,8.04,3.83,12.09,5.36c5.61,2.12,9.5-2.24,14.51-4.03c6.38-2.29,18.23-3.16,24.87-0.93c7.59,2.55,15.65,9.56,19.22,16.94c1.39,2.88,1.03,6.6,2.02,9.68c1.15,3.61,3.7,5.67,6.03,8.72c4.1,5.37,8.54,10.42,8.54,17.33c0,7.75,3.24,14.3,4.33,21.67c0.1,0.68,0.12,1.4,0,2.05c-2.38-8.34,0.12-14.74,2.52-22.21c2.34-7.29,1.26-15.99,1.27-23.66c0.01-5.91-2.81-10.76-3.63-16.53c-0.6-4.21-0.5-7.73-2.13-11.73c-3.57-8.76-5.35-11.67-10.49-19.33C233.61,98.56,209.3,81.96,189.1,82c-8.64,0.02-18.15-1.2-26.78,0.39c-4.36,0.8-8.41,2.1-12.84,2.6c-3.58,0.4-5.89,2.12-9.58,2.67c-1.47,0.22-5.04-0.01-6.12,0.75c-1.43,1.01-0.56,1.43-1.08,2.91c-1.35,3.89-2.91,3.44-6.01,5.98c-2.77,2.27-5.95,5.27-8.84,7.73c-2.23,1.9-3.57,4.97-5.87,6.64c3.32,2.63-3.13,6.14-3.93,8.98c-0.93,3.29-0.78,7.15-1.4,10.26c-1.62,8.08-8.09,13.77-8.49,22.35c-0.34,7.28-0.32,14.72-0.68,22.05c-0.38,7.67,0.48,14.03,2.45,21.27c0.71,2.6,2.39,4.49,3.04,7.06c0.93,3.69,1.14,4.59,3.92,7.25c-0.06-1.25,0.17-2.52,0.75-3.57"/><path fill="#8a5d46" d="M137.45,108.33c-3.95,3.37-8.99,5.19-12.7,9.32c2.43-1.32,5.22-2.78,7.92-3.23c0.28,1.38-0.05,2.77-1,3.81c0.42-0.15,0.86-0.25,1.31-0.29c-0.07,4.42-4.71,6.86-7.06,10.09c-1.65,2.27-3.21,5.2-4.49,7.72c-2.17,4.25-4.33,6.25-7.81,9.48c-2.65,2.47-6.12,4.41-7.7,7.79c-1.42,3.06-2.04,6.69-3.77,9.61c-0.82-2.19,1.44-3.98,3.15-5.36c1.3,1.02,1.31,2.77,0.45,4.12c0.68-0.22,2.3,0.13,3.02,0c1.05,3.72-1.99,8.2-1.77,12.26c2.63-1.79,9.46-7.98,10.82-11.24c-2.23,0.43-4.46,1.06-6.75,0.9c-0.44-2.91,2.74-5.25,2.59-8.38c-0.55,0.1-1.14-0.01-1.69,0.16c-0.26-5.05,6.41-11.19,9.72-14.7c5.31-5.62,8.8-11.8,13.61-17.72c-0.23,0.05-0.32,0.3-0.57,0.39c-1.11-2.26,1.71-5.52,1.7-8.17c-0.02-3.08-1.07-5.14,1.69-7.23"/><path fill="#8a5d46" d="M170.28,128.33c-4.28-3.01-8.31-6.7-13.18-8.77c3.88-1.56,8.36,2.87,12.34,2.85c-3.46-3.59-7.51-7.42-11.31-10.81c-1.4-1.25-2.7-2.32-4.47-2.94c4.2,1.22,8.86,2.9,12.93,4.39c1.07,0.39,2.19,0.67,3.15,1.64c-3.18-2.28-5.97-6.14-7.42-9.71c4.59,2.9,8.18,7.22,13.67,8.69c-0.96-3.07-2.01-6.36-2.98-9.3c2.05,0.68,4.18,1.19,6.35,1.38c-3.43-2.41-7.28-5.37-8.82-9.34c3,3.64,12.02,8.13,16.84,8.76c-1.64-3.44-3.8-6.42-5.79-9.53c3.11,2.76,7.59,4.53,11.08,6.59c1.32,0.78,2,1.8,3.63,1.71c0.62-3.48-6-8.33-8.08-10.26c4.23,3.82,8.45,7.65,12.6,11.53c2.48,2.32,6.46,3.6,8.54,6.18c-0.77-3.74-4.49-8.1-6.61-11.35c1.89-0.29,3.75,0.93,5.48,1.54c2.73,0.96,5.87,1.14,8.49,2.08c1.89,0.68,3.75,1.26,5.63,1.95c4.78,1.75,10.91,6.34,14.66,9.72c1.16,1.05,1.88,2.5,2.57,3.71c-2.46-4.74-8.52-8.14-14.05-6.98c2.51,3.63,2.83,7.2,4.54,11.01c-2.86-2.71-6.66-3.99-9.6-6.55c-2.23-1.94-3.1-3.68-6.62-3.27c0.57,1.39,2.3,4.04,3.61,5.07c-2.46,2.07-4.35-0.22-5.93-2.02c-3.1-3.53-3.33-4.41-8.35-5.03c-2.5-0.31-5.13,0.09-7.57-0.76c3.57,1.13,8.39,3.58,10.97,6.5c-4.69,2.4-11.98-5.09-16.18-6.7c1.77,2.46,5.06,4.2,6.15,7.08c-4.91,1.29-9.51-3.62-13.04-5.65c1.78,3.23,4.76,5.74,7.28,8.31c-4.04,1.47-8.53-2.76-11.85-4.55c0.15,1.8,1.3,3.45,2.03,5.17c-3.37-0.38-6.33-2.13-9.71-2.24c0.99,1.05,1.86,2.17,2.8,3.28c-1,0.45-2.26,0.27-3.26-0.4c0.43,0.79,3.03,3.88,2.12,5.03c-0.91,1.15-2.22,0.48-3.11-0.66c0.66,1.44,1.76,3.05,2.84,4.28c-1.67-0.02-2.4-1.05-3.04-2.62"/></g><g class="nose nose-15"><path fill="#c69672" d="M186.01,198.89c-0.17,1.53-0.26,3.95-0.49,5.46c-0.58,3.86,0.9,6.29,0.88,10.24 c-0.02,6.65,6.48,12.91,4.38,19.46c-5.2-0.71-6.56-12.33-6.95-16.23c-0.33-3.31-1.14-7.11-1.01-10.49 c0.11-2.91,1.43-6.24,2.54-9.75C185.35,197.6,186.24,196.78,186.01,198.89z"/><path fill="#9e6e4a" d="M162.17,241.5c0.86-0.05,1.63-0.8,2.5-1c0.96-0.21,2.22-0.3,3.16-0.35c1.33-0.07,5.76-0.36,5.31,1.98c-2.57,1.64-8.25-0.13-11.25-0.14c0.44,0.08,0.45-0.19,0.78-0.33"/><path fill="#9e6e4a" d="M195.83,242c-1.02,0-6.01-0.88-6.87,0.12c-1.02,1.17,2.31,1.33,3.06,1.43c1.56,0.2,3.13,0.04,4.65,0.41c1.35,0.33,2.43,0.58,3.96,0.53c0.4-3.37-5.52-3.03-7.31-2.32"/><path fill="none" stroke="#c1916d" stroke-miterlimit="10" d="M162.5,226.5c0.12,1.2-1.28,2.12-2.04,2.96c-0.77,0.85-1.35,1.73-1.79,2.87c-0.83,2.17-2.77,5.81-1.64,8.17c1.19,2.5,5.32,3.73,7.97,4c3.16,0.32,6.55-0.01,9.67-0.17c3.06-0.16,5.43,0.99,8.5,1c1.58,0,2.6-0.56,4-0.83c1.6-0.3,3.35-0.19,5-0.17c3.63,0.03,7.74,1.44,10.83-0.33c2.71-1.54,5.23-3.76,3.83-7.04c-0.87-2.04-2.67-4.92-4.67-6.13"/></g><g class="mouth mouth-15"><path fill="#bc8c68" fill-opacity="1" d="M155.17,269.83c2.28,0.77,3.62,5.06,5.54,6.67c2.81,2.35,6.46,4.04,10.09,4.71c6.54,1.21,13.64-0.47,20.2,0.96c7.75,1.68,15.34-5.75,16.98-12.63c-2.1-0.07-4.06-0.37-6.13-0.87c-3.28-0.79-6.47-0.27-9.82-0.17c-2.67,0.08-5.21,0.97-7.89,1.17c-2.64,0.19-5.33,0.25-7.99,0.33c-1.85,0.06-3.47-0.67-5.16-0.99c-1.93-0.37-3.73,0-5.61,0.17c-2,0.18-4.03-0.1-6.02,0.16c-1.21,0.16-2.34,0.75-3.54,0.83"/><path fill="#c69672" d="M154.83,270c1.32-1.31,3.81-2.26,5.37-3.29c1.13-0.75,2.22-1.45,3.61-1.84c2.71-0.75,5.81-1.18,8.54-1.71c2.58-0.5,5.99-1.4,8.37,0.01c1.12,0.67,1.9,1.69,3.28,1.83c2.11,0.21,4.58-1.09,6.73-1.34c2.03-0.24,3.7,0.7,5.72,0.96c2.05,0.26,3.68,0.66,5.63,1.34c2.09,0.73,5.17,1.95,6.9,3.41c-1.88,3.29-6.43,3.83-10.01,3.8c-3.57-0.04-6.77-1.62-10.29-1.34c-2.32,0.19-4.22,1.15-6.54,1.17c-3.19,0.03-6.37-0.02-9.52-0.33c-3.2-0.32-6.42-0.68-9.91-0.67c-1.53,0-3.68-0.21-5.05-0.83c-1-0.46-1.51-1.04-2.67-1.17"/></g></svg>