<svg id="s56e8470a3c603" class="face" xmlns="http://www.w3.org/2000/svg" xmlns:xlink="http://www.w3.org/1999/xlink" x="0px" y="0px" width="357px" height="358px" viewBox="0 0 357 358"><path fill="#784e36" d="M268.5,189.04c-1.41-1.92-2.86-2.74-4.22-2.91c-3.96-0.47-7.28,4.62-7.28,4.62c2.38-21.04,0-32.96,0-32.96c-16.83-65.56-65.84-69.37-76.8-69.39c-0.71,0.02-1.44,0.04-2.2,0.06c-54,1.42-71.5,44.58-71.5,44.58c-9,12.5-4,61.55-4,61.55c-21-12.95-1.5,45.45-1.5,45.45c5,13.5,8,1,8,1c2.88,12.67,6.63,23.41,10.9,32.53c0.85,44.99,1.74,68.73,1.44,83.43c23.33,0,116.79,0,123.83,0l1.52-85.32c6.58-17.33,7.31-32.14,7.31-32.14c2.5,3,6.5,1.5,6.5,1.5C272.75,234.79,268.5,189.04,268.5,189.04z M255.96,199.92C255.93,200.18,255.94,200.15,255.96,199.92L255.96,199.92z M256.22,197.67c0.03-0.3,0.07-0.64,0.11-1.01C256.29,197.01,256.25,197.35,256.22,197.67z M256.82,192.32c0.06-0.55,0.11-0.99,0.14-1.26C256.91,191.5,256.87,191.92,256.82,192.32z M265.33,190.26c-0.04-0.16-0.09-0.37-0.16-0.62c-0.13-0.5-0.31-1.2-0.54-2.1c0.22,0.86,0.4,1.58,0.54,2.1C265.24,189.9,265.29,190.1,265.33,190.26C265.47,190.79,265.48,190.83,265.33,190.26z"/><path fill="#734931" d="M125.25,227.25c4.5-6.5,6.97-8.84,12.65-10c4.87-0.99,13.28-2.45,17.35-5.75c9.63-7.79,13.17-20.35,5.59-28.43c-4.32-4.6-7.03-7.3-13.05-8.81c-4.83-1.22-11.04-2.16-15.05-6.1c-7.84-7.69-11.29-20.73-10.82-31.2c0.41-8.95,9.17-18.79,15.15-24.83c7.04-7.12,15.71-14.12,23.72-20.42c-40.38,8.84-54.04,42.51-54.04,42.51c-9,12.5-4,61.55-4,61.55c-21-12.95-1.5,45.45-1.5,45.45c5,13.5,8,1,8,1c2.89,12.7,6.64,23.46,10.93,32.59c-0.78,38.87,1.32,70.54,1.15,83.21c7.79,0.1,53.6-30.51,61.45-32.32C179.16,318.81,113.75,264.75,125.25,227.25z"/><g class="eyes eyes-17"><path fill="#ffffff" fill-opacity="0.7" d="M157.243,198.587c-1.524-1.36-4.262-2.417-6.339-2.587c-0.832-0.068-1.68-0.071-2.529-0.057c0.356,0.245,0.694,0.548,1.028,0.931c0.869,0.995,2.476,2.215,2.722,3.528c0.486,2.597-2.42,5.352-4.6,6.229c-2.99,1.203-5.94,0.13-8.053-2.153c-2.213-2.393-2.299-4.442-1.274-7.112c-2.103,0.491-4.044,1.064-4.813,1.637c-1.419,1.057-2.36,2.351-3.754,3.358c0.351,0.998,4.133,3.899,4.935,4.507c1.587,1.202,3.986,2.07,5.926,2.387c3.356,0.549,6.377,0.334,9.231-1.509c2.503-1.617,4.958-3.615,7.036-5.741c0.242-0.248,1.564-1.545,1.596-1.656C158.552,199.651,157.81,199.093,157.243,198.587z"/><path fill="#483224" d="M139.472,204.479c2.112,2.283,5.063,3.355,8.053,2.153c2.18-0.876,5.085-3.632,4.6-6.229c-0.246-1.313-1.853-2.534-2.722-3.528c-0.334-0.383-0.672-0.686-1.028-0.931c-0.996,0.016-1.993,0.056-2.972,0.056c0,0-3.813,0.575-7.205,1.367C137.173,200.037,137.259,202.086,139.472,204.479z"/><path fill="#ffffff" fill-opacity="0.7" d="M224.75,197.75c-0.927-0.4-1.801-0.626-2.75-1c-0.203-0.08-0.401-0.148-0.597-0.209c0.012,0.45-0.072,0.934-0.156,1.555c-0.24,1.773-0.452,3.541-1.747,4.91c-2.318,2.45-6.213,3.793-9.507,2.619c-2.027-0.723-2.863-2.054-3.765-3.946c-0.666-1.397-1.591-3.14-1.116-4.733c0.106-0.357,0.292-0.674,0.502-0.979c-2.416,0.614-4.808,1.012-5.734,3.622c3.074,1.949,5.593,4.743,8.783,6.511c2.688,1.49,6.017,2.545,9.126,2.526c4.683-0.029,9.687-2.835,12.206-6.848C228.931,200.548,226.251,198.398,224.75,197.75z"/><path fill="#483224" d="M206.229,201.679c0.901,1.892,1.737,3.223,3.765,3.946c3.294,1.174,7.188-0.169,9.507-2.619c1.295-1.369,1.507-3.136,1.747-4.91c0.084-0.621,0.168-1.105,0.156-1.555c-1.315-0.407-2.495-0.412-3.996-0.553c-1.943-0.183-3.734-0.976-5.657-0.988c-1.307-0.009-2.126,0.348-3.375,0.125V195c-0.866,0.453-1.815,0.726-2.761,0.966c-0.21,0.305-0.396,0.622-0.502,0.979C204.638,198.539,205.563,200.281,206.229,201.679z"/></g><g class="eyebrows eyebrows-6"><path fill="#0e0e0c" fill-opacity="0.4" d="M119.33,195c0.74-3.9,2.84-7.79,6-10.18c1.94-1.47,4.57-2.44,6.57-3.65c2.44-1.48,4.96-1.74,7.4-0.16c4.14,2.67,8.63-0.43,12.74,1.1c2.92,1.09,6.48,3.07,8.12,5.88c0.84,1.43,0.37,3.01-1.6,3.02c-2.48,0.02-4.47-1.71-6.74-2.02c-4.44-0.61-9.01-0.13-13.47-0.5c-1.99-0.16-4.54-0.52-6.54-0.17c-1.63,0.28-2.55,1.52-3.95,2.38c-3.14,1.93-7.13,2.6-9.56,5.4c0.3-0.57,0.74-0.88,1.36-0.94"/><path fill="#0e0e0c" fill-opacity="0.4" d="M200.83,188c0.67-2.73,4.53-5.59,6.93-6.83c3.15-1.63,7.54-1.51,11.04-1.34c3.83,0.19,6.89-1.51,10.83-0.29c2.02,0.62,3.93,0.96,6.21,0.96c2.66,0,2.83,0.67,4.53,2.33c1.18,1.15,2.95,2.21,3.77,3.67c0.84,1.48,1.6,3.19,2.36,4.67c0.5,0.98,0.38,1.78,0.61,2.79c-0.66-0.6-1.35-1.29-2.11-1.79c-1.99-1.32-3.83-0.68-6-1.17c-1.49-0.34-2.32-1.59-3.67-2.16c-3.62-1.54-7.45-2.03-11.34-2.17c-4.61-0.17-9.03-2.32-13.2,0.62c-1.62,1.14-2.29,1.18-4.13,1.54c-1.7,0.33-2.86,1.66-4.67,0.67c-1.08-0.59-1.82-1.98-0.83-3.17"/></g><g class="chin chin-3"><path display="inline" fill="none" stroke="#734931" stroke-miterlimit="10" d="M146,307.81c0.75,6.13,12.54,13.32,17.49,16.01 c9.1,4.96,16.08,8.62,27.54,7.48c7.87-0.78,14.58-6.13,20.61-11.37c5.46-4.74,12.03-10.71,16.36-16.63"/></g><g class="hair hair-12"><linearGradient id="hair_56e8470a3d589" gradientUnits="userSpaceOnUse" x1="179.4448" y1="197.3671" x2="179.3803" y2="129.8187"><stop offset="0.3656" style="stop-color:#0e0e0c;stop-opacity:0"/><stop offset="0.8607" style="stop-color:#0e0e0c"/></linearGradient><path fill="url(#hair_56e8470a3d589)" d="M257.1,158.8c-7.5-29.1-25.2-55.8-54.7-65.6c-22.2-7.4-47.8-3.6-67.5,8.9c-13.4,8.6-27.4,23.5-31.4,39.6c-5.7,23.1-4.3,53.1,7,74.1c-0.3-5.8-0.4-11.7-0.4-17.5c0-6.7-1.9-19.4,2.1-25.2c7.9-11.4-1.8-30.3,6.6-41.9c0.3-4.9,10.7-6.3,14.3-7.3c7.5-2.1,15.3-2.3,23-2.3c13.6-0.1,27.2-1.8,40.9-1c10.1,0.2,27.2-1.2,35.6,6.3c8.9,7.8,11.2,17.4,11.5,29c0.3,15,6.9,28.3,9.1,42.9C259.8,187.1,259.4,172,257.1,158.8z"/></g><g class="facial-hair facial-hair-2002"><path fill="#0e0e0c" fill-opacity="1" d="M153,264c18.3-4.6,41.6-4.9,59.8,0c0-1-1.2-1-1.2-2C205.7,255.8,150.6,254,153,264z"/></g><g class="nose nose-23"><path fill="#6e442c" d="M186.01,198.89c-0.17,1.53-0.26,3.95-0.49,5.46c-0.58,3.86,0.9,6.29,0.88,10.24 c-0.02,6.65,6.48,12.91,4.38,19.46c-5.2-0.71-6.56-12.33-6.95-16.23c-0.33-3.31-1.14-7.11-1.01-10.49 c0.11-2.91,1.43-6.24,2.54-9.75C185.35,197.6,186.24,196.78,186.01,198.89z"/><path fill="#461c04" d="M158.7,246.6c3.3-0.7,7.9-0.4,10.5,2c-2.2,0.6-3.3-0.2-5.4-0.8c-1.7-0.5-3.1-0.6-4.9-0.7c-0.1-0.2,0-0.3-0.1-0.4c0.1-0.1,0.3,0,0.5-0.1"/><path fill="#461c04" d="M196,246.8c0.7-0.2,1.1-0.9,1.8-1.2c0.8-0.4,1.5-0.2,2.3-0.3c1.3-0.1,2.6-0.2,4-0.1c0.2,1.4-6.5,2.4-7.8,1.8"/><path fill="none" stroke="#693f27" stroke-miterlimit="10" d="M154.7,232c-0.9,1-1.6,2.3-2.4,3.4c-0.8,1.1-2.1,2.4-2.6,3.6c-0.5,1.4,0.3,2.6,1,3.8c1.8,2.9,4.8,5.5,8.2,6.2c3.4,0.6,6.5,0.7,9.9,0.5c4.3-0.2,7.4,2.6,11.6,2.8c3.9,0.2,6.2-2.7,9.9-3c1.9-0.1,3.9,0.2,5.8,0c1.7-0.2,3.1-0.9,4.9-0.8c2.6,0.1,5.1,0.6,7.4-0.5c2.2-1.1,3.9-3.1,3.9-5.6c0-4.4-3.5-7-6.8-9.3c-1.3-0.9-2.3-1.7-3.5-2.7"/></g><g class="mouth mouth-19"><path fill="#643a22" fill-opacity="1" d="M151.5,271c0.77,0.17,1.29,0.83,1.89,1.26c1.15,0.84,2.64,1.12,4.06,1.48c1.87,0.48,3.62,1.29,5.51,1.71c1.96,0.44,3.53,1.21,5.4,1.81c4.54,1.47,9.65,0.79,14.42,0.97c0.98,0.04,2.02,0.35,2.98,0.25c0.91-0.1,1.64-0.63,2.49-0.88c1-0.29,2.02-0.17,3.03-0.38c1.08-0.22,2.18-0.67,3.27-1.02c3.49-1.14,6.97-2.53,10.2-4.06c1.47-0.7,2.58-1.79,3.94-2.54c-3.5,0.88-7.71-0.12-11.31-0.12c-3.33,0-6.64-0.8-10.01-0.5c-1.62,0.15-2.39,0.86-3.87,1.48c-1.13,0.47-2.8,0.32-4.03,0.27c-4.11-0.18-8.24-1.13-12.34-0.75c-2.89,0.27-5.48,0.9-8.27,1.15c-1.29,0.12-2.56,0.32-3.88,0.19c-1.19-0.11-2.3-0.63-3.49-0.61c0.01,0.13,0.09,0.25,0.15,0.39"/><path fill="#6e442c" d="M151.63,270.75c1.2-1.41,2.12-2.21,3.97-2.88c1.28-0.46,2.48-0.92,3.61-1.66c0.86-0.56,1.38-1.06,2.46-1.35c3.68-0.96,7.58-2.58,11.48-2.62c0.73-0.01,4.14,0.89,5.46,0.75c1.6-0.17,3.17-0.25,4.81-0.25c3.34,0,6.84,0.59,10.1,1.23c3.11,0.6,10.94,4.84,12.49,5.02c0.77,0.09,1.71,0.04,2.24,0.6c-2.1,1.45-4.24,1.02-6.61,1.4c-1.77,0.29-3.42,0.2-5.19,0.12c-1.92-0.09-4.19-0.51-6.04-0.19c-1.35,0.23-2.72,0.89-4.05,1.26c-3.43,0.94-7.62,1.14-11.13,0.73c-3.42-0.4-6.62-2.15-10.13-1.78c-1.36,0.14-2.69,0.4-3.97,0.65c-1.98,0.39-3.9-0.22-5.85-0.41c-1.24-0.12-2.51-0.08-3.77-0.14c0.09-0.3,0.33-0.45,0.62-0.61"/></g></svg>