<svg id="s5c3d009487396" class="face" xmlns="http://www.w3.org/2000/svg" xmlns:xlink="http://www.w3.org/1999/xlink" x="0px" y="0px" width="357px" height="358px" viewBox="0 0 357 358"><path fill="#dca28a" d="M268.5,189.04c-1.41-1.92-2.86-2.74-4.22-2.91c-3.96-0.47-7.28,4.62-7.28,4.62c2.38-21.04,0-32.96,0-32.96c-16.83-65.56-65.84-69.37-76.8-69.39c-0.71,0.02-1.44,0.04-2.2,0.06c-54,1.42-71.5,44.58-71.5,44.58c-9,12.5-4,61.55-4,61.55c-21-12.95-1.5,45.45-1.5,45.45c5,13.5,8,1,8,1c2.88,12.67,6.63,23.41,10.9,32.53c0.85,44.99,1.74,68.73,1.44,83.43c23.33,0,116.79,0,123.83,0l1.52-85.32c6.58-17.33,7.31-32.14,7.31-32.14c2.5,3,6.5,1.5,6.5,1.5C272.75,234.79,268.5,189.04,268.5,189.04z M255.96,199.92C255.93,200.18,255.94,200.15,255.96,199.92L255.96,199.92z M256.22,197.67c0.03-0.3,0.07-0.64,0.11-1.01C256.29,197.01,256.25,197.35,256.22,197.67z M256.82,192.32c0.06-0.55,0.11-0.99,0.14-1.26C256.91,191.5,256.87,191.92,256.82,192.32z M265.33,190.26c-0.04-0.16-0.09-0.37-0.16-0.62c-0.13-0.5-0.31-1.2-0.54-2.1c0.22,0.86,0.4,1.58,0.54,2.1C265.24,189.9,265.29,190.1,265.33,190.26C265.47,190.79,265.48,190.83,265.33,190.26z"/><path fill="#d79d85" d="M125.25,227.25c4.5-6.5,6.97-8.84,12.65-10c4.87-0.99,13.28-2.45,17.35-5.75c9.63-7.79,13.17-20.35,5.59-28.43c-4.32-4.6-7.03-7.3-13.05-8.81c-4.83-1.22-11.04-2.16-15.05-6.1c-7.84-7.69-11.29-20.73-10.82-31.2c0.41-8.95,9.17-18.79,15.15-24.83c7.04-7.12,15.71-14.12,23.72-20.42c-40.38,8.84-54.04,42.51-54.04,42.51c-9,12.5-4,61.55-4,61.55c-21-12.95-1.5,45.45-1.5,45.45c5,13.5,8,1,8,1c2.89,12.7,6.64,23.46,10.93,32.59c-0.78,38.87,1.32,70.54,1.15,83.21c7.79,0.1,53.6-30.51,61.45-32.32C179.16,318.81,113.75,264.75,125.25,227.25z"/><g class="eyes eyes-20"><path fill="#ffffff" fill-opacity="0.7"  d="M151.38,202.48c-1.86-0.55-3.57-0.68-5.43-0.89c0.87,1.15,1.39,2.57,1.39,4.12c0,3.8-3.1,6.88-6.92,6.88c-3.82,0-6.92-3.08-6.92-6.88c0-0.67,0.1-1.31,0.28-1.92c-0.39,0.2-0.77,0.42-1.14,0.72c-0.67,0.53-1.68,1.24-2.39,1.75c-0.78,0.56-1.36,0.98-1.83,1.83l0.25-0.25c-0.16,0.52-0.65,0.65-0.4,1.23c0.08,0.18,0.81,0.71,1,0.85c1.02,0.74,2.21,1.37,3.32,1.98c0.78,0.44,1.76,0.57,2.58,0.85c1.38,0.47,2.61,0.98,4.11,1c1.43,0.03,2.91-0.3,4.34-0.42c1.44-0.12,2.77-0.4,4.06-0.98c1.75-0.79,3.21-1.39,4.66-2.44c1.14-0.83,2.17-1.67,3.33-2.42c0.96-0.61,2.05-1.55,2.83-2.31C156.24,204.14,153.82,203.2,151.38,202.48z"/><path fill="#15313d" d="M140.42,212.58c3.82,0,6.92-3.08,6.92-6.88c0-1.55-0.52-2.97-1.39-4.12c-0.33-0.04-0.66-0.07-1-0.12c-1.31-0.17-2.57-0.3-3.88-0.14c-1.77,0.21-3.3,1.04-4.98,1.57c-0.82,0.26-1.58,0.51-2.31,0.88c-0.18,0.61-0.28,1.25-0.28,1.92C133.5,209.51,136.6,212.58,140.42,212.58z"/></g><g><path fill="#ffffff" fill-opacity="0.7"  d="M227,205.23c-1.46-1.13-3.14-2.19-4.87-2.79c0.24,0.67,0.37,1.39,0.37,2.14c0,3.54-2.87,6.42-6.42,6.42c-3.54,0-6.42-2.87-6.42-6.42c0-1.21,0.34-2.35,0.93-3.31c-1.25,0.15-2.5,0.35-3.6,0.9c-1.37,0.68-4.04,1.02-4.33,2.75h-0.08c-0.03,1.13,3.05,2.71,3.92,3.17c1.47,0.78,2.38,1.47,4,2.01c2.65,0.9,5.43,1.79,8.25,1.82c2.12,0.02,4.23,0.03,6.01-1.23c1.57-1.11,3.64-2.44,4.89-3.9C228.79,206.32,227.79,205.84,227,205.23z"/><path fill="#15313d" d="M216.08,211c3.54,0,6.42-2.87,6.42-6.42c0-0.75-0.14-1.47-0.37-2.14c-0.2-0.07-0.4-0.14-0.61-0.19c-1.49-0.41-2.59-1.08-4.1-1.25c-1.37-0.15-3.26-0.2-4.6,0c-0.72,0.11-1.47,0.18-2.22,0.27c-0.59,0.97-0.93,2.1-0.93,3.31C209.67,208.13,212.54,211,216.08,211z"/></g><g class="eyebrows eyebrows-6"><path fill="#845b3b" fill-opacity="0.7" d="M119.33,195c0.74-3.9,2.84-7.79,6-10.18c1.94-1.47,4.57-2.44,6.57-3.65c2.44-1.48,4.96-1.74,7.4-0.16c4.14,2.67,8.63-0.43,12.74,1.1c2.92,1.09,6.48,3.07,8.12,5.88c0.84,1.43,0.37,3.01-1.6,3.02c-2.48,0.02-4.47-1.71-6.74-2.02c-4.44-0.61-9.01-0.13-13.47-0.5c-1.99-0.16-4.54-0.52-6.54-0.17c-1.63,0.28-2.55,1.52-3.95,2.38c-3.14,1.93-7.13,2.6-9.56,5.4c0.3-0.57,0.74-0.88,1.36-0.94"/><path fill="#845b3b" fill-opacity="0.7" d="M200.83,188c0.67-2.73,4.53-5.59,6.93-6.83c3.15-1.63,7.54-1.51,11.04-1.34c3.83,0.19,6.89-1.51,10.83-0.29c2.02,0.62,3.93,0.96,6.21,0.96c2.66,0,2.83,0.67,4.53,2.33c1.18,1.15,2.95,2.21,3.77,3.67c0.84,1.48,1.6,3.19,2.36,4.67c0.5,0.98,0.38,1.78,0.61,2.79c-0.66-0.6-1.35-1.29-2.11-1.79c-1.99-1.32-3.83-0.68-6-1.17c-1.49-0.34-2.32-1.59-3.67-2.16c-3.62-1.54-7.45-2.03-11.34-2.17c-4.61-0.17-9.03-2.32-13.2,0.62c-1.62,1.14-2.29,1.18-4.13,1.54c-1.7,0.33-2.86,1.66-4.67,0.67c-1.08-0.59-1.82-1.98-0.83-3.17"/></g><g class="chin chin-17"><path fill="none" stroke="#d79d85" stroke-miterlimit="10" d="M143.3,308.7c2.9,0.4,6,5.3,8.4,7c2.9,2.1,5.9,2.6,9,3.7 c5.7,2,11.3,3.6,17.4,3.9c3.4,0.2,5.8-0.8,9-0.9c3.8-0.1,6.5,0.9,10.1-0.3c7.5-2.4,14.8-3.1,19.8-10.2c0.4-0.5,0.8-1,1.1-1.6"/></g><g class="hair hair-3017"><path fill="#845b3b" d="M261.3,165c-0.5-1.9-0.6-3.9-0.6-5.9c-0.6-2-1-3.9-1.4-5.9c-0.8-4-1.4-7.6-3.2-11.3c-1.3-2.7-2.4-5.4-3.5-8.2c-3.4-8.2-6.5-17.2-12.2-24c-4.8-5.7-9.8-10.6-16.1-14.7c-6.1-3.9-12.6-7-19.3-9.8c-3.4-1.4-6.7-2.9-10.3-3.2c-4.5-0.4-9,0.1-13.5,0.5c-8.5,0.7-17.3-0.6-25.4,3.1c-5.7,2.6-11.3,5.2-17,7.7c-2.1,0.9-4.6,1.6-6.2,3.2c-2.7,2.7-5.4,5.4-8.1,8.1c-4.4,4.4-8.4,8.8-12.3,13.6c-1.1,1.4-2.3,2.9-3.4,4.3c-1.6,1.9-1.8,4.9-2.7,7.2c-1.2,3.2-3.3,5.6-3.6,9.1c-0.2,1.9-0.3,3.6-1.1,5.3c-0.8,1.8-0.5,4.5-0.7,6.5c-0.6,5.3-1.8,10.5-2.3,15.8c-0.5,5.2,0.7,10.7,1.5,15.9c0.4,2.8,0.8,5.6,1.2,8.4c0.2,1.4,1.7,3,2.5,4.2c0-2.1,0.9-4.2,0.8-6.2c-0.1-1.3-0.1-2.6,0.2-3.9c0.4-1.5,0.4-3.1,0.5-4.7c0.3-4.8,0.4-9.6,0.7-14.3c0.3-5.3,1.8-10.3,2.9-15.5c1.9-9.2,3.5-18.7,6.7-27.6c2.7-7.5,10.6-11.7,16.8-16.1c3.6-2.5,7.3-5.1,11-7.4c3.4-2.1,7.4-0.1,11.1,0.9c3.7,1.1,7.2-0.4,10.7-1.9c2.9-1.2,7.5-4.1,10.5-1.9c1.1,0.8,1.7,2,2,3.3c0.3,1.9,3.2-0.3,4.2-0.8c3.6-1.9,7.1-2.2,8.9,2.2c0.3,0.7,3.6,0.1,4.6,0.2c1.5-0.9,3.1-1.7,4.8-2.2c1.5-0.4,3.1-0.5,4.6,0.3c0.7,0.4,1.2,0.9,1.7,1.5c1.1,1.5,0.7,1.3,2.6,1c1.9-0.3,3.8-0.2,5.6,0.4c1.5,0.5,2.4-0.4,3.9-0.5c1.3-0.1,3.5,3,4.3,3.8c2.1,2.2,4.3,4.5,6.7,6.4c2.2,1.9,4.5,3.4,6.5,5.6c3,3.4,5.6,7.2,7.9,11.1c6.9,11.6,11.3,24.3,12.7,37.8c0.5,5.4,0.6,10.8,0.3,16.2c-0.1,1.4-0.2,2.8-0.4,4.3c0.2,1.4,0.2,2.8,0.1,4.2c-0.1,1.3-0.4,2.7-0.5,4.1c0.1,0.2,0.3,0.4,0.4,0.5c1.5-2.5,3-5.2,3.8-8c0.4-1.6-0.1-3.5-0.1-5.2C259.9,176.6,260.7,170.8,261.3,165z"/></g><g class="nose nose-8"><path fill="#d29880" d="M186.01,198.89c-0.17,1.53-0.26,3.95-0.49,5.46c-0.58,3.86,0.9,6.29,0.88,10.24 c-0.02,6.65,6.48,12.91,4.38,19.46c-5.2-0.71-6.56-12.33-6.95-16.23c-0.33-3.31-1.14-7.11-1.01-10.49 c0.11-2.91,1.43-6.24,2.54-9.75C185.35,197.6,186.24,196.78,186.01,198.89z"/><path fill="#aa7058" d="M161.25,240.25c2.63-2.83,4.53-2.89,7.5-0.94c1.32,0.87,5.69,2.64,5.03,4.44c-1.12,3.04-7.16,0.55-8.78,0c-0.94-0.32-6.45-2.02-3.5-3.75"/><path fill="#aa7058" d="M188.25,239.25c2.48-1.05,3.94-2.43,6.69-1.44c1.84,0.66,5.71,2.67,4.3,4.49c-2.64,3.41-14.05,0.07-10.49-3.3"/><path fill="none" stroke="#cd937b" stroke-miterlimit="10" d="M159.25,226.25c-2.79,0.32-6.4,3.88-8.2,6.05c-2.02,2.44-2.68,5.1-1.12,8.02c1.54,2.87,3.68,5.12,6.57,6.63c2.66,1.39,6.91,0.25,9,1.81"/><path fill="none" stroke="#cd937b" stroke-miterlimit="10" d="M174.25,247.25c1.6-0.23,2.64,1.12,4.18,1.5c3.76,0.94,5.48-1.55,8.86-1.93c2.22-0.25,4.24,1.13,6.41,1.41c6.13,0.79,12.03-3.1,13.8-8.98c1.31-4.33-1.4-5.91-4.76-8.49c-2.09-1.61-4.13-2.11-6.49-3.19c-2.23-1.03-4.25-6.06-5.76-6.32"/></g><g class="mouth mouth-15"><path fill="#c88e76" fill-opacity="1" d="M155.17,269.83c2.28,0.77,3.62,5.06,5.54,6.67c2.81,2.35,6.46,4.04,10.09,4.71c6.54,1.21,13.64-0.47,20.2,0.96c7.75,1.68,15.34-5.75,16.98-12.63c-2.1-0.07-4.06-0.37-6.13-0.87c-3.28-0.79-6.47-0.27-9.82-0.17c-2.67,0.08-5.21,0.97-7.89,1.17c-2.64,0.19-5.33,0.25-7.99,0.33c-1.85,0.06-3.47-0.67-5.16-0.99c-1.93-0.37-3.73,0-5.61,0.17c-2,0.18-4.03-0.1-6.02,0.16c-1.21,0.16-2.34,0.75-3.54,0.83"/><path fill="#d29880" d="M154.83,270c1.32-1.31,3.81-2.26,5.37-3.29c1.13-0.75,2.22-1.45,3.61-1.84c2.71-0.75,5.81-1.18,8.54-1.71c2.58-0.5,5.99-1.4,8.37,0.01c1.12,0.67,1.9,1.69,3.28,1.83c2.11,0.21,4.58-1.09,6.73-1.34c2.03-0.24,3.7,0.7,5.72,0.96c2.05,0.26,3.68,0.66,5.63,1.34c2.09,0.73,5.17,1.95,6.9,3.41c-1.88,3.29-6.43,3.83-10.01,3.8c-3.57-0.04-6.77-1.62-10.29-1.34c-2.32,0.19-4.22,1.15-6.54,1.17c-3.19,0.03-6.37-0.02-9.52-0.33c-3.2-0.32-6.42-0.68-9.91-0.67c-1.53,0-3.68-0.21-5.05-0.83c-1-0.46-1.51-1.04-2.67-1.17"/></g></svg>