<svg id="s56e8470178119" class="face" xmlns="http://www.w3.org/2000/svg" xmlns:xlink="http://www.w3.org/1999/xlink" x="0px" y="0px" width="357px" height="358px" viewBox="0 0 357 358"><path fill="#482c21" d="M268.5,189.04c-1.41-1.92-2.86-2.74-4.22-2.91c-3.96-0.47-7.28,4.62-7.28,4.62c2.38-21.04,0-32.96,0-32.96c-16.83-65.56-65.84-69.37-76.8-69.39c-0.71,0.02-1.44,0.04-2.2,0.06c-54,1.42-71.5,44.58-71.5,44.58c-9,12.5-4,61.55-4,61.55c-21-12.95-1.5,45.45-1.5,45.45c5,13.5,8,1,8,1c2.88,12.67,6.63,23.41,10.9,32.53c0.85,44.99,1.74,68.73,1.44,83.43c23.33,0,116.79,0,123.83,0l1.52-85.32c6.58-17.33,7.31-32.14,7.31-32.14c2.5,3,6.5,1.5,6.5,1.5C272.75,234.79,268.5,189.04,268.5,189.04z M255.96,199.92C255.93,200.18,255.94,200.15,255.96,199.92L255.96,199.92z M256.22,197.67c0.03-0.3,0.07-0.64,0.11-1.01C256.29,197.01,256.25,197.35,256.22,197.67z M256.82,192.32c0.06-0.55,0.11-0.99,0.14-1.26C256.91,191.5,256.87,191.92,256.82,192.32z M265.33,190.26c-0.04-0.16-0.09-0.37-0.16-0.62c-0.13-0.5-0.31-1.2-0.54-2.1c0.22,0.86,0.4,1.58,0.54,2.1C265.24,189.9,265.29,190.1,265.33,190.26C265.47,190.79,265.48,190.83,265.33,190.26z"/><path fill="#43271c" d="M125.25,227.25c4.5-6.5,6.97-8.84,12.65-10c4.87-0.99,13.28-2.45,17.35-5.75c9.63-7.79,13.17-20.35,5.59-28.43c-4.32-4.6-7.03-7.3-13.05-8.81c-4.83-1.22-11.04-2.16-15.05-6.1c-7.84-7.69-11.29-20.73-10.82-31.2c0.41-8.95,9.17-18.79,15.15-24.83c7.04-7.12,15.71-14.12,23.72-20.42c-40.38,8.84-54.04,42.51-54.04,42.51c-9,12.5-4,61.55-4,61.55c-21-12.95-1.5,45.45-1.5,45.45c5,13.5,8,1,8,1c2.89,12.7,6.64,23.46,10.93,32.59c-0.78,38.87,1.32,70.54,1.15,83.21c7.79,0.1,53.6-30.51,61.45-32.32C179.16,318.81,113.75,264.75,125.25,227.25z"/><g class="eyes eyes-5"><path fill="#ffffff" fill-opacity="0.7" d="M135.75,201.5c-1.72,0.07-3.66,2.14-4.47,3.45c3.15,0.53,5.6-0.64,8.67,0.86c2.25,1.11,4.17,1.78,7.05,1.94c5.49,0.3,10.45-1.49,15.73-1.79c-2.69-4.57-8.53-6.93-13.48-7.21C145.09,198.51,137.96,197.42,135.75,201.5"/><path fill="#ffffff" fill-opacity="0.7" d="M201.34,205.04c2.89-1.3,3.77-2.92,6.9-3.8c2.42-0.68,6.6-1.72,9.21-1.18c4.91,1.02,10.58,5.93,14.47,9.21c-2.99-0.07-5.62-0.73-8.34,0.27c-2.89,1.07-5.39,0.46-8.74,0.46c-3.16,0-5.29-1.17-8-2.22c-2.25-0.87-5.17,0.4-7.08-1.28"/><path fill="#4f2a1a" d="M209.75,201.75c-2.03,3.49,0.87,6.17,4,6.44c2.37,0.2,7.99,1.38,9.32-0.94c2.08-3.6-2.84-5.28-5.27-6.07c-3.14-1.02-5.62-1.69-8.06,1.06"/><path fill="#4f2a1a" d="M141,199.25c-3.15,0.45-2.06,5.23-0.01,6.56c2.14,1.39,6.63,1.67,9.01,0.76c3.89-1.5,3.21-4.74,0.01-6.31c-2.92-1.44-5.92-1.25-9.25-1.25"/></g><g class="eyebrows eyebrows-8"><path fill="#141615" fill-opacity="0.7" d="M117.11,181.74c3.68-2.79,4.84-7.13,9.1-9.39c4.44-2.35,10.33-1.92,14.9-0.72c5.35,1.4,5.77,4.63,9.6,8.01c3.06,2.7,6.94,4.66,10.23,7.24c-4.69,3.2-16.11-7.27-21.82-8.15c-8.78-1.34-13.18,5.82-21.92,5.44c-0.09-0.85-0.28-2.07-0.08-2.92"/><path fill="#141615" fill-opacity="0.7" d="M198.11,184.24c11.1-4.78,31.28-20.26,39.9-3c0.96,1.92,4.57,7.27,2.61,8.54c-2.07,1.34-6.75-3.96-8.51-5.04c-6.37-3.91-15.53-1.52-21.64,0.39c-2.89,0.9-12.37,4.73-12.8-0.81c1.17-0.08,2.77-0.34,3.94-0.08"/></g><g class="hair hair-10"><path fill="#141615" fill-opacity="0.9" d="M257.1,191.8c2.4-21,0-33,0-33c-16.8-65.6-65.8-69.4-76.8-69.4c-0.7,0-1.4,0-2.2,0.1 c-20.3,0.5-35.4,6.9-46.4,14.8c-7.4,6.1-14.8,14.1-22.2,24.2c-2,3.4-2.9,5.6-2.9,5.6c-9,12.5-4,61.5-4,61.5 c0.3,1.4,0.5,1.7,0.5,1.9c0,0,0.9,5.9,3,14.9c0,0,3.1-28.8,10.5-36.7c0,0,11.6-4.7,11.9-18.4c0,0-1.7-19.4,0.7-23.8c0,0,58.2-29.9,103.8,3.6c0,0,5.8,24.5,13.3,38.5c0,0,1.4,1.1,2.4,8.6c0,0,1.4,24.1,2.7,29.9l3.1-13L257.1,191.8z M256.9,193.3 c0.1-0.5,0.1-1,0.1-1.3C257,192.5,257,192.9,256.9,193.3z"/></g><g class="facial-hair facial-hair-3"><path fill="#141615" fill-opacity="1" d="M142.38,259.38c-0.73,1.59-2,0.14-2.38,2.03c-0.19,0.94-0.18,1.95-0.4,2.83c-0.22,0.88-0.73,1.58-0.85,2.5c-0.17,1.2-0.29,3.95,1.28,4.36c1.8,0.47,1.69-3.6,3.35-2.58c0.83-1.05,1.64-2.24,2.98-2.43c0.71-0.1,1.38,0.09,2.07-0.07c1.1-0.25,2.02-1.37,2.88-2.03c0.55,0.23,0.99,0.72,1.32,1.25c1.15-0.35,1.71-1.92,2.66-2.59c0.72-0.52,1.71-0.75,2.59-0.96c1.41-0.35,2.13,0.53,3.36-0.53c0.69-0.6,1.84-2.28,2.77-0.91c1.13-0.76,2.89-2.23,4.32-1.65c1.48,0.6,0.95,1.74,2.56,0.65c0.59-0.4,1.06-0.79,1.13-1.49c1.44,1.05,1.89,0.12,1.99-1.38c0.07-1.07,0.59-2.34,0.38-3.38c-0.43-2.11-1.3-3.23-2.88-4.5c-3.75-0.13-6.21-0.01-8.73,0.25c-1.53,0.16-2.58,1.16-4.02,1.65c-1.69,0.57-2.88,1.01-4.43,2.07c-1.88,1.29-3.96,2.49-5.6,4c-1.05,0.97-1.42,0.96-2.81,0.9C144.93,257.33,143.06,258.92,142.38,259.38"/><path fill="#141615" fill-opacity="1" d="M182.13,251.63c-0.27,1.09-0.23,2.56,0.04,3.62c0.16,0.63,0.5,2.31,0.93,2.76c0.72,0.75,2.31,0.3,3.28,0.37c1.6,0.12,2.39,1.18,4.09,1.25c0.99,0.04,2.16-0.26,3.02,0.26c0.86,0.51,1.02,1.58,1.54,2.32c1.12,1.58,2.36,1.53,4.13,1.91c1.07,0.23,2.45,0.09,3.35,0.63c0.4,0.24,0.62,0.71,0.99,0.97c1.56,1.08,3.28,0.76,4.9,1.47c0.7,0.3,0.73,0.77,1.22,1.31c0.63,0.7,0.88,0.62,1.63,0.87c1.17,0.39,2.01,0.85,2.63-0.63c0.81-1.93-0.91-5.65-1.91-7.44c-0.57-1.01-1.65-1.51-2.48-2.2c-0.87-0.72-1.33-1.83-2.42-2.33c-2.84-1.29-5.6-2.66-8.46-4.12c-1.63-0.83-2.92-1.16-4.74-1.4c-1.6-0.21-3.02-1.25-4.5-0.73c-1.47,0.51-1.36,0.97-2.88,0.25c-0.63-0.29-1.19-0.89-1.91-1c-1.03-0.16-2.55,1.11-2.71,2.35"/><path fill="#141615" fill-opacity="1" d="M170.25,275.5c0.56,1.4,1.7,2.17,1.75,3.75c0.03,0.8-0.76,2.14-1.01,2.99c-0.32,1.09,0.02,1.99-0.66,3.05c-0.87,1.36-2.79,1.4-2.81,3.23c2.33,1.23,3.26,3.67,5.03,5.47c2.08,2.12,2.88,3.08,5.44,2.01c2.01-0.84,3.75-1.85,5.56-2.68c1.89-0.86,4.66-0.52,5.2-3.08c0.19-0.89-0.24-1.98-0.5-2.74c-0.65-1.84-0.64-0.8-1.71-1.99c-1.55-1.74-2.46-3.59-2.54-6.01c-0.08-2.16,1.02-4.47-1.8-4.95c-2.13-0.36-3.48,1.39-5.44,1.7c-1.77,0.28-4.77,0.02-6.26-0.75"/><path fill="#141615" fill-opacity="1" d="M147.5,309.5c2.57-0.73,4.22-4.43,6.69-5.71c2.87-1.48,5.52-1.62,8.69-1.79c2.93-0.15,5.57-1.08,8.41-1.47c2.51-0.34,4.66,0.69,7.09,0.47c2.07-0.19,3.97-1.71,6.11-1.51c1.48,0.14,3.21,1.31,4.53,1.96c2.57,1.25,5.09,2.88,7.73,4.1c2.9,1.34,5.99,2.55,8.64,4.58c2.61,2.01,2.38,3.58,0.61,6.16c-1.28,1.86-2.3,3.56-4.07,5.15c-4.51,4.04-9.19,5.59-15.12,6.5c-5.51,0.84-12.23,1.9-17.59,0.31c-5.27-1.56-11.26-2.95-15-7.31c-1.48-1.73-3.52-3.62-4.56-5.7c-0.69-1.39-1.69-4.43-1.68-6"/></g><g class="nose nose-18"><path fill="#3e2217" d="M186.01,198.89c-0.17,1.53-0.26,3.95-0.49,5.46c-0.58,3.86,0.9,6.29,0.88,10.24 c-0.02,6.65,6.48,12.91,4.38,19.46c-5.2-0.71-6.56-12.33-6.95-16.23c-0.33-3.31-1.14-7.11-1.01-10.49 c0.11-2.91,1.43-6.24,2.54-9.75C185.35,197.6,186.24,196.78,186.01,198.89z"/><path fill="#160000" d="M172,242.83c-2.06,0.37-6.05,2.25-5.47,4.97c1.36,0.29,3.74-1.15,4.97-1.65c1.45-0.59,3.06-1.74,3.15-3.46c-0.99-0.62-2.05-0.31-2.8,0.47"/><path fill="#160000" d="M192,243.83c-1.02-0.46-6.93-1.73-4.51,1.46c1.04,1.36,5.27,1.16,6.87,1.2c-0.52-0.61-1.66-2.17-2.36-3"/><path fill="none" stroke="#391d12" stroke-miterlimit="10" d="M165.99,233.06c-2.27,2.02-4.23,4.18-6.21,6.46c-2.24,2.59-2.98,4.87-1.05,7.82c0.96,1.48,1.55,2.79,3.43,3.01c1.49,0.17,3.03,0.08,4.53,0.03c2.22-0.07,4.08-1.15,6.07-1.4c1.49-0.18,2.87,0.79,4.09,1.3c1.49,0.63,2.86,1.62,4.53,1.53c1.34-0.07,2.67-0.75,3.97-1.02c4.41-0.94,8.73,0.73,13.15-0.09c3.16-0.59,6.12-1.65,5.98-5.27c-0.13-3.29-2.46-5.3-4.49-7.49c-1.9-2.05-4.82-3.87-6.09-6.38c-1.5-2.96-4.11-5.49-4.96-8.72"/></g><g class="mouth mouth-7"><path fill="#B69882" d="M163.09,271.36c-2.17-0.01-5.39,3-4.43,5.36c0.47,1.16,5.74,4.3,7.02,5.05c4.19,2.46,9.32,3.08,14.28,2.62c3.1-0.29,8.26-0.16,11.14-1.29c2.41-0.96,4.23-3.33,6.49-4.65c2.49-1.46,4.98-1.18,4.58-4.42c-0.5-4.14-5.36-4.15-8.75-4.34c-3.95-0.22-6.24-0.02-9.42,1.61c-3.39,1.74-7.68,1.82-11.58,1.08c-2.32-0.44-8.54-4.3-9.67-1.02"/><path fill="#a7696a" fill-opacity="0.9" d="M151.09,277.36c4.58,3.87,8.12,8.16,13.99,10.01c4.74,1.49,9.23,4.06,14.36,4.65c5.48,0.63,11.58-1.46,16.98-2.33c4.74-0.76,9.98-5.08,11.94-9.65c0.61-1.42,0.67-3.5,1.01-4.96c-4.98-2.09-9.18-0.81-13.28,1.97c-4.51,3.05-9.3,2.97-14.67,2.97c-5.63,0-10.14,0.27-15.07-1.92c-4.52-2-10.28-1.87-14.93-0.75"/><path fill="#3e2217" d="M152.75,275.03c4.12-0.8,8.64-8.02,12.35-10.6c4.85-3.38,10.36-4,15.65-1.73c4.26,1.82,9.21,1.25,13.67,2.92c4.77,1.79,8.8,4.37,12.97,7.41c-1.52,2.41-11.31,0.88-14.03,0.6c-5.17-0.52-9.52-0.77-14.6-0.26c-4.95,0.5-10.07-0.58-14.65-0.68c-3.55-0.08-9.14,5.53-12.02,2.68"/></g></svg>