<svg id="s56e8470ba1ed5" class="face" xmlns="http://www.w3.org/2000/svg" xmlns:xlink="http://www.w3.org/1999/xlink" x="0px" y="0px" width="357px" height="358px" viewBox="0 0 357 358"><path fill="#b28969" d="M268.5,189.04c-1.41-1.92-2.86-2.74-4.22-2.91c-3.96-0.47-7.28,4.62-7.28,4.62c2.38-21.04,0-32.96,0-32.96c-16.83-65.56-65.84-69.37-76.8-69.39c-0.71,0.02-1.44,0.04-2.2,0.06c-54,1.42-71.5,44.58-71.5,44.58c-9,12.5-4,61.55-4,61.55c-21-12.95-1.5,45.45-1.5,45.45c5,13.5,8,1,8,1c2.88,12.67,6.63,23.41,10.9,32.53c0.85,44.99,1.74,68.73,1.44,83.43c23.33,0,116.79,0,123.83,0l1.52-85.32c6.58-17.33,7.31-32.14,7.31-32.14c2.5,3,6.5,1.5,6.5,1.5C272.75,234.79,268.5,189.04,268.5,189.04z M255.96,199.92C255.93,200.18,255.94,200.15,255.96,199.92L255.96,199.92z M256.22,197.67c0.03-0.3,0.07-0.64,0.11-1.01C256.29,197.01,256.25,197.35,256.22,197.67z M256.82,192.32c0.06-0.55,0.11-0.99,0.14-1.26C256.91,191.5,256.87,191.92,256.82,192.32z M265.33,190.26c-0.04-0.16-0.09-0.37-0.16-0.62c-0.13-0.5-0.31-1.2-0.54-2.1c0.22,0.86,0.4,1.58,0.54,2.1C265.24,189.9,265.29,190.1,265.33,190.26C265.47,190.79,265.48,190.83,265.33,190.26z"/><path fill="#ad8464" d="M125.25,227.25c4.5-6.5,6.97-8.84,12.65-10c4.87-0.99,13.28-2.45,17.35-5.75c9.63-7.79,13.17-20.35,5.59-28.43c-4.32-4.6-7.03-7.3-13.05-8.81c-4.83-1.22-11.04-2.16-15.05-6.1c-7.84-7.69-11.29-20.73-10.82-31.2c0.41-8.95,9.17-18.79,15.15-24.83c7.04-7.12,15.71-14.12,23.72-20.42c-40.38,8.84-54.04,42.51-54.04,42.51c-9,12.5-4,61.55-4,61.55c-21-12.95-1.5,45.45-1.5,45.45c5,13.5,8,1,8,1c2.89,12.7,6.64,23.46,10.93,32.59c-0.78,38.87,1.32,70.54,1.15,83.21c7.79,0.1,53.6-30.51,61.45-32.32C179.16,318.81,113.75,264.75,125.25,227.25z"/><g class="eyes eyes-7"><path fill="#ffffff" fill-opacity="0.7" d="M130.67,205.17c3.71-3.85,9.45-3.34,14.5-2.67c2.44,0.33,4.47,0.94,6.55,2.17c1.45,0.85,5.95,3.1,5.42,5.14c-1.8,0.92-3.6,0.77-5.65,1.04c-3.08,0.41-5.96,0.32-9.05-0.13c-2.29-0.33-4.49-1.03-6.58-1.97C133.94,207.87,132.58,205.97,130.67,205.17"/><path fill="#ffffff" fill-opacity="0.7" d="M197.83,208.5c0.56-1.71,5.14-3.87,6.88-4.3c2.4-0.6,4.91-1.54,7.35-1.91c2.71-0.4,4.1,0.74,6.42,1.21c3,0.6,5.13,2.71,7.97,3.53c-1.7,1.15-3.57,2.93-5.45,3.85c-2.36,1.16-5.89,1.12-8.5,1.12c-2.79,0-5.38-0.26-8.03-1c-1.52-0.43-2.72-1.5-4.18-1.97c-0.84-0.27-1.79-0.09-2.63-0.37"/><path fill="#332a19" d="M137.33,204.17c-0.38,1.41-0.76,2.12,0.33,3.54c0.88,1.15,1.97,1.89,3.33,2.3c2.35,0.72,5.19-0.15,6.71-2.14c0.62-0.81,1.21-2.43,0.79-3.54c-0.37-0.97-1.96-1.47-3.17-1.79c-1.23-0.32-2.88-0.37-4.17-0.21c-1.68,0.21-1.88,1.21-3.13,1.87c-0.17,0.09-0.18,0.07-0.37,0.13"/><path fill="#332a19" d="M207.17,203.83c-4.42,2.89,7.97,11.78,10.17,4.12c1.76-6.12-10.3-6.54-10.83-3.29"/></g><g class="eyebrows eyebrows-19"><path fill="#2e1d16" fill-opacity="0.7" d="M118.25,196.75c0.07-4.44,4.29-8.87,8.56-9.69c4.49-0.87,10.44-0.55,14.87,0.13c4.44,0.69,8.71,1.08,13.13,0.37c4.97-0.8,7.21-4.82,2-7.61c-7.85-4.21-17.11-2.59-25.56-2.19c-4.95,0.23-6.97,3.81-10.24,7.3c-2.21,2.37-6.42,6.67-4.83,10.26c0.29,0.64,0.83,0.91,1.53,0.97c0.2,0.25-0.03,0.3,0.29,0.5c0.3-0.44,0.32-1.11,0.25-1.79"/><path fill="#2e1d16" fill-opacity="0.7" d="M225.5,177.16c-5.04-1.51-15.77-0.16-20.5,1.54c-2.89,1.04-8.48,4.97-6.52,8.42c1.65,2.89,8.27,0.21,14.27-0.01c2.07-0.08,4.39-0.79,6.25-1.55c2.73-1.11,6.68,0.01,9.75-0.22c6.64-0.49,10.18,4.83,14.22,8.36c-1.24-3.16-4.13-6.86-6.96-9.24c-1.82-1.53-4.96-4.25-7.47-4.68c-0.63-0.89-2.64-2.35-3.79-2.62"/></g><g class="chin chin-11"><path fill="none" stroke="#ad8464" stroke-miterlimit="10" d="M141,314.5c1.52,0.31,3.15,2.17,4.33,3.17c1.39,1.17,2.78,2.19,4.11,3.37c1.22,1.09,2.46,2.06,3.89,2.96c2.41,1.52,4.85,1.7,7.6,2.55c2.44,0.75,4.83,1.86,7.35,2.45c2.58,0.61,4.78,0.7,7.42,0.84c2.95,0.16,5.83,0.86,8.76,0.47c2.23-0.3,3.83-1.25,5.87-1.63c2.67-0.5,3.67-1.28,5.67-1.7c1.71-0.35,3.54-1.32,5.29-1.84c3.64-1.08,7.27-3.71,10.27-5.92c1.51-1.11,3.36-1.89,4.85-3.04c1.14-0.88,1.92-1.98,3.05-2.88c2.17-1.72,4.14-3.53,6.17-5.46c0.34-0.32,0.41-0.59,0.88-0.83"/></g><g class="hair hair-12"><linearGradient id="hair_56e8470ba2ebb" gradientUnits="userSpaceOnUse" x1="179.4448" y1="197.3671" x2="179.3803" y2="129.8187"><stop offset="0.3656" style="stop-color:#2e1d16;stop-opacity:0"/><stop offset="0.8607" style="stop-color:#2e1d16"/></linearGradient><path fill="url(#hair_56e8470ba2ebb)" d="M257.1,158.8c-7.5-29.1-25.2-55.8-54.7-65.6c-22.2-7.4-47.8-3.6-67.5,8.9c-13.4,8.6-27.4,23.5-31.4,39.6c-5.7,23.1-4.3,53.1,7,74.1c-0.3-5.8-0.4-11.7-0.4-17.5c0-6.7-1.9-19.4,2.1-25.2c7.9-11.4-1.8-30.3,6.6-41.9c0.3-4.9,10.7-6.3,14.3-7.3c7.5-2.1,15.3-2.3,23-2.3c13.6-0.1,27.2-1.8,40.9-1c10.1,0.2,27.2-1.2,35.6,6.3c8.9,7.8,11.2,17.4,11.5,29c0.3,15,6.9,28.3,9.1,42.9C259.8,187.1,259.4,172,257.1,158.8z"/></g><g class="nose nose-22"><path fill="#a87f5f" d="M186.01,198.89c-0.17,1.53-0.26,3.95-0.49,5.46c-0.58,3.86,0.9,6.29,0.88,10.24 c-0.02,6.65,6.48,12.91,4.38,19.46c-5.2-0.71-6.56-12.33-6.95-16.23c-0.33-3.31-1.14-7.11-1.01-10.49 c0.11-2.91,1.43-6.24,2.54-9.75C185.35,197.6,186.24,196.78,186.01,198.89z"/><path fill="none" stroke="#a37a5a" stroke-miterlimit="10" d="M195.333,236.667c1.84,0.719,2.839,3.799,2.332,5.999	c-0.615,2.667-2.788,3.464-5.266,4.001c-2.459,0.533-5.993-0.532-8.391,0.31c-2.935,1.03-4.122,3.785-7.619,4.041 c-2.651,0.194-4.005-0.401-5.966-1.758c-2.852-1.973-3.221-2.032-6.758-2.259c-6.306-0.405-7.227-4.598-4-9.333"/></g><g class="mouth mouth-26"><path fill="#F2E7DC" d="M151.5,267.5c1.875-2.375,3.625-2.438,6.375-2.75c1.875-0.188,4.063,0.063,5.938,0.25 c1.938,0.188,3.875,0.063,5.75,0.375c2,0.25,3.938,0.375,5.938,0.438c3.938,0.125,7.938,0.563,11.938,0 c1.75-0.25,3.438-0.25,5.25-0.375c1.5-0.063,3-0.5,4.563-0.438c1.813,0.063,4.063,0.438,5.75,1.063 c0.938,0.313,1.5,0.75,2.375,1.25c0.625,0.375,1.938,0.5,2.375,1c1.688,1.875-7.375,4.563-8,4.813 c-3.875,1.438-7.25,3.75-10.938,5.375c-2.5,1.063-5.438,1.688-8.125,1.875c-5.5,0.438-10.625-0.875-15.938-1.75 c-2.375-0.438-3.875-1.5-5.438-3.25c-0.75-0.813-1.563-1.813-2.375-2.438c-0.75-0.563-1.563-0.75-2.25-1.375 c-1.188-1-2.75-2.688-2.875-4.25"/><path fill="#9e7555" fill-opacity="1" d="M149,267.6c0.8,3.3,2.2,6.6,3.5,9.8c1.3,3.2,2.9,5.9,5.6,8.1c5.2,4.4,13.3,4.8,19.9,4.2 c3.4-0.3,6.9-0.8,10.3-1.5c4.7-1.1,8.2-4.7,11.7-7.9c2.4-2.3,5.2-4.4,7.2-7.1c0.8-1,1.2-2.2,1.7-3.4c0.4-1.1-0.4-0.9-0.2-2.1 c-1.4,0.2-1.3,0-2.7,0.4c-1.8,0.4-2.9,0.8-4.3,2c-1.5,1.2-3.1,1.8-4.7,2.8c-1.4,0.9-2.9,1.2-4.4,1.9c-1.4,0.8-2.5,1.9-4.2,1.9 c-1.5,0.1-2.9-0.4-4.4-0.4c-3.2-0.2-6.4,0.6-9.5,0.2c-2.8-0.4-6,0.1-8.5-1.1c-1.5-0.6-3-0.9-4.5-1.5c-1.6-0.7-4.3-2.9-5.5-3.9 c-2.1-1.7-4.4-3.5-7.2-2.4"/><path fill="#a87f5f" d="M152.6,264.3c6.8-1.1,12.9-3.1,19.9-2.7c1,0,1.9,0,2.9,0.3c1,0.3,2.4,1.8,2.9,1.8c2.2,0,4.6-1.5,6.8-2 c4.4-1.2,11.6-0.5,15.6,1.4c3.1,1.3,7.3,2.2,8.5,5.7c-5.1-0.3-7.7-2-12.8-2.1c-5.1-0.1-10.4-0.4-15,1c-3.6,0.9-3.9,0.9-7.3,0.1 c-2.4-0.5-5.1-0.6-7.3-0.9c-5.1-0.8-6.7,0.3-11.5-0.2c-1.5,0-5.4,1.5-6.6,0.8C150.3,267.1,151.2,264.5,152.6,264.3"/></g></svg>