<svg id="s56e847038a95a" class="face" xmlns="http://www.w3.org/2000/svg" xmlns:xlink="http://www.w3.org/1999/xlink" x="0px" y="0px" width="357px" height="358px" viewBox="0 0 357 358"><path fill="#d48a65" d="M268.5,189.04c-1.41-1.92-2.86-2.74-4.22-2.91c-3.96-0.47-7.28,4.62-7.28,4.62c2.38-21.04,0-32.96,0-32.96c-16.83-65.56-65.84-69.37-76.8-69.39c-0.71,0.02-1.44,0.04-2.2,0.06c-54,1.42-71.5,44.58-71.5,44.58c-9,12.5-4,61.55-4,61.55c-21-12.95-1.5,45.45-1.5,45.45c5,13.5,8,1,8,1c2.88,12.67,6.63,23.41,10.9,32.53c0.85,44.99,1.74,68.73,1.44,83.43c23.33,0,116.79,0,123.83,0l1.52-85.32c6.58-17.33,7.31-32.14,7.31-32.14c2.5,3,6.5,1.5,6.5,1.5C272.75,234.79,268.5,189.04,268.5,189.04z M255.96,199.92C255.93,200.18,255.94,200.15,255.96,199.92L255.96,199.92z M256.22,197.67c0.03-0.3,0.07-0.64,0.11-1.01C256.29,197.01,256.25,197.35,256.22,197.67z M256.82,192.32c0.06-0.55,0.11-0.99,0.14-1.26C256.91,191.5,256.87,191.92,256.82,192.32z M265.33,190.26c-0.04-0.16-0.09-0.37-0.16-0.62c-0.13-0.5-0.31-1.2-0.54-2.1c0.22,0.86,0.4,1.58,0.54,2.1C265.24,189.9,265.29,190.1,265.33,190.26C265.47,190.79,265.48,190.83,265.33,190.26z"/><path fill="#cf8560" d="M125.25,227.25c4.5-6.5,6.97-8.84,12.65-10c4.87-0.99,13.28-2.45,17.35-5.75c9.63-7.79,13.17-20.35,5.59-28.43c-4.32-4.6-7.03-7.3-13.05-8.81c-4.83-1.22-11.04-2.16-15.05-6.1c-7.84-7.69-11.29-20.73-10.82-31.2c0.41-8.95,9.17-18.79,15.15-24.83c7.04-7.12,15.71-14.12,23.72-20.42c-40.38,8.84-54.04,42.51-54.04,42.51c-9,12.5-4,61.55-4,61.55c-21-12.95-1.5,45.45-1.5,45.45c5,13.5,8,1,8,1c2.89,12.7,6.64,23.46,10.93,32.59c-0.78,38.87,1.32,70.54,1.15,83.21c7.79,0.1,53.6-30.51,61.45-32.32C179.16,318.81,113.75,264.75,125.25,227.25z"/><g class="eyes eyes-7"><path fill="#ffffff" fill-opacity="0.7" d="M130.67,205.17c3.71-3.85,9.45-3.34,14.5-2.67c2.44,0.33,4.47,0.94,6.55,2.17c1.45,0.85,5.95,3.1,5.42,5.14c-1.8,0.92-3.6,0.77-5.65,1.04c-3.08,0.41-5.96,0.32-9.05-0.13c-2.29-0.33-4.49-1.03-6.58-1.97C133.94,207.87,132.58,205.97,130.67,205.17"/><path fill="#ffffff" fill-opacity="0.7" d="M197.83,208.5c0.56-1.71,5.14-3.87,6.88-4.3c2.4-0.6,4.91-1.54,7.35-1.91c2.71-0.4,4.1,0.74,6.42,1.21c3,0.6,5.13,2.71,7.97,3.53c-1.7,1.15-3.57,2.93-5.45,3.85c-2.36,1.16-5.89,1.12-8.5,1.12c-2.79,0-5.38-0.26-8.03-1c-1.52-0.43-2.72-1.5-4.18-1.97c-0.84-0.27-1.79-0.09-2.63-0.37"/><path fill="#483224" d="M137.33,204.17c-0.38,1.41-0.76,2.12,0.33,3.54c0.88,1.15,1.97,1.89,3.33,2.3c2.35,0.72,5.19-0.15,6.71-2.14c0.62-0.81,1.21-2.43,0.79-3.54c-0.37-0.97-1.96-1.47-3.17-1.79c-1.23-0.32-2.88-0.37-4.17-0.21c-1.68,0.21-1.88,1.21-3.13,1.87c-0.17,0.09-0.18,0.07-0.37,0.13"/><path fill="#483224" d="M207.17,203.83c-4.42,2.89,7.97,11.78,10.17,4.12c1.76-6.12-10.3-6.54-10.83-3.29"/></g><g class="eyebrows eyebrows-25"><path fill="#432316" fill-opacity="0.5" d="M128,189.3c5.8-9.1,13.6-10,23.4-8.5c6.1,0.9,17.5,2.1,19.8,9.7h0.6c-3.3-6-17.5-3.9-23.1-3.3 c-3.9,0.3-8.1-0.3-11.7,0.9c-4.5,1.2-7.8,4.8-11.7,6.6c0-2.4,1.9-4.8,3.3-6.6"/><path fill="#432316" fill-opacity="0.5" d="M199.3,186c1.8-2,3.8-4.8,6.5-5c5-1,13.5-0.8,18,1.8c5,3,9.5,10,13,15c-4-7.5-14.5-11.3-22.5-10.8 c-4.5,0.3-9.5,2-14,2.3c-7,0.3-2.3-3.8,1.5-5.3"/></g><g class="hair hair-8"><path fill="#432316" fill-opacity="0.1" d="M257,157.79c-16.83-65.56-65.84-69.37-76.8-69.39c-0.71,0.02-1.44,0.04-2.2,0.06c-54,1.42-71.5,44.58-71.5,44.58c-9,12.5-5.86,67.86-3.69,61.08c0.21-0.66,0.56-1.66,0.96-2.83c-0.81-2.54-0.73-5.33-0.08-8.15c-0.02-0.21-0.03-0.42-0.02-0.64c0.1-4.28,1.87-8.03,4.44-11.26c0.66-1.1,1.33-2.19,2.01-3.27c0.04-0.07,0.09-0.14,0.13-0.21c2.15-3.39,4.44-6.62,7.14-9.51c0.82-2.8,1.2-5.75,2.08-8.71c0.05-0.17,0.1-0.34,0.16-0.51c-0.01-2.26,0.42-4.65,0.99-6.94c-0.65-3.64,0.37-7.3,2.23-10.69c0.11-0.94,0.5-1.89,1.29-2.77c7.92-8.84,20.45-9.75,30.87-13.95c0.39-0.16,0.76-0.26,1.11-0.32c0.63-0.32,1.36-0.51,2.22-0.53c3.46-0.07,6.86-0.73,10.26-0.46c19.13-1.24,45.35,3.03,46.92,4.08c0.03,0.02,0.07,0.04,0.11,0.06c5.72,0.41,11.29,2.99,15.91,6.33c1.88,1.36,2.53,3.17,2.32,4.81c0.21,0.27,0.41,0.54,0.61,0.83c1.55,2.33,1.48,6,1.3,9.42c0.16,2.55,0.49,5.09,0.71,7.64c1.7,2.3,5.92,4.87,7.32,7.14c8.26,8.12,12.18,20.41,13.04,32.04c0.28,0.9,0.45,1.62,0.45,2.05v0.55C259.19,168.8,257,157.79,257,157.79z"/></g><g class="facial-hair facial-hair-24"><polygon fill="#432316" points="155.5,260.8 160,260.8 164.8,258.3 170.5,257 176.5,255.5 185,255.5 187,260.8 178.5,260.8 171.2,260.8 162.3,262.3 151,263.5 "/><path fill="#432316" d="M187,255.5v5.3l10.5,0.8l8.9,1.3l3.1-0.3l10.4,1.5l-5.4-2.5c0,0-5.9-2.9-6.9-2.4s-10.9-2.5-10.9-2.5L187,255.5z"/><path fill="#432316" d="M137.9,293.8l2.8,3.8c0,0,4.8,3.4,6,4.2s8.3,5.3,9.3,6s10.8,7.8,11.3,8.5s7.9,4.8,7.9,4.8l6.4,0.8l8.1,1c0,0,3.7-1,5.2-1s5.9-2.5,7.2-2.5s9.5-5.5,9.5-5.5l8.5-7.5l10-10.3c0,0-19.5,16.5-31,20.3c0,0-2.6,1.5-4.2,1.8s-4.3,0.3-4.3,0.3h-6.5l-7-1l-5.8-1.8C171.1,315.5,141.4,297.8,137.9,293.8z"/></g><g class="nose nose-14"><path fill="#ca805b" d="M186.01,198.89c-0.17,1.53-0.26,3.95-0.49,5.46c-0.58,3.86,0.9,6.29,0.88,10.24 c-0.02,6.65,6.48,12.91,4.38,19.46c-5.2-0.71-6.56-12.33-6.95-16.23c-0.33-3.31-1.14-7.11-1.01-10.49 c0.11-2.91,1.43-6.24,2.54-9.75C185.35,197.6,186.24,196.78,186.01,198.89z"/><path fill="#a25833" d="M167.01,243.31c-1.69-0.6-8.1-2.83-4.16-5.28c3.3-2.05,6.01,3.82,7.51,5.57c-1.23,0.46-2.28-0.2-3.4-0.53"/><path fill="#a25833" d="M180.75,241.5c2.52-0.88,6.87-5.64,8.51-1.76c0.47,1.11,0.34,2.4-0.75,3.03c-1.45,0.83-5.62-0.48-7.47-0.06c-0.18-0.46,0.07-0.58,0.21-0.96"/><path fill="none" stroke="#c57b56" stroke-miterlimit="10" d="M154.5,236.75c0.01,3.79,0.5,4.04,3.51,6.06c1.94,1.3,3.47,2.55,5.75,3.19c4.81,1.36,8.25,4.81,14,3.75c2.51-0.46,4.55-1.87,7-2.5c2.1-0.54,3.37-1.23,5.56-1.25c5.88-0.06,7.54-5.88,5.49-10.81c-0.9-2.16-2.54-3.59-4.05-5.44"/></g><g class="mouth mouth-3"><path fill="#c07651" fill-opacity="1" d="M157.13,273.38c1.85,0.61,3.26,2.16,5.26,2.71c1.8,0.49,3.66,0.59,5.47,1.17c2.26,0.72,4.13,1.89,6.52,2c3.88,0.17,7.85-0.08,11.72-0.25c2-0.08,3.83-0.28,5.7-0.76c1.62-0.41,3.63-1.22,5.04-2.08c1.17-0.71,2.92-1.08,4.17-1.58c1.08-0.44,2.23-0.95,3.33-1.33c0.76-0.27,1.26-0.73,0.8-1.75c-0.41-0.9-2.57-1.25-3.38-1.49c-1.33-0.39-2.68-0.5-3.97-1.01c-2.52-0.99-5.23-1.95-7.97-2.37c-2.25-0.35-4.5-0.53-6.77-0.25c-2.87,0.35-5.24,2.07-8.11,2.63c-2.31,0.45-4.73,0.57-7.05,0.88c-2.13,0.28-3.55,0.94-5.37,1.88c-0.96,0.49-4.21,2.28-5,1.99"/><path fill="#ca805b" d="M156.25,273c0.71-0.98,1.64-2.1,2.53-2.87c1.69-1.48,3.96-1.65,5.82-2.88c3.53-2.35,8.68-3.99,12.88-4.59c2.03-0.29,4.12,0.04,6.07-0.42c2.64-0.64,6.36-0.24,8.7,1.15c2.46,1.46,4.7,3.66,7.19,5.13c1.26,0.75,2.54,1.42,3.81,2.12c1.4,0.77,3.08,1.3,4.35,2.14c-3.03-0.07-5.93-0.95-8.95-1.26c-3.79-0.4-7.25-2.19-10.96-2.72c-1.5-0.21-2.97-0.03-4.49,0.19c-1.13,0.17-2.58,0.22-3.83,0.41c-2.83,0.42-5.61,1.59-8.5,1.88c-2.88,0.29-6.03,1.2-8.75,2.13c-0.5,0.17-7.44,1.44-5.38-1.25"/></g></svg>