<svg id="s539e785157ba8" class="face" xmlns="http://www.w3.org/2000/svg" xmlns:xlink="http://www.w3.org/1999/xlink" x="0px" y="0px" width="357px" height="358px" viewBox="0 0 357 358"><path fill="#945a35" d="M268.5,189.04c-1.41-1.92-2.86-2.74-4.22-2.91c-3.96-0.47-7.28,4.62-7.28,4.62c2.38-21.04,0-32.96,0-32.96c-16.83-65.56-65.84-69.37-76.8-69.39c-0.71,0.02-1.44,0.04-2.2,0.06c-54,1.42-71.5,44.58-71.5,44.58c-9,12.5-4,61.55-4,61.55c-21-12.95-1.5,45.45-1.5,45.45c5,13.5,8,1,8,1c2.88,12.67,6.63,23.41,10.9,32.53c0.85,44.99,1.74,68.73,1.44,83.43c23.33,0,116.79,0,123.83,0l1.52-85.32c6.58-17.33,7.31-32.14,7.31-32.14c2.5,3,6.5,1.5,6.5,1.5C272.75,234.79,268.5,189.04,268.5,189.04z M255.96,199.92C255.93,200.18,255.94,200.15,255.96,199.92L255.96,199.92z M256.22,197.67c0.03-0.3,0.07-0.64,0.11-1.01C256.29,197.01,256.25,197.35,256.22,197.67z M256.82,192.32c0.06-0.55,0.11-0.99,0.14-1.26C256.91,191.5,256.87,191.92,256.82,192.32z M265.33,190.26c-0.04-0.16-0.09-0.37-0.16-0.62c-0.13-0.5-0.31-1.2-0.54-2.1c0.22,0.86,0.4,1.58,0.54,2.1C265.24,189.9,265.29,190.1,265.33,190.26C265.47,190.79,265.48,190.83,265.33,190.26z"/><path fill="#8f5530" d="M125.25,227.25c4.5-6.5,6.97-8.84,12.65-10c4.87-0.99,13.28-2.45,17.35-5.75c9.63-7.79,13.17-20.35,5.59-28.43c-4.32-4.6-7.03-7.3-13.05-8.81c-4.83-1.22-11.04-2.16-15.05-6.1c-7.84-7.69-11.29-20.73-10.82-31.2c0.41-8.95,9.17-18.79,15.15-24.83c7.04-7.12,15.71-14.12,23.72-20.42c-40.38,8.84-54.04,42.51-54.04,42.51c-9,12.5-4,61.55-4,61.55c-21-12.95-1.5,45.45-1.5,45.45c5,13.5,8,1,8,1c2.89,12.7,6.64,23.46,10.93,32.59c-0.78,38.87,1.32,70.54,1.15,83.21c7.79,0.1,53.6-30.51,61.45-32.32C179.16,318.81,113.75,264.75,125.25,227.25z"/><g class="eyes eyes-14"><path fill="#ffffff" fill-opacity="0.7" d="M221.18,197.8c-0.65-0.39-1.29-0.73-1.93-1.03c-0.03,1.04-0.09,2.12-0.46,2.86c-0.78,1.54-3.02,2.85-4.5,3.66c-1.9,1.03-3.99,1.19-5.78-0.03c-1.41-0.96-3.77-2.77-4.47-4.41c-0.2-0.46-0.27-0.98-0.25-1.52c-2.38,1.37-3.84,3.33-5.61,5.17c2,1.26,5.11,2.19,7.5,2.5c2.7,0.35,5.76-0.15,8.34-0.54c2.31-0.34,4.29-1.69,6.49-1.96c1.5-0.19,2.8-0.58,4.17-0.84c1.3-0.24,2.36,0.54,3.62,0.34C225.63,201.67,223.38,199.12,221.18,197.8z"/><path fill="#504040" d="M204.03,198.85c0.69,1.63,3.06,3.45,4.47,4.41c1.79,1.22,3.89,1.06,5.78,0.03c1.48-0.8,3.72-2.12,4.5-3.66c0.37-0.74,0.43-1.82,0.46-2.86c-1.99-0.93-4.01-1.43-6.41-1.43c-3.39,0-5.89,0.25-8.83,1.86c-0.08,0.04-0.14,0.09-0.22,0.13C203.76,197.87,203.83,198.38,204.03,198.85z"/></g><g><path fill="#ffffff" fill-opacity="0.7" d="M157.67,197.54c-0.26-0.16-0.53-0.3-0.8-0.44c-0.06,0.67-0.22,1.38-0.34,2.15c-0.35,2.35-1.63,3.33-3.37,4.9c-1.73,1.57-3.23,2.08-5.66,1.6c-4.51-0.89-6.85-4.89-6-9.13h-0.13c-0.47-0.24-0.56-0.62-0.43-1.05c-2.71,1.05-5.11,2.85-6.73,5.35c0.68,1.39,4.13,2.87,5.62,3.58c2.85,1.36,4.65,2.04,7.84,2.16c2.55,0.1,5.14-0.89,7.37-1.82c2.87-1.2,4.15-2.95,7.45-3.21C160.88,200.34,159.45,198.63,157.67,197.54z"/><path fill="#504040" d="M141.38,196.63h0.13c-0.85,4.24,1.49,8.24,6,9.13c2.43,0.48,3.93-0.02,5.66-1.6c1.73-1.58,3.02-2.55,3.37-4.9c0.12-0.77,0.28-1.48,0.34-2.15c-1.79-0.89-3.89-1.38-5.7-1.93c-3.32-1.02-6.99-0.84-10.22,0.41C140.82,196.01,140.9,196.39,141.38,196.63z"/></g><g class="eyebrows eyebrows-6"><path fill="#0e0e0c" fill-opacity="0.4" d="M119.33,195c0.74-3.9,2.84-7.79,6-10.18c1.94-1.47,4.57-2.44,6.57-3.65c2.44-1.48,4.96-1.74,7.4-0.16c4.14,2.67,8.63-0.43,12.74,1.1c2.92,1.09,6.48,3.07,8.12,5.88c0.84,1.43,0.37,3.01-1.6,3.02c-2.48,0.02-4.47-1.71-6.74-2.02c-4.44-0.61-9.01-0.13-13.47-0.5c-1.99-0.16-4.54-0.52-6.54-0.17c-1.63,0.28-2.55,1.52-3.95,2.38c-3.14,1.93-7.13,2.6-9.56,5.4c0.3-0.57,0.74-0.88,1.36-0.94"/><path fill="#0e0e0c" fill-opacity="0.4" d="M200.83,188c0.67-2.73,4.53-5.59,6.93-6.83c3.15-1.63,7.54-1.51,11.04-1.34c3.83,0.19,6.89-1.51,10.83-0.29c2.02,0.62,3.93,0.96,6.21,0.96c2.66,0,2.83,0.67,4.53,2.33c1.18,1.15,2.95,2.21,3.77,3.67c0.84,1.48,1.6,3.19,2.36,4.67c0.5,0.98,0.38,1.78,0.61,2.79c-0.66-0.6-1.35-1.29-2.11-1.79c-1.99-1.32-3.83-0.68-6-1.17c-1.49-0.34-2.32-1.59-3.67-2.16c-3.62-1.54-7.45-2.03-11.34-2.17c-4.61-0.17-9.03-2.32-13.2,0.62c-1.62,1.14-2.29,1.18-4.13,1.54c-1.7,0.33-2.86,1.66-4.67,0.67c-1.08-0.59-1.82-1.98-0.83-3.17"/></g><g class="chin chin-14"><path fill="none" stroke="#8f5530" stroke-miterlimit="10" d="M148.75,318c1.85,1.27,4.95,5.06,6.75,6.49c2.86,2.27,8.72,4.76,12.25,5.26c5.44,0.76,7.65,0.09,13.06,0.99c4.16,0.69,10.05-1.05,14.19-1.24c10.29-0.47,16.5-6.16,19.25-15.75"/></g><g class="nose nose-2"><path fill="#8a502b" d="M186.01,198.89c-0.17,1.53-0.26,3.95-0.49,5.46c-0.58,3.86,0.9,6.29,0.88,10.24 c-0.02,6.65,6.48,12.91,4.38,19.46c-5.2-0.71-6.56-12.33-6.95-16.23c-0.33-3.31-1.14-7.11-1.01-10.49 c0.11-2.91,1.43-6.24,2.54-9.75C185.35,197.6,186.24,196.78,186.01,198.89z"/><path fill="#622803" d="M166.63,243.75c2.25-1.3,2.59-3.82,5.63-2.9c1.56,0.48,4.43,2.55,4.11,4.38c-0.96,0.17-1.93-0.21-2.76-0.63c-1.38-0.7-1.58-0.67-2.84,0.31c-1.49,1.16-3.98,1.35-4.49-0.88c0.25-0.19,0.55-0.29,0.86-0.28"/><path fill="#622803" d="M187.38,240.75c-0.76,0.2-2.24,1.91-2.38,2.74c-0.25,1.5,0.94,1.27,2.01,1.38c1.81,0.18,3.94,1.63,5.75,0.78c3.43-1.6-3.45-8.78-6.13-4.16"/><path fill="none" stroke="#854b26" stroke-miterlimit="10" d="M164.75,227c0.56,1.57-0.23,2.33-0.76,3.75c-0.47,1.27-0.72,2.65-1.21,3.87c-0.9,2.23-2.4,3.66-2.53,6.12c-0.15,2.94,1,4.25,2.75,6.37c1.36,1.65,4.54,2.49,6.63,2.01c1.04-0.24,1.75-0.86,2.88-0.75c1.13,0.1,2.24,0.56,3.37,0.72c1.05,0.15,2.32,0.09,3.38,0.03c1.33-0.08,1.49-0.53,2.53-1.23c2.13-1.42,6.09,0.33,8.72,0.1c2.12-0.19,3.6-1.49,5.35-2.75c1.25-0.9,2.52-2.38,3.13-3.75c0.93-2.09-1.34-2.51-1.6-4.25"/></g><g class="mouth mouth-20"><path fill="#FCE6C0" d="M156.25,279.88c-0.32,2.16,1.8,4.01,3.15,5.38c2.01,2.04,4.57,3.44,7.26,4.36c3.91,1.34,8.6,1.08,12.74,1.09c3.27,0,6.22-1.3,9.34-1.79c2.42-0.38,5.5,0.2,7.84-0.48c1.14-0.33,1.94-1.35,3.01-1.9c0.73-0.37,1.68-0.5,2.36-0.98c0.68-0.48,0.99-1.23,1.52-1.82c0.97-1.08,2.14-1.43,1.9-3.14c-0.29-2.04-2.76-3.46-4.59-4c-6.24-1.85-12.29-5.38-18.92-5.38c-2.36,0-4.73-0.03-7.07-0.14c-2.63-0.12-5.32-0.37-7.85,0.41c-2.71,0.84-5.43,1.98-7.98,3.12c-1.27,0.57-1.79,1.92-2.95,2.44c-0.34,1.1-0.48,3.33,0.65,3.77"/><path fill="#9A3E32" d="M158.69,283.94c0.74-1.46,1.34-6.96,3.94-4.27c-0.24-1.44,1.4-1.24,2.27-1.01c0.06-1.79,2.17-1.98,3.42-1.47c0.9,0.37,1.21,0.74,2.1,0.47c1.26-0.38,1.68-1.4,3.2-1.02c0.62,0.15,1.04,0.75,1.59,0.82c0.82,0.11,1.66-0.56,2.44-0.79c0.63-0.19,1.9-0.65,2.57-0.41c1.5,0.52,0.29,0.91,2.43,0.51c1.77-0.33,2.24,0.72,3.69,0.83c1.89,0.14,3.39-1.65,5.39-0.44c0.64,0.39,0.91,1.12,1.52,1.49c0.89,0.54,0.8,0.01,1.76,0.16c0.77,0.12,1.09,0.87,1.73,1.1c0.88,0.31,1.77-0.16,2.68-0.11c0.99,1.77,2.07,2.19,2.07,4.43c1.44,0.17,3.86-1.52,3.91-2.99c0.04-1.26-1.82-2.8-2.73-3.55c-2.52-2.07-6.09-3.21-9.16-4.14c-3.82-1.15-7.7-2.95-11.65-3.41c-3.97-0.47-8.18-0.62-12.19-0.64c-1.87-0.01-3.66,0.29-5.31,1.09c-3.11,1.5-6.83,2.47-9.55,4.61c-1.5,1.18-1.23,3.27-0.27,4.73c0.95,1.45,2.97,3.7,4.44,4.46"/><path fill="#a7696a" fill-opacity="0.9" d="M152.33,278.39c2.38,1.63,3.46,5.01,5.41,7.1c2.18,2.35,4.17,4.97,6.27,7.38c1.85,2.13,3.81,4.1,6.17,5.58c3.71,2.33,7.39,3,11.9,3.21c3.7,0.18,6.29-0.63,9.06-2.88c2.24-1.81,4.42-3.27,6.36-5.55c2.03-2.38,4.4-4.5,6.54-6.73c1.78-1.86,4.47-5.09,4.33-7.84c-0.03-0.66-1.04,0.04-0.94-0.64c-0.92,1.03-2.29,1.55-3.26,2.56c-1.04,1.09-2.17,2-3.39,2.91c-2.09,1.56-5.16,2.64-7.63,3.25c-3.41,0.85-6.7,0.89-10.23,0.71c-2.9-0.15-5.98-0.14-8.93-0.41c-2.34-0.21-4.93-0.18-7.3-0.64c-2.14-0.41-4.35-1.46-6.34-2.38c-1.8-0.83-3.06-2.09-4.59-3.35c-0.8-0.66-2.67-2.97-3.69-2.03"/><path fill="#8a502b" d="M152.87,274.06c1.35-0.82,2.48-2.21,3.62-3.35c1.32-1.32,2.71-2.3,4.12-3.45c1.89-1.54,3.8-3.02,6.06-3.76c2.39-0.78,5.18-1.22,7.71-1.35c1.3-0.07,2.43,0.29,3.65,0.38c1.61,0.11,3.12-0.51,4.74-0.38c2.51,0.2,5.61,1.33,7.85,2.44c2.29,1.14,4.78,1.89,6.93,3.35c1.9,1.29,4.31,2.15,6.02,3.68c1.37,1.23,2.24,3.25,3.8,4.23c0.27,0.91,1.26,1.69,0.98,2.83c-0.25,1-1.36,1.39-2.17,1.89c-1.87,1.16-4.95,0.13-7.17-0.82c-2.19-0.94-3.2-0.99-5.27-2.2c-2.05-1.19-4.67-2.14-6.9-2.68c-2.27-0.55-4.6,0.28-6.91,0.28c-2.68,0-4.88-0.44-7.44-0.82c-5.19-0.76-9.52,1.19-14.11,3.09c-1.09,0.45-4.36,2.09-5.34,1.62c-1.37-0.66-0.15-4.38,0.37-5.38"/></g></svg>