<svg id="s5b2c6ba7ccbba" class="face" xmlns="http://www.w3.org/2000/svg" xmlns:xlink="http://www.w3.org/1999/xlink" x="0px" y="0px" width="357px" height="358px" viewBox="0 0 357 358"><path fill="#d48a65" d="M268.5,189.04c-1.41-1.92-2.86-2.74-4.22-2.91c-3.96-0.47-7.28,4.62-7.28,4.62c2.38-21.04,0-32.96,0-32.96c-16.83-65.56-65.84-69.37-76.8-69.39c-0.71,0.02-1.44,0.04-2.2,0.06c-54,1.42-71.5,44.58-71.5,44.58c-9,12.5-4,61.55-4,61.55c-21-12.95-1.5,45.45-1.5,45.45c5,13.5,8,1,8,1c2.88,12.67,6.63,23.41,10.9,32.53c0.85,44.99,1.74,68.73,1.44,83.43c23.33,0,116.79,0,123.83,0l1.52-85.32c6.58-17.33,7.31-32.14,7.31-32.14c2.5,3,6.5,1.5,6.5,1.5C272.75,234.79,268.5,189.04,268.5,189.04z M255.96,199.92C255.93,200.18,255.94,200.15,255.96,199.92L255.96,199.92z M256.22,197.67c0.03-0.3,0.07-0.64,0.11-1.01C256.29,197.01,256.25,197.35,256.22,197.67z M256.82,192.32c0.06-0.55,0.11-0.99,0.14-1.26C256.91,191.5,256.87,191.92,256.82,192.32z M265.33,190.26c-0.04-0.16-0.09-0.37-0.16-0.62c-0.13-0.5-0.31-1.2-0.54-2.1c0.22,0.86,0.4,1.58,0.54,2.1C265.24,189.9,265.29,190.1,265.33,190.26C265.47,190.79,265.48,190.83,265.33,190.26z"/><path fill="#cf8560" d="M125.25,227.25c4.5-6.5,6.97-8.84,12.65-10c4.87-0.99,13.28-2.45,17.35-5.75c9.63-7.79,13.17-20.35,5.59-28.43c-4.32-4.6-7.03-7.3-13.05-8.81c-4.83-1.22-11.04-2.16-15.05-6.1c-7.84-7.69-11.29-20.73-10.82-31.2c0.41-8.95,9.17-18.79,15.15-24.83c7.04-7.12,15.71-14.12,23.72-20.42c-40.38,8.84-54.04,42.51-54.04,42.51c-9,12.5-4,61.55-4,61.55c-21-12.95-1.5,45.45-1.5,45.45c5,13.5,8,1,8,1c2.89,12.7,6.64,23.46,10.93,32.59c-0.78,38.87,1.32,70.54,1.15,83.21c7.79,0.1,53.6-30.51,61.45-32.32C179.16,318.81,113.75,264.75,125.25,227.25z"/><g class="eyes eyes-25"><path fill="#FFFFFF" fill-opacity="0.7" d="M136.3,206.4c8.7-3,20.3-9,27.7,0.3c-8.7,2.2-21.4-3-28.8,0"/><path fill="#FFFFFF" fill-opacity="0.7" d="M197.3,206c4.3-1.9,8.5-3.7,12.9-5.4c-0.3,0.1-0.4,0.2-0.4,0.4c3-0.1,6.9,1.2,9.8,2.2 c2.2,0.8,5,1.9,5.7,4.1c-4.7,0.1-9.6-0.6-14.5-0.6c-4.4,0-8.9,0.2-13.2,0c3.3-3.2,8.2-5.5,12.5-5.2"/><path fill="#38453e" d="M144.8,203.4c0.2,0.9,0.6,1.8,1.2,2.6c3.5,0.4,7.1,0.9,10.6,1.1c0.3-0.7,0.5-1.6,0.4-2.7 c0-1-0.2-1.8-0.4-2.5C152.8,201.2,148.8,202.1,144.8,203.4z"/><path fill="#38453e" d="M218.2,207.1c0.8-1.1,1.2-2.4,1.1-3.9c-2.9-1-6.6-2.3-9.5-2.1c0-0.2,0.1-0.3,0.4-0.4 c-0.8,0.3-1.5,0.6-2.3,0.9c-0.2,0-0.4,0-0.6,0.1c-0.4,1-0.6,2.1-0.5,3.3l0-0.2c-0.1,0.8-0.1,1.5,0,2.1c1.3,0,2.6,0,3.9,0 C213.2,206.8,215.7,206.9,218.2,207.1z"/></g><g class="eyebrows eyebrows-23"><path fill="#2e1d16" fill-opacity="0.5" d="M126.853,179.854c0.603,0.032,1.155-0.222,1.683-0.322c0.946-0.179,1.883,0.002,2.843-0.079c1.353-0.115,1.499-0.578,2.132-1.355c1.766-2.168,5.152-1.074,8.239-0.68c3.517,0.449,7.607,0.62,10.617,2.147c1.113,0.564,2.293,0.73,3.485,1.079c1.429,0.419,2.677,1.031,4.061,1.345c1.119,0.254,2.692,0.615,3.861,0.403c0.632-0.114,2.214-0.879,2.473-1.424c0.881-1.855-4.027-4.899-5.37-6.024c-2.052-1.719-5.931-3.486-9.038-3.479c-3.089,0.007-6.039,0.093-9.272-0.162c-1.475-0.117-2.812-0.263-4.26-0.051c-1.743,0.255-3.923,0.1-5.554,0.512c-1.797,0.454-3.212,1.743-4.861,2.447c-1.926,0.823-3.241,2.281-3.177,4.144c0.088,2.547,2.347,0.398,3.517,1.514"/><path fill="#2e1d16" fill-opacity="0.5" d="M195.837,180.402c0.504-0.694,0.566-1.756,1.075-2.56c0.381-0.601,0.789-1.174,1.292-1.736c0.923-1.03,2.138-1.801,3.43-2.56c2.223-1.306,4.891-1.839,7.509-2.357c2.446-0.484,4.933-1.125,7.362-1.585c2.802-0.531,5.815,0.974,8.187,1.806c1.087,0.381,2.155,0.856,3.265,1.273c1.565,0.589,3.15,0.66,4.113,1.912c0.613,0.797,1.192,1.967,1.286,2.897c0.172,1.706-1.442,1.344-2.938,0.782c-1.869-0.702-3.804-1.223-5.817-1.71c-1.177-0.285-2.415-0.561-3.545-0.917c-0.568-0.179-1.188-0.603-1.851-0.604c-1.304-0.002-2.865,0.938-4.145,1.315c-1.887,0.555-3.403,0.963-5.1,1.757c-3.227,1.51-5.862,3.439-9.491,4.431c-1.579,0.432-2.419,0.441-3.601-0.438c-1.234-0.918-0.467-1.622-0.992-2.567"/></g><g class="hair hair-18"><path fill="#2e1d16" fill-opacity="1" d="M257.1,158.8c-16.8-65.6-65.8-69.4-76.8-69.4c-0.7,0-1.4,0-2.2,0.1c-54,1.4-71.5,44.6-71.5,44.6c-8.1,11.2-4.9,51.7-4.1,60l2,0.9c0,0-3.9-41.7,16.3-52.7c0,0-4.3-17.9,6.4-26.9c0,0,14.6,6.2,31.8,8.2c17.2,2,24.9,2,27.9,0c0,0,24.5-2.3,30.9-5.1l16.3-1.2c0,0,8.6,7.8,11.2,30.4c0,0,17,12.1,8.8,47.2l3.2-3.8C259.5,170.5,257.1,158.8,257.1,158.8z"/></g><g class="facial-hair facial-hair-12"><path opacity="0.8" fill="#2e1d16" d="M257.8,190.9c-0.4,0.5-0.6,0.9-0.6,0.9c0.1-1,0.2-2.1,0.3-3.1c0,0.1-11.2,77.6-43.7,83.3l-5.5,22.5l-32.8,13.8L156,298l-11.5-28.5c0,0-41.3-41.4-40.8-72.1l5.4,44.6c2.9,12.7,6.6,23.4,10.9,32.5c0,0.9,22.1,33.3,42.5,38.9c0,0,22.3,11.3,57.3-11.8c3.1-2.1,5.7-3.8,7.8-5.2c0,0,0.1-0.1,0.1-0.1c9.6-6.4,8.7-6,4.9-3.7c4.5-3.8,14.2-20.1,14.2-20.1c6.6-17.3,7.3-32.1,7.3-32.1C255.4,242,254.8,212.8,257.8,190.9z M256.1,200.9C256.1,201.2,256.1,201.2,256.1,200.9L256.1,200.9z M256.9,193.3c0.1-0.5,0.1-1,0.1-1.3C257,192.5,257,192.9,256.9,193.3z"/><path fill="#2e1d16" d="M206.5,254.8c-8.1-1.6-26.6-1-26.6-1c-18.6-2.2-32,4.5-32,4.5c-6.6,2.9-5.9,21.6-5.9,21.6c-1.1,13.2,9,29.1,9,29.1c11,12.1,30.9,9.8,30.9,9.8c21.3,2.1,32.5-16.3,32.5-16.3l1.9-32.7C216.3,259.4,206.5,254.8,206.5,254.8z M206.6,292.2c0,0-9.8,11.2-23.2,11.2c0,0-17.4,3.1-29.3-11.2c0,0-12.1-15.1-5.1-30.7c0,0,21.5-3.2,60.2-1.2C209,260.3,217.3,282.8,206.6,292.2z"/></g><g class="nose nose-1"><path fill="#ca805b" d="M186.01,198.89c-0.17,1.53-0.26,3.95-0.49,5.46c-0.58,3.86,0.9,6.29,0.88,10.24 c-0.02,6.65,6.48,12.91,4.38,19.46c-5.2-0.71-6.56-12.33-6.95-16.23c-0.33-3.31-1.14-7.11-1.01-10.49 c0.11-2.91,1.43-6.24,2.54-9.75C185.35,197.6,186.24,196.78,186.01,198.89z"/><path fill="none" stroke="#c57b56" stroke-miterlimit="10" d="M168.87,209.42c1.28,4.35,3.91,6.45,2.31,10.98 c-0.86,2.45-2.47,5.01-3.98,7.33c-2.59,3.99-11.16,12.3-7.08,17.1c2.22,2.62,4.82,0.96,7.41,0.58c3.94-0.58,6.85,0.88,10.37,1.68 c5.68,1.29,10.55-1.54,16.31-0.43c3.23,0.62,9.41,2.38,8.66-3.58"/></g><g class="mouth mouth-4"><path fill="#DA7771" d="M157.67,276.38c1.49,3.44,4.03,3.59,7.14,4.87c2.15,0.89,4.35,1.38,6.39,2.5c2.68,1.47,5.37,3.07,8.43,3.75c1.94,0.44,5.11,0.85,6.82-0.11c1.46-0.82,3.01-1.7,4.45-2.63c2.56-1.66,4.47-4.48,6.89-6.29c2.75-2.05,6.88-2.2,8.16-5.97c1.85-5.44-8.06-2.5-10.13-4.02c-0.17-1.73-4.4-1.63-5.62-1.72c-2.26-0.17-4.53-0.65-6.8-0.64c-1.87,0.01-3.45,0.66-5.25,0.98c-3.47,0.62-7.12-0.04-10.53,0.92c-2.26,0.64-4.52,1.38-6.48,2.56c-1.46,0.89-5.88,1.61-6.45,3.44c-0.49,1.55,2.95,3.77,4.22,4.35"/><path fill="#F6F1D6" d="M153.67,271.63c-0.26,1.15,1.9,3.61,2.53,4.88c0.88,1.76,4.53,1.7,6.22,1.62c2.79-0.13,5.81-0.2,8.46,0.34c1.52,0.31,3.14,0.19,4.67,0.28c1.57,0.09,3.1,0.61,4.74,0.63c1.71,0.01,3.41,0.01,5.12,0c0.68-0.01,1.4,0.1,2.02-0.24c0.55-0.3,0.78-0.88,1.36-1.13c1.41-0.6,3.71-0.38,5.25-0.51c1.99-0.16,3.13,0.12,4.88-0.96c1.38-0.85,2.74-1.21,3.87-2.44c0.94-1.02,3.16-1.49,3.88-2.6c-3.06-1.57-7.86-2.79-10.9-4.35c-2.31-1.18-4.91-1.71-7.48-1.77c-4.71-0.11-10.18-0.37-14.68,1.09c-3.74,1.22-7.73,0.41-11.06,2.66c-1.88,1.28-3.91,2.47-5.76,3.74"/><path fill="#ca805b" d="M152.79,271.75c1.23-1.6,2.51-3.38,4.24-4.52c1.68-1.1,3.78-1.36,5.5-2.38c1.41-0.84,2.44-1.87,4.15-2.22c1.63-0.33,3.53-0.41,5.24-0.5c0.91-0.05,1.78-0.07,2.68-0.16c0.97-0.1,2.38-0.66,3.31-0.47c1.19,0.25,1.82,1.64,3,2.12c1.72,0.71,2.43-0.92,4.02-1.47c1.71-0.59,3.83-0.44,5.6-0.27c2.32,0.23,4.56-0.11,6.9,0.53c1.86,0.51,3.91,1.37,5.62,2.35c1.12,0.65,2.29,1.42,3.48,2.08c0.77,0.43,2.38,1.25,2.73,2.01c-1.69,1.52-3.92,3.55-6.33,3.4c-2.35-0.15-4.34-2.7-6.53-3.6c-2.56-1.05-5.73-0.78-8.5-0.78c-1.71,0-3.42-0.19-5,0.37c-1.37,0.48-2.48,0.74-4.02,0.88c-1.78,0.16-3.53,0.48-5.38,0.38c-1.51-0.08-2.77-0.68-4.23-0.75c-1.27-0.06-2.5-0.2-3.5,0.5c-0.9,0.63-1.78,1.65-2.63,2.38c-2.1,1.82-3.72,2.88-6.63,2.87c-1.33,0-2.32,0.08-3.37-0.78c-1.07-0.87-1.05-1.95,0.13-2.85"/><path fill="#c07651" fill-opacity="1" d="M153.42,273.63c0.61,3.59,3.26,6.19,5.07,9.16c1.33,2.2,3.14,4.55,5.15,6.25c1.13,0.95,2.42,1.93,3.65,2.75c1.78,1.17,4.33,1.8,6.36,2.57c1.66,0.63,3.25,0.77,5.02,0.53c1.01-0.13,2.17-0.39,3.12-0.48c1.88-0.18,3.68,0.42,5.51,0.35c1.42-0.06,2.51-0.67,3.76-1.25c1.83-0.85,3.96-1.29,5.7-2.38c2.64-1.67,4.81-4.54,6.3-7.25c1.48-2.68,3.77-4.55,4.82-7.57c0.36-1.05,2.23-6.83,0.66-7.53c-0.27-0.12-2.98,2.84-3.6,3.38c-1.5,1.3-3.16,1.81-4.88,2.74c-2.93,1.6-4.67,4.2-6.87,6.6c-0.86,0.94-1.69,1.79-2.82,2.38c-1.26,0.65-2.62,0.58-3.99,0.9c-3.01,0.7-7.41,1.11-10.41,0.1c-1.03-0.35-1.96-0.87-2.99-1.28c-1.2-0.48-2.42-0.62-3.55-1.22c-1.81-0.96-3.52-2.25-5.51-2.88c-2.17-0.69-4.08-1.03-5.97-2.4c-1.19-0.86-2.69-2.29-3.4-3.58c-0.24-0.04-1.15-0.32-1.36-0.16c-0.58,0.43-0.14,1.15,0.38,1.39"/></g></svg>