<svg id="s592cd399bbb1f" class="face" xmlns="http://www.w3.org/2000/svg" xmlns:xlink="http://www.w3.org/1999/xlink" x="0px" y="0px" width="357px" height="358px" viewBox="0 0 357 358"><path fill="#917357" d="M268.5,189.04c-1.41-1.92-2.86-2.74-4.22-2.91c-3.96-0.47-7.28,4.62-7.28,4.62c2.38-21.04,0-32.96,0-32.96c-16.83-65.56-65.84-69.37-76.8-69.39c-0.71,0.02-1.44,0.04-2.2,0.06c-54,1.42-71.5,44.58-71.5,44.58c-9,12.5-4,61.55-4,61.55c-21-12.95-1.5,45.45-1.5,45.45c5,13.5,8,1,8,1c2.88,12.67,6.63,23.41,10.9,32.53c0.85,44.99,1.74,68.73,1.44,83.43c23.33,0,116.79,0,123.83,0l1.52-85.32c6.58-17.33,7.31-32.14,7.31-32.14c2.5,3,6.5,1.5,6.5,1.5C272.75,234.79,268.5,189.04,268.5,189.04z M255.96,199.92C255.93,200.18,255.94,200.15,255.96,199.92L255.96,199.92z M256.22,197.67c0.03-0.3,0.07-0.64,0.11-1.01C256.29,197.01,256.25,197.35,256.22,197.67z M256.82,192.32c0.06-0.55,0.11-0.99,0.14-1.26C256.91,191.5,256.87,191.92,256.82,192.32z M265.33,190.26c-0.04-0.16-0.09-0.37-0.16-0.62c-0.13-0.5-0.31-1.2-0.54-2.1c0.22,0.86,0.4,1.58,0.54,2.1C265.24,189.9,265.29,190.1,265.33,190.26C265.47,190.79,265.48,190.83,265.33,190.26z"/><path fill="#8c6e52" d="M125.25,227.25c4.5-6.5,6.97-8.84,12.65-10c4.87-0.99,13.28-2.45,17.35-5.75c9.63-7.79,13.17-20.35,5.59-28.43c-4.32-4.6-7.03-7.3-13.05-8.81c-4.83-1.22-11.04-2.16-15.05-6.1c-7.84-7.69-11.29-20.73-10.82-31.2c0.41-8.95,9.17-18.79,15.15-24.83c7.04-7.12,15.71-14.12,23.72-20.42c-40.38,8.84-54.04,42.51-54.04,42.51c-9,12.5-4,61.55-4,61.55c-21-12.95-1.5,45.45-1.5,45.45c5,13.5,8,1,8,1c2.89,12.7,6.64,23.46,10.93,32.59c-0.78,38.87,1.32,70.54,1.15,83.21c7.79,0.1,53.6-30.51,61.45-32.32C179.16,318.81,113.75,264.75,125.25,227.25z"/><g class="eyes eyes-7"><path fill="#ffffff" fill-opacity="0.7" d="M130.67,205.17c3.71-3.85,9.45-3.34,14.5-2.67c2.44,0.33,4.47,0.94,6.55,2.17c1.45,0.85,5.95,3.1,5.42,5.14c-1.8,0.92-3.6,0.77-5.65,1.04c-3.08,0.41-5.96,0.32-9.05-0.13c-2.29-0.33-4.49-1.03-6.58-1.97C133.94,207.87,132.58,205.97,130.67,205.17"/><path fill="#ffffff" fill-opacity="0.7" d="M197.83,208.5c0.56-1.71,5.14-3.87,6.88-4.3c2.4-0.6,4.91-1.54,7.35-1.91c2.71-0.4,4.1,0.74,6.42,1.21c3,0.6,5.13,2.71,7.97,3.53c-1.7,1.15-3.57,2.93-5.45,3.85c-2.36,1.16-5.89,1.12-8.5,1.12c-2.79,0-5.38-0.26-8.03-1c-1.52-0.43-2.72-1.5-4.18-1.97c-0.84-0.27-1.79-0.09-2.63-0.37"/><path fill="#332a19" d="M137.33,204.17c-0.38,1.41-0.76,2.12,0.33,3.54c0.88,1.15,1.97,1.89,3.33,2.3c2.35,0.72,5.19-0.15,6.71-2.14c0.62-0.81,1.21-2.43,0.79-3.54c-0.37-0.97-1.96-1.47-3.17-1.79c-1.23-0.32-2.88-0.37-4.17-0.21c-1.68,0.21-1.88,1.21-3.13,1.87c-0.17,0.09-0.18,0.07-0.37,0.13"/><path fill="#332a19" d="M207.17,203.83c-4.42,2.89,7.97,11.78,10.17,4.12c1.76-6.12-10.3-6.54-10.83-3.29"/></g><g class="eyebrows eyebrows-25"><path fill="#0e0e0c" fill-opacity="0.6" d="M128,189.3c5.8-9.1,13.6-10,23.4-8.5c6.1,0.9,17.5,2.1,19.8,9.7h0.6c-3.3-6-17.5-3.9-23.1-3.3 c-3.9,0.3-8.1-0.3-11.7,0.9c-4.5,1.2-7.8,4.8-11.7,6.6c0-2.4,1.9-4.8,3.3-6.6"/><path fill="#0e0e0c" fill-opacity="0.6" d="M199.3,186c1.8-2,3.8-4.8,6.5-5c5-1,13.5-0.8,18,1.8c5,3,9.5,10,13,15c-4-7.5-14.5-11.3-22.5-10.8 c-4.5,0.3-9.5,2-14,2.3c-7,0.3-2.3-3.8,1.5-5.3"/></g><g class="hair hair-2000"><path fill="#0e0e0c" d="M102.86,192.23c0.44-2.99,2.32-4.61,2.2-7.88c-0.1-2.7,0.11-5.71-0.16-8.43c-0.15-1.51-0.66-2.65-0.24-4.13c0.48-1.72,1.73-3.43,2.32-5.11c0.92-2.62,1.31-5.26,2.48-7.83c1.94-4.24,2.92-8.93,4.5-13.31c1.09-3.02,1.96-7.16,4.01-9.59c4.21-4.99,6.14-10.76,9.93-16c2.88-3.97,7.02-9.4,11.5-11.32c2.8-1.2,5.73-1.97,8.45-3.25c1.73-0.81,3.3-1.85,5.03-2.65c3.14-1.46,5.83-2.14,9.23-2.62c2.83-0.4,5.5-0.52,8.34-0.63c2.25-0.09,4.4,0.79,6.67,0.47c3.74-0.53,6.94-1.97,10.69-1.42c2.12,0.31,5.58,0.72,7.53,1.86c1.74,1.02,2.79,2.14,4.99,2.9c2.31,0.8,4.59,2.39,6.93,2.63c1.6,0.17,2.57-0.21,3.92,0.63c1.26,0.78,2.02,2.38,3.19,3.34c2.21,1.81,4.15,2.92,6.54,4.08c2.24,1.1,3.33,3.15,5.04,4.9c1.39,1.41,2.96,2.65,4.39,4.07c1.43,1.42,3.32,3.15,4,5.08c0.73,2.03,0.86,4.11,2.03,6.11c1.35,2.31,2.75,4.22,3.56,6.78c0.45,1.41,0.79,2.94,1.36,4.38c0.53,1.33,1.19,2.27,1.89,3.61c1.36,2.57,2.01,5.52,3.33,8.12c1.24,2.46,2.12,4.21,2.66,7.09c0.42,2.26,1.21,3.65,1.8,5.63c0.58,1.93-0.04,3.89,0.06,5.93c0.18,4.03,1.97,8.24,2.48,12.24c0.29,2.24,1.04,3.83,1.13,6.12c0.06,1.48,0.24,2.97,0.5,3.97c-0.16-2.16,0.48-5.34,1.35-7.18c1.06-2.25,4.17-2.78,4.86-4.35c0.9-2.04-2.25-4.84-2.66-6.89c-0.4-1.99,0.42-5.15,0.46-7.13c0.02-1.04,0.33-1.94,0.05-2.94c-0.32-1.17-1.18-1.79-1.42-3.04c-0.37-1.94,0.37-4.24,0.46-6.16c0.07-1.39-0.15-2.82,0-4.21c0.19-1.76,0.97-3.35,0.91-5.2c-0.08-2.29-1.38-4.12-2.76-5.86c-2.62-3.31-5.32-6.68-5.59-11.04c-0.26-4.15,0.35-10.36-1.64-13.98c-2.3-4.19-6.98-7.42-11.04-9.67c-2.48-1.38-1.84-3.2-3.27-5.4c-0.96-1.47-2.81-2.79-4.11-3.64c-3.22-2.1-8.3-1.61-10.67-4.36c-1.22-1.42-2.13-3.34-3.49-4.85c-2.6-2.89-7.05-5.66-10.63-6.89c-2.55-0.88-3.49-0.96-5.43-2.53c-1.61-1.3-3.48-1.15-5.4-2.01c-3.22-1.45-4.55-1.67-7.86,0c-0.95,0.48-1.17,1.08-2.3,1.09c-1.3,0.01-1.48-0.92-2.47-1.17c-2.34-0.59-4.98,0.15-6.96,0.76c-4.7,1.44-7.3,2.41-12.01,2.07c-2.31-0.17-4.4-0.28-6.74-0.28c-0.93,0-2.84-0.35-3.67,0.16c-1.02,0.63-1.14,2.34-1.92,3.12c-1.95,1.96-5.52,1.65-8.18,1.61c-3.5-0.06-5.7,0.25-7.99,2.71c-2.05,2.2-3.9,3.82-5.72,6.24c-1.83,2.44-3.76,2.52-6.13,4.29c-2.34,1.75-2.23,3.95-2.93,6.5c-0.71,2.54-3.2,4.03-5.34,5.46c-1.79,1.19-4.32,2.84-4.81,5.13c-0.57,2.71,1.53,5.25,0.17,7.82c-1.07,2.03-3.6,3.34-4.84,5.28c-1.64,2.54-0.86,5.12-2.71,7.61c-1.04,1.4-3.16,2.7-3.95,4.13c-1.39,2.49,0.44,4.57-1.3,7.11c-1,1.46-2.31,2.2-2.42,4.13c-0.07,1.31,0.63,3.35,0.63,4.87c0,1.02,0,2.04,0,3.05c0,2.8,0.19,4.5,1.42,6.85c1,1.93,1.32,2.89,1.29,5.06c-0.02,1.94-0.05,3.89,0.23,5.77c0.31,2.06,1.21,3.83,1.52,5.82c0.25,1.62-0.33,3.36,0.06,5c0.39,1.65,2.04,2.68,2.52,4.33c1.05-2.08,0.09-2.73,0.41-4.79"/><path fill="#0e0e0c" d="M244.17,276.96c-0.01,0.03-0.03,0.06-0.04,0.1c0.57,0.76,1.15,1.52,1.73,2.28c0-0.17,0-0.33,0-0.5C245.25,278.23,244.68,277.6,244.17,276.96z"/><path fill="#0e0e0c" d="M247.66,264.07c-0.24,1.11-0.3,2.24-0.24,3.37c0.16,0.03,0.32,0.08,0.48,0.15c0.21-0.61,0.42-1.22,0.62-1.83C248.2,265.19,247.91,264.62,247.66,264.07z"/><path fill="#0e0e0c" d="M272.23,311.74c-2.18-2.53-3.96-5.3-5.52-8.19c0.05-0.72,0-1.46-0.3-2.27c-0.58-1.57-1.79-2.51-2.27-4.23c-0.4-1.46-0.39-3.04-0.56-4.52c-0.27-2.38-0.89-4.67-1.46-6.96c0.77,1.14,1.52,2.29,2.21,3.49c1.45,2.54,5.31,16.39,9.92,12.44c2.04-1.75-2.76-9.62-4.22-11.98c-2.65-4.3-6.25-8.01-9.28-12.07c-0.3-2.82-0.64-5.65-1.82-8.27c-1.88-4.17-6.37-7.29-7.95-11.85c-0.24,0.97-0.51,1.97-0.79,2.99c-0.15,0.56-0.31,1.12-0.48,1.69c-0.36,1.23-0.75,2.49-1.17,3.76c1.87,3.4,4.62,7.05,5.17,7.94c1.53,2.49,3.36,4.9,5.19,7.36c0.2,1.78-0.09,3.54,0.4,5.28c0.04,0.13,0.08,0.25,0.11,0.37c-2.25-5.51-4.71-10.93-8.32-15.75c-1.42-1.9-2.33-2.97-3.17-3.38c-0.12,0.35-0.24,0.69-0.37,1.04c-0.52,1.45-1.08,2.92-1.68,4.4c-0.01,1.66-0.01,3.34,0,5.04c0,0.25,0,0.51,0,0.76c0.4,0.4,0.81,0.8,1.23,1.19c0.78,1.08,1.65,2.16,2.44,3.54c0.85,1.49,1.43,3,1.86,4.52c-0.05-0.11-0.08-0.22-0.13-0.32c-1.38-3.13-3.38-5.8-5.39-8.43c0.05,5.47,0.22,11.11,0.59,16.62c1.28,2.36,1.87,4.67,2.75,8.25c1.82,7.42,7.22,13.65,9.52,21.02c1.64,5.27,1.6,14.4,8.81,12.04c0.93-7.15-2.45-17.75-5.92-23.52c-2.02-3.35-4.05-5.89-5.5-9.73c-0.31-0.82-0.57-1.65-0.83-2.49c1.41-1.07,2.03-2.66,2.11-4.52c0.06,0.1,0.11,0.2,0.18,0.29c1.33,1.89,3.06,3.48,4.54,5.22c0.36,3.56,0.83,6.94,1.94,10.26c0.94,2.81,0.61,4.5,2.61,6.93c1.76,2.15,1.98,4.2,2.54,6.54c-0.01-0.77,0.04-1.58-0.08-2.46c-0.27-1.92-1.35-3.41-1.73-5.24c-0.51-2.49-1.49-5.92-1.63-8.71c2.01,5.57,4.01,11.92,7.32,10.99C278.86,319.21,274.6,314.49,272.23,311.74z"/><path fill="#0e0e0c" d="M113.5,256.06c-0.16-0.49-0.32-0.97-0.48-1.46c0.04-0.05,0.07-0.1,0.1-0.15c-0.07-0.07-0.14-0.14-0.21-0.21c-0.48-1.52-0.94-3.09-1.39-4.68c-0.55,0.27-1.16,0.74-1.85,1.41c-0.2-0.23-0.41-0.46-0.59-0.69h-1c-0.65,1.49-1.07,2.91-1.48,4.29c-2.96,3.92-6.17,9.22-7.13,13.79c-0.32,1.51-0.57,2.82-0.81,4c-2.6,6.97-6.47,14.33-7.1,21.84c-0.62,7.38,0.62,11.3-2.84,18.1c-3.08,6.06-4.73,11.47-4.04,18.35c1.54-5.34,6.07-8.85,7.83-13.99c0.06,3.58,0.89,7.15,0.58,10.65c-0.3,3.41-2.63,6-2.42,9.48c2.04-2.53,3.43-5.63,4.59-8.83c0.37,1.7,1.11,2.91,2.38,3.25c-0.42,3.84-0.15,7.6,3.42,9.2c1.19,0.53,2.12,0.72,2.85,0.65c0.64-0.06,1.13-0.32,1.49-0.73c1.18-1.35,1.05-4.31,0.55-7.24c1.41-3.27,3.04-7.72,4.8-13.88c0.09-4.29,0.14-8.58,0.32-12.92c0.34-8.04,0.56-20.55,6.9-26.12c0.29-0.25,0.17-1.48,0.19-1.83c0.32,0.18,0.62,0.39,0.91,0.62c0.32-2.04,0.63-4.15,0.95-6.33c-1.96-4.17-3.8-8.69-5.5-13.57C114.17,258.07,113.83,257.07,113.5,256.06z M99.59,293.75c-0.32,3.14-1.17,5.63-2.2,7.98c-0.07-0.21-0.13-0.42-0.2-0.63c-0.33-1.03-0.73-2.13-1.14-3.26c0.27-1.44,0.44-2.93,0.54-4.66c0.26-4.62,1.02-8.96,2.32-13.06c2.28-1.67,4.87-3.12,6.65-4.95c-0.06,0.82-0.15,1.61-0.24,2.37C102.75,282.49,100.14,288.43,99.59,293.75z M94.53,303.32c0.24,0.84,0.48,1.67,0.71,2.5c0.03,0.09,0.05,0.18,0.08,0.28c-0.66,1.4-1.31,2.88-1.88,4.51C93.6,308.19,93.71,305.92,94.53,303.32z M114.98,270.81c2.71,10.81-7.34,16.42-7.39,26.47c-0.03,5.61-1.59,11.29-3.01,17.02c-0.37-3.85-0.85-7.33-0.61-9.13c0.18-1.32,0.39-2.64,0.63-3.95c0.2-0.7,0.39-1.39,0.57-2.09c0.24-0.96,0.43-1.96,0.6-2.99c0.34-1.19,0.73-2.37,1.2-3.52c2.19-5.42,5.93-8.92,6.73-14.85c0.23-1.7,0.08-3.24-0.17-4.75C114.02,272.26,114.51,271.51,114.98,270.81z"/><path fill="#0e0e0c" d="M269.18,326.25c0.01,0.96,0.13,1.87,0.87,2.79C269.65,328.05,269.39,327.13,269.18,326.25z"/><path fill="#0e0e0c" d="M251.09,256.03h-0.5c0,0.01,0,0.02,0.01,0.02C250.76,256.05,250.92,256.06,251.09,256.03z"/></g><g class="facial-hair facial-hair-6"><linearGradient id="SVGID_2_592cd399bbc09" gradientUnits="userSpaceOnUse" x1="106.124" y1="272.5176" x2="254.1963" y2="272.5176">
<stop offset="0" style="stop-color:#917357;stop-opacity:0"/><stop offset="0.0127" style="stop-color:#0e0e0c;stop-opacity:0.0429"/><stop offset="0.0441" style="stop-color:#0e0e0c;stop-opacity:0.149"/><stop offset="0.0767" style="stop-color:#0e0e0c;stop-opacity:0.2593"/><stop offset="0.1098" style="stop-color:#0e0e0c;stop-opacity:0.3713"/><stop offset="0.1436" style="stop-color:#0e0e0c;stop-opacity:0.4857"/><stop offset="0.1783" style="stop-color:#0e0e0c;stop-opacity:0.6031"/><stop offset="0.2143" style="stop-color:#0e0e0c;stop-opacity:0.7246"/><stop offset="0.2523" style="stop-color:#0e0e0c;stop-opacity:0.8531"/><stop offset="0.2957" style="stop-color:#0e0e0c"/><stop offset="0.6774" style="stop-color:#0e0e0c"/><stop offset="1" style="stop-color:#0e0e0c;stop-opacity:0"/></linearGradient><path fill="url(#SVGID_2_592cd399bbc09)" fill-opacity="0.6" d="M254.04,227.24c-0.61,1.85-1.29,3.73-1.72,5.63c-0.22,0.99-0.42,2.19-0.77,3.13c-0.33,0.92-0.82,1.64-1.23,2.52c-0.8,1.7-1.29,3.74-1.79,5.53c-0.98,3.46-3.32,5.84-4.88,9c-1.54,3.13-2.05,6.08-4.68,8.73c-1.76,1.78-3.29,3.83-5.12,5.5c-1.41,1.29-2.97,2.18-4.4,3.4c-1.42,1.21-4.26,3.22-6.3,2.02c-1.49-0.88-1.49-3.56-2.15-4.84c-0.95-1.85-2.99-2.59-4.25-4.15c-1.67-2.07-2.48-4.53-4.63-6.36c-2.11-1.79-4.01-1.37-6.66-2.01c-2.11-0.51-4.01-1.78-6.16-2.38c-4.4-1.21-9.09-1.75-13.65-1.61c-3.01,0.09-5.91-0.18-8.85-0.34c-2.27-0.13-3.81,0.45-5.81,0.96c-2.58,0.66-5.19,0.6-7.82,0.71c-2.95,0.13-6.9,0.11-9.22,1.99c-1.62,1.31-3.44,2.49-4.84,4.05c-1.02,1.14-1.93,2.44-2.89,3.58c-1.63,1.94-3.04,4.22-4.92,5.95c-0.94,0.87-2.04,2.23-3.32,1.91c-0.69-0.17-2.08-1.74-2.71-2.3c-1.91-1.69-3.62-3.84-5.05-5.96c-1.63-2.41-3.37-4.58-5.07-6.95c-2.29-3.18-4.87-6.53-6.71-9.94c-1.07-1.98-2.85-4.12-3.28-6.29c-0.46-2.29-0.61-4.01-1.51-6.25c-0.89-2.23-7.24-17.19-7.5-15.45c-0.29,1.97,1.01,15.68,1.31,17.08c0.31,1.44,1.65,7.96,1.65,7.96c2.88,12.67,6.63,23.41,10.9,32.53c0.04,2.34,17.93,31.12,20.48,34.43c2.83,3.67,4.15,5.66,6.17,7.33c2.71,2.25,3.7,2.79,6.5,4.83c4.24,3.1,15,4.47,20.17,5.67c2.55,0.59,13.27,0.75,16.45,1.16c3.83,0.49,7.55-0.13,11.35-0.54c1.48-0.16,2.87-0.39,4.31-0.7c2.85-0.6,9.89-3.59,13.05-5.43c2.8-1.62,28.32-48.65,28.32-48.65c3.51-9.26,5.36-17.79,6.31-23.74c0.43-2.32,1.01-6.81,1.06-9.2c0.09-4.23-0.57-6.32-0.37-10.58C253.85,228.52,253.94,227.88,254.04,227.24z M208.38,296.3c-1.28,0.54-3.79,1.18-5.21,1.21c-1.63,0.03-2.95-0.82-4.5-1.01c-1.29-0.16-2.83,0.14-4.16,0.17c-2.15,0.05-3.88-0.18-5.71-0.39c-1.42-0.16-2.76,0.46-4.07,0.43c-1.54-0.04-3.21-0.04-4.72-0.03c-2.08,0.01-2.84-0.76-5.1-0.18c-2.05,0.52-3.67-0.23-5.77,0.06c-0.67,0.09-1.16,0.5-1.91,0.43c-1.07-0.09-2.06-1.19-3.18-1.33c-0.9-0.11-1.87,0.37-2.81,0.19c-0.99-0.19-1.77-0.9-2.77-1.15c-0.61-0.15-0.86,0.19-1.43,0.11c-2.61-0.37-5.86-2.19-6.89-4.75c-0.65-1.63-0.28-4.12-0.53-5.99c-0.28-2.06,0.31-4.32,0.2-6.56c-0.08-1.56,0.47-2.85,0.51-4.19l-0.33,1.33c-0.2-1.92,1.06-4.02,1.67-5.8c0.65-1.92,1.46-3.59,3.16-4.74c1.5-1.01,3.12-1.22,4.85-1.64c1.8-0.43,3.3-1.36,4.96-1.92c1.61-0.54,4.64-0.85,6.36-0.9c1.32-0.04,2.61,0.46,3.97,0.34c0.54-0.04,1.1-0.28,1.67-0.31c0.84-0.04,1.63,0.46,2.34,0.46c1.36,0.01,2.57-0.69,4-0.49c3.02,0.44,6.05,1.89,9.01,2.63c1.28,0.32,2.51,0.36,3.81,0.36c2.04,0.01,2.75,0.62,4.63,1.27c1.64,0.57,3.42,0.6,5.04,1.23c1.95,0.77,3.73,1.27,4.22,3.67c0.4,1.94-0.33,3.84,0.12,5.77c0.53,2.31,1.36,4.04,1.05,6.18c-0.34,2.29,0.21,4.21,1.19,6.04C213.88,290.27,211.91,294.81,208.38,296.3z"/></g><g class="nose nose-18"><path fill="#87694d" d="M186.01,198.89c-0.17,1.53-0.26,3.95-0.49,5.46c-0.58,3.86,0.9,6.29,0.88,10.24 c-0.02,6.65,6.48,12.91,4.38,19.46c-5.2-0.71-6.56-12.33-6.95-16.23c-0.33-3.31-1.14-7.11-1.01-10.49 c0.11-2.91,1.43-6.24,2.54-9.75C185.35,197.6,186.24,196.78,186.01,198.89z"/><path fill="#5f4125" d="M172,242.83c-2.06,0.37-6.05,2.25-5.47,4.97c1.36,0.29,3.74-1.15,4.97-1.65c1.45-0.59,3.06-1.74,3.15-3.46c-0.99-0.62-2.05-0.31-2.8,0.47"/><path fill="#5f4125" d="M192,243.83c-1.02-0.46-6.93-1.73-4.51,1.46c1.04,1.36,5.27,1.16,6.87,1.2c-0.52-0.61-1.66-2.17-2.36-3"/><path fill="none" stroke="#826448" stroke-miterlimit="10" d="M165.99,233.06c-2.27,2.02-4.23,4.18-6.21,6.46c-2.24,2.59-2.98,4.87-1.05,7.82c0.96,1.48,1.55,2.79,3.43,3.01c1.49,0.17,3.03,0.08,4.53,0.03c2.22-0.07,4.08-1.15,6.07-1.4c1.49-0.18,2.87,0.79,4.09,1.3c1.49,0.63,2.86,1.62,4.53,1.53c1.34-0.07,2.67-0.75,3.97-1.02c4.41-0.94,8.73,0.73,13.15-0.09c3.16-0.59,6.12-1.65,5.98-5.27c-0.13-3.29-2.46-5.3-4.49-7.49c-1.9-2.05-4.82-3.87-6.09-6.38c-1.5-2.96-4.11-5.49-4.96-8.72"/></g><g class="mouth mouth-21"><path fill="#EEEDEC" d="M156.98,274.06c-0.12,4,4.78,4.29,7.71,5.09c0.77,0.21,1.42,0.64,2.18,0.88c2.15,0.69,4.55,0.63,6.76,0.99c1.7,0.28,3.42,0.53,5.13,0.81c1.32,0.22,2.77,0.67,4.11,0.55c1.43-0.12,2.74-0.87,4.18-1.08c2.03-0.29,4.17-0.45,6.03-1.38c1.7-0.84,3.38-1.3,5.16-1.91c1.77-0.61,3.68-0.88,5.26-1.98c0.66-0.46,1.17-0.78,1.28-1.65c0.2-1.54-1.12-3.36-2.48-3.96c-1.43-0.63-3.31-0.58-4.84-0.79c-1.25-0.18-2.46-0.53-3.7-0.7c-1.11-0.15-2.25-0.03-3.37-0.16c-2.4-0.27-4.77-0.66-7.18-0.67c-2.63-0.01-5.04-0.13-7.62-0.62c-1.92-0.36-3.69-0.52-5.61-0.2c-1.04,0.17-1.99,0.38-2.98,0.78c-1.26,0.51-2.69,0.77-3.9,1.42c-1.35,0.72-3.09,1.41-4.25,2.34c-0.54,0.44-1.01,1.11-1.4,1.67c-0.53,0.77-0.28,1.15-0.46,1.83"/><path fill="#5F3836" d="M157.61,276.99c-0.02-0.7,0.88-1.23,1.25-1.74c0.38-0.54,0.56-1.09,1.04-1.53c0.76-0.69,1.29-0.57,2.24-0.69c0.51-0.06,0.36-0.07,0.85-0.29c0.44-0.19,0.74-0.28,1.2-0.36c0.99-0.19,2.08-0.27,3.1-0.22c0.93,0.04,1.62-0.12,2.53-0.24c1.24-0.16,2.12,0.43,3.26,0.48c0.76,0.03,1.45-0.2,2.2-0.26c0.98-0.07,2.1-0.26,3.09-0.06c1.18,0.24,2.11,0,3.38,0c0.79,0,1.51,0.17,2.22,0.23c0.76,0.06,1.9-0.22,2.65-0.39c1.1-0.25,1.88-0.07,3,0.23c1.83,0.48,4.58,0.44,6.41,0.35c0.62-0.03,1.2-0.37,1.85-0.26c0.35,0.06,0.58,0.29,0.88,0.38c0.8,0.24,1.7,0.04,2.44,0.51c0.61,0.39,1.27,0.94,1.84,1.4c1.1,0.9,1.57,1.03,2.9,0.15c0.59-0.39,0.94-0.8,1.26-1.41c0.37-0.71,0.59-1.1-0.23-1.51c-1.16-0.57-2.74-0.67-4.01-0.97c-2.69-0.64-5.53-0.16-8.21-0.88c-2.06-0.55-4.29-0.68-6.42-0.77c-1.47-0.07-2.95-0.08-4.43-0.08c-1.53,0-2.92-0.25-4.41-0.4c-2.26-0.22-4.44-0.15-6.69-0.16c-1.82-0.01-3.48,0.61-5.24,0.87c-1.84,0.27-3.67-0.41-5.51-0.14c-1.01,0.15-2.02,0.64-2.95,1.02c-1.84,0.75-3.71,1.51-5.55,2.2c-0.67,0.25-1.31,0.49-0.97,1.37c0.23,0.6,1.06,1.17,1.51,1.6c1.2,1.13,1.96,1.21,3.49,1.1c0.13,0.14,0.05,0.18,0.01,0.31"/><path fill="#7d5f43" fill-opacity="1" d="M151.75,272.79c0.88,1.26,1.68,2.46,2.26,3.83c0.81,1.94,1.92,2.78,3.3,4.25c2.35,2.5,4.45,5.88,7.65,7.29c1.56,0.69,3.28,1.02,4.83,1.87c1.6,0.87,2.49,1.16,4.44,1.15c4.02-0.01,8.11-0.15,12.1,0.2c6.02,0.53,10.79-3.85,14.93-7.83c3.05-2.94,7.31-7.56,7.39-12.01c-2.96,1.68-5.08,3.03-8.38,3.92c-1.36,0.36-2.69,0.83-4.09,1.15c-1.45,0.33-3.21,0.33-4.67,0.9c-2.85,1.11-6.54,3.07-9.64,3.06c-3.28-0.01-6.78-1.08-9.83-2.09c-3.65-1.21-7.01-1.9-10.79-2.51c-2.52-0.41-7.31-1-9.19-2.85"/><path fill="#87694d" d="M152.7,273.66c7.69-1.9,20.94-3.27,27.11-3.25c7.63,0.02,10.08,0.39,17.76,1.11c1.71,0.16,7.57,1.15,9.2,0.95c4.54-0.55-1.14-2.53-2.7-3.45c-2.72-1.61-5.66-3.17-8.54-4.36c-3.09-1.27-7.63-2.32-9.2-2.33c-1.73-0.01-8.04-0.3-9.68-0.16c-3.12,0.27-3.18,0.24-6.25,0.24c-2.98,0-17.76,6.6-18.31,9.27C151.89,272.54,151.59,273.83,152.7,273.66"/></g></svg>