<svg class="face" xmlns="http://www.w3.org/2000/svg" xmlns:xlink="http://www.w3.org/1999/xlink" x="0px" y="0px" width="357px" height="358px" viewBox="0 0 357 358"><path fill="#dfa192" d="M268.5,189.04c-1.41-1.92-2.86-2.74-4.22-2.91c-3.96-0.47-7.28,4.62-7.28,4.62c2.38-21.04,0-32.96,0-32.96c-16.83-65.56-65.84-69.37-76.8-69.39c-0.71,0.02-1.44,0.04-2.2,0.06c-54,1.42-71.5,44.58-71.5,44.58c-9,12.5-4,61.55-4,61.55c-21-12.95-1.5,45.45-1.5,45.45c5,13.5,8,1,8,1c2.88,12.67,6.63,23.41,10.9,32.53c0.85,44.99,1.74,68.73,1.44,83.43c23.33,0,116.79,0,123.83,0l1.52-85.32c6.58-17.33,7.31-32.14,7.31-32.14c2.5,3,6.5,1.5,6.5,1.5C272.75,234.79,268.5,189.04,268.5,189.04z M255.96,199.92C255.93,200.18,255.94,200.15,255.96,199.92L255.96,199.92z M256.22,197.67c0.03-0.3,0.07-0.64,0.11-1.01C256.29,197.01,256.25,197.35,256.22,197.67z M256.82,192.32c0.06-0.55,0.11-0.99,0.14-1.26C256.91,191.5,256.87,191.92,256.82,192.32z M265.33,190.26c-0.04-0.16-0.09-0.37-0.16-0.62c-0.13-0.5-0.31-1.2-0.54-2.1c0.22,0.86,0.4,1.58,0.54,2.1C265.24,189.9,265.29,190.1,265.33,190.26C265.47,190.79,265.48,190.83,265.33,190.26z"/><path fill="#da9c8d" d="M125.25,227.25c4.5-6.5,6.97-8.84,12.65-10c4.87-0.99,13.28-2.45,17.35-5.75c9.63-7.79,13.17-20.35,5.59-28.43c-4.32-4.6-7.03-7.3-13.05-8.81c-4.83-1.22-11.04-2.16-15.05-6.1c-7.84-7.69-11.29-20.73-10.82-31.2c0.41-8.95,9.17-18.79,15.15-24.83c7.04-7.12,15.71-14.12,23.72-20.42c-40.38,8.84-54.04,42.51-54.04,42.51c-9,12.5-4,61.55-4,61.55c-21-12.95-1.5,45.45-1.5,45.45c5,13.5,8,1,8,1c2.89,12.7,6.64,23.46,10.93,32.59c-0.78,38.87,1.32,70.54,1.15,83.21c7.79,0.1,53.6-30.51,61.45-32.32C179.16,318.81,113.75,264.75,125.25,227.25z"/><g class="eyes eyes-8"><path fill="#ffffff" fill-opacity="0.7" d="M125.65,196.01c5.16-0.65,8.73-4.66,14.5-5c5.9-0.34,9.51,2.28,12.05,7.5c-2.21,3.43-23.14,0.68-26.55-2"/><path fill="#ffffff" fill-opacity="0.7" d="M206.65,196.51c5.14-0.88,8.39-4.48,14.5-4c3.63,0.28,13.38,2.66,11.41,7.93c-8.8,2.55-17.06,2.17-24.91-3.43"/><path fill="#887435" d="M138.65,193.18c-4.59,4.13,2.7,8.07,6.68,5.08c5.02-3.77-3.68-7.24-7.02-5.08"/><path fill="#887435" d="M217.98,193.51c-3.32,0.64-2.99,6.32,0,7.6c3.16,1.35,7.51-1.13,7.27-4.54c-2.91-1.7-4.18-2.46-7.61-3.06"/></g><g class="eyebrows eyebrows-6"><path fill="#28130e" fill-opacity="0.9" d="M119.33,195c0.74-3.9,2.84-7.79,6-10.18c1.94-1.47,4.57-2.44,6.57-3.65c2.44-1.48,4.96-1.74,7.4-0.16c4.14,2.67,8.63-0.43,12.74,1.1c2.92,1.09,6.48,3.07,8.12,5.88c0.84,1.43,0.37,3.01-1.6,3.02c-2.48,0.02-4.47-1.71-6.74-2.02c-4.44-0.61-9.01-0.13-13.47-0.5c-1.99-0.16-4.54-0.52-6.54-0.17c-1.63,0.28-2.55,1.52-3.95,2.38c-3.14,1.93-7.13,2.6-9.56,5.4c0.3-0.57,0.74-0.88,1.36-0.94"/><path fill="#28130e" fill-opacity="0.9" d="M200.83,188c0.67-2.73,4.53-5.59,6.93-6.83c3.15-1.63,7.54-1.51,11.04-1.34c3.83,0.19,6.89-1.51,10.83-0.29c2.02,0.62,3.93,0.96,6.21,0.96c2.66,0,2.83,0.67,4.53,2.33c1.18,1.15,2.95,2.21,3.77,3.67c0.84,1.48,1.6,3.19,2.36,4.67c0.5,0.98,0.38,1.78,0.61,2.79c-0.66-0.6-1.35-1.29-2.11-1.79c-1.99-1.32-3.83-0.68-6-1.17c-1.49-0.34-2.32-1.59-3.67-2.16c-3.62-1.54-7.45-2.03-11.34-2.17c-4.61-0.17-9.03-2.32-13.2,0.62c-1.62,1.14-2.29,1.18-4.13,1.54c-1.7,0.33-2.86,1.66-4.67,0.67c-1.08-0.59-1.82-1.98-0.83-3.17"/></g><g class="chin chin-10"><path fill="none" stroke="#da9c8d" d="M144.75,317c4.72,4.93,10.18,12.44,16.21,16.25c6.55,4.13,15.05,3.98,22.54,4.25 c6.14,0.22,11.47-0.55,17.22-1.82c5.8-1.28,8.92-5.1,12.96-9.48c2.12-2.3,3.4-5.7,5.32-7.7"/></g><g class="hair hair-6"><linearGradient id="hair_1_5340ad38dfc66" gradientUnits="userSpaceOnUse" x1="179.708" y1="211.418" x2="179.708" y2="89.4009"><stop offset="0" style="stop-color:#dfa192;stop-opacity:0"/><stop offset="#da9c8d" style="stop-color:#d59788;stop-opacity:0.4462"/><stop offset="0.7312" style="stop-color:#28130e"/></linearGradient><path fill="url(#hair_1_5340ad38dfc66)" fill-opacity="1" d="M111.39,211.42c-1.58-15.84,1.49-27.82,4.36-42.79c1.56-8.1,1.74-12.06,5.25-19.75c2.13-4.67,2.88-19.52,6.66-23.78c5.19-2.78,21.77-12.47,29.96-13.84c16.39-2.74,44.38-5.05,59.23,2.27c5.12,2.52,10.81,5.15,14.31,9.44c3.91,4.79,4.05,10.48,5.73,16.57c1.54,5.58,2.84,11.1,4,16.8c1.19,5.84,4.25,10.36,6.06,16.15c3.46,11.05,4.02,22.4,6.37,33.5c1.06-1.55,1.96-3.2,2.74-4.91c0-0.03,0-0.03,0,0c1.71-3.78,1.05-9.32,1.05-9.32c2.38-21.04,0-32.96,0-32.96c-16.83-65.56-65.84-69.37-76.8-69.39c-0.71,0.02-1.44,0.04-2.2,0.06c-54,1.42-71.5,44.58-71.5,44.58c-9,12.5-4,61.55-4,61.55C102.06,195.24,105.3,209.96,111.39,211.42z M257.09,192.06c-0.05,0.44-0.1,0.86-0.14,1.26C257.01,192.77,257.06,192.33,257.09,192.06z M128.41,124.35c0.3-0.26,0.62-0.49,0.95-0.68L128.41,124.35z"/></g><g class="nose nose-13"><path fill="#d59788" d="M186.01,198.89c-0.17,1.53-0.26,3.95-0.49,5.46c-0.58,3.86,0.9,6.29,0.88,10.24 c-0.02,6.65,6.48,12.91,4.38,19.46c-5.2-0.71-6.56-12.33-6.95-16.23c-0.33-3.31-1.14-7.11-1.01-10.49 c0.11-2.91,1.43-6.24,2.54-9.75C185.35,197.6,186.24,196.78,186.01,198.89z"/><path fill="#ad6f60" d="M172.83,241.33c-2.35-0.01-5.7,2.37-5.81,4.81c2.4,0.37,3.86-1.31,6.14-1.77c3.53-0.72,1.66-2.12-0.5-3.04"/><path fill="#ad6f60" d="M190.67,242.5c-1.77-0.29-3.34,1.11-4.35,2.34c0.96,1.44,3.2,0.93,4.69,1c1.62,0.08,2.97,0.55,4.64,0.47c1.02-2.11-3.54-4.46-5.31-3.81"/><path fill="none" stroke="#d09283" stroke-miterlimit="10" d="M166,230.66c-0.08,1.35-1.71,3.11-2.37,4.32c-0.74,1.34-1.5,2.58-2,4.05c-1.08,3.13-1.4,5.65,0.87,8.46c3.9,4.84,10.42,0.77,15.64,2.36c3.02,0.92,5.75-0.68,9.02-0.53c3.38,0.15,7.32,1.16,10.64,0.3c2.45-0.64,4.7-1.64,6.03-3.96c1.64-2.84,0.83-4.9-0.5-7.68c-1.13-2.36-2.28-4.36-4.2-6.28c-2.3-2.29-3.86-3.87-5.46-6.71"/></g><g class="mouth mouth-6"><path fill="#F4E0D0" d="M165.52,269.25c-2.52-1.55-4.95-2.13-7.84-1.54c-1.54,0.31-3.37,1.21-2.3,3.25c0.52,0.99,2.69,2.25,3.52,3.03c1.69,1.6,3.37,2.33,5.54,3.27c3.58,1.55,7.49,1.53,11.4,2.26c2.55,0.48,4.49,0.35,7.1-0.11c4.95-0.88,10.08-0.15,14.63-2.52c3.31-1.73,7.1-2.94,8.04-6.9c-1.91-1.19-6.19-1.33-8.47-0.89c-4.55,0.87-8.7,2.2-13.63,1.51c-4.02-0.56-8.06-1.69-12.23-1.73c-2.29-0.02-5.72,0.36-7.65-0.75"/><path fill="#854B3E" d="M153.33,268.88c1.56,0.95,1.84,0.69,3.03,2.23c1.17-0.71,2.67,0.73,3.76,0.58c1.86-0.26,2.13-0.3,2.96,0.75c-0.52-3.31,5.24-2.96,4.69,0.66c-0.83-3.53,4.78-2.96,4.89,0.08c1.07-0.41,1.24-1.27,2.43-1.66c0.84-0.27,1.64-0.14,2.47-0.05c2.57,0.26,2.17,1.2,3.14,3.18c-0.22-1.79,1.6-3.26,3.01-3.7c2.5-0.78,2.87,0.74,4.63,1.85c0.82-2.57,3.9-1.07,4.93,0.23c0.93-1.02,3.71-4.08,4.81-1.52c-0.25,0.01-0.56,0.03-0.82-0.01c3.16-0.16,8.3,0.67,10.67-2.62c-1.16-0.99-2.75-0.61-4.19-0.8c-1.32-0.17-2.45-0.82-3.72-1.04c-2.9-0.51-6.25,0.37-9.19,0.51c-5.71,0.27-11.04-0.81-16.69,0.23c-2.47,0.46-4.98,0.35-7.5,0.34c-2.38-0.01-4.58,1.12-6.94,0.94c-1.18-0.09-7.72-3-5.81,0.75"/><path fill="#d59788" d="M151.83,268.5c1.36-0.04,3.47-1.87,4.85-2.45c2.02-0.85,4.04-2.04,6.11-2.75c4.1-1.4,8.67-1.74,13-1.74c4.63,0,8.87,1.07,13.36,1.5c1.58,0.15,2.96,0.53,4.5,0.75c1.62,0.23,3.06-0.16,4.65,0c3.62,0.35,6.81,4.88,10.51,4.91c0.13,0.15,0.41,0.5,0.54,0.68c-4.5,1.47-9.55,1.96-14.38,1.72c-4.14-0.21-8.52,0.43-12.73,0.79c-1.98,0.17-3.94,0.81-5.83,0.9c-2.61,0.12-5.13-0.33-7.7-0.57c-3.3-0.31-6.63-0.67-9.89-1.16c-1.12-0.17-2.67-0.1-3.79-0.47c-1.09-0.35-1.86-1.38-2.81-1.93"/><path fill="#a7696a" fill-opacity="0.9" d="M152.4,269.63c1.64,0.84,2.69,3.11,3.93,4.51c1,1.12,1.69,2.29,2.58,3.41c1.28,1.61,2.92,1.99,4.5,3.19c1.64,1.25,3.19,2.46,5.16,3.46c4.42,2.25,9.71,2.34,14.62,2.82c3.59,0.35,8.7,0.58,11.4-1.83c2.92-2.6,6.12-4.93,8.62-7.92c2.14-2.56,5.07-4.94,5.34-8.3c-1.34,0.05-1.99,0.53-3.04,1.27c-1.29,0.89-2.81,1.45-4.04,2.33c-1.3,0.93-2.29,2.12-3.74,2.85c-2.28,1.16-5.1,1.51-7.66,1.89c-4.13,0.61-7.94-0.6-12.17-0.89c-3.59-0.25-7.55,1.5-10.84-0.09c-2.32-1.13-4.48-3.09-6.98-3.93c-2.73-0.92-4.52-1.42-6.79-3.5c-0.43,0.15-0.85,0.46-1.06,0.87c0.38,0.03,0.32,0.27,0.54,0.42"/></g></svg>