<svg id="s57da0c32dedcb" class="face" xmlns="http://www.w3.org/2000/svg" xmlns:xlink="http://www.w3.org/1999/xlink" x="0px" y="0px" width="357px" height="358px" viewBox="0 0 357 358"><path fill="#ddb7aa" d="M268.5,189.04c-1.41-1.92-2.86-2.74-4.22-2.91c-3.96-0.47-7.28,4.62-7.28,4.62c2.38-21.04,0-32.96,0-32.96c-16.83-65.56-65.84-69.37-76.8-69.39c-0.71,0.02-1.44,0.04-2.2,0.06c-54,1.42-71.5,44.58-71.5,44.58c-9,12.5-4,61.55-4,61.55c-21-12.95-1.5,45.45-1.5,45.45c5,13.5,8,1,8,1c2.88,12.67,6.63,23.41,10.9,32.53c0.85,44.99,1.74,68.73,1.44,83.43c23.33,0,116.79,0,123.83,0l1.52-85.32c6.58-17.33,7.31-32.14,7.31-32.14c2.5,3,6.5,1.5,6.5,1.5C272.75,234.79,268.5,189.04,268.5,189.04z M255.96,199.92C255.93,200.18,255.94,200.15,255.96,199.92L255.96,199.92z M256.22,197.67c0.03-0.3,0.07-0.64,0.11-1.01C256.29,197.01,256.25,197.35,256.22,197.67z M256.82,192.32c0.06-0.55,0.11-0.99,0.14-1.26C256.91,191.5,256.87,191.92,256.82,192.32z M265.33,190.26c-0.04-0.16-0.09-0.37-0.16-0.62c-0.13-0.5-0.31-1.2-0.54-2.1c0.22,0.86,0.4,1.58,0.54,2.1C265.24,189.9,265.29,190.1,265.33,190.26C265.47,190.79,265.48,190.83,265.33,190.26z"/><path fill="#d8b2a5" d="M125.25,227.25c4.5-6.5,6.97-8.84,12.65-10c4.87-0.99,13.28-2.45,17.35-5.75c9.63-7.79,13.17-20.35,5.59-28.43c-4.32-4.6-7.03-7.3-13.05-8.81c-4.83-1.22-11.04-2.16-15.05-6.1c-7.84-7.69-11.29-20.73-10.82-31.2c0.41-8.95,9.17-18.79,15.15-24.83c7.04-7.12,15.71-14.12,23.72-20.42c-40.38,8.84-54.04,42.51-54.04,42.51c-9,12.5-4,61.55-4,61.55c-21-12.95-1.5,45.45-1.5,45.45c5,13.5,8,1,8,1c2.89,12.7,6.64,23.46,10.93,32.59c-0.78,38.87,1.32,70.54,1.15,83.21c7.79,0.1,53.6-30.51,61.45-32.32C179.16,318.81,113.75,264.75,125.25,227.25z"/><g class="eyes eyes-4"><path fill="#ffffff" fill-opacity="0.7" d="M124,205.83c2.64-0.81,5.24-3.03,7.68-4.38c3.14-1.73,6.83-2.29,10.41-2.63c2.53-0.23,3.64,0.09,6.08,0.45c1.82,0.27,6.05,1.44,7.12,3.18c-2.39,1.48-5.34,1.84-7.91,2.38c-2.49,0.52-4.62,1.37-7.12,2.06c-5.28,1.45-11.37,1.34-16.42-0.9"/><path fill="#ffffff" fill-opacity="0.7" d="M203.17,200.5c4.6-5.53,11.99-5.66,18.33-4c2.39,0.63,4.77,1.1,7.04,2.17c2.36,1.11,4.1,3.26,6.75,3.66c-1.69,0.26-3.22,1.19-4.95,1.34c-1.29,0.11-2.51-0.23-3.82-0.17c-2.98,0.14-5.7,0.71-8.63,0.16c-2.79-0.53-5.67-1.12-8.38-1.66C207.45,201.59,204.7,202.07,203.17,200.5"/><path fill="#504040" d="M134.51,201.43c-1.55,0.78,1.05,3.78,1.89,4.38c1.36,0.98,4.15,1.44,5.81,0.75c1.58-0.65,2.89-2.5,2.97-3.88c0.09-1.58-2-3.01-3.79-3.3c-2.82-0.46-5.05,0.62-6.87,2.14"/><path fill="#504040" d="M214.62,200.98c0.98,0.92,6.99,3.54,8.66,2.56c1.51-0.89,3.08-1.38,2.8-3.41c-0.25-1.84-1.93-3.13-3.59-3.37c-1.82-0.26-4.3-1.41-6.16-1.04C216.33,195.71,212.62,199.09,214.62,200.98z"/></g><g class="eyebrows eyebrows-22"><path fill="#764932" fill-opacity="0.7" d="M123.3,197.5c0,0,17.1-12.1,40.4-5.6c0.3,0.1,0.6,0.2,0.9,0.2c23.8,7.1-21.5-11.2-28.5-10.9C136,181.2,123.3,192.3,123.3,197.5z"/><path fill="#764932" fill-opacity="0.7" d="M197.7,192.1c0,0,25-4.4,37.3,3.6c0,0-2-9-11.7-14.5C223.3,181.2,207.9,182.8,197.7,192.1z"/></g><g class="chin chin-2"><path display="inline" fill="none" stroke="#d8b2a5" stroke-miterlimit="10" d="M141.33,306c2.85,2.31,3.41,3.39,6.14,5.75c3.06,2.64,8.02,6.85,11.86,8.01c7.8,2.35,13.18,6.99,21.78,7.24c7.86,0.23,16.24-4.27,22.96-7.98c7.54-4.17,14.8-10.01,20.59-16.02"/></g><g class="hair hair-19"><linearGradient id="hair_57da0c32dfd6d" gradientUnits="userSpaceOnUse" x1="179.6572" y1="175.0048" x2="179.6572" y2="89.4009"><stop offset="0" style="stop-color:#764932;stop-opacity:0"/><stop offset="0" style="stop-color:#764932;stop-opacity:0"/><stop offset="0.05" style="stop-color:#764932;stop-opacity:0.05"/><stop offset="0.1297" style="stop-color:#764932;stop-opacity:0.1894"/><stop offset="0.1995" style="stop-color:#764932;stop-opacity:0.2912"/><stop offset="0.2731" style="stop-color:#764932;stop-opacity:0.3987"/><stop offset="0.3521" style="stop-color:#764932;stop-opacity:0.514"/><stop offset="0.4388" style="stop-color:#764932;stop-opacity:0.6405"/><stop offset="0.5391" style="stop-color:#764932;stop-opacity:0.787"/><stop offset="0.685" style="stop-color:#764932"/><stop offset="0.7087" style="stop-color:#764932"/><stop offset="0.8249" style="stop-color:#764932"/><stop offset="0.9259" style="stop-color:#764932"/><stop offset="1" style="stop-color:#764932"/></linearGradient><path fill="url(#hair_57da0c32dfd6d)" fill-opacity="0.5" d="M180.3,89.4c-0.7,0-1.4,0-2.2,0.1c-54,1.4-71.5,44.6-71.5,44.6c-4.9,6.9-5.7,24.7-5.3,39.5l9.9,1.5c0,0,6.7-14.3,8.5-16.1c1.8-1.8,3.8-26.6,3.8-26.6s12-13.2,36.8-14.9c0,0,16.4-3.8,25.4-3.8c0,0,15.8,2.9,26.6,6.7c0,0,16.1,6.4,17,6.7c0.9,0.3,8.5,7,8.5,7l2,20.8l7,13.4l5,6.7l6.2-6.2c-0.3-6.5-1-10-1-10C240.3,93.2,191.3,89.4,180.3,89.4z"/></g><g class="nose nose-4"><path fill="#d3ada0" d="M186.01,198.89c-0.17,1.53-0.26,3.95-0.49,5.46c-0.58,3.86,0.9,6.29,0.88,10.24 c-0.02,6.65,6.48,12.91,4.38,19.46c-5.2-0.71-6.56-12.33-6.95-16.23c-0.33-3.31-1.14-7.11-1.01-10.49 c0.11-2.91,1.43-6.24,2.54-9.75C185.35,197.6,186.24,196.78,186.01,198.89z"/><path fill="#ab8578" d="M171.75,240.75c-2.35-2.73-3.43-3.67-7.21-3.46c-0.48,1.84-3.28,4,0.46,5.23c1.09,0.36,2.6-0.19,3.75-0.02c1.39,0.2,2.14,0.97,3.71,0.73c0.05-1.04,0.05-2.13,0-3.17c-0.57-0.04-1.4-0.18-1.96-0.04"/><path fill="#ab8578" d="M182.5,243c2.33-0.96,3.32-2.52,6.26-2.81c1.82-0.18,4.62,0.63,3.96,3.52c-2.78,1.42-7.23,0.74-9.46-0.96"/><path fill="none" stroke="#cea89b" stroke-miterlimit="10" d="M161.5,223.5c2.03,5.16-3.05,6.6-4.56,10.75c-1.43,3.93,1.93,8.02,5.26,10.07c1.73,1.07,3.5,0.51,5.29,1.24c2,0.82,3.77,2.3,5.76,3.19c1.87,0.84,4.05,1.76,6.26,1.26c2.54-0.57,4.2-2.21,6.99-1.82c4.49,0.63,7.81,0.77,11.18-2.74c2.46-2.56,4.78-7.35,3.07-10.7"/></g><g class="mouth mouth-24"><path fill="#a7696a" fill-opacity="0.9" d="M150.621,275.814c0,0,37.886,18.5,59.761-2.333v-1.166C210.382,272.314,150.151,267.98,150.621,275.814z"/><path fill="#d3ada0" d="M150.621,274.314c0,0,11.636-9.5,31.636-8c0,0,15.75-1.999,28.125,6c0,0-25.292,3.833-31.125,4.333C179.257,276.647,153.484,274.814,150.621,274.314z"/></g></svg>