<svg id="s56e8470adc875" class="face" xmlns="http://www.w3.org/2000/svg" xmlns:xlink="http://www.w3.org/1999/xlink" x="0px" y="0px" width="357px" height="358px" viewBox="0 0 357 358"><path fill="#9a593b" d="M268.5,189.04c-1.41-1.92-2.86-2.74-4.22-2.91c-3.96-0.47-7.28,4.62-7.28,4.62c2.38-21.04,0-32.96,0-32.96c-16.83-65.56-65.84-69.37-76.8-69.39c-0.71,0.02-1.44,0.04-2.2,0.06c-54,1.42-71.5,44.58-71.5,44.58c-9,12.5-4,61.55-4,61.55c-21-12.95-1.5,45.45-1.5,45.45c5,13.5,8,1,8,1c2.88,12.67,6.63,23.41,10.9,32.53c0.85,44.99,1.74,68.73,1.44,83.43c23.33,0,116.79,0,123.83,0l1.52-85.32c6.58-17.33,7.31-32.14,7.31-32.14c2.5,3,6.5,1.5,6.5,1.5C272.75,234.79,268.5,189.04,268.5,189.04z M255.96,199.92C255.93,200.18,255.94,200.15,255.96,199.92L255.96,199.92z M256.22,197.67c0.03-0.3,0.07-0.64,0.11-1.01C256.29,197.01,256.25,197.35,256.22,197.67z M256.82,192.32c0.06-0.55,0.11-0.99,0.14-1.26C256.91,191.5,256.87,191.92,256.82,192.32z M265.33,190.26c-0.04-0.16-0.09-0.37-0.16-0.62c-0.13-0.5-0.31-1.2-0.54-2.1c0.22,0.86,0.4,1.58,0.54,2.1C265.24,189.9,265.29,190.1,265.33,190.26C265.47,190.79,265.48,190.83,265.33,190.26z"/><path fill="#955436" d="M125.25,227.25c4.5-6.5,6.97-8.84,12.65-10c4.87-0.99,13.28-2.45,17.35-5.75c9.63-7.79,13.17-20.35,5.59-28.43c-4.32-4.6-7.03-7.3-13.05-8.81c-4.83-1.22-11.04-2.16-15.05-6.1c-7.84-7.69-11.29-20.73-10.82-31.2c0.41-8.95,9.17-18.79,15.15-24.83c7.04-7.12,15.71-14.12,23.72-20.42c-40.38,8.84-54.04,42.51-54.04,42.51c-9,12.5-4,61.55-4,61.55c-21-12.95-1.5,45.45-1.5,45.45c5,13.5,8,1,8,1c2.89,12.7,6.64,23.46,10.93,32.59c-0.78,38.87,1.32,70.54,1.15,83.21c7.79,0.1,53.6-30.51,61.45-32.32C179.16,318.81,113.75,264.75,125.25,227.25z"/><g class="eyes eyes-14"><path fill="#ffffff" fill-opacity="0.7" d="M221.18,197.8c-0.65-0.39-1.29-0.73-1.93-1.03c-0.03,1.04-0.09,2.12-0.46,2.86c-0.78,1.54-3.02,2.85-4.5,3.66c-1.9,1.03-3.99,1.19-5.78-0.03c-1.41-0.96-3.77-2.77-4.47-4.41c-0.2-0.46-0.27-0.98-0.25-1.52c-2.38,1.37-3.84,3.33-5.61,5.17c2,1.26,5.11,2.19,7.5,2.5c2.7,0.35,5.76-0.15,8.34-0.54c2.31-0.34,4.29-1.69,6.49-1.96c1.5-0.19,2.8-0.58,4.17-0.84c1.3-0.24,2.36,0.54,3.62,0.34C225.63,201.67,223.38,199.12,221.18,197.8z"/><path fill="#504040" d="M204.03,198.85c0.69,1.63,3.06,3.45,4.47,4.41c1.79,1.22,3.89,1.06,5.78,0.03c1.48-0.8,3.72-2.12,4.5-3.66c0.37-0.74,0.43-1.82,0.46-2.86c-1.99-0.93-4.01-1.43-6.41-1.43c-3.39,0-5.89,0.25-8.83,1.86c-0.08,0.04-0.14,0.09-0.22,0.13C203.76,197.87,203.83,198.38,204.03,198.85z"/></g><g><path fill="#ffffff" fill-opacity="0.7" d="M157.67,197.54c-0.26-0.16-0.53-0.3-0.8-0.44c-0.06,0.67-0.22,1.38-0.34,2.15c-0.35,2.35-1.63,3.33-3.37,4.9c-1.73,1.57-3.23,2.08-5.66,1.6c-4.51-0.89-6.85-4.89-6-9.13h-0.13c-0.47-0.24-0.56-0.62-0.43-1.05c-2.71,1.05-5.11,2.85-6.73,5.35c0.68,1.39,4.13,2.87,5.62,3.58c2.85,1.36,4.65,2.04,7.84,2.16c2.55,0.1,5.14-0.89,7.37-1.82c2.87-1.2,4.15-2.95,7.45-3.21C160.88,200.34,159.45,198.63,157.67,197.54z"/><path fill="#504040" d="M141.38,196.63h0.13c-0.85,4.24,1.49,8.24,6,9.13c2.43,0.48,3.93-0.02,5.66-1.6c1.73-1.58,3.02-2.55,3.37-4.9c0.12-0.77,0.28-1.48,0.34-2.15c-1.79-0.89-3.89-1.38-5.7-1.93c-3.32-1.02-6.99-0.84-10.22,0.41C140.82,196.01,140.9,196.39,141.38,196.63z"/></g><g class="eyebrows eyebrows-13"><path fill="#141615" fill-opacity="0.4" d="M121,190.5c5.82-10.47,19.05-12,30.01-10.25c5.35,0.85,9.64,1.74,13.68,5.52c0.75,0.7,4.47,2.92,4.32,3.99c-0.31,2.24-5.16,0.96-6.27,0.74c-4.19-0.84-8.23-2.73-12.48-3.19c-3.51-0.38-7.49-0.35-11,0.25c-2.88,0.49-5.61,1.7-8.78,1.69c-3.49-0.01-6.59-0.48-9.75,1.25"/><path fill="#141615" fill-opacity="0.4" d="M195.25,186.75c2.22-2.8,5.53-4.17,8.49-5.94c3.9-2.32,11.4-3.28,15.75-3.06c3.69,0.18,15.32,4.97,15.21,9.71c-1.75-0.19-2.81,0.35-4.45,0.03c-1.41-0.27-2.56-0.76-4-0.99c-3.32-0.54-6.88-0.25-10.26-0.25c-6.99,0-13.37,2.11-20.21,1.71c-0.26-0.51-0.4-1.11-0.29-1.71"/></g><g class="chin chin-16"><path fill="none" stroke="#955436" stroke-width="0.917" stroke-miterlimit="10" d="M154.876,305.733c4.194,4.663,6.968,8.794,12.93,10.785c5.64,1.882,10.181,2.036,16.139,1.052c3.964-0.655,8.851-1.361,12.616-3.523c3.053-1.753,7.814-7.65,9.604-11.092"/></g><g class="hair hair-18"><path fill="#141615" fill-opacity="0.5" d="M257.1,158.8c-16.8-65.6-65.8-69.4-76.8-69.4c-0.7,0-1.4,0-2.2,0.1c-54,1.4-71.5,44.6-71.5,44.6c-8.1,11.2-4.9,51.7-4.1,60l2,0.9c0,0-3.9-41.7,16.3-52.7c0,0-4.3-17.9,6.4-26.9c0,0,14.6,6.2,31.8,8.2c17.2,2,24.9,2,27.9,0c0,0,24.5-2.3,30.9-5.1l16.3-1.2c0,0,8.6,7.8,11.2,30.4c0,0,17,12.1,8.8,47.2l3.2-3.8C259.5,170.5,257.1,158.8,257.1,158.8z"/></g><g class="nose nose-9"><path fill="#904f31" d="M186.01,198.89c-0.17,1.53-0.26,3.95-0.49,5.46c-0.58,3.86,0.9,6.29,0.88,10.24 c-0.02,6.65,6.48,12.91,4.38,19.46c-5.2-0.71-6.56-12.33-6.95-16.23c-0.33-3.31-1.14-7.11-1.01-10.49 c0.11-2.91,1.43-6.24,2.54-9.75C185.35,197.6,186.24,196.78,186.01,198.89z"/><path fill="#682709" d="M172.75,238c-1.79-0.07-4.57,0.06-6.16,0.87c-2.05,1.04,0.26,3.06,1.57,3.73c2.1,1.07,2.81-1.08,4.33-2.08c0.5-0.33,2.06-0.6,2.01-1.4c-0.05-0.77-1.75-0.99-2.26-1.25"/><path fill="#682709" d="M187.38,238.25c-0.84,0.02-1.74,0.25-2.48,0.65c0.04,0.72,3.23,1.92,4,2.23c1.44,0.57,3.65,0.49,4.75-0.78c1.31-1.49-0.44-2.71-2.15-2.85c-1.39-0.12-2.99,0.59-4.26,0.55c-0.11,0.13-0.23,0.25-0.38,0.33"/><path fill="none" stroke="#8b4a2c" stroke-miterlimit="10" d="M177.25,244.75c1.63-0.25,2.72-1.02,4.29-0.59c3.08,0.86,6.02,2.33,9.34,1.97c3.42-0.37,7.09-2.19,7.12-5.87c0.02-2.05-0.2-3.54-0.9-5.47c-0.31-0.85-0.5-1.85-0.94-2.65c-0.39-0.71-1.07-1.2-1.56-1.88c-1.25-1.76-2.02-3.82-3.23-5.62c-0.95-1.42-2.38-2.37-3.59-3.55c-2.2-2.15-2.99-5.33-3.91-8.19c-0.82-2.54-2.51-5.5-2.62-8.15"/></g><g class="mouth mouth-13"><path fill="#271011" d="M154.04,273.51c0.52,4.09,7.62,5.03,10.62,5.49c9.01,1.38,18.18,1.52,27.17,0.96c4.02-0.25,7.97-1.95,11.51-3.5c0.79-0.35,2.83-0.79,3.21-1.58c0.6-1.23-0.53-3.3-1.39-3.82c-0.17-0.1-0.05-0.16-0.15-0.29c-1.6-0.41-3.66-0.32-5.28-0.27c-9.56,0.32-18.88,0.02-28.37-1.08c-5.05-0.58-11.27-2.07-15.05,2.28c-0.63,0.72-1.25,2.1-2.41,1.93"/><path fill="#AFA9A3" d="M165.31,273.37c-0.94,0.51-0.06,2.88,0.41,3.66c0.82,1.38,1.79,1.15,3.35,1.15c2.38,0,4.53,0.05,6.83-0.54c2.42-0.63,4.37-0.83,6.89-0.83c1.95,0,3.57,0.6,5.42,0.69c2.43,0.12,5.01,0.11,7.37-0.44c1.28-0.3,3.35-0.59,4.48-1.24c1.29-0.75,0.6-1.62-0.35-2.57c-1.63-1.64-4.22-2.75-6.49-2.75c-1.92,0-4.56,2.16-6.47,2.07c-1.63-0.08-2.55,0.21-4.14,0.52c-2.87,0.56-6.48,0.31-9.42,0.03c-2.05-0.19-6.94-1.88-8.28,0.68"/><path fill="#904f31" d="M152.8,272.28c0.74-4.3,9.08-7.56,12.66-8.87c2.62-0.96,4.86-1.62,7.68-1.57c2.86,0.05,5.01,1.46,7.7,2.21c5.94,1.66,11.43-1.64,17.27-0.58c2.9,0.53,16.47,8.12,8.84,9.92c-1.7,0.4-4.23,0.08-5.97-0.01c-2.67-0.14-4.8-1.62-7.22-1.94c-2.52-0.34-4.71,1.38-7.06,1.75c-2.44,0.38-5.01,0.2-7.5,0.2c-4.78,0-9.81-1.22-14.58-1.38c-1.72-0.06-12.08,4.8-11.83,0.83"/><path fill="#864527" fill-opacity="1" d="M153.08,275.71c2.21,0.4,5.23,2.72,6.77,4.5c1.79,2.07,3.63,3.61,5.95,5.13c1.36,0.89,2.83,2.1,4.46,2.33c2.17,0.3,4.43,0.17,6.6,0.41c2.95,0.33,5.9,1.27,8.94,0.97c2.35-0.23,4.5-1.5,6.69-2.32c3.97-1.48,7.52-2.88,10.44-6.04c1.71-1.85,4.4-4.41,4.62-7.07c-4.04,2.24-8.19,1.56-12.79,1.8c-2.12,0.11-4.32,0.01-6.39,0.42c-2.18,0.43-4.2,0.75-6.44,0.85c-2.01,0.09-4.05,0.13-6.08,0.11c-2.04-0.02-3.69-0.75-5.65-0.96c-3.52-0.38-7.13-0.47-10.56-0.96c-2.02-0.29-4.99-0.59-6.71,0.55"/></g></svg>