<svg id="s56e84703250a5" class="face" xmlns="http://www.w3.org/2000/svg" xmlns:xlink="http://www.w3.org/1999/xlink" x="0px" y="0px" width="357px" height="358px" viewBox="0 0 357 358"><path fill="#a36649" d="M268.5,189.04c-1.41-1.92-2.86-2.74-4.22-2.91c-3.96-0.47-7.28,4.62-7.28,4.62c2.38-21.04,0-32.96,0-32.96c-16.83-65.56-65.84-69.37-76.8-69.39c-0.71,0.02-1.44,0.04-2.2,0.06c-54,1.42-71.5,44.58-71.5,44.58c-9,12.5-4,61.55-4,61.55c-21-12.95-1.5,45.45-1.5,45.45c5,13.5,8,1,8,1c2.88,12.67,6.63,23.41,10.9,32.53c0.85,44.99,1.74,68.73,1.44,83.43c23.33,0,116.79,0,123.83,0l1.52-85.32c6.58-17.33,7.31-32.14,7.31-32.14c2.5,3,6.5,1.5,6.5,1.5C272.75,234.79,268.5,189.04,268.5,189.04z M255.96,199.92C255.93,200.18,255.94,200.15,255.96,199.92L255.96,199.92z M256.22,197.67c0.03-0.3,0.07-0.64,0.11-1.01C256.29,197.01,256.25,197.35,256.22,197.67z M256.82,192.32c0.06-0.55,0.11-0.99,0.14-1.26C256.91,191.5,256.87,191.92,256.82,192.32z M265.33,190.26c-0.04-0.16-0.09-0.37-0.16-0.62c-0.13-0.5-0.31-1.2-0.54-2.1c0.22,0.86,0.4,1.58,0.54,2.1C265.24,189.9,265.29,190.1,265.33,190.26C265.47,190.79,265.48,190.83,265.33,190.26z"/><path fill="#9e6144" d="M125.25,227.25c4.5-6.5,6.97-8.84,12.65-10c4.87-0.99,13.28-2.45,17.35-5.75c9.63-7.79,13.17-20.35,5.59-28.43c-4.32-4.6-7.03-7.3-13.05-8.81c-4.83-1.22-11.04-2.16-15.05-6.1c-7.84-7.69-11.29-20.73-10.82-31.2c0.41-8.95,9.17-18.79,15.15-24.83c7.04-7.12,15.71-14.12,23.72-20.42c-40.38,8.84-54.04,42.51-54.04,42.51c-9,12.5-4,61.55-4,61.55c-21-12.95-1.5,45.45-1.5,45.45c5,13.5,8,1,8,1c2.89,12.7,6.64,23.46,10.93,32.59c-0.78,38.87,1.32,70.54,1.15,83.21c7.79,0.1,53.6-30.51,61.45-32.32C179.16,318.81,113.75,264.75,125.25,227.25z"/><g class="eyes eyes-16"><path fill="#ffffff" fill-opacity="0.7" d="M152.62,203c-0.51-0.07-1.04-0.14-1.58-0.2c1.09,1.83,0.9,4.22-1.55,6.5c-1.94,1.81-4.52,2.46-6.87,0.9c-1.57-1.04-3.3-3.79-3.32-6.1c-1.66,0.76-3.57,1.83-4.68,3.07c-1.13,1.26-2.88,2.57-3.45,4.15c2.78,0.3,5.44,0.29,8.2,0.02c2.79-0.27,5.86,0.51,8.59-0.17c1.24-0.31,2.62-0.63,3.91-0.85c1.38-0.24,2.5-0.31,3.89-0.52c2.21-0.34,4.48-1.58,6.72-1.83C161.77,204.75,155.25,203.36,152.62,203z"/><path fill="#1e2420" d="M142.63,210.2c2.34,1.56,4.92,0.91,6.87-0.9c2.45-2.28,2.64-4.67,1.55-6.5c-1.87-0.22-3.83-0.38-5.61-0.23c-1.96,0.16-5.57,1.08-5.88,1.42c-0.08,0.04-0.17,0.08-0.25,0.12C139.33,206.4,141.06,209.15,142.63,210.2z"/><path fill="#ffffff" fill-opacity="0.7" d="M224.38,207.13c-1.55-0.67-2.77-1.33-4.12-1.89c-0.07,0.48-0.21,0.97-0.42,1.47c-0.64,1.53-3.93,4.75-5.66,5.14c-4.34,0.98-8.58-5.45-6.93-9.17c-1.98,0.28-4.34,1.49-5.56,2.39c-1.42,1.05-2.42,2.56-3.97,3.47c4.47,4.16,13.07,3.72,18.78,3.72c3.55,0,10.75,0.81,13.96-0.75C228.55,210.05,226.59,208.09,224.38,207.13z"/><path fill="#1e2420" d="M214.18,211.84c1.72-0.39,5.01-3.61,5.66-5.14c0.21-0.5,0.35-0.99,0.42-1.47c-0.7-0.29-1.42-0.56-2.25-0.79c-2.12-0.6-3.36-1.36-5.63-1.56c-2.02-0.18-1.76-0.33-3.81-0.25c-0.4-0.05-0.85-0.02-1.32,0.05C205.6,206.39,209.84,212.82,214.18,211.84z"/></g><g class="eyebrows eyebrows-11"><path fill="#141615" fill-opacity="0.6" d="M110.5,195.67c0.83-3.17,4.41-7.04,6.63-9.37c1.53-1.6,3.78-2.51,5.37-4.13c1.43-1.47,2.82-2.57,4.47-3.79c5.14-3.83,11.26-2.4,17.14-3.54c4.69-0.91,10.05-0.3,14.18,1.93c3.42,1.85,5.55,2.89,5.68,6.88c-4.4,2.82-9.13,3.71-14.54,3.7c-2.54-0.01-4.64,0.38-6.96-0.45c-1.98-0.71-3.92-0.82-5.93-1.19c-2.14-0.4-4.47-1.46-6.67-1.2c-2.21,0.26-4.48,1.67-6.53,2.49c-3.84,1.54-6.55,4.22-10.13,6.35c-1.48,0.89-2.34,1.86-3.54,3"/><path fill="#141615" fill-opacity="0.6" d="M202,173c-4.71-0.38-9.26,3.05-12,6.5c-0.87,1.1-2.36,2.65-2.17,4.17c0.25,2.06,2.59,2.9,4.34,3c4.75,0.27,8.63-3.17,13.49-3.17c1.64,0,3.2,0.11,4.8,0.17c1.86,0.06,3.39-0.55,5.16-0.84c2.42-0.4,4.45-1.15,6.89-1.66c3.33-0.7,5.03,0.07,7.97,1.68c1.99,1.09,4.5,2.26,6.17,3.83c1.73,1.62,2.01,2.64,4.5,1.96c-0.09-1.35-2.05-3.33-2.85-4.47c-0.81-1.15-1.86-2.13-2.75-3.22c-2.31-2.82-4.34-5.22-7.88-6.47c-4.55-1.61-8.23-1.4-13.03-1.11c-3.87,0.23-8.11-1.4-11.96-0.72c-0.62,0.11-1.2,0.56-1.84,0.68"/></g><g class="chin chin-4"><path display="inline" fill="none" stroke="#9e6144" stroke-miterlimit="10" d="M148.67,321.33c2.9,4.97,9.55,7.09,14.17,9.33 c1.98,0.96,4.19,1.2,6.32,1.8c3.69,1.04,7.7,1.38,11.51,1.54c4.9,0.2,11.34,0.95,15.96-0.5c1.89-0.59,4.02-0.41,5.92-1.37 c1.37-0.69,2.61-1.58,3.92-2.33c2.71-1.57,6-3.24,8.38-5.25c1.9-1.61,3.95-3.63,6.16-4.71"/></g><g class="hair hair-14"><linearGradient id="hair_56e847032602c" gradientUnits="userSpaceOnUse" x1="179.7065" y1="258.1915" x2="179.7065" y2="153.4043"><stop offset="0" style="stop-color:#a36649;stop-opacity:0"/><stop offset="1" style="stop-color:#141615"/></linearGradient><path fill="url(#hair_56e847032602c)" d="M255.4,199.9c2.1-9,2.2-12.4,2.3-14.5c1.3-17.1-0.6-26.6-0.6-26.6c-16.8-65.6-65.8-69.4-76.8-69.4c-0.7,0-1.4,0-2.2,0.1c-54,1.4-71.5,44.6-71.5,44.6c-9,12.5-4,61.5-4,61.5c0.1,1.2,0.9,4.3,1.2,6.1c1.2-19.8,11.3-34.7,12.4-53.7c0.7-11.9,0.4-11.4,10.9-16.1c11.5-5.2,23.8-8.7,36.3-10.4c17.6-2.4,35.7-0.9,52.6,4.7c9.3,3.1,18.3,7.4,26.6,12.7c7.1,4.5,5.4,5.8,5.3,13.7C247.9,169.5,255.1,181.9,255.4,199.9z"/></g><g class="nose nose-22"><path fill="#995c3f" d="M186.01,198.89c-0.17,1.53-0.26,3.95-0.49,5.46c-0.58,3.86,0.9,6.29,0.88,10.24 c-0.02,6.65,6.48,12.91,4.38,19.46c-5.2-0.71-6.56-12.33-6.95-16.23c-0.33-3.31-1.14-7.11-1.01-10.49 c0.11-2.91,1.43-6.24,2.54-9.75C185.35,197.6,186.24,196.78,186.01,198.89z"/><path fill="none" stroke="#94573a" stroke-miterlimit="10" d="M195.333,236.667c1.84,0.719,2.839,3.799,2.332,5.999	c-0.615,2.667-2.788,3.464-5.266,4.001c-2.459,0.533-5.993-0.532-8.391,0.31c-2.935,1.03-4.122,3.785-7.619,4.041 c-2.651,0.194-4.005-0.401-5.966-1.758c-2.852-1.973-3.221-2.032-6.758-2.259c-6.306-0.405-7.227-4.598-4-9.333"/></g><g class="mouth mouth-3"><path fill="#8f5235" fill-opacity="1" d="M157.13,273.38c1.85,0.61,3.26,2.16,5.26,2.71c1.8,0.49,3.66,0.59,5.47,1.17c2.26,0.72,4.13,1.89,6.52,2c3.88,0.17,7.85-0.08,11.72-0.25c2-0.08,3.83-0.28,5.7-0.76c1.62-0.41,3.63-1.22,5.04-2.08c1.17-0.71,2.92-1.08,4.17-1.58c1.08-0.44,2.23-0.95,3.33-1.33c0.76-0.27,1.26-0.73,0.8-1.75c-0.41-0.9-2.57-1.25-3.38-1.49c-1.33-0.39-2.68-0.5-3.97-1.01c-2.52-0.99-5.23-1.95-7.97-2.37c-2.25-0.35-4.5-0.53-6.77-0.25c-2.87,0.35-5.24,2.07-8.11,2.63c-2.31,0.45-4.73,0.57-7.05,0.88c-2.13,0.28-3.55,0.94-5.37,1.88c-0.96,0.49-4.21,2.28-5,1.99"/><path fill="#995c3f" d="M156.25,273c0.71-0.98,1.64-2.1,2.53-2.87c1.69-1.48,3.96-1.65,5.82-2.88c3.53-2.35,8.68-3.99,12.88-4.59c2.03-0.29,4.12,0.04,6.07-0.42c2.64-0.64,6.36-0.24,8.7,1.15c2.46,1.46,4.7,3.66,7.19,5.13c1.26,0.75,2.54,1.42,3.81,2.12c1.4,0.77,3.08,1.3,4.35,2.14c-3.03-0.07-5.93-0.95-8.95-1.26c-3.79-0.4-7.25-2.19-10.96-2.72c-1.5-0.21-2.97-0.03-4.49,0.19c-1.13,0.17-2.58,0.22-3.83,0.41c-2.83,0.42-5.61,1.59-8.5,1.88c-2.88,0.29-6.03,1.2-8.75,2.13c-0.5,0.17-7.44,1.44-5.38-1.25"/></g></svg>