<svg id="s5342e9fb92184" class="face" xmlns="http://www.w3.org/2000/svg" xmlns:xlink="http://www.w3.org/1999/xlink" x="0px" y="0px" width="357px" height="358px" viewBox="0 0 357 358"><path fill="#9b6040" d="M268.5,189.04c-1.41-1.92-2.86-2.74-4.22-2.91c-3.96-0.47-7.28,4.62-7.28,4.62c2.38-21.04,0-32.96,0-32.96c-16.83-65.56-65.84-69.37-76.8-69.39c-0.71,0.02-1.44,0.04-2.2,0.06c-54,1.42-71.5,44.58-71.5,44.58c-9,12.5-4,61.55-4,61.55c-21-12.95-1.5,45.45-1.5,45.45c5,13.5,8,1,8,1c2.88,12.67,6.63,23.41,10.9,32.53c0.85,44.99,1.74,68.73,1.44,83.43c23.33,0,116.79,0,123.83,0l1.52-85.32c6.58-17.33,7.31-32.14,7.31-32.14c2.5,3,6.5,1.5,6.5,1.5C272.75,234.79,268.5,189.04,268.5,189.04z M255.96,199.92C255.93,200.18,255.94,200.15,255.96,199.92L255.96,199.92z M256.22,197.67c0.03-0.3,0.07-0.64,0.11-1.01C256.29,197.01,256.25,197.35,256.22,197.67z M256.82,192.32c0.06-0.55,0.11-0.99,0.14-1.26C256.91,191.5,256.87,191.92,256.82,192.32z M265.33,190.26c-0.04-0.16-0.09-0.37-0.16-0.62c-0.13-0.5-0.31-1.2-0.54-2.1c0.22,0.86,0.4,1.58,0.54,2.1C265.24,189.9,265.29,190.1,265.33,190.26C265.47,190.79,265.48,190.83,265.33,190.26z"/><path fill="#965b3b" d="M125.25,227.25c4.5-6.5,6.97-8.84,12.65-10c4.87-0.99,13.28-2.45,17.35-5.75c9.63-7.79,13.17-20.35,5.59-28.43c-4.32-4.6-7.03-7.3-13.05-8.81c-4.83-1.22-11.04-2.16-15.05-6.1c-7.84-7.69-11.29-20.73-10.82-31.2c0.41-8.95,9.17-18.79,15.15-24.83c7.04-7.12,15.71-14.12,23.72-20.42c-40.38,8.84-54.04,42.51-54.04,42.51c-9,12.5-4,61.55-4,61.55c-21-12.95-1.5,45.45-1.5,45.45c5,13.5,8,1,8,1c2.89,12.7,6.64,23.46,10.93,32.59c-0.78,38.87,1.32,70.54,1.15,83.21c7.79,0.1,53.6-30.51,61.45-32.32C179.16,318.81,113.75,264.75,125.25,227.25z"/><g class="eyes eyes-19"><path fill="#ffffff" fill-opacity="0.7" d="M158.33,206.68c-0.61-0.47-1.13-1.22-1.76-1.66c-1.49-1.05-3.98-1.48-5.74-1.75c-0.15-0.02-0.3-0.03-0.45-0.05c0.42,0.62,0.72,1.32,0.86,2.14c0.27,1.59-1.1,2.92-2.16,3.89c-1.44,1.33-2.83,2.11-4.76,2.66c-2.15,0.61-4.04-0.15-5.58-1.77c-1.36-1.42-1.6-3.34-1.64-5.25c-0.78,0.46-1.5,0.99-2.07,1.52c-1.18,1.09-2.64,1.92-3.77,3.08h0.25c-0.05,0.72,5.78,4.06,7.27,4.31c2.17,0.37,5.32,0.66,7.4-0.21c1.85-0.78,5.19-1.08,6.75-2.35c2.23-1.82,3.93-2.11,6.26-3.84C158.95,207.16,158.61,206.9,158.33,206.68z"/><path fill="#3d270f" d="M144.31,211.91c1.93-0.55,3.32-1.33,4.76-2.66c1.06-0.97,2.43-2.3,2.16-3.89c-0.14-0.82-0.44-1.53-0.86-2.14c-3.08-0.39-6.49-0.09-9.54,0.28c-1.21,0.14-2.55,0.69-3.75,1.4c0.04,1.91,0.28,3.83,1.64,5.25C140.28,211.76,142.16,212.53,144.31,211.91z"/></g><g><path fill="#ffffff" fill-opacity="0.7" d="M229.09,209.31c-1.17-1.2-2.72-2.3-4.31-2.98c-0.32-0.14-0.65-0.25-0.98-0.35c0.22,1.73-0.23,3.54-1.48,4.75c-0.64,0.62-1.31,1.36-2.14,1.7c-0.88,0.36-1.57,0.48-2.43,0.97c-1.28,0.72-2.6,0.97-4.01,0.37c-1.6-0.69-2.74-2.23-3.67-3.69c-0.48-0.75-0.81-1.53-0.9-2.41c-0.08-0.8,0.18-1.57,0.33-2.34c-1.42,0.5-3.69,1.1-4.25,1.51c-0.5,0.37-0.93,0.86-1.42,1.25c-0.47,0.38-1.09,0.65-1.47,1.15c0.99,1.78,3.2,2.79,5.06,3.33c1.48,0.43,2.65,0.96,4.16,1.11c1.28,0.13,2.56,0.35,3.83,0.58c1.33,0.25,2.8,0.42,4.17,0.42c0.61,0,1.22,0,1.83,0c0.9,0,6.29-1.2,7.5-2.15c0.25-0.19,1.68-0.91,1.74-1.01C231.05,210.84,229.45,209.69,229.09,209.31z"/><path fill="#3d270f" d="M209.17,207.67c0.08,0.88,0.41,1.66,0.9,2.41c0.93,1.46,2.07,3,3.67,3.69c1.41,0.61,2.73,0.36,4.01-0.37c0.86-0.48,1.55-0.61,2.43-0.97c0.83-0.34,1.5-1.08,2.14-1.7c1.25-1.21,1.71-3.02,1.48-4.75c-2.03-0.63-4.25-0.7-6.29-1.13c-1.9-0.41-4.85-0.69-6.67-0.18l-0.25,0.17c-0.17,0.14-0.57,0.31-1.09,0.49C209.35,206.1,209.09,206.87,209.17,207.67z"/></g><g class="eyebrows eyebrows-15"><path fill="#141615" fill-opacity="0.7" d="M115.8,193c1.7-4.3,4.4-6.6,7.5-9.9c1.1-1.2,2.3-2.3,3.7-3.1c2.4-1.5,5.6-1,8.4-1.1c5.4-0.2,10.6-0.8,15.5,1.7c2.8,1.4,6.5,3.8,8,6.8c2.5,4.9-7.9,0.7-9.2,0c-4.1-2-8.1-3.4-12.8-3.8c-4.3-0.4-7.2,0.7-10.9,2.7c-1.3,0.7-2.3,1.9-3.4,2.8c-1.3,1.1-2.7,1.9-4,2.8c-1.1,0.8-2.4,2.6-3.7,3c-0.3-1.3,0.9-2.9,1.5-3.9"/><path fill="#141615" fill-opacity="0.7" d="M221,179c-5.6,0.5-11.4-0.3-16.5,2.9c-3.1,1.9-2.4,6.3,0.9,7.2c1.7,0.5,2.5-0.2,4-0.9c1.8-0.9,3.8-1.4,5.7-1.9c3.8-0.9,10.7-4,14.5-1.6c2.7,1.7,5.1,7.7,9,7.1c0.8-2.3-0.4-3.1-2.2-4.8c-1.6-1.5-2.9-3.1-4.5-4.6c-3.2-3-7-3.6-11.3-3.7"/></g><g class="hair hair-2"><linearGradient id="hair_1_5342e9fb9311b" gradientUnits="userSpaceOnUse" x1="179.6421" y1="200.001" x2="179.6421" y2="88.6089"><stop offset="0" style="stop-color:#9b6040;stop-opacity:0"/><stop offset="0.0796" style="stop-color:#915636;stop-opacity:0.0905"/><stop offset="0.2438" style="stop-color:#8c5131;stop-opacity:0.2771"/><stop offset="0.476" style="stop-color:#874c2c;stop-opacity:0.5411"/><stop offset="0.6158" style="stop-color:#141615;stop-opacity:0.7"/><stop offset="1" style="stop-color:#141615"/></linearGradient><path fill="url(#hair_1_5342e9fb9311b)" fill-opacity="0.9" d="M109.4,198.14c0.08,0.63,0.17,1.26,0.32,1.86l-0.67-2C109.18,198.04,109.3,198.08,109.4,198.14c-0.4-3.3-0.02-6.9-0.33-10.14c-0.37-3.89-0.85-8.32-0.35-12.27c0.45-3.51,2.21-6.46,3.66-9.4c1.53-3.1,3.57-3.45,5.65-5.84c4.72-5.42-0.34-17.2,2.02-24.17c2.7-7.96,9.64-9.39,16.12-12.99c7.27-4.04,23.58-6.38,32.16-6.29c9.53,0.1,15.27,0.03,24.74,1.28c4.79,0.63,9.58,1.02,14.32,1.68c4.67,0.65,9.11,2.63,13.69,3.99c3.31,0.99,8.3,1.69,11.26,3.41c2.94,1.7,4.6,6.57,5.72,9.61c0.95,2.58,2.27,5.3,2.76,7.98c0.5,2.75-0.54,5.38-0.1,8.02c0.83,5.06,6.68,9.99,8.59,15.08c3.55,9.47,1.02,20.53,3.82,30.21c1.45-1.38,2.64-2.9,3.62-4.55c0.01-0.11,0.02-0.21,0.04-0.32c0.04-0.32,0.07-0.63,0.1-0.91c0.06-0.55,0.11-0.99,0.14-1.26c0.02-0.15,0.03-0.25,0.03-0.29c0-0.01,0-0.01,0-0.02c2.38-21.04,0-32.96,0-32.96c-16.83-65.56-65.84-69.37-76.8-69.39c-0.71,0.02-1.44,0.04-2.2,0.06c-54,1.42-71.5,44.58-71.5,44.58c-9,12.5-4,61.55-4,61.55C101.44,194.11,111.12,199,109.4,198.14z"/></g><g class="facial-hair facial-hair-1002"><path fill="#141615" fill-opacity="1" d="M255.96,259.57c0.56-5.75-0.79-11.59-0.47-17.4c0.22-4.05,0.89-7.92,0.33-11.92c-0.27-1.92,1.8-30.46,1.18-32.25c-3.91,4.49-6.75,32.59-8.75,38c-1.18,3.21-3.09,10.98-4.9,13.9c-2.95,4.76-6.67,8.05-10.56,11.93c-3.54,3.53-8.03,5.87-11.46,9.45c-0.15-3.8-4.1-7.46-6.99-9.41c-1.79-1.2-3.8-1.93-5.46-3.25c-1.3-1.04-2.57-1.83-3.88-2.83c-2.13-1.63-4.69-2.75-7.04-3.91c-1.29-0.64-2.68-0.48-4.08-0.91c-1.47-0.45-6.93-2.23-9.06-1.65c-2.47,0.68-3.84,0.99-5.69,2.16c-1.48-1.5-3.08-0.46-4.12-2.31c-2.67,1-10.65,2.73-13.38,3.7c-3.87,1.38-6.51,3.95-9.78,6.25c-2.46,1.73-5.25,3.54-7.05,6.01c-2.05,2.82-1.07,6.11-2.5,9.03c-0.23,0.46-0.35,0.89-0.65,1.32c-0.92-0.69-1.06-2.51-1.64-3.58c-0.58-1.08-1.53-2.43-2.42-3.27c-1.46-1.38-3.36-2.25-5.09-3.27c-3.32-1.97-5.28-5.51-8.16-7.96c-2.61-2.22-4.8-5.53-6.36-8.59c-1.54-3.03-0.97-5.02-0.97-8.58c0-1.8-1.63-3.08-2.14-4.62c-0.62-1.86-0.38-3.47-0.36-5.46c0.02-2.37,0.55-4.64-0.67-6.67c-0.83-1.39-10.6-24.95-10.71-26.62c0.03,2.02,3.72,27.24,4,29.25c0.45,3.29,1.96,8.9,2,12.25c0.06,5.96-0.17,2.59,0.88,8.25c1.11,6.04,4.12,9.66,4.63,15.75c0.48,5.77,1.21,10.28,3.05,15.8c1.75,5.25,2.73,10.72,5.11,15.83c0.8,1.72,1.68,3.15,2.87,4.54c1.72,2.01,4.87,2.54,5.96,4.82c0.59,1.24,0.47,2.86,1.33,4.01c0.58,0.78,1.64,1.38,2.41,2.04c2.28,1.96,2.95,3.13,4.15,6.07c1.9,4.69,4.19,6.74,8.69,8.84c2.11,0.98,4.71,2.18,7.02,2.51c1.25,0.18,2.3,0,3.43,0.37c1.14,0.37,2.18,0.87,3.4,1.13c6.09,1.31,12.14,2.75,18.22,3.87c2.4,0.44,4.31-0.2,6.74-0.2c3,0,6,0,9,0c3.36,0,6.49,0.1,9.73-0.82c3.29-0.94,6.69-3.24,9.73-4.82c0.95-0.49,1.67-1.24,2.63-1.69c0.64-0.3,1.47-0.3,2.06-0.71c1.1-0.75,1.35-2.15,2-3.26c1.26-2.17,2.62-4.76,4.36-6.53c1.26-1.28,2.95-1.81,4.44-2.81c1.26-0.84,2.49-1.9,3.68-2.82c3.13-2.42,17.24-26.59,17.84-28.79c0.53-1.95,1.84-6.31,1.5-8.25c-0.37-2.12,0.63-3.92,1.13-6.13C255.55,263.5,255.77,261.54,255.96,259.57z M213,282.34c-0.52,2.51-1.46,4.54-2.67,6.86c-0.85,1.62-1.63,3.14-2.63,4.5c-1.05,1.43-2.21,2.23-3.75,3.34c-1.91,1.37-4.06,1.92-5.99,3.16c-2.39,1.54-4.13,1.2-6.83,0.96c-1.89-0.16-4.08,0.04-5.15-1.7c-0.95-1.56-0.46-3.2,0.3-4.62c0.65-1.22,2.28-2.58,2.21-3.84c-0.1-1.82-2.19-1.58-3.68-1.5c-2.91,0.14-5.69-0.33-8.63-0.33c-2.25,0-5.11-0.15-3.39,2.71c1.23,2.05,2.18,4.59,3.2,6.8c0.59,1.28-0.3,2.69-1.96,3.3c-2.73,1.01-6.01-1.96-7.89-3.49c-2.2-1.8-4.18-3.85-6.53-5.44c-2.22-1.5-4.24-3.01-6.23-4.86c-1.73-1.61-2.34-3.69-3.1-5.84c-0.44-1.26-0.94-2.46-1.29-3.67c-0.42-1.44-0.36-3.18-1-4.5l0.17,0.33c-0.3-2.02,1.98-3.53,3.03-5c1.03-1.43,1.1-3.41,2.29-4.7c1.18-1.27,3.36-1.65,4.91-1.99c3.48-0.76,7.07-0.83,10.59-1.48c4.8-0.88,9.82-1.81,14.72-0.99c4.42,0.74,8.71,0.03,13.08,1.33c0.85,0.25,1.69,0.41,2.54,0.78c1.55,0.67,3.78,0.68,5.32,1.57c0.88,0.51,1.3,0.94,2.17,1.3c0.77,0.32,1.69,0.5,2.5,0.91c1.88,0.95,2.78,1.42,3.41,3.59c0.54,1.85,1.66,3.58,1.76,5.66C214.62,278.09,213.51,279.86,213,282.34z"/></g><g class="nose nose-1"><path fill="#915636" d="M186.01,198.89c-0.17,1.53-0.26,3.95-0.49,5.46c-0.58,3.86,0.9,6.29,0.88,10.24 c-0.02,6.65,6.48,12.91,4.38,19.46c-5.2-0.71-6.56-12.33-6.95-16.23c-0.33-3.31-1.14-7.11-1.01-10.49 c0.11-2.91,1.43-6.24,2.54-9.75C185.35,197.6,186.24,196.78,186.01,198.89z"/><path fill="none" stroke="#8c5131" stroke-miterlimit="10" d="M168.87,209.42c1.28,4.35,3.91,6.45,2.31,10.98 c-0.86,2.45-2.47,5.01-3.98,7.33c-2.59,3.99-11.16,12.3-7.08,17.1c2.22,2.62,4.82,0.96,7.41,0.58c3.94-0.58,6.85,0.88,10.37,1.68 c5.68,1.29,10.55-1.54,16.31-0.43c3.23,0.62,9.41,2.38,8.66-3.58"/></g><g class="mouth mouth-6"><path fill="#F4E0D0" d="M165.52,269.25c-2.52-1.55-4.95-2.13-7.84-1.54c-1.54,0.31-3.37,1.21-2.3,3.25c0.52,0.99,2.69,2.25,3.52,3.03c1.69,1.6,3.37,2.33,5.54,3.27c3.58,1.55,7.49,1.53,11.4,2.26c2.55,0.48,4.49,0.35,7.1-0.11c4.95-0.88,10.08-0.15,14.63-2.52c3.31-1.73,7.1-2.94,8.04-6.9c-1.91-1.19-6.19-1.33-8.47-0.89c-4.55,0.87-8.7,2.2-13.63,1.51c-4.02-0.56-8.06-1.69-12.23-1.73c-2.29-0.02-5.72,0.36-7.65-0.75"/><path fill="#854B3E" d="M153.33,268.88c1.56,0.95,1.84,0.69,3.03,2.23c1.17-0.71,2.67,0.73,3.76,0.58c1.86-0.26,2.13-0.3,2.96,0.75c-0.52-3.31,5.24-2.96,4.69,0.66c-0.83-3.53,4.78-2.96,4.89,0.08c1.07-0.41,1.24-1.27,2.43-1.66c0.84-0.27,1.64-0.14,2.47-0.05c2.57,0.26,2.17,1.2,3.14,3.18c-0.22-1.79,1.6-3.26,3.01-3.7c2.5-0.78,2.87,0.74,4.63,1.85c0.82-2.57,3.9-1.07,4.93,0.23c0.93-1.02,3.71-4.08,4.81-1.52c-0.25,0.01-0.56,0.03-0.82-0.01c3.16-0.16,8.3,0.67,10.67-2.62c-1.16-0.99-2.75-0.61-4.19-0.8c-1.32-0.17-2.45-0.82-3.72-1.04c-2.9-0.51-6.25,0.37-9.19,0.51c-5.71,0.27-11.04-0.81-16.69,0.23c-2.47,0.46-4.98,0.35-7.5,0.34c-2.38-0.01-4.58,1.12-6.94,0.94c-1.18-0.09-7.72-3-5.81,0.75"/><path fill="#915636" d="M151.83,268.5c1.36-0.04,3.47-1.87,4.85-2.45c2.02-0.85,4.04-2.04,6.11-2.75c4.1-1.4,8.67-1.74,13-1.74c4.63,0,8.87,1.07,13.36,1.5c1.58,0.15,2.96,0.53,4.5,0.75c1.62,0.23,3.06-0.16,4.65,0c3.62,0.35,6.81,4.88,10.51,4.91c0.13,0.15,0.41,0.5,0.54,0.68c-4.5,1.47-9.55,1.96-14.38,1.72c-4.14-0.21-8.52,0.43-12.73,0.79c-1.98,0.17-3.94,0.81-5.83,0.9c-2.61,0.12-5.13-0.33-7.7-0.57c-3.3-0.31-6.63-0.67-9.89-1.16c-1.12-0.17-2.67-0.1-3.79-0.47c-1.09-0.35-1.86-1.38-2.81-1.93"/><path fill="#a7696a" fill-opacity="0.9" d="M152.4,269.63c1.64,0.84,2.69,3.11,3.93,4.51c1,1.12,1.69,2.29,2.58,3.41c1.28,1.61,2.92,1.99,4.5,3.19c1.64,1.25,3.19,2.46,5.16,3.46c4.42,2.25,9.71,2.34,14.62,2.82c3.59,0.35,8.7,0.58,11.4-1.83c2.92-2.6,6.12-4.93,8.62-7.92c2.14-2.56,5.07-4.94,5.34-8.3c-1.34,0.05-1.99,0.53-3.04,1.27c-1.29,0.89-2.81,1.45-4.04,2.33c-1.3,0.93-2.29,2.12-3.74,2.85c-2.28,1.16-5.1,1.51-7.66,1.89c-4.13,0.61-7.94-0.6-12.17-0.89c-3.59-0.25-7.55,1.5-10.84-0.09c-2.32-1.13-4.48-3.09-6.98-3.93c-2.73-0.92-4.52-1.42-6.79-3.5c-0.43,0.15-0.85,0.46-1.06,0.87c0.38,0.03,0.32,0.27,0.54,0.42"/></g></svg>