<svg id="s5b2c6ba8d224e" class="face" xmlns="http://www.w3.org/2000/svg" xmlns:xlink="http://www.w3.org/1999/xlink" x="0px" y="0px" width="357px" height="358px" viewBox="0 0 357 358"><path fill="#945a35" d="M268.5,189.04c-1.41-1.92-2.86-2.74-4.22-2.91c-3.96-0.47-7.28,4.62-7.28,4.62c2.38-21.04,0-32.96,0-32.96c-16.83-65.56-65.84-69.37-76.8-69.39c-0.71,0.02-1.44,0.04-2.2,0.06c-54,1.42-71.5,44.58-71.5,44.58c-9,12.5-4,61.55-4,61.55c-21-12.95-1.5,45.45-1.5,45.45c5,13.5,8,1,8,1c2.88,12.67,6.63,23.41,10.9,32.53c0.85,44.99,1.74,68.73,1.44,83.43c23.33,0,116.79,0,123.83,0l1.52-85.32c6.58-17.33,7.31-32.14,7.31-32.14c2.5,3,6.5,1.5,6.5,1.5C272.75,234.79,268.5,189.04,268.5,189.04z M255.96,199.92C255.93,200.18,255.94,200.15,255.96,199.92L255.96,199.92z M256.22,197.67c0.03-0.3,0.07-0.64,0.11-1.01C256.29,197.01,256.25,197.35,256.22,197.67z M256.82,192.32c0.06-0.55,0.11-0.99,0.14-1.26C256.91,191.5,256.87,191.92,256.82,192.32z M265.33,190.26c-0.04-0.16-0.09-0.37-0.16-0.62c-0.13-0.5-0.31-1.2-0.54-2.1c0.22,0.86,0.4,1.58,0.54,2.1C265.24,189.9,265.29,190.1,265.33,190.26C265.47,190.79,265.48,190.83,265.33,190.26z"/><path fill="#8f5530" d="M125.25,227.25c4.5-6.5,6.97-8.84,12.65-10c4.87-0.99,13.28-2.45,17.35-5.75c9.63-7.79,13.17-20.35,5.59-28.43c-4.32-4.6-7.03-7.3-13.05-8.81c-4.83-1.22-11.04-2.16-15.05-6.1c-7.84-7.69-11.29-20.73-10.82-31.2c0.41-8.95,9.17-18.79,15.15-24.83c7.04-7.12,15.71-14.12,23.72-20.42c-40.38,8.84-54.04,42.51-54.04,42.51c-9,12.5-4,61.55-4,61.55c-21-12.95-1.5,45.45-1.5,45.45c5,13.5,8,1,8,1c2.89,12.7,6.64,23.46,10.93,32.59c-0.78,38.87,1.32,70.54,1.15,83.21c7.79,0.1,53.6-30.51,61.45-32.32C179.16,318.81,113.75,264.75,125.25,227.25z"/><g class="eyes eyes-10"><path fill="#ffffff" fill-opacity="0.7" d="M195.13,196.5c1.71,1.33,3.54,3.27,5.64,3.85c1.54,0.42,3.17,0.3,4.73,0.53c1.2,0.18,2.29,0.61,3.49,0.75c2.65,0.29,4.42-0.53,6.67-1.75c1-0.54,1.81-1.42,2.85-1.85c0.84-0.35,1.92-0.33,2.84-0.54c-1.63-2.13-3.14-3.7-5.71-4.48c-2.6-0.79-5.73-1.12-8.51-1.5c-2.66-0.37-4.58,0.54-7.06,1.1c-1.11,0.25-1.84,0.37-2.75,1.15c-0.82,0.7-1.35,1.89-2.3,2.41c0.08,0.09,0.24,0.27,0.37,0.35"/><path fill="#ffffff" fill-opacity="0.7" d="M137.63,195.5c1.22-2.65,5.91-4.11,8.37-4.66c3.42-0.75,7.81-2.03,11.15-0.51c1.47,0.67,6.57,3.94,5.15,5.83c-0.93,1.23-4.18,2-5.53,2.58c-1.12,0.48-2.23,0.77-3.38,1c-3.13,0.63-6.8,0.5-9.52-1.24c-1.87-1.19-5.02-1.89-6.35-3.63"/><path display="inline" fill="#504040" d="M145.75,191c-0.52,2.26-1.77,4.87,0.25,6.76c0.67,0.63,1.79,1.4,2.62,1.78c1.36,0.62,2.34,0.13,3.66-0.16c2.18-0.48,4.67-1.7,4.34-4.51c-0.29-2.46-2.17-4.99-4.75-5.25c-1.67-0.17-4.98,0.3-6.25,1.38"/><path fill="#504040" d="M205.75,191.5c-3.11-0.07-4.13,3.74-2.97,6.1c1.06,2.15,3.24,3.29,5.47,3.39c1.58,0.07,1.54-0.04,2.75-0.97c1.21-0.92,1.8-1.29,1.63-3.03c-0.19-1.89-2.16-4.76-4.09-5.37c-0.84-0.27-2.86-0.62-3.41,0.13"/></g><g class="eyebrows eyebrows-12"><path fill="#0e0e0c" fill-opacity="0.6" d="M116.67,186.33c1.18-2.47,4.08-5.08,6.17-6.8c2.93-2.42,6.2-4.23,10.16-4.04c2.26,0.11,4.05,0.5,6.13,1.35c2.48,1.01,4.97,1,7.58,1.33c2.81,0.36,5.34,0.13,8.23-0.01c2.17-0.1,4.17-0.19,5.45,1.8c2.78,4.32-6.24,3.67-8.37,3.36c-4.1-0.6-8.21-0.8-12.35-1.17c-3.58-0.32-6.49-1.23-9.75,0.63c-2.86,1.63-5.96,2.54-8.92,3.87c-1.18,0.53-2.56,1.15-3.96,0.64C116.81,187.01,116.69,186.71,116.67,186.33"/><path fill="#0e0e0c" fill-opacity="0.6" d="M202.5,181.83c2.63-0.31,4.95-1.63,7.5-1.99c1.88-0.26,3.86-0.1,5.73-0.38c3.38-0.5,6.25-2.84,9.56-3.33c1.77-0.26,4.01-0.24,5.84,0.03c1.26,0.19,2.98,0.29,4.04,0.84c0.56,0.29,1.01,1.05,1.53,1.45c2.27,1.75,4.52,3.66,6.3,6.05c1.2,1.61,2.79,4.26,2.47,6.47c-3.74,0.2-5.04-1.75-7.85-3.76c-3.49-2.5-5.61-4.04-10.12-4.05c-4.83,0-9.08-0.25-13.8,0.54c-2.9,0.48-6.37,1.52-9.24,0.67c-1.5-0.45-3.35-3.17-0.63-2.87"/></g><g class="chin chin-10"><path fill="none" stroke="#8f5530" d="M144.75,317c4.72,4.93,10.18,12.44,16.21,16.25c6.55,4.13,15.05,3.98,22.54,4.25 c6.14,0.22,11.47-0.55,17.22-1.82c5.8-1.28,8.92-5.1,12.96-9.48c2.12-2.3,3.4-5.7,5.32-7.7"/></g><g class="hair hair-3"><radialGradient id="SVGID_2_5b2c6ba8d22c5" cx="180.3369" cy="178.5039" r="62.0905" gradientTransform="matrix(-0.0144 -0.9999 1.2316 -0.0178 -36.9023 361.9954)" gradientUnits="userSpaceOnUse"><stop offset="0" style="stop-color:#945a35;stop-opacity:0"/><stop offset="0.309" style="stop-color:#945a35;stop-opacity:0.309"/><stop offset="0.4613" style="stop-color:#8f5530;stop-opacity:0.4613"/><stop offset="0.5794" style="stop-color:#8a502b;stop-opacity:0.5794"/><stop offset="0.6798" style="stop-color:#854b26;stop-opacity:0.6798"/><stop offset="0.769" style="stop-color:#804621;stop-opacity:0.769"/><stop offset="0.8503" style="stop-color:#7b411c;stop-opacity:0.8503"/><stop offset="0.9251" style="stop-color:#763c17;stop-opacity:0.9251"/><stop offset="0.9938" style="stop-color:#0e0e0c;stop-opacity:0.9938"/><stop offset="1" style="stop-color:#0e0e0c"/></radialGradient><path fill="url(#SVGID_2_5b2c6ba8d22c5)" fill-opacity="0.5" d="M105.5,201.75c0.31-2.25,1.46-4.28,1.76-6.51c0.27-2.03-0.01-4.35,0.19-6.29c0.46-4.44,0.62-8.51-0.44-12.71c-0.47-1.86-0.49-3.71-0.51-5.79c-0.03-2.84-0.25-4.66-0.83-7.29c-0.65-2.93,0.34-4.94,1.3-7.43c0.89-2.34,0.81-4.8,1.29-7.28c1.01-5.24,3.43-10.36,7.36-14.01c1.92-1.78,3.44-3.56,5.88-4.51c3.17-1.24,6.44-1.72,9.64-2.99c6.52-2.59,12.2-5.28,19.12-6.21c5.85-0.79,11.83-1.94,17.49-3.17c2.17-0.47,3.41-1.44,5.77-1.56c4.31-0.22,8.6,0.32,12.74,0.69c2.92,0.26,5.17-0.4,7.8-0.69c3.98-0.44,7.2,1,10.94,1.67c3.24,0.58,4.97,2.6,8,3.39c2.89,0.75,5.78,0.78,8.59,1.66c3.61,1.13,6.68,2.65,10.15,3.71c2.89,0.88,5.79,2.22,8.03,4.3c4.11,3.82,7.88,9.08,7.99,14.79c0.15,7.46,4.21,13.7,5,20.91c0.55,5.06,0,10.29,0.25,15.36c0.12,2.47,0.49,4.71,0.25,7.2c-0.19,1.98-0.37,3.58,0.19,5.51c0.62,2.11,2.38,4.03,2.61,6.41c0.95-2.58,0.95-10.17,0.95-10.17c2.38-21.04,0-32.96,0-32.96c-16.83-65.56-65.84-69.37-76.8-69.39c-0.71,0.02-1.44,0.04-2.2,0.06c-54,1.42-71.5,44.58-71.5,44.58c-9,12.5-4,61.55-4,61.55C102.5,197.29,105.32,203.05,105.5,201.75z M256.96,191.06c-0.05,0.44-0.1,0.86-0.14,1.26C256.88,191.77,256.93,191.33,256.96,191.06z M255.96,199.92C255.93,200.18,255.94,200.15,255.96,199.92L255.96,199.92z"/></g><g class="nose nose-8"><path fill="#8a502b" d="M186.01,198.89c-0.17,1.53-0.26,3.95-0.49,5.46c-0.58,3.86,0.9,6.29,0.88,10.24 c-0.02,6.65,6.48,12.91,4.38,19.46c-5.2-0.71-6.56-12.33-6.95-16.23c-0.33-3.31-1.14-7.11-1.01-10.49 c0.11-2.91,1.43-6.24,2.54-9.75C185.35,197.6,186.24,196.78,186.01,198.89z"/><path fill="#622803" d="M161.25,240.25c2.63-2.83,4.53-2.89,7.5-0.94c1.32,0.87,5.69,2.64,5.03,4.44c-1.12,3.04-7.16,0.55-8.78,0c-0.94-0.32-6.45-2.02-3.5-3.75"/><path fill="#622803" d="M188.25,239.25c2.48-1.05,3.94-2.43,6.69-1.44c1.84,0.66,5.71,2.67,4.3,4.49c-2.64,3.41-14.05,0.07-10.49-3.3"/><path fill="none" stroke="#854b26" stroke-miterlimit="10" d="M159.25,226.25c-2.79,0.32-6.4,3.88-8.2,6.05c-2.02,2.44-2.68,5.1-1.12,8.02c1.54,2.87,3.68,5.12,6.57,6.63c2.66,1.39,6.91,0.25,9,1.81"/><path fill="none" stroke="#854b26" stroke-miterlimit="10" d="M174.25,247.25c1.6-0.23,2.64,1.12,4.18,1.5c3.76,0.94,5.48-1.55,8.86-1.93c2.22-0.25,4.24,1.13,6.41,1.41c6.13,0.79,12.03-3.1,13.8-8.98c1.31-4.33-1.4-5.91-4.76-8.49c-2.09-1.61-4.13-2.11-6.49-3.19c-2.23-1.03-4.25-6.06-5.76-6.32"/></g><g class="mouth mouth-26"><path fill="#F2E7DC" d="M151.5,267.5c1.875-2.375,3.625-2.438,6.375-2.75c1.875-0.188,4.063,0.063,5.938,0.25 c1.938,0.188,3.875,0.063,5.75,0.375c2,0.25,3.938,0.375,5.938,0.438c3.938,0.125,7.938,0.563,11.938,0 c1.75-0.25,3.438-0.25,5.25-0.375c1.5-0.063,3-0.5,4.563-0.438c1.813,0.063,4.063,0.438,5.75,1.063 c0.938,0.313,1.5,0.75,2.375,1.25c0.625,0.375,1.938,0.5,2.375,1c1.688,1.875-7.375,4.563-8,4.813 c-3.875,1.438-7.25,3.75-10.938,5.375c-2.5,1.063-5.438,1.688-8.125,1.875c-5.5,0.438-10.625-0.875-15.938-1.75 c-2.375-0.438-3.875-1.5-5.438-3.25c-0.75-0.813-1.563-1.813-2.375-2.438c-0.75-0.563-1.563-0.75-2.25-1.375 c-1.188-1-2.75-2.688-2.875-4.25"/><path fill="#804621" fill-opacity="1" d="M149,267.6c0.8,3.3,2.2,6.6,3.5,9.8c1.3,3.2,2.9,5.9,5.6,8.1c5.2,4.4,13.3,4.8,19.9,4.2 c3.4-0.3,6.9-0.8,10.3-1.5c4.7-1.1,8.2-4.7,11.7-7.9c2.4-2.3,5.2-4.4,7.2-7.1c0.8-1,1.2-2.2,1.7-3.4c0.4-1.1-0.4-0.9-0.2-2.1 c-1.4,0.2-1.3,0-2.7,0.4c-1.8,0.4-2.9,0.8-4.3,2c-1.5,1.2-3.1,1.8-4.7,2.8c-1.4,0.9-2.9,1.2-4.4,1.9c-1.4,0.8-2.5,1.9-4.2,1.9 c-1.5,0.1-2.9-0.4-4.4-0.4c-3.2-0.2-6.4,0.6-9.5,0.2c-2.8-0.4-6,0.1-8.5-1.1c-1.5-0.6-3-0.9-4.5-1.5c-1.6-0.7-4.3-2.9-5.5-3.9 c-2.1-1.7-4.4-3.5-7.2-2.4"/><path fill="#8a502b" d="M152.6,264.3c6.8-1.1,12.9-3.1,19.9-2.7c1,0,1.9,0,2.9,0.3c1,0.3,2.4,1.8,2.9,1.8c2.2,0,4.6-1.5,6.8-2 c4.4-1.2,11.6-0.5,15.6,1.4c3.1,1.3,7.3,2.2,8.5,5.7c-5.1-0.3-7.7-2-12.8-2.1c-5.1-0.1-10.4-0.4-15,1c-3.6,0.9-3.9,0.9-7.3,0.1 c-2.4-0.5-5.1-0.6-7.3-0.9c-5.1-0.8-6.7,0.3-11.5-0.2c-1.5,0-5.4,1.5-6.6,0.8C150.3,267.1,151.2,264.5,152.6,264.3"/></g></svg>