<svg id="s5c3d008b88473" class="face" xmlns="http://www.w3.org/2000/svg" xmlns:xlink="http://www.w3.org/1999/xlink" x="0px" y="0px" width="357px" height="358px" viewBox="0 0 357 358"><path fill="#a16549" d="M268.5,189.04c-1.41-1.92-2.86-2.74-4.22-2.91c-3.96-0.47-7.28,4.62-7.28,4.62c2.38-21.04,0-32.96,0-32.96c-16.83-65.56-65.84-69.37-76.8-69.39c-0.71,0.02-1.44,0.04-2.2,0.06c-54,1.42-71.5,44.58-71.5,44.58c-9,12.5-4,61.55-4,61.55c-21-12.95-1.5,45.45-1.5,45.45c5,13.5,8,1,8,1c2.88,12.67,6.63,23.41,10.9,32.53c0.85,44.99,1.74,68.73,1.44,83.43c23.33,0,116.79,0,123.83,0l1.52-85.32c6.58-17.33,7.31-32.14,7.31-32.14c2.5,3,6.5,1.5,6.5,1.5C272.75,234.79,268.5,189.04,268.5,189.04z M255.96,199.92C255.93,200.18,255.94,200.15,255.96,199.92L255.96,199.92z M256.22,197.67c0.03-0.3,0.07-0.64,0.11-1.01C256.29,197.01,256.25,197.35,256.22,197.67z M256.82,192.32c0.06-0.55,0.11-0.99,0.14-1.26C256.91,191.5,256.87,191.92,256.82,192.32z M265.33,190.26c-0.04-0.16-0.09-0.37-0.16-0.62c-0.13-0.5-0.31-1.2-0.54-2.1c0.22,0.86,0.4,1.58,0.54,2.1C265.24,189.9,265.29,190.1,265.33,190.26C265.47,190.79,265.48,190.83,265.33,190.26z"/><path fill="#9c6044" d="M125.25,227.25c4.5-6.5,6.97-8.84,12.65-10c4.87-0.99,13.28-2.45,17.35-5.75c9.63-7.79,13.17-20.35,5.59-28.43c-4.32-4.6-7.03-7.3-13.05-8.81c-4.83-1.22-11.04-2.16-15.05-6.1c-7.84-7.69-11.29-20.73-10.82-31.2c0.41-8.95,9.17-18.79,15.15-24.83c7.04-7.12,15.71-14.12,23.72-20.42c-40.38,8.84-54.04,42.51-54.04,42.51c-9,12.5-4,61.55-4,61.55c-21-12.95-1.5,45.45-1.5,45.45c5,13.5,8,1,8,1c2.89,12.7,6.64,23.46,10.93,32.59c-0.78,38.87,1.32,70.54,1.15,83.21c7.79,0.1,53.6-30.51,61.45-32.32C179.16,318.81,113.75,264.75,125.25,227.25z"/><g class="eyes eyes-10"><path fill="#ffffff" fill-opacity="0.7" d="M195.13,196.5c1.71,1.33,3.54,3.27,5.64,3.85c1.54,0.42,3.17,0.3,4.73,0.53c1.2,0.18,2.29,0.61,3.49,0.75c2.65,0.29,4.42-0.53,6.67-1.75c1-0.54,1.81-1.42,2.85-1.85c0.84-0.35,1.92-0.33,2.84-0.54c-1.63-2.13-3.14-3.7-5.71-4.48c-2.6-0.79-5.73-1.12-8.51-1.5c-2.66-0.37-4.58,0.54-7.06,1.1c-1.11,0.25-1.84,0.37-2.75,1.15c-0.82,0.7-1.35,1.89-2.3,2.41c0.08,0.09,0.24,0.27,0.37,0.35"/><path fill="#ffffff" fill-opacity="0.7" d="M137.63,195.5c1.22-2.65,5.91-4.11,8.37-4.66c3.42-0.75,7.81-2.03,11.15-0.51c1.47,0.67,6.57,3.94,5.15,5.83c-0.93,1.23-4.18,2-5.53,2.58c-1.12,0.48-2.23,0.77-3.38,1c-3.13,0.63-6.8,0.5-9.52-1.24c-1.87-1.19-5.02-1.89-6.35-3.63"/><path display="inline" fill="#3d270f" d="M145.75,191c-0.52,2.26-1.77,4.87,0.25,6.76c0.67,0.63,1.79,1.4,2.62,1.78c1.36,0.62,2.34,0.13,3.66-0.16c2.18-0.48,4.67-1.7,4.34-4.51c-0.29-2.46-2.17-4.99-4.75-5.25c-1.67-0.17-4.98,0.3-6.25,1.38"/><path fill="#3d270f" d="M205.75,191.5c-3.11-0.07-4.13,3.74-2.97,6.1c1.06,2.15,3.24,3.29,5.47,3.39c1.58,0.07,1.54-0.04,2.75-0.97c1.21-0.92,1.8-1.29,1.63-3.03c-0.19-1.89-2.16-4.76-4.09-5.37c-0.84-0.27-2.86-0.62-3.41,0.13"/></g><g class="eyebrows eyebrows-14"><path fill="#0e0e0c" fill-opacity="0.5" d="M120.17,186c1.25-0.65,2.3-1.9,3.34-2.83c1.34-1.19,10.29-8.44,11.32-8.85c1.44-0.57,10.85,1.22,13.56,2.41c3.76,1.65,6.7,4.44,9.95,6.8c1.56,1.14,7.51,6.3,5.94,7.88c-2.27,2.29-4.02-0.61-5.74-1.61c-3.42-2-7.36-3.42-10.92-5.15c-5.21-2.53-10.62-2.72-16.13-0.82c-3.8,1.31-6.93,4.22-10.82,5c-0.76,0.15-1.51,0.21-2.33,0.15c0.31-0.98,2.34-3.2,3.15-3.82"/><path fill="#0e0e0c" fill-opacity="0.5" d="M195,186.67c0.74-5.42,8.81-7.29,12.83-8.59c2-0.65,4.1-0.39,6.1-0.91c1.75-0.46,3.4-1.23,5.2-1.5c1.94-0.29,4.62-0.78,6.54-0.17c2.41,0.76,4.42,4.39,6,6.31c1.77,2.15,3.63,4.27,5.5,6.2c2.25,2.32,3.49,5.23,3.47,8.64c-1.66,0.26-3.15-1.94-4.3-2.82c-1.52-1.17-3.25-2.41-4.81-3.53c-2.72-1.95-5.28-4.15-8.45-5.09c-8.57-2.55-16.8,3.21-25.07,3.96c-3.17,0.29-2.03-0.96-2.85-3.17"/></g><g class="chin chin-10"><path fill="none" stroke="#9c6044" d="M144.75,317c4.72,4.93,10.18,12.44,16.21,16.25c6.55,4.13,15.05,3.98,22.54,4.25 c6.14,0.22,11.47-0.55,17.22-1.82c5.8-1.28,8.92-5.1,12.96-9.48c2.12-2.3,3.4-5.7,5.32-7.7"/></g><g class="hair hair-6"><linearGradient id="hair_1_5c3d008b88516" gradientUnits="userSpaceOnUse" x1="179.708" y1="211.418" x2="179.708" y2="89.4009"><stop offset="0" style="stop-color:#a16549;stop-opacity:0"/><stop offset="0.2" style="stop-color:#975b3f;stop-opacity:0.4462"/><stop offset="0.7312" style="stop-color:#0e0e0c"/></linearGradient><path fill="url(#hair_1_5c3d008b88516)" fill-opacity="0.5" d="M111.39,211.42c-1.58-15.84,1.49-27.82,4.36-42.79c1.56-8.1,1.74-12.06,5.25-19.75c2.13-4.67,2.88-19.52,6.66-23.78c5.19-2.78,21.77-12.47,29.96-13.84c16.39-2.74,44.38-5.05,59.23,2.27c5.12,2.52,10.81,5.15,14.31,9.44c3.91,4.79,4.05,10.48,5.73,16.57c1.54,5.58,2.84,11.1,4,16.8c1.19,5.84,4.25,10.36,6.06,16.15c3.46,11.05,4.02,22.4,6.37,33.5c1.06-1.55,1.96-3.2,2.74-4.91c0-0.03,0-0.03,0,0c1.71-3.78,1.05-9.32,1.05-9.32c2.38-21.04,0-32.96,0-32.96c-16.83-65.56-65.84-69.37-76.8-69.39c-0.71,0.02-1.44,0.04-2.2,0.06c-54,1.42-71.5,44.58-71.5,44.58c-9,12.5-4,61.55-4,61.55C102.06,195.24,105.3,209.96,111.39,211.42z M257.09,192.06c-0.05,0.44-0.1,0.86-0.14,1.26C257.01,192.77,257.06,192.33,257.09,192.06z M128.41,124.35c0.3-0.26,0.62-0.49,0.95-0.68L128.41,124.35z"/></g><g class="nose nose-9"><path fill="#975b3f" d="M186.01,198.89c-0.17,1.53-0.26,3.95-0.49,5.46c-0.58,3.86,0.9,6.29,0.88,10.24 c-0.02,6.65,6.48,12.91,4.38,19.46c-5.2-0.71-6.56-12.33-6.95-16.23c-0.33-3.31-1.14-7.11-1.01-10.49 c0.11-2.91,1.43-6.24,2.54-9.75C185.35,197.6,186.24,196.78,186.01,198.89z"/><path fill="#6f3317" d="M172.75,238c-1.79-0.07-4.57,0.06-6.16,0.87c-2.05,1.04,0.26,3.06,1.57,3.73c2.1,1.07,2.81-1.08,4.33-2.08c0.5-0.33,2.06-0.6,2.01-1.4c-0.05-0.77-1.75-0.99-2.26-1.25"/><path fill="#6f3317" d="M187.38,238.25c-0.84,0.02-1.74,0.25-2.48,0.65c0.04,0.72,3.23,1.92,4,2.23c1.44,0.57,3.65,0.49,4.75-0.78c1.31-1.49-0.44-2.71-2.15-2.85c-1.39-0.12-2.99,0.59-4.26,0.55c-0.11,0.13-0.23,0.25-0.38,0.33"/><path fill="none" stroke="#92563a" stroke-miterlimit="10" d="M177.25,244.75c1.63-0.25,2.72-1.02,4.29-0.59c3.08,0.86,6.02,2.33,9.34,1.97c3.42-0.37,7.09-2.19,7.12-5.87c0.02-2.05-0.2-3.54-0.9-5.47c-0.31-0.85-0.5-1.85-0.94-2.65c-0.39-0.71-1.07-1.2-1.56-1.88c-1.25-1.76-2.02-3.82-3.23-5.62c-0.95-1.42-2.38-2.37-3.59-3.55c-2.2-2.15-2.99-5.33-3.91-8.19c-0.82-2.54-2.51-5.5-2.62-8.15"/></g><g class="mouth mouth-22"><path fill="#EDDDC1" d="M157.165,272.481c1.628,0.752,2.938,2.135,4.748,2.607c2.464,0.643,5.317,0.6,7.833,0.665c1.439,0.038,3.195,0.212,4.613,0.536c1.593,0.363,2.884,1.329,4.662,1.346c2.145,0.021,4.625-0.641,6.693-1.192c2.569-0.686,5.139-1.254,7.76-1.802c1.755-0.367,3.841-0.737,5.264-1.896c0.829-0.676,1.515-1.488,2.363-2.161c0.838-0.664,1.764-1.277,2.572-1.938c0.424-0.346,0.862-0.3,0.601-0.899c-0.309-0.705-2.846-1.422-3.47-1.662c-2.261-0.867-4.894-1.585-7.365-1.45c-2.089,0.115-4.337,0.532-6.454,0.095c-1.626-0.335-3.236-0.916-4.916-1.035c-1.367-0.097-2.769,0.155-4.14,0.241c-1.852,0.116-3.674,0.258-5.518,0.452c-3.11,0.326-6.313,0.597-9.413,1.12c-1.688,0.285-3.292,0.679-4.767,1.492c-0.746,0.411-1.438,0.937-2.291,1.228c-0.652,0.223-1.75,0.14-2.075,0.906c1.335,1.124,2.41,2.072,3.401,3.473"/><path fill="#29120F" d="M158.393,272.737c0.643-1.004,0.614-2.333,1.597-3.139c0.556-0.456,0.998-0.474,1.683-0.483c1.529-0.02,2.268,0.458,3.891,0.215c1.322-0.198,2.747-0.097,4.017-0.536c0.859-0.298,1.698-0.836,2.641-0.947c0.917-0.107,1.011,0.153,1.866,0.51c1.415,0.59,1.873-0.012,3.324-0.179c0.979-0.114,2.32,0.441,3.212,0.158c0.637-0.202,1.203-0.824,1.908-1.067c1.444-0.499,2.319,0.381,3.722-0.028c0.84-0.246,1.521-0.621,2.44-0.492c0.951,0.133,1.695,0.828,2.584,0.872c1.385,0.069,2.963-0.084,4.463,0.164c2.214,0.366,2.045,1.633,3.574,2.77c2.289,1.702,2.973-1.171,4.933-1.001c-0.213-1.41,0.309-1.667-1.225-2.282c-2.131-0.854-4.95-2.291-7.27-2.205c-2.097,0.078-4.055,0.798-6.136,0.877c-2.624,0.098-5.297,0.098-7.931,0.077c-2.938-0.023-5.888-0.12-8.815-0.181c-2.612-0.054-5.642-0.333-8.208,0.105c-2.342,0.399-5.497,0.691-7.625,1.78c-0.764,0.39-2.19,1.17-2.728,1.78c1.145,0.478,1.782,1.45,2.711,2.227c0.436,0.365,1.306,1.229,1.77,1.377c0.049-0.238-0.069-0.352-0.148-0.571"/><path fill="#a7696a" fill-opacity="0.9" d="M153.078,269.266c2.046,1.402,1.379,3.328,3.159,5.023c1.916,1.827,3.875,3.361,6.037,4.925c2.181,1.578,4.802,3.484,7.374,4.17c2.812,0.75,5.708,0.217,8.596,0.56c3.345,0.397,5.928-0.77,9.133-1.489c3.067-0.687,4.977-1.662,7.374-3.606c3.377-2.737,7.242-4.999,10.385-8.06c1.182-1.149,1.975-2.048,2.033-3.737c-0.844-0.135-1.812,0.193-2.477,0.631c-0.892,0.587-1.77,0.789-2.672,1.172c-2.579,1.096-5.149,2.125-7.938,2.855c-1.208,0.316-2.431,0.527-3.565,0.988c-1.189,0.484-2.193,0.973-3.494,1.257c-1.845,0.404-3.811,0.158-5.636,0.658c-1.67,0.458-2.931,1.281-4.71,1.287c-4.635,0.015-9.699-0.842-13.854-2.682c-1.938-0.859-4.195-1.848-5.993-2.97c-1.714-1.069-2.044-1.196-4.048-1.361"/><path fill="#975b3f" d="M152.427,268.962c0.971-0.226,1.872-1.575,2.788-2.079c1.712-0.941,3.563-1.5,5.431-2.091c3.773-1.191,7.492-1.932,11.453-2.125c2.79-0.137,5.647-0.617,8.449-0.516c1.736,0.063,3.405,0.646,5.158,0.709c1.364,0.05,2.768-0.184,4.132-0.097c2.972,0.189,5.74,0.825,8.551,1.559c1.369,0.357,2.773,0.656,4.163,0.946c1.121,0.234,2.346,0.057,3.376,0.581c3.146,1.604-0.842,2.25-2.474,2.369c-2.655,0.193-5.082-0.297-7.65-0.992c-4.949-1.337-10.081,0.018-15.021,0.117c-1.274,0.025-2.644,0.353-3.957,0.429c-1.314,0.077-2.608-0.1-3.924-0.079c-2.611,0.042-5.133,0.109-7.701,0.479c-1.028,0.148-1.976,0.48-3.038,0.547c-1.353,0.085-2.709-0.171-4.043-0.018c-0.768,0.088-5.663,1.589-5.335,0.187"/></g></svg>