<svg id="s57da0c2ad5354" class="face" xmlns="http://www.w3.org/2000/svg" xmlns:xlink="http://www.w3.org/1999/xlink" x="0px" y="0px" width="357px" height="358px" viewBox="0 0 357 358"><path fill="#7c4f2e" d="M268.5,189.04c-1.41-1.92-2.86-2.74-4.22-2.91c-3.96-0.47-7.28,4.62-7.28,4.62c2.38-21.04,0-32.96,0-32.96c-16.83-65.56-65.84-69.37-76.8-69.39c-0.71,0.02-1.44,0.04-2.2,0.06c-54,1.42-71.5,44.58-71.5,44.58c-9,12.5-4,61.55-4,61.55c-21-12.95-1.5,45.45-1.5,45.45c5,13.5,8,1,8,1c2.88,12.67,6.63,23.41,10.9,32.53c0.85,44.99,1.74,68.73,1.44,83.43c23.33,0,116.79,0,123.83,0l1.52-85.32c6.58-17.33,7.31-32.14,7.31-32.14c2.5,3,6.5,1.5,6.5,1.5C272.75,234.79,268.5,189.04,268.5,189.04z M255.96,199.92C255.93,200.18,255.94,200.15,255.96,199.92L255.96,199.92z M256.22,197.67c0.03-0.3,0.07-0.64,0.11-1.01C256.29,197.01,256.25,197.35,256.22,197.67z M256.82,192.32c0.06-0.55,0.11-0.99,0.14-1.26C256.91,191.5,256.87,191.92,256.82,192.32z M265.33,190.26c-0.04-0.16-0.09-0.37-0.16-0.62c-0.13-0.5-0.31-1.2-0.54-2.1c0.22,0.86,0.4,1.58,0.54,2.1C265.24,189.9,265.29,190.1,265.33,190.26C265.47,190.79,265.48,190.83,265.33,190.26z"/><path fill="#774a29" d="M125.25,227.25c4.5-6.5,6.97-8.84,12.65-10c4.87-0.99,13.28-2.45,17.35-5.75c9.63-7.79,13.17-20.35,5.59-28.43c-4.32-4.6-7.03-7.3-13.05-8.81c-4.83-1.22-11.04-2.16-15.05-6.1c-7.84-7.69-11.29-20.73-10.82-31.2c0.41-8.95,9.17-18.79,15.15-24.83c7.04-7.12,15.71-14.12,23.72-20.42c-40.38,8.84-54.04,42.51-54.04,42.51c-9,12.5-4,61.55-4,61.55c-21-12.95-1.5,45.45-1.5,45.45c5,13.5,8,1,8,1c2.89,12.7,6.64,23.46,10.93,32.59c-0.78,38.87,1.32,70.54,1.15,83.21c7.79,0.1,53.6-30.51,61.45-32.32C179.16,318.81,113.75,264.75,125.25,227.25z"/><g class="eyes eyes-12"><path fill="#ffffff" fill-opacity="0.7" d="M128.25,203.25c1.4-2.3,5.02-2.76,7.14-4.35c2-1.5,3.71-2.77,6.39-3.03c1.37-0.13,2.27,0.45,3.49,0.63c1.52,0.23,3.09-0.15,4.61,0.15c2.19,0.43,4.08,1.86,6,2.94c0.92,0.52,1.8,0.97,2.74,1.39c-1.43,2.32-4.53,3.14-6.99,3.64c-2.76,0.56-5.32,1.5-8.14,1.75c-2.74,0.25-4.9-0.87-7.49-1.01c-2.35-0.12-4.01-0.67-6.13-1.37c-0.6-0.2-1.21-0.53-1.74-0.88"/><path fill="#ffffff" fill-opacity="0.7" d="M201.67,202.28c0.42-0.78,1.39-1.43,2.29-1.66c0.67-0.17,1.32-0.37,1.94-0.64c0.73-0.32,1.32-0.81,2.05-1.14c1.33-0.59,2.43-1.56,3.73-2.19c1.09-0.53,2.49-0.74,3.71-0.91c0.83-0.12,1.63-0.16,2.45,0.02c0.73,0.16,1.46,0.1,2.19,0.23c1.26,0.24,2.31,0.46,3.27,1.24c0.78,0.64,1.73,1.04,2.57,1.56c0.61,0.38,1.04,0.91,1.57,1.37c0.41,0.35,0.86,0.62,1.34,0.87c0.39,0.2,0.57,0.39,0.88,0.67c0.54,0.48,1.27,0.8,1.66,1.4c0.13,0.2,0.19,0.43,0.35,0.6c-1.49,0.49-3.08,0.83-4.66,1.06c-0.69,0.1-1.37,0-2.06,0.13c-0.48,0.09-0.98,0.15-1.47,0.23c-2.36,0.4-4.83,0.43-7.23,0.43c-1.64,0-3.31-0.33-4.91-0.65c-1.07-0.22-2.16-0.3-3.23-0.5c-1.59-0.3-3.16-0.87-4.67-1.37c-0.69-0.23-1.21-0.43-1.72-0.88"/><path fill="#332a19" d="M140,195.75c-2.6,2.35-5.65,5.65-2.56,8.77c2.56,2.58,5.85,2.5,8.58,0.22c2.08-1.74,5.06-5.31,1.8-7.56c-1.55-1.07-8.29-1.78-9.32-0.43"/><path fill="#332a19" d="M214,196.25c-1.04,1.15-2.43,1.93-2.99,3.43c1.99,5.58,9.32,8.68,13.45,2.75c3.82-5.48-8.98-8.72-11.96-4.93"/></g><g class="eyebrows eyebrows-23"><path fill="#0e0e0c" fill-opacity="0.5" d="M126.853,179.854c0.603,0.032,1.155-0.222,1.683-0.322c0.946-0.179,1.883,0.002,2.843-0.079c1.353-0.115,1.499-0.578,2.132-1.355c1.766-2.168,5.152-1.074,8.239-0.68c3.517,0.449,7.607,0.62,10.617,2.147c1.113,0.564,2.293,0.73,3.485,1.079c1.429,0.419,2.677,1.031,4.061,1.345c1.119,0.254,2.692,0.615,3.861,0.403c0.632-0.114,2.214-0.879,2.473-1.424c0.881-1.855-4.027-4.899-5.37-6.024c-2.052-1.719-5.931-3.486-9.038-3.479c-3.089,0.007-6.039,0.093-9.272-0.162c-1.475-0.117-2.812-0.263-4.26-0.051c-1.743,0.255-3.923,0.1-5.554,0.512c-1.797,0.454-3.212,1.743-4.861,2.447c-1.926,0.823-3.241,2.281-3.177,4.144c0.088,2.547,2.347,0.398,3.517,1.514"/><path fill="#0e0e0c" fill-opacity="0.5" d="M195.837,180.402c0.504-0.694,0.566-1.756,1.075-2.56c0.381-0.601,0.789-1.174,1.292-1.736c0.923-1.03,2.138-1.801,3.43-2.56c2.223-1.306,4.891-1.839,7.509-2.357c2.446-0.484,4.933-1.125,7.362-1.585c2.802-0.531,5.815,0.974,8.187,1.806c1.087,0.381,2.155,0.856,3.265,1.273c1.565,0.589,3.15,0.66,4.113,1.912c0.613,0.797,1.192,1.967,1.286,2.897c0.172,1.706-1.442,1.344-2.938,0.782c-1.869-0.702-3.804-1.223-5.817-1.71c-1.177-0.285-2.415-0.561-3.545-0.917c-0.568-0.179-1.188-0.603-1.851-0.604c-1.304-0.002-2.865,0.938-4.145,1.315c-1.887,0.555-3.403,0.963-5.1,1.757c-3.227,1.51-5.862,3.439-9.491,4.431c-1.579,0.432-2.419,0.441-3.601-0.438c-1.234-0.918-0.467-1.622-0.992-2.567"/></g><g class="hair hair-1000"><path fill="#0e0e0c" d="M106.44,197.24c-0.99-5.34,1.01-10.58,3.12-15.52c1.06-2.49,2.64-4.55,3.46-7.18c0.89-2.86,0.99-5.77,1.29-8.79c0.59-5.97,1.1-10.96,3.25-16.44c2.22-5.68,6.34-12.09,11.69-15.33c6.2-3.75,13.4-7.44,20.3-9.47c9.13-2.69,18.57-5.64,28.11-6.21c6.28-0.38,14.26-0.27,20.1,1.94c4.2,1.59,8.53,2.29,13.05,2.75c6.33,0.64,10.17,1.31,14.75,5.99c3.37,3.44,7.03,6.32,10.46,9.76c4,4.01,7.94,8.3,8.24,14.26c0.29,5.61,0.94,10.63,2.24,15.99c1.35,5.59,4.87,9.86,6.05,15.3c1.32,6.04,3.03,10.93,2.96,17.47c-0.04,4.26,6.06-7.96,8.5-8.26c4.61-0.56,5.66,20.48,5.08,23.92c1.33,2.42,5.59,3.91,6.95,2.64c1.44-1.35,2.44-1.39,2.18-3.93c-0.15-1.51-0.83-2.93-0.96-4.63c-0.24-3.04-2.97-4.03-0.66-6.44c2.42-2.53,5.1-3.22,2.77-7.15c-0.84-1.42-2.12-2.11-2.37-3.82c-0.3-2.02,1.21-4.07,2.01-5.65c1-1.98,1.71-4.17,3.05-5.95c0.87-1.15,2.6-2.03,2.45-3.76c-0.2-2.26-4.58-3.72-5.86-5.73c-1.36-2.13-1.3-6.04-0.53-8.51c1.68-5.38,8.3-13.94,2.63-18.31c-2.07-1.6-6.5-2.31-7.99-4.19c-1.45-1.83-1.41-7.01-1.75-9.18c-0.59-3.81,0.63-7.64-1.5-11.07c-0.83-1.34-3.33-4.93-5-5.26c-1.62-0.32-3.33,1.69-4.99,1.77c-1.86,0.1-5.89-1.68-6.83-3.44c-1.13-2.1,1.55-4.77,2.32-6.88c0.98-2.71,1.1-4.89,0.99-7.92c-1.39-0.15-2.67,0.63-2.99,1.99c0.82,0.28,1.8,0.34,2.7,0.23c-1.99,0-5.17,0.92-6.9,0.56c-3.46-0.72-5.88-6.28-6.87-9.15c-1.5-4.35-3-7.95-6.43-11.17c-1.97-1.85-4.11-4.86-6.5-4.62c-4.02,0.42-9.04,5.52-13.25,4.13c-1.19-0.39-2.05-2.66-3-3.77c-1.13-1.33-2.49-2.54-3.98-3.52c-1.14-0.75-4.63-3.71-5.77-3.69c-0.79,0.02-2.86,1.9-3.76,2.22c-1.21,0.42-2.87,0.84-4.11,0.95c-3.18,0.3-3.87,0.34-4.85-2.47c-0.62-1.78-0.85-2.92-2.29-4.24c-3.49-3.2-3.52,2.68-5.55,4.7c-5.18,5.15-8.13-2.01-13.22-3.21c-1.84-0.43-4.27-0.33-5.99-0.5c-1.91-0.19-3.6-0.08-5.46,0.06c0.02,1.74,0.52,3.46-0.06,5.16c-3.98,0.71-6.77-4.09-10.49-2.97c-2.62,0.78-2.87,3.73-4.59,5.25c-1.95,1.73-4.82,3.56-7.25,3.76c-3.66,0.3-7.34-1.25-10.86-0.71c0.85,1.39,2.3,2.4,1.3,4.29c-1.07,2.01-4.15,1.62-6.05,1.7c-0.02,2.81,2.98,3.67-1.2,5.29c-2.61,1.01-5.57,1.28-8.13,2.39c-0.86,0.37-2,0.58-2.65,1.43c-1.37,1.77,0.06,1.71-0.1,3.62c-0.23,2.81-3.99,3.3-3.45,5.89c0.2,0.96,1.86,1.74,1.46,3.11c-0.23,0.77-2.09,2-2.74,2.42c-1.31,0.84-2.97,1.29-3.91,2.6c-1.22,1.69-0.48,1.37-0.29,3.17c0.44,4.25-0.94,6.13-3.31,9.25c-1.79,2.36-4.17,4-5.19,6.82c-0.65,1.78-0.34,2.17-0.25,4c0.1,2.09-0.73,3.9-2.48,5.43c-0.91,0.79-1.89,0.43-2.26,1.83c2.34,1.5,4.76,4.87,3.7,7.89c-0.96,2.75-4.2,3.85-6.16,5.67c-2.94,2.74-0.03,3.28,0.96,5.91c1.06,2.82,1.62,7.54,0.74,10.51c-0.76,2.59-2.81,4.64-4.05,6.95c-1.91,3.56-2.87,3.99,0.5,6.81c2.43,2.03,2.15,4.17,2.74,7.29c0.16,0.86,1.03,4.13,0.84,4.71c-0.55,1.69-3.1,2.51-3.71,4.51c-1.02,3.38,2.98,5.31,3.99,8.59c1.07,3.46-0.12,5.15,2.68,7.71c1.97,1.81,3.26,4.03,3.76,6.7c0.29,1.52,4.96-0.26,5.5,1.13c0.48,1.24-3.98-28.85-3.88-27.5c0.4-2.84,3-7.75,9.75-3.88"/></g><g class="facial-hair facial-hair-1004"><path fill="#0e0e0c" fill-opacity="1" d="M251.75,221.01c0.38-4.3,1.38-8.99,0.32-13.32c-0.18-0.77-0.48-2-1.03-2.66c0.06,4.32-0.24,8.62-0.92,12.95c-0.03,0.2-0.09,0.39-0.13,0.59c-0.07,1.34-0.18,2.67-0.42,4.01c-0.06,0.31-0.15,0.61-0.28,0.88c0.08,3.43-0.21,6.93-1.38,10.07c-0.1,0.26-0.22,0.5-0.32,0.75c-0.07,0.52-0.17,1.04-0.33,1.55c-0.76,2.38-2.01,4.5-3.2,6.68c-0.1,0.18-0.21,0.33-0.32,0.49c-1.02,3.22-4.35,5.97-6.57,8.49c-1.87,2.12-3.72,4.06-5.49,6.26c-1.01,1.25-2.26,4.74-3.9,4.79c-1.25,4.39-6.21,5.96-7.74,9.96c-1.21,3.16-0.49,7.39-1.31,10.71c-0.58,2.38-0.84,4.83-1.24,7.33c-0.65,4.07-0.49,9.41-4.02,11.95c-6.22,4.49-13.88,0.59-20.98,0.75c-3.97,0.09-6.22,2.08-10.32,1.27c-2.85-0.56-5.69-1.74-8.69-2.02c-5.28-0.5-10.98,1.23-16.25,1.76c-3.25,0.32-7.18,0.75-10.36-0.04c-2.46-0.62-7.15-23.23-6.63-28.47c0.52-5.25-7.42-10.16-10.31-14.19c-3.03-4.23-5.58-8.25-9.14-12.07c-2.94-3.15-5.49-6.53-8.25-9.8c-3.72-4.4-5.56-9.14-5.56-14.94c0-2.75-1-4.47-1.43-6.88c-0.03,0.19-0.05,0.39-0.07,0.57c-0.5,5.08,0.97,10,0.51,15.05c-0.06,0.69-0.11,1.34-0.15,1.98c0.15,0.52,0.21,1.11,0.15,1.78c-0.56,6.65,1.35,13.12,1.5,19.75c0,0.04,0,0.08,0,0.13c0.29,0.86,0.57,1.72,0.75,2.62c0.44,2.17,0.08,4.51,0.3,6.73c0.22,2.25,1.2,4.42,1.64,6.57c0.84,4.11,0.83,9.09,2.56,12.94c1.92,4.26,4.77,8.22,6.74,12.52c2.22,4.84,6.08,8.65,9.76,12.62c3.16,3.41,6.1,7,10.04,9.42c4.71,2.9,9.19,6.48,13.95,9.2c9.7,5.54,20.76,9.32,31.97,8.23c10.38-1.01,19.77-8.68,28.8-13.67c8.27-4.57,14.73-10.69,20.8-18c2.54-3.06,5.17-7.4,6.87-11.14c1.57-3.45,1.75-7.5,3.07-11.17c1.41-3.94,2.75-8.2,4.26-11.99c1.32-3.32,1.16-7.91,1.69-11.5c1.29-8.8-1.43-18.34,0.61-26.89C252.36,229.21,251.36,225.42,251.75,221.01z"/><path fill="#0e0e0c" fill-opacity="1" d="M142.25,276c2.07-1.64,3.45-3.89,5.3-5.75c1.98-1.98,4.63-3.19,6.93-4.74c4.25-2.85,9.57-5.1,14.81-5.51c3.11-0.24,5.59,1.2,8.47,1.74c2.59,0.49,5.26-0.26,7.74-0.74c2.28-0.44,4.2-0.49,6.55-0.25c2.74,0.28,3.5,0.91,5.75,2.3c4.28,2.63,9.47,4.01,13.92,6.42c1.75,0.95,3.74,3.15,5.58,3.47c3.96,0.7,0.53-2.29-0.61-3.68c-2.82-3.44-5.88-7.25-9.48-9.99c-3.24-2.47-8.39-6.02-12.46-6.27c-4.69-0.28-9.96-0.4-14.65,0.05c-4.49,0.43-9.62-0.11-14.11,0.71c-4.29,0.78-8.68,3.34-11.98,5.94c-3.91,3.08-8.31,4.34-10.46,9.06c-0.84,1.85-2.11,5.03-1.76,7.21c0.28,0.07,0.45,0.19,0.71,0.29"/></g><g class="nose nose-12"><path fill="#724524" d="M186.01,198.89c-0.17,1.53-0.26,3.95-0.49,5.46c-0.58,3.86,0.9,6.29,0.88,10.24 c-0.02,6.65,6.48,12.91,4.38,19.46c-5.2-0.71-6.56-12.33-6.95-16.23c-0.33-3.31-1.14-7.11-1.01-10.49 c0.11-2.91,1.43-6.24,2.54-9.75C185.35,197.6,186.24,196.78,186.01,198.89z"/><path fill="#4a1d00" d="M163.83,238.66c1.56-0.34,3.59-1.78,5.34-1.34c1,0.26,3.42,2.71,3.64,3.81c-1.2,0.21-2.4-1.68-3.61-2.01c-1.45-0.39-3.3-0.07-4.85-0.16c-0.05-0.24,0.07-0.26,0.15-0.47"/><path fill="#4a1d00" d="M200.33,241.83c-1.46-1.29-9.87-3.33-9.14,0.31c1.54,0.17,3.47-0.72,5.17-0.8c1-0.05,1.28-0.07,2.19,0.29c0.84,0.33,1.5,1.32,2.29,0.2"/><path fill="none" stroke="#6d401f" stroke-miterlimit="10" d="M164.67,221.33c-3.17-0.23-7.46,3.32-8.63,6.17c-1.31,3.2,0.62,6.73,2.3,9.34c1.52,2.36,3.89,2.48,6.49,3.01c1.77,0.36,3.45,0.6,5.36,0.66c1.81,0.06,2.63,0.82,4.16,1.79c2.47,1.57,4.3,4.03,7.62,3.34c1.35-0.28,2.58-1.6,3.67-2.33c1.34-0.9,2.75-1.19,4.37-1.13c1.73,0.07,3.59,0.14,5.33,0.33c1.74,0.19,4.16,1.04,5.97,0.47c2.02-0.65,4.62-3.22,6.08-4.75c1.56-1.64,3.42-3.97,2.59-6.54c-0.36-1.11-1.9-2.74-2.62-3.67c-0.94-1.2-3.13-2.24-3.67-3.5"/></g><g class="mouth mouth-17"><path fill="#F3D6B2" d="M160.53,269.64c-2.24-0.17-0.45,2.01,0.25,2.63c0.92,0.82,1.74,1.46,2.69,2.23c1.26,1.02,2.64,1.33,4.19,1.78c0.95,0.28,1.92,0.5,2.87,0.77c0.91,0.26,1.85,0.25,2.73,0.47c0.84,0.21,1.5,0.83,2.36,1.04c1.72,0.42,3.42,0.57,5.16,0.88c1.13,0.2,2.28,0,3.4,0.23c1.37,0.27,2.85,0.56,4.23,0.38c1.88-0.24,3.51-1.17,5.16-1.98c0.8-0.39,1.44-0.41,2.09-1.03c0.68-0.65,1.04-1.06,1.89-1.5c1.34-0.7,2.36-1.1,3.05-2.45c0.35-0.67,0.67-1.19,0.64-1.96c-0.06-1.65-2.53-2.56-3.78-3.39c-2.75-1.82-5.97-2.96-9.24-3.44c-2.5-0.36-4.51,0.05-6.85,0.6c-3.88,0.91-7.87,0.9-11.73,1.85c-1.34,0.33-2.76,0.24-4.04,0.73c-1.29,0.48-2.45,0.96-3.62,1.67c-0.54,0.33-0.96,0.59-1.61,0.56"/><path fill="#532316" d="M159.65,272.27c0.96-0.66,1.9-0.46,3.03-0.71c1.09-0.24,1.77-0.95,3.02-0.96c1.43-0.01,2.5,0.06,3.9-0.22c1.4-0.28,2.47,0.4,3.87-0.03c2.35-0.72,5.33-0.46,7.76-0.22c0.37,0.04,0.81,0.29,1.11,0.31c0.49,0.03,1.15-0.23,1.71-0.23c1.18,0,2.38-0.31,3.54-0.24c1.71,0.1,3.65-0.2,5.22,0.24c1.08,0.3,2.13,1.01,3.22,1.04c0.98,0.02,2.06,0.2,3.05,0.4c0.99,0.2,1.78,0.52,2.87,0.48c0.65-0.02,1.47-0.03,1.61-0.68c0.37-1.67-2.43-2.5-3.46-2.85c-2.06-0.71-4.05-1.49-6.18-1.98c-1.27-0.29-2.46-0.88-3.77-0.94c-1.15-0.05-2.34-0.05-3.49,0c-2.01,0.08-4.18,0.24-6.17,0.5c-1.89,0.24-3.77,0.18-5.68,0.32c-1.56,0.11-3.14,0.44-4.68,0.7c-1.55,0.26-3.14,0.36-4.68,0.64c-1.15,0.21-2.36,0.47-3.48,0.72c-1.62,0.36-4.6,2.54-2.23,3.83"/><path fill="#683b1a" fill-opacity="1" d="M152.24,270.12c0.86,0.53,3.78,3.75,4.47,4.6c1.44,1.79,2.96,3.32,4.62,4.9c1.09,1.04,2.03,2.53,3.35,3.33c0.94,0.56,1.9,1.21,2.88,1.73c1.82,0.98,4,1.76,6.07,2.01c1.21,0.15,2.37,0.01,3.56,0.16c1.32,0.17,2.47,0.37,3.83,0.31c1.62-0.06,7.56-0.45,8.74-1.28c0.8-0.56,1.81-0.67,2.64-1.17c0.86-0.52,1.8-1.2,2.64-1.83c2.05-1.52,4.16-3.07,5.84-5.05c0.91-1.07,4.51-4.06,4.9-4.85c0.29-0.58,1.93-2.27,2.07-2.87c0.11-0.48-2.12-0.46-1.92-0.94c-0.82,0.17-1.57,1.09-2.4,1.48c-1.06,0.5-2.2,0.99-3.33,1.33c-1.53,0.46-2.88,1.28-4.17,2.19c-0.95,0.68-1.95,1.22-2.93,1.91c-0.96,0.68-5.32,2.25-6.51,2.37c-2.55,0.26-4.85-0.29-7.41-0.38c-2.64-0.09-4.69-0.94-7.23-1.66c-2.58-0.73-4.83-1.17-7.11-2.41c-0.88-0.48-1.62-1.12-2.55-1.53c-1.02-0.45-1.89-0.95-2.72-1.52c-1.4-0.95-3-1.1-4.71-1.18c-0.73-0.04-1.38-0.13-1.83,0.48"/><path fill="#724524" d="M151.92,269.96c1.22,0.2,2.52-1.94,3.38-2.67c0.87-0.74,1.97-1.58,3.02-2.08c2.07-0.97,4.83-2.17,7.13-2.42c2.82-0.31,5.72-0.27,8.56-0.67c1.43-0.2,2.68-0.54,4.06,0.16c0.63,0.32,0.98,0.82,1.72,0.99c0.95,0.22,1.86-0.28,2.74-0.49c2.33-0.54,4.72-0.98,7.13-0.62c2.58,0.38,5.23,1.53,7.74,2.22c2.27,0.63,4.3,2.02,6.61,2.71c1.47,0.44,3.52,1.13,4.12,2.82c-1.38,1.75-6.15,2.13-8.27,1.8c-2.41-0.38-4.78-1.88-7.13-2.43c-2.69-0.63-5.95-0.32-8.8-0.28c-1.67,0.02-18.77,1.07-20.87,1.79c-1.27,0.44-3.7,0.52-5.77,0c-1.09-0.27-5.04,0.34-5.38-0.67"/></g></svg>