<svg id="s5342ebc1d5d2f" class="face" xmlns="http://www.w3.org/2000/svg" xmlns:xlink="http://www.w3.org/1999/xlink" x="0px" y="0px" width="357px" height="358px" viewBox="0 0 357 358"><path fill="#bf7f5c" d="M268.5,189.04c-1.41-1.92-2.86-2.74-4.22-2.91c-3.96-0.47-7.28,4.62-7.28,4.62c2.38-21.04,0-32.96,0-32.96c-16.83-65.56-65.84-69.37-76.8-69.39c-0.71,0.02-1.44,0.04-2.2,0.06c-54,1.42-71.5,44.58-71.5,44.58c-9,12.5-4,61.55-4,61.55c-21-12.95-1.5,45.45-1.5,45.45c5,13.5,8,1,8,1c2.88,12.67,6.63,23.41,10.9,32.53c0.85,44.99,1.74,68.73,1.44,83.43c23.33,0,116.79,0,123.83,0l1.52-85.32c6.58-17.33,7.31-32.14,7.31-32.14c2.5,3,6.5,1.5,6.5,1.5C272.75,234.79,268.5,189.04,268.5,189.04z M255.96,199.92C255.93,200.18,255.94,200.15,255.96,199.92L255.96,199.92z M256.22,197.67c0.03-0.3,0.07-0.64,0.11-1.01C256.29,197.01,256.25,197.35,256.22,197.67z M256.82,192.32c0.06-0.55,0.11-0.99,0.14-1.26C256.91,191.5,256.87,191.92,256.82,192.32z M265.33,190.26c-0.04-0.16-0.09-0.37-0.16-0.62c-0.13-0.5-0.31-1.2-0.54-2.1c0.22,0.86,0.4,1.58,0.54,2.1C265.24,189.9,265.29,190.1,265.33,190.26C265.47,190.79,265.48,190.83,265.33,190.26z"/><path fill="#ba7a57" d="M125.25,227.25c4.5-6.5,6.97-8.84,12.65-10c4.87-0.99,13.28-2.45,17.35-5.75c9.63-7.79,13.17-20.35,5.59-28.43c-4.32-4.6-7.03-7.3-13.05-8.81c-4.83-1.22-11.04-2.16-15.05-6.1c-7.84-7.69-11.29-20.73-10.82-31.2c0.41-8.95,9.17-18.79,15.15-24.83c7.04-7.12,15.71-14.12,23.72-20.42c-40.38,8.84-54.04,42.51-54.04,42.51c-9,12.5-4,61.55-4,61.55c-21-12.95-1.5,45.45-1.5,45.45c5,13.5,8,1,8,1c2.89,12.7,6.64,23.46,10.93,32.59c-0.78,38.87,1.32,70.54,1.15,83.21c7.79,0.1,53.6-30.51,61.45-32.32C179.16,318.81,113.75,264.75,125.25,227.25z"/><g class="eyes eyes-8"><path fill="#ffffff" fill-opacity="0.7" d="M125.65,196.01c5.16-0.65,8.73-4.66,14.5-5c5.9-0.34,9.51,2.28,12.05,7.5c-2.21,3.43-23.14,0.68-26.55-2"/><path fill="#ffffff" fill-opacity="0.7" d="M206.65,196.51c5.14-0.88,8.39-4.48,14.5-4c3.63,0.28,13.38,2.66,11.41,7.93c-8.8,2.55-17.06,2.17-24.91-3.43"/><path fill="#483224" d="M138.65,193.18c-4.59,4.13,2.7,8.07,6.68,5.08c5.02-3.77-3.68-7.24-7.02-5.08"/><path fill="#483224" d="M217.98,193.51c-3.32,0.64-2.99,6.32,0,7.6c3.16,1.35,7.51-1.13,7.27-4.54c-2.91-1.7-4.18-2.46-7.61-3.06"/></g><g class="eyebrows eyebrows-11"><path fill="#281312" fill-opacity="0.4" d="M110.5,195.67c0.83-3.17,4.41-7.04,6.63-9.37c1.53-1.6,3.78-2.51,5.37-4.13c1.43-1.47,2.82-2.57,4.47-3.79c5.14-3.83,11.26-2.4,17.14-3.54c4.69-0.91,10.05-0.3,14.18,1.93c3.42,1.85,5.55,2.89,5.68,6.88c-4.4,2.82-9.13,3.71-14.54,3.7c-2.54-0.01-4.64,0.38-6.96-0.45c-1.98-0.71-3.92-0.82-5.93-1.19c-2.14-0.4-4.47-1.46-6.67-1.2c-2.21,0.26-4.48,1.67-6.53,2.49c-3.84,1.54-6.55,4.22-10.13,6.35c-1.48,0.89-2.34,1.86-3.54,3"/><path fill="#281312" fill-opacity="0.4" d="M202,173c-4.71-0.38-9.26,3.05-12,6.5c-0.87,1.1-2.36,2.65-2.17,4.17c0.25,2.06,2.59,2.9,4.34,3c4.75,0.27,8.63-3.17,13.49-3.17c1.64,0,3.2,0.11,4.8,0.17c1.86,0.06,3.39-0.55,5.16-0.84c2.42-0.4,4.45-1.15,6.89-1.66c3.33-0.7,5.03,0.07,7.97,1.68c1.99,1.09,4.5,2.26,6.17,3.83c1.73,1.62,2.01,2.64,4.5,1.96c-0.09-1.35-2.05-3.33-2.85-4.47c-0.81-1.15-1.86-2.13-2.75-3.22c-2.31-2.82-4.34-5.22-7.88-6.47c-4.55-1.61-8.23-1.4-13.03-1.11c-3.87,0.23-8.11-1.4-11.96-0.72c-0.62,0.11-1.2,0.56-1.84,0.68"/></g><g class="hair hair-1007"><path fill="#1E1E1E" d="M105.1,198.5c2.5-3,1.6-12.1,1.2-16.1c-0.6-7.1-1.6-13.9,2.5-20.1c2.9-4.3,7.1-10,8.1-15.2c1.3-7,0.4-13.3,4.2-19.6c2.9-4.9,9.2-10.1,14.4-12.2c5.5-2.3,11.9-0.9,17.7-2.2c5.2-1.3,9.9-2.4,15.4-2.5c8.5-0.1,17.4,0.8,25.9,1.8c8.2,1,18-0.6,24.4,5.3c2.3,2.1,4.6,3.7,7,5.6c2.6,1.9,5.9,4.5,7.4,7.2c1.7,3,0.9,6.5,1.2,9.9c0.3,3.1,1.6,4.9,3.3,7.5c2,3,2.6,6,3.8,9.4c2.3,6.5,6.6,10.7,6.2,18.2c-0.3,6-0.2,11.9,0.9,17.7c0.5,2.7,1.2,5.8,0.9,8.6c1-1.5,1.7-3.4,2.8-4.9c0.9-1.2,2.5-2.2,3.4-3.4c1.7-2.5,2.1-5.4,2.3-8.3c0.2-2.9-0.3-5.8,0-8.7c0.2-1.8,1.1-2.5,1.5-4.1c0.4-1.5-0.1-3.3,0-4.9c0.3-3.9,0.8-6.6-0.3-10.5c-1-3.4-1.6-7.6-2.6-11.2c-1.5-5.2-2.1-11.2-3.9-16.1c-1.4-3.8-4.1-8.1-6.2-11.7c-1.7-2.9-3.4-6.3-5.3-9c-2.3-3.2-5.9-5.5-8.6-8.5c-1.8-2-3.8-4.9-5.9-6.4c-2.6-1.9-6.1-2.6-9-3.9c-4.1-1.9-7.9-4-12.1-5.7c-3.1-1.2-6.8-3.6-9.9-4.4c-3.2-0.8-7.6,0-10.9,0c-4.3,0-8.3-0.2-12.7,0c-3.4,0.1-6.1,0.1-9.2,0.9c-3.6,1-6.2,1.9-9.5,3.4c-4.9,2.2-10.1,2.9-14.8,5.5c-3.7,2-7.5,3.1-11.1,5c-11,5.8-19.1,15.8-25.5,26.1c-3.9,6.4-2.5,12.7-5.8,19.8c-1.9,4.1-0.7,5.9-1.3,9.4c-0.6,3.3-3.4,4-1.9,8.3c2.4,6.6-1.9,16.8,1.6,22.7c1.4,2.3,3.2,4.1,4.6,6.6c1.4,2.5,2,5.3,3.4,7.9c0.7,1.3,0.6,2.4,1.9,3.2"/></g><g class="facial-hair facial-hair-8"><path fill="#281312" fill-opacity="0.2" d="M172.88,256.5c-0.74,0.04-1.34,0.25-2.12,0.25c-0.61,0-1.23-0.04-1.83,0.06c-1.27,0.21-2.24,0.77-3.54,0.77c-1.77,0-3.52,0.19-5.06,0.91c-1.49,0.71-3.18,0.96-4.75,1.42c-2.14,0.62-3.55,1.75-5.51,3c-1.01,0.65-1.88,1.74-2.78,2.5c-0.78,0.66-1.95,3.42-2.03,3.92c-0.05,0.32-0.35,0.53-0.28,0.89c0.1,0.48,0.39,0.38,0.61,0.75c0.44,0.73,2.07-0.37,2.93-1.33c0.43-0.48,1.56-2.3,2.42-1.9c0.28-0.49,0.59-0.54,0.94-0.84c0.19-0.17,0.8-0.89,1.08-1.01c0.42-0.18,0.93,0.2,1.24,0.06c0.62-0.27,0.56-0.88,1.3-1.05c0.77-0.18,1.01-0.02,1.76-0.42c0.6-0.32,0.9-0.32,1.51-0.56c0.55-0.22,0.72-0.84,1.23-1.03c0.23-0.08,0.64,0.16,0.8,0.1c0.31-0.12,0.49-0.5,0.7-0.58c0.38-0.14,0.61,0.05,0.92,0c0.66-0.11,1.27-0.47,1.94-0.61c1.35-0.28,2.63,0.18,3.91-0.41c1.63-0.75,3.43-1.47,5.32-1.48c0.04,0-0.34,0-0.17,0c0.75,0,1.52,0.21,2.13,0.08c1.41-0.29,0.69-1.6-0.01-2.35c-0.32-0.34-1.11-1.02-1.58-1.17c-0.5-0.17-1.09,0.08-1.66,0.02"/><path fill="#281312" fill-opacity="0.2" d="M181.92,257.75c0.05,0.45,0.89,1.52,1.18,1.91c0.46,0.63,0.35,0.44,1.05,0.5c0.91,0.08,1.98,0.26,2.85,0.56c2.58,0.9,5.55,0.92,8.15,1.94c0.35,0.14,0.74,0.23,1.1,0.33c0.35,0.09,0.73,0.03,1.07,0.15c0.31,0.1,0.43,0.31,0.7,0.42c0.32,0.13,0.66,0.08,0.98,0.18c0.18,0.06,0.31,0.38,0.42,0.41c0.46,0.12,1.04-0.14,1.47,0.03c0.44,0.17,0.77,0.63,1.28,0.82c1.11,0.43,2.42,0.43,3.4,1.1c0.89,0.61,1.65,1.38,2.53,2c0.92,0.64,1.84,0.81,2.66,1.57c0.4,0.37,0.84,0.69,1.22,1.09c1.21,1.25,1.55,2.76,3.58,2.46c-0.01-1.13,0.78-2.33,0.57-3.45c-0.18-0.98-1.26-2.52-2.04-3.13c-0.47-0.37-1.05-0.6-1.52-0.98c-0.23-0.19-0.22-0.44-0.49-0.62c-0.67-0.45-1.21-0.46-1.79-1.02c-0.8-0.77-1.63-1.77-2.54-2.35c-1.42-0.91-3.35-1.12-4.94-1.58c-1.56-0.46-3.35-0.25-4.84-0.91c-1.28-0.57-2.15-1.18-3.68-1.17c-1.27,0-2.17-0.51-3.4-0.66c-1-0.13-1.99-0.17-2.99-0.25c-0.53-0.04-0.83-0.33-1.28-0.41c-0.5-0.09-0.88,0.22-1.31,0.24c-0.47,0.02-3.58-0.55-3.41,0.67"/><path fill="#281312" fill-opacity="0.7" d="M143,307.63c0.01,1.64,0.59,2.68,1.03,4.19c0.45,1.54,0.75,3.08,1.19,4.62c0.92,3.21,2.5,5.63,4.89,7.93c1.59,1.53,3.74,1.81,5.38,3.12c1.4,1.13,2.08,2.14,3.77,2.94c1.46,0.69,2.56,1.87,3.98,2.59c1.16,0.6,2.52,0.02,3.86-0.05c0.03-0.14,0.12-0.32,0.14-0.37c0.35,2.03,2.36-0.5,3.46-0.5c0.41-1.69-1.28-3.06-0.83-4.76c0.42-1.56,1.44-3.59,2.4-4.88c0.36-0.48,1.12-0.94,1.33-1.47c0.13-0.33-0.13-0.83,0.02-1.13c0.28-0.58,0.87-0.49,1.27-0.97c0.57-0.68,0.41-0.57,0.06-1.53c-0.44-1.19-0.47-1.93-1.45-2.62c-1.07-0.76-2.16-0.43-3.26-0.83c-1.39-0.52-2.38-2.11-3.95-2.52c-0.89-0.23-2,0.02-2.89,0.13c-2.39,0.29-3.96,0.55-5.99-0.77c-2.62-1.71-4.6-3.7-5.76-6.68c-0.66-1.7-1.11-2.19-2.62-3.11c-0.84-0.51-1.86-1.03-2.41-1.88c-0.72-1.12-0.83-2-1.81-3c-0.73-0.74-1.59-1.29-2.55-1.62c-0.6,1.33,0.51,2.97,0.77,4.34c0.4,2.1-1.56,3.1-1.2,4.98c0.32,1.69,1.27,2.7,1.29,4.46"/><path fill="#281312" fill-opacity="0.7" d="M194.63,308.5c-0.69,0.14-1.4,0.2-2.09,0.26c-1.08,2.31-3.54,2.14-5.52,2.76c-1.8,0.56-0.63,1.05-0.76,2.46c-0.09,0.96-0.64,1.19-1.34,1.8c-1.36,1.17-1.02,1.57-1.28,3.22c-0.12,0.74-0.76,1.45-0.64,2.26c0.09,0.63,0.9,1.69,1.23,2.28c1.49,2.68,2.65,5.3,3.79,8.1c0.44,1.09,0.51,1.73,1.74,2.23c1.71,0.7,2.91,0.15,4.38-0.48c0.57-0.24,1.37-0.15,1.95-0.4c0.22-0.1,0.46-0.56,0.67-0.6c0.87-0.19,1.66,0.38,2.5,0.27c0.67-0.09,1.06-0.59,1.63-0.85c1.06-0.49,2.19-0.48,3.29-0.75c2.79-0.67,4.15-3.36,6.02-5.26c1.13-1.14,1.27-1.88,1.84-3.4c0.61-1.62,1.44-3.21,1.97-4.86c0.86-2.64,2-4.09,1.28-7.03c-0.41-1.65-0.49-3.36-0.4-5.12c0.06-1.14,0-2.1-0.16-3.23c-0.08-0.56,0.05-1.35-0.09-1.93c-0.16-0.65-0.63-1.06-0.85-1.76c-0.29,2-1.06,5.05-2.75,6.35c-1.13,0.87-2.39,0.68-3.57,1.36c-1.31,0.74-1.81,2.04-3.04,2.79c-1.26,0.77-3.18,1.04-4.67,0.93c-0.75-0.05-1.4-0.42-2.13-0.38c-1.26,0.06-1.91,1.19-2.9,0.42c-0.22-0.17-0.37-1.03-0.59-1.28"/></g><g class="nose nose-21"><path fill="#b57552" d="M186.01,198.89c-0.17,1.53-0.26,3.95-0.49,5.46c-0.58,3.86,0.9,6.29,0.88,10.24 c-0.02,6.65,6.48,12.91,4.38,19.46c-5.2-0.71-6.56-12.33-6.95-16.23c-0.33-3.31-1.14-7.11-1.01-10.49 c0.11-2.91,1.43-6.24,2.54-9.75C185.35,197.6,186.24,196.78,186.01,198.89z"/><path fill="#8d4d2a" d="M162.63,247.25c1.69-1.11,2.96-2.59,5.26-2c0.68,0.18,3.84,1.33,3.47,2.47c-0.55,1.74-9.18,1.2-8.98-0.47"/><path fill="#8d4d2a" d="M185,246.13c1.59-0.98,3.93-1.6,5.62-0.72c0.94,0.49,4.06,1.96,2.5,3.07c-1.33,0.95-3.51-0.57-4.65-0.94c-0.77-0.25-1.65-0.11-2.38-0.38c-0.73-0.27-1.56-1.18-0.47-1.66"/><path fill="none" stroke="#b0704d" stroke-miterlimit="10" d="M161.38,230.88c-3.2,3.47-6.95,7.96-5.75,13.12c0.39,1.67,1.64,3.93,3.34,4.66c1.49,0.65,3.62,0.29,5.26,0.61c1.4,0.27,2.54,0.6,4.04,0.72c1.48,0.12,3.37-0.2,4.85,0.13c0.94,0.21,1.67,1.01,2.56,1.41c1.44,0.64,4.01,1.29,5.58,1.22c1.49-0.07,2.46-0.78,3.69-1.47c2.93-1.64,6.72-0.89,9.95-0.78c2.39,0.08,5.64-0.44,7.22-2.26c2.62-2.99-0.16-7.34-1.59-10.34c-1.1-2.3-2.29-2.99-3.88-5.1c-2.03-2.68-4.55-8.49-5.03-11.56"/></g><g class="mouth mouth-1"><path fill="#F0EBDB" d="M155.57,271.23c1.76-1.95,5.27-1.66,7.66-2c1.97-0.28,3.96-0.52,5.86-0.98c4.03-0.98,7.67,0.95,11.71,0.95c4.02,0,7.81,0.35,11.82,0.36c2,0,3.75-0.53,5.68-0.72c1.32-0.13,2.73-0.79,3.84-0.08c1.38,0.87,4.29,3.01,3.01,4.63c-1.71,2.16-4.81,2.32-6.83,4.05c-1.21,1.03-1.85,1.65-3.42,2.28c-2.21,0.89-4.62,1.63-6.95,2.03c-5,0.87-9.81,1.6-14.87,0.69c-4.19-0.76-9.87-0.5-12.56-4.25c-0.95-1.33-2.39-2.39-3.2-3.71c-0.61-1.01-0.48-2.75-1.53-3.37"/><path fill="#69322D" d="M151.63,267.4c1.16,0.43,1.74,2.35,2.42,3.2c0.68,0.85,1.65,1.81,2.73,2.19c0.59-0.8,1.06-1.33,2.03-1.56c1.15-0.27,1.67,0.31,2.61,0.69c0.43-0.83,2.52-0.87,3.4-0.82c0.83,0.05,1.66,0.49,2.48,0.51c0.78,0.01,1.68-0.51,2.51-0.73c2.37-0.62,4.02-0.02,6.22,0.33c1.42,0.23,2.8-0.56,4.28-0.36c0.81,0.11,1.49,0.73,2.16,0.85c0.73,0.13,1.66-0.27,2.4-0.34c2.17-0.18,4.12,0.6,6.2,0.45c1.36-0.1,2.19-0.4,3.49-0.21c1.09,0.16,3.14,0.35,4.04,0.11c1.68-0.46,3.07-1.1,3.62-0.17c0.23,0.39,1.6,1.85,1.99,1.97c2.02,0.61,2.89-2.88,2.01-4.09c-2.23-3.1-6.29-3.2-9.77-3.73c-2.19-0.33-4.61-0.6-6.83-0.34c-1.06,0.13-2.01,0.63-3.09,0.73c-1.37,0.13-2.68-0.18-4.03-0.24c-2.94-0.13-5.89-0.08-8.85,0.11c-1.43,0.09-3.2,0.58-4.58,0.01c-0.95-0.4-1.6-1.05-2.59-1.47c-1.04-0.44-2.17-0.81-3.25-1.07c-2.37-0.57-3.9,0.81-6.1,1.46c-1.56,0.46-4.99,0.71-5.25,2.62"/><path fill="#a7696a" fill-opacity="0.9" d="M150.31,267.28c1.71,3.94,4.44,7.52,6.82,11.18c1.18,1.81,2.61,3.54,4.06,5.2c1.59,1.82,2.92,3.72,5.11,4.89c1.52,0.81,2.98,1.5,4.7,1.68c1.78,0.18,3.66,0.04,5.39,0.47c3.06,0.77,5.42,0.97,8.58,0.49c1.11-0.17,2.5-0.23,3.58-0.51c1.11-0.29,1.82-0.98,2.75-1.63c2.05-1.43,3.92-3.01,5.75-4.79c2.53-2.46,4.81-5.02,7.39-7.43c2.24-2.08,3.8-4.14,4.42-6.92c-1.84-0.16-5,2.63-6.22,3.8c-1.58,1.51-2.65,2.41-4.74,2.92c-4.35,1.06-8.61,2.96-13.32,2.96c-3.42,0-6.83,0.69-10.25,0.84c-1.41,0.06-3.68,0.41-5.02,0.11c-0.96-0.21-2.3-1.26-3.24-1.7c-2.16-1.02-3.78-2.87-5.48-4.48c-1.63-1.55-3.39-2.84-5.02-4.36c-1.19-1.11-3.68-3.79-5.5-2.72"/><path fill="#b57552" d="M149.83,267.4c0.85-0.2,1.56-1.53,2.27-2.12c0.95-0.8,2.11-1.31,3.36-1.56c2.67-0.52,5.46-1.05,8.24-0.77c2.96,0.3,5.84,0.35,8.84,0.5c2.49,0.13,4.76,0.96,7.26,1.2c2.49,0.24,4.97-0.14,7.43-0.24c2.59-0.11,5.04-0.98,7.66-0.72c1.71,0.17,3.52,0.78,5.21,1.08c1.21,0.22,1.9,0.4,2.9,0.95c1.64,0.91,3.41,1.25,5.02,2.26c0.77,0.48,1.97,1.44,0.89,2.31c-0.58,0.47-2.56,0.33-3.32,0.44c-3.15,0.46-6.21-0.11-9.2-0.71c-5.52-1.12-11.28-1.04-16.93-1.32c-2.06-0.1-3.72-1.04-5.74-1.31c-2.84-0.38-5.28-1.52-8.02-2.18c-1.12-0.27-2.29-0.59-3.43-0.69c-1.31-0.11-1.86,0.35-2.98,0.87c-1.17,0.55-2.49,0.42-3.69,0.8c-0.99,0.32-1.7,1.08-2.7,1.44c-0.78,0.28-1.75,0.26-2.58,0.22c-0.03-0.15-0.03-0.3-0.02-0.46"/></g></svg>