<svg id="s588d27882d13c" class="face" xmlns="http://www.w3.org/2000/svg" xmlns:xlink="http://www.w3.org/1999/xlink" x="0px" y="0px" width="357px" height="358px" viewBox="0 0 357 358"><path fill="#d48a65" d="M268.5,189.04c-1.41-1.92-2.86-2.74-4.22-2.91c-3.96-0.47-7.28,4.62-7.28,4.62c2.38-21.04,0-32.96,0-32.96c-16.83-65.56-65.84-69.37-76.8-69.39c-0.71,0.02-1.44,0.04-2.2,0.06c-54,1.42-71.5,44.58-71.5,44.58c-9,12.5-4,61.55-4,61.55c-21-12.95-1.5,45.45-1.5,45.45c5,13.5,8,1,8,1c2.88,12.67,6.63,23.41,10.9,32.53c0.85,44.99,1.74,68.73,1.44,83.43c23.33,0,116.79,0,123.83,0l1.52-85.32c6.58-17.33,7.31-32.14,7.31-32.14c2.5,3,6.5,1.5,6.5,1.5C272.75,234.79,268.5,189.04,268.5,189.04z M255.96,199.92C255.93,200.18,255.94,200.15,255.96,199.92L255.96,199.92z M256.22,197.67c0.03-0.3,0.07-0.64,0.11-1.01C256.29,197.01,256.25,197.35,256.22,197.67z M256.82,192.32c0.06-0.55,0.11-0.99,0.14-1.26C256.91,191.5,256.87,191.92,256.82,192.32z M265.33,190.26c-0.04-0.16-0.09-0.37-0.16-0.62c-0.13-0.5-0.31-1.2-0.54-2.1c0.22,0.86,0.4,1.58,0.54,2.1C265.24,189.9,265.29,190.1,265.33,190.26C265.47,190.79,265.48,190.83,265.33,190.26z"/><path fill="#cf8560" d="M125.25,227.25c4.5-6.5,6.97-8.84,12.65-10c4.87-0.99,13.28-2.45,17.35-5.75c9.63-7.79,13.17-20.35,5.59-28.43c-4.32-4.6-7.03-7.3-13.05-8.81c-4.83-1.22-11.04-2.16-15.05-6.1c-7.84-7.69-11.29-20.73-10.82-31.2c0.41-8.95,9.17-18.79,15.15-24.83c7.04-7.12,15.71-14.12,23.72-20.42c-40.38,8.84-54.04,42.51-54.04,42.51c-9,12.5-4,61.55-4,61.55c-21-12.95-1.5,45.45-1.5,45.45c5,13.5,8,1,8,1c2.89,12.7,6.64,23.46,10.93,32.59c-0.78,38.87,1.32,70.54,1.15,83.21c7.79,0.1,53.6-30.51,61.45-32.32C179.16,318.81,113.75,264.75,125.25,227.25z"/><g class="eyes eyes-5"><path fill="#ffffff" fill-opacity="0.7" d="M135.75,201.5c-1.72,0.07-3.66,2.14-4.47,3.45c3.15,0.53,5.6-0.64,8.67,0.86c2.25,1.11,4.17,1.78,7.05,1.94c5.49,0.3,10.45-1.49,15.73-1.79c-2.69-4.57-8.53-6.93-13.48-7.21C145.09,198.51,137.96,197.42,135.75,201.5"/><path fill="#ffffff" fill-opacity="0.7" d="M201.34,205.04c2.89-1.3,3.77-2.92,6.9-3.8c2.42-0.68,6.6-1.72,9.21-1.18c4.91,1.02,10.58,5.93,14.47,9.21c-2.99-0.07-5.62-0.73-8.34,0.27c-2.89,1.07-5.39,0.46-8.74,0.46c-3.16,0-5.29-1.17-8-2.22c-2.25-0.87-5.17,0.4-7.08-1.28"/><path fill="#304274" d="M209.75,201.75c-2.03,3.49,0.87,6.17,4,6.44c2.37,0.2,7.99,1.38,9.32-0.94c2.08-3.6-2.84-5.28-5.27-6.07c-3.14-1.02-5.62-1.69-8.06,1.06"/><path fill="#304274" d="M141,199.25c-3.15,0.45-2.06,5.23-0.01,6.56c2.14,1.39,6.63,1.67,9.01,0.76c3.89-1.5,3.21-4.74,0.01-6.31c-2.92-1.44-5.92-1.25-9.25-1.25"/></g><g class="eyebrows eyebrows-7"><path fill="#141615" fill-opacity="0.7" d="M121.67,187.5c0.97-0.2,1.18-1.43,1.83-2.09c0.66-0.68,1.73-1.3,2.54-1.78c1.58-0.94,3.15-2.22,4.98-2.8c1.34-0.42,2.89-0.53,4.32-0.78c1.29-0.23,2.54-0.23,3.94-0.18c3.22,0.12,7.86-0.38,10.54,1.43c2.69,1.81,5.53,3.42,8.59,4.58c2.47,0.94,5.32,1.34,5.06,4.44c-1.58-0.02-3.11-0.64-4.78-0.64c-1.31,0-2.48,0.32-3.7,0.47c-2.48,0.3-4.22-1.22-6.34-2.13c-3.71-1.58-7.66-1.83-11.46-3c-1.29-0.39-3.01-0.92-4.41-0.51c-1.19,0.34-2.02,1.21-3.25,1.51c-1.45,0.36-2.99,0.7-4.33,1.38c-1.34,0.67-2.25,1.46-3.67,1.94c-0.44-0.77,0.05-1.48,0.64-1.82"/><path fill="#141615" fill-opacity="0.7" d="M205.33,188.17c0.03-1.33,1.67-2.74,2.67-3.5c2.01-1.55,4.37-0.77,6.55-1.75c3.52-1.58,7.16-2.21,11.13-2.08c2.49,0.08,4.05,1.08,6.33,1.83c1.52,0.5,2.88,0.79,4.3,1.5c1.46,0.73,2.67,1.56,3.82,2.7c0.9,0.89,1.88,2.37,3.02,2.82c0.47,1.79-1.24,2.83-2.7,2.15c-1.32-0.63-2.28-2.21-3.61-3c-1.82-1.08-4.54-1.88-6.63-2.29c-2.19-0.43-3.9,0.36-5.96,0.66c-2.16,0.31-3.63-0.15-5.57,0.75c-2.08,0.96-4.38,1.65-6.39,2.68c-1.99,1.03-6.27,3.03-7.25-0.67c-0.18-0.68,0.13-1.51,0.63-1.8"/></g><g class="chin chin-4"><path display="inline" fill="none" stroke="#cf8560" stroke-miterlimit="10" d="M148.67,321.33c2.9,4.97,9.55,7.09,14.17,9.33 c1.98,0.96,4.19,1.2,6.32,1.8c3.69,1.04,7.7,1.38,11.51,1.54c4.9,0.2,11.34,0.95,15.96-0.5c1.89-0.59,4.02-0.41,5.92-1.37 c1.37-0.69,2.61-1.58,3.92-2.33c2.71-1.57,6-3.24,8.38-5.25c1.9-1.61,3.95-3.63,6.16-4.71"/></g><g class="hair hair-3013"><linearGradient id="hair_1_588d27882d1a4" gradientUnits="userSpaceOnUse" x1="180.5867" y1="259.8034" x2="180.5867" y2="154.1389"><stop offset="0" style="stop-color:#141615;stop-opacity:0"/><stop offset="0.995" style="stop-color:#141615"/></linearGradient><path fill="url(#hair_1_588d27882d1a4)" d="M262.1,145.2c0.5-22.8-29.5-44.4-48.1-51.5c-20.2-7.6-64-4.5-83.4,7.6c-18,11.3-27.9,19.3-30.5,42c-2.3,20.1-1,39.6,2.8,59.4c1.3-20.8,10.9-41,13.8-61.7c2.1-14.9,41.2-19.3,52.6-20.3c25.8-2.2,51.4,4.3,73.3,18.1c8.6,5.4,4.9,15.8,6.1,24.7c1.8,12.8,5.9,25.2,6,38.3C258.2,182.8,261.7,164.4,262.1,145.2z"/></g><g class="nose nose-10"><path fill="#ca805b" d="M186.01,198.89c-0.17,1.53-0.26,3.95-0.49,5.46c-0.58,3.86,0.9,6.29,0.88,10.24 c-0.02,6.65,6.48,12.91,4.38,19.46c-5.2-0.71-6.56-12.33-6.95-16.23c-0.33-3.31-1.14-7.11-1.01-10.49 c0.11-2.91,1.43-6.24,2.54-9.75C185.35,197.6,186.24,196.78,186.01,198.89z"/><path fill="#a25833" d="M171.75,238.75c-2.31-0.23-2.82,2.22-1.75,3.75c1.06,1.52,2.65,2.54,4.63,1.75c5.37-2.13-2.3-8.14-4.63-5.25"/><path fill="#a25833" d="M188.25,238.88c-1.1-0.12-1.74,0.48-2.38,1.22c-0.95,1.11-0.87,1.46,0,2.52c0.62,0.76,1.7,2.12,2.62,2.48c0.87,0.34,2.53-0.15,3.38-0.48c1.85-0.7,3.13-2.9,1.65-4.65c-1.11-1.31-3.66-1.82-5.28-1.22c-0.18,0.07-0.13,0.05-0.25,0.12"/><path fill="none" stroke="#c57b56" stroke-miterlimit="10" d="M167.63,232.25c-1.9,1.11-4.09,2.63-5.16,4.74c-0.86,1.69-0.22,4.64,0.16,6.38c0.45,2.09,2.24,4.18,4.22,5c1.03,0.42,2.72,0.48,3.89,0.5c1.72,0.03,2.24-0.82,3.63-1.26c1.9-0.59,4.9,0.33,6.76,0.62c3.3,0.52,6.46-0.66,9.85-0.37c1.42,0.12,2.4,0.58,3.68,0.03c0.81-0.35,1.47-0.88,2.21-1.4c1.99-1.42,2.59-2.57,3.4-4.75c0.71-1.91,0.58-2.59-0.78-4.29c-1.06-1.33-2.17-2.66-3.49-3.7c-1.22-0.96-2.55-1.87-3.71-3c-0.98-0.95-3.03-2.44-3.54-3.63"/></g><g class="mouth mouth-13"><path fill="#271011" d="M154.04,273.51c0.52,4.09,7.62,5.03,10.62,5.49c9.01,1.38,18.18,1.52,27.17,0.96c4.02-0.25,7.97-1.95,11.51-3.5c0.79-0.35,2.83-0.79,3.21-1.58c0.6-1.23-0.53-3.3-1.39-3.82c-0.17-0.1-0.05-0.16-0.15-0.29c-1.6-0.41-3.66-0.32-5.28-0.27c-9.56,0.32-18.88,0.02-28.37-1.08c-5.05-0.58-11.27-2.07-15.05,2.28c-0.63,0.72-1.25,2.1-2.41,1.93"/><path fill="#AFA9A3" d="M165.31,273.37c-0.94,0.51-0.06,2.88,0.41,3.66c0.82,1.38,1.79,1.15,3.35,1.15c2.38,0,4.53,0.05,6.83-0.54c2.42-0.63,4.37-0.83,6.89-0.83c1.95,0,3.57,0.6,5.42,0.69c2.43,0.12,5.01,0.11,7.37-0.44c1.28-0.3,3.35-0.59,4.48-1.24c1.29-0.75,0.6-1.62-0.35-2.57c-1.63-1.64-4.22-2.75-6.49-2.75c-1.92,0-4.56,2.16-6.47,2.07c-1.63-0.08-2.55,0.21-4.14,0.52c-2.87,0.56-6.48,0.31-9.42,0.03c-2.05-0.19-6.94-1.88-8.28,0.68"/><path fill="#ca805b" d="M152.8,272.28c0.74-4.3,9.08-7.56,12.66-8.87c2.62-0.96,4.86-1.62,7.68-1.57c2.86,0.05,5.01,1.46,7.7,2.21c5.94,1.66,11.43-1.64,17.27-0.58c2.9,0.53,16.47,8.12,8.84,9.92c-1.7,0.4-4.23,0.08-5.97-0.01c-2.67-0.14-4.8-1.62-7.22-1.94c-2.52-0.34-4.71,1.38-7.06,1.75c-2.44,0.38-5.01,0.2-7.5,0.2c-4.78,0-9.81-1.22-14.58-1.38c-1.72-0.06-12.08,4.8-11.83,0.83"/><path fill="#c07651" fill-opacity="1" d="M153.08,275.71c2.21,0.4,5.23,2.72,6.77,4.5c1.79,2.07,3.63,3.61,5.95,5.13c1.36,0.89,2.83,2.1,4.46,2.33c2.17,0.3,4.43,0.17,6.6,0.41c2.95,0.33,5.9,1.27,8.94,0.97c2.35-0.23,4.5-1.5,6.69-2.32c3.97-1.48,7.52-2.88,10.44-6.04c1.71-1.85,4.4-4.41,4.62-7.07c-4.04,2.24-8.19,1.56-12.79,1.8c-2.12,0.11-4.32,0.01-6.39,0.42c-2.18,0.43-4.2,0.75-6.44,0.85c-2.01,0.09-4.05,0.13-6.08,0.11c-2.04-0.02-3.69-0.75-5.65-0.96c-3.52-0.38-7.13-0.47-10.56-0.96c-2.02-0.29-4.99-0.59-6.71,0.55"/></g></svg>