<svg id="s57da0c34dbea5" class="face" xmlns="http://www.w3.org/2000/svg" xmlns:xlink="http://www.w3.org/1999/xlink" x="0px" y="0px" width="357px" height="358px" viewBox="0 0 357 358"><path fill="#b88a73" d="M268.5,189.04c-1.41-1.92-2.86-2.74-4.22-2.91c-3.96-0.47-7.28,4.62-7.28,4.62c2.38-21.04,0-32.96,0-32.96c-16.83-65.56-65.84-69.37-76.8-69.39c-0.71,0.02-1.44,0.04-2.2,0.06c-54,1.42-71.5,44.58-71.5,44.58c-9,12.5-4,61.55-4,61.55c-21-12.95-1.5,45.45-1.5,45.45c5,13.5,8,1,8,1c2.88,12.67,6.63,23.41,10.9,32.53c0.85,44.99,1.74,68.73,1.44,83.43c23.33,0,116.79,0,123.83,0l1.52-85.32c6.58-17.33,7.31-32.14,7.31-32.14c2.5,3,6.5,1.5,6.5,1.5C272.75,234.79,268.5,189.04,268.5,189.04z M255.96,199.92C255.93,200.18,255.94,200.15,255.96,199.92L255.96,199.92z M256.22,197.67c0.03-0.3,0.07-0.64,0.11-1.01C256.29,197.01,256.25,197.35,256.22,197.67z M256.82,192.32c0.06-0.55,0.11-0.99,0.14-1.26C256.91,191.5,256.87,191.92,256.82,192.32z M265.33,190.26c-0.04-0.16-0.09-0.37-0.16-0.62c-0.13-0.5-0.31-1.2-0.54-2.1c0.22,0.86,0.4,1.58,0.54,2.1C265.24,189.9,265.29,190.1,265.33,190.26C265.47,190.79,265.48,190.83,265.33,190.26z"/><path fill="#b3856e" d="M125.25,227.25c4.5-6.5,6.97-8.84,12.65-10c4.87-0.99,13.28-2.45,17.35-5.75c9.63-7.79,13.17-20.35,5.59-28.43c-4.32-4.6-7.03-7.3-13.05-8.81c-4.83-1.22-11.04-2.16-15.05-6.1c-7.84-7.69-11.29-20.73-10.82-31.2c0.41-8.95,9.17-18.79,15.15-24.83c7.04-7.12,15.71-14.12,23.72-20.42c-40.38,8.84-54.04,42.51-54.04,42.51c-9,12.5-4,61.55-4,61.55c-21-12.95-1.5,45.45-1.5,45.45c5,13.5,8,1,8,1c2.89,12.7,6.64,23.46,10.93,32.59c-0.78,38.87,1.32,70.54,1.15,83.21c7.79,0.1,53.6-30.51,61.45-32.32C179.16,318.81,113.75,264.75,125.25,227.25z"/><g class="eyes eyes-21"><path fill="#ffffff" fill-opacity="0.7" d="M154.675,192.763c0.515,0.944,0.79,2.031,0.731,3.18c-0.17,3.356-3.065,5.937-6.466,5.764c-3.402-0.172-6.021-3.032-5.851-6.389c0.033-0.656,0.173-1.28,0.398-1.862c-1.676,1.114-4.709,3.721-4.815,4.47l0.063,0.062c-0.05,0.954,1.15,1.029,1.882,1.289c0.907,0.322,1.773,0.785,2.644,1.259c0.822,0.448,4.069,0.996,4.934,1.148c0.806,0.142,3.872,0.212,4.572,0.094c1.264-0.212,2.549-0.602,3.796-0.837c1.189-0.224,2.33-0.613,3.417-1.161c0.866-0.437,2.215-1.071,2.796-1.878C161.553,196.941,156.537,193.614,154.675,192.763z"/><path fill="#402a13" d="M148.94,201.707c3.401,0.172,6.296-2.408,6.466-5.764c0.059-1.148-0.216-2.235-0.731-3.18c-0.106-0.049-0.208-0.093-0.292-0.125c-1.3-0.486-2.623-0.854-4.541-0.718c-0.866,0.063-1.739,0.245-2.575,0.452c-0.974,0.241-2.079,0.236-3,0.629c-0.19,0.082-0.463,0.245-0.779,0.455c-0.225,0.582-0.365,1.206-0.398,1.862C142.919,198.674,145.538,201.534,148.94,201.707z"/><path fill="#ffffff" fill-opacity="0.7" d="M228.037,196.748c-0.722-0.708-1.382-1.047-2.185-1.658c-0.889-0.676-2.145-1.249-3.354-1.735c0.063,0.388,0.086,0.787,0.065,1.193c-0.165,3.241-3.018,5.73-6.374,5.56c-3.354-0.17-5.942-2.935-5.777-6.175c0.046-0.911,0.311-1.759,0.732-2.508c-0.716,0.215-1.425,0.487-2.114,0.7c-0.619,0.192-3.212,1.622-3.919,2.228c-0.889,0.762-1.452,1.607-2.093,2.527c0.56,0.019,0.841,0.271,1.292,0.595c0.753,0.542,3.212,1.283,3.694,1.519c0.8,0.392,2.466,0.982,3.325,1.119c3.313,0.529,5.842,1.562,9.284,0.896c1.335-0.258,2.626-0.453,3.918-0.919c0.585-0.211,3.181-0.713,3.818-0.93c0.506-0.171,1.079-0.506,1.621-0.717C229.415,197.875,228.634,197.334,228.037,196.748z"/><path fill="#402a13" d="M216.189,200.107c3.356,0.17,6.209-2.319,6.374-5.56c0.021-0.407-0.003-0.806-0.065-1.193c-0.627-0.252-1.242-0.482-1.786-0.689c-1.222-0.463-2.409-0.83-3.631-1.086c-1.199-0.252-2.715-0.533-3.962-0.514c-0.659,0.011-1.32,0.161-1.975,0.358c-0.422,0.75-0.687,1.598-0.732,2.508C210.247,197.172,212.835,199.937,216.189,200.107z"/></g><g class="eyebrows eyebrows-18"><path fill="#2e1d16" fill-opacity="1" d="M117.5,198.33c-0.11-1.82,2.26-4.52,3.18-6.01c1.64-2.65,3.3-5.76,5.62-7.81c2.25-1.99,5.25-2.95,7.58-4.81c1.69-1.35,3.6-2.37,5.63-3.2c4.88-2.01,9.97-3.43,15.26-2.33c2.85,0.59,5.78,1.4,8.63,1.97c1.52,0.3,3.27,1.29,4.62,2.2c1.13,0.77,2.63,2.2,2.33,3.7c-0.5,2.51-4.22,1.95-6.01,1.5c-4.62-1.15-8.87-2.51-13.65-1.73c-4.53,0.74-8.37,0.9-12.72,2.69c-4.02,1.66-7.9,3.91-11.4,6.51c-1.29,0.96-7.94,7.94-9.06,7.49"/><path fill="#2e1d16" fill-opacity="1" d="M231.17,178.31c-6.83-1.26-13.94-4.96-20.55-4.44c-4.35,0.35-8.11-0.01-11.79,1.92c-2.81,1.47-4.68,3.82-1.5,5.77c1.48,0.91,2.55,0.84,4.2,1.12c3.01,0.52,5.96-0.72,9.15-0.59c4.14,0.17,9.17,1.81,13.13,2.82c2.76,0.71,5.5,1.73,8.32,2.35c1.8,0.39,3.04,0.82,4.56,1.79c1.35,0.86,2.53,1.7,3.66,2.65c0.8,0.67,2.28,2.48,3.54,2.03c1.65-0.59,0.38-2.37-0.23-3.11c-1.39-1.71-2.33-3.6-3.61-5.4c-2.55-3.58-5.09-3.74-8.37-6.38"/></g><g class="chin chin-15"><path fill="none" stroke="#b3856e" stroke-miterlimit="10" d="M148.17,314.5c2.03,0.92,12.9,9.24,14.52,10c2.37,1.12,15.18,5.5,17.81,6c7.24,1.37,12.83-0.5,19.5-2.83c8.62-3.02,16.75-8.58,20.67-17"/></g><g class="hair hair-10"><path fill="#2e1d16" fill-opacity="0.2" d="M257.1,191.8c2.4-21,0-33,0-33c-16.8-65.6-65.8-69.4-76.8-69.4c-0.7,0-1.4,0-2.2,0.1 c-20.3,0.5-35.4,6.9-46.4,14.8c-7.4,6.1-14.8,14.1-22.2,24.2c-2,3.4-2.9,5.6-2.9,5.6c-9,12.5-4,61.5-4,61.5 c0.3,1.4,0.5,1.7,0.5,1.9c0,0,0.9,5.9,3,14.9c0,0,3.1-28.8,10.5-36.7c0,0,11.6-4.7,11.9-18.4c0,0-1.7-19.4,0.7-23.8c0,0,58.2-29.9,103.8,3.6c0,0,5.8,24.5,13.3,38.5c0,0,1.4,1.1,2.4,8.6c0,0,1.4,24.1,2.7,29.9l3.1-13L257.1,191.8z M256.9,193.3 c0.1-0.5,0.1-1,0.1-1.3C257,192.5,257,192.9,256.9,193.3z"/></g><g class="nose nose-11"><path fill="#ae8069" d="M186.01,198.89c-0.17,1.53-0.26,3.95-0.49,5.46c-0.58,3.86,0.9,6.29,0.88,10.24 c-0.02,6.65,6.48,12.91,4.38,19.46c-5.2-0.71-6.56-12.33-6.95-16.23c-0.33-3.31-1.14-7.11-1.01-10.49 c0.11-2.91,1.43-6.24,2.54-9.75C185.35,197.6,186.24,196.78,186.01,198.89z"/><path fill="#865841" d="M168.25,236.38c-1.48,0.41-5.26,4.48-3.75,5.85c1.41,1.29,2.76-0.81,3.88-1.39c1.75-0.9,3.65-0.71,5.48-1.35c0.53-2.2-4.6-5.68-5.73-2.99"/><path fill="#865841" d="M188.63,235c-1.05-0.39-1.6-1.1-2.78-0.5c-0.65,0.33-2,1.59-2.35,2.22c-1.14,2.1,3.47,3.29,4.9,4.06c1.06,0.57,5.07,1.1,4.35-1.17c-0.25-0.8-1.83-2.11-2.35-2.9c-0.52-0.77-0.86-1.18-1.65-1.59"/><path fill="none" stroke="#a97b64" stroke-miterlimit="10" d="M155.88,239.75c0.06,7.07,10.22,7.27,15.25,6c2.97-0.75,5.7,0.64,8.59,0.88c0.73,0.06,1.81,0.16,2.51-0.09c0.71-0.26,1.25-1.16,1.91-1.48c1.22-0.6,3.52-0.55,4.88-0.31c2.73,0.49,5.06,1.36,7.61-0.09c2.49-1.41,3.63-2.95,3.63-5.78"/></g><g class="mouth mouth-7"><path fill="#B69882" d="M163.09,271.36c-2.17-0.01-5.39,3-4.43,5.36c0.47,1.16,5.74,4.3,7.02,5.05c4.19,2.46,9.32,3.08,14.28,2.62c3.1-0.29,8.26-0.16,11.14-1.29c2.41-0.96,4.23-3.33,6.49-4.65c2.49-1.46,4.98-1.18,4.58-4.42c-0.5-4.14-5.36-4.15-8.75-4.34c-3.95-0.22-6.24-0.02-9.42,1.61c-3.39,1.74-7.68,1.82-11.58,1.08c-2.32-0.44-8.54-4.3-9.67-1.02"/><path fill="#a4765f" fill-opacity="1" d="M151.09,277.36c4.58,3.87,8.12,8.16,13.99,10.01c4.74,1.49,9.23,4.06,14.36,4.65c5.48,0.63,11.58-1.46,16.98-2.33c4.74-0.76,9.98-5.08,11.94-9.65c0.61-1.42,0.67-3.5,1.01-4.96c-4.98-2.09-9.18-0.81-13.28,1.97c-4.51,3.05-9.3,2.97-14.67,2.97c-5.63,0-10.14,0.27-15.07-1.92c-4.52-2-10.28-1.87-14.93-0.75"/><path fill="#ae8069" d="M152.75,275.03c4.12-0.8,8.64-8.02,12.35-10.6c4.85-3.38,10.36-4,15.65-1.73c4.26,1.82,9.21,1.25,13.67,2.92c4.77,1.79,8.8,4.37,12.97,7.41c-1.52,2.41-11.31,0.88-14.03,0.6c-5.17-0.52-9.52-0.77-14.6-0.26c-4.95,0.5-10.07-0.58-14.65-0.68c-3.55-0.08-9.14,5.53-12.02,2.68"/></g></svg>