<svg id="s54ae0d72be5d8" class="face" xmlns="http://www.w3.org/2000/svg" xmlns:xlink="http://www.w3.org/1999/xlink" x="0px" y="0px" width="357px" height="358px" viewBox="0 0 357 358"><path fill="#b47853" d="M268.5,189.04c-1.41-1.92-2.86-2.74-4.22-2.91c-3.96-0.47-7.28,4.62-7.28,4.62c2.38-21.04,0-32.96,0-32.96c-16.83-65.56-65.84-69.37-76.8-69.39c-0.71,0.02-1.44,0.04-2.2,0.06c-54,1.42-71.5,44.58-71.5,44.58c-9,12.5-4,61.55-4,61.55c-21-12.95-1.5,45.45-1.5,45.45c5,13.5,8,1,8,1c2.88,12.67,6.63,23.41,10.9,32.53c0.85,44.99,1.74,68.73,1.44,83.43c23.33,0,116.79,0,123.83,0l1.52-85.32c6.58-17.33,7.31-32.14,7.31-32.14c2.5,3,6.5,1.5,6.5,1.5C272.75,234.79,268.5,189.04,268.5,189.04z M255.96,199.92C255.93,200.18,255.94,200.15,255.96,199.92L255.96,199.92z M256.22,197.67c0.03-0.3,0.07-0.64,0.11-1.01C256.29,197.01,256.25,197.35,256.22,197.67z M256.82,192.32c0.06-0.55,0.11-0.99,0.14-1.26C256.91,191.5,256.87,191.92,256.82,192.32z M265.33,190.26c-0.04-0.16-0.09-0.37-0.16-0.62c-0.13-0.5-0.31-1.2-0.54-2.1c0.22,0.86,0.4,1.58,0.54,2.1C265.24,189.9,265.29,190.1,265.33,190.26C265.47,190.79,265.48,190.83,265.33,190.26z"/><path fill="#af734e" d="M125.25,227.25c4.5-6.5,6.97-8.84,12.65-10c4.87-0.99,13.28-2.45,17.35-5.75c9.63-7.79,13.17-20.35,5.59-28.43c-4.32-4.6-7.03-7.3-13.05-8.81c-4.83-1.22-11.04-2.16-15.05-6.1c-7.84-7.69-11.29-20.73-10.82-31.2c0.41-8.95,9.17-18.79,15.15-24.83c7.04-7.12,15.71-14.12,23.72-20.42c-40.38,8.84-54.04,42.51-54.04,42.51c-9,12.5-4,61.55-4,61.55c-21-12.95-1.5,45.45-1.5,45.45c5,13.5,8,1,8,1c2.89,12.7,6.64,23.46,10.93,32.59c-0.78,38.87,1.32,70.54,1.15,83.21c7.79,0.1,53.6-30.51,61.45-32.32C179.16,318.81,113.75,264.75,125.25,227.25z"/><g class="eyes eyes-23"><path fill="#FFFFFF" fill-opacity="0.7" d="M131.596,203.802c0,0,15.5-17.815,28.25-0.565C159.846,203.237,142.721,208.617,131.596,203.802z"/><path fill="#FFFFFF" fill-opacity="0.7" d="M205.346,201.112c0,0,8.25-16.25,28.625-1.125C233.971,199.987,218.971,207.737,205.346,201.112z"/><path fill="#483224" d="M224.334,197.961c0-1.628-0.985-3.071-2.506-3.99c-3.19-0.688-5.877-0.464-8.091,0.237c-1.311,0.921-2.142,2.258-2.142,3.752c0,2.776,2.852,5.027,6.369,5.027C221.483,202.987,224.334,200.737,224.334,197.961z"/><path fill="#483224" d="M151.834,200.014c0-1.722-1.098-3.24-2.771-4.146c-3.283-0.495-6.418,0.333-9.103,1.625c-0.547,0.742-0.865,1.601-0.865,2.521c0,2.776,2.852,5.027,6.369,5.027C148.983,205.04,151.834,202.79,151.834,200.014z"/></g><g class="eyebrows eyebrows-19"><path fill="#19120c" fill-opacity="0.7" d="M118.25,196.75c0.07-4.44,4.29-8.87,8.56-9.69c4.49-0.87,10.44-0.55,14.87,0.13c4.44,0.69,8.71,1.08,13.13,0.37c4.97-0.8,7.21-4.82,2-7.61c-7.85-4.21-17.11-2.59-25.56-2.19c-4.95,0.23-6.97,3.81-10.24,7.3c-2.21,2.37-6.42,6.67-4.83,10.26c0.29,0.64,0.83,0.91,1.53,0.97c0.2,0.25-0.03,0.3,0.29,0.5c0.3-0.44,0.32-1.11,0.25-1.79"/><path fill="#19120c" fill-opacity="0.7" d="M225.5,177.16c-5.04-1.51-15.77-0.16-20.5,1.54c-2.89,1.04-8.48,4.97-6.52,8.42c1.65,2.89,8.27,0.21,14.27-0.01c2.07-0.08,4.39-0.79,6.25-1.55c2.73-1.11,6.68,0.01,9.75-0.22c6.64-0.49,10.18,4.83,14.22,8.36c-1.24-3.16-4.13-6.86-6.96-9.24c-1.82-1.53-4.96-4.25-7.47-4.68c-0.63-0.89-2.64-2.35-3.79-2.62"/></g><g class="chin chin-7"><path display="inline" fill="none" stroke="#af734e" stroke-miterlimit="10" d="M146,311.67c2.08,1.12,4.01,5.38,5.67,7.35 c2.23,2.66,4.46,5.73,7.34,7.74c7,4.89,18.17,7.28,26.56,7.91c5.8,0.44,14.16-3.86,18.4-7.64c3.1-2.77,6.04-5.84,9.02-8.71 c2.25-2.17,5.93-4.62,6.35-7.98"/></g><g class="hair hair-15"><path fill="#19120c" fill-opacity="0.9" d="M257.1,191.8C257.1,191.8,257.1,191.8,257.1,191.8C257.1,191.7,257.1,191.8,257.1,191.8c2.4-21,0-33,0-33c-16.8-65.6-65.8-69.4-76.8-69.4c-0.7,0-1.4,0-2.2,0.1c-54,1.4-71.5,44.6-71.5,44.6c-6.7,9.3-5.6,41.6-3.9,61.7c0.9-11.7,4.4-35.5,20.9-40.1l0.5-15c0,0,39.3-34.4,116.5,0v17.8c0,0,12.7,0.8,16,31.9C256.7,190.9,257.1,191.3,257.1,191.8z"/></g><g class="nose nose-2"><path fill="#aa6e49" d="M186.01,198.89c-0.17,1.53-0.26,3.95-0.49,5.46c-0.58,3.86,0.9,6.29,0.88,10.24 c-0.02,6.65,6.48,12.91,4.38,19.46c-5.2-0.71-6.56-12.33-6.95-16.23c-0.33-3.31-1.14-7.11-1.01-10.49 c0.11-2.91,1.43-6.24,2.54-9.75C185.35,197.6,186.24,196.78,186.01,198.89z"/><path fill="#824621" d="M166.63,243.75c2.25-1.3,2.59-3.82,5.63-2.9c1.56,0.48,4.43,2.55,4.11,4.38c-0.96,0.17-1.93-0.21-2.76-0.63c-1.38-0.7-1.58-0.67-2.84,0.31c-1.49,1.16-3.98,1.35-4.49-0.88c0.25-0.19,0.55-0.29,0.86-0.28"/><path fill="#824621" d="M187.38,240.75c-0.76,0.2-2.24,1.91-2.38,2.74c-0.25,1.5,0.94,1.27,2.01,1.38c1.81,0.18,3.94,1.63,5.75,0.78c3.43-1.6-3.45-8.78-6.13-4.16"/><path fill="none" stroke="#a56944" stroke-miterlimit="10" d="M164.75,227c0.56,1.57-0.23,2.33-0.76,3.75c-0.47,1.27-0.72,2.65-1.21,3.87c-0.9,2.23-2.4,3.66-2.53,6.12c-0.15,2.94,1,4.25,2.75,6.37c1.36,1.65,4.54,2.49,6.63,2.01c1.04-0.24,1.75-0.86,2.88-0.75c1.13,0.1,2.24,0.56,3.37,0.72c1.05,0.15,2.32,0.09,3.38,0.03c1.33-0.08,1.49-0.53,2.53-1.23c2.13-1.42,6.09,0.33,8.72,0.1c2.12-0.19,3.6-1.49,5.35-2.75c1.25-0.9,2.52-2.38,3.13-3.75c0.93-2.09-1.34-2.51-1.6-4.25"/></g><g class="mouth mouth-14"><path fill="#1E0E0F" d="M156.1,268.13c-1.36,0.44-2.56-0.01-3.79-0.4c-0.08,1.38,1.71,2.42,2.57,3.16c1.28,1.1,2.82,2.29,4.24,3.09c2.47,1.4,5.49,0.86,8.23,1.11c3.5,0.32,7.14,0.21,10.66,0.29c7.43,0.18,14.62-0.2,21.89-1.75c2.94-0.63,6.29,1.3,8.05-1.42c0.38-0.59,1.36-2.64,0.96-3.22c-0.61-0.9-3.37-0.41-4.33-0.41c-4.86,0-9.81,0.06-14.64-0.16c-5.07-0.23-10.13,0.33-15.16,0.31c-4.92-0.02-10.03-1.24-14.98-0.6c-1.18,0.15-3.95,1.17-4.92,0.15"/><path fill="#F2E8D3" d="M160.19,272.21c0.52-2.44,0.49-2.98,2.84-3.9c1.99-0.78,4.17,0.02,6.31-0.42c1.37-0.28,2.65-0.1,4.01-0.06c1.18,0.04,2.26-0.26,3.51-0.31c2.12-0.08,4.49,0.71,5.86,2.29c1.18-1.27,3.21-1.92,4.98-2.29c1.3-0.27,2-0.19,2.99,0.65c0.18,0.15,0.49,0.81,0.64,0.87c0.95,0.4,0.4-0.07,1.25-0.4c1.11-0.43,2.14-0.65,3.32-0.32c1.04,0.29,1.89,1.28,2.84,1.48c1.34,0.28,4.47-0.09,5.79-0.4c1.88,2.61-2.86,3.82-4.43,4.48c-2.48,1.05-4.66,3.95-7.41,4.4c-3.16,0.51-6.48,0.9-9.72,1.05c-1.58,0.07-3.04-0.1-4.5-0.46c-1.45-0.36-2.83-0.24-4.36-0.45c-1.35-0.18-2.17-0.88-3.55-1.21c-1.58-0.38-2.89-0.86-4.48-1.63c-0.98-0.47-2.19-1.34-3.31-1.68c-1.32-0.4-2.46-0.15-3.24-1.54c0.36-0.32,0.17-0.53,0.33-0.91"/><path fill="#aa6e49" d="M152.17,267.98c3.67-0.2,6.51-2.17,9.69-3.32c2.45-0.88,5.78-1.42,8.43-1.67c3.05-0.29,6.28,0.02,9.26,0.3c2.97,0.28,6.15-0.15,9.23-0.15c4.08,0,7.87-0.39,11.78,0.79c1.81,0.54,3.74,1.32,5.31,2.23c0.79,0.46,3.4,2.02,3.44,2.85c-1.47,0.47-2.99,0.08-4.51,0.33c-1.13,0.19-2.21,0.48-3.48,0.61c-1.67,0.17-3.43,0.42-5.14,0.3c-1.96-0.14-3.58-0.88-5.45-1.06c-2.82-0.27-5.3,0.7-7.86,1.21c-2.86,0.57-6.07-0.48-8.91-0.6c-3.94-0.18-7.86-0.45-11.76-0.45c-1.74,0-3.64,0.6-5.31,0.31c-1.52-0.27-2.84-1.13-4.39-1.09c-0.03-0.19-0.04-0.39-0.02-0.58"/><path fill="#a7696a" fill-opacity="0.9" d="M153.08,269.19c5.63,6.78,10.19,15.23,19.32,17.54c3.78,0.96,7.28,2.02,11.27,2.23c2.11,0.11,4.45-0.26,6.46-0.87c1.64-0.5,3.49-1.06,5.03-1.81c3.94-1.92,7.54-2.91,10.09-6.77c1.71-2.58,4.18-7.42,4.09-10.72c-1.21,2.48-6.04,3.72-8.59,4.22c-3.6,0.71-7.24,1.51-10.84,2.35c-2.67,0.62-5.64,1.33-8.4,1.05c-3.99-0.4-8.38-1.01-12.07-2.5c-3.53-1.42-7.47-1.11-11-2.13c-1.93-0.55-4.48-1.13-5.82-2.76"/></g></svg>