<svg id="s592cd39e1f489" class="face" xmlns="http://www.w3.org/2000/svg" xmlns:xlink="http://www.w3.org/1999/xlink" x="0px" y="0px" width="357px" height="358px" viewBox="0 0 357 358"><path fill="#a6775b" d="M268.5,189.04c-1.41-1.92-2.86-2.74-4.22-2.91c-3.96-0.47-7.28,4.62-7.28,4.62c2.38-21.04,0-32.96,0-32.96c-16.83-65.56-65.84-69.37-76.8-69.39c-0.71,0.02-1.44,0.04-2.2,0.06c-54,1.42-71.5,44.58-71.5,44.58c-9,12.5-4,61.55-4,61.55c-21-12.95-1.5,45.45-1.5,45.45c5,13.5,8,1,8,1c2.88,12.67,6.63,23.41,10.9,32.53c0.85,44.99,1.74,68.73,1.44,83.43c23.33,0,116.79,0,123.83,0l1.52-85.32c6.58-17.33,7.31-32.14,7.31-32.14c2.5,3,6.5,1.5,6.5,1.5C272.75,234.79,268.5,189.04,268.5,189.04z M255.96,199.92C255.93,200.18,255.94,200.15,255.96,199.92L255.96,199.92z M256.22,197.67c0.03-0.3,0.07-0.64,0.11-1.01C256.29,197.01,256.25,197.35,256.22,197.67z M256.82,192.32c0.06-0.55,0.11-0.99,0.14-1.26C256.91,191.5,256.87,191.92,256.82,192.32z M265.33,190.26c-0.04-0.16-0.09-0.37-0.16-0.62c-0.13-0.5-0.31-1.2-0.54-2.1c0.22,0.86,0.4,1.58,0.54,2.1C265.24,189.9,265.29,190.1,265.33,190.26C265.47,190.79,265.48,190.83,265.33,190.26z"/><path fill="#a17256" d="M125.25,227.25c4.5-6.5,6.97-8.84,12.65-10c4.87-0.99,13.28-2.45,17.35-5.75c9.63-7.79,13.17-20.35,5.59-28.43c-4.32-4.6-7.03-7.3-13.05-8.81c-4.83-1.22-11.04-2.16-15.05-6.1c-7.84-7.69-11.29-20.73-10.82-31.2c0.41-8.95,9.17-18.79,15.15-24.83c7.04-7.12,15.71-14.12,23.72-20.42c-40.38,8.84-54.04,42.51-54.04,42.51c-9,12.5-4,61.55-4,61.55c-21-12.95-1.5,45.45-1.5,45.45c5,13.5,8,1,8,1c2.89,12.7,6.64,23.46,10.93,32.59c-0.78,38.87,1.32,70.54,1.15,83.21c7.79,0.1,53.6-30.51,61.45-32.32C179.16,318.81,113.75,264.75,125.25,227.25z"/><g class="eyes eyes-5"><path fill="#ffffff" fill-opacity="0.7" d="M135.75,201.5c-1.72,0.07-3.66,2.14-4.47,3.45c3.15,0.53,5.6-0.64,8.67,0.86c2.25,1.11,4.17,1.78,7.05,1.94c5.49,0.3,10.45-1.49,15.73-1.79c-2.69-4.57-8.53-6.93-13.48-7.21C145.09,198.51,137.96,197.42,135.75,201.5"/><path fill="#ffffff" fill-opacity="0.7" d="M201.34,205.04c2.89-1.3,3.77-2.92,6.9-3.8c2.42-0.68,6.6-1.72,9.21-1.18c4.91,1.02,10.58,5.93,14.47,9.21c-2.99-0.07-5.62-0.73-8.34,0.27c-2.89,1.07-5.39,0.46-8.74,0.46c-3.16,0-5.29-1.17-8-2.22c-2.25-0.87-5.17,0.4-7.08-1.28"/><path fill="#332a19" d="M209.75,201.75c-2.03,3.49,0.87,6.17,4,6.44c2.37,0.2,7.99,1.38,9.32-0.94c2.08-3.6-2.84-5.28-5.27-6.07c-3.14-1.02-5.62-1.69-8.06,1.06"/><path fill="#332a19" d="M141,199.25c-3.15,0.45-2.06,5.23-0.01,6.56c2.14,1.39,6.63,1.67,9.01,0.76c3.89-1.5,3.21-4.74,0.01-6.31c-2.92-1.44-5.92-1.25-9.25-1.25"/></g><g class="eyebrows eyebrows-20"><path fill="#281312" fill-opacity="0.7" d="M120,193c2.964-3.944,4.346-8.004,7.818-11.7c4.633-4.93,12.946-4.678,19.194-5.3c3.71-0.369,7.282-0.226,10.949,0.682c2.651,0.656,9.891,1.969,10.744,4.818c1.394,4.653-8.978,4.32-11.4,4.25c-6.998-0.203-13.255-2.153-20.092,0.312c-3.685,1.328-6.448,1.632-9.695,3.638c-2.375,1.468-4.913,1.614-7.269,3.3"/><path fill="#281312" fill-opacity="0.7" d="M243.75,188.25c-1.425-0.445-3.628-3.865-5.098-4.994c-2.428-1.866-4.7-3.276-7.631-4.2c-5.42-1.709-10.988-3.056-16.717-3.056c-5.33,0-14.488-0.107-18.054,4.506c-4.131,5.345,4.082,5.994,7.75,5.994c3.552,0,7.34-1.307,10.749-1c3.77,0.34,6.914-0.049,10.5-0.25c3.549-0.199,8.461,0.801,11.75,1.987c2.738,0.987,4.834,3.308,7.968,3.219c-0.111-1.284-1.442-2.003-2.468-2.707"/></g><g class="hair hair-21"><path fill="#281312" fill-opacity="0.2" d="M255.2,200.6c0.6-4.5,1.4-8.9,2.3-13.3c1.6-18.3-0.4-28.5-0.4-28.5c-16.8-65.6-65.8-69.4-76.8-69.4c-0.7,0-1.4,0-2.2,0.1c-54,1.4-71.5,44.6-71.5,44.6c-9,12.5-4,61.5-4,61.5c-1.2-0.7-2.3-1.2-3.2-1.5c0.2,0.4,0.4,0.8,0.6,1.3c1.8,4.4,4.3,11.7,9,13.6c0.3-5.6,0.7-11.4,0.7-16.9c0.1-6-2.6-11.2-2.7-17.4c-0.1-6,3.4-10.9,3.7-16.6c0.2-4.5-2.9-12.4,0.3-16.3c0.3-0.3,0.4-0.4,0.7-0.7l0.3-1c6.8-2,14.6-1.8,21.2-4.7c3.4-1.5,5.1-3.8,8.8-4.4c4.5-0.7,9.1-1,13.7-1c5.2,0,9.9,1.6,15.2,1.7c10.6,0.1,21.2-0.8,31.7-1c4.3-0.1,8.1,1.1,12.1,1.9c3.3,0.7,6.9,0.6,10,1.7c5.2,1.9,11.4,3.7,16.9,6.1c1.2,6.7,1.3,13.9,2.3,20.7c0.3,1.8,0.4,3.5,1.2,5.2c1,2.2,4.1,3.8,4.9,6.1c0.7,1.9-0.1,5,0.4,7.1c0.8,3.3,2.3,6.3,3,9.5c0.8,3.6,1.9,7.8,1,11.7C254.6,200.7,255.1,200.6,255.2,200.6z"/></g><g class="facial-hair facial-hair-19"><path fill="#281312" d="M213.3,302.6c-0.4,1.4-1,2.8-1.9,4.3c-0.3,0.5-0.7,1-1,1.6c0,0,0,0,0,0c-0.5,1.2-1.2,2.4-2,3.5c-0.2,0.5-0.4,1-0.5,1.5c-1.8,0.9-2.8,3.1-4.8,3.7c0,0-0.1,0-0.1,0c-7,4.9-16.7,6.9-24.4,6.3c-11-1-19.7-8.5-25.3-17.7c0.2,1.6,0.4,3.1,1.4,4.9c2,3.5,4.6,7.6,8,10.2c3.7,2.8,8.5,2,12.7,3.7c1.5,0.6,2.6,1.7,4.4,2c3.3,0.7,7.5,0.4,10.9,0.3c3.6-0.1,6.1-1.8,9-3.5c2.5-1.4,5.7-1.7,7.5-4.3c1.6-2.4,4.7-6.1,6.7-10c0.6-2.4,0.5-4.9,0.7-7.4C214,302,213.7,302.3,213.3,302.6z"/></g><g class="nose nose-22"><path fill="#9c6d51" d="M186.01,198.89c-0.17,1.53-0.26,3.95-0.49,5.46c-0.58,3.86,0.9,6.29,0.88,10.24 c-0.02,6.65,6.48,12.91,4.38,19.46c-5.2-0.71-6.56-12.33-6.95-16.23c-0.33-3.31-1.14-7.11-1.01-10.49 c0.11-2.91,1.43-6.24,2.54-9.75C185.35,197.6,186.24,196.78,186.01,198.89z"/><path fill="none" stroke="#97684c" stroke-miterlimit="10" d="M195.333,236.667c1.84,0.719,2.839,3.799,2.332,5.999	c-0.615,2.667-2.788,3.464-5.266,4.001c-2.459,0.533-5.993-0.532-8.391,0.31c-2.935,1.03-4.122,3.785-7.619,4.041 c-2.651,0.194-4.005-0.401-5.966-1.758c-2.852-1.973-3.221-2.032-6.758-2.259c-6.306-0.405-7.227-4.598-4-9.333"/></g><g class="mouth mouth-26"><path fill="#F2E7DC" d="M151.5,267.5c1.875-2.375,3.625-2.438,6.375-2.75c1.875-0.188,4.063,0.063,5.938,0.25 c1.938,0.188,3.875,0.063,5.75,0.375c2,0.25,3.938,0.375,5.938,0.438c3.938,0.125,7.938,0.563,11.938,0 c1.75-0.25,3.438-0.25,5.25-0.375c1.5-0.063,3-0.5,4.563-0.438c1.813,0.063,4.063,0.438,5.75,1.063 c0.938,0.313,1.5,0.75,2.375,1.25c0.625,0.375,1.938,0.5,2.375,1c1.688,1.875-7.375,4.563-8,4.813 c-3.875,1.438-7.25,3.75-10.938,5.375c-2.5,1.063-5.438,1.688-8.125,1.875c-5.5,0.438-10.625-0.875-15.938-1.75 c-2.375-0.438-3.875-1.5-5.438-3.25c-0.75-0.813-1.563-1.813-2.375-2.438c-0.75-0.563-1.563-0.75-2.25-1.375 c-1.188-1-2.75-2.688-2.875-4.25"/><path fill="#a7696a" fill-opacity="0.9" d="M149,267.6c0.8,3.3,2.2,6.6,3.5,9.8c1.3,3.2,2.9,5.9,5.6,8.1c5.2,4.4,13.3,4.8,19.9,4.2 c3.4-0.3,6.9-0.8,10.3-1.5c4.7-1.1,8.2-4.7,11.7-7.9c2.4-2.3,5.2-4.4,7.2-7.1c0.8-1,1.2-2.2,1.7-3.4c0.4-1.1-0.4-0.9-0.2-2.1 c-1.4,0.2-1.3,0-2.7,0.4c-1.8,0.4-2.9,0.8-4.3,2c-1.5,1.2-3.1,1.8-4.7,2.8c-1.4,0.9-2.9,1.2-4.4,1.9c-1.4,0.8-2.5,1.9-4.2,1.9 c-1.5,0.1-2.9-0.4-4.4-0.4c-3.2-0.2-6.4,0.6-9.5,0.2c-2.8-0.4-6,0.1-8.5-1.1c-1.5-0.6-3-0.9-4.5-1.5c-1.6-0.7-4.3-2.9-5.5-3.9 c-2.1-1.7-4.4-3.5-7.2-2.4"/><path fill="#9c6d51" d="M152.6,264.3c6.8-1.1,12.9-3.1,19.9-2.7c1,0,1.9,0,2.9,0.3c1,0.3,2.4,1.8,2.9,1.8c2.2,0,4.6-1.5,6.8-2 c4.4-1.2,11.6-0.5,15.6,1.4c3.1,1.3,7.3,2.2,8.5,5.7c-5.1-0.3-7.7-2-12.8-2.1c-5.1-0.1-10.4-0.4-15,1c-3.6,0.9-3.9,0.9-7.3,0.1 c-2.4-0.5-5.1-0.6-7.3-0.9c-5.1-0.8-6.7,0.3-11.5-0.2c-1.5,0-5.4,1.5-6.6,0.8C150.3,267.1,151.2,264.5,152.6,264.3"/></g></svg>