<svg id="s5cd114a4ce2b8" class="face" xmlns="http://www.w3.org/2000/svg" xmlns:xlink="http://www.w3.org/1999/xlink" x="0px" y="0px" width="357px" height="358px" viewBox="0 0 357 358"><path fill="#885c43" d="M268.5,189.04c-1.41-1.92-2.86-2.74-4.22-2.91c-3.96-0.47-7.28,4.62-7.28,4.62c2.38-21.04,0-32.96,0-32.96c-16.83-65.56-65.84-69.37-76.8-69.39c-0.71,0.02-1.44,0.04-2.2,0.06c-54,1.42-71.5,44.58-71.5,44.58c-9,12.5-4,61.55-4,61.55c-21-12.95-1.5,45.45-1.5,45.45c5,13.5,8,1,8,1c2.88,12.67,6.63,23.41,10.9,32.53c0.85,44.99,1.74,68.73,1.44,83.43c23.33,0,116.79,0,123.83,0l1.52-85.32c6.58-17.33,7.31-32.14,7.31-32.14c2.5,3,6.5,1.5,6.5,1.5C272.75,234.79,268.5,189.04,268.5,189.04z M255.96,199.92C255.93,200.18,255.94,200.15,255.96,199.92L255.96,199.92z M256.22,197.67c0.03-0.3,0.07-0.64,0.11-1.01C256.29,197.01,256.25,197.35,256.22,197.67z M256.82,192.32c0.06-0.55,0.11-0.99,0.14-1.26C256.91,191.5,256.87,191.92,256.82,192.32z M265.33,190.26c-0.04-0.16-0.09-0.37-0.16-0.62c-0.13-0.5-0.31-1.2-0.54-2.1c0.22,0.86,0.4,1.58,0.54,2.1C265.24,189.9,265.29,190.1,265.33,190.26C265.47,190.79,265.48,190.83,265.33,190.26z"/><path fill="#83573e" d="M125.25,227.25c4.5-6.5,6.97-8.84,12.65-10c4.87-0.99,13.28-2.45,17.35-5.75c9.63-7.79,13.17-20.35,5.59-28.43c-4.32-4.6-7.03-7.3-13.05-8.81c-4.83-1.22-11.04-2.16-15.05-6.1c-7.84-7.69-11.29-20.73-10.82-31.2c0.41-8.95,9.17-18.79,15.15-24.83c7.04-7.12,15.71-14.12,23.72-20.42c-40.38,8.84-54.04,42.51-54.04,42.51c-9,12.5-4,61.55-4,61.55c-21-12.95-1.5,45.45-1.5,45.45c5,13.5,8,1,8,1c2.89,12.7,6.64,23.46,10.93,32.59c-0.78,38.87,1.32,70.54,1.15,83.21c7.79,0.1,53.6-30.51,61.45-32.32C179.16,318.81,113.75,264.75,125.25,227.25z"/><g class="eyes eyes-24"><path fill="#FFFFFF" fill-opacity="0.7" d="M125.8,205.3c0,0,15.6-12.5,30.9-5.5c0,0,0.6,3.2-1.5,4C155.1,203.7,130.3,206.4,125.8,205.3z"/><path fill="#FFFFFF" fill-opacity="0.7" d="M202.4,203.1c0,0,1.4-7.7,18.8-5.5c0,0,11,1.9,15.6,6C236.8,203.7,209.8,206,202.4,203.1z"/><path fill="#402a13" d="M224,204.4c0.4-0.9,0.6-1.9,0.6-2.9c0-1.2-0.3-2.3-0.9-3.3c-1.6-0.4-2.6-0.6-2.6-0.6c-4.5-0.6-7.9-0.5-10.5,0c-0.8,1.1-1.2,2.5-1.2,3.9c0,1,0.2,1.9,0.6,2.8C214.3,204.7,219.4,204.6,224,204.4z"/><path fill="#402a13" d="M133.7,200.6c0,0.3-0.1,0.6-0.1,0.9c0,1.4,0.4,2.7,1.2,3.8c4.4-0.2,9.5-0.6,13.5-1c0.4-0.9,0.6-1.8,0.6-2.8c0-1.4-0.5-2.8-1.2-3.9C142.4,197.5,137.5,198.9,133.7,200.6z"/></g><g class="eyebrows eyebrows-16"><path fill="#141615" fill-opacity="1" d="M111.667,188c1.637-0.605,3.805-4.561,5.316-6c1.722-1.64,3.694-3.014,5.611-4.408c5.197-3.778,6.396-2.618,11.814-0.593c9.397,3.511,21.63-0.761,27.558,9.742c-1.543,1.757-3.715,0.743-5.5,0.267c-3.623-0.966-7.301-1.015-10.959-1.684c-5.357-0.98-12.666-4.374-17.838-2.323c-3.426,1.358-7.111,3.531-10.345,5.324c-0.801,0.444-3.724,2.559-4.657,2.364c-2.031-0.424-1.701-2.97,0.001-3.689"/><path fill="#141615" fill-opacity="1" d="M194.333,182.667c2.025-4.569,13.703-4.777,18-5.75c6.178-1.398,11.472-3.237,17.96-2.859c1.196,1.418,3.134,3.662,4.672,4.958c1.966,1.658,4.91,2.375,6.116,4.936c1.02,2.164-0.504,3.179-3.49,2.738c-3.947-0.583-6.972-2.313-11.259-2.357c-7.314-0.076-14.113,1.661-21.35,2.017c-4.366,0.215-9.765,1.6-12.355-2.674c0.547-0.538,1.554-1.355,2.373-1.676"/></g><g class="chin chin-5"><path display="inline" fill="none" stroke="#83573e" stroke-miterlimit="10" d="M159,325.59c3.68,0.56,7.52,5.32,10.98,6.81 c4.3,1.86,8.45,3.26,13.02,3.26c4.91,0,8.27,0.08,12.17-3.27c2.93-2.52,8.11-4.67,10.17-8.07"/></g><g class="hair hair-12"><linearGradient id="hair_5cd114a4ce313" gradientUnits="userSpaceOnUse" x1="179.4448" y1="197.3671" x2="179.3803" y2="129.8187"><stop offset="0.3656" style="stop-color:#141615;stop-opacity:0"/><stop offset="0.8607" style="stop-color:#141615"/></linearGradient><path fill="url(#hair_5cd114a4ce313)" d="M257.1,158.8c-7.5-29.1-25.2-55.8-54.7-65.6c-22.2-7.4-47.8-3.6-67.5,8.9c-13.4,8.6-27.4,23.5-31.4,39.6c-5.7,23.1-4.3,53.1,7,74.1c-0.3-5.8-0.4-11.7-0.4-17.5c0-6.7-1.9-19.4,2.1-25.2c7.9-11.4-1.8-30.3,6.6-41.9c0.3-4.9,10.7-6.3,14.3-7.3c7.5-2.1,15.3-2.3,23-2.3c13.6-0.1,27.2-1.8,40.9-1c10.1,0.2,27.2-1.2,35.6,6.3c8.9,7.8,11.2,17.4,11.5,29c0.3,15,6.9,28.3,9.1,42.9C259.8,187.1,259.4,172,257.1,158.8z"/></g><g class="nose nose-2"><path fill="#7e5239" d="M186.01,198.89c-0.17,1.53-0.26,3.95-0.49,5.46c-0.58,3.86,0.9,6.29,0.88,10.24 c-0.02,6.65,6.48,12.91,4.38,19.46c-5.2-0.71-6.56-12.33-6.95-16.23c-0.33-3.31-1.14-7.11-1.01-10.49 c0.11-2.91,1.43-6.24,2.54-9.75C185.35,197.6,186.24,196.78,186.01,198.89z"/><path fill="#562a11" d="M166.63,243.75c2.25-1.3,2.59-3.82,5.63-2.9c1.56,0.48,4.43,2.55,4.11,4.38c-0.96,0.17-1.93-0.21-2.76-0.63c-1.38-0.7-1.58-0.67-2.84,0.31c-1.49,1.16-3.98,1.35-4.49-0.88c0.25-0.19,0.55-0.29,0.86-0.28"/><path fill="#562a11" d="M187.38,240.75c-0.76,0.2-2.24,1.91-2.38,2.74c-0.25,1.5,0.94,1.27,2.01,1.38c1.81,0.18,3.94,1.63,5.75,0.78c3.43-1.6-3.45-8.78-6.13-4.16"/><path fill="none" stroke="#794d34" stroke-miterlimit="10" d="M164.75,227c0.56,1.57-0.23,2.33-0.76,3.75c-0.47,1.27-0.72,2.65-1.21,3.87c-0.9,2.23-2.4,3.66-2.53,6.12c-0.15,2.94,1,4.25,2.75,6.37c1.36,1.65,4.54,2.49,6.63,2.01c1.04-0.24,1.75-0.86,2.88-0.75c1.13,0.1,2.24,0.56,3.37,0.72c1.05,0.15,2.32,0.09,3.38,0.03c1.33-0.08,1.49-0.53,2.53-1.23c2.13-1.42,6.09,0.33,8.72,0.1c2.12-0.19,3.6-1.49,5.35-2.75c1.25-0.9,2.52-2.38,3.13-3.75c0.93-2.09-1.34-2.51-1.6-4.25"/></g><g class="mouth mouth-10"><path fill="#D48489" d="M157.83,269.87c1.52-2.85,3.22-4.73,6.45-5.69c2.21-0.65,4.14,0.43,6.31,1c2.47,0.65,4.79,0.66,7.41,0.77c4.82,0.21,9.68,2.1,14.49,1.38c3.07-0.46,6.68-0.63,9.78-0.01c0.4,0.08,0.89,0,1.31-0.01c-1,1.02-1,3.36-1.75,4.71c-0.65,1.17-1.58,2.3-2.54,3.28c-2.21,2.26-4.36,2.42-7.35,3.43c-2.58,0.87-5.51,1.95-8.25,2.31c-2.97,0.38-6.07-0.22-9.04,0.14c-3.3,0.39-5.23,1.18-8-0.77c-2.28-1.61-6-3.04-7.68-5.05c-1.27-1.52-1.34-3.87-1.33-5.87"/><path fill="#FCFCFD" d="M158.22,269.48c0.87,0.79,0.27,3.14,0.98,4.31c0.58,0.96,1.86,2.36,2.78,2.69c1.11,0.4,1.4-0.17,2.15-0.34c1.11-0.25,1-0.19,1.95-0.04c1.85,0.29,2.12,0.55,3.53,1.56c2.84,2.03,5.3,2.38,8.57,1.37c3.18-0.98,6.48-1.12,9.59-2.31c1.38-0.53,2.78-0.78,4.31-1.16c1.4-0.35,3.26-0.26,4.54-0.75c1.86-0.7,5.85-3.14,6-5.28c-2.84-1.65-5.9-1.15-8.97-1.02c-0.81,0.03-1.6-0.09-2.31,0.19c-0.19,0.07-0.75,0.77-0.86,0.79c-0.88,0.13-0.5-0.16-1.13-0.25c-1.71-0.23-0.99-1.01-2.31,0.46c-0.48,0.54-0.77,1.16-1.23,1.78c-1.05-1.74-0.17-2.25-2.73-2.38c-0.67-0.03-1.71-0.18-2.35,0c-0.65,0.17-1.56,1.33-1.91,1.39c-1.32,0.21-1.77-1.56-2.83-2.36c-1.31-0.99-3.15-0.84-4.82-0.75c0.13,0.82,0.75,1.52,1.13,2.29c-1.08-0.13-5.05-3.66-5.49-0.58c-1.44-0.77-5.78-3.05-5.87,0.39c-0.84-0.27-1.89-0.23-2.52,0.42"/><path fill="#74482f" fill-opacity="1" d="M153.13,267.52c0.78,1.37,1.35,2.74,2.5,3.97c1.25,1.35,1.61,2.25,2.39,3.82c1.14,2.29,3.61,5.6,5.73,7.04c2.56,1.74,6.81,3.19,9.7,3.17c2.77-0.02,5.16,0.46,7.84-0.39c1.81-0.57,3.38-1.2,5.31-1.37c3.19-0.29,5.68-0.1,8.41-1.66c2.59-1.48,4.33-2.72,6.47-4.6c2.61-2.3,6.47-6.95,6.05-10.74c-3.24,0.45-4.63,3.96-7.42,5.47c-2.6,1.4-6.04,2.32-8.8,3.09c-1.59,0.44-3.28-0.01-4.91,0.23c-1.46,0.21-3.13,0.68-4.69,0.98c-3.59,0.69-6.56,2.32-10.17,0.64c-1.71-0.79-3.02-1.57-4.89-1.85c-1.9-0.28-4.69,0.32-6.26-0.55c-1.29-0.71-2.26-2.35-3.38-3.32c-1.21-1.06-2.81-1.89-3.48-3.33"/><path fill="#7e5239" d="M152.54,267.92c1.77-0.41,2.89-2.63,4.5-3.48c1.56-0.82,3.6-1.03,5.3-1.45c4.24-1.04,10.07-1.44,14.46-0.75c1.75,0.28,2.86,1.11,4.7,1.17c1.84,0.07,3.65,0.16,5.48,0.2c4.26,0.09,8.14,1.38,12.34,1.37c2.7,0,7.2,0.73,8.97,2.7c-3.92,2.3-7.55,1.21-11.93,1.21c-3.59,0-6.78-0.89-10.36-0.78c-3.96,0.12-6.8,1.64-10.72,0.34c-3.28-1.09-6.75-2.05-10.23-2.1c-2.11-0.03-4.54,0.47-6.63,0.78c-1.83,0.27-4.23,1.49-6.02,1.18c0.64,0.01,1.14-0.21,1.7-0.39"/></g></svg>