<svg id="s54ae0d6f6c534" class="face" xmlns="http://www.w3.org/2000/svg" xmlns:xlink="http://www.w3.org/1999/xlink" x="0px" y="0px" width="357px" height="358px" viewBox="0 0 357 358"><path fill="#d1916e" d="M268.5,189.04c-1.41-1.92-2.86-2.74-4.22-2.91c-3.96-0.47-7.28,4.62-7.28,4.62c2.38-21.04,0-32.96,0-32.96c-16.83-65.56-65.84-69.37-76.8-69.39c-0.71,0.02-1.44,0.04-2.2,0.06c-54,1.42-71.5,44.58-71.5,44.58c-9,12.5-4,61.55-4,61.55c-21-12.95-1.5,45.45-1.5,45.45c5,13.5,8,1,8,1c2.88,12.67,6.63,23.41,10.9,32.53c0.85,44.99,1.74,68.73,1.44,83.43c23.33,0,116.79,0,123.83,0l1.52-85.32c6.58-17.33,7.31-32.14,7.31-32.14c2.5,3,6.5,1.5,6.5,1.5C272.75,234.79,268.5,189.04,268.5,189.04z M255.96,199.92C255.93,200.18,255.94,200.15,255.96,199.92L255.96,199.92z M256.22,197.67c0.03-0.3,0.07-0.64,0.11-1.01C256.29,197.01,256.25,197.35,256.22,197.67z M256.82,192.32c0.06-0.55,0.11-0.99,0.14-1.26C256.91,191.5,256.87,191.92,256.82,192.32z M265.33,190.26c-0.04-0.16-0.09-0.37-0.16-0.62c-0.13-0.5-0.31-1.2-0.54-2.1c0.22,0.86,0.4,1.58,0.54,2.1C265.24,189.9,265.29,190.1,265.33,190.26C265.47,190.79,265.48,190.83,265.33,190.26z"/><path fill="#cc8c69" d="M125.25,227.25c4.5-6.5,6.97-8.84,12.65-10c4.87-0.99,13.28-2.45,17.35-5.75c9.63-7.79,13.17-20.35,5.59-28.43c-4.32-4.6-7.03-7.3-13.05-8.81c-4.83-1.22-11.04-2.16-15.05-6.1c-7.84-7.69-11.29-20.73-10.82-31.2c0.41-8.95,9.17-18.79,15.15-24.83c7.04-7.12,15.71-14.12,23.72-20.42c-40.38,8.84-54.04,42.51-54.04,42.51c-9,12.5-4,61.55-4,61.55c-21-12.95-1.5,45.45-1.5,45.45c5,13.5,8,1,8,1c2.89,12.7,6.64,23.46,10.93,32.59c-0.78,38.87,1.32,70.54,1.15,83.21c7.79,0.1,53.6-30.51,61.45-32.32C179.16,318.81,113.75,264.75,125.25,227.25z"/><g class="eyes eyes-11"><path fill="#ffffff" fill-opacity="0.7" d="M148.83,201.33c-2.21-0.02-3.9,1.03-5.83,1.96c-1.33,0.64-4.67,1.73-4.64,3.51c1.45,0.55,2.34,2.11,3.63,2.91c1.58,0.97,3.43,1.02,5.18,1.29c2.9,0.44,5.83,0.09,8.68-0.63c2.64-0.67,5.37-0.23,7.69-1.65c2.87-1.76-1.03-4.23-2.71-5.42c-2.02-1.44-3.31-2.36-5.83-2.46c-2.15-0.08-4.32,0.14-6.33,0.5"/><path fill="#ffffff" fill-opacity="0.7" d="M214.5,203c-2.75-0.67-6.42-0.67-8.84,0.83c-0.91,0.56-2.29,1.61-2.96,2.38c-1.28,1.45-0.55,1.94,0.85,3.09c2.84,2.34,7.06,2.73,10.6,3.25c2.93,0.43,5.21,0.09,7.82-1.42c1.11-0.64,4.52-1.63,5.2-2.63c1.04-1.52-1.64-2.63-2.83-3.21c-1.62-0.78-3.09-1.24-4.84-1.59c-1.83-0.37-4.26-1.09-6.17-0.87"/><path display="inline" fill="#332a19" d="M149.5,200.83c-3.15-0.66-2.99,4.38-2.2,6.17c0.94,2.13,3.69,3.78,6.04,3.83c2.98,0.06,4.71-3.04,5-5.67c0.38-3.45-1.97-4.15-4.84-4.33c-1.15-0.07-5.1-0.63-5.67,0"/><path display="inline" fill="#332a19" d="M212,202.33c-2.94,0.16-5.82,2.57-4.47,5.67c1.04,2.4,3.58,4.37,6.13,4.5c4.42,0.22,10.64-6.87,4.46-9.46c-1.93-0.81-5.16-0.86-7.3-0.7"/></g><g class="eyebrows eyebrows-9"><path fill="#19120c" fill-opacity="0.6" d="M121,190.33c2.1-2.45,1.46-6.36,3.33-8.87c1.62-2.17,4.04-4.61,6.17-6.3c5.86-4.67,13.71-6.07,20.82-7.5c2.09-0.42,3.74-0.84,5.78-0.32c2.58,0.66,6.17,1.86,8.42,3.29c0.8,0.51,1.22,1.2,1.65,2.08c0.38,0.77,1.4,2.47,1.51,3.29c0.48,3.47-5.55,2.24-7.51,1.97c-2.98-0.41-5.91-1.02-8.81-1.76c-2.14-0.55-3.97-0.75-6.03-0.04c-3.78,1.3-7.2,3.35-10.99,4.7c-2.77,0.98-5.65,2.1-8.01,3.94c-2.18,1.69-3.91,3.81-5.99,5.53"/><path fill="#19120c" fill-opacity="0.6" d="M221.83,168.17c-4.25-0.04-7.79-0.41-11.94,0.63c-2.98,0.75-5.87,1.81-8.82,2.7c-2.38,0.72-8.51,4.15-5.71,6.99c3.23,3.28,9.79,1.09,13.68,0.68c4.05-0.43,8.02-1.09,11.96-1.67c1.48-0.21,2.87-0.5,4.38-0.2c1.08,0.21,2.23,0.55,3.3,0.87c1.28,0.38,2.79,0.43,3.99,0.82c2.24,0.74,4.18,3.57,6.13,4.84c0.85,0.55,2.99,2.01,3.58,0.54c0.35-0.87-1.84-3.64-2.5-4.51c-1.88-2.48-4.03-5.65-6.51-7.53c-1.92-1.45-4.18-1.66-6.36-2.33c-1.56-0.48-3.19-1.42-4.51-2.17"/></g><g class="hair hair-3008"><path fill="#19120c" d="M108,207c-1.93-4.13,0.11-9.13,0.34-13.33c0.29-5.15,0.39-8.29,2.62-12.99c3.41-7.23,15.44-13.53,14.19-22.29c-4.21,0.35-3.78-1.15-3.99-4.68c-3.21,0.19-0.48-7.48,0.51-9.37c2.37-4.51,9.66-5.58,13.48-8.26c4.77-3.34,8.52-4.31,14.48-4.42c5.39-0.09,10.82-2.24,15.65-0.33c4.12,1.63,8.04,3.83,12.09,5.36c5.61,2.12,9.5-2.24,14.51-4.03c6.38-2.29,18.23-3.16,24.87-0.93c7.59,2.55,15.65,9.56,19.22,16.94c1.39,2.88,1.03,6.6,2.02,9.68c1.15,3.61,3.7,5.67,6.03,8.72c4.1,5.37,8.54,10.42,8.54,17.33c0,7.75,3.24,14.3,4.33,21.67c0.1,0.68,0.12,1.4,0,2.05c-2.38-8.34,0.12-14.74,2.52-22.21c2.34-7.29,1.26-15.99,1.27-23.66c0.01-5.91-2.81-10.76-3.63-16.53c-0.6-4.21-0.5-7.73-2.13-11.73c-3.57-8.76-5.35-11.67-10.49-19.33C233.61,98.56,209.3,81.96,189.1,82c-8.64,0.02-18.15-1.2-26.78,0.39c-4.36,0.8-8.41,2.1-12.84,2.6c-3.58,0.4-5.89,2.12-9.58,2.67c-1.47,0.22-5.04-0.01-6.12,0.75c-1.43,1.01-0.56,1.43-1.08,2.91c-1.35,3.89-2.91,3.44-6.01,5.98c-2.77,2.27-5.95,5.27-8.84,7.73c-2.23,1.9-3.57,4.97-5.87,6.64c3.32,2.63-3.13,6.14-3.93,8.98c-0.93,3.29-0.78,7.15-1.4,10.26c-1.62,8.08-8.09,13.77-8.49,22.35c-0.34,7.28-0.32,14.72-0.68,22.05c-0.38,7.67,0.48,14.03,2.45,21.27c0.71,2.6,2.39,4.49,3.04,7.06c0.93,3.69,1.14,4.59,3.92,7.25c-0.06-1.25,0.17-2.52,0.75-3.57"/><path fill="#2d2620" d="M137.45,108.33c-3.95,3.37-8.99,5.19-12.7,9.32c2.43-1.32,5.22-2.78,7.92-3.23c0.28,1.38-0.05,2.77-1,3.81c0.42-0.15,0.86-0.25,1.31-0.29c-0.07,4.42-4.71,6.86-7.06,10.09c-1.65,2.27-3.21,5.2-4.49,7.72c-2.17,4.25-4.33,6.25-7.81,9.48c-2.65,2.47-6.12,4.41-7.7,7.79c-1.42,3.06-2.04,6.69-3.77,9.61c-0.82-2.19,1.44-3.98,3.15-5.36c1.3,1.02,1.31,2.77,0.45,4.12c0.68-0.22,2.3,0.13,3.02,0c1.05,3.72-1.99,8.2-1.77,12.26c2.63-1.79,9.46-7.98,10.82-11.24c-2.23,0.43-4.46,1.06-6.75,0.9c-0.44-2.91,2.74-5.25,2.59-8.38c-0.55,0.1-1.14-0.01-1.69,0.16c-0.26-5.05,6.41-11.19,9.72-14.7c5.31-5.62,8.8-11.8,13.61-17.72c-0.23,0.05-0.32,0.3-0.57,0.39c-1.11-2.26,1.71-5.52,1.7-8.17c-0.02-3.08-1.07-5.14,1.69-7.23"/><path fill="#2d2620" d="M170.28,128.33c-4.28-3.01-8.31-6.7-13.18-8.77c3.88-1.56,8.36,2.87,12.34,2.85c-3.46-3.59-7.51-7.42-11.31-10.81c-1.4-1.25-2.7-2.32-4.47-2.94c4.2,1.22,8.86,2.9,12.93,4.39c1.07,0.39,2.19,0.67,3.15,1.64c-3.18-2.28-5.97-6.14-7.42-9.71c4.59,2.9,8.18,7.22,13.67,8.69c-0.96-3.07-2.01-6.36-2.98-9.3c2.05,0.68,4.18,1.19,6.35,1.38c-3.43-2.41-7.28-5.37-8.82-9.34c3,3.64,12.02,8.13,16.84,8.76c-1.64-3.44-3.8-6.42-5.79-9.53c3.11,2.76,7.59,4.53,11.08,6.59c1.32,0.78,2,1.8,3.63,1.71c0.62-3.48-6-8.33-8.08-10.26c4.23,3.82,8.45,7.65,12.6,11.53c2.48,2.32,6.46,3.6,8.54,6.18c-0.77-3.74-4.49-8.1-6.61-11.35c1.89-0.29,3.75,0.93,5.48,1.54c2.73,0.96,5.87,1.14,8.49,2.08c1.89,0.68,3.75,1.26,5.63,1.95c4.78,1.75,10.91,6.34,14.66,9.72c1.16,1.05,1.88,2.5,2.57,3.71c-2.46-4.74-8.52-8.14-14.05-6.98c2.51,3.63,2.83,7.2,4.54,11.01c-2.86-2.71-6.66-3.99-9.6-6.55c-2.23-1.94-3.1-3.68-6.62-3.27c0.57,1.39,2.3,4.04,3.61,5.07c-2.46,2.07-4.35-0.22-5.93-2.02c-3.1-3.53-3.33-4.41-8.35-5.03c-2.5-0.31-5.13,0.09-7.57-0.76c3.57,1.13,8.39,3.58,10.97,6.5c-4.69,2.4-11.98-5.09-16.18-6.7c1.77,2.46,5.06,4.2,6.15,7.08c-4.91,1.29-9.51-3.62-13.04-5.65c1.78,3.23,4.76,5.74,7.28,8.31c-4.04,1.47-8.53-2.76-11.85-4.55c0.15,1.8,1.3,3.45,2.03,5.17c-3.37-0.38-6.33-2.13-9.71-2.24c0.99,1.05,1.86,2.17,2.8,3.28c-1,0.45-2.26,0.27-3.26-0.4c0.43,0.79,3.03,3.88,2.12,5.03c-0.91,1.15-2.22,0.48-3.11-0.66c0.66,1.44,1.76,3.05,2.84,4.28c-1.67-0.02-2.4-1.05-3.04-2.62"/></g><g class="facial-hair facial-hair-25"><path fill="#19120c" fill-opacity="0.2" d="M144.3,266.4c5-5.8,14.9-12.2,22.6-14c2.3-0.5,5.2-0.9,7.4-0.3c2.1,0.6,3.2,2.2,5.6,1.9c1.9-0.2,3.2-2.2,4.9-2.9c1.6-0.7,5.9-1.2,7.7-0.9c1.1,2.5,4.7,4.3,6.9,5.6c2.6,1.6,6.1,3.8,9,5c3.3,1.3,4.2,1.9,6.4,4.5c1.2,1.5,4.9,4.2,3.8,6.3c-2.1,3.7-5.8-0.7-7.3-1.9c-2.1-1.6-4.5-2.6-6.9-3.6c-6-2.6-11.9-4.1-18.5-4.4c-4.4-0.2-8.7-1.4-13.1-0.9c-4,0.4-6.8,2.3-10.6,3.3c-4.3,1.1-7.7,1-11.2,3.7c-2.5,1.9-4.2,3.1-7.6,2.8c-0.5-2.8,0.6-3.5,2.4-4.9"/><path fill="#19120c" d="M144.8,293.2c1.6,3.5-0.2,7,0,10.5c0.2,3.5,2.1,6.7,3.4,9.9c2.1,5.3,4.6,9,9.6,11.5c5.2,2.5,12.5,2.2,18.3,2.2c4.1,0,8-0.5,12.1-0.6c3.5-0.1,7.5,0.6,10.9-0.3c7.7-2.1,13.2-4.2,13.7-11.7c0.3-4,1.9-7.9,2.2-11.7c0.2-2.6,1.8-11.6-0.7-12.6c-0.7,2.4-4.1-0.1-6.3,1.4c-0.2,0.1-1.9,0.3-2.3,0.5c-1.9,0.7-3.4,2.3-5.3,2.7c-1.6,3.9-4.7,1-6.9,1.5c-1.2,0.3-2.2,2-3.3,2.5c-0.8,0.3-2.1,0.4-2.9,0.6c-3.8,1-5.5,2.2-8.9,0.6c-3.8-1.8-3.7-2-7.6,0.5c-6.1,3.9-7-0.5-13.9-1c-3-0.2-4.5-2.3-7-3.8c-1.8-1-2.5-2.6-4.9-3.1c-0.1,0.5-0.2,1.3,0,1.8"/></g><g class="nose nose-1"><path fill="#c78764" d="M186.01,198.89c-0.17,1.53-0.26,3.95-0.49,5.46c-0.58,3.86,0.9,6.29,0.88,10.24 c-0.02,6.65,6.48,12.91,4.38,19.46c-5.2-0.71-6.56-12.33-6.95-16.23c-0.33-3.31-1.14-7.11-1.01-10.49 c0.11-2.91,1.43-6.24,2.54-9.75C185.35,197.6,186.24,196.78,186.01,198.89z"/><path fill="none" stroke="#c2825f" stroke-miterlimit="10" d="M168.87,209.42c1.28,4.35,3.91,6.45,2.31,10.98 c-0.86,2.45-2.47,5.01-3.98,7.33c-2.59,3.99-11.16,12.3-7.08,17.1c2.22,2.62,4.82,0.96,7.41,0.58c3.94-0.58,6.85,0.88,10.37,1.68 c5.68,1.29,10.55-1.54,16.31-0.43c3.23,0.62,9.41,2.38,8.66-3.58"/></g><g class="mouth mouth-2"><path fill="#a7696a" fill-opacity="0.9" d="M152.25,282.75c1.13,0.05,1.95,1.34,2.84,1.91c1.85,1.18,3.52,1.46,5.66,1.83c4.03,0.69,8.51,1.23,12.67,1.01c1.64-0.09,2.79-0.94,4.27-1.35c1.66-0.46,3.65-0.29,5.38-0.13c4.2,0.41,9.05,1.13,13.17-0.03c2.62-0.74,14.75-4.21,11.33-8.12c-1.14-1.3-3.73-2.23-5.37-2.85c-2.25-0.84-4.46-1.96-6.77-2.68c-4.31-1.34-9.55,0.3-13.96,0.69c-3.31,0.29-6.46-0.89-9.76-0.79c-3.57,0.11-7.14,1.69-10.39,2.9c-2.3,0.86-4.23,2.72-5.95,4.34c-1.56,1.47-2.27,1.76-2.3,3.75"/><path fill="#c78764" d="M153.38,277.63c2-2.12,4.63-3,6.77-4.8c1.1-0.93,1.46-1.76,2.36-2.83c1.36-1.61,3.52-3.83,5.37-4.86c1.02-0.57,2.4-0.67,3.58-1.13c1.74-0.68,2.06-0.07,3.81,0.72c1.35,0.6,3.45,1.53,4.99,1.13c1.96-0.51,3.64-1.58,5.45-2.35c1.83-0.78,2.57,0.43,4.25,1.07c1.93,0.73,3.52,1.68,5.33,2.59c1.76,0.89,3,1.34,4.35,2.74c0.96,1,1.96,1.79,3.01,2.69c1.01,0.87,1.96,1.93,2.99,2.75c0.76,0.61,1.68,0.98,2.35,1.65c0.94,0.94,1.15,1.48,0.06,2.16c-0.82,0.52-2.46,1.01-3.47,0.97c-5.66-0.23-9.88-5.59-15.44-5.87c-2.56-0.13-4.87,1.64-7.36,2.12c-1.42,0.27-2.69,0.59-4.16,0.14c-1.24-0.38-2.48-1.1-3.75-1.26c-1.58-0.19-2.89,0.45-4.34,1c-2.07,0.79-4.16,1.63-6.07,2.75c-1.89,1.1-3.47,2.66-5.43,3.63c-1.67,0.82-4.19,2.37-5.35,0.22c-0.51-0.95-0.87-2.09-0.31-3.07c0.5-0.87,1.46-1.86,2.06-2.65c0.87-1.16,2.31-2.31,3.72-2.75"/></g></svg>