<svg id="s57da0c2f860d6" class="face" xmlns="http://www.w3.org/2000/svg" xmlns:xlink="http://www.w3.org/1999/xlink" x="0px" y="0px" width="357px" height="358px" viewBox="0 0 357 358"><path fill="#784e36" d="M268.5,189.04c-1.41-1.92-2.86-2.74-4.22-2.91c-3.96-0.47-7.28,4.62-7.28,4.62c2.38-21.04,0-32.96,0-32.96c-16.83-65.56-65.84-69.37-76.8-69.39c-0.71,0.02-1.44,0.04-2.2,0.06c-54,1.42-71.5,44.58-71.5,44.58c-9,12.5-4,61.55-4,61.55c-21-12.95-1.5,45.45-1.5,45.45c5,13.5,8,1,8,1c2.88,12.67,6.63,23.41,10.9,32.53c0.85,44.99,1.74,68.73,1.44,83.43c23.33,0,116.79,0,123.83,0l1.52-85.32c6.58-17.33,7.31-32.14,7.31-32.14c2.5,3,6.5,1.5,6.5,1.5C272.75,234.79,268.5,189.04,268.5,189.04z M255.96,199.92C255.93,200.18,255.94,200.15,255.96,199.92L255.96,199.92z M256.22,197.67c0.03-0.3,0.07-0.64,0.11-1.01C256.29,197.01,256.25,197.35,256.22,197.67z M256.82,192.32c0.06-0.55,0.11-0.99,0.14-1.26C256.91,191.5,256.87,191.92,256.82,192.32z M265.33,190.26c-0.04-0.16-0.09-0.37-0.16-0.62c-0.13-0.5-0.31-1.2-0.54-2.1c0.22,0.86,0.4,1.58,0.54,2.1C265.24,189.9,265.29,190.1,265.33,190.26C265.47,190.79,265.48,190.83,265.33,190.26z"/><path fill="#734931" d="M125.25,227.25c4.5-6.5,6.97-8.84,12.65-10c4.87-0.99,13.28-2.45,17.35-5.75c9.63-7.79,13.17-20.35,5.59-28.43c-4.32-4.6-7.03-7.3-13.05-8.81c-4.83-1.22-11.04-2.16-15.05-6.1c-7.84-7.69-11.29-20.73-10.82-31.2c0.41-8.95,9.17-18.79,15.15-24.83c7.04-7.12,15.71-14.12,23.72-20.42c-40.38,8.84-54.04,42.51-54.04,42.51c-9,12.5-4,61.55-4,61.55c-21-12.95-1.5,45.45-1.5,45.45c5,13.5,8,1,8,1c2.89,12.7,6.64,23.46,10.93,32.59c-0.78,38.87,1.32,70.54,1.15,83.21c7.79,0.1,53.6-30.51,61.45-32.32C179.16,318.81,113.75,264.75,125.25,227.25z"/><g class="eyes eyes-13"><path fill="#ffffff" fill-opacity="0.7" d="M132.33,199.83c1.11,0.03,3.22-1.89,4.34-2.34c1.76-0.71,3.45-1.13,5.34-1.33c2.77-0.29,6.43-0.69,8.99,0.37c3.64,1.5,6.2,5.23,9.95,6.43c-2.99,0.25-6.11-0.28-9.1,0.07c-2.65,0.3-5.29,1.22-8.02,0.81c-3.56-0.53-8.45-2.35-11.33-4.01"/><path fill="#ffffff" fill-opacity="0.7" d="M205.83,202.5c1.32-3,5.15-2.68,7.86-2.83c3.09-0.17,5.56-0.72,8.6-0.37c3.01,0.34,6.24,0.13,9.04,1.38c2.06,0.91,4.3,2.09,6.29,3.34c-2.41-0.25-5,0.96-7.28,1.48c-3.45,0.79-6.57,1.18-10.18,1.18c-3.14,0-6.57,0.56-9.16-1.33c-1.53-1.12-3.11-2.3-4.5-3.34"/><path fill="#4f2a1a" d="M142.01,196.17c-1.09,0.11-2.11,0.31-3.12,0.59c-0.46,1.23-0.61,2.67-0.2,3.79c0.45,1.24,1.33,2.1,2.29,2.68c1,0.27,1.97,0.48,2.85,0.61c2.35,0.35,4.63-0.28,6.92-0.66c1.36-1.21,2.57-3.08,2.42-5.45c-0.69-0.47-1.4-0.88-2.17-1.2C148.44,195.48,144.78,195.88,142.01,196.17z"/><path fill="#4f2a1a" d="M214.01,199.65c-0.54,1.2-0.53,2.71,0.39,4.19c0.86,1.38,1.88,2.29,3.01,2.89c0.92-0.02,1.84-0.07,2.74-0.07c2.24,0,4.28-0.17,6.34-0.47c1.57-1.1,2.67-2.73,1.51-4.65c-0.52-0.86-1.21-1.48-1.98-1.97c-1.25-0.09-2.51-0.14-3.73-0.28C219.36,198.96,216.95,199.46,214.01,199.65z"/></g><g class="eyebrows eyebrows-22"><path fill="#141615" fill-opacity="0.5" d="M123.3,197.5c0,0,17.1-12.1,40.4-5.6c0.3,0.1,0.6,0.2,0.9,0.2c23.8,7.1-21.5-11.2-28.5-10.9C136,181.2,123.3,192.3,123.3,197.5z"/><path fill="#141615" fill-opacity="0.5" d="M197.7,192.1c0,0,25-4.4,37.3,3.6c0,0-2-9-11.7-14.5C223.3,181.2,207.9,182.8,197.7,192.1z"/></g><g class="chin chin-17"><path fill="none" stroke="#734931" stroke-miterlimit="10" d="M143.3,308.7c2.9,0.4,6,5.3,8.4,7c2.9,2.1,5.9,2.6,9,3.7 c5.7,2,11.3,3.6,17.4,3.9c3.4,0.2,5.8-0.8,9-0.9c3.8-0.1,6.5,0.9,10.1-0.3c7.5-2.4,14.8-3.1,19.8-10.2c0.4-0.5,0.8-1,1.1-1.6"/></g><g class="hair hair-22"><path fill="#141615" fill-opacity="0.3" d="M257.1,191.8c2.4-21,0-33,0-33c-16.8-65.6-65.8-69.4-76.8-69.4c-0.7,0-1.4,0-2.2,0.1 c-54,1.4-71.5,44.6-71.5,44.6c-9,12.5-4,61.5-4,61.5c-0.9-0.5,1.4,5.4,2.4,7.4c1.3,2.3-0.8,1.8,0.8,3.8c1.5,2.3,5,3.5,5.5,5.5 c-0.3-5.5,2-12,2.5-17.5c0.3-3.8,1-6.3,0.8-9.8c-0.5-2.8,0-5.3,0.5-8c1-5.5,3.3-10.8,5.5-15.8c1.5-3.8,2.5-12.5,6.5-14.5 c0.3,0,0.5-0.3,1-0.3l0.3,0.3c8.8-2.8,17-5,25.8-5.3c7.3-0.3,14.5-0.8,21.8-0.8c7.5,0,15,0.3,22.5,0.5c7,0.3,13.5,1.5,20.5,2 c8,0.5,12.3,1.5,15.3,9c2.5,5.5-0.3,10.5,1.3,16c1.5,5.3,8,10,10.3,15.3c2,4.8,0.5,11.3,0.8,16.3c0,1.5-0.3,3.5,0.3,5 c0.5,1.8,3,3.8,3.3,4.8c0.5,2.8-1.8,5-1.3,7.8c4.8,0.8,4-8.8,5-11.8C254.3,203.8,257.1,191.8,257.1,191.8z M256.1,200.9 C256.1,201.2,256.1,201.2,256.1,200.9L256.1,200.9z M256.9,193.3c0.1-0.5,0.1-1,0.1-1.3C257,192.5,257,192.9,256.9,193.3z"/></g><g class="nose nose-11"><path fill="#6e442c" d="M186.01,198.89c-0.17,1.53-0.26,3.95-0.49,5.46c-0.58,3.86,0.9,6.29,0.88,10.24 c-0.02,6.65,6.48,12.91,4.38,19.46c-5.2-0.71-6.56-12.33-6.95-16.23c-0.33-3.31-1.14-7.11-1.01-10.49 c0.11-2.91,1.43-6.24,2.54-9.75C185.35,197.6,186.24,196.78,186.01,198.89z"/><path fill="#461c04" d="M168.25,236.38c-1.48,0.41-5.26,4.48-3.75,5.85c1.41,1.29,2.76-0.81,3.88-1.39c1.75-0.9,3.65-0.71,5.48-1.35c0.53-2.2-4.6-5.68-5.73-2.99"/><path fill="#461c04" d="M188.63,235c-1.05-0.39-1.6-1.1-2.78-0.5c-0.65,0.33-2,1.59-2.35,2.22c-1.14,2.1,3.47,3.29,4.9,4.06c1.06,0.57,5.07,1.1,4.35-1.17c-0.25-0.8-1.83-2.11-2.35-2.9c-0.52-0.77-0.86-1.18-1.65-1.59"/><path fill="none" stroke="#693f27" stroke-miterlimit="10" d="M155.88,239.75c0.06,7.07,10.22,7.27,15.25,6c2.97-0.75,5.7,0.64,8.59,0.88c0.73,0.06,1.81,0.16,2.51-0.09c0.71-0.26,1.25-1.16,1.91-1.48c1.22-0.6,3.52-0.55,4.88-0.31c2.73,0.49,5.06,1.36,7.61-0.09c2.49-1.41,3.63-2.95,3.63-5.78"/></g><g class="mouth mouth-5"><path fill="#643a22" fill-opacity="1" d="M157.67,276.38c1.49,3.44,4.03,3.59,7.14,4.87c2.15,0.89,1.9,1.13,3.94,2.25c2.68,1.47,7.82,3.32,10.88,4c1.94,0.44,5.11,0.85,6.82-0.11c1.46-0.82,3.01-1.7,4.45-2.63c2.56-1.66,6.55-3.58,8.97-5.38c2.75-2.05,5.22-3.98,6.5-7.75c-5.7-1.63-8.48-1.63-10.55-3.14c-0.17-1.73-4.4-1.63-5.62-1.72c-2.26-0.17-4.53-0.65-6.8-0.64c-1.87,0.01-3.45,0.66-5.25,0.98c-3.47,0.62-7.12-0.04-10.53,0.92c-2.26,0.64-4.52,1.38-6.48,2.56c-1.46,0.89-5.88,1.61-6.45,3.44c-0.49,1.55,2.95,3.77,4.22,4.35"/><path fill="#6e442c" d="M153.63,272.75c-0.26,1.15,1.94,2.49,2.58,3.76c0.88,1.76,4.53,1.7,6.22,1.62c2.79-0.13,5.81-0.2,8.46,0.34c1.52,0.31,3.14,0.19,4.67,0.28c1.57,0.09,3.1,0.61,4.74,0.63c1.71,0.01,3.41,0.01,5.12,0c0.68-0.01,1.4,0.1,2.02-0.24c0.55-0.3,5.07-1.51,6.61-1.64c1.99-0.16,7.62-2.17,8.75-3.4c0.94-1.02,3.16-1.49,3.88-2.6c-3.06-1.57-7.86-2.79-10.9-4.35c-2.31-1.18-4.91-1.71-7.48-1.77c-4.71-0.11-10.18-0.37-14.68,1.09c-3.74,1.22-7.73,0.41-11.06,2.66c-1.88,1.28-4.2,0.85-6.05,2.12"/></g></svg>