<svg id="s588d2788aaea2" class="face" xmlns="http://www.w3.org/2000/svg" xmlns:xlink="http://www.w3.org/1999/xlink" x="0px" y="0px" width="357px" height="358px" viewBox="0 0 357 358"><path fill="#d1916e" d="M268.5,189.04c-1.41-1.92-2.86-2.74-4.22-2.91c-3.96-0.47-7.28,4.62-7.28,4.62c2.38-21.04,0-32.96,0-32.96c-16.83-65.56-65.84-69.37-76.8-69.39c-0.71,0.02-1.44,0.04-2.2,0.06c-54,1.42-71.5,44.58-71.5,44.58c-9,12.5-4,61.55-4,61.55c-21-12.95-1.5,45.45-1.5,45.45c5,13.5,8,1,8,1c2.88,12.67,6.63,23.41,10.9,32.53c0.85,44.99,1.74,68.73,1.44,83.43c23.33,0,116.79,0,123.83,0l1.52-85.32c6.58-17.33,7.31-32.14,7.31-32.14c2.5,3,6.5,1.5,6.5,1.5C272.75,234.79,268.5,189.04,268.5,189.04z M255.96,199.92C255.93,200.18,255.94,200.15,255.96,199.92L255.96,199.92z M256.22,197.67c0.03-0.3,0.07-0.64,0.11-1.01C256.29,197.01,256.25,197.35,256.22,197.67z M256.82,192.32c0.06-0.55,0.11-0.99,0.14-1.26C256.91,191.5,256.87,191.92,256.82,192.32z M265.33,190.26c-0.04-0.16-0.09-0.37-0.16-0.62c-0.13-0.5-0.31-1.2-0.54-2.1c0.22,0.86,0.4,1.58,0.54,2.1C265.24,189.9,265.29,190.1,265.33,190.26C265.47,190.79,265.48,190.83,265.33,190.26z"/><path fill="#cc8c69" d="M125.25,227.25c4.5-6.5,6.97-8.84,12.65-10c4.87-0.99,13.28-2.45,17.35-5.75c9.63-7.79,13.17-20.35,5.59-28.43c-4.32-4.6-7.03-7.3-13.05-8.81c-4.83-1.22-11.04-2.16-15.05-6.1c-7.84-7.69-11.29-20.73-10.82-31.2c0.41-8.95,9.17-18.79,15.15-24.83c7.04-7.12,15.71-14.12,23.72-20.42c-40.38,8.84-54.04,42.51-54.04,42.51c-9,12.5-4,61.55-4,61.55c-21-12.95-1.5,45.45-1.5,45.45c5,13.5,8,1,8,1c2.89,12.7,6.64,23.46,10.93,32.59c-0.78,38.87,1.32,70.54,1.15,83.21c7.79,0.1,53.6-30.51,61.45-32.32C179.16,318.81,113.75,264.75,125.25,227.25z"/><g class="eyes eyes-8"><path fill="#ffffff" fill-opacity="0.7" d="M125.65,196.01c5.16-0.65,8.73-4.66,14.5-5c5.9-0.34,9.51,2.28,12.05,7.5c-2.21,3.43-23.14,0.68-26.55-2"/><path fill="#ffffff" fill-opacity="0.7" d="M206.65,196.51c5.14-0.88,8.39-4.48,14.5-4c3.63,0.28,13.38,2.66,11.41,7.93c-8.8,2.55-17.06,2.17-24.91-3.43"/><path fill="#1e2420" d="M138.65,193.18c-4.59,4.13,2.7,8.07,6.68,5.08c5.02-3.77-3.68-7.24-7.02-5.08"/><path fill="#1e2420" d="M217.98,193.51c-3.32,0.64-2.99,6.32,0,7.6c3.16,1.35,7.51-1.13,7.27-4.54c-2.91-1.7-4.18-2.46-7.61-3.06"/></g><g class="eyebrows eyebrows-14"><path fill="#141615" fill-opacity="0.5" d="M120.17,186c1.25-0.65,2.3-1.9,3.34-2.83c1.34-1.19,10.29-8.44,11.32-8.85c1.44-0.57,10.85,1.22,13.56,2.41c3.76,1.65,6.7,4.44,9.95,6.8c1.56,1.14,7.51,6.3,5.94,7.88c-2.27,2.29-4.02-0.61-5.74-1.61c-3.42-2-7.36-3.42-10.92-5.15c-5.21-2.53-10.62-2.72-16.13-0.82c-3.8,1.31-6.93,4.22-10.82,5c-0.76,0.15-1.51,0.21-2.33,0.15c0.31-0.98,2.34-3.2,3.15-3.82"/><path fill="#141615" fill-opacity="0.5" d="M195,186.67c0.74-5.42,8.81-7.29,12.83-8.59c2-0.65,4.1-0.39,6.1-0.91c1.75-0.46,3.4-1.23,5.2-1.5c1.94-0.29,4.62-0.78,6.54-0.17c2.41,0.76,4.42,4.39,6,6.31c1.77,2.15,3.63,4.27,5.5,6.2c2.25,2.32,3.49,5.23,3.47,8.64c-1.66,0.26-3.15-1.94-4.3-2.82c-1.52-1.17-3.25-2.41-4.81-3.53c-2.72-1.95-5.28-4.15-8.45-5.09c-8.57-2.55-16.8,3.21-25.07,3.96c-3.17,0.29-2.03-0.96-2.85-3.17"/></g><g class="hair hair-3009"><radialGradient id="hair_1_588d2788aaf05" cx="176.75" cy="178.2998" r="65.3969" fx="161.0713" fy="177.1977" gradientTransform="matrix(0.0703 0.9975 -1.2281 0.0866 383.2917 -13.4544)" gradientUnits="userSpaceOnUse"><stop offset="0" style="stop-color:#d1916e;stop-opacity:0"/><stop offset="0.1103" style="stop-color:#cc8c69;stop-opacity:0.0682"/><stop offset="0.2473" style="stop-color:#b87855;stop-opacity:0.1529"/><stop offset="1" style="stop-color:#141615"/></radialGradient><path fill="url(#hair_1_588d2788aaf05)" d="M109.676,195.65c1.554-7.072,5.37-14.875,7.723-21.65c2.173-6.255,3.795-13.012,1.935-19.574c-0.835-2.946-2.891-5.441-2.592-8.758c0.375-4.172,3.603-7.484,5.176-11.324c2.529-6.174,6.819-11.448,12.434-15.693c7.461-5.641,14.148-4.02,22.567-4.39c10.688-0.471,21.213-0.75,31.714-2.857c4.286-0.86,8.357-1.537,12.701-1.736c6.449-0.295,10.536,4.861,15.668,8.493c5.219,3.691,10.298,8.991,14.268,13.932c4.413,5.494,1.347,12.833,2.398,19.333c0.654,4.042,3.937,7.068,6.185,10.527c1.988,3.059,3.94,5.977,5.409,9.264c3.083,6.901,5.571,14.313,7.925,21.467c1.017,3.088,1.481,6.64,1.481,9.365c-0.153-5.819,3.743-10.696,4-16.714c0.296-6.949,0.724-14.25,1-21.301c0.582-14.865-10.38-35.254-14.167-41.034c-4.75-7.25-16.75-19.5-25.25-24.25c-6.737-3.765-14-9-23.5-10c-8.32-0.876-20.37-1.548-28.484-0.048c-14.126,2.612-24.701,4.714-37.266,11.548c-5.875,3.196-15.819,8.047-19.75,13.5c-4.583,6.357-6.25,5-12.5,21.75c-2.041,5.468-2.828,23.781-3,27.5c-0.209,4.523,2.046,28.252,3.25,34.669c0.672,3.581,1.157,4.818,3.066,7.975c1.593,2.634,2.152,4.912,2.951,7.747"/></g><g class="facial-hair facial-hair-2"><path fill="#141615" fill-opacity="0.7" d="M253,208c-0.21-4.25-5.2,6.65-6.43,8.99c-1.17,2.23-2.05,4.26-2.62,6.64c-1.08,4.48-2.81,8.79-4.64,13.17c-4.16,9.97-5.1,21.64-13.24,29.76c-3.42,3.41-6.61,7.6-8.58,12.01c-1.33,2.99-2.36,5.91-2.68,9.17c-0.32,3.22,0.45,6.06-1.12,8.93c-2.54,4.63-6.03,8.89-11.25,10.51c-6.95,2.15-14.64-0.59-21.72-1.19c-3.05-0.26-6.02-0.33-9.04,0.31c-2.33,0.49-4.67,1.91-7.18,1.45c-2.07-0.38-3.94-1.91-6.02-2.5c-2.66-0.76-5.28-1.64-7.93-2.32c-2.51-0.64-4.52-0.13-6.3-2.32c-2.07-2.54-1.33-5.97-1.5-9.12c-0.39-7.43,0.42-14.26-4.94-20.01c-7.51-8.03-15.83-14.59-20.36-24.92c-1.01-2.31-1.4-4.79-2.2-7.06c-0.93-2.62-2.38-4.93-3.44-7.57c-1.28-3.19-1.97-6.22-2.31-9.69c-0.13-1.37-0.23-2.46,0.05-3.74c0.28-1.3,0.13-2.3-0.05-3.88c-0.22-1.92-0.15-1.87-1.19-3.44c-0.9-1.38-0.72-3.11-1.62-4.35c-0.49,0.84-0.84,1.52-1.19,2.42L106,207c-1.97,6.45-0.13,13.6,1.25,20c0.6,2.79-1.48,1.76,1.75,14.04c2.88,12.67,6.63,23.41,10.9,32.53c0.11,5.98,11.51,33.13,18.31,40.44c2.67,2.88,5.38,6.33,8.49,8.81c5.01,4,10.02,4.24,16.35,5.13c7.69,1.08,15.35,2.75,23.01,3.79c5.75,0.78,9.57-0.67,15.01-1.94c7.66-1.77,15.37-2.94,21.94-7.54c3.47-2.43,5.37-4.56,7.49-8.2c2.32-3.99,5.07-7.62,7.01-11.88c3.17-6.94,9.19-30.5,9.19-30.5c6.58-17.33,7.05-33.31,7.18-33.18c-0.01-1.16,0.49-0.84,0.32-1.99C253.46,231.64,253.25,212.94,253,208z"/><path fill="#141615" fill-opacity="1" d="M152.33,265c0.26-3.5,9.31-9.13,12.34-10.09c5.9-1.87,14.04,0.17,20-0.24c3.93-0.27,6.28,1.14,9.77,1.92c2.94,0.65,6.38-0.13,9.23,1.16c2.85,1.29,8.74,8.07,6.27,10.87c-4.35,0.54-9.31-5.28-13.26-6.62c-2.76-0.94-6.14-0.66-9.11-0.66c-3.4,0.01-5.48-1.24-8.52-1.75c-4.84-0.8-10.31,1.33-14.31,3.82c-2.43,1.51-6.68,3.89-9.47,4.34c-1.68,0.27-2.83,0.75-3.54-1.42c-0.45-1.39-0.28-2.19,1.27-2.66"/></g><g class="nose nose-2"><path fill="#c78764" d="M186.01,198.89c-0.17,1.53-0.26,3.95-0.49,5.46c-0.58,3.86,0.9,6.29,0.88,10.24 c-0.02,6.65,6.48,12.91,4.38,19.46c-5.2-0.71-6.56-12.33-6.95-16.23c-0.33-3.31-1.14-7.11-1.01-10.49 c0.11-2.91,1.43-6.24,2.54-9.75C185.35,197.6,186.24,196.78,186.01,198.89z"/><path fill="#9f5f3c" d="M166.63,243.75c2.25-1.3,2.59-3.82,5.63-2.9c1.56,0.48,4.43,2.55,4.11,4.38c-0.96,0.17-1.93-0.21-2.76-0.63c-1.38-0.7-1.58-0.67-2.84,0.31c-1.49,1.16-3.98,1.35-4.49-0.88c0.25-0.19,0.55-0.29,0.86-0.28"/><path fill="#9f5f3c" d="M187.38,240.75c-0.76,0.2-2.24,1.91-2.38,2.74c-0.25,1.5,0.94,1.27,2.01,1.38c1.81,0.18,3.94,1.63,5.75,0.78c3.43-1.6-3.45-8.78-6.13-4.16"/><path fill="none" stroke="#c2825f" stroke-miterlimit="10" d="M164.75,227c0.56,1.57-0.23,2.33-0.76,3.75c-0.47,1.27-0.72,2.65-1.21,3.87c-0.9,2.23-2.4,3.66-2.53,6.12c-0.15,2.94,1,4.25,2.75,6.37c1.36,1.65,4.54,2.49,6.63,2.01c1.04-0.24,1.75-0.86,2.88-0.75c1.13,0.1,2.24,0.56,3.37,0.72c1.05,0.15,2.32,0.09,3.38,0.03c1.33-0.08,1.49-0.53,2.53-1.23c2.13-1.42,6.09,0.33,8.72,0.1c2.12-0.19,3.6-1.49,5.35-2.75c1.25-0.9,2.52-2.38,3.13-3.75c0.93-2.09-1.34-2.51-1.6-4.25"/></g><g class="mouth mouth-12"><path fill="#451715" d="M152.46,270.17c-2.79,0.96,3.26,4.86,3.97,5.26c1.37,0.76,2.81,1.17,4.33,1.58c1.08,0.3,2.09,0.74,3.21,0.92c1.03,0.16,1.58-0.17,2.49-0.17c1.36,0.01,2.41,0.77,3.87,0.78c1.18,0.01,1.72,0.36,2.74,0.5c1.06,0.14,1.71,0.01,2.79,0.25c1.14,0.26,2.4,0.27,3.51,0.22c1.77-0.09,3.55-0.1,5.09-0.76c2.3-0.99,5.21-0.27,7.72-0.99c1.52-0.43,3.28-1.05,4.95-1.23c1.16-0.12,2.39,0.09,3.57-0.12c1.12-0.2,1.45-1.09,2.64-1.66c0.76-0.36,1.9-0.78,2.53-1.31c3.84-3.28-8.58-7.73-10.54-8.28c-4.22-1.18-7.5,0.8-11.6,1c-2.41,0.12-4.74-0.01-7.13-0.13c-2.38-0.11-4.72-0.86-7.16-0.88c-3.05-0.01-5.46,1.67-8.36,2.15c-1.28,0.21-1.83,0.44-2.98,0.97C156.49,269.05,154.34,270.38,152.46,270.17"/><path fill="#D9A19D" d="M164.96,266.17c-3.59,1.64-2.22,5.06-1.5,7.99c0.29,1.17,0.72,2.88,1.78,3.61c0.75,0.52,2.05,0.65,2.99,0.78c2.04,0.28,3.88,1.07,5.9,1.46c3.74,0.72,6.09,0.46,9.57-0.87c1.98-0.75,3.87,0,5.88-0.37c2.59-0.47,5.36-1.98,7.13-3.72c1.42-1.39,2.09-2.19,2.02-4.24c-0.05-1.37-0.56-2.18-1.34-3.26c-2.13-2.93-7.09-1.8-10.29-1.63c-1.32,0.07-2.69-0.14-4,0c-0.69,0.08-1.41,0.4-2.12,0.47c-2.21,0.22-4.5-0.48-6.73-0.47c-2.19,0-4.2-0.37-6.4-0.38c-1.27,0-1.8,0.46-2.75,0.75"/><path fill="#E7C2AD" d="M157.08,269.67c0.01,1.51,0.24,2.37,1.12,3.62c0.72,1.02,1.2,2.38,2.23,3.14c0.76,0.57,2.08,0.65,3.03,0.28c1.04-0.4,1.89-1.93,2.84-2.2c0.89-0.25,2.74,1.37,3.63,1.85c1.71,0.93,2.55-0.16,4.3,0.09c1.63,0.23,2.52,1.43,4.24,0.97c1.33-0.35,2.18-0.78,3.47-0.53c1.46,0.28,2.96,0.96,4.5,0.78c1.29-0.15,2.34-0.93,3.69-1.15c1.21-0.19,2.52-0.14,3.69-0.38c0.71-0.14,1.45-0.76,2.15-0.85c1.83-0.23,3.17,0.99,5,0.07c0.73-0.37,3.03-1.29,3.41-1.93c0.67-1.14-0.26-3.06-1.06-3.78c-1.22-1.08-2-0.93-3.33-0.97c-1.14-0.03-2.29-1.17-3.39-0.86c-0.97,0.27-0.98,1.77-2.03,1.24c-0.62-0.31-0.94-1.83-1.71-2.13c-0.94-0.37-1.51,0.26-2.25,0.78c-0.39,0.27-0.87,0.74-1.28,0.94c-0.97,0.47-0.52,0.19-1.38-0.06c-1.44-0.43-2.62-1.03-4.23-1.03c-0.69,0-1.44-0.08-2.09,0.16c-0.52,0.19-0.88,0.75-1.41,0.86c-0.81,0.17-2.33-0.77-3.09-1.04c-0.9-0.32-1.69-0.4-2.77-0.34c-2.41,0.12-0.78,1.2-1.89,2.27c-1.1-0.71-2.06-1.43-3.49-1.65c-1.71-0.26-1.7,1.05-2.98,1.63c-1.35,0.61-2.26-0.28-3.42-0.63c-2.13-0.65-3.81,0.05-5.49,1"/><path fill="#a7696a" fill-opacity="0.9" d="M151.21,272.29c1.78,1.47,3.2,3.17,4.89,4.78c1.32,1.25,3.12,2.24,4.69,3.09c1.33,0.72,2.81,2.01,4.29,2.51c2.63,0.9,6.31,1.11,9.14,0.87s5.71,0.15,8.61,0.35c1.66,0.11,3.2-0.54,4.88-0.47c1.04,0.04,2,0.19,2.99-0.01c2.57-0.51,4.43-1.87,6.47-3.4c0.9-0.68,1.93-1.53,2.91-2.09c1.1-0.62,2.11-0.74,3.09-1.66c1.09-1.02,4.24-3.09,4.02-4.67c-0.78-0.1-1.05,0.64-1.6,1.07c-0.73,0.58-1.48,0.81-2.34,1.13c-1.04,0.39-1.98,0.85-3.15,0.97c-1.38,0.14-2.83-0.2-4.12,0.31c-1.43,0.56-2.34,1.22-3.95,1.44c-2.94,0.41-6.01,0.1-8.96,0.52c-1.2,0.17-2.41,0.51-3.72,0.38c-1.08-0.11-2.11-0.61-3.15-0.76c-1.84-0.27-3.79,0.01-5.63-0.12c-1.49-0.1-2.88-0.65-4.36-0.9c-1.26-0.22-2.37-0.16-3.63-0.1c-4.03,0.2-7.7-2.85-11.12-4.46c0.78,0.6,0.03,1.25-0.01,1.96"/><path fill="#c78764" d="M150.96,270.54c1.17,0.11,2.08-1.17,3.12-1.66c1.39-0.65,2.94-0.37,4.23-1.1c1.13-0.63,1.77-1.31,3.05-1.72c1.5-0.48,2.38-1.61,3.79-2.03c0.86-0.25,1.83-0.13,2.69-0.37c0.87-0.24,1.74-0.78,2.68-0.99c1.59-0.37,2.93,0.04,4.44,0.26c1.72,0.25,3.4-0.1,4.84,0.87c0.77,0.52,0.43,0.81,1.54,0.61c0.66-0.12,1.65-0.71,2.26-1.04c2.35-1.26,5.58-1.03,8.28-0.71c1.17,0.14,1.93,0.54,2.97,0.88c1.22,0.4,2.51,0.35,3.57,1.02c1.8,1.13,3.34,2.9,5.12,4.09c1.19,0.79,4.56,2.08,5.02,3.36c-1.6,0.11-2.21,0.16-3.51-0.6c-1.16-0.67-2.36-1.33-3.58-1.98c-2.48-1.33-5.71-1.52-8.39-2.17c-1.46-0.35-2.95-0.59-4.52-0.61c-1.53-0.02-2.18,1.02-3.49,1.5c-0.77,0.28-1.65,0.39-2.38,0.79c-0.51,0.28-0.85,0.71-1.37,0.93c-1.49,0.63-1.92-0.65-3.24-1.07c-0.86-0.27-2.02-0.24-2.93-0.42c-1.53-0.31-3.04-0.18-4.59-0.25c-1.42-0.07-2.3-0.06-3.6,0.41c-1.18,0.43-2.51,0.88-3.73,1.22c-2.42,0.66-5.04,0.97-7.5,1.38c-1.05,0.17-2.26-0.23-3.28,0.02c-1.25,0.31-1.07,0.94-1.37-0.74"/></g></svg>