<svg id="s5342ebc30da2c" class="face" xmlns="http://www.w3.org/2000/svg" xmlns:xlink="http://www.w3.org/1999/xlink" x="0px" y="0px" width="357px" height="358px" viewBox="0 0 357 358"><path fill="#e7b88c" d="M268.5,189.04c-1.41-1.92-2.86-2.74-4.22-2.91c-3.96-0.47-7.28,4.62-7.28,4.62c2.38-21.04,0-32.96,0-32.96c-16.83-65.56-65.84-69.37-76.8-69.39c-0.71,0.02-1.44,0.04-2.2,0.06c-54,1.42-71.5,44.58-71.5,44.58c-9,12.5-4,61.55-4,61.55c-21-12.95-1.5,45.45-1.5,45.45c5,13.5,8,1,8,1c2.88,12.67,6.63,23.41,10.9,32.53c0.85,44.99,1.74,68.73,1.44,83.43c23.33,0,116.79,0,123.83,0l1.52-85.32c6.58-17.33,7.31-32.14,7.31-32.14c2.5,3,6.5,1.5,6.5,1.5C272.75,234.79,268.5,189.04,268.5,189.04z M255.96,199.92C255.93,200.18,255.94,200.15,255.96,199.92L255.96,199.92z M256.22,197.67c0.03-0.3,0.07-0.64,0.11-1.01C256.29,197.01,256.25,197.35,256.22,197.67z M256.82,192.32c0.06-0.55,0.11-0.99,0.14-1.26C256.91,191.5,256.87,191.92,256.82,192.32z M265.33,190.26c-0.04-0.16-0.09-0.37-0.16-0.62c-0.13-0.5-0.31-1.2-0.54-2.1c0.22,0.86,0.4,1.58,0.54,2.1C265.24,189.9,265.29,190.1,265.33,190.26C265.47,190.79,265.48,190.83,265.33,190.26z"/><path fill="#e2b387" d="M125.25,227.25c4.5-6.5,6.97-8.84,12.65-10c4.87-0.99,13.28-2.45,17.35-5.75c9.63-7.79,13.17-20.35,5.59-28.43c-4.32-4.6-7.03-7.3-13.05-8.81c-4.83-1.22-11.04-2.16-15.05-6.1c-7.84-7.69-11.29-20.73-10.82-31.2c0.41-8.95,9.17-18.79,15.15-24.83c7.04-7.12,15.71-14.12,23.72-20.42c-40.38,8.84-54.04,42.51-54.04,42.51c-9,12.5-4,61.55-4,61.55c-21-12.95-1.5,45.45-1.5,45.45c5,13.5,8,1,8,1c2.89,12.7,6.64,23.46,10.93,32.59c-0.78,38.87,1.32,70.54,1.15,83.21c7.79,0.1,53.6-30.51,61.45-32.32C179.16,318.81,113.75,264.75,125.25,227.25z"/><g class="eyes eyes-13"><path fill="#ffffff" fill-opacity="0.7" d="M132.33,199.83c1.11,0.03,3.22-1.89,4.34-2.34c1.76-0.71,3.45-1.13,5.34-1.33c2.77-0.29,6.43-0.69,8.99,0.37c3.64,1.5,6.2,5.23,9.95,6.43c-2.99,0.25-6.11-0.28-9.1,0.07c-2.65,0.3-5.29,1.22-8.02,0.81c-3.56-0.53-8.45-2.35-11.33-4.01"/><path fill="#ffffff" fill-opacity="0.7" d="M205.83,202.5c1.32-3,5.15-2.68,7.86-2.83c3.09-0.17,5.56-0.72,8.6-0.37c3.01,0.34,6.24,0.13,9.04,1.38c2.06,0.91,4.3,2.09,6.29,3.34c-2.41-0.25-5,0.96-7.28,1.48c-3.45,0.79-6.57,1.18-10.18,1.18c-3.14,0-6.57,0.56-9.16-1.33c-1.53-1.12-3.11-2.3-4.5-3.34"/><path fill="#1e2420" d="M142.01,196.17c-1.09,0.11-2.11,0.31-3.12,0.59c-0.46,1.23-0.61,2.67-0.2,3.79c0.45,1.24,1.33,2.1,2.29,2.68c1,0.27,1.97,0.48,2.85,0.61c2.35,0.35,4.63-0.28,6.92-0.66c1.36-1.21,2.57-3.08,2.42-5.45c-0.69-0.47-1.4-0.88-2.17-1.2C148.44,195.48,144.78,195.88,142.01,196.17z"/><path fill="#1e2420" d="M214.01,199.65c-0.54,1.2-0.53,2.71,0.39,4.19c0.86,1.38,1.88,2.29,3.01,2.89c0.92-0.02,1.84-0.07,2.74-0.07c2.24,0,4.28-0.17,6.34-0.47c1.57-1.1,2.67-2.73,1.51-4.65c-0.52-0.86-1.21-1.48-1.98-1.97c-1.25-0.09-2.51-0.14-3.73-0.28C219.36,198.96,216.95,199.46,214.01,199.65z"/></g><g class="eyebrows eyebrows-5"><path fill="#19120c" fill-opacity="0.9" d="M114.25,190.75c1.95-3.04,4.46-5.31,7.01-7.75c2.4-2.31,4.72-2.64,7.94-3.31c2.79-0.58,5.18,0.52,8.06,0.81c3.36,0.33,5.37-1.06,8.18,0.75c-0.12-0.03-0.8-0.08-0.46,0c2.81-0.24,5.11,2.07,7.77,2.25c2.49,0.17,4.97-1.64,7.52-0.75c2.06,0.72,6.02,9.88,1.49,10.51c-1.87,0.26-5.42-2.3-7.56-2.52c-3.24-0.33-5.06-0.96-7.93-2.07c-4.47-1.72-8.45,0.04-12.51,0.58c-3.68,0.49-7.56,1.28-10.99,2.74c-3.5,1.49-7.38,2.51-10.23,4.99c-0.17-2.03,1.95-5.3,2.46-7.48"/><path fill="#19120c" fill-opacity="0.9" d="M199.75,189.5c-3.81-3.45,1.92-7.08,4.77-7.79c5.6-1.41,10.93-1.02,16.74-0.71c2.37,0.13,4.53,0.75,7,0.5c1.75-0.18,3.92-1.24,5.76-0.75c1.65,0.43,3.21,2.72,4.69,3.76c1.99,1.4,2.9,2.36,4.24,4.49c1.49,2.36,4.66,3.84,3.27,7.21c-1.88-0.14-3.52-2.41-5.02-3.41c-2.21-1.47-4.85-1.52-7.38-2.11c-3.76-0.88-7.33-1.25-11.29-1.7c-4.63-0.52-7.97,0.13-12.5,0.82c-3,0.46-7.17,2.57-9.76-0.31"/></g><g class="chin chin-2"><path display="inline" fill="none" stroke="#e2b387" stroke-miterlimit="10" d="M141.33,306c2.85,2.31,3.41,3.39,6.14,5.75c3.06,2.64,8.02,6.85,11.86,8.01c7.8,2.35,13.18,6.99,21.78,7.24c7.86,0.23,16.24-4.27,22.96-7.98c7.54-4.17,14.8-10.01,20.59-16.02"/></g><g class="hair hair-7"><path fill="#19120c" fill-opacity="0.2" d="M107.61,202v-1c-0.08-2.77-1.44-3.51-0.2-6.32c1.13-2.56,1.67-4.51,1.7-7.43c0.06-5.64-2.41-10.25-0.76-15.81c0.74-2.48,2.22-4.86,2.51-7.44c0.32-2.84,0.7-4.41,1.55-6.99c1.81-5.5,3.5-12.78,9.6-15.03c8.93-3.29,18.36-5.73,27.6-8.67c3.67-1.17,6.17-3.42,10.12-3.56c2.21-0.07,4.22,0.17,6.33-0.56c2.14-0.74,3.85-1.72,6.52-2.01c7.79-0.82,16.24,1.82,23.79,3.31c7.67,1.51,16.05,1.58,23.05,5.44c2.77,1.53,4.78,2.7,7.9,3.31c2.3,0.45,5.12,0.93,7.28,1.76c4.95,1.88,5.79,6.85,5.3,11.69c-0.28,2.79-0.78,5.38,0.75,7.87c1.32,2.15,3.13,3.66,4.44,5.76c1.65,2.67,2.47,4.78,2.51,7.95c0.03,2.55-0.95,5.03-0.46,7.54c0.18,0.91,0.85,1.65,0.97,2.69c0.09,0.84-0.38,2.23-0.28,3.26c0.18,1.86,0.29,4.03,0.49,6.02c0.43,4.22,0.98,8.18,0.81,12.44c1.33-1.15,4.15-1.72,5.03-3.47c0.46-0.91,0.03-2.08,0.18-3.07c0.23-1.52,0.52-1.64,1.32-2.89c0.22-0.35,0.49-0.7,0.78-1.05c0.07-0.63,0.15-1.28,0.22-1.92c0.05-0.44,0.1-0.9,0.16-1.4c0.04-0.32,0.07-0.63,0.1-0.91c0.06-0.55,0.11-0.99,0.14-1.26c0.02-0.15,0.03-0.25,0.03-0.29c0-0.01,0-0.01,0-0.02c2.38-21.04,0-32.96,0-32.96c-16.83-65.56-65.84-69.37-76.8-69.39c-0.71,0.02-1.44,0.04-2.2,0.06c-54,1.42-71.5,44.58-71.5,44.58c-9,12.5-4,61.55-4,61.55C102.06,193.46,104.53,200.13,107.61,202z"/></g><g class="nose nose-2"><path fill="#ddae82" d="M186.01,198.89c-0.17,1.53-0.26,3.95-0.49,5.46c-0.58,3.86,0.9,6.29,0.88,10.24 c-0.02,6.65,6.48,12.91,4.38,19.46c-5.2-0.71-6.56-12.33-6.95-16.23c-0.33-3.31-1.14-7.11-1.01-10.49 c0.11-2.91,1.43-6.24,2.54-9.75C185.35,197.6,186.24,196.78,186.01,198.89z"/><path fill="#b5865a" d="M166.63,243.75c2.25-1.3,2.59-3.82,5.63-2.9c1.56,0.48,4.43,2.55,4.11,4.38c-0.96,0.17-1.93-0.21-2.76-0.63c-1.38-0.7-1.58-0.67-2.84,0.31c-1.49,1.16-3.98,1.35-4.49-0.88c0.25-0.19,0.55-0.29,0.86-0.28"/><path fill="#b5865a" d="M187.38,240.75c-0.76,0.2-2.24,1.91-2.38,2.74c-0.25,1.5,0.94,1.27,2.01,1.38c1.81,0.18,3.94,1.63,5.75,0.78c3.43-1.6-3.45-8.78-6.13-4.16"/><path fill="none" stroke="#d8a97d" stroke-miterlimit="10" d="M164.75,227c0.56,1.57-0.23,2.33-0.76,3.75c-0.47,1.27-0.72,2.65-1.21,3.87c-0.9,2.23-2.4,3.66-2.53,6.12c-0.15,2.94,1,4.25,2.75,6.37c1.36,1.65,4.54,2.49,6.63,2.01c1.04-0.24,1.75-0.86,2.88-0.75c1.13,0.1,2.24,0.56,3.37,0.72c1.05,0.15,2.32,0.09,3.38,0.03c1.33-0.08,1.49-0.53,2.53-1.23c2.13-1.42,6.09,0.33,8.72,0.1c2.12-0.19,3.6-1.49,5.35-2.75c1.25-0.9,2.52-2.38,3.13-3.75c0.93-2.09-1.34-2.51-1.6-4.25"/></g><g class="mouth mouth-8"><path fill="#060F10" d="M154.8,264.86c-0.22-0.05,0.18-0.66-0.04-0.64c-0.95,2.17,0.27,4.09,1.66,5.61c1.87,2.04,3.57,4.59,5.97,5.96c2.64,1.51,5.3,3.53,8.19,4.37c1.21,0.35,2.09,0.52,3.13,1.14c0.91,0.54,1.51,1.01,2.65,1.28c2.26,0.53,4.1-0.04,6.24-0.77c1.34-0.46,2.45-0.44,3.83-0.51c1.72-0.09,3.29-0.79,4.94-1.27c1.96-0.58,3.8-1.64,5.22-3.06c0.46-0.47,0.63-1.12,1.17-1.54c0.61-0.48,1.52-0.65,2.17-1.15c0.86-0.66,1.52-1.71,2.35-2.45c0.83-0.74,1.92-1.29,2.49-2.27c0.88-1.5-0.58-2-1.95-2.49c-2.03-0.72-4.45-1.69-6.56-1.98c-1.49-0.2-2.9-0.02-4.34-0.41c-2.67-0.72-5.6-0.35-8.42-0.48c-2.06-0.1-4.11-1.24-6.11-1.82c-3.44-1-5.92-0.15-8.7,1.66c-2.79,1.82-6.12,1.18-9.3,1.18c-1.49,0-3.39-0.32-4.63-1.02"/><path fill="#EFE2C9" d="M165.52,275.32c1.15-0.56,2.05-1.13,3.42-1.28c1.16-0.12,2.22,0.29,3.32,0.25c1.08-0.03,1.83-0.59,2.74-0.54c1.31,0.07,2.73,0.03,4.05-0.1c1.2-0.12,1.79,0.26,2.93,0.39c1.34,0.15,2.43-0.35,3.71-0.38c2.12-0.05,4.35,0.73,6.38,0.89c1.7,0.14,3.54-0.29,5.21-0.11c0.1,1.01-4.12,1.57-5.06,2.09c-2.19,1.2-3.21,1.96-5.63,2.22c-1.47,0.15-2.83,0.59-4.43,0.53c-1.55-0.07-3.09-0.13-4.65-0.13c-1.4,0-3.3,0.29-4.68,0c-1.12-0.24-2.46-1.02-3.5-1.51c-1.55-0.73-2.61-1.77-3.79-2.96"/><path fill="#EFE2C9" d="M161.31,267.67c0.02,1.05-0.46,1.9,0.02,2.94c0.35,0.77,1.14,1.39,1.73,2.03c1.32,1.43,4.16,0.77,6.13,0.77c1,0,1.93-0.12,2.74-0.04c1.32,0.13,2.74,0.67,4.18,0.42c1.02-0.18,2.04-0.81,3.2-0.52c1.24,0.31,1.61,0.72,2.93,0.52c2.12-0.32,4.3-0.33,6.38-0.13c1.47,0.14,3.39,0.4,4.72-0.01c0.45-0.14,0.83-0.42,1.28-0.51c0.61-0.12,1.22,0.1,1.79-0.12c1.33-0.51,3.85-2.58,2.9-4.21c-0.97-1.68-4.46-2.09-6.07-2.3c-2.26-0.3-4.41-1.11-6.68-1.4c-1.67-0.21-3.59,0.24-5.22-0.13c-0.55-0.13-0.82-0.52-1.27-0.77c-3.74-2.1-7.39-1.69-11.27-0.92c-1.64,0.32-3.31,1.49-4.84,2.29c-0.96,0.51-2.34,1.4-2.9,2.33"/><path fill="#a7696a" fill-opacity="0.9" d="M153.65,265.24c0.83,1.83,1.32,4.01,2.57,5.62c0.65,0.84,1.61,1.55,2.37,2.32c1.46,1.49,2.74,3.03,4.15,4.54c1.93,2.08,3.57,3.66,6.08,5.02c2.96,1.61,5.83,2.12,9.07,2.91c2.56,0.63,5.06,1.13,7.72,1.38c1.4,0.13,2-0.03,3.09-0.65c1.16-0.66,7.64-1.09,9.72-2.42c1.12-0.71,1.99-1.6,3.18-2.29c1.33-0.76,3.24-1.8,4.19-2.92c1.39-1.63,3.07-7.71,3.47-8.8c0.39-1.06-0.08-2.06,0.24-3.17c-1.53,1.51-4.38,2.69-6.37,3.66c-1.88,0.91-3.67,1.69-5.83,2.07c-1.86,0.33-2.63,0.52-3.97,1.63c-1.05,0.87-1.98,1.68-3.38,1.82c-2.07,0.2-4.24-0.02-6.32,0c-2.47,0.02-4.97,0.41-7.45,0.52c-2.48,0.1-4.58-0.49-6.85-1.28c-1.19-0.41-2.37-0.84-3.41-1.54c-1.2-0.81-1.6-1.07-3.1-1.43c-1.28-0.31-2.38-0.89-3.33-1.75c-1.16-1.03-2.51-1.79-3.66-2.82C154.98,266.91,154.4,266.03,153.65,265.24"/><path fill="#ddae82" d="M153.15,263.84c3.02,0,5.29-1.68,8.29-1.91c3.31-0.26,6.64-0.3,9.97-0.13c1.98,0.1,3.98,0,5.96,0c1.84,0,3.38,0.6,5.11,0.77c2.92,0.3,6.09-0.01,9.03-0.01c2.11,0,4.22,0.15,6.27,0.53c1.73,0.33,3.74,0.44,5.46,0.9c1.09,0.29,2.86,0.37,3.83,1.02c1.26,0.85,1.47,1.45,3.07,1.65c0.03,1.03-1.77,1.25-2.54,1.61c-1.06,0.49-1.89,1.05-3.05,1.33c-2.19,0.54-4.9,0.57-7.14,0.1c-1.45-0.3-2.6-0.89-4.05-1.02c-1.32-0.11-2.54-0.33-3.85-0.38c-2.9-0.12-5.79,0.72-8.56,0.51c-2.94-0.23-5.81-1-8.78-1.41c-1.59-0.22-3.61-0.35-5.25-0.1c-1.29,0.2-2.41,0.74-3.79,0.62c-2.44-0.22-4.3-1.93-6.66-2.04c-1.09-0.05-2.24,0.77-3.02-0.02C152.98,265.41,151.8,263.54,153.15,263.84"/></g></svg>