<svg id="s5a4017d28e769" class="face" xmlns="http://www.w3.org/2000/svg" xmlns:xlink="http://www.w3.org/1999/xlink" x="0px" y="0px" width="357px" height="358px" viewBox="0 0 357 358"><path fill="#8c5d49" d="M268.5,189.04c-1.41-1.92-2.86-2.74-4.22-2.91c-3.96-0.47-7.28,4.62-7.28,4.62c2.38-21.04,0-32.96,0-32.96c-16.83-65.56-65.84-69.37-76.8-69.39c-0.71,0.02-1.44,0.04-2.2,0.06c-54,1.42-71.5,44.58-71.5,44.58c-9,12.5-4,61.55-4,61.55c-21-12.95-1.5,45.45-1.5,45.45c5,13.5,8,1,8,1c2.88,12.67,6.63,23.41,10.9,32.53c0.85,44.99,1.74,68.73,1.44,83.43c23.33,0,116.79,0,123.83,0l1.52-85.32c6.58-17.33,7.31-32.14,7.31-32.14c2.5,3,6.5,1.5,6.5,1.5C272.75,234.79,268.5,189.04,268.5,189.04z M255.96,199.92C255.93,200.18,255.94,200.15,255.96,199.92L255.96,199.92z M256.22,197.67c0.03-0.3,0.07-0.64,0.11-1.01C256.29,197.01,256.25,197.35,256.22,197.67z M256.82,192.32c0.06-0.55,0.11-0.99,0.14-1.26C256.91,191.5,256.87,191.92,256.82,192.32z M265.33,190.26c-0.04-0.16-0.09-0.37-0.16-0.62c-0.13-0.5-0.31-1.2-0.54-2.1c0.22,0.86,0.4,1.58,0.54,2.1C265.24,189.9,265.29,190.1,265.33,190.26C265.47,190.79,265.48,190.83,265.33,190.26z"/><path fill="#875844" d="M125.25,227.25c4.5-6.5,6.97-8.84,12.65-10c4.87-0.99,13.28-2.45,17.35-5.75c9.63-7.79,13.17-20.35,5.59-28.43c-4.32-4.6-7.03-7.3-13.05-8.81c-4.83-1.22-11.04-2.16-15.05-6.1c-7.84-7.69-11.29-20.73-10.82-31.2c0.41-8.95,9.17-18.79,15.15-24.83c7.04-7.12,15.71-14.12,23.72-20.42c-40.38,8.84-54.04,42.51-54.04,42.51c-9,12.5-4,61.55-4,61.55c-21-12.95-1.5,45.45-1.5,45.45c5,13.5,8,1,8,1c2.89,12.7,6.64,23.46,10.93,32.59c-0.78,38.87,1.32,70.54,1.15,83.21c7.79,0.1,53.6-30.51,61.45-32.32C179.16,318.81,113.75,264.75,125.25,227.25z"/><g class="eyes eyes-12"><path fill="#ffffff" fill-opacity="0.7" d="M128.25,203.25c1.4-2.3,5.02-2.76,7.14-4.35c2-1.5,3.71-2.77,6.39-3.03c1.37-0.13,2.27,0.45,3.49,0.63c1.52,0.23,3.09-0.15,4.61,0.15c2.19,0.43,4.08,1.86,6,2.94c0.92,0.52,1.8,0.97,2.74,1.39c-1.43,2.32-4.53,3.14-6.99,3.64c-2.76,0.56-5.32,1.5-8.14,1.75c-2.74,0.25-4.9-0.87-7.49-1.01c-2.35-0.12-4.01-0.67-6.13-1.37c-0.6-0.2-1.21-0.53-1.74-0.88"/><path fill="#ffffff" fill-opacity="0.7" d="M201.67,202.28c0.42-0.78,1.39-1.43,2.29-1.66c0.67-0.17,1.32-0.37,1.94-0.64c0.73-0.32,1.32-0.81,2.05-1.14c1.33-0.59,2.43-1.56,3.73-2.19c1.09-0.53,2.49-0.74,3.71-0.91c0.83-0.12,1.63-0.16,2.45,0.02c0.73,0.16,1.46,0.1,2.19,0.23c1.26,0.24,2.31,0.46,3.27,1.24c0.78,0.64,1.73,1.04,2.57,1.56c0.61,0.38,1.04,0.91,1.57,1.37c0.41,0.35,0.86,0.62,1.34,0.87c0.39,0.2,0.57,0.39,0.88,0.67c0.54,0.48,1.27,0.8,1.66,1.4c0.13,0.2,0.19,0.43,0.35,0.6c-1.49,0.49-3.08,0.83-4.66,1.06c-0.69,0.1-1.37,0-2.06,0.13c-0.48,0.09-0.98,0.15-1.47,0.23c-2.36,0.4-4.83,0.43-7.23,0.43c-1.64,0-3.31-0.33-4.91-0.65c-1.07-0.22-2.16-0.3-3.23-0.5c-1.59-0.3-3.16-0.87-4.67-1.37c-0.69-0.23-1.21-0.43-1.72-0.88"/><path fill="#4f2a1a" d="M140,195.75c-2.6,2.35-5.65,5.65-2.56,8.77c2.56,2.58,5.85,2.5,8.58,0.22c2.08-1.74,5.06-5.31,1.8-7.56c-1.55-1.07-8.29-1.78-9.32-0.43"/><path fill="#4f2a1a" d="M214,196.25c-1.04,1.15-2.43,1.93-2.99,3.43c1.99,5.58,9.32,8.68,13.45,2.75c3.82-5.48-8.98-8.72-11.96-4.93"/></g><g class="eyebrows eyebrows-12"><path fill="#141615" fill-opacity="0.6" d="M116.67,186.33c1.18-2.47,4.08-5.08,6.17-6.8c2.93-2.42,6.2-4.23,10.16-4.04c2.26,0.11,4.05,0.5,6.13,1.35c2.48,1.01,4.97,1,7.58,1.33c2.81,0.36,5.34,0.13,8.23-0.01c2.17-0.1,4.17-0.19,5.45,1.8c2.78,4.32-6.24,3.67-8.37,3.36c-4.1-0.6-8.21-0.8-12.35-1.17c-3.58-0.32-6.49-1.23-9.75,0.63c-2.86,1.63-5.96,2.54-8.92,3.87c-1.18,0.53-2.56,1.15-3.96,0.64C116.81,187.01,116.69,186.71,116.67,186.33"/><path fill="#141615" fill-opacity="0.6" d="M202.5,181.83c2.63-0.31,4.95-1.63,7.5-1.99c1.88-0.26,3.86-0.1,5.73-0.38c3.38-0.5,6.25-2.84,9.56-3.33c1.77-0.26,4.01-0.24,5.84,0.03c1.26,0.19,2.98,0.29,4.04,0.84c0.56,0.29,1.01,1.05,1.53,1.45c2.27,1.75,4.52,3.66,6.3,6.05c1.2,1.61,2.79,4.26,2.47,6.47c-3.74,0.2-5.04-1.75-7.85-3.76c-3.49-2.5-5.61-4.04-10.12-4.05c-4.83,0-9.08-0.25-13.8,0.54c-2.9,0.48-6.37,1.52-9.24,0.67c-1.5-0.45-3.35-3.17-0.63-2.87"/></g><g class="chin chin-11"><path fill="none" stroke="#875844" stroke-miterlimit="10" d="M141,314.5c1.52,0.31,3.15,2.17,4.33,3.17c1.39,1.17,2.78,2.19,4.11,3.37c1.22,1.09,2.46,2.06,3.89,2.96c2.41,1.52,4.85,1.7,7.6,2.55c2.44,0.75,4.83,1.86,7.35,2.45c2.58,0.61,4.78,0.7,7.42,0.84c2.95,0.16,5.83,0.86,8.76,0.47c2.23-0.3,3.83-1.25,5.87-1.63c2.67-0.5,3.67-1.28,5.67-1.7c1.71-0.35,3.54-1.32,5.29-1.84c3.64-1.08,7.27-3.71,10.27-5.92c1.51-1.11,3.36-1.89,4.85-3.04c1.14-0.88,1.92-1.98,3.05-2.88c2.17-1.72,4.14-3.53,6.17-5.46c0.34-0.32,0.41-0.59,0.88-0.83"/></g><g class="hair hair-1"><path fill="#141615" fill-opacity="0.5" d="M108.94,207.62c0.55-1.65,1.12-4.62-0.6-5.48c-0.4-3.3-0.02-6.9-0.33-10.14c-0.37-3.89-0.85-8.32-0.35-12.27c0.45-3.51,2.21-6.46,3.66-9.4c1.53-3.1,3.57-3.45,5.65-5.84c4.72-5.42-0.34-17.2,2.02-24.17c2.7-7.96,13.15-9.48,19.63-13.08c7.27-4.04,15.53-6.34,24.11-6.24c9.53,0.1,19.81,0.08,29.29,1.32c4.79,0.63,9.58,1.02,14.32,1.68c4.67,0.65,9.11,2.63,13.69,3.99c3.31,0.99,8.3,1.69,11.26,3.41c2.93,1.7,4.6,6.57,5.72,9.61c0.95,2.58,2.27,5.3,2.76,7.98c0.5,2.75-0.54,5.38-0.1,8.02c0.83,5.06,6.68,9.99,8.59,15.08c3.55,9.47,1.02,20.53,3.82,30.21c3.96-3.75,4.93-11.55,4.93-11.55c2.38-21.04,0-32.96,0-32.96c-16.83-65.56-65.84-69.37-76.8-69.39c-0.71,0.02-1.44,0.04-2.2,0.06c-54,1.42-71.5,44.58-71.5,44.58c-9,12.5-4,61.55-4,61.55C103.03,197.31,107.4,207.12,108.94,207.62z M256.96,191.06c-0.05,0.44-0.1,0.86-0.14,1.26C256.88,191.77,256.93,191.33,256.96,191.06z"/></g><g class="nose nose-11"><path fill="#82533f" d="M186.01,198.89c-0.17,1.53-0.26,3.95-0.49,5.46c-0.58,3.86,0.9,6.29,0.88,10.24 c-0.02,6.65,6.48,12.91,4.38,19.46c-5.2-0.71-6.56-12.33-6.95-16.23c-0.33-3.31-1.14-7.11-1.01-10.49 c0.11-2.91,1.43-6.24,2.54-9.75C185.35,197.6,186.24,196.78,186.01,198.89z"/><path fill="#5a2b17" d="M168.25,236.38c-1.48,0.41-5.26,4.48-3.75,5.85c1.41,1.29,2.76-0.81,3.88-1.39c1.75-0.9,3.65-0.71,5.48-1.35c0.53-2.2-4.6-5.68-5.73-2.99"/><path fill="#5a2b17" d="M188.63,235c-1.05-0.39-1.6-1.1-2.78-0.5c-0.65,0.33-2,1.59-2.35,2.22c-1.14,2.1,3.47,3.29,4.9,4.06c1.06,0.57,5.07,1.1,4.35-1.17c-0.25-0.8-1.83-2.11-2.35-2.9c-0.52-0.77-0.86-1.18-1.65-1.59"/><path fill="none" stroke="#7d4e3a" stroke-miterlimit="10" d="M155.88,239.75c0.06,7.07,10.22,7.27,15.25,6c2.97-0.75,5.7,0.64,8.59,0.88c0.73,0.06,1.81,0.16,2.51-0.09c0.71-0.26,1.25-1.16,1.91-1.48c1.22-0.6,3.52-0.55,4.88-0.31c2.73,0.49,5.06,1.36,7.61-0.09c2.49-1.41,3.63-2.95,3.63-5.78"/></g><g class="mouth mouth-16"><path fill="#a7696a" fill-opacity="0.9" d="M153.56,268.86c0.93,1.72,2.93,3.03,4.52,4.19c1.92,1.39,3.79,1.78,5.89,2.63c2.94,1.19,6,2.09,9.2,2c1.27-0.04,2.29-0.4,3.4-0.73c1.56-0.47,3.21-0.43,4.89-0.22c3.21,0.41,5.71,1.81,8.88,0.51c1.8-0.74,3.73-1.28,5.39-2.13c3.54-1.81,7.48-4.25,10.6-6.7c-1.22,0.13-3.41-0.67-4.66-0.68c-1.67-0.02-3.03-0.06-4.68-0.28c-2.86-0.39-5.59-0.13-8.47-0.17c-2.59-0.03-5.01-0.78-7.64-0.56c-2.76,0.23-5.51,0.71-8.28,0.97c-2,0.19-4.01,0.29-6.03,0.38c-3.07,0.13-6.32-0.69-9.16,0.29c-1.05,0.36-2.54,1.03-3.61,0.62"/><path fill="#82533f" d="M153.05,268.63c1.64-1.35,3.28-1.87,5.29-2.51c1.19-0.38,2.23-1.14,3.31-1.61c3.73-1.61,8.13-2.84,12.25-2.64c1.47,0.07,2.64,1.06,3.97,1.25c1.73,0.24,2.99-1.23,4.52-1.47c1.93-0.31,4.62,0.66,6.39,1.24c1.96,0.64,3.89,1.69,5.82,2.22c4.05,1.13,8.43,1.62,12.46,2.66c-0.08,1.34-2.13,1.53-3.2,1.75c-1.52,0.31-2.95,0.9-4.46,1.18c-3.7,0.7-8.01,0.65-11.72,0.49c-6.48-0.28-12.9-1.09-19.38-0.82c-3.13,0.13-6.17,0.05-9.31,0.01c-1.97-0.02-4.72-0.17-6.03-1.5"/></g></svg>