<svg id="s57da0c2aad2c9" class="face" xmlns="http://www.w3.org/2000/svg" xmlns:xlink="http://www.w3.org/1999/xlink" x="0px" y="0px" width="357px" height="358px" viewBox="0 0 357 358"><path fill="#592e1e" d="M268.5,189.04c-1.41-1.92-2.86-2.74-4.22-2.91c-3.96-0.47-7.28,4.62-7.28,4.62c2.38-21.04,0-32.96,0-32.96c-16.83-65.56-65.84-69.37-76.8-69.39c-0.71,0.02-1.44,0.04-2.2,0.06c-54,1.42-71.5,44.58-71.5,44.58c-9,12.5-4,61.55-4,61.55c-21-12.95-1.5,45.45-1.5,45.45c5,13.5,8,1,8,1c2.88,12.67,6.63,23.41,10.9,32.53c0.85,44.99,1.74,68.73,1.44,83.43c23.33,0,116.79,0,123.83,0l1.52-85.32c6.58-17.33,7.31-32.14,7.31-32.14c2.5,3,6.5,1.5,6.5,1.5C272.75,234.79,268.5,189.04,268.5,189.04z M255.96,199.92C255.93,200.18,255.94,200.15,255.96,199.92L255.96,199.92z M256.22,197.67c0.03-0.3,0.07-0.64,0.11-1.01C256.29,197.01,256.25,197.35,256.22,197.67z M256.82,192.32c0.06-0.55,0.11-0.99,0.14-1.26C256.91,191.5,256.87,191.92,256.82,192.32z M265.33,190.26c-0.04-0.16-0.09-0.37-0.16-0.62c-0.13-0.5-0.31-1.2-0.54-2.1c0.22,0.86,0.4,1.58,0.54,2.1C265.24,189.9,265.29,190.1,265.33,190.26C265.47,190.79,265.48,190.83,265.33,190.26z"/><path fill="#542919" d="M125.25,227.25c4.5-6.5,6.97-8.84,12.65-10c4.87-0.99,13.28-2.45,17.35-5.75c9.63-7.79,13.17-20.35,5.59-28.43c-4.32-4.6-7.03-7.3-13.05-8.81c-4.83-1.22-11.04-2.16-15.05-6.1c-7.84-7.69-11.29-20.73-10.82-31.2c0.41-8.95,9.17-18.79,15.15-24.83c7.04-7.12,15.71-14.12,23.72-20.42c-40.38,8.84-54.04,42.51-54.04,42.51c-9,12.5-4,61.55-4,61.55c-21-12.95-1.5,45.45-1.5,45.45c5,13.5,8,1,8,1c2.89,12.7,6.64,23.46,10.93,32.59c-0.78,38.87,1.32,70.54,1.15,83.21c7.79,0.1,53.6-30.51,61.45-32.32C179.16,318.81,113.75,264.75,125.25,227.25z"/><g class="eyes eyes-14"><path fill="#ffffff" fill-opacity="0.7" d="M221.18,197.8c-0.65-0.39-1.29-0.73-1.93-1.03c-0.03,1.04-0.09,2.12-0.46,2.86c-0.78,1.54-3.02,2.85-4.5,3.66c-1.9,1.03-3.99,1.19-5.78-0.03c-1.41-0.96-3.77-2.77-4.47-4.41c-0.2-0.46-0.27-0.98-0.25-1.52c-2.38,1.37-3.84,3.33-5.61,5.17c2,1.26,5.11,2.19,7.5,2.5c2.7,0.35,5.76-0.15,8.34-0.54c2.31-0.34,4.29-1.69,6.49-1.96c1.5-0.19,2.8-0.58,4.17-0.84c1.3-0.24,2.36,0.54,3.62,0.34C225.63,201.67,223.38,199.12,221.18,197.8z"/><path fill="#504040" d="M204.03,198.85c0.69,1.63,3.06,3.45,4.47,4.41c1.79,1.22,3.89,1.06,5.78,0.03c1.48-0.8,3.72-2.12,4.5-3.66c0.37-0.74,0.43-1.82,0.46-2.86c-1.99-0.93-4.01-1.43-6.41-1.43c-3.39,0-5.89,0.25-8.83,1.86c-0.08,0.04-0.14,0.09-0.22,0.13C203.76,197.87,203.83,198.38,204.03,198.85z"/></g><g><path fill="#ffffff" fill-opacity="0.7" d="M157.67,197.54c-0.26-0.16-0.53-0.3-0.8-0.44c-0.06,0.67-0.22,1.38-0.34,2.15c-0.35,2.35-1.63,3.33-3.37,4.9c-1.73,1.57-3.23,2.08-5.66,1.6c-4.51-0.89-6.85-4.89-6-9.13h-0.13c-0.47-0.24-0.56-0.62-0.43-1.05c-2.71,1.05-5.11,2.85-6.73,5.35c0.68,1.39,4.13,2.87,5.62,3.58c2.85,1.36,4.65,2.04,7.84,2.16c2.55,0.1,5.14-0.89,7.37-1.82c2.87-1.2,4.15-2.95,7.45-3.21C160.88,200.34,159.45,198.63,157.67,197.54z"/><path fill="#504040" d="M141.38,196.63h0.13c-0.85,4.24,1.49,8.24,6,9.13c2.43,0.48,3.93-0.02,5.66-1.6c1.73-1.58,3.02-2.55,3.37-4.9c0.12-0.77,0.28-1.48,0.34-2.15c-1.79-0.89-3.89-1.38-5.7-1.93c-3.32-1.02-6.99-0.84-10.22,0.41C140.82,196.01,140.9,196.39,141.38,196.63z"/></g><g class="eyebrows eyebrows-17"><path fill="#0e0e0c" fill-opacity="0.5" d="M121.5,192.83c3.86-4.32,7.58-8.57,12.6-11.58c1.17-0.7,2.49-1.83,3.85-2.09c1.61-0.31,3.54,0.18,5.19,0.17c2.5,0,4.75-0.5,7.22-0.5c5.14,0.01,16.15-1.84,17.81,4.93c0.61,2.5-0.97,2.81-3.23,2.69c-3.6-0.18-7.19-0.25-10.77-0.76c-3.42-0.49-8.1-1.31-11.55-0.71c-2.71,0.47-5.58,2.86-8.13,3.89c-2.83,1.14-5.36,2.37-8.18,3.72c-1,0.48-2.45,1.28-3.53,1.56c-2.05,0.53-1.62-0.64-0.79-2.16"/><path fill="#0e0e0c" fill-opacity="0.5" d="M220.83,177.17c-3.94-0.4-9.86-1.37-13.46,0.54c-1.01,0.54-1.83,1.28-3,1.67c-1.41,0.47-2.84,0.55-4.23,1.14c-1.88,0.8-5.94,2.7-6.77,4.66c-1.4,3.29,3.34,3.56,5.42,3.37c1.87-0.17,3.45,0.13,5.17-0.49c1.73-0.62,2.92-2.04,4.48-2.84c1.98-1.02,4.6-0.82,6.8-0.71c5.99,0.3,12.94,1.06,18.09,4.38c1.33,0.86,5.56,4.05,7.54,2.81c2.19-1.38-5.09-6.95-6.35-7.95c-2.21-1.74-5.34-3.88-7.97-4.84c-2.76-1.01-3.12-0.64-5.99-1.89"/></g><g class="chin chin-1"><path display="inline" fill="none" stroke="#542919" stroke-miterlimit="10" d="M160.03,323.62c1.88,4.33,10.37,5.57,14.49,7.45 c5.11,2.33,10.76,2.84,16.3,1.58c2.46-0.56,5.32-0.69,7.7-1.4c2.79-0.83,17.91-6.92,18.65-12.54c0.05-0.4,0.08-0.94,0.03-1.33"/></g><g class="hair hair-19"><linearGradient id="hair_57da0c2aae25e" gradientUnits="userSpaceOnUse" x1="179.6572" y1="175.0048" x2="179.6572" y2="89.4009"><stop offset="0" style="stop-color:#0e0e0c;stop-opacity:0"/><stop offset="0" style="stop-color:#0e0e0c;stop-opacity:0"/><stop offset="0.05" style="stop-color:#0e0e0c;stop-opacity:0.05"/><stop offset="0.1297" style="stop-color:#0e0e0c;stop-opacity:0.1894"/><stop offset="0.1995" style="stop-color:#0e0e0c;stop-opacity:0.2912"/><stop offset="0.2731" style="stop-color:#0e0e0c;stop-opacity:0.3987"/><stop offset="0.3521" style="stop-color:#0e0e0c;stop-opacity:0.514"/><stop offset="0.4388" style="stop-color:#0e0e0c;stop-opacity:0.6405"/><stop offset="0.5391" style="stop-color:#0e0e0c;stop-opacity:0.787"/><stop offset="0.685" style="stop-color:#0e0e0c"/><stop offset="0.7087" style="stop-color:#0e0e0c"/><stop offset="0.8249" style="stop-color:#0e0e0c"/><stop offset="0.9259" style="stop-color:#0e0e0c"/><stop offset="1" style="stop-color:#0e0e0c"/></linearGradient><path fill="url(#hair_57da0c2aae25e)" fill-opacity="0.5" d="M180.3,89.4c-0.7,0-1.4,0-2.2,0.1c-54,1.4-71.5,44.6-71.5,44.6c-4.9,6.9-5.7,24.7-5.3,39.5l9.9,1.5c0,0,6.7-14.3,8.5-16.1c1.8-1.8,3.8-26.6,3.8-26.6s12-13.2,36.8-14.9c0,0,16.4-3.8,25.4-3.8c0,0,15.8,2.9,26.6,6.7c0,0,16.1,6.4,17,6.7c0.9,0.3,8.5,7,8.5,7l2,20.8l7,13.4l5,6.7l6.2-6.2c-0.3-6.5-1-10-1-10C240.3,93.2,191.3,89.4,180.3,89.4z"/></g><g class="nose nose-4"><path fill="#4f2414" d="M186.01,198.89c-0.17,1.53-0.26,3.95-0.49,5.46c-0.58,3.86,0.9,6.29,0.88,10.24 c-0.02,6.65,6.48,12.91,4.38,19.46c-5.2-0.71-6.56-12.33-6.95-16.23c-0.33-3.31-1.14-7.11-1.01-10.49 c0.11-2.91,1.43-6.24,2.54-9.75C185.35,197.6,186.24,196.78,186.01,198.89z"/><path fill="#270000" d="M171.75,240.75c-2.35-2.73-3.43-3.67-7.21-3.46c-0.48,1.84-3.28,4,0.46,5.23c1.09,0.36,2.6-0.19,3.75-0.02c1.39,0.2,2.14,0.97,3.71,0.73c0.05-1.04,0.05-2.13,0-3.17c-0.57-0.04-1.4-0.18-1.96-0.04"/><path fill="#270000" d="M182.5,243c2.33-0.96,3.32-2.52,6.26-2.81c1.82-0.18,4.62,0.63,3.96,3.52c-2.78,1.42-7.23,0.74-9.46-0.96"/><path fill="none" stroke="#4a1f0f" stroke-miterlimit="10" d="M161.5,223.5c2.03,5.16-3.05,6.6-4.56,10.75c-1.43,3.93,1.93,8.02,5.26,10.07c1.73,1.07,3.5,0.51,5.29,1.24c2,0.82,3.77,2.3,5.76,3.19c1.87,0.84,4.05,1.76,6.26,1.26c2.54-0.57,4.2-2.21,6.99-1.82c4.49,0.63,7.81,0.77,11.18-2.74c2.46-2.56,4.78-7.35,3.07-10.7"/></g><g class="mouth mouth-8"><path fill="#060F10" d="M154.8,264.86c-0.22-0.05,0.18-0.66-0.04-0.64c-0.95,2.17,0.27,4.09,1.66,5.61c1.87,2.04,3.57,4.59,5.97,5.96c2.64,1.51,5.3,3.53,8.19,4.37c1.21,0.35,2.09,0.52,3.13,1.14c0.91,0.54,1.51,1.01,2.65,1.28c2.26,0.53,4.1-0.04,6.24-0.77c1.34-0.46,2.45-0.44,3.83-0.51c1.72-0.09,3.29-0.79,4.94-1.27c1.96-0.58,3.8-1.64,5.22-3.06c0.46-0.47,0.63-1.12,1.17-1.54c0.61-0.48,1.52-0.65,2.17-1.15c0.86-0.66,1.52-1.71,2.35-2.45c0.83-0.74,1.92-1.29,2.49-2.27c0.88-1.5-0.58-2-1.95-2.49c-2.03-0.72-4.45-1.69-6.56-1.98c-1.49-0.2-2.9-0.02-4.34-0.41c-2.67-0.72-5.6-0.35-8.42-0.48c-2.06-0.1-4.11-1.24-6.11-1.82c-3.44-1-5.92-0.15-8.7,1.66c-2.79,1.82-6.12,1.18-9.3,1.18c-1.49,0-3.39-0.32-4.63-1.02"/><path fill="#EFE2C9" d="M165.52,275.32c1.15-0.56,2.05-1.13,3.42-1.28c1.16-0.12,2.22,0.29,3.32,0.25c1.08-0.03,1.83-0.59,2.74-0.54c1.31,0.07,2.73,0.03,4.05-0.1c1.2-0.12,1.79,0.26,2.93,0.39c1.34,0.15,2.43-0.35,3.71-0.38c2.12-0.05,4.35,0.73,6.38,0.89c1.7,0.14,3.54-0.29,5.21-0.11c0.1,1.01-4.12,1.57-5.06,2.09c-2.19,1.2-3.21,1.96-5.63,2.22c-1.47,0.15-2.83,0.59-4.43,0.53c-1.55-0.07-3.09-0.13-4.65-0.13c-1.4,0-3.3,0.29-4.68,0c-1.12-0.24-2.46-1.02-3.5-1.51c-1.55-0.73-2.61-1.77-3.79-2.96"/><path fill="#EFE2C9" d="M161.31,267.67c0.02,1.05-0.46,1.9,0.02,2.94c0.35,0.77,1.14,1.39,1.73,2.03c1.32,1.43,4.16,0.77,6.13,0.77c1,0,1.93-0.12,2.74-0.04c1.32,0.13,2.74,0.67,4.18,0.42c1.02-0.18,2.04-0.81,3.2-0.52c1.24,0.31,1.61,0.72,2.93,0.52c2.12-0.32,4.3-0.33,6.38-0.13c1.47,0.14,3.39,0.4,4.72-0.01c0.45-0.14,0.83-0.42,1.28-0.51c0.61-0.12,1.22,0.1,1.79-0.12c1.33-0.51,3.85-2.58,2.9-4.21c-0.97-1.68-4.46-2.09-6.07-2.3c-2.26-0.3-4.41-1.11-6.68-1.4c-1.67-0.21-3.59,0.24-5.22-0.13c-0.55-0.13-0.82-0.52-1.27-0.77c-3.74-2.1-7.39-1.69-11.27-0.92c-1.64,0.32-3.31,1.49-4.84,2.29c-0.96,0.51-2.34,1.4-2.9,2.33"/><path fill="#451a0a" fill-opacity="1" d="M153.65,265.24c0.83,1.83,1.32,4.01,2.57,5.62c0.65,0.84,1.61,1.55,2.37,2.32c1.46,1.49,2.74,3.03,4.15,4.54c1.93,2.08,3.57,3.66,6.08,5.02c2.96,1.61,5.83,2.12,9.07,2.91c2.56,0.63,5.06,1.13,7.72,1.38c1.4,0.13,2-0.03,3.09-0.65c1.16-0.66,7.64-1.09,9.72-2.42c1.12-0.71,1.99-1.6,3.18-2.29c1.33-0.76,3.24-1.8,4.19-2.92c1.39-1.63,3.07-7.71,3.47-8.8c0.39-1.06-0.08-2.06,0.24-3.17c-1.53,1.51-4.38,2.69-6.37,3.66c-1.88,0.91-3.67,1.69-5.83,2.07c-1.86,0.33-2.63,0.52-3.97,1.63c-1.05,0.87-1.98,1.68-3.38,1.82c-2.07,0.2-4.24-0.02-6.32,0c-2.47,0.02-4.97,0.41-7.45,0.52c-2.48,0.1-4.58-0.49-6.85-1.28c-1.19-0.41-2.37-0.84-3.41-1.54c-1.2-0.81-1.6-1.07-3.1-1.43c-1.28-0.31-2.38-0.89-3.33-1.75c-1.16-1.03-2.51-1.79-3.66-2.82C154.98,266.91,154.4,266.03,153.65,265.24"/><path fill="#4f2414" d="M153.15,263.84c3.02,0,5.29-1.68,8.29-1.91c3.31-0.26,6.64-0.3,9.97-0.13c1.98,0.1,3.98,0,5.96,0c1.84,0,3.38,0.6,5.11,0.77c2.92,0.3,6.09-0.01,9.03-0.01c2.11,0,4.22,0.15,6.27,0.53c1.73,0.33,3.74,0.44,5.46,0.9c1.09,0.29,2.86,0.37,3.83,1.02c1.26,0.85,1.47,1.45,3.07,1.65c0.03,1.03-1.77,1.25-2.54,1.61c-1.06,0.49-1.89,1.05-3.05,1.33c-2.19,0.54-4.9,0.57-7.14,0.1c-1.45-0.3-2.6-0.89-4.05-1.02c-1.32-0.11-2.54-0.33-3.85-0.38c-2.9-0.12-5.79,0.72-8.56,0.51c-2.94-0.23-5.81-1-8.78-1.41c-1.59-0.22-3.61-0.35-5.25-0.1c-1.29,0.2-2.41,0.74-3.79,0.62c-2.44-0.22-4.3-1.93-6.66-2.04c-1.09-0.05-2.24,0.77-3.02-0.02C152.98,265.41,151.8,263.54,153.15,263.84"/></g></svg>