<svg id="s53434f96baf00" class="face" xmlns="http://www.w3.org/2000/svg" xmlns:xlink="http://www.w3.org/1999/xlink" x="0px" y="0px" width="357px" height="358px" viewBox="0 0 357 358"><path fill="#f1996b" d="M268.5,189.04c-1.41-1.92-2.86-2.74-4.22-2.91c-3.96-0.47-7.28,4.62-7.28,4.62c2.38-21.04,0-32.96,0-32.96c-16.83-65.56-65.84-69.37-76.8-69.39c-0.71,0.02-1.44,0.04-2.2,0.06c-54,1.42-71.5,44.58-71.5,44.58c-9,12.5-4,61.55-4,61.55c-21-12.95-1.5,45.45-1.5,45.45c5,13.5,8,1,8,1c2.88,12.67,6.63,23.41,10.9,32.53c0.85,44.99,1.74,68.73,1.44,83.43c23.33,0,116.79,0,123.83,0l1.52-85.32c6.58-17.33,7.31-32.14,7.31-32.14c2.5,3,6.5,1.5,6.5,1.5C272.75,234.79,268.5,189.04,268.5,189.04z M255.96,199.92C255.93,200.18,255.94,200.15,255.96,199.92L255.96,199.92z M256.22,197.67c0.03-0.3,0.07-0.64,0.11-1.01C256.29,197.01,256.25,197.35,256.22,197.67z M256.82,192.32c0.06-0.55,0.11-0.99,0.14-1.26C256.91,191.5,256.87,191.92,256.82,192.32z M265.33,190.26c-0.04-0.16-0.09-0.37-0.16-0.62c-0.13-0.5-0.31-1.2-0.54-2.1c0.22,0.86,0.4,1.58,0.54,2.1C265.24,189.9,265.29,190.1,265.33,190.26C265.47,190.79,265.48,190.83,265.33,190.26z"/><path fill="#ec9466" d="M125.25,227.25c4.5-6.5,6.97-8.84,12.65-10c4.87-0.99,13.28-2.45,17.35-5.75c9.63-7.79,13.17-20.35,5.59-28.43c-4.32-4.6-7.03-7.3-13.05-8.81c-4.83-1.22-11.04-2.16-15.05-6.1c-7.84-7.69-11.29-20.73-10.82-31.2c0.41-8.95,9.17-18.79,15.15-24.83c7.04-7.12,15.71-14.12,23.72-20.42c-40.38,8.84-54.04,42.51-54.04,42.51c-9,12.5-4,61.55-4,61.55c-21-12.95-1.5,45.45-1.5,45.45c5,13.5,8,1,8,1c2.89,12.7,6.64,23.46,10.93,32.59c-0.78,38.87,1.32,70.54,1.15,83.21c7.79,0.1,53.6-30.51,61.45-32.32C179.16,318.81,113.75,264.75,125.25,227.25z"/><g class="eyes eyes-16"><path fill="#ffffff" fill-opacity="0.7" d="M152.62,203c-0.51-0.07-1.04-0.14-1.58-0.2c1.09,1.83,0.9,4.22-1.55,6.5c-1.94,1.81-4.52,2.46-6.87,0.9c-1.57-1.04-3.3-3.79-3.32-6.1c-1.66,0.76-3.57,1.83-4.68,3.07c-1.13,1.26-2.88,2.57-3.45,4.15c2.78,0.3,5.44,0.29,8.2,0.02c2.79-0.27,5.86,0.51,8.59-0.17c1.24-0.31,2.62-0.63,3.91-0.85c1.38-0.24,2.5-0.31,3.89-0.52c2.21-0.34,4.48-1.58,6.72-1.83C161.77,204.75,155.25,203.36,152.62,203z"/><path fill="#3d270f" d="M142.63,210.2c2.34,1.56,4.92,0.91,6.87-0.9c2.45-2.28,2.64-4.67,1.55-6.5c-1.87-0.22-3.83-0.38-5.61-0.23c-1.96,0.16-5.57,1.08-5.88,1.42c-0.08,0.04-0.17,0.08-0.25,0.12C139.33,206.4,141.06,209.15,142.63,210.2z"/><path fill="#ffffff" fill-opacity="0.7" d="M224.38,207.13c-1.55-0.67-2.77-1.33-4.12-1.89c-0.07,0.48-0.21,0.97-0.42,1.47c-0.64,1.53-3.93,4.75-5.66,5.14c-4.34,0.98-8.58-5.45-6.93-9.17c-1.98,0.28-4.34,1.49-5.56,2.39c-1.42,1.05-2.42,2.56-3.97,3.47c4.47,4.16,13.07,3.72,18.78,3.72c3.55,0,10.75,0.81,13.96-0.75C228.55,210.05,226.59,208.09,224.38,207.13z"/><path fill="#3d270f" d="M214.18,211.84c1.72-0.39,5.01-3.61,5.66-5.14c0.21-0.5,0.35-0.99,0.42-1.47c-0.7-0.29-1.42-0.56-2.25-0.79c-2.12-0.6-3.36-1.36-5.63-1.56c-2.02-0.18-1.76-0.33-3.81-0.25c-0.4-0.05-0.85-0.02-1.32,0.05C205.6,206.39,209.84,212.82,214.18,211.84z"/></g><g class="eyebrows eyebrows-8"><path fill="#28130e" fill-opacity="0.9" d="M117.11,181.74c3.68-2.79,4.84-7.13,9.1-9.39c4.44-2.35,10.33-1.92,14.9-0.72c5.35,1.4,5.77,4.63,9.6,8.01c3.06,2.7,6.94,4.66,10.23,7.24c-4.69,3.2-16.11-7.27-21.82-8.15c-8.78-1.34-13.18,5.82-21.92,5.44c-0.09-0.85-0.28-2.07-0.08-2.92"/><path fill="#28130e" fill-opacity="0.9" d="M198.11,184.24c11.1-4.78,31.28-20.26,39.9-3c0.96,1.92,4.57,7.27,2.61,8.54c-2.07,1.34-6.75-3.96-8.51-5.04c-6.37-3.91-15.53-1.52-21.64,0.39c-2.89,0.9-12.37,4.73-12.8-0.81c1.17-0.08,2.77-0.34,3.94-0.08"/></g><g class="chin chin-13"><path fill="none" stroke="#ec9466" stroke-miterlimit="10" d="M145.83,318.67c3.2,1.85,5.21,4.94,8.96,6.31 c5.46,1.98,10.93,2.58,16.71,2.85c4.85,0.22,9.91,0.28,14.72-0.63c3.98-0.75,8.5-0.83,12.13-2.54c2.95-1.38,6.4-2.27,9.14-4.16 c1.9-1.31,4-2.83,6-5.17"/></g><g class="hair hair-19"><linearGradient id="hair_53434f96bce42" gradientUnits="userSpaceOnUse" x1="179.6572" y1="175.0048" x2="179.6572" y2="89.4009"><stop offset="0" style="stop-color:#28130e;stop-opacity:0"/><stop offset="0" style="stop-color:#28130e;stop-opacity:0"/><stop offset="0.05" style="stop-color:#28130e;stop-opacity:0.05"/><stop offset="0.1297" style="stop-color:#28130e;stop-opacity:0.1894"/><stop offset="0.1995" style="stop-color:#28130e;stop-opacity:0.2912"/><stop offset="0.2731" style="stop-color:#28130e;stop-opacity:0.3987"/><stop offset="0.3521" style="stop-color:#28130e;stop-opacity:0.514"/><stop offset="0.4388" style="stop-color:#28130e;stop-opacity:0.6405"/><stop offset="0.5391" style="stop-color:#28130e;stop-opacity:0.787"/><stop offset="0.685" style="stop-color:#28130e"/><stop offset="0.7087" style="stop-color:#28130e"/><stop offset="0.8249" style="stop-color:#28130e"/><stop offset="0.9259" style="stop-color:#28130e"/><stop offset="1" style="stop-color:#28130e"/></linearGradient><path fill="url(#hair_53434f96bce42)" fill-opacity="0.4" d="M180.3,89.4c-0.7,0-1.4,0-2.2,0.1c-54,1.4-71.5,44.6-71.5,44.6c-4.9,6.9-5.7,24.7-5.3,39.5l9.9,1.5c0,0,6.7-14.3,8.5-16.1c1.8-1.8,3.8-26.6,3.8-26.6s12-13.2,36.8-14.9c0,0,16.4-3.8,25.4-3.8c0,0,15.8,2.9,26.6,6.7c0,0,16.1,6.4,17,6.7c0.9,0.3,8.5,7,8.5,7l2,20.8l7,13.4l5,6.7l6.2-6.2c-0.3-6.5-1-10-1-10C240.3,93.2,191.3,89.4,180.3,89.4z"/></g><g class="nose nose-20"><path fill="#e78f61" d="M186.01,198.89c-0.17,1.53-0.26,3.95-0.49,5.46c-0.58,3.86,0.9,6.29,0.88,10.24 c-0.02,6.65,6.48,12.91,4.38,19.46c-5.2-0.71-6.56-12.33-6.95-16.23c-0.33-3.31-1.14-7.11-1.01-10.49 c0.11-2.91,1.43-6.24,2.54-9.75C185.35,197.6,186.24,196.78,186.01,198.89z"/><path fill="#bf6739" d="M168.667,245.833c1.813-0.615,3.275-1.156,4.893,0.341c-0.929-0.034-1.796-0.176-2.724-0.174c-0.814,0.001-1.568,0.276-2.323,0.237c-0.093-0.426,0.335-0.781,0.654-0.654"/><path fill="#bf6739" d="M187.566,245.909c0.198-0.012,4.207-1.517,3.951-0.287c-0.004,0.021-3.761,0.962-3.977,0.884c-0.025-0.281,0.069-0.56,0.26-0.785"/><path fill="none" stroke="#e28a5c" stroke-miterlimit="10" d="M162.75,239.999c-0.667,1.333-0.752,3.591-0.083,4.5c0.654,0.889,1.909,0.885,2.815,1.463c1.586,1.012,3.246,1.271,5.083,1.371c0.841,0.046,1.843-0.048,2.686,0.098c1.557,0.269,2.839,1.36,4.413,1.571c1.678,0.224,3.916,0.613,5.583,0.085c0.862-0.273,1.091-0.951,1.768-1.561c1.087-0.978,2.329-0.859,3.747-0.946c2.6-0.159,4.557-0.347,6.26-2.476c1.32-1.65,0.804-3.859-0.188-5.502"/></g><g class="mouth mouth-8"><path fill="#060F10" d="M154.8,264.86c-0.22-0.05,0.18-0.66-0.04-0.64c-0.95,2.17,0.27,4.09,1.66,5.61c1.87,2.04,3.57,4.59,5.97,5.96c2.64,1.51,5.3,3.53,8.19,4.37c1.21,0.35,2.09,0.52,3.13,1.14c0.91,0.54,1.51,1.01,2.65,1.28c2.26,0.53,4.1-0.04,6.24-0.77c1.34-0.46,2.45-0.44,3.83-0.51c1.72-0.09,3.29-0.79,4.94-1.27c1.96-0.58,3.8-1.64,5.22-3.06c0.46-0.47,0.63-1.12,1.17-1.54c0.61-0.48,1.52-0.65,2.17-1.15c0.86-0.66,1.52-1.71,2.35-2.45c0.83-0.74,1.92-1.29,2.49-2.27c0.88-1.5-0.58-2-1.95-2.49c-2.03-0.72-4.45-1.69-6.56-1.98c-1.49-0.2-2.9-0.02-4.34-0.41c-2.67-0.72-5.6-0.35-8.42-0.48c-2.06-0.1-4.11-1.24-6.11-1.82c-3.44-1-5.92-0.15-8.7,1.66c-2.79,1.82-6.12,1.18-9.3,1.18c-1.49,0-3.39-0.32-4.63-1.02"/><path fill="#EFE2C9" d="M165.52,275.32c1.15-0.56,2.05-1.13,3.42-1.28c1.16-0.12,2.22,0.29,3.32,0.25c1.08-0.03,1.83-0.59,2.74-0.54c1.31,0.07,2.73,0.03,4.05-0.1c1.2-0.12,1.79,0.26,2.93,0.39c1.34,0.15,2.43-0.35,3.71-0.38c2.12-0.05,4.35,0.73,6.38,0.89c1.7,0.14,3.54-0.29,5.21-0.11c0.1,1.01-4.12,1.57-5.06,2.09c-2.19,1.2-3.21,1.96-5.63,2.22c-1.47,0.15-2.83,0.59-4.43,0.53c-1.55-0.07-3.09-0.13-4.65-0.13c-1.4,0-3.3,0.29-4.68,0c-1.12-0.24-2.46-1.02-3.5-1.51c-1.55-0.73-2.61-1.77-3.79-2.96"/><path fill="#EFE2C9" d="M161.31,267.67c0.02,1.05-0.46,1.9,0.02,2.94c0.35,0.77,1.14,1.39,1.73,2.03c1.32,1.43,4.16,0.77,6.13,0.77c1,0,1.93-0.12,2.74-0.04c1.32,0.13,2.74,0.67,4.18,0.42c1.02-0.18,2.04-0.81,3.2-0.52c1.24,0.31,1.61,0.72,2.93,0.52c2.12-0.32,4.3-0.33,6.38-0.13c1.47,0.14,3.39,0.4,4.72-0.01c0.45-0.14,0.83-0.42,1.28-0.51c0.61-0.12,1.22,0.1,1.79-0.12c1.33-0.51,3.85-2.58,2.9-4.21c-0.97-1.68-4.46-2.09-6.07-2.3c-2.26-0.3-4.41-1.11-6.68-1.4c-1.67-0.21-3.59,0.24-5.22-0.13c-0.55-0.13-0.82-0.52-1.27-0.77c-3.74-2.1-7.39-1.69-11.27-0.92c-1.64,0.32-3.31,1.49-4.84,2.29c-0.96,0.51-2.34,1.4-2.9,2.33"/><path fill="#dd8557" fill-opacity="1" d="M153.65,265.24c0.83,1.83,1.32,4.01,2.57,5.62c0.65,0.84,1.61,1.55,2.37,2.32c1.46,1.49,2.74,3.03,4.15,4.54c1.93,2.08,3.57,3.66,6.08,5.02c2.96,1.61,5.83,2.12,9.07,2.91c2.56,0.63,5.06,1.13,7.72,1.38c1.4,0.13,2-0.03,3.09-0.65c1.16-0.66,7.64-1.09,9.72-2.42c1.12-0.71,1.99-1.6,3.18-2.29c1.33-0.76,3.24-1.8,4.19-2.92c1.39-1.63,3.07-7.71,3.47-8.8c0.39-1.06-0.08-2.06,0.24-3.17c-1.53,1.51-4.38,2.69-6.37,3.66c-1.88,0.91-3.67,1.69-5.83,2.07c-1.86,0.33-2.63,0.52-3.97,1.63c-1.05,0.87-1.98,1.68-3.38,1.82c-2.07,0.2-4.24-0.02-6.32,0c-2.47,0.02-4.97,0.41-7.45,0.52c-2.48,0.1-4.58-0.49-6.85-1.28c-1.19-0.41-2.37-0.84-3.41-1.54c-1.2-0.81-1.6-1.07-3.1-1.43c-1.28-0.31-2.38-0.89-3.33-1.75c-1.16-1.03-2.51-1.79-3.66-2.82C154.98,266.91,154.4,266.03,153.65,265.24"/><path fill="#e78f61" d="M153.15,263.84c3.02,0,5.29-1.68,8.29-1.91c3.31-0.26,6.64-0.3,9.97-0.13c1.98,0.1,3.98,0,5.96,0c1.84,0,3.38,0.6,5.11,0.77c2.92,0.3,6.09-0.01,9.03-0.01c2.11,0,4.22,0.15,6.27,0.53c1.73,0.33,3.74,0.44,5.46,0.9c1.09,0.29,2.86,0.37,3.83,1.02c1.26,0.85,1.47,1.45,3.07,1.65c0.03,1.03-1.77,1.25-2.54,1.61c-1.06,0.49-1.89,1.05-3.05,1.33c-2.19,0.54-4.9,0.57-7.14,0.1c-1.45-0.3-2.6-0.89-4.05-1.02c-1.32-0.11-2.54-0.33-3.85-0.38c-2.9-0.12-5.79,0.72-8.56,0.51c-2.94-0.23-5.81-1-8.78-1.41c-1.59-0.22-3.61-0.35-5.25-0.1c-1.29,0.2-2.41,0.74-3.79,0.62c-2.44-0.22-4.3-1.93-6.66-2.04c-1.09-0.05-2.24,0.77-3.02-0.02C152.98,265.41,151.8,263.54,153.15,263.84"/></g></svg>