<svg id="s539e7850cedb9" class="face" xmlns="http://www.w3.org/2000/svg" xmlns:xlink="http://www.w3.org/1999/xlink" x="0px" y="0px" width="357px" height="358px" viewBox="0 0 357 358"><path fill="#573d2c" d="M268.5,189.04c-1.41-1.92-2.86-2.74-4.22-2.91c-3.96-0.47-7.28,4.62-7.28,4.62c2.38-21.04,0-32.96,0-32.96c-16.83-65.56-65.84-69.37-76.8-69.39c-0.71,0.02-1.44,0.04-2.2,0.06c-54,1.42-71.5,44.58-71.5,44.58c-9,12.5-4,61.55-4,61.55c-21-12.95-1.5,45.45-1.5,45.45c5,13.5,8,1,8,1c2.88,12.67,6.63,23.41,10.9,32.53c0.85,44.99,1.74,68.73,1.44,83.43c23.33,0,116.79,0,123.83,0l1.52-85.32c6.58-17.33,7.31-32.14,7.31-32.14c2.5,3,6.5,1.5,6.5,1.5C272.75,234.79,268.5,189.04,268.5,189.04z M255.96,199.92C255.93,200.18,255.94,200.15,255.96,199.92L255.96,199.92z M256.22,197.67c0.03-0.3,0.07-0.64,0.11-1.01C256.29,197.01,256.25,197.35,256.22,197.67z M256.82,192.32c0.06-0.55,0.11-0.99,0.14-1.26C256.91,191.5,256.87,191.92,256.82,192.32z M265.33,190.26c-0.04-0.16-0.09-0.37-0.16-0.62c-0.13-0.5-0.31-1.2-0.54-2.1c0.22,0.86,0.4,1.58,0.54,2.1C265.24,189.9,265.29,190.1,265.33,190.26C265.47,190.79,265.48,190.83,265.33,190.26z"/><path fill="#523827" d="M125.25,227.25c4.5-6.5,6.97-8.84,12.65-10c4.87-0.99,13.28-2.45,17.35-5.75c9.63-7.79,13.17-20.35,5.59-28.43c-4.32-4.6-7.03-7.3-13.05-8.81c-4.83-1.22-11.04-2.16-15.05-6.1c-7.84-7.69-11.29-20.73-10.82-31.2c0.41-8.95,9.17-18.79,15.15-24.83c7.04-7.12,15.71-14.12,23.72-20.42c-40.38,8.84-54.04,42.51-54.04,42.51c-9,12.5-4,61.55-4,61.55c-21-12.95-1.5,45.45-1.5,45.45c5,13.5,8,1,8,1c2.89,12.7,6.64,23.46,10.93,32.59c-0.78,38.87,1.32,70.54,1.15,83.21c7.79,0.1,53.6-30.51,61.45-32.32C179.16,318.81,113.75,264.75,125.25,227.25z"/><g class="eyes eyes-4"><path fill="#ffffff" fill-opacity="0.7" d="M124,205.83c2.64-0.81,5.24-3.03,7.68-4.38c3.14-1.73,6.83-2.29,10.41-2.63c2.53-0.23,3.64,0.09,6.08,0.45c1.82,0.27,6.05,1.44,7.12,3.18c-2.39,1.48-5.34,1.84-7.91,2.38c-2.49,0.52-4.62,1.37-7.12,2.06c-5.28,1.45-11.37,1.34-16.42-0.9"/><path fill="#ffffff" fill-opacity="0.7" d="M203.17,200.5c4.6-5.53,11.99-5.66,18.33-4c2.39,0.63,4.77,1.1,7.04,2.17c2.36,1.11,4.1,3.26,6.75,3.66c-1.69,0.26-3.22,1.19-4.95,1.34c-1.29,0.11-2.51-0.23-3.82-0.17c-2.98,0.14-5.7,0.71-8.63,0.16c-2.79-0.53-5.67-1.12-8.38-1.66C207.45,201.59,204.7,202.07,203.17,200.5"/><path fill="#4f2a1a" d="M134.51,201.43c-1.55,0.78,1.05,3.78,1.89,4.38c1.36,0.98,4.15,1.44,5.81,0.75c1.58-0.65,2.89-2.5,2.97-3.88c0.09-1.58-2-3.01-3.79-3.3c-2.82-0.46-5.05,0.62-6.87,2.14"/><path fill="#4f2a1a" d="M214.62,200.98c0.98,0.92,6.99,3.54,8.66,2.56c1.51-0.89,3.08-1.38,2.8-3.41c-0.25-1.84-1.93-3.13-3.59-3.37c-1.82-0.26-4.3-1.41-6.16-1.04C216.33,195.71,212.62,199.09,214.62,200.98z"/></g><g class="eyebrows eyebrows-11"><path fill="#0e0e0c" fill-opacity="1" d="M110.5,195.67c0.83-3.17,4.41-7.04,6.63-9.37c1.53-1.6,3.78-2.51,5.37-4.13c1.43-1.47,2.82-2.57,4.47-3.79c5.14-3.83,11.26-2.4,17.14-3.54c4.69-0.91,10.05-0.3,14.18,1.93c3.42,1.85,5.55,2.89,5.68,6.88c-4.4,2.82-9.13,3.71-14.54,3.7c-2.54-0.01-4.64,0.38-6.96-0.45c-1.98-0.71-3.92-0.82-5.93-1.19c-2.14-0.4-4.47-1.46-6.67-1.2c-2.21,0.26-4.48,1.67-6.53,2.49c-3.84,1.54-6.55,4.22-10.13,6.35c-1.48,0.89-2.34,1.86-3.54,3"/><path fill="#0e0e0c" fill-opacity="1" d="M202,173c-4.71-0.38-9.26,3.05-12,6.5c-0.87,1.1-2.36,2.65-2.17,4.17c0.25,2.06,2.59,2.9,4.34,3c4.75,0.27,8.63-3.17,13.49-3.17c1.64,0,3.2,0.11,4.8,0.17c1.86,0.06,3.39-0.55,5.16-0.84c2.42-0.4,4.45-1.15,6.89-1.66c3.33-0.7,5.03,0.07,7.97,1.68c1.99,1.09,4.5,2.26,6.17,3.83c1.73,1.62,2.01,2.64,4.5,1.96c-0.09-1.35-2.05-3.33-2.85-4.47c-0.81-1.15-1.86-2.13-2.75-3.22c-2.31-2.82-4.34-5.22-7.88-6.47c-4.55-1.61-8.23-1.4-13.03-1.11c-3.87,0.23-8.11-1.4-11.96-0.72c-0.62,0.11-1.2,0.56-1.84,0.68"/></g><g class="hair hair-9"><linearGradient id="hair_1_539e7850cfd9d" gradientUnits="userSpaceOnUse" x1="307.1953" y1="-68.4199" x2="307.1953" y2="53.5893" gradientTransform="matrix(1 0 0 -1 -127.5 142)"><stop offset="0" style="stop-color:#573d2c;stop-opacity:0"/><stop offset="0" style="stop-color:#523827;stop-opacity:0.4462"/><stop offset="0.7312" style="stop-color:#0e0e0c"/></linearGradient><path fill="url(#hair_1_539e7850cfd9d)" fill-opacity="0.2" d="M257.11,157.8c-16.83-65.56-65.84-69.37-76.8-69.39c-0.71,0.02-1.44,0.04-2.2,0.06c-54,1.42-71.5,44.58-71.5,44.58c-9,12.5-4,61.55-4,61.55c-0.25-0.16,0.29,2.82,1.54,6.25c0.94-5.79,3.01-11.4,4.53-17.68c0.24-1,0.7-1.78,1.28-2.35c0.63-2.66,1.48-5.25,2.57-7.72c0.05-0.69,0.25-1.4,0.65-2.13c0.25-0.46,0.53-0.9,0.81-1.33c0.21-0.57,0.52-1.14,0.97-1.68c0.38-0.45,0.71-0.93,1.03-1.43c0.93-3.59,2.52-4.24,4.31-5.24c1.24-1.62,2.61-3.1,4.21-4.33c0.16-0.3,0.32-0.62,0.48-0.97c2.13-4.67-5.28-21.74-1.5-26c5.19-2.78,18.5-11,36-15c2.26-0.11,4.45-0.21,6.59-0.3c8.34-1.6,17.04-2.13,25.11-0.61c3.89,0.17,7.74,0.59,11.55,1.25c3.28,0.41,6.51,0.95,9.75,1.66c5.12,2.52,17.5,5.21,21,9.5c3.91,4.79,0.82,26.41,2.5,32.5c0.16,0.58,0.4,1.11,0.69,1.6c2.14,1.63,4.15,3.44,6.03,5.41c1.49,1.11,2.85,2.29,3.64,3.84c0-0.07,0.06,0.03,0.19,0.39c0.06,0.13,0.11,0.27,0.16,0.41c4.36,5.65,7.85,12.17,10.53,19.02C259.4,169.31,257.11,157.8,257.11,157.8z"/></g><g class="facial-hair facial-hair-9"><linearGradient id="hair_539e7850d0d0b" gradientUnits="userSpaceOnUse" x1="179.4951" y1="327.8145" x2="179.4951" y2="212.9385">
<stop offset="0" style="stop-color:#0e0e0c"/><stop offset="0.0991" style="stop-color:#0e0e0c;stop-opacity:0.8972"/><stop offset="0.2186" style="stop-color:#0e0e0c;stop-opacity:0.7734"/><stop offset="0.3486" style="stop-color:#0e0e0c;stop-opacity:0.6386"/><stop offset="0.4861" style="stop-color:#0e0e0c;stop-opacity:0.4962"/><stop offset="0.6295" style="stop-color:#0e0e0c;stop-opacity:0.3475"/><stop offset="0.7757" style="stop-color:#0e0e0c;stop-opacity:0.1959"/><stop offset="0.8172" style="stop-color:#4d3322;stop-opacity:0.1529"/><stop offset="1" style="stop-color:#573d2c;stop-opacity:0"/></linearGradient><path fill="url(#hair_539e7850d0d0b)" fill-opacity="1" d="M253.475,238.922c-0.248,0.734-0.563-21.222,0.037-25.983c-0.458,3.271-2.027,3.896-3.517,6.691c-1.771,3.324-0.856,7.432-1.028,11.112c-0.548-0.679-1.282-1.188-2.051-1.371c-0.684,1.429-0.995,3.759-2.86,3.634c-0.902,2.699-1.339,5.781-2.501,8.21c-0.057-0.096-0.135-0.165-0.235-0.207c-0.569,1.728-1.978,3.24-3.001,4.728c-0.464,0.675-0.994,1.256-1.381,1.951c-0.402,0.721-1.471,2.034-1.65,2.426c-2.202,4.785,0.148,12.418-5.307,15.609c-0.355-0.448-0.848-0.462-1.134-0.718c-0.568,1.065-1.352,2.846-2.324,3.529c0.151-0.106-1.959,0.759-1.646,0.437c-1.624,1.67-2.27,4.768-3.703,6.898c-0.286-0.07-0.679-0.058-0.935-0.13c-0.536,1.34-0.681,2.875-1.47,4.068c-0.596-0.34-1.187-0.105-1.726-0.261c-0.142,0.273-0.363,0.54-0.494,0.806c-0.271-0.902-0.639-1.983-1.506-2.324c-0.188,1.166-0.497,2.418-1.099,3.451c-2.163-2.139,0.89-6.81-1.444-9.893c-0.019-0.101,0.102-2.257-0.583-3.917c-0.167-4-2.783-9.483-3.606-10.977c-0.71-1.289-2.677-1.011-4.061-1.427c-0.608-0.182-2.146-0.73-2.806-1.075c-1.174-0.614-1.782-2-2.702-2.424c-1.732-0.8-5.921,1.803-6.798-0.739c-2.209-0.416-4.175,1.513-5.988,1.724c-2.056,0.24-3.239,0.208-5.705,1.007c-0.776,0.251-2.584,0.686-3.037,0.599c-1.54-0.296-1.71-1.685-3.69-1.376c-0.825,0.129-1.729,1.482-2.506,1.325c-0.751-0.152-0.703-1.73-1.477-2.009c-1.224-0.441-3.968,1.566-4.888,2.084c-0.208-0.742-0.801-1.502-1.068-2.221c-1.404,0.447-2.5,2.138-3.828,2.543c-0.713,0.217-0.862-0.584-1.5-0.459c-1.314,0.257-2.877,0.626-3.075,2.277c-0.078-0.22-0.535-0.763-0.633-1.018c-0.741,1.497-1.679,3.794-2.799,5.001h0.5c-0.356,0.241-0.849,0.095-1.194,0.481c-0.18-0.471-0.633-0.716-0.806-1.017c-3.719,2.418-2.266,4.921-1.416,7.702c1.359,4.45-1.13,6.295,0.5,11c-0.242-0.749-0.402,1.186-0.809,0.548c0.123,2.088-0.373,6.261-1.269,8.137c-1.368-2.909-2.388-5.486-3.298-8.424c-0.52-1.676-2.16-6.898-4.213-6.416c-1.134-2.609-2.193-4.721-3.938-6.775c-0.207,0.268-0.592,0.549-0.752,0.761c-2.732-4.213-3.764-8.046-5.392-12.767c-0.209,0.381-0.928,0.834-1.169,1.267c-1.582-1.25-0.897-4.643-3.022-5.534c-0.22,0.39-0.551,0.67-0.688,1.126c0.942-3.189,0.476-5.153-0.301-8.433c-0.547-2.309-0.701-5.607-2.193-7.453c-0.132,0.221-0.147,0.508-0.282,0.72c-1.216-2.115-2.047-5.234-4.209-6.601c-0.288,0.287-0.757,0.467-0.995,0.708c-0.933-3.588-3.762-6.536-5.289-9.861c-1.324-2.884-2.313-5.36-5.469-6.382c-1.162,2.158-0.708,5.896-0.238,8.206c0.499,2.456,0.362,5.08,0.944,7.493c0.924,3.833,2.372,13.055,2.372,13.055c2.883,12.671,6.626,23.409,10.895,32.526c0.023,1.24,6.954,15.807,8.677,18.194c3.164,4.383,7.462,7.922,11.043,11.969c2.271,2.566,4.113,5.554,6.75,7.769c2.924,2.455,4.641,3.637,7.512,6.332c2.305,2.164,6.117,3.282,8.837,4.917c3.514,2.112,5.868,1.601,9.829,2.918c4.341,1.443,9.017,1.189,13.667,1c2.812-0.115,8.65-0.407,11.334-1.333c3.885-1.341,5.984-0.376,9.935-1.286c7.441-1.714,12.045-6.735,17.065-12.381c9.106-10.238,13.471-23.431,19.638-35.26c1.191-2.285,2.274-4.656,3.359-7.042C253.455,254.054,254.131,239.332,253.475,238.922z M209.536,280.342c-0.672,3.223-0.595,8.081-4.993,9.465c-0.692-0.553-1.473-0.002-2.226-0.333c-0.513-0.226-0.764-1.073-1.296-1.324c-0.526-0.249-1.762,0.105-2.325,0.024c-1.397-0.201-2.24-0.799-3.195-1.718c-0.601-0.578-1.291-1.332-1.695-1.933c-0.421-0.128-1.031-0.032-1.416-0.18c-0.368-0.141-1.328-0.696-1.668-0.71c-0.695-0.029-1.208,0.667-1.876,0.687c-0.85,0.025-1.463-0.614-2.313-0.825c-0.991-0.246-3.207-0.344-4.207-0.301c-2.507,0.108-5.044,1.43-7.655,1.643c-2.299,0.188-3.094,1.236-5.073,2.095c-3.248,1.409-6.824,1.8-10.07,2.989c-1.668,0.611-4.404,0.526-5.996-1.086c-1.858-1.884-1.328-6.413-1.682-8.833c0.159,0.099,0.441,0.188,0.634,0.294c0.38-1.738-1.2-2.979-1.334-4.622c-0.11-1.335,1.02-2.894,0.872-4.336c0.193,0.257,0.763,0.602,0.99,0.951c-0.031-1.729,0.689-2.979,0.655-4.624v-0.333c0.957-0.221,1.396-0.683,2.467,0.358c0.933-1.169,5.633-4.419,6.853-2.034c2.194-0.919,4.844-1.707,7.34-1.495c1.318,0.112,0.918,0.653,2.454,0.106c0.953-0.339,1.929-1.545,2.923-1.731c0.869-0.163,1.208,0.253,1.979,0.384c1.14,0.194,2.058-0.279,3.32-0.259c1.056,0.018,1.85,0.879,2.91,0.819c0.87-0.049,3.533-0.922,4.287-1.326c0.496,0.813,2.675,1.501,3.573,1.644c0.663,0.105,1.404-0.218,2.021-0.175c0.526,0.037,0.963,0.327,1.581,0.35c0.692,0.025,1.398-0.403,2.094-0.352c0.264,0.019,0.567,0.491,0.866,0.523c0.613,0.065,1.307,0.093,1.802,0.142c0.696,0.069,2.21,1.011,3.198,0.266c0.399,0.76,0.999,0.754,1.524,1.425c0.821-0.618,2.082-0.192,2.675-1.136c1.52,0.378,0.899,6.831,1.501,8.507C209.753,275.341,210.02,278.027,209.536,280.342z"/></g><g class="nose nose-17"><path fill="#4d3322" d="M186.01,198.89c-0.17,1.53-0.26,3.95-0.49,5.46c-0.58,3.86,0.9,6.29,0.88,10.24 c-0.02,6.65,6.48,12.91,4.38,19.46c-5.2-0.71-6.56-12.33-6.95-16.23c-0.33-3.31-1.14-7.11-1.01-10.49 c0.11-2.91,1.43-6.24,2.54-9.75C185.35,197.6,186.24,196.78,186.01,198.89z"/><path fill="#250b00" d="M169.13,243.5c-1.2-0.13-2.39-0.76-3.62-0.62c-1.02,0.11-1.65,0.67-2.53,1.15c-1.83,1.01-4.11,3.85-0.39,3.01c2.33-0.52,4.93-0.37,7.19-1.01c2.82-0.79,0.12-2.27-1.41-2.41"/><path fill="#250b00" d="M189.13,243.38c-1.01,0.23-4.93,1.23-4.49,2.34c0.49,1.22,4.62,1.45,5.86,1.51c4.41,0.22,0.55-3.61-1.75-3.72"/><path fill="none" stroke="#482e1d" stroke-miterlimit="10" d="M194.2,234.86c3.32,1.47,5.54,5.68,5.64,9.12c0.1,3.45-3.07,5.8-6.25,6.33c-3.98,0.66-7.51-2.29-11.21-1.35c-3.01,0.76-5.59,2.47-8.75,0.92c-3.09-1.51-3.37,0.06-6.7,0.89c-1.87,0.46-8.16-0.15-9.8-1.66c-2.74-2.53,0-4.85-0.28-6.4"/></g><g class="mouth mouth-9"><path fill="#151111" d="M152.27,272.06c2.41,1.94,4.48,4.09,6.67,6.21c0.7,0.68,1.36,0.97,2.3,1.26c2.91,0.9,6.01,0.96,8.94,1.87c2.21,0.69,4.41,1.53,6.61,2.1c5.6,1.47,12.66,1.42,18.18-0.53c0.72-0.26,1.63-0.32,2.27-0.62c0.9-0.42,1.5-1.25,2.44-1.68c1.68-0.76,2.76-1.64,3.97-3c1.12-1.26,2.87-3.23,2.94-5.02c-2.91,0.45-6.06,1.07-8.96,0.46c-3.38-0.7-6.83-1.47-10.12-2.4c-2.71-0.76-5.58-0.68-8.34-1.29c-2.23-0.5-4.58-0.55-6.86-1.12c-4.81-1.19-9.79-1.94-14.36,0.07c-1.27,0.56-2.68,0.62-3.67,1.56c-0.52,0.5-0.92,1.25-1.34,1.87"/><path fill="#8E4531" d="M159.87,271.92c0,0.93-0.26,2.42,0.1,3.23c0.81,1.8,4.15,2.11,5.72,2.49c4.33,1.03,9.69,0.55,14.11,0.16c1.59-0.14,3.11-0.7,4.67-0.95c1.7-0.27,3.43-0.04,5.12-0.28c1.22-0.18,2.44-1.01,3.66-0.52c1.05,0.43,1.44,1.16,2.77,1.21c1.32,0.04,2.24-0.46,3.33-0.93c0.74-0.32,2.06-0.56,2.45-1.43c0.8-1.82-2.15-2.33-3.36-2.71c-1.94-0.61-3.71-1.32-5.6-2c-3.9-1.4-7.42-1.09-11.37-0.4c-4.88,0.85-9.06,1.26-14.02,0.42c-2.86-0.49-5.7-0.01-7.58,1.98"/><path fill="#F7F2E8" d="M159.87,274.86c0.01,1.4,0.09,2.12,1.44,2.84c0.43,0.23,0.99,0.14,1.37,0.36c0.52,0.29,0.76,0.92,1.32,1.21c0.93,0.48,2.15,0.24,3.18,0.56c1.35,0.43,1.9,0.17,3.24,0.23c0.84,0.04,2.21,0.34,3.07,0.54c0.96,0.22,1.77,0.78,2.7,1.04c2.21,0.6,4.07,0.91,6.14,0.6c1.26-0.19,2.58,0.14,3.84,0.1c1.05-0.03,1.72-0.46,2.67-0.8c0.9-0.32,1.76-0.28,2.67-0.51c0.93-0.24,1.27-0.9,2.14-1.24c0.84-0.32,1.88-0.11,2.78-0.43c0.67-0.25,1.3-0.55,1.99-0.79c1.2-0.42,3.25-1.53,3.62-2.73c-1.46-0.59-3.11-0.63-4.55,0.07c-1.14,0.55-0.54,0.55-1.7,0.13c-0.87-0.31-1.39-0.58-2.13,0.32c-0.78-0.74-1.93-1.97-3.08-1.89c-0.5,0.03-0.81,0.55-1.23,0.64c-0.89,0.19-0.87-0.18-1.85-0.55c-1.03-0.39-2.67-0.51-3.72-0.23c-0.63,0.17-0.78,0.43-1.3,0.7c-0.28,0.14-0.12,0.58-0.48,0.66c-0.4,0.09-1.36-0.56-1.76-0.72c-1.21-0.5-2.73-0.9-4.07-0.77c-1.15,0.11-1.78,1.29-2.67,1.2c-0.96-0.09-2.11-1.58-3.34-1.22c-0.51,0.15-0.68,0.84-1.2,0.95c-0.38,0.08-1.17-0.41-1.73-0.41c-0.99,0.01-1.49,0.58-2.3,0.9c-0.86,0.34-0.62,0.3-1.61,0.07c-0.97-0.23-2.9-0.05-3.57-0.7"/><path fill="#432918" fill-opacity="1" d="M152.94,274.73c1.54,2.02,2.45,4.46,4.14,6.41c1.51,1.75,3.25,3.27,4.57,5.2c1.25,1.82,2.15,2.55,3.7,4.14c2.1,2.16,4.84,2.95,7.74,3.34c1.34,0.18,3.03-0.14,4.4,0c1.91,0.19,3.52,0.77,5.34,0.27c2.4-0.66,3.96,0.58,6.4,0.27c1.15-0.15,2.39-0.28,3.47-0.67c1.22-0.43,1.97-1.25,3.03-1.88c1.24-0.74,2.43-1.22,3.58-2.13c2.08-1.67,3.96-3.28,5.3-5.56c0.58-1,0.74-2.22,1.27-3.23c0.6-1.15,1.2-1.78,1.53-3.05c0.4-1.53,1.01-3.82-0.39-5.09c-1.16,2.88-5.57,3.51-7.83,5.32c-1.53,1.22-3.58,1.44-5.38,1.98c-1.41,0.42-2.98,1.01-4.47,1.21c-3.25,0.44-6.76,0.16-9.98-0.11c-1.74-0.15-3.48-0.46-5.2-0.63c-1.99-0.2-4.37,0.29-6.28-0.19c-1.43-0.36-2.84-1.21-4.13-1.84c-1.86-0.9-3.86-1.53-5.76-2.41c-2.36-1.09-4.98-2.72-6.81-4.61c0.93,0.85,0.75,1.94,1.24,2.88c0.41,0.77,1.14,1.05,1.44,1.87"/><path fill="#4d3322" d="M150,270.99c0.4-1.38,2.68-2.26,3.91-2.8c2.1-0.93,4.26-1.72,6.53-2.24c2.26-0.52,4.16-0.98,6.21-1.93c1.58-0.73,3.14-1.71,4.96-1.57c1.58,0.12,2.4,1.24,3.95,1.47c1.44,0.22,3.14,0.3,4.5-0.01c3.25-0.75,7.57-1.96,10.86-1.03c3.62,1.02,6.77,3.97,10.11,5.75c1.51,0.81,3.04,1.42,4.6,1.96c1.18,0.41,2.34,1.47,3.58,1.75c0.32,1.19,0.7,1.6-0.37,2.38c-0.97,0.71-2.5,0.94-3.6,1.33c-1.16,0.41-2.13,0.81-3.45,0.51c-1.28-0.29-3.19-0.48-4.54-0.93c-0.88-0.3-1.65-1.13-2.56-1.45c-1.18-0.41-2.5-0.11-3.74-0.29c-1.39-0.2-2.75-0.46-4.15-0.66c-0.88-0.13-2.21-0.52-3.13-0.22c-0.5,0.17-1.01,0.79-1.52,1.02c-1.07,0.48-2.63,0.89-3.77,1.19c-1.45,0.37-2.55-0.29-3.97-0.76c-2.91-0.96-6.58-1.51-9.74-1.21c-1.34,0.13-2.2,0.87-3.61,0.94c-1.69,0.08-3.42-0.38-5.07-0.71c-1.11-0.22-2.06-0.44-3.1-0.87c-1.05-0.43-1.61-1.05-2.51-1.63"/></g></svg>