<svg id="s588d278886ec6" class="face" xmlns="http://www.w3.org/2000/svg" xmlns:xlink="http://www.w3.org/1999/xlink" x="0px" y="0px" width="357px" height="358px" viewBox="0 0 357 358"><path fill="#b47853" d="M268.5,189.04c-1.41-1.92-2.86-2.74-4.22-2.91c-3.96-0.47-7.28,4.62-7.28,4.62c2.38-21.04,0-32.96,0-32.96c-16.83-65.56-65.84-69.37-76.8-69.39c-0.71,0.02-1.44,0.04-2.2,0.06c-54,1.42-71.5,44.58-71.5,44.58c-9,12.5-4,61.55-4,61.55c-21-12.95-1.5,45.45-1.5,45.45c5,13.5,8,1,8,1c2.88,12.67,6.63,23.41,10.9,32.53c0.85,44.99,1.74,68.73,1.44,83.43c23.33,0,116.79,0,123.83,0l1.52-85.32c6.58-17.33,7.31-32.14,7.31-32.14c2.5,3,6.5,1.5,6.5,1.5C272.75,234.79,268.5,189.04,268.5,189.04z M255.96,199.92C255.93,200.18,255.94,200.15,255.96,199.92L255.96,199.92z M256.22,197.67c0.03-0.3,0.07-0.64,0.11-1.01C256.29,197.01,256.25,197.35,256.22,197.67z M256.82,192.32c0.06-0.55,0.11-0.99,0.14-1.26C256.91,191.5,256.87,191.92,256.82,192.32z M265.33,190.26c-0.04-0.16-0.09-0.37-0.16-0.62c-0.13-0.5-0.31-1.2-0.54-2.1c0.22,0.86,0.4,1.58,0.54,2.1C265.24,189.9,265.29,190.1,265.33,190.26C265.47,190.79,265.48,190.83,265.33,190.26z"/><path fill="#af734e" d="M125.25,227.25c4.5-6.5,6.97-8.84,12.65-10c4.87-0.99,13.28-2.45,17.35-5.75c9.63-7.79,13.17-20.35,5.59-28.43c-4.32-4.6-7.03-7.3-13.05-8.81c-4.83-1.22-11.04-2.16-15.05-6.1c-7.84-7.69-11.29-20.73-10.82-31.2c0.41-8.95,9.17-18.79,15.15-24.83c7.04-7.12,15.71-14.12,23.72-20.42c-40.38,8.84-54.04,42.51-54.04,42.51c-9,12.5-4,61.55-4,61.55c-21-12.95-1.5,45.45-1.5,45.45c5,13.5,8,1,8,1c2.89,12.7,6.64,23.46,10.93,32.59c-0.78,38.87,1.32,70.54,1.15,83.21c7.79,0.1,53.6-30.51,61.45-32.32C179.16,318.81,113.75,264.75,125.25,227.25z"/><g class="eyes eyes-3"><path fill="#ffffff" fill-opacity="0.7" d="M136.17,206.83c0.17-0.12,0.31-0.25,0.45-0.39c-0.1-0.04-0.19-0.07-0.29-0.11L136.17,206.83z"/><path fill="#ffffff" fill-opacity="0.7" d="M156.3,202.04c-3.05-1.28-6.51-2.11-9.67-1.31c-1.75,0.45-4.23,1.34-5.79,2.3c-0.91,0.56-1.95,1.16-2.7,1.76c-0.59,0.47-0.98,1.11-1.51,1.65c4.33,1.68,8.73,2.56,13.55,2.56c4.9,0,8.24-3.37,13.12-3.67C161.06,205.7,158.31,202.89,156.3,202.04z"/><path fill="#ffffff" fill-opacity="0.7" d="M221.84,203.17c-2.24-2.05-6.99-3.19-10.17-2.83c-1.97,0.22-3.72,1.07-5.49,1.83c-1.07,0.46-2.24,0.72-3.29,1.21c-1.12,0.52-2.11,1.86-3.22,2.13H200c0.66,1.2,4.41,1.94,5.79,2.34c2.24,0.64,5.11,0.46,7.44,0.66c5.09,0.45,9.08-2,14.06-2C225.72,206.67,222.95,204.18,221.84,203.17z"/><path fill="#504040" d="M143,202.76c-0.62,3.77,2.37,5.84,5.87,6c2.93,0.14,5.93-1.4,6.96-4.3c0.49-1.36,0.68-1.9-0.52-2.71c-1.05-0.71-3.6-1.4-4.88-1.34c-2.77,0.14-4.78-0.14-6.82,1.8c-0.26,0.24-0.15,0.22-0.45,0.38"/><path fill="#504040" d="M208.83,201.83c-1.69-0.27-1.44,1.85-1.33,3c0.14,1.52,0.03,1.61,1.38,2.54c2.28,1.58,6.79,1.54,9.13,0.31c1.8-0.94,3.97-2.5,2.79-4.98c-1.1-2.3-6.18-2.5-8.29-2.38c-1.63,0.1-3.83,0.52-4.83,1.83"/></g><g class="eyebrows eyebrows-21"><path fill="#281312" fill-opacity="0.7" d="M171.5,189c-1.46-4.67-6.03-5.8-10.24-6.25c-4.7-0.5-9.13-1.75-13.8-2.43c-4.42-0.65-8.87-1.92-13.15-2.57c-4.45-0.68-8.37,1.52-12.17,3.75c-2.86,1.67-5.56,4.37-7.62,6.94c2.55,0.79,5.12,0.49,7.74,0.37c3.43-0.15,8.56-0.99,11.75-0.31c6.1,1.31,10.36,1.94,16,1.75C155,190.08,166.65,188.51,171.5,189"/><path fill="#281312" fill-opacity="0.7" d="M229.25,177.5c-4.44,0.66-8.87,1.88-13.25,2.25c-2.83,0.24-5.67,1.15-8.5,1c-3.66-0.2-13.46,0.87-12.46,6.46c2.92,1.52,3.97,3.02,7.92,2.55c2.18-0.26,4.26-1.01,6.48-1.31c2.3-0.31,11.03,0.33,13.11,0.31c5-0.06,9.76-1.13,14.49,1.93c2.61,1.68,8.44,4.75,7.41-1.39c-3.09-1.37-4.66-4.22-7.01-6.49c-2.39-2.31-5.47-3.95-8.44-5.3"/></g><g class="hair hair-14"><linearGradient id="hair_588d278886f2c" gradientUnits="userSpaceOnUse" x1="179.7065" y1="258.1915" x2="179.7065" y2="153.4043"><stop offset="0" style="stop-color:#b47853;stop-opacity:0"/><stop offset="1" style="stop-color:#281312"/></linearGradient><path fill="url(#hair_588d278886f2c)" d="M255.4,199.9c2.1-9,2.2-12.4,2.3-14.5c1.3-17.1-0.6-26.6-0.6-26.6c-16.8-65.6-65.8-69.4-76.8-69.4c-0.7,0-1.4,0-2.2,0.1c-54,1.4-71.5,44.6-71.5,44.6c-9,12.5-4,61.5-4,61.5c0.1,1.2,0.9,4.3,1.2,6.1c1.2-19.8,11.3-34.7,12.4-53.7c0.7-11.9,0.4-11.4,10.9-16.1c11.5-5.2,23.8-8.7,36.3-10.4c17.6-2.4,35.7-0.9,52.6,4.7c9.3,3.1,18.3,7.4,26.6,12.7c7.1,4.5,5.4,5.8,5.3,13.7C247.9,169.5,255.1,181.9,255.4,199.9z"/></g><g class="facial-hair facial-hair-17"><path fill="#281312" fill-opacity="0.9" d="M246.7,267.4c-2.4,4.3-5.9,18.5-10.8,19.8c-1.1,1.2-1.2,3.7-2.3,5.1c-1.7,2.3-4.8,4.5-5.1,7.6c-0.2,3.2-3,4.8-5.6,6c-2.7,1.3-4.2,3.9-7.1,4.9c-2.1,0.7-4.2,0.5-6.1-0.6c-1.7,1.3-4.4,1.9-6.5,1.2c-3.3-1.1-4.3,0.7-7.5,1.6c-2.9,0.9-6.1,0.9-9,1.5c-1.5,0.3-5.5,0.3-6.3,0.3c-1.1-0.1-2.3,0.2-3.4,0c-0.4-0.6-0.8-1.2-1.2-1.8c-0.5-1.1-1.4-1.4-2.9-0.7c-2.3-0.9-4.7,0.3-6.9-1c-0.9-0.3-0.4,1.4-1.5,0.3c-2.2-2.1-3.9-4.4-6.9-5.2c-2.8-0.7-3.9-2.1-5.7-4.2c-2.6-1.4-5.8-1.6-8.2-3.2c-8-5.4-19.2-15.2-21.8-25.2c-5-10.2-8.8-20.6-12.7-31.4c4.4,14.9,8.8,30.5,16.3,44.2c1.6,3,3.3,5.2,5.8,7.4c5.8,5.2,12.1,10.5,18.7,14.6c3.3,2.1,10.8,8.4,14.9,7.8c4.6-0.7,9.3,4.2,13.5,5.2c8.2,1.9,18.4-1.6,26.3-3.4c7.5-1.6,14.8-3.9,20.1-9.6c16.4-17.5,28.5-43.8,29.3-68.2C251.9,248.9,250.9,259.9,246.7,267.4z"/></g><g class="nose nose-10"><path fill="#aa6e49" d="M186.01,198.89c-0.17,1.53-0.26,3.95-0.49,5.46c-0.58,3.86,0.9,6.29,0.88,10.24 c-0.02,6.65,6.48,12.91,4.38,19.46c-5.2-0.71-6.56-12.33-6.95-16.23c-0.33-3.31-1.14-7.11-1.01-10.49 c0.11-2.91,1.43-6.24,2.54-9.75C185.35,197.6,186.24,196.78,186.01,198.89z"/><path fill="#824621" d="M171.75,238.75c-2.31-0.23-2.82,2.22-1.75,3.75c1.06,1.52,2.65,2.54,4.63,1.75c5.37-2.13-2.3-8.14-4.63-5.25"/><path fill="#824621" d="M188.25,238.88c-1.1-0.12-1.74,0.48-2.38,1.22c-0.95,1.11-0.87,1.46,0,2.52c0.62,0.76,1.7,2.12,2.62,2.48c0.87,0.34,2.53-0.15,3.38-0.48c1.85-0.7,3.13-2.9,1.65-4.65c-1.11-1.31-3.66-1.82-5.28-1.22c-0.18,0.07-0.13,0.05-0.25,0.12"/><path fill="none" stroke="#a56944" stroke-miterlimit="10" d="M167.63,232.25c-1.9,1.11-4.09,2.63-5.16,4.74c-0.86,1.69-0.22,4.64,0.16,6.38c0.45,2.09,2.24,4.18,4.22,5c1.03,0.42,2.72,0.48,3.89,0.5c1.72,0.03,2.24-0.82,3.63-1.26c1.9-0.59,4.9,0.33,6.76,0.62c3.3,0.52,6.46-0.66,9.85-0.37c1.42,0.12,2.4,0.58,3.68,0.03c0.81-0.35,1.47-0.88,2.21-1.4c1.99-1.42,2.59-2.57,3.4-4.75c0.71-1.91,0.58-2.59-0.78-4.29c-1.06-1.33-2.17-2.66-3.49-3.7c-1.22-0.96-2.55-1.87-3.71-3c-0.98-0.95-3.03-2.44-3.54-3.63"/></g><g class="mouth mouth-1"><path fill="#F0EBDB" d="M155.57,271.23c1.76-1.95,5.27-1.66,7.66-2c1.97-0.28,3.96-0.52,5.86-0.98c4.03-0.98,7.67,0.95,11.71,0.95c4.02,0,7.81,0.35,11.82,0.36c2,0,3.75-0.53,5.68-0.72c1.32-0.13,2.73-0.79,3.84-0.08c1.38,0.87,4.29,3.01,3.01,4.63c-1.71,2.16-4.81,2.32-6.83,4.05c-1.21,1.03-1.85,1.65-3.42,2.28c-2.21,0.89-4.62,1.63-6.95,2.03c-5,0.87-9.81,1.6-14.87,0.69c-4.19-0.76-9.87-0.5-12.56-4.25c-0.95-1.33-2.39-2.39-3.2-3.71c-0.61-1.01-0.48-2.75-1.53-3.37"/><path fill="#69322D" d="M151.63,267.4c1.16,0.43,1.74,2.35,2.42,3.2c0.68,0.85,1.65,1.81,2.73,2.19c0.59-0.8,1.06-1.33,2.03-1.56c1.15-0.27,1.67,0.31,2.61,0.69c0.43-0.83,2.52-0.87,3.4-0.82c0.83,0.05,1.66,0.49,2.48,0.51c0.78,0.01,1.68-0.51,2.51-0.73c2.37-0.62,4.02-0.02,6.22,0.33c1.42,0.23,2.8-0.56,4.28-0.36c0.81,0.11,1.49,0.73,2.16,0.85c0.73,0.13,1.66-0.27,2.4-0.34c2.17-0.18,4.12,0.6,6.2,0.45c1.36-0.1,2.19-0.4,3.49-0.21c1.09,0.16,3.14,0.35,4.04,0.11c1.68-0.46,3.07-1.1,3.62-0.17c0.23,0.39,1.6,1.85,1.99,1.97c2.02,0.61,2.89-2.88,2.01-4.09c-2.23-3.1-6.29-3.2-9.77-3.73c-2.19-0.33-4.61-0.6-6.83-0.34c-1.06,0.13-2.01,0.63-3.09,0.73c-1.37,0.13-2.68-0.18-4.03-0.24c-2.94-0.13-5.89-0.08-8.85,0.11c-1.43,0.09-3.2,0.58-4.58,0.01c-0.95-0.4-1.6-1.05-2.59-1.47c-1.04-0.44-2.17-0.81-3.25-1.07c-2.37-0.57-3.9,0.81-6.1,1.46c-1.56,0.46-4.99,0.71-5.25,2.62"/><path fill="#a7696a" fill-opacity="0.9" d="M150.31,267.28c1.71,3.94,4.44,7.52,6.82,11.18c1.18,1.81,2.61,3.54,4.06,5.2c1.59,1.82,2.92,3.72,5.11,4.89c1.52,0.81,2.98,1.5,4.7,1.68c1.78,0.18,3.66,0.04,5.39,0.47c3.06,0.77,5.42,0.97,8.58,0.49c1.11-0.17,2.5-0.23,3.58-0.51c1.11-0.29,1.82-0.98,2.75-1.63c2.05-1.43,3.92-3.01,5.75-4.79c2.53-2.46,4.81-5.02,7.39-7.43c2.24-2.08,3.8-4.14,4.42-6.92c-1.84-0.16-5,2.63-6.22,3.8c-1.58,1.51-2.65,2.41-4.74,2.92c-4.35,1.06-8.61,2.96-13.32,2.96c-3.42,0-6.83,0.69-10.25,0.84c-1.41,0.06-3.68,0.41-5.02,0.11c-0.96-0.21-2.3-1.26-3.24-1.7c-2.16-1.02-3.78-2.87-5.48-4.48c-1.63-1.55-3.39-2.84-5.02-4.36c-1.19-1.11-3.68-3.79-5.5-2.72"/><path fill="#aa6e49" d="M149.83,267.4c0.85-0.2,1.56-1.53,2.27-2.12c0.95-0.8,2.11-1.31,3.36-1.56c2.67-0.52,5.46-1.05,8.24-0.77c2.96,0.3,5.84,0.35,8.84,0.5c2.49,0.13,4.76,0.96,7.26,1.2c2.49,0.24,4.97-0.14,7.43-0.24c2.59-0.11,5.04-0.98,7.66-0.72c1.71,0.17,3.52,0.78,5.21,1.08c1.21,0.22,1.9,0.4,2.9,0.95c1.64,0.91,3.41,1.25,5.02,2.26c0.77,0.48,1.97,1.44,0.89,2.31c-0.58,0.47-2.56,0.33-3.32,0.44c-3.15,0.46-6.21-0.11-9.2-0.71c-5.52-1.12-11.28-1.04-16.93-1.32c-2.06-0.1-3.72-1.04-5.74-1.31c-2.84-0.38-5.28-1.52-8.02-2.18c-1.12-0.27-2.29-0.59-3.43-0.69c-1.31-0.11-1.86,0.35-2.98,0.87c-1.17,0.55-2.49,0.42-3.69,0.8c-0.99,0.32-1.7,1.08-2.7,1.44c-0.78,0.28-1.75,0.26-2.58,0.22c-0.03-0.15-0.03-0.3-0.02-0.46"/></g></svg>