<svg id="s540212fc335fc" class="face" xmlns="http://www.w3.org/2000/svg" xmlns:xlink="http://www.w3.org/1999/xlink" x="0px" y="0px" width="357px" height="358px" viewBox="0 0 357 358"><path fill="#9a593b" d="M268.5,189.04c-1.41-1.92-2.86-2.74-4.22-2.91c-3.96-0.47-7.28,4.62-7.28,4.62c2.38-21.04,0-32.96,0-32.96c-16.83-65.56-65.84-69.37-76.8-69.39c-0.71,0.02-1.44,0.04-2.2,0.06c-54,1.42-71.5,44.58-71.5,44.58c-9,12.5-4,61.55-4,61.55c-21-12.95-1.5,45.45-1.5,45.45c5,13.5,8,1,8,1c2.88,12.67,6.63,23.41,10.9,32.53c0.85,44.99,1.74,68.73,1.44,83.43c23.33,0,116.79,0,123.83,0l1.52-85.32c6.58-17.33,7.31-32.14,7.31-32.14c2.5,3,6.5,1.5,6.5,1.5C272.75,234.79,268.5,189.04,268.5,189.04z M255.96,199.92C255.93,200.18,255.94,200.15,255.96,199.92L255.96,199.92z M256.22,197.67c0.03-0.3,0.07-0.64,0.11-1.01C256.29,197.01,256.25,197.35,256.22,197.67z M256.82,192.32c0.06-0.55,0.11-0.99,0.14-1.26C256.91,191.5,256.87,191.92,256.82,192.32z M265.33,190.26c-0.04-0.16-0.09-0.37-0.16-0.62c-0.13-0.5-0.31-1.2-0.54-2.1c0.22,0.86,0.4,1.58,0.54,2.1C265.24,189.9,265.29,190.1,265.33,190.26C265.47,190.79,265.48,190.83,265.33,190.26z"/><path fill="#955436" d="M125.25,227.25c4.5-6.5,6.97-8.84,12.65-10c4.87-0.99,13.28-2.45,17.35-5.75c9.63-7.79,13.17-20.35,5.59-28.43c-4.32-4.6-7.03-7.3-13.05-8.81c-4.83-1.22-11.04-2.16-15.05-6.1c-7.84-7.69-11.29-20.73-10.82-31.2c0.41-8.95,9.17-18.79,15.15-24.83c7.04-7.12,15.71-14.12,23.72-20.42c-40.38,8.84-54.04,42.51-54.04,42.51c-9,12.5-4,61.55-4,61.55c-21-12.95-1.5,45.45-1.5,45.45c5,13.5,8,1,8,1c2.89,12.7,6.64,23.46,10.93,32.59c-0.78,38.87,1.32,70.54,1.15,83.21c7.79,0.1,53.6-30.51,61.45-32.32C179.16,318.81,113.75,264.75,125.25,227.25z"/><g class="eyes eyes-12"><path fill="#ffffff" fill-opacity="0.7" d="M128.25,203.25c1.4-2.3,5.02-2.76,7.14-4.35c2-1.5,3.71-2.77,6.39-3.03c1.37-0.13,2.27,0.45,3.49,0.63c1.52,0.23,3.09-0.15,4.61,0.15c2.19,0.43,4.08,1.86,6,2.94c0.92,0.52,1.8,0.97,2.74,1.39c-1.43,2.32-4.53,3.14-6.99,3.64c-2.76,0.56-5.32,1.5-8.14,1.75c-2.74,0.25-4.9-0.87-7.49-1.01c-2.35-0.12-4.01-0.67-6.13-1.37c-0.6-0.2-1.21-0.53-1.74-0.88"/><path fill="#ffffff" fill-opacity="0.7" d="M201.67,202.28c0.42-0.78,1.39-1.43,2.29-1.66c0.67-0.17,1.32-0.37,1.94-0.64c0.73-0.32,1.32-0.81,2.05-1.14c1.33-0.59,2.43-1.56,3.73-2.19c1.09-0.53,2.49-0.74,3.71-0.91c0.83-0.12,1.63-0.16,2.45,0.02c0.73,0.16,1.46,0.1,2.19,0.23c1.26,0.24,2.31,0.46,3.27,1.24c0.78,0.64,1.73,1.04,2.57,1.56c0.61,0.38,1.04,0.91,1.57,1.37c0.41,0.35,0.86,0.62,1.34,0.87c0.39,0.2,0.57,0.39,0.88,0.67c0.54,0.48,1.27,0.8,1.66,1.4c0.13,0.2,0.19,0.43,0.35,0.6c-1.49,0.49-3.08,0.83-4.66,1.06c-0.69,0.1-1.37,0-2.06,0.13c-0.48,0.09-0.98,0.15-1.47,0.23c-2.36,0.4-4.83,0.43-7.23,0.43c-1.64,0-3.31-0.33-4.91-0.65c-1.07-0.22-2.16-0.3-3.23-0.5c-1.59-0.3-3.16-0.87-4.67-1.37c-0.69-0.23-1.21-0.43-1.72-0.88"/><path fill="#504040" d="M140,195.75c-2.6,2.35-5.65,5.65-2.56,8.77c2.56,2.58,5.85,2.5,8.58,0.22c2.08-1.74,5.06-5.31,1.8-7.56c-1.55-1.07-8.29-1.78-9.32-0.43"/><path fill="#504040" d="M214,196.25c-1.04,1.15-2.43,1.93-2.99,3.43c1.99,5.58,9.32,8.68,13.45,2.75c3.82-5.48-8.98-8.72-11.96-4.93"/></g><g class="eyebrows eyebrows-13"><path fill="#0e0e0c" fill-opacity="0.6" d="M121,190.5c5.82-10.47,19.05-12,30.01-10.25c5.35,0.85,9.64,1.74,13.68,5.52c0.75,0.7,4.47,2.92,4.32,3.99c-0.31,2.24-5.16,0.96-6.27,0.74c-4.19-0.84-8.23-2.73-12.48-3.19c-3.51-0.38-7.49-0.35-11,0.25c-2.88,0.49-5.61,1.7-8.78,1.69c-3.49-0.01-6.59-0.48-9.75,1.25"/><path fill="#0e0e0c" fill-opacity="0.6" d="M195.25,186.75c2.22-2.8,5.53-4.17,8.49-5.94c3.9-2.32,11.4-3.28,15.75-3.06c3.69,0.18,15.32,4.97,15.21,9.71c-1.75-0.19-2.81,0.35-4.45,0.03c-1.41-0.27-2.56-0.76-4-0.99c-3.32-0.54-6.88-0.25-10.26-0.25c-6.99,0-13.37,2.11-20.21,1.71c-0.26-0.51-0.4-1.11-0.29-1.71"/></g><g class="chin chin-2"><path display="inline" fill="none" stroke="#955436" stroke-miterlimit="10" d="M141.33,306c2.85,2.31,3.41,3.39,6.14,5.75c3.06,2.64,8.02,6.85,11.86,8.01c7.8,2.35,13.18,6.99,21.78,7.24c7.86,0.23,16.24-4.27,22.96-7.98c7.54-4.17,14.8-10.01,20.59-16.02"/></g><g class="hair hair-2007"><linearGradient id="hair_540212fc3551a" gradientUnits="userSpaceOnUse" x1="179.7064" y1="194.5" x2="179.7064" y2="89.4009"><stop offset="0" style="stop-color:#0e0e0c;stop-opacity:0"/><stop offset="0.02" style="stop-color:#0e0e0c;stop-opacity:0.02"/><stop offset="0.1009" style="stop-color:#0e0e0c;stop-opacity:0.1337"/><stop offset="0.1909" style="stop-color:#0e0e0c;stop-opacity:0.2528"/><stop offset="0.2815" style="stop-color:#0e0e0c;stop-opacity:0.3728"/><stop offset="0.3727" style="stop-color:#0e0e0c;stop-opacity:0.4937"/><stop offset="0.4649" style="stop-color:#0e0e0c;stop-opacity:0.6157"/><stop offset="0.5584" style="stop-color:#0e0e0c;stop-opacity:0.7395"/><stop offset="0.6539" style="stop-color:#0e0e0c;stop-opacity:0.8662"/><stop offset="0.755" style="stop-color:#0e0e0c"/></linearGradient><path fill="url(#hair_540212fc3551a)" d="M257.1,158.8c-16.8-65.6-65.8-69.4-76.8-69.4c-0.7,0-1.4,0-2.2,0.1c-54,1.4-71.5,44.6-71.5,44.6c-7.5,10.4-5.3,46.2-4.3,57.9l2,2.6c0,0,4.2-29.8,23-44.4v-15.7c0,0,38.7-30.3,112.6,0v18.5c0,0,7.1-1.7,15.4,35.4l2.4-1.6C259.1,168.8,257.1,158.8,257.1,158.8z"/><path fill="#0e0e0c" d="M202.9,112.6c-0.2-5.8,3-8.5,2.7-14.3c-0.1-2.6,0.9-0.2-0.1-2.6c16.7,7.5-6.4-9.2-7-9.8c-6.5-2.5-13.3-5-20.3-4.9c-2.9,0.1-12,2.2-14.8,2.7c-4,2.6-8.3,5.7-11.7,9.9c-0.8,3.9,6,5,6.5,7.9c0.6,4.4,0.9,8.9,3.1,12.9c0.2,0.4,0.4,0.7,0.6,1.1c2.1,2.2,4.3,4.4,6.2,6.7c0.4,0-1.8-2.1,1.2,0.1c10-0.6,20.1,1.6,29.8-0.5C201.1,119.3,202.3,116,202.9,112.6z"/></g><g class="nose nose-21"><path fill="#904f31" d="M186.01,198.89c-0.17,1.53-0.26,3.95-0.49,5.46c-0.58,3.86,0.9,6.29,0.88,10.24 c-0.02,6.65,6.48,12.91,4.38,19.46c-5.2-0.71-6.56-12.33-6.95-16.23c-0.33-3.31-1.14-7.11-1.01-10.49 c0.11-2.91,1.43-6.24,2.54-9.75C185.35,197.6,186.24,196.78,186.01,198.89z"/><path fill="#682709" d="M162.63,247.25c1.69-1.11,2.96-2.59,5.26-2c0.68,0.18,3.84,1.33,3.47,2.47c-0.55,1.74-9.18,1.2-8.98-0.47"/><path fill="#682709" d="M185,246.13c1.59-0.98,3.93-1.6,5.62-0.72c0.94,0.49,4.06,1.96,2.5,3.07c-1.33,0.95-3.51-0.57-4.65-0.94c-0.77-0.25-1.65-0.11-2.38-0.38c-0.73-0.27-1.56-1.18-0.47-1.66"/><path fill="none" stroke="#8b4a2c" stroke-miterlimit="10" d="M161.38,230.88c-3.2,3.47-6.95,7.96-5.75,13.12c0.39,1.67,1.64,3.93,3.34,4.66c1.49,0.65,3.62,0.29,5.26,0.61c1.4,0.27,2.54,0.6,4.04,0.72c1.48,0.12,3.37-0.2,4.85,0.13c0.94,0.21,1.67,1.01,2.56,1.41c1.44,0.64,4.01,1.29,5.58,1.22c1.49-0.07,2.46-0.78,3.69-1.47c2.93-1.64,6.72-0.89,9.95-0.78c2.39,0.08,5.64-0.44,7.22-2.26c2.62-2.99-0.16-7.34-1.59-10.34c-1.1-2.3-2.29-2.99-3.88-5.1c-2.03-2.68-4.55-8.49-5.03-11.56"/></g><g class="mouth mouth-13"><path fill="#271011" d="M154.04,273.51c0.52,4.09,7.62,5.03,10.62,5.49c9.01,1.38,18.18,1.52,27.17,0.96c4.02-0.25,7.97-1.95,11.51-3.5c0.79-0.35,2.83-0.79,3.21-1.58c0.6-1.23-0.53-3.3-1.39-3.82c-0.17-0.1-0.05-0.16-0.15-0.29c-1.6-0.41-3.66-0.32-5.28-0.27c-9.56,0.32-18.88,0.02-28.37-1.08c-5.05-0.58-11.27-2.07-15.05,2.28c-0.63,0.72-1.25,2.1-2.41,1.93"/><path fill="#AFA9A3" d="M165.31,273.37c-0.94,0.51-0.06,2.88,0.41,3.66c0.82,1.38,1.79,1.15,3.35,1.15c2.38,0,4.53,0.05,6.83-0.54c2.42-0.63,4.37-0.83,6.89-0.83c1.95,0,3.57,0.6,5.42,0.69c2.43,0.12,5.01,0.11,7.37-0.44c1.28-0.3,3.35-0.59,4.48-1.24c1.29-0.75,0.6-1.62-0.35-2.57c-1.63-1.64-4.22-2.75-6.49-2.75c-1.92,0-4.56,2.16-6.47,2.07c-1.63-0.08-2.55,0.21-4.14,0.52c-2.87,0.56-6.48,0.31-9.42,0.03c-2.05-0.19-6.94-1.88-8.28,0.68"/><path fill="#904f31" d="M152.8,272.28c0.74-4.3,9.08-7.56,12.66-8.87c2.62-0.96,4.86-1.62,7.68-1.57c2.86,0.05,5.01,1.46,7.7,2.21c5.94,1.66,11.43-1.64,17.27-0.58c2.9,0.53,16.47,8.12,8.84,9.92c-1.7,0.4-4.23,0.08-5.97-0.01c-2.67-0.14-4.8-1.62-7.22-1.94c-2.52-0.34-4.71,1.38-7.06,1.75c-2.44,0.38-5.01,0.2-7.5,0.2c-4.78,0-9.81-1.22-14.58-1.38c-1.72-0.06-12.08,4.8-11.83,0.83"/><path fill="#864527" fill-opacity="1" d="M153.08,275.71c2.21,0.4,5.23,2.72,6.77,4.5c1.79,2.07,3.63,3.61,5.95,5.13c1.36,0.89,2.83,2.1,4.46,2.33c2.17,0.3,4.43,0.17,6.6,0.41c2.95,0.33,5.9,1.27,8.94,0.97c2.35-0.23,4.5-1.5,6.69-2.32c3.97-1.48,7.52-2.88,10.44-6.04c1.71-1.85,4.4-4.41,4.62-7.07c-4.04,2.24-8.19,1.56-12.79,1.8c-2.12,0.11-4.32,0.01-6.39,0.42c-2.18,0.43-4.2,0.75-6.44,0.85c-2.01,0.09-4.05,0.13-6.08,0.11c-2.04-0.02-3.69-0.75-5.65-0.96c-3.52-0.38-7.13-0.47-10.56-0.96c-2.02-0.29-4.99-0.59-6.71,0.55"/></g></svg>