<svg id="s54ae0d701d393" class="face" xmlns="http://www.w3.org/2000/svg" xmlns:xlink="http://www.w3.org/1999/xlink" x="0px" y="0px" width="357px" height="358px" viewBox="0 0 357 358"><path fill="#875647" d="M268.5,189.04c-1.41-1.92-2.86-2.74-4.22-2.91c-3.96-0.47-7.28,4.62-7.28,4.62c2.38-21.04,0-32.96,0-32.96c-16.83-65.56-65.84-69.37-76.8-69.39c-0.71,0.02-1.44,0.04-2.2,0.06c-54,1.42-71.5,44.58-71.5,44.58c-9,12.5-4,61.55-4,61.55c-21-12.95-1.5,45.45-1.5,45.45c5,13.5,8,1,8,1c2.88,12.67,6.63,23.41,10.9,32.53c0.85,44.99,1.74,68.73,1.44,83.43c23.33,0,116.79,0,123.83,0l1.52-85.32c6.58-17.33,7.31-32.14,7.31-32.14c2.5,3,6.5,1.5,6.5,1.5C272.75,234.79,268.5,189.04,268.5,189.04z M255.96,199.92C255.93,200.18,255.94,200.15,255.96,199.92L255.96,199.92z M256.22,197.67c0.03-0.3,0.07-0.64,0.11-1.01C256.29,197.01,256.25,197.35,256.22,197.67z M256.82,192.32c0.06-0.55,0.11-0.99,0.14-1.26C256.91,191.5,256.87,191.92,256.82,192.32z M265.33,190.26c-0.04-0.16-0.09-0.37-0.16-0.62c-0.13-0.5-0.31-1.2-0.54-2.1c0.22,0.86,0.4,1.58,0.54,2.1C265.24,189.9,265.29,190.1,265.33,190.26C265.47,190.79,265.48,190.83,265.33,190.26z"/><path fill="#825142" d="M125.25,227.25c4.5-6.5,6.97-8.84,12.65-10c4.87-0.99,13.28-2.45,17.35-5.75c9.63-7.79,13.17-20.35,5.59-28.43c-4.32-4.6-7.03-7.3-13.05-8.81c-4.83-1.22-11.04-2.16-15.05-6.1c-7.84-7.69-11.29-20.73-10.82-31.2c0.41-8.95,9.17-18.79,15.15-24.83c7.04-7.12,15.71-14.12,23.72-20.42c-40.38,8.84-54.04,42.51-54.04,42.51c-9,12.5-4,61.55-4,61.55c-21-12.95-1.5,45.45-1.5,45.45c5,13.5,8,1,8,1c2.89,12.7,6.64,23.46,10.93,32.59c-0.78,38.87,1.32,70.54,1.15,83.21c7.79,0.1,53.6-30.51,61.45-32.32C179.16,318.81,113.75,264.75,125.25,227.25z"/><g class="eyes eyes-13"><path fill="#ffffff" fill-opacity="0.7" d="M132.33,199.83c1.11,0.03,3.22-1.89,4.34-2.34c1.76-0.71,3.45-1.13,5.34-1.33c2.77-0.29,6.43-0.69,8.99,0.37c3.64,1.5,6.2,5.23,9.95,6.43c-2.99,0.25-6.11-0.28-9.1,0.07c-2.65,0.3-5.29,1.22-8.02,0.81c-3.56-0.53-8.45-2.35-11.33-4.01"/><path fill="#ffffff" fill-opacity="0.7" d="M205.83,202.5c1.32-3,5.15-2.68,7.86-2.83c3.09-0.17,5.56-0.72,8.6-0.37c3.01,0.34,6.24,0.13,9.04,1.38c2.06,0.91,4.3,2.09,6.29,3.34c-2.41-0.25-5,0.96-7.28,1.48c-3.45,0.79-6.57,1.18-10.18,1.18c-3.14,0-6.57,0.56-9.16-1.33c-1.53-1.12-3.11-2.3-4.5-3.34"/><path fill="#332a19" d="M142.01,196.17c-1.09,0.11-2.11,0.31-3.12,0.59c-0.46,1.23-0.61,2.67-0.2,3.79c0.45,1.24,1.33,2.1,2.29,2.68c1,0.27,1.97,0.48,2.85,0.61c2.35,0.35,4.63-0.28,6.92-0.66c1.36-1.21,2.57-3.08,2.42-5.45c-0.69-0.47-1.4-0.88-2.17-1.2C148.44,195.48,144.78,195.88,142.01,196.17z"/><path fill="#332a19" d="M214.01,199.65c-0.54,1.2-0.53,2.71,0.39,4.19c0.86,1.38,1.88,2.29,3.01,2.89c0.92-0.02,1.84-0.07,2.74-0.07c2.24,0,4.28-0.17,6.34-0.47c1.57-1.1,2.67-2.73,1.51-4.65c-0.52-0.86-1.21-1.48-1.98-1.97c-1.25-0.09-2.51-0.14-3.73-0.28C219.36,198.96,216.95,199.46,214.01,199.65z"/></g><g class="eyebrows eyebrows-21"><path fill="#0e0e0c" fill-opacity="0.4" d="M171.5,189c-1.46-4.67-6.03-5.8-10.24-6.25c-4.7-0.5-9.13-1.75-13.8-2.43c-4.42-0.65-8.87-1.92-13.15-2.57c-4.45-0.68-8.37,1.52-12.17,3.75c-2.86,1.67-5.56,4.37-7.62,6.94c2.55,0.79,5.12,0.49,7.74,0.37c3.43-0.15,8.56-0.99,11.75-0.31c6.1,1.31,10.36,1.94,16,1.75C155,190.08,166.65,188.51,171.5,189"/><path fill="#0e0e0c" fill-opacity="0.4" d="M229.25,177.5c-4.44,0.66-8.87,1.88-13.25,2.25c-2.83,0.24-5.67,1.15-8.5,1c-3.66-0.2-13.46,0.87-12.46,6.46c2.92,1.52,3.97,3.02,7.92,2.55c2.18-0.26,4.26-1.01,6.48-1.31c2.3-0.31,11.03,0.33,13.11,0.31c5-0.06,9.76-1.13,14.49,1.93c2.61,1.68,8.44,4.75,7.41-1.39c-3.09-1.37-4.66-4.22-7.01-6.49c-2.39-2.31-5.47-3.95-8.44-5.3"/></g><g class="hair hair-19"><linearGradient id="hair_54ae0d701e316" gradientUnits="userSpaceOnUse" x1="179.6572" y1="175.0048" x2="179.6572" y2="89.4009"><stop offset="0" style="stop-color:#0e0e0c;stop-opacity:0"/><stop offset="0" style="stop-color:#0e0e0c;stop-opacity:0"/><stop offset="0.05" style="stop-color:#0e0e0c;stop-opacity:0.05"/><stop offset="0.1297" style="stop-color:#0e0e0c;stop-opacity:0.1894"/><stop offset="0.1995" style="stop-color:#0e0e0c;stop-opacity:0.2912"/><stop offset="0.2731" style="stop-color:#0e0e0c;stop-opacity:0.3987"/><stop offset="0.3521" style="stop-color:#0e0e0c;stop-opacity:0.514"/><stop offset="0.4388" style="stop-color:#0e0e0c;stop-opacity:0.6405"/><stop offset="0.5391" style="stop-color:#0e0e0c;stop-opacity:0.787"/><stop offset="0.685" style="stop-color:#0e0e0c"/><stop offset="0.7087" style="stop-color:#0e0e0c"/><stop offset="0.8249" style="stop-color:#0e0e0c"/><stop offset="0.9259" style="stop-color:#0e0e0c"/><stop offset="1" style="stop-color:#0e0e0c"/></linearGradient><path fill="url(#hair_54ae0d701e316)" fill-opacity="0.2" d="M180.3,89.4c-0.7,0-1.4,0-2.2,0.1c-54,1.4-71.5,44.6-71.5,44.6c-4.9,6.9-5.7,24.7-5.3,39.5l9.9,1.5c0,0,6.7-14.3,8.5-16.1c1.8-1.8,3.8-26.6,3.8-26.6s12-13.2,36.8-14.9c0,0,16.4-3.8,25.4-3.8c0,0,15.8,2.9,26.6,6.7c0,0,16.1,6.4,17,6.7c0.9,0.3,8.5,7,8.5,7l2,20.8l7,13.4l5,6.7l6.2-6.2c-0.3-6.5-1-10-1-10C240.3,93.2,191.3,89.4,180.3,89.4z"/></g><g class="facial-hair facial-hair-2"><path fill="#0e0e0c" fill-opacity="0.3" d="M253,208c-0.21-4.25-5.2,6.65-6.43,8.99c-1.17,2.23-2.05,4.26-2.62,6.64c-1.08,4.48-2.81,8.79-4.64,13.17c-4.16,9.97-5.1,21.64-13.24,29.76c-3.42,3.41-6.61,7.6-8.58,12.01c-1.33,2.99-2.36,5.91-2.68,9.17c-0.32,3.22,0.45,6.06-1.12,8.93c-2.54,4.63-6.03,8.89-11.25,10.51c-6.95,2.15-14.64-0.59-21.72-1.19c-3.05-0.26-6.02-0.33-9.04,0.31c-2.33,0.49-4.67,1.91-7.18,1.45c-2.07-0.38-3.94-1.91-6.02-2.5c-2.66-0.76-5.28-1.64-7.93-2.32c-2.51-0.64-4.52-0.13-6.3-2.32c-2.07-2.54-1.33-5.97-1.5-9.12c-0.39-7.43,0.42-14.26-4.94-20.01c-7.51-8.03-15.83-14.59-20.36-24.92c-1.01-2.31-1.4-4.79-2.2-7.06c-0.93-2.62-2.38-4.93-3.44-7.57c-1.28-3.19-1.97-6.22-2.31-9.69c-0.13-1.37-0.23-2.46,0.05-3.74c0.28-1.3,0.13-2.3-0.05-3.88c-0.22-1.92-0.15-1.87-1.19-3.44c-0.9-1.38-0.72-3.11-1.62-4.35c-0.49,0.84-0.84,1.52-1.19,2.42L106,207c-1.97,6.45-0.13,13.6,1.25,20c0.6,2.79-1.48,1.76,1.75,14.04c2.88,12.67,6.63,23.41,10.9,32.53c0.11,5.98,11.51,33.13,18.31,40.44c2.67,2.88,5.38,6.33,8.49,8.81c5.01,4,10.02,4.24,16.35,5.13c7.69,1.08,15.35,2.75,23.01,3.79c5.75,0.78,9.57-0.67,15.01-1.94c7.66-1.77,15.37-2.94,21.94-7.54c3.47-2.43,5.37-4.56,7.49-8.2c2.32-3.99,5.07-7.62,7.01-11.88c3.17-6.94,9.19-30.5,9.19-30.5c6.58-17.33,7.05-33.31,7.18-33.18c-0.01-1.16,0.49-0.84,0.32-1.99C253.46,231.64,253.25,212.94,253,208z"/><path fill="#0e0e0c" fill-opacity="0.3" d="M152.33,265c0.26-3.5,9.31-9.13,12.34-10.09c5.9-1.87,14.04,0.17,20-0.24c3.93-0.27,6.28,1.14,9.77,1.92c2.94,0.65,6.38-0.13,9.23,1.16c2.85,1.29,8.74,8.07,6.27,10.87c-4.35,0.54-9.31-5.28-13.26-6.62c-2.76-0.94-6.14-0.66-9.11-0.66c-3.4,0.01-5.48-1.24-8.52-1.75c-4.84-0.8-10.31,1.33-14.31,3.82c-2.43,1.51-6.68,3.89-9.47,4.34c-1.68,0.27-2.83,0.75-3.54-1.42c-0.45-1.39-0.28-2.19,1.27-2.66"/></g><g class="nose nose-13"><path fill="#7d4c3d" d="M186.01,198.89c-0.17,1.53-0.26,3.95-0.49,5.46c-0.58,3.86,0.9,6.29,0.88,10.24 c-0.02,6.65,6.48,12.91,4.38,19.46c-5.2-0.71-6.56-12.33-6.95-16.23c-0.33-3.31-1.14-7.11-1.01-10.49 c0.11-2.91,1.43-6.24,2.54-9.75C185.35,197.6,186.24,196.78,186.01,198.89z"/><path fill="#552415" d="M172.83,241.33c-2.35-0.01-5.7,2.37-5.81,4.81c2.4,0.37,3.86-1.31,6.14-1.77c3.53-0.72,1.66-2.12-0.5-3.04"/><path fill="#552415" d="M190.67,242.5c-1.77-0.29-3.34,1.11-4.35,2.34c0.96,1.44,3.2,0.93,4.69,1c1.62,0.08,2.97,0.55,4.64,0.47c1.02-2.11-3.54-4.46-5.31-3.81"/><path fill="none" stroke="#784738" stroke-miterlimit="10" d="M166,230.66c-0.08,1.35-1.71,3.11-2.37,4.32c-0.74,1.34-1.5,2.58-2,4.05c-1.08,3.13-1.4,5.65,0.87,8.46c3.9,4.84,10.42,0.77,15.64,2.36c3.02,0.92,5.75-0.68,9.02-0.53c3.38,0.15,7.32,1.16,10.64,0.3c2.45-0.64,4.7-1.64,6.03-3.96c1.64-2.84,0.83-4.9-0.5-7.68c-1.13-2.36-2.28-4.36-4.2-6.28c-2.3-2.29-3.86-3.87-5.46-6.71"/></g><g class="mouth mouth-1"><path fill="#F0EBDB" d="M155.57,271.23c1.76-1.95,5.27-1.66,7.66-2c1.97-0.28,3.96-0.52,5.86-0.98c4.03-0.98,7.67,0.95,11.71,0.95c4.02,0,7.81,0.35,11.82,0.36c2,0,3.75-0.53,5.68-0.72c1.32-0.13,2.73-0.79,3.84-0.08c1.38,0.87,4.29,3.01,3.01,4.63c-1.71,2.16-4.81,2.32-6.83,4.05c-1.21,1.03-1.85,1.65-3.42,2.28c-2.21,0.89-4.62,1.63-6.95,2.03c-5,0.87-9.81,1.6-14.87,0.69c-4.19-0.76-9.87-0.5-12.56-4.25c-0.95-1.33-2.39-2.39-3.2-3.71c-0.61-1.01-0.48-2.75-1.53-3.37"/><path fill="#69322D" d="M151.63,267.4c1.16,0.43,1.74,2.35,2.42,3.2c0.68,0.85,1.65,1.81,2.73,2.19c0.59-0.8,1.06-1.33,2.03-1.56c1.15-0.27,1.67,0.31,2.61,0.69c0.43-0.83,2.52-0.87,3.4-0.82c0.83,0.05,1.66,0.49,2.48,0.51c0.78,0.01,1.68-0.51,2.51-0.73c2.37-0.62,4.02-0.02,6.22,0.33c1.42,0.23,2.8-0.56,4.28-0.36c0.81,0.11,1.49,0.73,2.16,0.85c0.73,0.13,1.66-0.27,2.4-0.34c2.17-0.18,4.12,0.6,6.2,0.45c1.36-0.1,2.19-0.4,3.49-0.21c1.09,0.16,3.14,0.35,4.04,0.11c1.68-0.46,3.07-1.1,3.62-0.17c0.23,0.39,1.6,1.85,1.99,1.97c2.02,0.61,2.89-2.88,2.01-4.09c-2.23-3.1-6.29-3.2-9.77-3.73c-2.19-0.33-4.61-0.6-6.83-0.34c-1.06,0.13-2.01,0.63-3.09,0.73c-1.37,0.13-2.68-0.18-4.03-0.24c-2.94-0.13-5.89-0.08-8.85,0.11c-1.43,0.09-3.2,0.58-4.58,0.01c-0.95-0.4-1.6-1.05-2.59-1.47c-1.04-0.44-2.17-0.81-3.25-1.07c-2.37-0.57-3.9,0.81-6.1,1.46c-1.56,0.46-4.99,0.71-5.25,2.62"/><path fill="#734233" fill-opacity="1" d="M150.31,267.28c1.71,3.94,4.44,7.52,6.82,11.18c1.18,1.81,2.61,3.54,4.06,5.2c1.59,1.82,2.92,3.72,5.11,4.89c1.52,0.81,2.98,1.5,4.7,1.68c1.78,0.18,3.66,0.04,5.39,0.47c3.06,0.77,5.42,0.97,8.58,0.49c1.11-0.17,2.5-0.23,3.58-0.51c1.11-0.29,1.82-0.98,2.75-1.63c2.05-1.43,3.92-3.01,5.75-4.79c2.53-2.46,4.81-5.02,7.39-7.43c2.24-2.08,3.8-4.14,4.42-6.92c-1.84-0.16-5,2.63-6.22,3.8c-1.58,1.51-2.65,2.41-4.74,2.92c-4.35,1.06-8.61,2.96-13.32,2.96c-3.42,0-6.83,0.69-10.25,0.84c-1.41,0.06-3.68,0.41-5.02,0.11c-0.96-0.21-2.3-1.26-3.24-1.7c-2.16-1.02-3.78-2.87-5.48-4.48c-1.63-1.55-3.39-2.84-5.02-4.36c-1.19-1.11-3.68-3.79-5.5-2.72"/><path fill="#7d4c3d" d="M149.83,267.4c0.85-0.2,1.56-1.53,2.27-2.12c0.95-0.8,2.11-1.31,3.36-1.56c2.67-0.52,5.46-1.05,8.24-0.77c2.96,0.3,5.84,0.35,8.84,0.5c2.49,0.13,4.76,0.96,7.26,1.2c2.49,0.24,4.97-0.14,7.43-0.24c2.59-0.11,5.04-0.98,7.66-0.72c1.71,0.17,3.52,0.78,5.21,1.08c1.21,0.22,1.9,0.4,2.9,0.95c1.64,0.91,3.41,1.25,5.02,2.26c0.77,0.48,1.97,1.44,0.89,2.31c-0.58,0.47-2.56,0.33-3.32,0.44c-3.15,0.46-6.21-0.11-9.2-0.71c-5.52-1.12-11.28-1.04-16.93-1.32c-2.06-0.1-3.72-1.04-5.74-1.31c-2.84-0.38-5.28-1.52-8.02-2.18c-1.12-0.27-2.29-0.59-3.43-0.69c-1.31-0.11-1.86,0.35-2.98,0.87c-1.17,0.55-2.49,0.42-3.69,0.8c-0.99,0.32-1.7,1.08-2.7,1.44c-0.78,0.28-1.75,0.26-2.58,0.22c-0.03-0.15-0.03-0.3-0.02-0.46"/></g></svg>