<svg id="s592cd39c1487b" class="face" xmlns="http://www.w3.org/2000/svg" xmlns:xlink="http://www.w3.org/1999/xlink" x="0px" y="0px" width="357px" height="358px" viewBox="0 0 357 358"><path fill="#e3aea0" d="M268.5,189.04c-1.41-1.92-2.86-2.74-4.22-2.91c-3.96-0.47-7.28,4.62-7.28,4.62c2.38-21.04,0-32.96,0-32.96c-16.83-65.56-65.84-69.37-76.8-69.39c-0.71,0.02-1.44,0.04-2.2,0.06c-54,1.42-71.5,44.58-71.5,44.58c-9,12.5-4,61.55-4,61.55c-21-12.95-1.5,45.45-1.5,45.45c5,13.5,8,1,8,1c2.88,12.67,6.63,23.41,10.9,32.53c0.85,44.99,1.74,68.73,1.44,83.43c23.33,0,116.79,0,123.83,0l1.52-85.32c6.58-17.33,7.31-32.14,7.31-32.14c2.5,3,6.5,1.5,6.5,1.5C272.75,234.79,268.5,189.04,268.5,189.04z M255.96,199.92C255.93,200.18,255.94,200.15,255.96,199.92L255.96,199.92z M256.22,197.67c0.03-0.3,0.07-0.64,0.11-1.01C256.29,197.01,256.25,197.35,256.22,197.67z M256.82,192.32c0.06-0.55,0.11-0.99,0.14-1.26C256.91,191.5,256.87,191.92,256.82,192.32z M265.33,190.26c-0.04-0.16-0.09-0.37-0.16-0.62c-0.13-0.5-0.31-1.2-0.54-2.1c0.22,0.86,0.4,1.58,0.54,2.1C265.24,189.9,265.29,190.1,265.33,190.26C265.47,190.79,265.48,190.83,265.33,190.26z"/><path fill="#dea99b" d="M125.25,227.25c4.5-6.5,6.97-8.84,12.65-10c4.87-0.99,13.28-2.45,17.35-5.75c9.63-7.79,13.17-20.35,5.59-28.43c-4.32-4.6-7.03-7.3-13.05-8.81c-4.83-1.22-11.04-2.16-15.05-6.1c-7.84-7.69-11.29-20.73-10.82-31.2c0.41-8.95,9.17-18.79,15.15-24.83c7.04-7.12,15.71-14.12,23.72-20.42c-40.38,8.84-54.04,42.51-54.04,42.51c-9,12.5-4,61.55-4,61.55c-21-12.95-1.5,45.45-1.5,45.45c5,13.5,8,1,8,1c2.89,12.7,6.64,23.46,10.93,32.59c-0.78,38.87,1.32,70.54,1.15,83.21c7.79,0.1,53.6-30.51,61.45-32.32C179.16,318.81,113.75,264.75,125.25,227.25z"/><g class="eyes eyes-8"><path fill="#ffffff" fill-opacity="0.7" d="M125.65,196.01c5.16-0.65,8.73-4.66,14.5-5c5.9-0.34,9.51,2.28,12.05,7.5c-2.21,3.43-23.14,0.68-26.55-2"/><path fill="#ffffff" fill-opacity="0.7" d="M206.65,196.51c5.14-0.88,8.39-4.48,14.5-4c3.63,0.28,13.38,2.66,11.41,7.93c-8.8,2.55-17.06,2.17-24.91-3.43"/><path fill="#483224" d="M138.65,193.18c-4.59,4.13,2.7,8.07,6.68,5.08c5.02-3.77-3.68-7.24-7.02-5.08"/><path fill="#483224" d="M217.98,193.51c-3.32,0.64-2.99,6.32,0,7.6c3.16,1.35,7.51-1.13,7.27-4.54c-2.91-1.7-4.18-2.46-7.61-3.06"/></g><g class="eyebrows eyebrows-23"><path fill="#141615" fill-opacity="0.6" d="M126.853,179.854c0.603,0.032,1.155-0.222,1.683-0.322c0.946-0.179,1.883,0.002,2.843-0.079c1.353-0.115,1.499-0.578,2.132-1.355c1.766-2.168,5.152-1.074,8.239-0.68c3.517,0.449,7.607,0.62,10.617,2.147c1.113,0.564,2.293,0.73,3.485,1.079c1.429,0.419,2.677,1.031,4.061,1.345c1.119,0.254,2.692,0.615,3.861,0.403c0.632-0.114,2.214-0.879,2.473-1.424c0.881-1.855-4.027-4.899-5.37-6.024c-2.052-1.719-5.931-3.486-9.038-3.479c-3.089,0.007-6.039,0.093-9.272-0.162c-1.475-0.117-2.812-0.263-4.26-0.051c-1.743,0.255-3.923,0.1-5.554,0.512c-1.797,0.454-3.212,1.743-4.861,2.447c-1.926,0.823-3.241,2.281-3.177,4.144c0.088,2.547,2.347,0.398,3.517,1.514"/><path fill="#141615" fill-opacity="0.6" d="M195.837,180.402c0.504-0.694,0.566-1.756,1.075-2.56c0.381-0.601,0.789-1.174,1.292-1.736c0.923-1.03,2.138-1.801,3.43-2.56c2.223-1.306,4.891-1.839,7.509-2.357c2.446-0.484,4.933-1.125,7.362-1.585c2.802-0.531,5.815,0.974,8.187,1.806c1.087,0.381,2.155,0.856,3.265,1.273c1.565,0.589,3.15,0.66,4.113,1.912c0.613,0.797,1.192,1.967,1.286,2.897c0.172,1.706-1.442,1.344-2.938,0.782c-1.869-0.702-3.804-1.223-5.817-1.71c-1.177-0.285-2.415-0.561-3.545-0.917c-0.568-0.179-1.188-0.603-1.851-0.604c-1.304-0.002-2.865,0.938-4.145,1.315c-1.887,0.555-3.403,0.963-5.1,1.757c-3.227,1.51-5.862,3.439-9.491,4.431c-1.579,0.432-2.419,0.441-3.601-0.438c-1.234-0.918-0.467-1.622-0.992-2.567"/></g><g class="chin chin-17"><path fill="none" stroke="#dea99b" stroke-miterlimit="10" d="M143.3,308.7c2.9,0.4,6,5.3,8.4,7c2.9,2.1,5.9,2.6,9,3.7 c5.7,2,11.3,3.6,17.4,3.9c3.4,0.2,5.8-0.8,9-0.9c3.8-0.1,6.5,0.9,10.1-0.3c7.5-2.4,14.8-3.1,19.8-10.2c0.4-0.5,0.8-1,1.1-1.6"/></g><g class="hair hair-1007"><path fill="#1E1E1E" d="M105.1,198.5c2.5-3,1.6-12.1,1.2-16.1c-0.6-7.1-1.6-13.9,2.5-20.1c2.9-4.3,7.1-10,8.1-15.2c1.3-7,0.4-13.3,4.2-19.6c2.9-4.9,9.2-10.1,14.4-12.2c5.5-2.3,11.9-0.9,17.7-2.2c5.2-1.3,9.9-2.4,15.4-2.5c8.5-0.1,17.4,0.8,25.9,1.8c8.2,1,18-0.6,24.4,5.3c2.3,2.1,4.6,3.7,7,5.6c2.6,1.9,5.9,4.5,7.4,7.2c1.7,3,0.9,6.5,1.2,9.9c0.3,3.1,1.6,4.9,3.3,7.5c2,3,2.6,6,3.8,9.4c2.3,6.5,6.6,10.7,6.2,18.2c-0.3,6-0.2,11.9,0.9,17.7c0.5,2.7,1.2,5.8,0.9,8.6c1-1.5,1.7-3.4,2.8-4.9c0.9-1.2,2.5-2.2,3.4-3.4c1.7-2.5,2.1-5.4,2.3-8.3c0.2-2.9-0.3-5.8,0-8.7c0.2-1.8,1.1-2.5,1.5-4.1c0.4-1.5-0.1-3.3,0-4.9c0.3-3.9,0.8-6.6-0.3-10.5c-1-3.4-1.6-7.6-2.6-11.2c-1.5-5.2-2.1-11.2-3.9-16.1c-1.4-3.8-4.1-8.1-6.2-11.7c-1.7-2.9-3.4-6.3-5.3-9c-2.3-3.2-5.9-5.5-8.6-8.5c-1.8-2-3.8-4.9-5.9-6.4c-2.6-1.9-6.1-2.6-9-3.9c-4.1-1.9-7.9-4-12.1-5.7c-3.1-1.2-6.8-3.6-9.9-4.4c-3.2-0.8-7.6,0-10.9,0c-4.3,0-8.3-0.2-12.7,0c-3.4,0.1-6.1,0.1-9.2,0.9c-3.6,1-6.2,1.9-9.5,3.4c-4.9,2.2-10.1,2.9-14.8,5.5c-3.7,2-7.5,3.1-11.1,5c-11,5.8-19.1,15.8-25.5,26.1c-3.9,6.4-2.5,12.7-5.8,19.8c-1.9,4.1-0.7,5.9-1.3,9.4c-0.6,3.3-3.4,4-1.9,8.3c2.4,6.6-1.9,16.8,1.6,22.7c1.4,2.3,3.2,4.1,4.6,6.6c1.4,2.5,2,5.3,3.4,7.9c0.7,1.3,0.6,2.4,1.9,3.2"/></g><g class="nose nose-8"><path fill="#d9a496" d="M186.01,198.89c-0.17,1.53-0.26,3.95-0.49,5.46c-0.58,3.86,0.9,6.29,0.88,10.24 c-0.02,6.65,6.48,12.91,4.38,19.46c-5.2-0.71-6.56-12.33-6.95-16.23c-0.33-3.31-1.14-7.11-1.01-10.49 c0.11-2.91,1.43-6.24,2.54-9.75C185.35,197.6,186.24,196.78,186.01,198.89z"/><path fill="#b17c6e" d="M161.25,240.25c2.63-2.83,4.53-2.89,7.5-0.94c1.32,0.87,5.69,2.64,5.03,4.44c-1.12,3.04-7.16,0.55-8.78,0c-0.94-0.32-6.45-2.02-3.5-3.75"/><path fill="#b17c6e" d="M188.25,239.25c2.48-1.05,3.94-2.43,6.69-1.44c1.84,0.66,5.71,2.67,4.3,4.49c-2.64,3.41-14.05,0.07-10.49-3.3"/><path fill="none" stroke="#d49f91" stroke-miterlimit="10" d="M159.25,226.25c-2.79,0.32-6.4,3.88-8.2,6.05c-2.02,2.44-2.68,5.1-1.12,8.02c1.54,2.87,3.68,5.12,6.57,6.63c2.66,1.39,6.91,0.25,9,1.81"/><path fill="none" stroke="#d49f91" stroke-miterlimit="10" d="M174.25,247.25c1.6-0.23,2.64,1.12,4.18,1.5c3.76,0.94,5.48-1.55,8.86-1.93c2.22-0.25,4.24,1.13,6.41,1.41c6.13,0.79,12.03-3.1,13.8-8.98c1.31-4.33-1.4-5.91-4.76-8.49c-2.09-1.61-4.13-2.11-6.49-3.19c-2.23-1.03-4.25-6.06-5.76-6.32"/></g><g class="mouth mouth-10"><path fill="#D48489" d="M157.83,269.87c1.52-2.85,3.22-4.73,6.45-5.69c2.21-0.65,4.14,0.43,6.31,1c2.47,0.65,4.79,0.66,7.41,0.77c4.82,0.21,9.68,2.1,14.49,1.38c3.07-0.46,6.68-0.63,9.78-0.01c0.4,0.08,0.89,0,1.31-0.01c-1,1.02-1,3.36-1.75,4.71c-0.65,1.17-1.58,2.3-2.54,3.28c-2.21,2.26-4.36,2.42-7.35,3.43c-2.58,0.87-5.51,1.95-8.25,2.31c-2.97,0.38-6.07-0.22-9.04,0.14c-3.3,0.39-5.23,1.18-8-0.77c-2.28-1.61-6-3.04-7.68-5.05c-1.27-1.52-1.34-3.87-1.33-5.87"/><path fill="#FCFCFD" d="M158.22,269.48c0.87,0.79,0.27,3.14,0.98,4.31c0.58,0.96,1.86,2.36,2.78,2.69c1.11,0.4,1.4-0.17,2.15-0.34c1.11-0.25,1-0.19,1.95-0.04c1.85,0.29,2.12,0.55,3.53,1.56c2.84,2.03,5.3,2.38,8.57,1.37c3.18-0.98,6.48-1.12,9.59-2.31c1.38-0.53,2.78-0.78,4.31-1.16c1.4-0.35,3.26-0.26,4.54-0.75c1.86-0.7,5.85-3.14,6-5.28c-2.84-1.65-5.9-1.15-8.97-1.02c-0.81,0.03-1.6-0.09-2.31,0.19c-0.19,0.07-0.75,0.77-0.86,0.79c-0.88,0.13-0.5-0.16-1.13-0.25c-1.71-0.23-0.99-1.01-2.31,0.46c-0.48,0.54-0.77,1.16-1.23,1.78c-1.05-1.74-0.17-2.25-2.73-2.38c-0.67-0.03-1.71-0.18-2.35,0c-0.65,0.17-1.56,1.33-1.91,1.39c-1.32,0.21-1.77-1.56-2.83-2.36c-1.31-0.99-3.15-0.84-4.82-0.75c0.13,0.82,0.75,1.52,1.13,2.29c-1.08-0.13-5.05-3.66-5.49-0.58c-1.44-0.77-5.78-3.05-5.87,0.39c-0.84-0.27-1.89-0.23-2.52,0.42"/><path fill="#a7696a" fill-opacity="0.9" d="M153.13,267.52c0.78,1.37,1.35,2.74,2.5,3.97c1.25,1.35,1.61,2.25,2.39,3.82c1.14,2.29,3.61,5.6,5.73,7.04c2.56,1.74,6.81,3.19,9.7,3.17c2.77-0.02,5.16,0.46,7.84-0.39c1.81-0.57,3.38-1.2,5.31-1.37c3.19-0.29,5.68-0.1,8.41-1.66c2.59-1.48,4.33-2.72,6.47-4.6c2.61-2.3,6.47-6.95,6.05-10.74c-3.24,0.45-4.63,3.96-7.42,5.47c-2.6,1.4-6.04,2.32-8.8,3.09c-1.59,0.44-3.28-0.01-4.91,0.23c-1.46,0.21-3.13,0.68-4.69,0.98c-3.59,0.69-6.56,2.32-10.17,0.64c-1.71-0.79-3.02-1.57-4.89-1.85c-1.9-0.28-4.69,0.32-6.26-0.55c-1.29-0.71-2.26-2.35-3.38-3.32c-1.21-1.06-2.81-1.89-3.48-3.33"/><path fill="#d9a496" d="M152.54,267.92c1.77-0.41,2.89-2.63,4.5-3.48c1.56-0.82,3.6-1.03,5.3-1.45c4.24-1.04,10.07-1.44,14.46-0.75c1.75,0.28,2.86,1.11,4.7,1.17c1.84,0.07,3.65,0.16,5.48,0.2c4.26,0.09,8.14,1.38,12.34,1.37c2.7,0,7.2,0.73,8.97,2.7c-3.92,2.3-7.55,1.21-11.93,1.21c-3.59,0-6.78-0.89-10.36-0.78c-3.96,0.12-6.8,1.64-10.72,0.34c-3.28-1.09-6.75-2.05-10.23-2.1c-2.11-0.03-4.54,0.47-6.63,0.78c-1.83,0.27-4.23,1.49-6.02,1.18c0.64,0.01,1.14-0.21,1.7-0.39"/></g></svg>