<svg class="face" xmlns="http://www.w3.org/2000/svg" xmlns:xlink="http://www.w3.org/1999/xlink" x="0px" y="0px" width="357px" height="358px" viewBox="0 0 357 358"><path fill="#917357" d="M268.5,189.04c-1.41-1.92-2.86-2.74-4.22-2.91c-3.96-0.47-7.28,4.62-7.28,4.62c2.38-21.04,0-32.96,0-32.96c-16.83-65.56-65.84-69.37-76.8-69.39c-0.71,0.02-1.44,0.04-2.2,0.06c-54,1.42-71.5,44.58-71.5,44.58c-9,12.5-4,61.55-4,61.55c-21-12.95-1.5,45.45-1.5,45.45c5,13.5,8,1,8,1c2.88,12.67,6.63,23.41,10.9,32.53c0.85,44.99,1.74,68.73,1.44,83.43c23.33,0,116.79,0,123.83,0l1.52-85.32c6.58-17.33,7.31-32.14,7.31-32.14c2.5,3,6.5,1.5,6.5,1.5C272.75,234.79,268.5,189.04,268.5,189.04z M255.96,199.92C255.93,200.18,255.94,200.15,255.96,199.92L255.96,199.92z M256.22,197.67c0.03-0.3,0.07-0.64,0.11-1.01C256.29,197.01,256.25,197.35,256.22,197.67z M256.82,192.32c0.06-0.55,0.11-0.99,0.14-1.26C256.91,191.5,256.87,191.92,256.82,192.32z M265.33,190.26c-0.04-0.16-0.09-0.37-0.16-0.62c-0.13-0.5-0.31-1.2-0.54-2.1c0.22,0.86,0.4,1.58,0.54,2.1C265.24,189.9,265.29,190.1,265.33,190.26C265.47,190.79,265.48,190.83,265.33,190.26z"/><path fill="#8c6e52" d="M125.25,227.25c4.5-6.5,6.97-8.84,12.65-10c4.87-0.99,13.28-2.45,17.35-5.75c9.63-7.79,13.17-20.35,5.59-28.43c-4.32-4.6-7.03-7.3-13.05-8.81c-4.83-1.22-11.04-2.16-15.05-6.1c-7.84-7.69-11.29-20.73-10.82-31.2c0.41-8.95,9.17-18.79,15.15-24.83c7.04-7.12,15.71-14.12,23.72-20.42c-40.38,8.84-54.04,42.51-54.04,42.51c-9,12.5-4,61.55-4,61.55c-21-12.95-1.5,45.45-1.5,45.45c5,13.5,8,1,8,1c2.89,12.7,6.64,23.46,10.93,32.59c-0.78,38.87,1.32,70.54,1.15,83.21c7.79,0.1,53.6-30.51,61.45-32.32C179.16,318.81,113.75,264.75,125.25,227.25z"/><g class="eyes eyes-13"><path fill="#ffffff" fill-opacity="0.7" d="M132.33,199.83c1.11,0.03,3.22-1.89,4.34-2.34c1.76-0.71,3.45-1.13,5.34-1.33c2.77-0.29,6.43-0.69,8.99,0.37c3.64,1.5,6.2,5.23,9.95,6.43c-2.99,0.25-6.11-0.28-9.1,0.07c-2.65,0.3-5.29,1.22-8.02,0.81c-3.56-0.53-8.45-2.35-11.33-4.01"/><path fill="#ffffff" fill-opacity="0.7" d="M205.83,202.5c1.32-3,5.15-2.68,7.86-2.83c3.09-0.17,5.56-0.72,8.6-0.37c3.01,0.34,6.24,0.13,9.04,1.38c2.06,0.91,4.3,2.09,6.29,3.34c-2.41-0.25-5,0.96-7.28,1.48c-3.45,0.79-6.57,1.18-10.18,1.18c-3.14,0-6.57,0.56-9.16-1.33c-1.53-1.12-3.11-2.3-4.5-3.34"/><path fill="#3d270f" d="M142.01,196.17c-1.09,0.11-2.11,0.31-3.12,0.59c-0.46,1.23-0.61,2.67-0.2,3.79c0.45,1.24,1.33,2.1,2.29,2.68c1,0.27,1.97,0.48,2.85,0.61c2.35,0.35,4.63-0.28,6.92-0.66c1.36-1.21,2.57-3.08,2.42-5.45c-0.69-0.47-1.4-0.88-2.17-1.2C148.44,195.48,144.78,195.88,142.01,196.17z"/><path fill="#3d270f" d="M214.01,199.65c-0.54,1.2-0.53,2.71,0.39,4.19c0.86,1.38,1.88,2.29,3.01,2.89c0.92-0.02,1.84-0.07,2.74-0.07c2.24,0,4.28-0.17,6.34-0.47c1.57-1.1,2.67-2.73,1.51-4.65c-0.52-0.86-1.21-1.48-1.98-1.97c-1.25-0.09-2.51-0.14-3.73-0.28C219.36,198.96,216.95,199.46,214.01,199.65z"/></g><g class="eyebrows eyebrows-17"><path fill="#0e0e0c" fill-opacity="0.6" d="M121.5,192.83c3.86-4.32,7.58-8.57,12.6-11.58c1.17-0.7,2.49-1.83,3.85-2.09c1.61-0.31,3.54,0.18,5.19,0.17c2.5,0,4.75-0.5,7.22-0.5c5.14,0.01,16.15-1.84,17.81,4.93c0.61,2.5-0.97,2.81-3.23,2.69c-3.6-0.18-7.19-0.25-10.77-0.76c-3.42-0.49-8.1-1.31-11.55-0.71c-2.71,0.47-5.58,2.86-8.13,3.89c-2.83,1.14-5.36,2.37-8.18,3.72c-1,0.48-2.45,1.28-3.53,1.56c-2.05,0.53-1.62-0.64-0.79-2.16"/><path fill="#0e0e0c" fill-opacity="0.6" d="M220.83,177.17c-3.94-0.4-9.86-1.37-13.46,0.54c-1.01,0.54-1.83,1.28-3,1.67c-1.41,0.47-2.84,0.55-4.23,1.14c-1.88,0.8-5.94,2.7-6.77,4.66c-1.4,3.29,3.34,3.56,5.42,3.37c1.87-0.17,3.45,0.13,5.17-0.49c1.73-0.62,2.92-2.04,4.48-2.84c1.98-1.02,4.6-0.82,6.8-0.71c5.99,0.3,12.94,1.06,18.09,4.38c1.33,0.86,5.56,4.05,7.54,2.81c2.19-1.38-5.09-6.95-6.35-7.95c-2.21-1.74-5.34-3.88-7.97-4.84c-2.76-1.01-3.12-0.64-5.99-1.89"/></g><g class="chin chin-2"><path display="inline" fill="none" stroke="#8c6e52" stroke-miterlimit="10" d="M141.33,306c2.85,2.31,3.41,3.39,6.14,5.75c3.06,2.64,8.02,6.85,11.86,8.01c7.8,2.35,13.18,6.99,21.78,7.24c7.86,0.23,16.24-4.27,22.96-7.98c7.54-4.17,14.8-10.01,20.59-16.02"/></g><g class="hair hair-1002"><path fill="#0e0e0c" d="M259.93,148.08c-1.48-4.6-3.76-8.81-4.77-13.56c-0.85-4.01-1.78-7.77-3.92-11.31c-0.86-1.43-1.78-2.81-2.73-4.17c-1.61-1.43-3.15-2.92-4.6-4.6c-2.07-2.41-4.16-4.98-7-6.5c-1.84-0.64-3.12-1.15-4.14-1.73c-2.02-0.75-4.06-1.5-5.79-2.64c-2.67-1.76-4.84-4.45-7.7-5.86c-6.59-3.25-14.16-5.26-21.04-7.92c-3.27-1.27-6.63-2.53-10.2-2.23c-3.43,0.29-6.84,0.91-10.29,0.94c-7.55,0.08-15.09-0.61-22.25,1.25c-6.5,1.69-12.18,5.54-18.67,7.07c-7.55,1.78-13.69,5.79-19.2,10.69c-0.86,1.66-1.45,2.75-3.8,3.61c-1.34,1.34-2.65,2.72-3.94,4.11c-1.24,2.51-2.66,4.94-3.83,7.54c-0.77,1.71-1.55,3.4-2.34,5.1c0.02,1.43-0.13,2.85-0.65,4.21c-0.04,0.11-0.09,0.22-0.14,0.33c0.16,1.66,0.12,3.32-0.36,4.92c-0.52,1.73-1.25,3.35-2.04,4.94c0.14,0.63,0.16,1.32,0.04,2.06c-1.16,6.79-2.6,13.71-4.35,20.38c0.27,5.19,0.97,10.37,0.62,15.59c-0.27,4.12,1.15,8.06,1.58,12.03c2.12,2.92,3.22,6.2,3.69,9.71c0.13,0.97,0.26,1.91,0.4,2.84c0.5-0.81,1.1-1.58,1.8-2.3c0.27-3,0.74-5.94,1.59-8.64c1.61-5.15,3.16-11.5,6.33-15.89c1.47-2.04,3.76-3.89,4.39-6.31c0.73-2.83,0.47-6.69,0.86-9.54c0.8-5.9,0.51-10.99,2.46-16.66c0.88-2.56,0.5-4.84,1.91-7.25c1.38-2.36,3.65-4.68,5.57-6.62c5.28-5.33,12.18-3.4,19.2-4.11c5.16-0.52,11.46-0.02,16.89-0.58c5.89-0.6,10.52-0.56,16.5-0.25c6.24,0.32,11.91-1.08,18.09-0.75c3.08,0.16,6.43-0.64,9.31-0.02c2.94,0.64,11.6,0.56,14.35,1.52c5.55,1.94,7.28,4.19,9.25,10c2.7,7.96,0.74,15.6,2.25,20.5c1.33,4.33,9.83,15.79,12.29,19.5c1.39,2.11,2.44,5.78,3.23,10.02c0.11,0.21,0.22,0.41,0.3,0.64c1.19,3.26,3.22,5.99,3.75,9.5c0.13,0.88,0.05,1.69-0.18,2.42c0,0.11,0,0.22-0.01,0.33c0.15,0.38,0.28,0.76,0.42,1.14c0.82-3.76,1.75-7.35,2.62-8.23c0.33-0.33,0.64-0.66,0.94-0.99c0.58-5.43,3.07-10.51,3.24-16.02c0.2-6.65,0.24-13.3,0.43-19.94c0.08-2.79-0.05-5.55-0.34-8.28C259.93,148.09,259.93,148.08,259.93,148.08z"/></g><g class="nose nose-1"><path fill="#87694d" d="M186.01,198.89c-0.17,1.53-0.26,3.95-0.49,5.46c-0.58,3.86,0.9,6.29,0.88,10.24 c-0.02,6.65,6.48,12.91,4.38,19.46c-5.2-0.71-6.56-12.33-6.95-16.23c-0.33-3.31-1.14-7.11-1.01-10.49 c0.11-2.91,1.43-6.24,2.54-9.75C185.35,197.6,186.24,196.78,186.01,198.89z"/><path fill="none" stroke="#826448" stroke-miterlimit="10" d="M168.87,209.42c1.28,4.35,3.91,6.45,2.31,10.98 c-0.86,2.45-2.47,5.01-3.98,7.33c-2.59,3.99-11.16,12.3-7.08,17.1c2.22,2.62,4.82,0.96,7.41,0.58c3.94-0.58,6.85,0.88,10.37,1.68 c5.68,1.29,10.55-1.54,16.31-0.43c3.23,0.62,9.41,2.38,8.66-3.58"/></g><g class="mouth mouth-19"><path fill="#7d5f43" fill-opacity="1" d="M151.5,271c0.77,0.17,1.29,0.83,1.89,1.26c1.15,0.84,2.64,1.12,4.06,1.48c1.87,0.48,3.62,1.29,5.51,1.71c1.96,0.44,3.53,1.21,5.4,1.81c4.54,1.47,9.65,0.79,14.42,0.97c0.98,0.04,2.02,0.35,2.98,0.25c0.91-0.1,1.64-0.63,2.49-0.88c1-0.29,2.02-0.17,3.03-0.38c1.08-0.22,2.18-0.67,3.27-1.02c3.49-1.14,6.97-2.53,10.2-4.06c1.47-0.7,2.58-1.79,3.94-2.54c-3.5,0.88-7.71-0.12-11.31-0.12c-3.33,0-6.64-0.8-10.01-0.5c-1.62,0.15-2.39,0.86-3.87,1.48c-1.13,0.47-2.8,0.32-4.03,0.27c-4.11-0.18-8.24-1.13-12.34-0.75c-2.89,0.27-5.48,0.9-8.27,1.15c-1.29,0.12-2.56,0.32-3.88,0.19c-1.19-0.11-2.3-0.63-3.49-0.61c0.01,0.13,0.09,0.25,0.15,0.39"/><path fill="#87694d" d="M151.63,270.75c1.2-1.41,2.12-2.21,3.97-2.88c1.28-0.46,2.48-0.92,3.61-1.66c0.86-0.56,1.38-1.06,2.46-1.35c3.68-0.96,7.58-2.58,11.48-2.62c0.73-0.01,4.14,0.89,5.46,0.75c1.6-0.17,3.17-0.25,4.81-0.25c3.34,0,6.84,0.59,10.1,1.23c3.11,0.6,10.94,4.84,12.49,5.02c0.77,0.09,1.71,0.04,2.24,0.6c-2.1,1.45-4.24,1.02-6.61,1.4c-1.77,0.29-3.42,0.2-5.19,0.12c-1.92-0.09-4.19-0.51-6.04-0.19c-1.35,0.23-2.72,0.89-4.05,1.26c-3.43,0.94-7.62,1.14-11.13,0.73c-3.42-0.4-6.62-2.15-10.13-1.78c-1.36,0.14-2.69,0.4-3.97,0.65c-1.98,0.39-3.9-0.22-5.85-0.41c-1.24-0.12-2.51-0.08-3.77-0.14c0.09-0.3,0.33-0.45,0.62-0.61"/></g></svg>