<svg id="s588d27888dbbf" class="face" xmlns="http://www.w3.org/2000/svg" xmlns:xlink="http://www.w3.org/1999/xlink" x="0px" y="0px" width="357px" height="358px" viewBox="0 0 357 358"><path fill="#d69778" d="M268.5,189.04c-1.41-1.92-2.86-2.74-4.22-2.91c-3.96-0.47-7.28,4.62-7.28,4.62c2.38-21.04,0-32.96,0-32.96c-16.83-65.56-65.84-69.37-76.8-69.39c-0.71,0.02-1.44,0.04-2.2,0.06c-54,1.42-71.5,44.58-71.5,44.58c-9,12.5-4,61.55-4,61.55c-21-12.95-1.5,45.45-1.5,45.45c5,13.5,8,1,8,1c2.88,12.67,6.63,23.41,10.9,32.53c0.85,44.99,1.74,68.73,1.44,83.43c23.33,0,116.79,0,123.83,0l1.52-85.32c6.58-17.33,7.31-32.14,7.31-32.14c2.5,3,6.5,1.5,6.5,1.5C272.75,234.79,268.5,189.04,268.5,189.04z M255.96,199.92C255.93,200.18,255.94,200.15,255.96,199.92L255.96,199.92z M256.22,197.67c0.03-0.3,0.07-0.64,0.11-1.01C256.29,197.01,256.25,197.35,256.22,197.67z M256.82,192.32c0.06-0.55,0.11-0.99,0.14-1.26C256.91,191.5,256.87,191.92,256.82,192.32z M265.33,190.26c-0.04-0.16-0.09-0.37-0.16-0.62c-0.13-0.5-0.31-1.2-0.54-2.1c0.22,0.86,0.4,1.58,0.54,2.1C265.24,189.9,265.29,190.1,265.33,190.26C265.47,190.79,265.48,190.83,265.33,190.26z"/><path fill="#d19273" d="M125.25,227.25c4.5-6.5,6.97-8.84,12.65-10c4.87-0.99,13.28-2.45,17.35-5.75c9.63-7.79,13.17-20.35,5.59-28.43c-4.32-4.6-7.03-7.3-13.05-8.81c-4.83-1.22-11.04-2.16-15.05-6.1c-7.84-7.69-11.29-20.73-10.82-31.2c0.41-8.95,9.17-18.79,15.15-24.83c7.04-7.12,15.71-14.12,23.72-20.42c-40.38,8.84-54.04,42.51-54.04,42.51c-9,12.5-4,61.55-4,61.55c-21-12.95-1.5,45.45-1.5,45.45c5,13.5,8,1,8,1c2.89,12.7,6.64,23.46,10.93,32.59c-0.78,38.87,1.32,70.54,1.15,83.21c7.79,0.1,53.6-30.51,61.45-32.32C179.16,318.81,113.75,264.75,125.25,227.25z"/><g class="eyes eyes-25"><path fill="#FFFFFF" fill-opacity="0.7" d="M136.3,206.4c8.7-3,20.3-9,27.7,0.3c-8.7,2.2-21.4-3-28.8,0"/><path fill="#FFFFFF" fill-opacity="0.7" d="M197.3,206c4.3-1.9,8.5-3.7,12.9-5.4c-0.3,0.1-0.4,0.2-0.4,0.4c3-0.1,6.9,1.2,9.8,2.2 c2.2,0.8,5,1.9,5.7,4.1c-4.7,0.1-9.6-0.6-14.5-0.6c-4.4,0-8.9,0.2-13.2,0c3.3-3.2,8.2-5.5,12.5-5.2"/><path fill="#1e2420" d="M144.8,203.4c0.2,0.9,0.6,1.8,1.2,2.6c3.5,0.4,7.1,0.9,10.6,1.1c0.3-0.7,0.5-1.6,0.4-2.7 c0-1-0.2-1.8-0.4-2.5C152.8,201.2,148.8,202.1,144.8,203.4z"/><path fill="#1e2420" d="M218.2,207.1c0.8-1.1,1.2-2.4,1.1-3.9c-2.9-1-6.6-2.3-9.5-2.1c0-0.2,0.1-0.3,0.4-0.4 c-0.8,0.3-1.5,0.6-2.3,0.9c-0.2,0-0.4,0-0.6,0.1c-0.4,1-0.6,2.1-0.5,3.3l0-0.2c-0.1,0.8-0.1,1.5,0,2.1c1.3,0,2.6,0,3.9,0 C213.2,206.8,215.7,206.9,218.2,207.1z"/></g><g class="eyebrows eyebrows-14"><path fill="#28130e" fill-opacity="0.6" d="M120.17,186c1.25-0.65,2.3-1.9,3.34-2.83c1.34-1.19,10.29-8.44,11.32-8.85c1.44-0.57,10.85,1.22,13.56,2.41c3.76,1.65,6.7,4.44,9.95,6.8c1.56,1.14,7.51,6.3,5.94,7.88c-2.27,2.29-4.02-0.61-5.74-1.61c-3.42-2-7.36-3.42-10.92-5.15c-5.21-2.53-10.62-2.72-16.13-0.82c-3.8,1.31-6.93,4.22-10.82,5c-0.76,0.15-1.51,0.21-2.33,0.15c0.31-0.98,2.34-3.2,3.15-3.82"/><path fill="#28130e" fill-opacity="0.6" d="M195,186.67c0.74-5.42,8.81-7.29,12.83-8.59c2-0.65,4.1-0.39,6.1-0.91c1.75-0.46,3.4-1.23,5.2-1.5c1.94-0.29,4.62-0.78,6.54-0.17c2.41,0.76,4.42,4.39,6,6.31c1.77,2.15,3.63,4.27,5.5,6.2c2.25,2.32,3.49,5.23,3.47,8.64c-1.66,0.26-3.15-1.94-4.3-2.82c-1.52-1.17-3.25-2.41-4.81-3.53c-2.72-1.95-5.28-4.15-8.45-5.09c-8.57-2.55-16.8,3.21-25.07,3.96c-3.17,0.29-2.03-0.96-2.85-3.17"/></g><g class="chin chin-16"><path fill="none" stroke="#d19273" stroke-width="0.917" stroke-miterlimit="10" d="M154.876,305.733c4.194,4.663,6.968,8.794,12.93,10.785c5.64,1.882,10.181,2.036,16.139,1.052c3.964-0.655,8.851-1.361,12.616-3.523c3.053-1.753,7.814-7.65,9.604-11.092"/></g><g class="hair hair-3015"><path fill="#28130e" d="M116.6,265.6c0.1,0.2,0.3,0.3,0.5,0.5c-1-2.4-1.9-4.9-2.7-7.4c-1.6-4.9-2.4-12.1-6.1-16.3c0,0-0.1,0-0.1,0C110.9,250.2,113.8,257.9,116.6,265.6z"/><path fill="#28130e" d="M262.1,161c-0.4-9.3-3.7-18.1-4.8-27.3c-5.1-8.1-11.2-15.5-17.2-23.2c-3.7-4.7-7.5-9.4-11.9-13.6c-1.9-1.1-3.9-2.1-5.9-3.1c-9-4.5-17.5-8.6-27.5-9.2c-4.8,0.9-7.9,2.1-7.9,2.1c-1.8-0.9-3.4-1.6-4.8-2.3c-0.2,0.1-0.5,0.1-0.7,0.1c-7.2,0.6-14.6,0.4-21.9,0.6c-3.3,0.8-6.6,1.7-9.8,3c-0.7,0.6-1.4,1.1-2.1,1.7c-5,4-10,8-15.2,11.8c-7.3,5.4-15,11.7-20.4,19.3c-1.9,4-3.7,8.1-5.1,12.2c-2.6,7.6-4.4,15.2-7.4,22.7c0.2,4-0.6,7.7-1.7,11.5c1.4,9.4,3.2,18.7,3.8,28.2c1.5,0.4,3,1,4.4,1.6c0.2-6.7,0.7-11.3,0.7-11.3l3.7-6.7l1.8-6.8c-0.4-11.8,9.8-23.7,17.8-31.2c2.4-2.3,5-4.4,8.3-5.5c0.6-0.2,1.2-0.4,1.8-0.5c2.3-1.2,4.9-1.8,7.9-2.2c1.3-0.6,2.7-1.1,4-1.6c4.5-2.9,8.4-6.8,13.9-8.1c2.3-0.5,4.4,0.3,5.6,2.3c0.1,0.1,0.1,0.2,0.2,0.3c1.3-0.3,2-0.4,2-0.4c3.8,1,7.2,1.9,10.1,2.7c5.9,0,11.9,0.9,17.9,1c2.1,0,3.8,1.5,4.6,3.3c11.2,3.2,20.8,8.6,28.6,17.9c3.8,4.6,6,9.7,7.3,15c2.3,2.2,4.4,4.6,5.6,7.4c3.4,7.4,2.2,15.7,5,23.1c1-0.5,2-1,3.1-1.3c0.3-0.3,0.6-0.5,1-0.7c0.1-0.2,0.2-0.3,0.4-0.5c1.4-4.7-0.2-10.1,0.9-14.8C260,172.7,262.3,167,262.1,161z"/><path fill="#3c2722" d="M150.3,114.3c-2.7,2-4.9,5.2-7.6,7.1c-6.6,4.3-14.2,5.3-20,10.9c-3.3,3.2-6.6,6.5-10.3,9.4c1.5-3.4,2.9-6.2,5.9-8.7c2.1-1.8,4.8-3,6.4-5.4c1.3-2.1,1.6-4.4,3.2-6.2c1.1-1.2,2.6-2.2,3.7-3.5c6.2-6.7,13-13,21.4-16.1c-3.4-1.8-9.5,1.2-6.4-5c-2.5,0.7-5.1,0-7.7,0.2c-4.2,3.8-8.5,7.5-12.5,11.4c-7.6,7.3-15.2,15.3-18,25.7c-3.2,11.9-3.4,24.6-5.2,36.9c0.9-2.3,1.8-4.5,2.3-6.9c0.6-2.7,0.6-6.3,2.4-8.6c1.9-2.5,5.1-3.7,7.1-6.3c2.2-2.8,3.2-5.7,4.8-8.6c1.5-2.8,4-5.1,6.1-7.6c1.6-1.9,3-4.1,5.4-5.2c2.4-1.1,5.8-1,8.4-1.7c2.7-0.7,5-1.5,7.6-2.7c4.1-1.9,7.3-4.2,10.4-7.3c1.6-1.5,3.2-4,5.4-5C158.6,111.5,154.2,111.5,150.3,114.3z"/><path fill="#3c2722" d="M244.7,136c2.4,5.3,6.2,8.7,9.5,13.1c-0.8-4.5-1.8-9-3.2-13.3c-3.1-9.6-8.3-17.9-14.8-25.6c-9.9-11.5-22.4-21.6-37.5-22.1c-0.3,0.1-0.7,0.2-1,0.3c4.1,1.6,6.7,6.1,10.5,8.3c-4.6-1.6-10.6-2-15.5-2c5.3,3.6,11.1,5.7,16.1,9.9c4.9,4.1,5.6,12.5,10,16.6c-3.3-1.1-5.7-3.5-8.9-4.8c-2.2-0.9-4.5-1-6.7-2c-2.2-1.1-4.2-3.1-6.5-3.6c0.5,0.1,1-0.1,1.5-0.1c-5.3-3.4-8.8-8.7-14.6-11.4c-5.7-2.6-12.4-6.5-18.8-5.8c2.5,0.9,4.7,3.1,7.2,4.3c2.9,1.4,12.3,3.6,12.6,6.6c-3.2,2-6.9,6.5-6.6,10.7c3.9-1.5,12.5-3.7,16-1.4c0.3,0.2,0.6,0.4,0.8,0.6c0.9,0.1,1.9,0.5,2.7,1.3c0.6,0.5,1.2,1,1.9,1.5c0,0,0,0,0,0c3.3,1.4,7,3,9.9,5.1c0.7,0.5,1.4,1,2,1.5c3.7,1,7.1,2.3,10.2,4.2c1-3.5,6.6-5.4,9.3-1.3c2.4,3.8,5,7.6,6.2,11.7c1,0.5,1.9,0.9,2.7,1.1c-0.6-2.5-2.3-4.6-3.4-7c-2.3-5.1-2.9-10.7-7.8-14.4C236.6,122.7,240.6,126.8,244.7,136z"/><path fill="#28130e" d="M254.6,252.7c0.2-3.8,0.3-7.6,0.3-11.4c-0.3-0.2-0.6-0.5-0.8-0.8c0,0-0.3,6.9-2.7,16.9C252.4,255.8,253.5,254.2,254.6,252.7z"/></g><g class="nose nose-16"><path fill="#cc8d6e" d="M186.01,198.89c-0.17,1.53-0.26,3.95-0.49,5.46c-0.58,3.86,0.9,6.29,0.88,10.24 c-0.02,6.65,6.48,12.91,4.38,19.46c-5.2-0.71-6.56-12.33-6.95-16.23c-0.33-3.31-1.14-7.11-1.01-10.49 c0.11-2.91,1.43-6.24,2.54-9.75C185.35,197.6,186.24,196.78,186.01,198.89z"/><path fill="#a46546" d="M175.336,245.765c-1.109-0.261-1.878-1.531-2.954-2.083c-1.35-0.692-2.585-1.095-4-0.748c-1.036,0.254-2.413,0.743-3.136,1.575c-0.883,1.015,0.082,1.748,1.34,2.167c1.821,0.607,3.883,0.022,5.684,0.126c0.575,0.034,2.594,0.708,2.916,0.592c1.028-0.368,0.385-1.593-0.324-1.831"/><path fill="#a46546" d="M188,246.125c0.997,0.195,1.54-0.929,2.274-1.375c0.798-0.485,1.562-0.544,2.448-0.778c1.207-0.318,3.813-1.057,4.312,0.872c0.683,2.641-7.116,2.219-8.771,2.136c-0.073-0.301-0.024-0.601,0.112-0.855"/><path fill="none" stroke="#c78869" stroke-miterlimit="10" d="M195.5,233.375c1.334-0.088,3.025,2.333,3.844,3.278c1.017,1.175,1.686,2.355,2.126,3.774c0.819,2.645,0.538,5.88-1.748,7.67c-4.308,3.372-8.83,1.707-13.715,1.653c-1.755-0.02-2.239,0.348-3.622,1.285c-1.588,1.076-3.42,1.938-5.357,1.309c-0.758-0.247-1.411-0.894-2.065-1.347c-1.087-0.751-2.1-1.112-3.466-1.377c-1.9-0.369-3.917-0.249-5.847-0.245c-1.425,0.003-3.476,0.087-4.405-1.149c-0.768-1.022-2.494-2.351-0.744-5.226"/></g><g class="mouth mouth-19"><path fill="#a7696a" fill-opacity="0.9" d="M151.5,271c0.77,0.17,1.29,0.83,1.89,1.26c1.15,0.84,2.64,1.12,4.06,1.48c1.87,0.48,3.62,1.29,5.51,1.71c1.96,0.44,3.53,1.21,5.4,1.81c4.54,1.47,9.65,0.79,14.42,0.97c0.98,0.04,2.02,0.35,2.98,0.25c0.91-0.1,1.64-0.63,2.49-0.88c1-0.29,2.02-0.17,3.03-0.38c1.08-0.22,2.18-0.67,3.27-1.02c3.49-1.14,6.97-2.53,10.2-4.06c1.47-0.7,2.58-1.79,3.94-2.54c-3.5,0.88-7.71-0.12-11.31-0.12c-3.33,0-6.64-0.8-10.01-0.5c-1.62,0.15-2.39,0.86-3.87,1.48c-1.13,0.47-2.8,0.32-4.03,0.27c-4.11-0.18-8.24-1.13-12.34-0.75c-2.89,0.27-5.48,0.9-8.27,1.15c-1.29,0.12-2.56,0.32-3.88,0.19c-1.19-0.11-2.3-0.63-3.49-0.61c0.01,0.13,0.09,0.25,0.15,0.39"/><path fill="#cc8d6e" d="M151.63,270.75c1.2-1.41,2.12-2.21,3.97-2.88c1.28-0.46,2.48-0.92,3.61-1.66c0.86-0.56,1.38-1.06,2.46-1.35c3.68-0.96,7.58-2.58,11.48-2.62c0.73-0.01,4.14,0.89,5.46,0.75c1.6-0.17,3.17-0.25,4.81-0.25c3.34,0,6.84,0.59,10.1,1.23c3.11,0.6,10.94,4.84,12.49,5.02c0.77,0.09,1.71,0.04,2.24,0.6c-2.1,1.45-4.24,1.02-6.61,1.4c-1.77,0.29-3.42,0.2-5.19,0.12c-1.92-0.09-4.19-0.51-6.04-0.19c-1.35,0.23-2.72,0.89-4.05,1.26c-3.43,0.94-7.62,1.14-11.13,0.73c-3.42-0.4-6.62-2.15-10.13-1.78c-1.36,0.14-2.69,0.4-3.97,0.65c-1.98,0.39-3.9-0.22-5.85-0.41c-1.24-0.12-2.51-0.08-3.77-0.14c0.09-0.3,0.33-0.45,0.62-0.61"/></g></svg>