<svg id="s539e78526e2be" class="face" xmlns="http://www.w3.org/2000/svg" xmlns:xlink="http://www.w3.org/1999/xlink" x="0px" y="0px" width="357px" height="358px" viewBox="0 0 357 358"><path fill="#a16549" d="M268.5,189.04c-1.41-1.92-2.86-2.74-4.22-2.91c-3.96-0.47-7.28,4.62-7.28,4.62c2.38-21.04,0-32.96,0-32.96c-16.83-65.56-65.84-69.37-76.8-69.39c-0.71,0.02-1.44,0.04-2.2,0.06c-54,1.42-71.5,44.58-71.5,44.58c-9,12.5-4,61.55-4,61.55c-21-12.95-1.5,45.45-1.5,45.45c5,13.5,8,1,8,1c2.88,12.67,6.63,23.41,10.9,32.53c0.85,44.99,1.74,68.73,1.44,83.43c23.33,0,116.79,0,123.83,0l1.52-85.32c6.58-17.33,7.31-32.14,7.31-32.14c2.5,3,6.5,1.5,6.5,1.5C272.75,234.79,268.5,189.04,268.5,189.04z M255.96,199.92C255.93,200.18,255.94,200.15,255.96,199.92L255.96,199.92z M256.22,197.67c0.03-0.3,0.07-0.64,0.11-1.01C256.29,197.01,256.25,197.35,256.22,197.67z M256.82,192.32c0.06-0.55,0.11-0.99,0.14-1.26C256.91,191.5,256.87,191.92,256.82,192.32z M265.33,190.26c-0.04-0.16-0.09-0.37-0.16-0.62c-0.13-0.5-0.31-1.2-0.54-2.1c0.22,0.86,0.4,1.58,0.54,2.1C265.24,189.9,265.29,190.1,265.33,190.26C265.47,190.79,265.48,190.83,265.33,190.26z"/><path fill="#9c6044" d="M125.25,227.25c4.5-6.5,6.97-8.84,12.65-10c4.87-0.99,13.28-2.45,17.35-5.75c9.63-7.79,13.17-20.35,5.59-28.43c-4.32-4.6-7.03-7.3-13.05-8.81c-4.83-1.22-11.04-2.16-15.05-6.1c-7.84-7.69-11.29-20.73-10.82-31.2c0.41-8.95,9.17-18.79,15.15-24.83c7.04-7.12,15.71-14.12,23.72-20.42c-40.38,8.84-54.04,42.51-54.04,42.51c-9,12.5-4,61.55-4,61.55c-21-12.95-1.5,45.45-1.5,45.45c5,13.5,8,1,8,1c2.89,12.7,6.64,23.46,10.93,32.59c-0.78,38.87,1.32,70.54,1.15,83.21c7.79,0.1,53.6-30.51,61.45-32.32C179.16,318.81,113.75,264.75,125.25,227.25z"/><g class="eyes eyes-22"><path fill="#ffffff" fill-opacity="0.7" d="M154.4,199.38c-0.35-0.22-1.24-0.49-2.31-0.74c1.16,1.56,1.17,4.28,0.66,6.12c-0.5,1.82-3.27,3.8-5.12,4.38c2.18,0.33,5.62-0.3,7.87-0.5c2.81-0.25,5.73-1.07,8.58-1.02C163.46,206.09,159.25,202.38,154.4,199.38z"/><path fill="#ffffff" fill-opacity="0.7" d="M138.63,204.16c-0.14-0.27-0.23-0.59-0.29-0.91c-0.57-1.07-0.48-2.23-0.01-3.3c0.01-0.11,0.01-0.22,0.02-0.33c-1.12,0.33-2.18,0.77-3.12,1.41c-1.11,0.75-3.23,1.5-3.73,2.73l0.13-0.13c1.19,0.51,2.19,1.5,3.15,2.24c1.52,1.17,4.27,1.85,6.1,2.11c0.77,0.11,1.47,0.22,2.15,0.34c-0.57-0.37-1.13-0.79-1.67-1.25C140.34,206.22,139.24,205.35,138.63,204.16z"/><path fill="#483224" d="M152.75,204.75c0.51-1.83,0.5-4.56-0.66-6.12c-2.05-0.49-4.78-0.94-5.84-0.89c-2.3,0.11-4.4,1.04-6.6,1.53c-0.38,0.09-0.76,0.18-1.13,0.29c-0.03,0.05-0.05,0.1-0.07,0.14l-0.01-0.12c-0.03,0.01-0.06,0.02-0.09,0.03c-0.01,0.11-0.01,0.22-0.02,0.33c-0.47,1.07-0.56,2.23,0.01,3.3c0.06,0.32,0.15,0.63,0.29,0.91c0.61,1.2,1.72,2.07,2.73,2.92c0.54,0.46,1.1,0.88,1.67,1.25c1.5,0.26,2.89,0.55,4.61,0.81C149.48,208.55,152.25,206.57,152.75,204.75z"/><path fill="#ffffff" fill-opacity="0.7" d="M226.5,204.53c-1.93-1.7-3.74-2.98-6.17-3.97c0.34,0.4,0.63,0.8,0.83,1.16c0.64,1.21,0.51,3.53,0.12,4.81c-0.53,1.75-1.52,3.81-3.4,4.57c-1.8,0.73-5.55,0.03-7.03-0.95c-1.53-1.01-3.02-2.34-3.84-3.96c-0.47-0.92-0.89-1.94-1-2.94c-0.14-1.33,0.44-2.36,0.59-3.57c-0.37,0.2-0.73,0.41-1.12,0.66c-1.2,0.75-2.76,1.11-3.97,1.91c-1.61,1.08-2.58,3.07-3.81,4.53c0.65,0.42,1.48,0.79,1.97,1.2c1.05,0.27,2.21,0.96,3.23,1.39c2.06,0.85,4.13,1.04,6.28,1.67c1.38,0.4,2.66,0.68,4.1,0.72c1.68,0.05,3.7-0.08,5.38-0.25c4.42-0.44,5.44-5.37,9.83-5.62C227.81,205.39,227.12,205.08,226.5,204.53z"/><path fill="#483224" d="M206,203.25c0.11,1.01,0.53,2.03,1,2.94c0.83,1.62,2.32,2.95,3.84,3.96c1.48,0.98,5.23,1.68,7.03,0.95c1.88-0.76,2.87-2.82,3.4-4.57c0.39-1.28,0.52-3.59-0.12-4.81c-0.19-0.36-0.48-0.76-0.83-1.16c-0.16-0.06-0.31-0.13-0.47-0.19c-2.21-0.84-4.77-0.91-7.11-1.25c-1.33-0.19-2.58-0.28-3.94-0.15c-0.62,0.06-1.13,0.21-1.61,0.41c-0.2,0.21-0.39,0.42-0.58,0.61v-0.34c-0.01,0.01-0.02,0.01-0.04,0.02C206.44,200.89,205.86,201.92,206,203.25z"/></g><g class="eyebrows eyebrows-20"><path fill="#0e0e0c" fill-opacity="0.8" d="M120,193c2.964-3.944,4.346-8.004,7.818-11.7c4.633-4.93,12.946-4.678,19.194-5.3c3.71-0.369,7.282-0.226,10.949,0.682c2.651,0.656,9.891,1.969,10.744,4.818c1.394,4.653-8.978,4.32-11.4,4.25c-6.998-0.203-13.255-2.153-20.092,0.312c-3.685,1.328-6.448,1.632-9.695,3.638c-2.375,1.468-4.913,1.614-7.269,3.3"/><path fill="#0e0e0c" fill-opacity="0.8" d="M243.75,188.25c-1.425-0.445-3.628-3.865-5.098-4.994c-2.428-1.866-4.7-3.276-7.631-4.2c-5.42-1.709-10.988-3.056-16.717-3.056c-5.33,0-14.488-0.107-18.054,4.506c-4.131,5.345,4.082,5.994,7.75,5.994c3.552,0,7.34-1.307,10.749-1c3.77,0.34,6.914-0.049,10.5-0.25c3.549-0.199,8.461,0.801,11.75,1.987c2.738,0.987,4.834,3.308,7.968,3.219c-0.111-1.284-1.442-2.003-2.468-2.707"/></g><g class="chin chin-12"><path fill="none" stroke="#9c6044" stroke-miterlimit="10" d="M147.5,308c2.12,3.96,6.16,7.63,10.06,10.2c5.31,3.51,9.54,4.8,15.94,5.05c5.59,0.22,11.48,1.14,17.08,0.51c4.62-0.52,9.36-3.3,12.93-6.06c1.94-1.49,3.41-3.58,5.03-5.43c1.64-1.87,3.77-3.4,4.71-5.52"/></g><g class="hair hair-4"><path fill="#0e0e0c" fill-opacity="0.2" d="M105.29,191.58c0.19-4.12-1.57-8.49-0.85-12.35c0.44,0.06,1.1,0.2,1.46,0.26c0.33-8.07,1.73-17.04,1.54-24.76c0.6,0.01,1.32-0.23,1.85-0.25c-0.31-3.73-0.3-11.06,2.55-13.35c1.26-1.01,4.27-0.36,4.64-0.55c1.68-0.88,3.02-2.5,4.36-4.01c4.01-4.51,5.39-10.73,9.64-14.78c6.68-6.37,13.85-6.51,21.89-8.14c6.25-1.26,13.87-5.59,20.5-6c1.88-0.12,1.86-1.02,3.53-0.53c3.75,1.1,5.64,0.23,9.72,0.28c6.23,0.07,12.17,0.13,18,2.25c3.47,1.26,8.01,2.32,10.76,4.39c2.88,2.17,6.08,2.8,9.5,4.11c7.34,2.81,9.96,9.08,14.96,14.5c2.61,2.83,4.3,3.89,5.03,7.75c0.81,4.3,0.47,7.94,3.37,12.39c3.68,5.63,6.96,16.82,8.56,23.42c0.51,2.1,1.07,5.01,1.34,7.56c0.04-0.55,0.08-1.1,0.11-1.64c0.02-4.16,0.11-9.96,0.24-13.32c-0.11-3.44-0.34-6.1-0.55-7.96c-0.38-2.07-0.81-4.18-1.32-6.32c-17.59-62.44-65.15-66.13-75.93-66.15c-0.71,0.02-1.44,0.04-2.2,0.06c-54,1.42-71.5,44.58-71.5,44.58c-7.06,9.8-5.51,42.08-4.51,55.55c0.56,1.22,1.25,2.27,2.1,3.08C104.49,191.67,104.9,191.65,105.29,191.58z"/></g><g class="nose nose-17"><path fill="#975b3f" d="M186.01,198.89c-0.17,1.53-0.26,3.95-0.49,5.46c-0.58,3.86,0.9,6.29,0.88,10.24 c-0.02,6.65,6.48,12.91,4.38,19.46c-5.2-0.71-6.56-12.33-6.95-16.23c-0.33-3.31-1.14-7.11-1.01-10.49 c0.11-2.91,1.43-6.24,2.54-9.75C185.35,197.6,186.24,196.78,186.01,198.89z"/><path fill="#6f3317" d="M169.13,243.5c-1.2-0.13-2.39-0.76-3.62-0.62c-1.02,0.11-1.65,0.67-2.53,1.15c-1.83,1.01-4.11,3.85-0.39,3.01c2.33-0.52,4.93-0.37,7.19-1.01c2.82-0.79,0.12-2.27-1.41-2.41"/><path fill="#6f3317" d="M189.13,243.38c-1.01,0.23-4.93,1.23-4.49,2.34c0.49,1.22,4.62,1.45,5.86,1.51c4.41,0.22,0.55-3.61-1.75-3.72"/><path fill="none" stroke="#92563a" stroke-miterlimit="10" d="M194.2,234.86c3.32,1.47,5.54,5.68,5.64,9.12c0.1,3.45-3.07,5.8-6.25,6.33c-3.98,0.66-7.51-2.29-11.21-1.35c-3.01,0.76-5.59,2.47-8.75,0.92c-3.09-1.51-3.37,0.06-6.7,0.89c-1.87,0.46-8.16-0.15-9.8-1.66c-2.74-2.53,0-4.85-0.28-6.4"/></g><g class="mouth mouth-18"><path fill="#a7696a" fill-opacity="0.9" d="M150.583,273.08c1.07,0.018,1.815,2.137,2.813,2.597c1.146,0.528,2.438,1.08,3.581,1.729c2.122,1.205,3.841,1.71,6.302,1.45c2.836-0.3,5.597-0.552,8.378-1.059c2.344-0.427,4.561,0.065,6.929,0.267c4.757,0.404,9.565,0.329,14.273-0.381c1.8-0.272,3.257-0.942,5.057-1.085c2.166-0.173,4.103-0.857,5.845-2.153c1.892-1.407,2.503-3.22,4.558-4.245c-3.798-1.218-6.035-2.735-9.994-3.108c-2.107-0.198-4.114-1.126-6.19-1.289c-1.713-0.135-3.363,0.249-5.045,0.386c-8.57,0.697-17.878-0.676-26.158,2.105c-2.224,0.747-4.335,1.974-6.352,3.208c-1.308,0.8-2.629,0.131-3.515,1.417"/><path fill="#975b3f" d="M150.743,272.64c1.006-0.105,1.757-1.441,2.391-2.063c1.329-1.306,2.829-2.151,4.551-2.884c2.208-0.939,3.96-2.19,6.256-2.82c2.358-0.647,5.063-1.14,7.548-1.235c1.867-0.072,4.142,1.244,5.804,2.048c1.51,0.731,1.515,0.775,2.898-0.128c4.674-3.051,11.465-3.04,16.617-1.191c1.215,0.436,2.68,0.552,3.835,1.103c0.896,0.428,1.692,1.256,2.546,1.779c1.681,1.029,3.918,1.703,5.334,3.091c-1.88-0.243-4.24-0.82-6.16-0.345c-1.816,0.449-3.457,1.441-5.439,1.565c-1.555,0.097-7.411-0.343-8.91-0.573c-1.555-0.238-2.627,0.296-4.086,0.672c-1.474,0.379-3.086,0.234-4.582,0.381c-3.783,0.371-7.476-1.187-11.225-1.565c-1.304-0.132-2.83-0.086-4.068,0.153c-2.003,0.388-3.478,1.779-5.393,2.344c-2.522,0.745-5.306,0.305-7.796,0.147"/></g></svg>